<?xml version="1.0" encoding="UTF-8"?>
<!DOCTYPE svg PUBLIC "-//W3C//DTD SVG 1.1//EN" "http://www.w3.org/Graphics/SVG/1.1/DTD/svg11.dtd">
<!-- Creator: CorelDRAW 2017 -->
<svg xmlns="http://www.w3.org/2000/svg" xml:space="preserve" width="859px" height="455px" version="1.1" shape-rendering="geometricPrecision" text-rendering="geometricPrecision" image-rendering="optimizeQuality" fill-rule="evenodd" clip-rule="evenodd"
viewBox="0 0 859 455"
 xmlns:xlink="http://www.w3.org/1999/xlink">
 <defs>
    <mask id="id0">
      <linearGradient id="id1" gradientUnits="userSpaceOnUse" x1="175.65" y1="49.82" x2="65.58" y2="-47.22">
       <stop offset="0" stop-opacity="1" stop-color="white"/>
       <stop offset="0.341176" stop-opacity="0.501961" stop-color="white"/>
       <stop offset="1" stop-opacity="0" stop-color="white"/>
      </linearGradient>
     <rect fill="url(#id1)" x="-0.03" y="-0.03" width="805.61" height="445.76"/>
    </mask>
    <mask id="id2">
      <linearGradient id="id3" gradientUnits="userSpaceOnUse" x1="175.65" y1="49.82" x2="65.58" y2="-47.22">
       <stop offset="0" stop-opacity="1" stop-color="white"/>
       <stop offset="0.341176" stop-opacity="0.501961" stop-color="white"/>
       <stop offset="1" stop-opacity="0" stop-color="white"/>
      </linearGradient>
     <rect fill="url(#id3)" x="-0.03" y="8.82" width="607.44" height="411.5"/>
    </mask>
    <mask id="id4">
      <linearGradient id="id5" gradientUnits="userSpaceOnUse" x1="175.65" y1="49.82" x2="65.58" y2="-47.22">
       <stop offset="0" stop-opacity="1" stop-color="white"/>
       <stop offset="0.341176" stop-opacity="0.501961" stop-color="white"/>
       <stop offset="1" stop-opacity="0" stop-color="white"/>
      </linearGradient>
     <rect fill="url(#id5)" x="711" y="386.49" width="148.03" height="45.15"/>
    </mask>
    <mask id="id6">
      <linearGradient id="id7" gradientUnits="userSpaceOnUse" x1="175.65" y1="49.82" x2="65.58" y2="-47.22">
       <stop offset="0" stop-opacity="1" stop-color="white"/>
       <stop offset="0.341176" stop-opacity="0.501961" stop-color="white"/>
       <stop offset="1" stop-opacity="0" stop-color="white"/>
      </linearGradient>
     <rect fill="url(#id7)" x="663.66" y="417.13" width="194.12" height="37.9"/>
    </mask>
    <mask id="id8">
      <linearGradient id="id9" gradientUnits="userSpaceOnUse" x1="175.65" y1="49.82" x2="65.58" y2="-47.22">
       <stop offset="0" stop-opacity="1" stop-color="white"/>
       <stop offset="0.341176" stop-opacity="0.501961" stop-color="white"/>
       <stop offset="1" stop-opacity="0" stop-color="white"/>
      </linearGradient>
     <rect fill="url(#id9)" x="611.34" y="344.36" width="91.95" height="96.02"/>
    </mask>
    <mask id="id10">
      <linearGradient id="id11" gradientUnits="userSpaceOnUse" x1="175.65" y1="49.82" x2="65.58" y2="-47.22">
       <stop offset="0" stop-opacity="1" stop-color="white"/>
       <stop offset="0.341176" stop-opacity="0.501961" stop-color="white"/>
       <stop offset="1" stop-opacity="0" stop-color="white"/>
      </linearGradient>
     <rect fill="url(#id11)" x="572.79" y="307.77" width="9.51" height="76.47"/>
    </mask>
    <mask id="id12">
      <linearGradient id="id13" gradientUnits="userSpaceOnUse" x1="175.65" y1="49.82" x2="65.58" y2="-47.22">
       <stop offset="0" stop-opacity="1" stop-color="white"/>
       <stop offset="0.341176" stop-opacity="0.501961" stop-color="white"/>
       <stop offset="1" stop-opacity="0" stop-color="white"/>
      </linearGradient>
     <rect fill="url(#id13)" x="814.36" y="390.34" width="39.87" height="26.98"/>
    </mask>
    <mask id="id14">
      <linearGradient id="id15" gradientUnits="userSpaceOnUse" x1="175.65" y1="49.82" x2="65.58" y2="-47.22">
       <stop offset="0" stop-opacity="1" stop-color="white"/>
       <stop offset="0.341176" stop-opacity="0.501961" stop-color="white"/>
       <stop offset="1" stop-opacity="0" stop-color="white"/>
      </linearGradient>
     <rect fill="url(#id15)" x="567.99" y="408.11" width="59.73" height="24.79"/>
    </mask>
    <mask id="id16">
      <linearGradient id="id17" gradientUnits="userSpaceOnUse" x1="175.65" y1="49.82" x2="65.58" y2="-47.22">
       <stop offset="0" stop-opacity="1" stop-color="white"/>
       <stop offset="0.341176" stop-opacity="0.501961" stop-color="white"/>
       <stop offset="1" stop-opacity="0" stop-color="white"/>
      </linearGradient>
     <rect fill="url(#id17)" x="648.88" y="358.93" width="24.08" height="41.23"/>
    </mask>
    <mask id="id18">
      <linearGradient id="id19" gradientUnits="userSpaceOnUse" x1="175.65" y1="49.82" x2="65.58" y2="-47.22">
       <stop offset="0" stop-opacity="1" stop-color="white"/>
       <stop offset="0.341176" stop-opacity="0.501961" stop-color="white"/>
       <stop offset="1" stop-opacity="0" stop-color="white"/>
      </linearGradient>
     <rect fill="url(#id19)" x="616.13" y="361.01" width="38.25" height="19.99"/>
    </mask>
    <mask id="id20">
      <linearGradient id="id21" gradientUnits="userSpaceOnUse" x1="175.65" y1="49.82" x2="65.58" y2="-47.22">
       <stop offset="0" stop-opacity="1" stop-color="white"/>
       <stop offset="0.341176" stop-opacity="0.501961" stop-color="white"/>
       <stop offset="1" stop-opacity="0" stop-color="white"/>
      </linearGradient>
     <rect fill="url(#id21)" x="745.59" y="415.23" width="30.66" height="9.92"/>
    </mask>
    <mask id="id22">
      <linearGradient id="id23" gradientUnits="userSpaceOnUse" x1="175.65" y1="49.82" x2="65.58" y2="-47.22">
       <stop offset="0" stop-opacity="1" stop-color="white"/>
       <stop offset="0.341176" stop-opacity="0.501961" stop-color="white"/>
       <stop offset="1" stop-opacity="0" stop-color="white"/>
      </linearGradient>
     <rect fill="url(#id23)" x="550.91" y="280.24" width="17.16" height="27.66"/>
    </mask>
    <mask id="id24">
      <linearGradient id="id25" gradientUnits="userSpaceOnUse" x1="175.65" y1="49.82" x2="65.58" y2="-47.22">
       <stop offset="0" stop-opacity="1" stop-color="white"/>
       <stop offset="0.341176" stop-opacity="0.501961" stop-color="white"/>
       <stop offset="1" stop-opacity="0" stop-color="white"/>
      </linearGradient>
     <rect fill="url(#id25)" x="626.57" y="378.97" width="5.33" height="24.82"/>
    </mask>
    <mask id="id26">
      <linearGradient id="id27" gradientUnits="userSpaceOnUse" x1="175.65" y1="49.82" x2="65.58" y2="-47.22">
       <stop offset="0" stop-opacity="1" stop-color="white"/>
       <stop offset="0.341176" stop-opacity="0.501961" stop-color="white"/>
       <stop offset="1" stop-opacity="0" stop-color="white"/>
      </linearGradient>
     <rect fill="url(#id27)" x="796.69" y="420.82" width="23.16" height="9.43"/>
    </mask>
    <mask id="id28">
      <linearGradient id="id29" gradientUnits="userSpaceOnUse" x1="175.65" y1="49.82" x2="65.58" y2="-47.22">
       <stop offset="0" stop-opacity="1" stop-color="white"/>
       <stop offset="0.341176" stop-opacity="0.501961" stop-color="white"/>
       <stop offset="1" stop-opacity="0" stop-color="white"/>
      </linearGradient>
     <rect fill="url(#id29)" x="669.39" y="410.37" width="10.84" height="14.93"/>
    </mask>
    <mask id="id30">
      <linearGradient id="id31" gradientUnits="userSpaceOnUse" x1="175.65" y1="49.82" x2="65.58" y2="-47.22">
       <stop offset="0" stop-opacity="1" stop-color="white"/>
       <stop offset="0.341176" stop-opacity="0.501961" stop-color="white"/>
       <stop offset="1" stop-opacity="0" stop-color="white"/>
      </linearGradient>
     <rect fill="url(#id31)" x="567.48" y="386.19" width="9.4" height="14.47"/>
    </mask>
    <mask id="id32">
      <linearGradient id="id33" gradientUnits="userSpaceOnUse" x1="175.65" y1="49.82" x2="65.58" y2="-47.22">
       <stop offset="0" stop-opacity="1" stop-color="white"/>
       <stop offset="0.341176" stop-opacity="0.501961" stop-color="white"/>
       <stop offset="1" stop-opacity="0" stop-color="white"/>
      </linearGradient>
     <rect fill="url(#id33)" x="657.77" y="366.49" width="10.76" height="18.17"/>
    </mask>
    <mask id="id34">
      <linearGradient id="id35" gradientUnits="userSpaceOnUse" x1="175.65" y1="49.82" x2="65.58" y2="-47.22">
       <stop offset="0" stop-opacity="1" stop-color="white"/>
       <stop offset="0.341176" stop-opacity="0.501961" stop-color="white"/>
       <stop offset="1" stop-opacity="0" stop-color="white"/>
      </linearGradient>
     <rect fill="url(#id35)" x="556.78" y="285.72" width="9.03" height="16.8"/>
    </mask>
 </defs>
 <g id="bg">
  <metadata id="CorelCorpID_0Corel-Layer"/>
  <g id="_1411362688">
   <path fill="#666666" mask="url(#id0)" d="M626.7 403.65l-0.04 -23.17 1.96 -1.14c1.04,-0.28 2.19,-0.2 3.25,-0.15l-0.02 23.56c-2.58,0.94 -1.69,1.17 -5.15,0.9zm-626.7 -394.8c2.56,0.11 373.87,179.49 375.76,180.29 29.27,12.39 80.1,37.86 104.91,55.91 22.59,16.45 58.87,17.16 82.45,35.69 1.83,1.87 8.13,10.53 8.46,12.18 1.36,6.85 7.34,18.37 9.74,28.64 2.09,9.15 -0.28,46.77 -0.3,61.55 -0.08,0.53 -0.48,1.86 -0.7,2.24 -0.47,0.81 -0.7,0.64 -1.53,1.16 0.95,0.47 -2.73,2.34 -2.55,3.52 0.24,1.62 1.65,3.72 2.26,5.23l3.46 2.03 2.8 7.01c1.01,1.61 1.65,1.65 4.07,1.6 -0.24,1.11 0.79,-5.76 1.2,-4.77 1.02,0.03 1.73,2.93 2.72,3.1l1.54 0.51c0.76,0.4 3.27,1.19 4.24,2.04 1.37,1.21 2.26,-0.24 5.36,1.92 0.07,0.05 0.41,0.28 0.48,0.33l-6.44 -1.06c0.05,2.16 8.78,5.7 7.73,7.14 -0.49,0.47 -0.97,0.91 -1.42,1.4 -0.06,0.07 -0.13,0.17 -0.19,0.23l-6.85 -1.36c-7.65,0.3 -11.76,-5.02 -21.67,-9.44 -1.88,-1.44 -5.96,-1.64 -7.41,-3.52 -1.1,-1.41 -1.6,-4.05 -2.09,-4.8 -1.08,-1.65 -0.23,-3.74 -0.24,-5.9 -0.01,-2.71 0.66,-3.91 0.59,-6.17 -0.09,-2.64 7.75,-0.04 7.29,-1.74 11.12,-0.33 -0.21,-44.56 -0.21,-53.11l-0.04 -5.24c-0.54,-3.48 -14.68,-27.06 -18.17,-31.05 -2.45,-2.79 -3.71,-2.9 -7.33,-6.17 -0.06,-0.05 -0.15,-0.13 -0.21,-0.18 -1.81,-1.5 -9.01,-7.34 -9.2,-7.39 -3.48,-0.91 -5.54,-2.41 -10.1,-2.49 -0.54,-1.16 -0.41,-1.43 -1.2,-2.01l-9.55 -4.6c-1.66,-0.98 -2.72,-1.4 -4.68,-1.43 -0.14,-2.34 0.02,-1.63 -1.68,-2.29 -2.77,-1.09 -1.04,0.32 -1.42,-1.58 -1,-0.04 -3.63,-0.04 -4.45,-0.26 -1.31,-0.34 -1.94,-1.25 -3.35,-1.92 -0.07,-0.03 -0.8,-0.34 -0.85,-0.37 -2.2,-1.07 -1.51,-1.56 -4.31,-1.69l-0.81 -1.51c-0.67,-0.02 -0.93,0.01 -1.6,-0.14l-1.81 -0.65c-0.1,-0.03 -0.21,-0.06 -0.31,-0.1 -0.39,-0.13 -0.55,-0.17 -0.92,-0.31l-2.1 -0.74c-1.78,-0.76 -0.34,-0.28 -1.8,-1.08 -1.7,-0.93 -3.72,-0.97 -5.19,-2.11 -0.25,-0.18 -0.36,-0.26 -0.7,-0.51 -0.01,-0.01 -0.92,-0.72 -0.92,-0.72l-2.61 -1.35c-4.05,-1.36 -3.71,0.32 -8.01,-2.2l-1.85 -3.55c-0.14,-0.12 -22,-9.22 -24.19,-10.47 -0.28,-0.22 -2.87,-5.63 -3.67,-5.67 -1.68,-2.66 -422.53,-200.94 -440.43,-209.28l0 9.18c3.56,1.03 386.54,188.02 391.23,190.21 51.16,23.87 102.69,50 153.63,74.73 10,5.26 12.06,13.67 12.67,24.43 0.56,9.96 0.01,37.41 0.01,49.36 0,11.5 1.21,21.62 5.49,31.47 0.51,1.17 3.67,6.67 4.99,7.66 0.21,-0.68 -0.16,-0.53 0.83,-0.51 0.37,0.84 4.92,7.28 5.24,7.54 5.32,4.17 4.07,0.97 7.16,3.25 0.39,0.3 1.49,1.11 1.74,1.28l6.45 1.7c0.07,0.04 0.17,0.12 0.24,0.16 0.07,0.04 0.16,0.1 0.23,0.14 1.58,0.85 1.02,-0.07 2.94,1.61 1.38,1.22 1.99,0.56 3.67,1.01l1.65 0.81c0.98,0.41 3.08,0.48 4.38,0.34l5.03 -2.15c0.22,-0.15 0.26,-0.22 0.44,-0.36 0.26,-0.2 0.37,-0.28 0.69,-0.53 2.23,-1.71 1.09,-2.08 3.59,-3.73l0.91 -0.67c0.09,-0.08 0.3,-0.38 0.39,-0.46 0.51,-0.4 0.03,-2.01 2.78,0.96l5.67 -0.08c0.46,-1.25 0.14,-1.15 0.9,-2.33 0.14,-0.21 0.87,-1.07 0.93,-1.13 0.86,-0.71 0.07,-0.47 1.55,-0.79 1.04,4.92 -0.27,8.49 0.05,9.57 0.01,0.05 0.05,0.16 0.08,0.2l0.47 0.4c0.03,0.02 0.15,0.05 0.21,0.09 -0.1,0.07 -0.28,0 -0.33,0.16 -0.06,0.14 -0.26,0.11 -0.33,0.15 -1.77,0.89 -0.96,0.03 -1.37,0.91 0.39,1.06 -0.28,-0.04 0.46,0.66l0.57 0.48c0.08,0.07 0.23,0.16 0.34,0.25 3.91,-3.07 8.3,-12.09 8.75,-15.88 0.28,-2.36 0.68,-5.02 0.93,-7.45 1.02,-10.09 -0.69,-21.96 1.15,-32l-5.16 -1.91c-0.71,0.99 -0.38,2.77 -1.59,3.6l-4.01 -2.23c-1.74,0.44 -1.68,3.77 -2.94,2.83l-2.17 -1.01c-1.97,-0.81 -1.38,-1.31 -2.27,-2.71 -1.7,-2.68 -2.3,-3.22 0.71,-5.23 1.81,-1.2 1.29,-1.09 1.65,-1.82l0.61 -1.23c0.72,-0.02 1.75,-0.08 2.45,-0.01 0.63,0.06 0.51,0.04 1.07,0.19 4.94,1.26 3.77,0.1 5.25,1.68l2.03 1.58c0.84,0.52 2.7,0.95 3.78,1.13 -0.16,0.15 -0.62,1.32 -1.63,0.39 1.67,0.07 2.14,0.22 3.21,1.31 2.06,2.1 0.77,-0.11 3.85,2.11 3.4,2.45 3.36,-0.51 3.47,2.65 3.32,0 2.99,0.68 5.84,2.6l2.45 2.06c0.08,0.08 1.37,2.34 0.63,2.71 2.34,2.74 4.67,9.38 5.36,12.73l2.02 16.25c0.3,2.78 1.38,7.77 2.67,9.83 1.31,-0.31 1.42,4.72 3.53,7.32 2.49,4.93 15.91,14.94 20.67,16.51 6.55,2.17 12.52,3.97 17.12,-1.71 16.67,-26.19 13.14,-27.81 48.58,-9.68 3.81,1.95 10.7,2.27 13.92,2.44l20.31 -0.23c0.42,-0.15 19.86,-4.89 17.54,-5.61 -2.66,-0.82 -26.61,-0.31 -30.78,-0.32 -25.55,-0.07 -22.98,-14.49 -44.25,-21.02 -8.52,-6.04 -16.16,-0.94 -19.3,4.1 -2.12,3.43 -4.39,10.65 -6.01,14.11 -1.75,-0.63 -5.02,-2.33 -6.7,-3.22 -7.51,-3.97 -9.48,-10.85 -10.66,-20.12 -2.09,-16.54 -2.56,-24.27 -12.74,-38.69 -11.02,-11.91 -25.14,-18.61 -40.9,-20.58 -4.27,-0.53 -6.02,-0.03 -8.98,1.31 0.1,0.08 0.27,0.03 0.33,0.19 0.38,1.06 0.18,0.1 0.63,0.37 1.29,0.79 0.34,0.89 2.51,1.02 1.54,0.08 3.35,-0.36 4.75,0.2 1.87,0.76 -0.08,0.73 3.78,0.99 1.6,0.11 3.51,0.48 4.72,1.48 1.9,1.57 5.79,2.43 8.43,3.71 2.95,1.63 1.72,-0.2 3.5,2.97 3.03,0.09 3.66,0.56 5.39,2.31l5.26 5.27c1.35,1.13 1.04,1.63 2.95,3.11 0.27,0.2 0.42,0.3 0.67,0.55 1.05,1.11 -0.58,-0.88 0.37,0.45l0.3 0.5c0.44,0.79 0.15,0.36 0.51,1.13l0.93 1.5c0.05,0.07 0.13,0.16 0.18,0.23l3.12 4.59c0.62,2.29 0.68,5.13 1.88,7.39 1.13,-0.08 1.57,-2.64 3.74,2.75l3.16 11.92c2.03,7.24 -1.58,15.51 -1.49,23.35 0.97,0.08 3.72,3.07 4.55,3.46l5.63 2.45c3.25,1.11 4.46,0.58 8.15,0.78 1.48,2.36 5.32,5.86 1.53,8.8 -0.01,0.01 -0.87,0.43 -0.95,0.48l-0.14 2.89c-10.44,0.19 -5.32,0.06 -9.48,-1.48 -2.54,-0.94 -0.68,0.67 -1.9,-1.64l-2.02 -0.06c-0.31,-0.38 -0.25,-0.23 -0.56,-0.85 -0.05,-0.09 -0.2,-0.53 -0.25,-0.65 -2.85,-0.12 -3.17,-0.51 -5.07,-1.61 -1.24,-0.72 -1.2,-0.32 -2.35,-0.88 -0.43,-0.21 -0.58,-0.36 -0.98,-0.67 -0.07,-0.06 -0.15,-0.14 -0.21,-0.19l-7.96 -7.84c-1.29,-1.91 -1.76,-2.83 -2.01,-5.22 -0.17,-1.69 -0.29,-1.35 -0.71,-2.57 -0.65,-1.92 -0.51,-3.58 -0.52,-5.95 -0.05,-6.71 4.89,-3.91 3.16,-7.36 -1.09,-2.17 -2.3,-7.08 -2.98,-9.16 -2.94,-3.97 -4.89,-5.2 -5.66,-10 -0.44,-2.74 -1.32,-2.35 -2.68,-4.2 -0.7,-0.97 -7.11,-12.67 -8.06,-13.4 -3.86,-2.97 -24.29,-9.93 -24.31,-9.97 -4.25,-0.06 -11.98,1.38 -13.36,3.49 -1.85,3.77 -1.45,3.12 -1.99,7.68 -0.51,4.3 -0.98,7.4 -0.97,12.16l-0.01 19.42c-0.06,1.27 -0.32,4.1 -1.08,5.21 -0.89,-0.36 -1.11,-0.57 -2.13,-1.06 -3.98,-1.9 -6.99,-2.32 -12.24,-5.96 -2.89,-2.01 -1.69,-1.19 -3.42,-3.87 -1.47,-2.26 -1.3,-1.87 -2.14,-4.71 -2.63,-8.82 -2.58,-7.79 -2.58,-19.14 0,-42.22 6.69,-62.96 -13.21,-87.34 -9.29,-10.33 -42.66,-23.89 -56.18,-30.1 -36.52,-19.32 -77.6,-38.65 -115.22,-56.85 -4.27,-2.71 -15.19,-7.9 -19.64,-9.96 -3.26,-1.52 -377.18,-183.06 -380.71,-184.5l0 8.85z"/>
   <path fill="gray" mask="url(#id2)" d="M0 21.64c0.4,0.02 404.09,196.27 408.13,197.86 7.14,4.58 52.32,24.77 52.83,25.68 2.29,0.54 5.85,3.62 9.18,5.43 6.91,4.06 23.97,11.32 39.56,19.17 11.39,5.73 23.94,10.22 28.25,13 11.07,5.17 16.7,11.48 20.11,18.45 1.63,3.32 2.75,6.79 3.71,10.36 2.26,3.97 0.94,12.33 8.46,12.25 0.4,0 1.21,-0.01 1.58,0.04l0.64 0.15c0.69,0.19 0.86,0.77 0.97,1.43l0.04 5.24c-0.01,15.07 0.31,33.52 -5.11,42.47 -1.03,1.68 -2.36,3.27 -3.73,5.98 -1.69,6.09 -2.73,15.26 3.5,23.27 8.38,10.79 17.39,8.92 24.68,15.79 3.6,3.56 9.52,2.05 12.22,-0.84 7.71,-7.44 -5.51,-13.1 -10.2,-15.33 -6.62,-2.2 -11.26,-2.88 -14.56,-7.69 -2.32,-5.83 0.1,-6.91 0.76,-11.24l-0.34 -2.91c-0.6,1.38 0.22,1.45 -0.9,2.55 -0.91,0.9 -1.56,0.54 -3.09,0.46 -2.88,-4.4 -2,-10.28 -2,-16.89l0 -38.86c0,-3.35 0.32,-5.79 0.35,-9.3 0.01,-1.4 0.23,-14.26 2.66,-7.52 0.74,2.08 1.2,5.49 1.89,3.53 -0.04,-1.46 -0.89,-8.39 -1.59,-10.53 -1.46,-4.46 -3.84,-5.7 -4.93,-11.15 -1.18,-6.92 -19.97,-20.06 -25.07,-21.34 -17.46,-7.5 -72.08,-34.34 -91.2,-44.39 -4.33,-1.09 -12.45,-5.91 -16.97,-8.17 -8.04,-5.6 -23.26,-9.44 -30.43,-14.14 -8.68,-4.24 -16.97,-7.54 -25.15,-12.5 -1.63,-0.55 -5.3,-2.84 -7.83,-3.91 -1.89,-0.8 -373.86,-179.08 -376.42,-179.19l0 12.79z"/>
   <path fill="#999999" mask="url(#id4)" d="M824.51 415.29c-1.81,1.29 -0.83,0.5 -5.66,1.41 -0.07,-0.09 -0.15,-0.22 -0.19,-0.29l-3.58 -7.6c1.87,-0.27 3.96,-0.89 4.96,-2.09l0.83 -1.16c0.69,-0.68 1.68,-0.91 2.84,-1.01 0.03,-0.07 0.02,-0.2 0.03,-0.23l0.09 -0.36c0.01,-0.02 0.08,-0.09 0.09,-0.11 0.03,-0.03 -0.98,-0.11 0.44,-0.03 0.64,-0.61 3.44,-1.17 4.5,-1.49 4.27,-1.31 1.42,-0.3 2.48,-2.88l3.71 -0.54c0.05,-0.07 0.12,-0.18 0.14,-0.21l0.29 -0.39c1.4,-1.75 0.57,0.44 1.19,-1.67 4.91,-0.24 2.76,-0.68 4.79,-2 1.51,-0.98 2.29,-0.18 3.72,-2.03 1.11,1.4 0.45,-0.16 2.43,2.36l2.27 3.49c1.98,2.74 2.78,4.05 3.09,7.68 -2.41,0.23 -0.38,0.68 -5.37,0.93l-3.51 -0.87c-3.64,0 -5.45,2.91 -7.86,4.21l-0.51 0.3c-0.54,0.24 -0.34,0.16 -0.95,0.3 -0.7,0.17 -1.3,0.23 -2.16,0.34 -1.75,0.22 -2.8,0.58 -4.16,0.98 2.18,-0.23 1.07,0.15 1.27,0.94 -1.57,1.11 -3.01,0.45 -5.21,2.02zm-113.48 -3.71c4.57,-3.33 12.51,-5.42 18.27,-0.88 2.19,1.07 4.64,4.68 10.52,8.55 3.76,2.47 9.27,7.27 14.87,8.93 12,3.55 25.15,4.49 37.29,2.14 8.57,-1.2 16.24,-0.45 24.67,-2.18 10.82,-2.23 18.11,-3.15 30.55,-3.1 3.95,0.01 4.73,-0.51 8.41,1.18 0.13,0.01 0.23,0.04 0.31,0.09 0.76,0.42 1.72,3.14 1.72,3.14l0.11 1.7c2.72,-4.65 0.41,-21.25 -1.3,-26.34 -2.23,-6.64 -8.77,-18.12 -16.8,-18.29 -0.72,-0.01 -1.43,0.04 -2.09,0.15 -2.78,0.51 -23.54,15.99 -27.14,18.97 -1.99,1.65 -2.31,1.43 -5.22,2.09 -5.15,1.19 -21.16,4.61 -26.02,4.74 -26.4,0.73 -32.08,-10.03 -42.64,-11.5 -9.57,-1.33 -21.57,-0.18 -25.51,10.61z"/>
   <path fill="#515151" mask="url(#id6)" d="M663.69 419.78c0.22,1.54 1.5,5.13 2.12,6.41 6.72,13.81 17.21,19.93 30.67,26.03 3.69,1.67 9.12,2.76 13.85,2.78 4.74,0.02 8.31,-2.95 11.28,-4.96 4.83,-3.27 9.4,-15.15 11.94,-20.54 4.63,0.64 9.52,4.52 13.89,6.17 2.7,1.03 5.07,1.66 7.65,2.46 2.83,0.88 5.64,0.99 8.36,1.38 12.38,1.75 24.52,0.38 35.82,-2.1 2.94,-0.65 13.64,-3.33 16.5,-2.82 7.38,1.31 27.13,7.57 32.38,6.81 1.97,-0.29 5.23,-2.23 6.51,-3.66 1.06,-1.19 3.09,-6.59 3.09,-6.59l-0.11 -1.7c-1.22,-5.22 -6.06,-4.4 -10.44,-4.41 -3.24,-0.02 -6.48,-0.01 -9.72,0.01 -3.52,0.01 -6.3,0.39 -9.32,0.4 -7.04,0.02 -19.78,2.92 -26.35,4.71 -4.89,1.34 -4.29,1.22 -9.46,1.94 -7.24,1.01 -18.04,1.07 -25.37,1.17 -8.11,-0.43 -23.67,-5.08 -30.26,-10.97 -4.26,-4 -14.53,-8.57 -22.26,-1.31 -2.51,2.75 -5.59,14.13 -10.09,20.48 -4.04,4.98 -9.6,3.32 -14.45,1.71 -9.87,-3.26 -22.24,-11.62 -24.96,-22.08 -0.49,-1.9 0.35,-0.79 -0.82,-1.43l-0.45 0.11z"/>
   <path fill="gray" mask="url(#id8)" d="M611.37 359.32c5.35,-1.68 18.91,-1.33 24.72,3.07 10.98,8.27 9.97,1.23 21.16,16.51 2.19,2.98 2.33,5.31 3.87,8.37 4.68,9.29 3.36,12.09 3.43,22.46 0.02,3.1 1.98,12.04 3.45,14.22 5.93,8.16 13.82,11.92 22.43,15.09 12.61,4.64 14.52,-4.09 11.69,-9.14 -2.59,-4.62 -9.61,-6.52 -15.94,-10.24 -7.06,-3.28 -1.01,-11.87 -4.03,-22.64 -4.66,-29.68 -26.96,-50.95 -57.11,-52.63 -1.67,1.12 -1.77,1.24 -3.71,2.16 -0.97,0.47 -3.06,1.95 -3.89,2.63 -3.37,2.78 -5.07,6.65 -6.07,10.14z"/>
   <path fill="#999999" mask="url(#id10)" d="M581.02 383.11c1.94,-6.03 0.91,-23.8 1.15,-35.2 0.46,-21.36 -0.6,-46.3 -6.18,-38.73 -1.14,1.55 -0.94,8.02 -0.95,8.98 -0.03,3.51 -0.35,5.95 -0.35,9.3 -0.36,6.73 -6.73,65.46 6.33,55.65z"/>
   <path fill="#CCCCCC" mask="url(#id12)" d="M814.39 408.28l4.59 8.98c0.32,0.53 29.45,-9.51 35.22,-11.55 -0.51,-6.06 -6.62,-10.92 -10.15,-15.34 -1.42,1.85 -27.47,17.59 -29.66,17.91z"/>
   <path fill="#515151" mask="url(#id14)" d="M625.58 427.61c7,-15.14 -4.68,-19.63 -16.26,-10.22 -2.42,1.97 -4.39,4.55 -7.79,5.57 -7.13,1.95 -23.85,-6.24 -28.26,-9.94 -1.49,-1.24 -3.7,-3.2 -4.42,-4.85 -0.99,-0.02 -0.62,-0.17 -0.83,0.51 0.75,3.37 7.48,9.65 10.4,11.35 8.18,6.7 21.76,11.65 31.26,12.56 8.2,1 10.31,-0.69 15.9,-4.98z"/>
   <path fill="#999999" mask="url(#id16)" d="M668.19 377.75c0.29,1.56 0.63,5.61 -0.31,6.51 -2.39,2.3 -5.77,-7.11 -6.06,-7.57 -0.61,-0.94 -5.7,-7.46 -3.46,-9.7 1.1,-1.09 2.32,-0.06 3.46,0.84l0.46 0.37c1.69,1.57 5.42,6.9 5.91,9.55zm2.05 22.38c0.51,-1.1 0.32,-3.95 0.69,-5.16 1.52,-5.03 2.85,-8.55 1.32,-14.62 -0.58,-2.3 -1.29,-4.89 -2.29,-6.54 -4.41,-7.24 -6.56,-8.41 -12.92,-12.93 -4.41,-3.13 -9.7,-2.61 -7.69,2.79 0.35,0.97 3.07,3.56 3.9,4.25 4.13,3.42 12.53,25.1 15.83,31.21 0.68,1.26 -0.83,0.84 1.16,1z"/>
   <path fill="#515151" mask="url(#id18)" d="M636.41 372.28c1.07,0.48 2.81,1.41 4.23,1.84 2,0.6 2.7,1 4.56,1.84 3.39,1.53 6.02,2.82 8.44,5.01 2.31,-1.15 -1.6,-3.53 -3.13,-4.83 -2.86,-2.74 -5.78,-4.78 -9.11,-6.78 -3.46,-2.07 -6.64,-5.23 -9.95,-6.7 -7.93,-4.29 -19.46,0.35 -13.77,9.31 1.77,2.78 10.82,6.74 13.54,0.22 0.36,-0.85 1.59,-1.06 5.19,0.09z"/>
   <path fill="#CCCCCC" mask="url(#id20)" d="M748.98 415.31c-7.91,-0.67 0.02,6.01 4.84,7.84 4.04,1.54 7.18,1.97 12.65,1.97 2.88,0 7.08,-0.75 9.09,-2.71 1.75,-1.7 -0.4,-2.72 -1.87,-3.37 -3.7,-1.61 -19.6,-2.98 -24.71,-3.73z"/>
   <path fill="#999999" mask="url(#id22)" d="M553.32 287.65l3.41 5.96c2.2,2.63 5.1,14.37 10.24,14.26 1.32,-1.59 1.04,-2.29 1.04,-5.09 -0.04,-18.77 -24.66,-31.15 -14.69,-15.13z"/>
   <path fill="#999999" mask="url(#id24)" d="M626.7 403.65c3.46,0.27 2.57,0.04 5.15,-0.9l0.02 -23.56c-2.85,-0.14 -2.91,-0.59 -5.27,0.78l0.1 23.68z"/>
   <path fill="#CCCCCC" mask="url(#id26)" d="M809.86 428.56l0.49 -0.31c4.13,-2.34 9.31,0.58 9.46,-4.04 0.17,-4.91 -2.06,-3 -2.11,-2.99 -4.5,1.34 -13.69,2.48 -17.91,3.64 -7.88,2.17 0.86,8.28 10.07,3.7z"/>
   <path fill="#999999" mask="url(#id28)" d="M670.68 410.48c-2.32,2.61 -1.02,7.71 0.62,9.81 1.98,2.52 4.43,5.87 7.88,4.75 2.95,-1.78 -0.7,-15.84 -8.5,-14.56z"/>
   <path fill="#999999" mask="url(#id30)" d="M575.74 400.23c2.73,-1.71 -0.13,-10.61 -2.75,-12.82 -4.34,-3.65 -7.49,1.64 -3.96,8.37 1.37,1.82 3.94,6.19 6.71,4.45z"/>
   <path fill="#CCCCCC" mask="url(#id32)" d="M658.36 366.99c-2.24,2.24 2.85,8.76 3.46,9.7 0.29,0.46 3.67,9.87 6.06,7.57 0.94,-0.9 0.6,-4.95 0.31,-6.51 -0.49,-2.65 -4.22,-7.98 -5.91,-9.55l-0.46 -0.37c-1.14,-0.9 -2.36,-1.93 -3.46,-0.84z"/>
   <path fill="#CCCCCC" mask="url(#id34)" d="M564.95 302.43c2.62,-3.96 -1.61,-10.88 -3.95,-13.92 -5.18,-6.73 -5.38,0.11 -1.61,6.82 0.76,1.35 1.35,2.61 2.2,3.92 2.29,3.53 1.81,3.32 3.36,3.18z"/>
  </g>
 </g>
</svg>
