<?xml version="1.0" encoding="UTF-8"?>
<!DOCTYPE svg PUBLIC "-//W3C//DTD SVG 1.1//EN" "http://www.w3.org/Graphics/SVG/1.1/DTD/svg11.dtd">
<!-- Creator: CorelDRAW 2017 -->
<svg xmlns="http://www.w3.org/2000/svg" xml:space="preserve" width="1043px" height="328px" version="1.1" shape-rendering="geometricPrecision" text-rendering="geometricPrecision" image-rendering="optimizeQuality" fill-rule="evenodd" clip-rule="evenodd"
viewBox="0 0 1043 328"
 xmlns:xlink="http://www.w3.org/1999/xlink">
 <defs>
    <mask id="id0">
      <linearGradient id="id1" gradientUnits="userSpaceOnUse" x1="708.18" y1="284.59" x2="1012.21" y2="376.57">
       <stop offset="0" stop-opacity="1" stop-color="white"/>
       <stop offset="1" stop-opacity="0" stop-color="white"/>
      </linearGradient>
     <rect fill="url(#id1)" x="0.11" y="18.33" width="1042.92" height="309.78"/>
    </mask>
    <mask id="id2">
      <linearGradient id="id3" gradientUnits="userSpaceOnUse" x1="708.18" y1="284.59" x2="1012.21" y2="376.57">
       <stop offset="0" stop-opacity="1" stop-color="white"/>
       <stop offset="1" stop-opacity="0" stop-color="white"/>
      </linearGradient>
     <rect fill="url(#id3)" x="260.16" y="0.22" width="782.87" height="258.79"/>
    </mask>
    <mask id="id4">
      <linearGradient id="id5" gradientUnits="userSpaceOnUse" x1="708.18" y1="284.59" x2="1012.21" y2="376.57">
       <stop offset="0" stop-opacity="1" stop-color="white"/>
       <stop offset="1" stop-opacity="0" stop-color="white"/>
      </linearGradient>
     <rect fill="url(#id5)" x="265.11" y="217.18" width="42.32" height="33.62"/>
    </mask>
    <mask id="id6">
      <linearGradient id="id7" gradientUnits="userSpaceOnUse" x1="708.18" y1="284.59" x2="1012.21" y2="376.57">
       <stop offset="0" stop-opacity="1" stop-color="white"/>
       <stop offset="1" stop-opacity="0" stop-color="white"/>
      </linearGradient>
     <rect fill="url(#id7)" x="108.27" y="187.23" width="42.4" height="33.69"/>
    </mask>
    <mask id="id8">
      <linearGradient id="id9" gradientUnits="userSpaceOnUse" x1="708.18" y1="284.59" x2="1012.21" y2="376.57">
       <stop offset="0" stop-opacity="1" stop-color="white"/>
       <stop offset="1" stop-opacity="0" stop-color="white"/>
      </linearGradient>
     <rect fill="url(#id9)" x="270.77" y="24.51" width="71.23" height="60.67"/>
    </mask>
    <mask id="id10">
      <linearGradient id="id11" gradientUnits="userSpaceOnUse" x1="708.18" y1="284.59" x2="1012.21" y2="376.57">
       <stop offset="0" stop-opacity="1" stop-color="white"/>
       <stop offset="1" stop-opacity="0" stop-color="white"/>
      </linearGradient>
     <rect fill="url(#id11)" x="204.17" y="141.06" width="133.75" height="33.85"/>
    </mask>
    <mask id="id12">
      <linearGradient id="id13" gradientUnits="userSpaceOnUse" x1="708.18" y1="284.59" x2="1012.21" y2="376.57">
       <stop offset="0" stop-opacity="1" stop-color="white"/>
       <stop offset="1" stop-opacity="0" stop-color="white"/>
      </linearGradient>
     <rect fill="url(#id13)" x="316.07" y="15.05" width="37.54" height="33.55"/>
    </mask>
    <mask id="id14">
      <linearGradient id="id15" gradientUnits="userSpaceOnUse" x1="708.18" y1="284.59" x2="1012.21" y2="376.57">
       <stop offset="0" stop-opacity="1" stop-color="white"/>
       <stop offset="1" stop-opacity="0" stop-color="white"/>
      </linearGradient>
     <rect fill="url(#id15)" x="-0.03" y="35.18" width="21.42" height="29.79"/>
    </mask>
    <mask id="id16">
      <linearGradient id="id17" gradientUnits="userSpaceOnUse" x1="708.18" y1="284.59" x2="1012.21" y2="376.57">
       <stop offset="0" stop-opacity="1" stop-color="white"/>
       <stop offset="1" stop-opacity="0" stop-color="white"/>
      </linearGradient>
     <rect fill="url(#id17)" x="357.06" y="172.32" width="681.9" height="149.14"/>
    </mask>
 </defs>
 <g id="bg">
  <metadata id="CorelCorpID_0Corel-Layer"/>
  <g id="_1411329024">
   <path fill="#B3C000" mask="url(#id0)" d="M1043 298.44l-0.08 29.64 -426.61 -86.01c-87.16,-18.01 -177.59,-35.25 -263.96,-54.05l-32.14 27.28c-1.72,1.41 -1.31,0.05 -1.32,2.81l0.01 22.13c-2.16,2.45 -11.57,10.53 -11.57,10.53l0.07 -25.42 -42.26 -8.14c3.79,-3.6 7.56,-6.86 11.51,-10.25 3.81,0 15.05,3.37 19.77,4.32 1.46,0.3 3.5,1.1 4.84,0.35l37.24 -31.59c-1.76,-0.99 -15.06,-3.04 -17.04,-3.77 -4.96,-1.82 -26.51,-5.69 -32.28,-6.86 -7.9,-1.6 -16.68,-3.42 -24.67,-5.01 -4.08,-0.81 -8.13,-1.67 -12.33,-2.52l-25.29 -4.78c-2.87,-0.54 -23.64,-5.05 -24.66,-4.8 -11.32,9.18 -21.53,17.59 -32.51,27.39 -2.71,2.17 -5.53,4.59 -8.16,7.02 0.07,7.9 -0.03,24.01 -0.03,24.01l-10.89 9.4 -0.49 -24.62c0,0 -34.38,-6.77 -41.85,-8.24 3.82,-3.5 7.78,-6.74 11.69,-9.63 6.67,0.72 14.84,2.72 21.51,4.21 1.81,0.41 1.57,0.48 2.72,-0.29l6.45 -5.65c1.11,-1.25 2.72,-2.52 4.06,-3.58 10,-7.89 20.41,-17.07 30.12,-25.45 -1.17,-0.54 -1.8,-0.68 -2.85,-0.89l-81.63 -17.04c-1.91,-0.39 -3.94,-0.83 -6,-1.23 -5.96,-1.15 -8.59,-1.92 -16.46,-5.8 -1.46,-1.17 -2.88,-2.15 -3.55,-4.35 -0.67,-2.19 -0.61,-3.94 -0.09,-6.13 0.75,-3.21 4.25,-6.52 6.24,-8.22 11.88,-10.12 23.86,-20.05 35.71,-30.26 1.2,-1.02 3.14,-2.48 3.91,-3.71l-83.75 -16.62c-0.08,0.09 -15.17,12.32 -15.17,12.32l0 0c-0.08,-3.97 0.15,-25.32 0.15,-25.32l-15.8 -3.28c-2.34,-0.45 -5.42,-1.13 -5.42,-1.13l17.33 -14.47c3.98,-3.18 1.19,-2.88 11.22,-0.82 4.08,0.83 8.86,1.55 12.91,2.75 0,1.84 -0.69,16.78 -0.55,16.86 0,0 11.06,2.27 13.97,2.99 10.13,2.24 24.65,4.56 33.69,6.09 5.24,1.09 33.6,5.33 42.27,8.8 2.75,1.1 6.02,3.67 7.19,6.63 2.36,5.96 -0.55,10.59 -4.78,14.03 -9.74,7.93 -20.73,16.49 -29.84,24.86l-10.57 9.56c31.87,7.79 66.27,13.38 98.59,19.71 2.74,-0.41 -0.33,-2.02 7.05,-0.33 7.24,1.66 55.15,10.96 57.51,11.93 3.4,1.4 65.82,13.38 73.64,15.23l8.62 1.38c5.4,1.1 3.22,1.23 7.02,-1.13 3.44,-2.14 3.72,-1.75 7.91,-0.89l8.35 1.27c2.91,0.58 5.33,1.2 8.3,1.74 5.69,1.05 10.84,2.27 16.29,3.35 76.8,15.94 579.9,117.24 656.74,133.69z"/>
   <path fill="#57C7FF" mask="url(#id2)" d="M336.74 24.54c0.3,1.93 -1.17,2.46 -2.99,5.2 -0.76,1.16 -2.01,-0.93 -3.52,-0.04 -2.42,1.43 -5.02,4.78 -6.03,5.19 -2.7,1.1 -2.48,2 -4.56,3.09 -1.8,0.94 -2.31,3.07 -3.18,3.7 -0.93,0.67 -1.62,0.72 -4.39,2.85 -1.82,1.4 -0.7,3.06 -2.74,4.46 -0.06,0.04 -0.17,0.1 -0.24,0.15l-0.52 0.29c-0.08,0.04 -0.18,0.1 -0.26,0.15l-6.92 5.17c-2,1.34 -2.87,1.59 -4.36,3.33 -0.73,0.86 0.45,-0.21 -0.61,0.56l-3.3 2.29c-4.33,2.1 -2.73,4.01 -7.11,4.24 -0.99,1.95 0.23,0.87 -1.61,1.98 -3.92,2.37 -2.07,2.67 -4.28,4.56 -0.06,0.06 -0.16,0.12 -0.23,0.18l-4.67 4.61c-0.11,0.14 -1.96,1.87 -2.24,1.41 -0.06,-0.1 -0.24,0.07 -0.34,0.14 -0.23,6.46 1.13,3.51 3.8,5.6 0.72,0.56 0.02,1.07 2.77,0.94l0.16 -0.45c0.67,-1.47 0.95,-0.9 2.65,-2.47l6.98 -5.85c1.2,-0.73 0.01,0.21 1.02,-0.6 0.62,-0.5 0.42,-0.34 0.8,-0.9 0.88,-1.31 -0.24,-0.31 1.05,-1.69 1.36,-1.45 -0.04,-0.19 2,-1.17 1.7,-0.82 2.17,-2.42 3.36,-3.07 4.93,-2.71 1.28,-0.8 5.21,-4.09 1.21,-1.01 -0.24,-3.16 1.59,-3.27 0.23,-2.09 3,-0.57 3.81,-1.89 1.1,-1.82 0.56,-1.19 2.62,-1.96l2.53 -1.62c0.68,-0.64 0.2,-0.38 1.1,-0.9 0.65,-0.37 0.73,-0.28 1.34,-0.67 0.63,-0.4 0.06,-0.01 0.7,-0.52l0.86 -0.78c0.06,-0.06 0.14,-0.14 0.2,-0.2l6.57 -6.32c0.4,-0.48 0.09,-0.18 0.34,-0.44l7.77 -6.29c0.09,-0.08 0.33,-0.32 0.41,-0.4l4.76 -3.74c1.3,-2.05 0.85,-1.12 2.73,-3.24 1.44,-1.63 1.56,-0.53 2.2,-2.27 1.01,0.72 1.89,4.53 0.48,5.02l-0.42 -0.93c-0.09,0.02 -0.22,0.04 -0.31,0.06 -0.12,0.04 -0.46,0.16 -0.57,0.21 -0.13,0.05 -0.82,0.44 -1.04,0.6 -0.35,0.27 -4.42,4.38 -5.01,5.64l-3.7 3.31c-0.96,0.62 -0.4,0.22 -1.14,0.99l-2.43 1.54c-1.18,0.54 -0.64,0.66 -1.41,1.43l-0.42 0.33c-0.06,0.05 -0.17,0.12 -0.23,0.17 -2.75,2.21 -1.96,1.92 -3.46,3.45l-2.81 2.4c-1.73,1.75 -1.17,0.58 -3.02,2.19 -0.07,0.05 -0.14,0.14 -0.21,0.2l-2.31 2.15c-1.01,1.08 -1.51,0.58 -2.94,1.9 -3.24,3.02 -2.17,0.93 -3.85,2.61 -1,1.01 -0.75,1.21 -0.76,1.55l0.12 0.16c-1.1,0.41 -0.46,0.05 -1.42,0.38 -0.96,0.33 -0.61,0.12 -1.21,0.59 -0.93,0.73 -0.25,0.58 -1.25,1.57 -1.64,1.63 -0.12,-0.52 -2.93,1.87l-0.91 0.65c-0.07,0.05 -0.18,0.11 -0.26,0.17l-2.69 2.55c-1.39,1.03 -2.14,1.13 -3.47,2.17l-1.67 1.66c-0.7,0.96 -0.11,0.5 -1.15,1.59l-1.82 1.82c-1.8,1.85 -1.78,0.49 -3.09,2.18 -0.02,0.03 -0.34,0.65 -0.61,1.04 -1.49,2.14 -3.66,1.54 -3.23,3.89 0.33,1.85 2.4,0.99 3.21,2.01 1.21,-0.62 1.12,0.65 1,-1.22l102.64 21.56c20.57,4.11 42.2,7.85 62.86,12.01 41.4,8.33 82.73,16.79 124.08,25.41 6.98,1.41 14.33,2.97 20.85,4.28 3.85,0.77 444.79,89.32 447.54,89.34l0 18.69c-2.6,-0.02 -451.88,-90.33 -455.07,-90.95 -3.31,-0.64 -39.91,-8.4 -43.14,-8.59 -4.52,-0.26 -9.75,-1.93 -14.5,-2.78 -66.75,-13.79 -133.5,-27.29 -200.27,-40.93 -13.58,-3.01 -55.34,-10.32 -62.51,-15.11 -1.06,-0.72 -1.49,-1.1 -2.56,-1.85 -6.77,-4.73 -5.79,-14.28 -0.4,-20.53 1.45,-1.68 3.1,-2.62 4.69,-4.14l9.56 -7.73c4.57,-3.3 10.01,-8.18 14.26,-11.9l3.34 -2.68c3.63,-2.63 3.27,-2.62 5.89,-4.97l9.31 -7.95c1.28,-1.03 3.85,-2.91 4.5,-4.16l4.91 -3.83c3.37,-2.37 6.47,-5.78 9.37,-7.09 2.19,-0.99 4.73,-0.89 6.36,0.75zm-51.71 63.15c0.12,1.87 0.21,0.6 -1,1.22 -0.81,-1.02 -2.88,-0.16 -3.21,-2.01 -0.43,-2.35 1.74,-1.75 3.23,-3.89 0.27,-0.39 0.59,-1.01 0.61,-1.04 1.31,-1.69 1.29,-0.33 3.09,-2.18l1.82 -1.82c1.04,-1.09 0.45,-0.63 1.15,-1.59l1.67 -1.66c1.33,-1.04 2.08,-1.14 3.47,-2.17l2.69 -2.55c0.08,-0.06 0.19,-0.12 0.26,-0.17l0.91 -0.65c2.81,-2.39 1.29,-0.24 2.93,-1.87 1,-0.99 0.32,-0.84 1.25,-1.57 0.6,-0.47 0.25,-0.26 1.21,-0.59 0.96,-0.33 0.32,0.03 1.42,-0.38l-0.12 -0.16c0.01,-0.34 -0.24,-0.54 0.76,-1.55 1.68,-1.68 0.61,0.41 3.85,-2.61 1.43,-1.32 1.93,-0.82 2.94,-1.9l2.31 -2.15c0.07,-0.06 0.14,-0.15 0.21,-0.2 1.85,-1.61 1.29,-0.44 3.02,-2.19l2.81 -2.4c1.5,-1.53 0.71,-1.24 3.46,-3.45 0.06,-0.05 0.17,-0.12 0.23,-0.17l0.42 -0.33c0.77,-0.77 0.23,-0.89 1.41,-1.43l2.43 -1.54c0.74,-0.77 0.18,-0.37 1.14,-0.99l3.7 -3.31c0.59,-1.26 4.66,-5.37 5.01,-5.64 0.22,-0.16 0.91,-0.55 1.04,-0.6 0.11,-0.05 0.45,-0.17 0.57,-0.21 0.09,-0.02 0.22,-0.04 0.31,-0.06l0.42 0.93c0.41,3.53 -3.77,5.67 -5.69,7.52 -0.72,0.69 -1.51,1.31 -2.32,1.78l19 4.46 0.2 -25.26c-0.34,-0.18 0.12,-0.03 -0.89,-0.39l-3.62 -0.81c-1.58,-0.3 -3.09,-0.57 -4.71,-0.91l-24.63 -5.07 -3.47 -1.05 16.21 -14.83c0,0 26.52,5.1 38.45,7.66l0.05 24.04 9.46 2.06c0,0 -20.17,18.93 -24.68,22.5 0,0 -27.7,-6.22 -27.7,-6.22 0,0 -3.07,2.26 -8.45,6.72 -6.11,5.18 -12.59,10.78 -19.04,16.17 -3.85,3.22 -7.68,6.36 -11.41,9.29 -2.09,1.64 -3.41,3.25 -5.78,4.65l1.6 0.57z"/>
   <path fill="#D8E061" mask="url(#id4)" d="M307.33 250.77c-2.93,-0.01 -26.5,-5.08 -31.28,-6.05l-10.71 -2.26 -0.2 -25.25c0,0 31.85,6.21 42.26,8.14l-0.07 25.42z"/>
   <path fill="#D8E061" mask="url(#id6)" d="M150.64 220.12c-0.9,1.91 -6.74,-0.24 -10.39,-0.95l-31.92 -6.59 -0.03 -25.32c7.27,1.16 41.85,8.24 41.85,8.24l0.49 24.62z"/>
   <path fill="#92D9FC" mask="url(#id8)" d="M341.97 29.79c-0.04,1.16 0.28,1.26 -1.17,2.89 -8.52,6.36 -18.05,16.3 -34.13,28.97 -5.22,4.11 -9.75,8.37 -14.26,11.76 -2.79,2.09 -5.43,4.6 -7.5,6.24 -2.59,2.06 -4.85,4.46 -5.7,4.94 -2.29,1.94 -9.56,-1.35 -8.26,-7.1 5.65,-4.7 11.82,-9.4 18.89,-15.44 15.99,-13.69 35.28,-29.05 46.9,-37.51 2.14,0.23 4.57,3.51 5.23,5.25z"/>
   <path fill="#D8E061" mask="url(#id10)" d="M336.85 167.93l1.04 6.95c-44.34,-8.64 -88.59,-17.88 -133.05,-26 -0.72,-3.17 -0.72,-5.8 -0.53,-7.79 44.81,10.4 91.26,16.96 132.54,26.84z"/>
   <path fill="#C9EDFF" mask="url(#id12)" d="M342.24 34.34c0,0 0.09,-2.52 -0.58,-4.27 -0.66,-1.74 -1.84,-4.06 -4.72,-5.5 -1.6,-0.96 -4.37,-1.77 -6.56,-0.78 -2.9,1.31 -6,4.72 -9.37,7.09l-4.91 3.83 0.22 -19.63c11.74,2.03 37.26,7.55 37.26,7.55l-0.14 25.94 -19 -4.46c0.81,-0.47 1.6,-1.09 2.32,-1.78 1.92,-1.85 5.24,-4.55 5.48,-7.99z"/>
   <path fill="#D8E061" mask="url(#id14)" d="M21.21 64.94l0 0c0,0 -20.76,-3.92 -20.76,-3.92 -0.71,-0.26 -0.37,-2.36 -0.37,-13.16 0,-2.28 0,-4.56 0,-6.84l0.06 -5.81 0 0c0,0 3.08,0.68 5.42,1.13l15.8 3.28c0,0 -0.16,25.31 -0.15,25.32z"/>
   <path fill="#D8E061" mask="url(#id16)" d="M1038.93 314.28l0 7.15c-44.33,-8.65 -636.33,-132.3 -680.79,-140.41 -0.47,-2.66 0.18,-5.57 -1.05,-8.67 44.87,10.49 681.84,141.93 681.84,141.93z"/>
  </g>
 </g>
</svg>
