<?xml version="1.0" encoding="UTF-8"?>
<!DOCTYPE svg PUBLIC "-//W3C//DTD SVG 1.1//EN" "http://www.w3.org/Graphics/SVG/1.1/DTD/svg11.dtd">
<!-- Creator: CorelDRAW 2017 -->
<svg xmlns="http://www.w3.org/2000/svg" xml:space="preserve" width="55mm" height="45mm" version="1.1" style="shape-rendering:geometricPrecision; text-rendering:geometricPrecision; image-rendering:optimizeQuality; fill-rule:evenodd; clip-rule:evenodd"
viewBox="0 0 5500 4500"
 xmlns:xlink="http://www.w3.org/1999/xlink">
 <defs>
  <style type="text/css">
   <![CDATA[
    .str0 {stroke:black;stroke-width:35;stroke-miterlimit:22.9256}
    .str1 {stroke:black;stroke-width:20;stroke-miterlimit:22.9256}
    .fil0 {fill:#71E2FF}
    .fil1 {fill:white}
   ]]>
  </style>
 </defs>
 <g id="Слой_x0020_1">
  <metadata id="CorelCorpID_0Corel-Layer"/>
  <polygon class="fil0 str0" points="2401.2,1358.7 2401.2,1929.79 728.72,1929.79 728.72,1856.27 825.67,1856.34 825.8,1788.76 728.72,1789.2 728.72,1679.41 825.67,1679.15 825.72,1606.02 728.83,1606.11 728.72,1500.03 825.59,1499.74 825.55,1429.23 728.72,1429.48 728.72,1358.7 "/>
  <polygon class="fil1 str0" points="2401.2,1531.35 2401.2,1759.78 2676.54,1759.78 2676.54,1531.35 "/>
  <polygon class="fil1 str0" points="2679.49,1444.06 2679.49,1845.97 2947.82,1845.97 2947.82,1444.06 "/>
  <path class="fil1 str0" d="M2947.82 1274.47l0 742.2c321.97,0 643.94,0 965.91,0 22.21,-0.49 43.69,-21.13 43.69,-40.06 0,-221.4 0,-426.6 0,-648 0,-32.84 -34.22,-54.14 -63.33,-54.14 -316.85,0 -629.41,0 -946.27,0z"/>
  <polygon class="fil1 str0" points="922.48,2206.6 922.48,2492.14 4856.2,2492.14 4856.2,2206.6 "/>
  <path class="fil1 str0" d="M2947.79 2017.34l0 576.53c0,33 26.99,60 59.99,60l593.44 0c33,0 60,-27 60,-60l0 -576.53 -713.43 0z"/>
  <polygon class="fil1 str0" points="922.48,2211.87 922.48,2901.26 1436.42,2492.14 1436.42,2211.87 "/>
  <rect class="fil0 str1" x="640.53" y="3060.09" width="404.95" height="66.14"/>
  <rect class="fil0 str1" x="1044.17" y="2988.65" width="60.86" height="206.38"/>
  <polygon class="fil1 str0" points="742.99,2206.6 742.99,3242.72 922.48,3242.72 922.48,2206.6 "/>
 </g>
</svg>
