<?xml version="1.0" encoding="UTF-8"?>
<!DOCTYPE svg PUBLIC "-//W3C//DTD SVG 1.1//EN" "http://www.w3.org/Graphics/SVG/1.1/DTD/svg11.dtd">
<!-- Creator: CorelDRAW 2017 -->
<svg xmlns="http://www.w3.org/2000/svg" xml:space="preserve" width="22.4894mm" height="19.8436mm" version="1.1" style="shape-rendering:geometricPrecision; text-rendering:geometricPrecision; image-rendering:optimizeQuality; fill-rule:evenodd; clip-rule:evenodd"
viewBox="0 0 2248.94 1984.36"
 xmlns:xlink="http://www.w3.org/1999/xlink">
 <defs>
  <style type="text/css">
   <![CDATA[
    .str0 {stroke:black;stroke-width:35;stroke-miterlimit:22.9256}
    .str1 {stroke:#30CBF2;stroke-width:35;stroke-miterlimit:22.9256}
    .fil2 {fill:none}
    .fil0 {fill:#71E2FF}
    .fil1 {fill:white}
   ]]>
  </style>
 </defs>
 <g id="Слой_x0020_1">
  <metadata id="CorelCorpID_0Corel-Layer"/>
  <g id="_432943351312">
   <path class="fil0 str0" d="M637.41 1217.06c65.83,15.97 45.16,104.18 -22.93,87.64 -37.9,-9.21 -38.68,-64.5 -9.86,-81.22 7.62,-4.56 21.39,-9.2 32.79,-6.42zm274.57 224.17c-69.03,45.57 -174.11,-2.59 -222.94,-40.16 -33.96,-26.12 -50.63,-61.34 -58.74,-94.31 -15.08,-3.67 -41.44,68.85 -44.55,80.74 -18.15,69.35 68,133.13 -13.55,186.67 -66.85,33.03 -166.26,-23.76 -208.65,-67.25 -32.77,-33.63 -48.41,-67.8 -35.66,-116.46 13.55,-51.8 51.12,-102.32 132.48,-127.5 56.23,-15.44 98.69,-8.53 124.85,-8.16 0.84,-3.26 1.6,-19.91 19.4,-31.32 -101.63,-82.69 -172.22,-75.61 -193.55,-93.35 -30.04,-16.83 -25.88,-52.86 -18.87,-79.67 5.38,-20.55 25.17,-45.24 39.99,-59.59 63.15,-61.05 200.27,-113.33 258.97,-22.44 9.21,14.25 18.39,40.91 21.07,59.08 7.13,48.54 -2.68,156.29 -52.18,200 9.39,10.19 14.07,18.33 17.3,31.52 38.76,0.54 92.54,-21.9 116.68,-53.66 22.06,-22.63 41.22,-71.47 104.17,-56.18 94.76,23.01 96.82,225.69 13.78,292.04z"/>
   <circle class="fil1 str0" cx="635.15" cy="1260.3" r="62.31"/>
   <path class="fil2 str0" d="M361 39.17l533.2 0.93 -104.17 150.69 0 556.54 412.05 751.39c53.3,97.22 -90.72,201.58 -201.6,201.58l-752.58 0c-110.86,0 -255.15,-104.5 -201.58,-201.58l416.99 -755.66c0,-184.53 0,-367.66 0,-552.2l-102.31 -151.69z"/>
   <g>
    <polyline class="fil2 str1" points="1549.26,918.73 1643.33,1157.65 1573.35,1243.08 1615.8,1347.47 1733.01,1370.65 1804.26,1277 1762.6,1170.75 1643.33,1157.65 "/>
    <polyline class="fil2 str1" points="1696.33,928.22 1617.17,1091.22 1455.83,1026.01 "/>
    <line class="fil2 str1" x1="1804.26" y1="1277" x2="2050" y2= "1309.51" />
    <polyline class="fil2 str1" points="2002.88,1174.68 1868.28,1285.47 1970.12,1423.6 "/>
    <line class="fil2 str1" x1="1733.01" y1="1370.65" x2="1829.14" y2= "1599.49" />
    <polyline class="fil2 str1" points="1919.63,1488.78 1758.44,1431.2 1685,1593.42 "/>
    <line class="fil2 str1" x1="1615.8" y1="1347.47" x2="1464.66" y2= "1555.2" />
    <polyline class="fil2 str1" points="1604.68,1581.43 1576.21,1401.88 1401.4,1422.32 "/>
    <line class="fil2 str1" x1="1573.35" y1="1243.08" x2="1329.97" y2= "1204.99" />
    <polyline class="fil2 str1" points="1406.62,1082.97 1505.2,1232.41 1372.34,1343.29 "/>
    <line class="fil2 str1" x1="1762.6" y1="1170.75" x2="1912.75" y2= "975.73" />
    <polyline class="fil2 str1" points="1961.15,1102.34 1803.69,1117.39 1774.55,942.61 "/>
   </g>
   <path class="fil2 str0" d="M1835.32 772.79c213.29,62.22 369.13,259.18 369.13,492.57 0,283.35 -229.7,513.05 -513.05,513.05 -283.35,0 -513.05,-229.7 -513.05,-513.05 0,-234.12 156.82,-431.61 371.16,-493.16l-0.03 -286.53 -61.77 -0.1 0.02 -54.07 409.12 -0.7 -0.09 54.81 -61.49 -0.01 0.05 287.19z"/>
   <path class="fil1" d="M1108.45 694.4c363.15,-5.25 334.28,130.54 330.52,181.08 -6.04,81.19 -115.16,31.98 -137.84,190.66 -14.92,104.43 175.44,192.64 236.09,340.29 64.67,157.46 26.17,409.32 -112.9,409.32 -88.19,0 -607.11,122 -736.58,-15.8 -82.86,-88.2 -112.89,-252.27 -68.59,-358.72 136.91,-328.96 264.29,-242.74 198.55,-450.91 -23.02,-72.88 -65.95,-68.73 -64.53,-156.47 1.48,-91.55 106.09,-135.86 355.28,-139.45z"/>
   <path class="fil1 str0" d="M1208.13 882.66l0 315.03c163.07,47.56 282.21,198.14 282.21,376.56 0,216.63 -175.61,392.23 -392.23,392.23 -216.62,0 -392.23,-175.6 -392.23,-392.23 0,-178.98 119.89,-329.96 283.75,-377.02l0 -314.57 -143.04 0 0 -70.63 510.59 -0.99 0 70.63 -149.05 0.99z"/>
   <circle class="fil0" cx="1086.16" cy="1608.84" r="353.6"/>
   <path class="fil1" d="M1096.37 1409.47c22.13,230.1 94.46,174.7 97.53,284.84 1.59,57.05 -46.29,103.39 -103.38,103.39 -57.1,0 -105.26,-46.33 -103.39,-103.39 3.07,-93.78 86.63,-96.87 108.59,-284.88 0.2,-1.72 0.37,-3.43 0.37,-3.43 0,0 0.05,1.19 0.28,3.47z"/>
  </g>
 </g>
</svg>
