<?xml version="1.0" encoding="UTF-8"?>
<!DOCTYPE svg PUBLIC "-//W3C//DTD SVG 1.1//EN" "http://www.w3.org/Graphics/SVG/1.1/DTD/svg11.dtd">
<!-- Creator: CorelDRAW 2017 -->
<svg xmlns="http://www.w3.org/2000/svg" xml:space="preserve" width="52.9166mm" height="51.5936mm" version="1.1" style="shape-rendering:geometricPrecision; text-rendering:geometricPrecision; image-rendering:optimizeQuality; fill-rule:evenodd; clip-rule:evenodd"
viewBox="0 0 5291.66 5159.36"
 xmlns:xlink="http://www.w3.org/1999/xlink">
 <defs>
  <style type="text/css">
   <![CDATA[
    .str0 {stroke:#2B2A29;stroke-width:20;stroke-miterlimit:22.9256}
    .str1 {stroke:black;stroke-width:20;stroke-miterlimit:22.9256}
    .fil1 {fill:none}
    .fil0 {fill:#2B2A29}
    .fil4 {fill:#40B4D9}
    .fil5 {fill:#9E9E9E}
    .fil2 {fill:#E0E0E0}
    .fil3 {fill:white}
   ]]>
  </style>
 </defs>
 <g id="Слой_x0020_1">
  <metadata id="CorelCorpID_0Corel-Layer"/>
  <g id="_915307632">
   <g>
    <path class="fil0" d="M2608.71 3175.31c171.88,113.92 417.38,192.21 616.34,268.03 -70.7,220.98 -91.03,417.03 -151.75,624.5 -4.22,14.43 -7.07,25.85 -8.79,34.73l-4.46 5.03 3.22 2.18c-8.69,59.97 52.84,-40.96 64.38,-88.52 -11.08,17.19 -18.51,28.14 -25.37,37.26 60.51,-164.25 98.18,-376.28 155.5,-542.25 3.46,-10.03 49.03,-85.16 23.69,-111.16 -7.89,-8.09 -504.45,-209.01 -622.54,-290.96 -16.54,-14.15 -41.2,-11.94 -55.07,4.95 -13.87,16.89 -11.7,42.06 4.85,56.21z"/>
   </g>
   <path class="fil1" d="M2633.82 3144.73c92.76,79.34 492.52,223.73 627.25,281.09 -78.6,192.31 -151.9,616.59 -192.58,688.28 32.26,-43.59 37.55,-35.8 59.15,-92.83"/>
   <g>
    <path class="fil0" d="M2195.52 3261.4c-15.45,214.6 -169.6,349.99 -178.03,578.73l5.04 72.18c-132.71,0.88 -155.02,-0.77 -311.67,29.23 -102.81,19.69 -607.36,113.68 -636.42,217.97 98.29,-91.28 651.07,-176.94 795.65,-190.12 49.8,-4.54 170.25,6.98 188.86,3.51 50.63,-9.43 8.5,-106.91 36.81,-218.29 51.09,-200.96 156.34,-263.85 177.74,-498.91 -1.54,-21.98 -20.24,-38.52 -41.78,-36.95 -21.54,1.58 -37.75,20.67 -36.2,42.65z"/>
   </g>
   <path class="fil1" d="M2234.51 3258.55c13.12,187.1 -228.73,410.07 -179.82,683.78 0.53,3 -90.86,-13.03 -188.02,-0.41 -79.6,10.34 -751.84,117.25 -792.22,217.6"/>
   <polygon class="fil2 str0" points="3453.72,1378.94 1373.54,1896.77 1373.54,3553.81 3453.72,3035.99 "/>
   <polygon class="fil2 str0" points="3449.73,1378.94 2574.53,964.68 709.99,1378.94 1369.56,1896.77 "/>
   <polygon class="fil2 str0" points="1358.87,1905.73 699.3,1387.91 699.3,3096.73 1358.87,3562.78 "/>
   <path class="fil3 str0" d="M2561.91 1854.6c453.74,-35.07 676.96,542.84 366.66,904.79 -81.2,94.71 -198.92,174.64 -358.59,224.93 -21.3,6.7 -43.34,12.88 -66.14,18.5 -204.83,50.47 -351.12,24.82 -451.93,-43.84 -272.62,-185.67 -212.74,-685.82 -78.88,-845.8 72.39,-86.52 316.44,-265.06 588.88,-258.58z"/>
   <path class="fil2 str1" d="M2537.14 2414.61c-37.42,-79.26 -144.17,-30.11 -105.46,51.87 21.54,45.61 91.55,31.63 105.8,-8.66 3.83,-10.84 6.14,-29.5 -0.34,-43.21zm-249.26 -383.39l-20.34 10c-37.18,20.17 -68.52,48.25 -86.69,83.82 -44.77,87.7 48.51,219.94 108.96,272.04 42.02,36.22 63.12,55.32 107.14,57.01l18.82 39.86c-6.04,-2.65 -7.42,-3.07 -13.48,-8.06 -7.2,-5.94 -2.54,-1.24 -9.53,-10.09 -21.7,13.03 -35.82,37.26 -58.87,48.6 -93.83,46.15 -151.01,-63.64 -215.92,29.04 -7.62,10.88 -14.88,25.45 -17.86,36.72 -24.63,93.3 73.38,204.48 139.68,246.87 51.24,32.77 98.74,43.7 157.29,14.9 62.34,-30.66 125.97,-169.21 135.87,-236.61 4.51,-30.73 4.1,-60.89 -3.15,-93.94 -16.33,3.73 -16.79,6.25 -29.08,-0.43 29.08,-14.3 39.08,-16.69 54.82,-36.8 20.88,17.03 4.71,7.83 30.32,15.82 103.42,32.23 77.12,144.15 120.55,178.81 21.58,17.22 73.91,19.04 106.18,3.17 24.71,-12.16 50.96,-43.66 65.35,-66.19 8.23,-12.87 13.04,-21.68 19.64,-36.09 6.14,-13.43 12.81,-23.84 16.25,-37.29 3.49,-13.66 5.42,-25.6 8.57,-40.04 18.88,-86.84 5.12,-186.28 -83.18,-220.53 -20.51,-7.96 -56.78,-12.67 -80.56,-11.32 -63.57,3.58 -197.35,10.35 -240.05,84.46 -15.41,-9.24 -15.26,-7.73 -32.85,-8.41 -10.74,-48.95 -8.55,-94.56 25.55,-133.42 59.71,-68.06 80.16,-70.84 44.38,-146.6 -33.67,-71.32 -166.14,-80.46 -267.81,-35.3z"/>
   <path class="fil4 str0" d="M2946.9 4244.39c-2.17,-21.03 -35.61,-96.48 48.87,-131.89 30.64,-12.84 152.99,25.44 183.56,-69.1 70.55,-218.18 448.39,-483.71 529.04,-337.9 247.16,446.89 -683.5,734.38 -761.47,538.89z"/>
   <path class="fil4 str0" d="M991.62 4134.66c-46.78,390.39 652.1,575.61 446.98,169.48 -97.59,-193.22 -84.52,-316.29 -22.19,-559.95 -320.29,-112.65 -389.49,95.88 -424.79,390.47z"/>
   <g>
    <path class="fil0" d="M3489.1 1963.46c177.97,-28.42 1132.51,-440.44 1250.24,-545.26 4.94,-16.11 3.1,-7.84 5.48,-25.41 -5.82,6.87 -12.27,13.29 -15.58,22.01 -253.46,104.16 -1016.31,435.49 -1240.14,468.86 -21.59,0 -39.09,17.87 -39.09,39.9 0,22.04 17.5,39.9 39.09,39.9zm1250.24 -545.26l0.05 -0.05 -0.22 0.57 0.17 -0.52z"/>
   </g>
   <path class="fil1" d="M3489.11 1923.57c128,0 1238.1,-484.74 1245.2,-507.1l10.51 -23.67"/>
   <g>
    <path class="fil0" d="M4731.64 1429.76c81.25,-236.29 195.52,-344.83 445.09,-386.85 115.79,-19.49 77.28,-1.28 100.82,-11.13 2.53,-1.06 5.76,-2.43 9.98,-4.22 5.51,-13.58 5.51,-6.79 0,-20.37 -3.03,-1.28 -6.38,-2.26 -9.98,-2.99l0 -1.23 -8.3 0.03c-6.88,-0.65 -14.4,-0.6 -22.21,-0.07 -66.42,-0.37 -99.31,-1.87 -174.56,14.66 -233.27,51.24 -331.4,176.39 -415.95,390.02 -6,21.18 5.96,43.29 26.71,49.41 20.74,6.12 42.41,-6.09 48.4,-27.26z"/>
   </g>
   <path class="fil1" d="M4694.09 1418.69c79.04,-279.3 300.63,-401.32 583.46,-401.32 -38.05,0 -76.1,0 -114.16,0"/>
   <g>
    <path class="fil0" d="M4780.62 1385.51c0.93,-86.88 504.65,-249.52 377.85,-82.71l-9.46 11.54c-2.92,-5.42 -3.07,-4.67 -14.27,-18.2 0.88,50.17 5.49,55.21 41.06,23.64 219.33,-194.7 -446.02,-175.38 -473.33,68.23 0.67,22.03 18.72,39.32 40.3,38.63 21.58,-0.69 38.52,-19.1 37.85,-41.13z"/>
   </g>
   <path class="fil1" d="M4741.53 1386.76c-4.85,-158.66 643.38,-271.71 405.89,-56.22l-12.68 -34.4"/>
   <g>
    <path class="fil0" d="M4776.87 1461.63c2.48,-52.91 198.7,22.47 240.13,70.38 -3.63,2.03 -9.57,3.57 -12.58,4.34 -5.98,-6.94 -24.99,-28.99 -38.25,-38.62 4.67,20.82 10.63,69.66 39.44,68.96 202.41,-4.87 -261.52,-348.97 -306.74,-110.54 -1.49,21.99 14.77,41.03 36.31,42.55 21.54,1.51 40.2,-15.08 41.69,-37.07zm241.31 69.64c0.29,-0.78 0.65,-1.62 1.73,-1.95 -0.25,0.68 -0.87,1.33 -1.73,1.95zm-12.73 6.27c0.33,0.23 0.61,0.53 0.84,0.94 -0.03,-0.01 -0.32,-0.34 -0.84,-0.94z"/>
   </g>
   <path class="fil1" d="M4737.86 1458.89c9.95,-147.28 413.5,78.53 266.37,92.84 -13.79,1.34 -17.82,-30.1 -38.06,-54.01"/>
   <g>
    <path class="fil0" d="M1081.44 2111.46c-309.68,-202.58 -530.86,-361.28 -479.88,-782.94 37.28,-308.4 164.41,-455.19 448.9,-549.58 297.39,-98.67 172.51,48.13 236.26,29.37 2.15,-0.63 297.75,-437.53 490.86,-197.83 22.33,27.72 45.88,73.43 22.45,107.01l11.14 0.8c-5.79,-6.12 25.38,-81.08 28.88,-94.59 -122.49,202.77 75.31,83.11 -69.02,-54.35 -183.12,-174.4 -401.61,69.82 -507.46,205.76l38.12 16.2c12.25,-142.17 -197.67,-80.8 -265.99,-59.78 -307.39,94.56 -451.77,259.79 -496.91,588.61 -62.23,453.26 172.71,637.74 499.73,858.02 18.04,12.1 42.29,6.98 54.14,-11.44 11.85,-18.42 6.83,-43.16 -11.22,-55.26z"/>
   </g>
   <path class="fil1" d="M1059.98 2144.82c-198.31,-132.95 -387.77,-239.76 -464.96,-489.9 -56.38,-182.69 -50.04,-462.28 120.5,-709.79 91.41,-132.68 593.63,-321.18 565.34,-157.57 344.58,-498.24 599.4,-141.29 524.4,-64.73 -11.53,-15.68 29.45,-77.94 34.78,-99.13"/>
   <g>
    <path class="fil0" d="M1345.39 853.54c132.67,-107.29 245.83,-130.01 374.87,10.41 53.21,57.91 42.18,57.29 62.41,108.96 -38.55,-2.01 -87.58,-73.72 -108.34,-97.21 6.56,35.26 4.96,45.37 29.84,73.49 132.68,149.94 169.15,-12.6 18.1,-158.61 -147.65,-142.73 -281.15,-104.03 -429.29,3.73 -16.03,14.77 -17.28,40 -2.81,56.36 14.47,16.35 39.19,17.64 55.22,2.87zm441.18 119.33c0.43,-0.16 0.88,-0.25 1.36,-0.24l0.08 0.1c-0.48,0.06 -0.96,0.1 -1.44,0.14z"/>
   </g>
   <path class="fil1" d="M1319.18 823.93c355.51,-327.73 633.56,351.15 393.21,116.51 -31.61,-30.86 -16.17,-26.92 -38.06,-64.73"/>
   <g>
    <path class="fil0" d="M1308.78 796c-3.75,-107.94 216.29,-343.93 287.88,-351.8 55.2,-6.06 130.84,14.06 187.25,26.64 18.14,62.23 22.18,78.94 75.8,51.07 -58.53,-15.24 -27.61,24.28 -50.42,-66.58 -5.24,-20.87 -206.37,-94.97 -287.91,-36.28 -112.4,80.88 -288.04,227.91 -290.35,385.46 2.3,21.91 21.57,37.77 43.04,35.42 21.47,-2.35 37.01,-22.02 34.71,-43.93z"/>
   </g>
   <path class="fil1" d="M1269.9 800.25c-12.46,-118.71 178.11,-286.44 268,-360.26 60.79,-49.93 193.15,3.19 257.3,18.31 19.91,98.22 26.9,63.62 64.51,63.62"/>
   <g>
    <path class="fil0" d="M1376.85 839.33c-21.35,-109.05 -131.45,16.64 -232.66,25.94 -106.21,9.75 -182.82,54.26 -105.24,169.33 0.4,0.59 58.62,73.76 72.15,52.08 -36.69,-51.02 -112.23,-158.36 -1.56,-161.89 143.48,-4.59 98.36,0.05 209.4,-46.6 6.74,3.83 14.65,5.67 22.91,4.83 21.48,-2.2 37.15,-21.76 35,-43.69zm-44.13 33.14l0.59 -0.25 0.17 0.09 -0.76 0.16z"/>
   </g>
   <path class="fil1" d="M1337.95 843.32c-3.94,-40.24 -86.27,57.61 -195.15,52.41 -212.94,-10.16 -59.53,197.5 -31.71,190.95"/>
   <g>
    <path class="fil5" d="M618.56 3693.41c-214.85,50.86 -320.7,229.13 -295.06,448.02 19.51,166.47 127.67,319.17 268.42,402.33l94.23 43.74c-48.93,-38.58 -105.53,-80.5 -149.52,-125.21 -215.7,-219.21 -229.33,-626.29 90.26,-689.53 21.47,-2.35 37.01,-22.02 34.71,-43.93 -2.3,-21.91 -21.57,-37.77 -43.04,-35.42z"/>
   </g>
   <path class="fil1" d="M622.73 3733.08c-305.23,33.38 -442.76,584.56 63.42,854.42"/>
   <g>
    <path class="fil5" d="M150.85 3783.2c-179.79,33.55 -212.25,306.22 -24.11,402.36 0,0 -41.61,-67.8 -41.61,-67.8 -50.65,-91.06 -32.31,-247.35 68.24,-254.79 21.58,-0.72 38.51,-19.15 37.82,-41.17 -0.7,-22.03 -18.76,-39.31 -40.34,-38.6z"/>
   </g>
   <path class="fil1" d="M152.11 3823.08c-103.35,3.4 -205.61,214.6 -25.37,362.48"/>
   <g>
    <path class="fil5" d="M2260.36 4122.81c-290.13,377.89 519.65,499.97 755.27,505.95 159.48,4.04 394.56,-15.3 530.11,-96.22l74.99 -58.84 -83.09 41.8c-264.27,110.91 -683,73 -954.22,-16.21 -139.78,-45.97 -409.15,-145.07 -265.96,-321.97 14.75,-16.09 13.93,-41.34 -1.84,-56.39 -15.77,-15.06 -40.51,-14.22 -55.26,1.88z"/>
   </g>
   <path class="fil1" d="M2288.91 4150.06c-332.04,362.27 965.1,626.86 1331.82,323.64"/>
   <g>
    <path class="fil5" d="M1926.77 4360.69c-145.58,284.07 471.76,472.57 340.02,294 -30.71,-41.63 -45.95,-45.55 -92.03,-77.42 0.72,1.03 64.55,86.87 70.18,109.96 -68.67,-0.77 -326.54,-160.06 -253.44,-281.76 12.11,-18.24 7.44,-43.06 -10.43,-55.42 -17.87,-12.36 -42.18,-7.6 -54.3,10.64zm318.56 329.05c0.02,0.68 -0.04,1.27 -0.21,1.74 -0.02,-0.78 0.06,-1.31 0.21,-1.74z"/>
   </g>
   <path class="fil1" d="M1959.13 4383.08c-142.05,213.89 540.65,493.3 215.63,194.19"/>
  </g>
 </g>
</svg>
