<?xml version="1.0" encoding="UTF-8"?>
<!DOCTYPE svg PUBLIC "-//W3C//DTD SVG 1.1//EN" "http://www.w3.org/Graphics/SVG/1.1/DTD/svg11.dtd">
<!-- Creator: CorelDRAW 2017 -->
<svg xmlns="http://www.w3.org/2000/svg" xml:space="preserve" width="48.9478mm" height="43.6562mm" version="1.1" style="shape-rendering:geometricPrecision; text-rendering:geometricPrecision; image-rendering:optimizeQuality; fill-rule:evenodd; clip-rule:evenodd"
viewBox="0 0 4894.78 4365.62"
 xmlns:xlink="http://www.w3.org/1999/xlink">
 <defs>
  <style type="text/css">
   <![CDATA[
    .fil0 {fill:black}
    .fil4 {fill:#1C1C1B}
    .fil2 {fill:#53534C}
    .fil5 {fill:#71E2FF}
    .fil1 {fill:#EAECED}
    .fil3 {fill:white}
   ]]>
  </style>
 </defs>
 <g id="Слой_x0020_1">
  <metadata id="CorelCorpID_0Corel-Layer"/>
  <g id="_433273411936">
   <polygon class="fil0" points="996.38,2963.07 1016.34,2954.09 1095.54,2748.09 1322.22,2686.76 1690.32,1776.67 3059.52,1891.01 2865.11,2233.15 2901.58,2237.25 2836.38,2443.89 2863.13,2820.05 3021.53,2809.28 3517.39,2843.16 3532.86,2878.02 3598.82,2914.02 3649.53,2969.77 3660.88,3013.51 3672.74,3102.43 3793.4,3236.79 3675.34,3368.16 3671.48,3390.82 3695.12,3423.48 3733.68,3840.7 4845.42,3897.31 4848.6,4288.07 65.15,4288.07 65.15,3627.94 724.61,3666.7 "/>
   <path class="fil1" d="M2472.16 2618.99c58.14,1.52 97.51,40.12 116.75,86.95 21.68,52.75 30.09,100.19 7.82,149.11 -4.08,8.95 -16.34,26.71 -21.69,33.03l-31.91 34.83c-1.59,1.42 -16.13,11.11 -21,13.32 -77.03,35.04 -118.44,-17.66 -226.08,-11.07 6.85,-49.16 -1.72,-22.49 17.24,-59.57 1.14,-22.1 0.5,-3.27 -5.31,-1.71 -0.97,0.26 -12.51,6.96 -15.45,8.77 -28.76,1.09 -47.34,8.17 -49.77,-32.06 -2.9,-48.41 13.71,-23.86 28.71,-49.68 -42.57,-3.91 -61.14,-22.15 -80.13,-28.38l0.57 68.83c25.52,26.2 26.92,40.1 67.59,76.23 65.44,58.12 196.78,92.88 274.37,56.86 14.63,38.1 4.23,36.31 -17.77,58.54 -57.69,54.99 -405.67,287.87 -407.32,291.28l-9.75 -14.66c-14.27,53.88 1.49,20.83 -23.17,51.19 -53.03,-20.17 -77.04,-50.17 -165.91,-103.7 -84.64,-19.18 -117.66,-22.89 -203.66,-27.32 -59.4,-3.06 -139.7,-18.42 -206.23,-13.19l22.02 15.65c65.79,12.46 293,33.45 295.02,55.08 6.19,66.28 7.75,104.54 7.72,173.56l1.36 356.94 -95.36 -4.52c19.88,18.56 1.72,8.78 33.96,16.49l89.1 -14.75c-37.24,-44.15 -14.48,-503.08 -4.8,-525.13 44.1,-3.56 77.9,20.87 77.9,20.87 0,0 76.29,85.94 76.29,85.94 30.72,-1.7 70.38,32.29 65.87,101.17 -13.87,211.8 1.91,356 1.42,406.48 -135.87,-64.75 -119.84,-58.97 -258.45,-71.28 -35.03,-3.08 -62.44,-1.95 -113.63,-2.11l6.73 -13.98 -87.65 -4.95c-26.86,1.8 -139.32,5.59 -215.69,7.32 0.83,-12.19 1.48,-24.76 1.48,-24.76l-155.05 38.84c-1.16,-78.45 -7.78,-408.69 -12.33,-504.11 -1.22,-25.4 -97,-5.25 -100.39,11.79 -3.82,32.5 -0.03,315.55 -1.94,375.81 -1.7,111.68 -10.06,294.56 -0.01,391.11 71.08,-12.86 106.84,-19.37 232.29,-39.03 102.7,-16.46 557.43,-3.13 617.53,37.97 28.53,12.38 83.64,48.52 133.83,72.97 0.65,-12.57 31.15,-59.27 39.35,-95.3 4.13,-18.16 -3.93,-67.63 -1.62,-74.06 1.18,-3.25 5.7,-12.23 7.12,-15.23 1.17,-2.48 2.86,-5.35 3.98,-7.57 1.12,-2.23 3.14,-5.79 4.09,-7.61 0.94,-1.8 2.94,-4.96 4.16,-7.56 -40.13,-41.66 -55.54,-38.83 -88.19,-66.15 0.01,-106.13 0.91,-186.82 0.91,-186.82 50.75,-141.43 286.59,-367.17 386.55,-490.97 24.03,-32.37 29.11,-59.19 74.29,-58.46 84.49,1.35 60.92,-7.16 121.66,-14.68 -66.9,-23.45 -59.7,-2.52 -82.37,-52.94 178.8,19.32 121.17,5.54 155.84,-32.09 9.28,35.18 -15.48,44.39 -27.88,73.79 47.33,-9.79 35.15,-9.31 49.34,-30.07l10.45 -18.8c1.28,-1.96 3.02,-4.27 4.41,-6.27l21.65 -29.02c-16.03,-14.15 -8.22,-10.08 -33.24,-20.3 -6.21,-2.53 -25.01,-5.04 -32.47,-6.4 26.92,-42.76 17.4,-23.95 35.22,-82.11l11.74 -35.75c0.61,-2.68 1.75,-11.15 2.4,-14.07l4.03 -16.5c0.51,-2.05 0.99,-6.21 2.63,-8.78 29.57,-6.05 126.07,-32.86 154.65,-22.65 43.02,15.35 -2.27,-18 27.1,17.09l77.05 -20.27 9.63 130.44 27.21 11.91c-14.53,-29.28 -29.58,-148 -3.32,-177.7l-220.52 14.99c-0.27,-37.99 -26.41,-375.83 -26.76,-376.16 -19.06,40.84 -318.16,163.77 -364.21,175.1z"/>
   <path class="fil1" d="M1538.38 2277.48c-32.24,77.93 -180.91,361.35 -188.31,399.2l85.82 3.33c68.15,25.17 57.34,3.84 112,-3.4 22.05,-2.93 80.73,9.27 108.32,12.14 -2.8,1.17 -7.09,-1.02 -8.74,2.54 -11.92,25.66 10.45,-5.19 -37.2,12.58 -2.74,1.03 -6.67,2.43 -9.81,4.09 1.42,112.59 -1.85,138.82 39.5,154.99l-76.58 -5.22c-9.12,13.28 2.67,16.61 -58.46,21.63 -8.8,0.48 -50.82,1.13 -55.76,4.87 -28.96,49.3 27.72,39.75 96.89,42.02 53.63,1.78 82.69,10.06 136.52,18.45 -24.57,4.63 -54.04,8.61 -68.07,16.13l265.31 21.65c-6.2,18.35 13.59,32.61 2.14,49.18 -135.12,-9.23 -274.77,-20.06 -409.8,-30.74 -10.84,0.71 -335.87,68.66 -355.13,82.57 -4.52,3.76 -14.11,24.07 -23.5,63.02 41.45,-1.92 221.15,-80.68 548.11,-77.85 45.04,4.12 207.38,-11.86 358.04,108.87 34.1,28.68 74.77,53.95 93.78,64.91 -2,-24.5 0.94,-52.63 13.52,-73.73 39.42,7 89.62,13.37 114,15.64 2.29,-43.45 -161.47,-160.4 -230.9,-206.22 -28.3,-18.69 -80.12,-11.64 -104.9,-12.4 15.07,-10.17 43.49,-11.63 61.7,-13.46 -75.84,-27.47 42.89,-15.52 -36.96,-32.48l-125.87 -31.89c-2.01,-1.49 -5.19,-6.27 -6.02,-4.49l-22.43 -19.91c9.18,-50.29 5.16,-109.23 -4.43,-160.73l97.43 14.84c3.48,-44.42 -113.95,-38.5 -112.6,-72.26 -1.89,2.25 -4.95,2.56 -5.74,6.68 -0.78,4.02 -4.33,5.27 -5.32,6.78l-8.52 13.83c-0.82,1.39 -2.33,4.66 -3.47,6.99 -2.42,-0.9 -5.91,-5.89 -6.82,-3.68l-22.52 -8.2c-22.68,-4.25 17.85,22.91 -21.36,-1.27 34.6,-60.44 96.13,-183.86 124.94,-252.64 35.75,-85.3 73.71,-255.2 143.15,-246.73 -7.98,-1 748.8,42.14 934.79,66.04 38.11,-63.39 88.03,-116.86 114,-183.73 -60.8,1.27 -93.91,19.22 -115.2,60.41l-377.85 -46.64c-128.66,-18.16 -489.46,-54.84 -636.18,-57.45 -58.05,66.64 -234.08,566.02 -279.9,660.12 -55.56,-12.15 -46.95,-15.3 -111.3,-16.5 14.88,-48.43 17.05,-50.29 31.05,-91.17l61.27 -168.68c49.58,-108.57 48.25,-141.72 79.04,-218.36 0.93,-2.32 2,-5.1 2.99,-7.37l95.3 -289.7c-12.02,-24.94 -16.1,-36.93 -16.84,-41.11 -0.65,-3.64 -136.01,322.33 -173.12,444.51z"/>
   <path class="fil1" d="M2850.39 3890.66c-11.6,-47.79 10.64,-15.32 -20.3,-52.4l10.28 124.62 -87.15 32.22c10.19,24.54 29.44,37.68 36.52,51.1 12.14,23.02 10.56,56.32 18.67,83.34 25.74,29.17 15.67,7.1 37.08,28.07 18.63,18.24 11.47,20.27 28.79,43.54 107.26,-12.01 255.05,-71.39 362.87,-69.72 123.07,1.91 281.77,33.69 409.07,44.43 0.49,8.65 -25.56,81.11 -25.56,81.11 -66.91,-2.51 -375.76,-29.93 -404.49,-27.24 -34.01,4.08 -165.37,33.67 -257.49,57.59 256.21,0 511.79,0 768.1,0 -17.54,-12.95 -28.37,-29.98 -34.63,-46.42 -10.38,-27.25 -8.24,-52.85 -3.49,-55.37 37.95,-11.69 79.48,-37.07 80.11,-42.41 0,0 -10.11,-48.45 -32.72,-76.54 8.77,0.94 16.23,0.19 22.68,-0.47 0,0 35.27,-40.64 33.34,-56.28 0,0 -11.04,-53.73 -17.84,-61.96 9.86,-7.58 874.54,29.08 983.73,31.71 -0.56,-58.23 0.52,-54.5 0.52,-54.5 -260.26,-17 -965.45,-36.24 -1022.89,-44.53l3.08 32.98c-45.7,-1.74 -212.41,-0.88 -295.09,-2.23 -126,-2.05 -265.88,-0.72 -268.73,-9.46 -45.69,-54.45 -5.24,1.08 -12.57,-54.85l-21.53 -55.73 7.19 102.54c-70.07,14.68 -186.43,40.35 -250.17,57.79 -14.02,-238.71 1.24,139.27 -47.38,-60.93z"/>
   <path class="fil0" d="M1681.25 1796.99c1.86,-1.18 10.26,-4.06 12.23,-3.19l34.86 80.28c-141.19,453.55 -213.52,504.34 -330.52,779.25 64.35,1.2 116.61,0.38 172.17,12.53 45.82,-94.1 244.48,-599.31 279.9,-660.12 146.72,2.61 507.52,39.29 636.18,57.45l377.85 46.64c21.29,-41.19 54.4,-59.14 115.2,-60.41 17.38,-10.32 15.85,-29.78 20.95,-43.2 0.96,-2.49 1.7,-5.44 2.78,-7.88 20.27,-46.35 55.03,-42.86 56.67,-107.33 -436.61,-17.94 -982.63,-121.91 -1369.2,-114.34l-9.07 20.32z"/>
   <path class="fil1" d="M4865.17 4287.32l0 -107.16 -49.05 -16.62c-29.41,-7.26 -24.58,-21.54 -55.26,4.46 -3.53,3.01 -6.48,7.87 -9.75,10.97 -45.82,-49 -79.28,-21.71 -135.34,-17.68 -2.34,-6.76 -23.01,-80.54 -19.26,-149.88 -168.62,-6.03 -491.67,-13.48 -659.1,-19.42 -19.95,2.97 -36.12,1.27 -46.16,32.85 4.59,87.9 33.08,76.04 45.06,88.02 -19.42,17.44 -48.3,24.09 -66.76,46.81 -21.83,26.89 -8.26,27.68 0.59,65.18 -69.72,-9.13 -28.01,-16.82 -52.83,-2.98l6.87 65.45c341.81,0 703.27,0.75 1040.99,0z"/>
   <polygon class="fil2" points="3305.37,4287.32 3299.48,4286.02 3299.94,4287.32 "/>
   <path class="fil1" d="M65.15 3822.4l-0.91 251.33c19.78,-4.57 605.12,42.41 900.81,39.68 0,0 -7.7,-233.83 -7.7,-233.83 -216.79,-5.99 -792.43,-57.21 -892.2,-57.18z"/>
   <path class="fil3" d="M1735.99 2645.35l133.97 -303.29c149.62,15.77 966.41,101.83 966.41,101.83 0,0 45.59,-132.08 65.21,-206.64 -329.16,-37.35 -844.7,-83.04 -1035.62,-106.68 0,0 -34.59,145.71 -34.59,145.71 -17.29,43.27 -37.38,86.25 -56.1,130.94 -28.81,68.77 -78.43,198.82 -113.03,259.26 39.21,24.18 -1.32,-2.98 21.36,1.27l22.52 8.2c0.91,-2.21 4.4,2.78 6.82,3.68 1.14,-2.33 2.65,-5.6 3.47,-6.99l8.52 -13.83c0.99,-1.51 4.54,-2.76 5.32,-6.78 0.79,-4.12 3.85,-4.43 5.74,-6.68z"/>
   <path class="fil4" d="M1946.58 1804.25l209.24 36.96c72.67,9.58 216.27,64.1 276.16,12.15 -32.69,1.25 -137.51,-7.63 -158.66,-14.43 -16.22,-31.53 -7.5,15.83 0.62,-15.19 10.24,-39.04 13.73,-32.85 25.32,-36.43 4.74,-43.82 7.77,-14.33 -12.07,-48.41l-18.68 -22.07c-18.93,-15.14 -46.43,-16.81 -63.63,-30.42 -34.34,-27.18 -16.56,-77.98 -32.82,-146.35 58.63,-9.29 60.56,24.7 65.14,17.33 1.42,-2.28 4.88,4 7.46,5.79 -13.96,-78.31 -19.88,-20 -59.1,-78.79 10.25,-26.55 20.75,-20.99 37.1,-51.84 -45.03,-104.18 -10.63,-87.57 -80.53,-124.43l-8.55 -114.64c-1.05,-11.38 -0.81,-28.37 -0.97,-40.2 -0.79,-57.89 -5.15,-120.78 -9.42,-169.01 -5.3,-59.81 -6.36,-121.21 -12.08,-180.74 -16.89,-176.05 -11.49,-91.78 24.81,-138.31 -13.79,-68.54 -77.15,-45.12 -27.26,-131.13l9.6 -14.03c-31.82,-52.81 -39.92,-25.39 -32.51,-102.23l1.41 -29.48c-1.47,-7.66 -20.43,-8.51 -11.75,-63.26 4.23,-26.75 10.97,-42.94 24.82,-49.02 -33.18,-36.41 -38.43,-35.89 -39.15,-102.74 33.47,14.16 22.71,6.19 49.4,32.98 23.45,23.55 -0.04,15.51 36.58,33.73 -19.02,-34.02 -153.24,-169.62 -197.87,-188.53 1.39,2.35 3.84,5.12 5.02,6.49 71.73,82.97 103.62,58.6 105.72,162.97 -62.89,-26.74 -53.78,-66.25 -107.37,-74.73 16.52,32.11 45.26,45.88 72.27,72.31 47.64,46.63 23.4,130.71 23.74,153.86l1.78 15.49c24.24,145.63 -18.35,81.53 -16.09,132.16 11.19,32.64 13.36,21.65 23.41,47.5 11.28,29.02 -2.63,16.11 15.46,45.04 -25.4,47.92 -45.43,-0.15 -23.19,75.29 13.84,46.97 13.46,42.01 14.76,101.52l13.03 435.8c3.68,196.26 -33.76,123.56 -58.98,134.75 -2,54.09 20.81,81.51 38.05,114.06 -16.03,38.35 -38.71,50.85 -30.19,100 5.26,30.33 22.7,64.66 14.91,115.71 -8.67,56.79 -37.66,33.53 -40.67,78.13 -1.68,24.91 30.05,2.29 -7.35,27.72 -21.61,14.67 -13.79,8.4 -46.92,8.67z"/>
   <path class="fil1" d="M2806.53 3975.37c0,0 91.24,-23.78 91.24,-23.78 0,0 -16.49,-477.65 -17.99,-539.45 0,0 193.33,-57.78 214.35,-63.71 6.49,91.97 7.16,568.51 7.16,568.51 0,0 100.93,-3.12 100.93,-3.12 0,0 -8.97,-454.15 -8.09,-574.11l374.93 31.82c-1.46,-0.95 98.49,32.19 98.49,32.19 2.73,-14.28 6.37,-27.18 7.8,-35.56 -5.96,-5.49 -95.12,-65.05 -109.5,-68.86 -7.84,-2.07 -409.24,-39.13 -433.44,-37.57 -52.65,12.81 -351.46,75.27 -386.8,99.49 0.04,90.25 44.87,10.26 52.29,129.69l8.63 484.46z"/>
   <path class="fil1" d="M3236.37 2998.98l0 -1.82 -30.33 -2.64c-22.69,32.14 -1.88,13.61 -40.77,23.54 -55.75,14.23 -99.76,-31.07 -155.17,14.8 -23.01,14.74 -9.46,7.59 -50.71,17.29 4.63,15.81 -22.68,19.11 27.83,22.06 25.5,0.67 1.61,4 46.29,-15.19 -16.94,43.46 20.16,13.92 -45.43,34.39 -90.91,28.36 -378.24,81.7 -409.69,103.9 15.56,7.51 113.66,14.84 134.72,15.1 8.44,23.98 14.75,39.55 26.38,62.66 67.42,-5.21 179.87,-33.65 244.46,-48.51 148.48,-34.16 84.78,-30.49 242.93,-19.89 216.9,14.52 265.37,-11.26 378.03,77.56 36.84,29.01 34.72,42.63 88.49,47.82 -9.45,-36.14 -22.1,-52.13 -41.5,-71.34 -17.25,-17.06 -38.26,-36.98 -56.34,-53.03l68.16 -8.1 -3.82 -41.75c33.9,26.06 85.95,84.84 89.97,78.14 2.76,-4.59 8.33,-9.08 5.45,-13.09 -26.42,-36.85 -126.9,-126.72 -165.56,-160.42 -4.79,0.07 -13.25,7.91 -11.01,10.84 4.3,5.64 40.86,30.41 22.21,55.03 -5.85,5.87 -22.75,25.32 -52.76,-15.24 -18.55,-26.56 -9.46,-32.37 -20.66,-53.16 -11.07,15.88 -6.94,17.84 -13.58,38.44 -56.08,-1.69 -69.09,-6.39 -121.21,-16.22 -13.57,-22.06 0.48,2.24 -4.76,-31.51l-192.44 -25.41c24.96,-34.87 -4.2,-11.34 40.82,-24.25z"/>
   <path class="fil1" d="M829.47 4287.32l0.42 -21.51 236 5.1c-4.33,-22.72 -4.82,-14.37 -6.12,-43.63 -117.52,-14.9 -563.62,-30.38 -995.53,-49.68l0 48.45 450.48 24.1c-5.3,11.79 -9.32,24.25 -12.35,37.17l139.64 0 187.46 0z"/>
   <path class="fil5" d="M2514.86 2944.83c83.92,-38.27 129.5,-139.93 89.26,-235.58 -19.24,-46.84 -65.24,-80.81 -125.34,-90.91 33.77,-13.58 41.33,-11.15 74.58,-28.34l-116.58 -26.53c-50.92,-10.85 -238.36,-60.74 -277.25,136.15 -19.31,192.19 186.57,331.55 355.33,245.21z"/>
   <path class="fil1" d="M3537.95 3364.58l31.11 6.95c15.9,22.87 53.4,53.79 80.16,79.2 0,0 11.57,361.35 15.89,461.88 0,0 -78.53,0.11 -80.06,-0.41 0,0 -9.11,-459.86 -11.44,-503.55 -1.05,-19.6 -66.61,-33.54 -76.2,-12.45 10.83,190.82 7.34,385.57 8.88,511.6l-44.15 -0.38c-16.78,9.49 -10.56,6.89 -18.07,19.87 68.44,18.61 96.15,10.06 166.8,12.18 87.81,2.63 83.42,27.52 134.38,-7.95l-6.47 -35.73c-25.98,-118.21 -43.47,-343.78 -43.66,-472.31l-136.47 -103.69c-23.6,25.47 -20.7,-46.83 -20.7,44.79z"/>
   <path class="fil5" d="M1909.95 3247.1c45.8,28.51 107.04,83.87 152.53,118.62 9.62,7.36 35.25,-37.35 46.3,-51.45 -43.99,-43.22 -168.74,-139.74 -190.6,-148.33 -12.86,-5.04 -379.54,-39.09 -436.93,-39.53 -33.07,-0.26 -66.34,5.51 -126.16,23.48 -87.61,26.3 -174.21,40.45 -253.93,69.57 -43.43,103.91 -62.51,155.35 -55.77,158.04 5.65,2.25 45.28,-24.75 75.64,-92.63 109.93,-19.07 294.45,-70.11 335.71,-72.88 88.11,7.61 362.79,25.3 453.21,35.11z"/>
   <path class="fil1" d="M1141.99 4211.55c0,0 -1.72,47.63 -1.72,47.63 23.37,-1.98 159.66,-39.5 243.11,-52.8 44.58,-7.67 443.02,7.34 556.82,24.05 0,0 74.56,41.16 96.96,56.89 42.39,0 54.93,0 97.93,0 -77.01,-54.99 -143.23,-111.28 -169.63,-119.49 -76.47,-14.77 -473.31,-43.2 -574.95,-21.02 -50.33,13.07 -241.74,65.41 -248.52,64.74z"/>
   <path class="fil1" d="M1730.82 3803.3l-25.61 3.7 -39.15 20.92c51.19,0.16 92.18,16.9 130.5,14.37 49.73,11.92 91.33,10.08 177.86,27.65 53.92,15.63 106.24,29.69 116.72,32.83 -13.35,-57.7 -20.35,-482.85 -17.07,-492.87 1.65,-5.06 -36.52,-34.2 -70.8,-23.18l-8.78 439.5 -73.46 1.82c1.46,-10.95 -4.66,-350.75 5.95,-527.26 -15.26,-18.81 -55.68,-39.04 -107.72,-26.88 -2.57,25.34 6.76,493.08 6.92,533.92 0,0 -77.53,-3.68 -95.36,-4.52z"/>
   <path class="fil0" d="M3011.72 2815.48l68.62 -1.16c-26.26,29.69 -7.9,139.16 6.63,168.44 41.06,11.81 43.02,3.05 90.19,11.15 -15.38,-18.03 -32.65,-112.39 -33.38,-142.82l78.11 -1.21 27.97 142.39 -13.49 4.89 0 1.82 146.56 18.66c2.36,-52.82 -9.36,-102.02 -24.86,-154.62l-43.22 -9.51c101.75,6.93 80.93,-15.66 139.89,25.67 19.32,13.54 -6.05,3.4 31.38,15.43l16.27 121.64c-65.43,-15.8 -14.52,-3.34 -34.5,10.91l156.61 8.26c14.94,23.47 24.74,45.59 48.24,67.01 -21.32,-79.25 5.94,-99.68 -47.34,-162.13 -30.01,-35.15 -23.07,-22.39 -60.79,-41.66 -49.06,-25.09 -20.44,-12.59 -47.21,-55.48l-405.62 -35.49c-9.97,-16.7 -7.17,-19.17 -19.74,-42.94l-80.32 50.75z"/>
   <path class="fil1" d="M1401.87 3809.37c76.37,-1.73 189.16,14.67 215.69,-7.32l-101.83 -1.83c-2.99,-62.87 -11.56,-524.58 -15.17,-548.33 -1.67,-19.21 -93.97,4.97 -94.48,19.35 -1.54,43.32 3.94,435.54 -4.21,538.13z"/>
   <path class="fil3" d="M1146.95 2776.18l-14.75 143.06 108.59 -19.18 6.54 -77.98c28.88,38.38 14.48,-13.59 44.41,-32.03 -1.52,56.21 -20.87,36.52 -34.99,102.99 59.58,-16.14 114.23,-30.86 172.98,-50.29l-2.75 -163.09c-30.6,12.21 -260.45,83.41 -280.03,96.52z"/>
   <path class="fil3" d="M1435.89 2680.01l2.19 160.98c0,0 125.3,16.74 125.3,16.74l76.58 5.22c-41.35,-16.17 -38.08,-42.4 -39.5,-154.99 3.14,-1.66 7.07,-3.06 9.81,-4.09 47.65,-17.77 25.28,13.08 37.2,-12.58 5.53,-11.94 -178.39,-10.53 -211.58,-11.28z"/>
   <path class="fil3" d="M3369.11 2999.87c77.18,6.78 130.07,14.41 132.54,14.96l-13.54 -130.73c-57.19,-7.68 -128.65,-16.34 -129.73,-16.47 5,62.34 8.63,92.68 10.73,132.24z"/>
   <path class="fil3" d="M2920.52 2868.1c2.03,35.77 9.16,139.5 9.16,139.5 52.17,-9.96 119.49,-18.05 134.71,-21.2l-13.53 -136.07 -130.34 17.77z"/>
   <path class="fil3" d="M1784.04 2887.9l70.67 1.1 -6.12 -171.39 -97.43 -14.84c9.59,51.5 13.61,110.44 4.43,160.73 8.83,7.84 19.14,17.53 28.45,24.4z"/>
   <path class="fil3" d="M3155.93 2982.71l139.12 10.32 -13.83 -133.87 -137.44 -8.08c0.68,26.7 9.75,113.42 12.15,131.63z"/>
  </g>
 </g>
</svg>
