<?xml version="1.0" encoding="UTF-8"?>
<!DOCTYPE svg PUBLIC "-//W3C//DTD SVG 1.1//EN" "http://www.w3.org/Graphics/SVG/1.1/DTD/svg11.dtd">
<!-- Creator: CorelDRAW 2017 -->
<svg xmlns="http://www.w3.org/2000/svg" xml:space="preserve" width="222.25mm" height="177.271mm" version="1.1" shape-rendering="geometricPrecision" text-rendering="geometricPrecision" image-rendering="optimizeQuality" fill-rule="evenodd" clip-rule="evenodd"
viewBox="0 0 22225 17727.08"
 xmlns:xlink="http://www.w3.org/1999/xlink">
 <style>
    @keyframes eye1_move {
        0% { cx: 19012.2; }
        12.5% { cx: 18877.17; }
        37.5% { cx: 19165.17; }
        50% { cx: 19012.2; }
    }
    @keyframes eye2_move {
        0% { cx: 19548.9; }
        12.5% { cx: 19393.9; }
        37.5% { cx: 19693.9; }
        50% { cx: 19548.9; }
    }
    @keyframes eyelid_move {
        0% { stop-color: #fff }
        60% { stop-color: #fff }
        65% { stop-color: #000 }
        70% { stop-color: #fff }
        75% { stop-color: #000 }
        80% { stop-color: #fff }
        100% { stop-color: #fff }
    }
    .left_eye {
        animation-name: eye1_move;
    }
    .right_eye {
        animation-name: eye2_move;
    }
    .eyes {
        animation-duration: 4s;
        animation-iteration-count: infinite;
        animation-timing-function: ease-in-out;
    }
    #eyelidLeft > stop:first-child, #eyelidRight > stop:first-child {
        animation-name: eyelid_move;
        animation-duration: 4s;
        animation-iteration-count: infinite;
        animation-timing-function: ease-in-out;
    }
 </style>
 <defs>
    <radialGradient id="id0" gradientUnits="userSpaceOnUse" gradientTransform="matrix(1 -0 -0 0.75547 0 451)" cx="19292.66" cy="1845.7" r="650.31" fx="19292.66" fy="1845.7">
     <stop offset="0" stop-opacity="1" stop-color="gray"/>
     <stop offset="0.34902" stop-opacity="1" stop-color="#404040"/>
     <stop offset="1" stop-opacity="1" stop-color="black"/>
    </radialGradient>
    <radialGradient id="id1" gradientUnits="userSpaceOnUse" gradientTransform="matrix(1.22932 -0.499553 0.419223 1.03164 -4638 5125)" cx="10593.03" cy="5268.49" r="267.09" fx="10593.03" fy="5268.49">
     <stop offset="0" stop-opacity="1" stop-color="white"/>
     <stop offset="1" stop-opacity="1" stop-color="#B3C000"/>
    </radialGradient>
    <radialGradient id="id2" gradientUnits="userSpaceOnUse" gradientTransform="matrix(0.955662 1.05079 -1.00963 0.918229 8588 -16992)" cx="16775.37" cy="7769.04" r="317.28" fx="16775.37" fy="7769.04">
     <stop offset="0" stop-opacity="1" stop-color="white"/>
     <stop offset="1" stop-opacity="1" stop-color="#B3C000"/>
    </radialGradient>
    <radialGradient id="id3" gradientUnits="userSpaceOnUse" gradientTransform="matrix(1.13753 0.188724 -0.181332 1.09298 -1634 -4102)" cx="19052.94" cy="5441.88" r="620.87" fx="19052.94" fy="5441.88">
     <stop offset="0" stop-opacity="1" stop-color="white"/>
     <stop offset="1" stop-opacity="1" stop-color="#B3C000"/>
    </radialGradient>
    <radialGradient id="id4" gradientUnits="userSpaceOnUse" gradientTransform="matrix(1.24877 -0.507456 0.528103 1.29958 -6868 3828)" cx="11909.36" cy="7395.05" r="401.62" fx="11909.36" fy="7395.05">
     <stop offset="0" stop-opacity="1" stop-color="white"/>
     <stop offset="0.231373" stop-opacity="1" stop-color="#9C9C9C"/>
     <stop offset="1" stop-opacity="1" stop-color="#3A3A3A"/>
    </radialGradient>
    <radialGradient id="id5" gradientUnits="userSpaceOnUse" gradientTransform="matrix(0.220731 -1.09998 1.14473 0.229711 5702 28210)" cx="19728.79" cy="8449.63" r="902.15" fx="19728.79" fy="8449.63">
     <stop offset="0" stop-opacity="1" stop-color="white"/>
     <stop offset="0.231373" stop-opacity="1" stop-color="#9C9C9C"/>
     <stop offset="1" stop-opacity="1" stop-color="#3A3A3A"/>
    </radialGradient>
    <radialGradient id="id6" gradientUnits="userSpaceOnUse" gradientTransform="matrix(-0.155126 -1.10359 1.14849 -0.161437 9899 20794)" cx="13559.92" cy="5019.33" r="290.7" fx="13559.92" fy="5019.33">
     <stop offset="0" stop-opacity="1" stop-color="white"/>
     <stop offset="0.231373" stop-opacity="1" stop-color="#9C9C9C"/>
     <stop offset="1" stop-opacity="1" stop-color="#3A3A3A"/>
    </radialGradient>
    <radialGradient id="id7" gradientUnits="userSpaceOnUse" gradientTransform="matrix(0.955661 1.05078 -1.00965 0.918247 5574 -17290)" cx="16826.86" cy="4782.21" r="168.4" fx="16826.86" fy="4782.21">
     <stop offset="0" stop-opacity="1" stop-color="white"/>
     <stop offset="1" stop-opacity="1" stop-color="#B3C000"/>
    </radialGradient>
    <radialGradient id="id8" gradientUnits="userSpaceOnUse" gradientTransform="matrix(-1.18601 0.659799 -0.633945 -1.13954 35812 3108)" cx="14650.71" cy="5970.8" r="264.48" fx="14650.71" fy="5970.8">
     <stop offset="0" stop-opacity="1" stop-color="white"/>
     <stop offset="1" stop-opacity="1" stop-color="#B3C000"/>
    </radialGradient>
    <radialGradient id="id9" gradientUnits="userSpaceOnUse" gradientTransform="matrix(-0.444977 -1.19046 1.14383 -0.427547 2051 22911)" cx="8507.49" cy="8954.61" r="857.13" fx="8507.49" fy="8954.61">
     <stop offset="0" stop-opacity="1" stop-color="white"/>
     <stop offset="1" stop-opacity="1" stop-color="#B3C000"/>
    </radialGradient>
    <radialGradient id="id10" gradientUnits="userSpaceOnUse" gradientTransform="matrix(0.687915 -1.19523 1.24386 0.715905 -8641 7972)" cx="4736.47" cy="8135.54" r="501.51" fx="4736.47" fy="8135.54">
     <stop offset="0" stop-opacity="1" stop-color="white"/>
     <stop offset="0.231373" stop-opacity="1" stop-color="#9C9C9C"/>
     <stop offset="1" stop-opacity="1" stop-color="#3A3A3A"/>
    </radialGradient>
    <radialGradient id="id11" gradientUnits="userSpaceOnUse" gradientTransform="matrix(0.367488 -1.22494 1.02798 0.308399 1510 19091)" cx="12182.11" cy="6027.04" r="138.56" fx="12182.11" fy="6027.04">
     <stop offset="0" stop-opacity="1" stop-color="white"/>
     <stop offset="1" stop-opacity="1" stop-color="#B3C000"/>
    </radialGradient>
    <radialGradient id="id12" gradientUnits="userSpaceOnUse" gradientTransform="matrix(-0.479203 -1.19068 1.21271 -0.33134 11561 29303)" cx="14920.43" cy="8666.18" r="124.5" fx="14920.43" fy="8666.18">
     <stop offset="0" stop-opacity="1" stop-color="white"/>
     <stop offset="1" stop-opacity="1" stop-color="#B3C000"/>
    </radialGradient>
    <radialGradient id="id13" gradientUnits="userSpaceOnUse" gradientTransform="matrix(-0.479203 -1.19068 1.21271 -0.33134 4264 18064)" cx="8081.21" cy="6340.86" r="124.5" fx="8081.21" fy="6340.86">
     <stop offset="0" stop-opacity="1" stop-color="white"/>
     <stop offset="1" stop-opacity="1" stop-color="#B3C000"/>
    </radialGradient>
    <radialGradient id="id14" gradientUnits="userSpaceOnUse" gradientTransform="matrix(-0.479225 -1.19074 1.21279 -0.331361 4953 26856)" cx="11473.78" cy="9910.29" r="171.91" fx="11473.78" fy="9910.29">
     <stop offset="0" stop-opacity="1" stop-color="white"/>
     <stop offset="1" stop-opacity="1" stop-color="#B3C000"/>
    </radialGradient>
    <radialGradient id="id15" gradientUnits="userSpaceOnUse" gradientTransform="matrix(-0.479228 -1.19075 1.21277 -0.331356 -5116 23367)" cx="6306.56" cy="11910.69" r="348.49" fx="6306.56" fy="11910.69">
     <stop offset="0" stop-opacity="1" stop-color="white"/>
     <stop offset="1" stop-opacity="1" stop-color="#B3C000"/>
    </radialGradient>
    <linearGradient id="eyelidLeft" x1="0" y1="80%" x2="100%" y2="-70%">
        <stop offset="0.45" stop-color="#fff"/>
        <stop offset="0.5" stop-color="#000"/>
    </linearGradient>
    <linearGradient id="eyelidRight" x1="90%" y1="100%" x2="0" y2="-90%">
        <stop offset="0.45" stop-color="#fff"/>
        <stop offset="0.5" stop-color="#000"/>
    </linearGradient>
 </defs>
 <g id="Слой_x0020_1">
  <metadata id="CorelCorpID_0Corel-Layer"/>
  <g id="bg">
   <path fill="#DEDEDE" d="M7709.05 437.7c4873.76,-1115.82 10686.58,-160.18 13211.28,3157.78 470.34,618.16 826.63,1318.31 1041.38,2102.34 1367.55,4992.34 -2525.59,10481.79 -8351.19,11630.06 -5825.62,1148.23 -11329.96,-14 -13117.27,-5678.42 -1787.31,-5664.42 1434.04,-9888.07 7215.8,-11211.76z"/>
   <path fill="#C9C7C7" fill-opacity="0.188235" d="M11769.58 1482.29c2048.58,0 4422.49,18.71 6644.02,28.63 0,0 90.43,45.67 238.91,134.15 453.05,269.98 1406.65,954.39 1864.52,1469.89 169.25,190.52 391.94,462.37 391.94,462.37 -2.37,632.3 -61.95,1273.2 -221.98,1815.76l-8892.31 45.48c0,0 -699.51,-2353.82 -25.1,-3956.28z"/>
   <path fill="#C4C4C4" fill-opacity="0.278431" d="M11908.35 1733.93c2238.53,0 4646.74,17.9 6952.37,24.93 568.55,1.71 1267.74,771.97 1267.74,771.97 171.53,340.56 628.53,858.77 628.53,858.77 17.22,641.63 -35.85,1336.34 -197.61,1828.58l-8598.18 -6.69c0,0 -616.26,-1944.46 -52.85,-3477.56z"/>
   <path fill="url(#id0)" d="M19193.35 1314.13c23.46,0 195.79,-511.34 259.56,-498.78 62.32,12.28 47.64,526.14 112.67,550.64 51.45,19.36 88.06,39.4 133.66,68.62 49.97,32.05 510.09,-196.92 558.7,-148.1 49.23,49.48 -304.05,409.33 -267.3,484.24 23.39,47.66 21.4,40.55 34.76,93.1 8.52,33.48 622.76,4.42 631.32,77.95 9.94,85.42 -598.05,161.88 -598.05,192.61 0,27.44 -0.38,13.89 -3.12,40.6 -40.64,393.99 -373.63,701.29 -778.41,701.29 -413.15,0 -746.46,-270.33 -775.41,-676.06 -5.1,-71.55 -593.27,-204.91 -572.71,-305.09 11.25,-54.8 597.04,-16.56 604.8,-47.27 23.71,-93.56 31.49,-105.43 86.51,-181.37 31.78,-43.86 -382.92,-612.35 -314.49,-674.17 72.77,-65.74 610.65,410 675.37,376.69 75.24,-38.76 98.36,-37.38 184.62,-49.86 36.33,-5.27 -10.19,-5.04 27.52,-5.04z"/>
   <path fill="url(#eyelidLeft)" d="M18976.43 1745.35c107.67,68.38 286.88,123.74 286.88,232.34 0,108.6 -124.14,154.14 -232.74,154.14 -108.6,0 -242.46,-79.73 -242.46,-188.33 0,-108.6 80.64,-266.54 188.32,-198.15z"/>
   <path fill="url(#eyelidRight)" d="M19665.62 1728.63c55.34,-5.73 116.59,162.64 116.59,222.84 0,131 -121.48,221.96 -252.48,221.96 -116.83,0 -221.02,-82.9 -221.82,-195.74 -0.38,-56.32 53.93,-129.34 145.29,-160.01 72.54,-24.34 117.41,-79.19 212.42,-89.05z"/>
   <circle class="eyes left_eye" fill="black" cx="19012.17" cy="1971.27" r="76.78"/>
   <circle class="eyes right_eye" fill="black" cx="19548.9" cy="1975.43" r="76.02"/>
   <g>
    <path fill="#F0EDED" d="M12090.11 1977.69c2771.02,0 5542.04,0 8313.05,0 65.58,760.82 254.53,1629.86 0,3038.69 -2771.01,0 -5447.92,0 -8218.94,0 -273.38,-1154.31 -358.06,-1884.39 -94.11,-3038.69z"/>
    <path fill="#E3E0E0" d="M12090.11 1977.69c2771.02,0 5542.04,0 8313.05,0 42.69,506.76 118.37,862.71 128.07,1520.3l-8595.33 3.87c0,0 -81.46,-435.85 154.21,-1524.17z"/>
    <polygon fill="white" points="12867.27,4327.79 19757.58,4327.79 19827.02,3971.47 12722.58,3982.49 "/>
    <polygon fill="white" points="12867.27,4327.79 19757.58,4327.79 19827.02,3971.47 12722.58,3982.49 "/>
    <polygon fill="white" points="12867.27,4327.79 19757.58,4327.79 19827.02,3971.47 12722.58,3982.49 "/>
    <polygon fill="gray" points="12867.27,4327.79 19635.97,4327.79 19734.27,3971.59 19851.94,3971.74 19737.99,4426.97 12918.35,4433.13 "/>
   </g>
   <path fill="url(#id1)" d="M10450.8 5004.49c170.37,-69.24 348.3,-83.51 470.19,140.93 121.88,224.38 -77.58,341.57 -247.96,410.79 -170.38,69.26 -370.46,-43.87 -406.37,-144.9 -35.92,-100.99 13.75,-337.6 184.14,-406.82z"/>
   <path fill="url(#id2)" d="M17035.32 7429.48c217.43,152.83 297.06,478.2 20.1,687.46 -276.93,209.24 -480.36,76.23 -667.3,-129.31 -186.93,-205.55 -39.12,-452.43 85.39,-555.98 124.48,-103.54 344.37,-155.01 561.81,-2.17z"/>
   <path fill="url(#id3)" d="M19045.78 4761.86c421.56,-23.5 841.16,303.78 701.86,837.35 -139.3,533.51 -523.88,567.95 -959.31,495.71 -435.43,-72.24 -494.18,-525.58 -440.89,-777.26 53.28,-251.64 276.78,-532.3 698.34,-555.8z"/>
   <path fill="url(#id4)" d="M11733.56 7162.5c32.58,-20.57 50.62,-326.89 71.58,-331.66 40.59,-9.26 143.45,273.16 179.73,280.26 31.79,6.24 43.7,6.79 113.68,21.19 7.61,1.57 185.93,-75.15 191.26,-69.43 2.84,3.08 -90.36,167.01 -87.57,170.15 22.7,25.58 17.2,21.66 33.28,51.29 10.74,19.75 7.79,9.76 13.77,27.87 3.85,11.77 239.39,50.94 241.42,62 2.16,11.85 -224.95,89.92 -227.39,100.74 -5.05,22.25 -18.06,44.83 -37.12,67.03 -24.03,27.99 125.41,273.33 86,298.65 -51.92,33.33 -192.56,-199.15 -324.64,-145.5 -18.98,7.69 -38.33,13.13 -57.75,16.6 -41.71,7.4 -122.79,212.41 -162.78,204.12 -40.07,-8.29 -39.21,-229.95 -72.19,-248.66 -29.95,-16.97 -30.52,-13.36 -50.46,-34.67 -9.64,-10.3 -202.65,31.11 -209.1,20.3 -5,-8.34 141.63,-117.97 140.68,-126.98 -2.59,-24.6 0.51,-55.48 8.04,-88.93 5.89,-26.03 -160.39,-121.11 -149.81,-148.68 11.26,-29.28 206.68,11.63 214.85,-18.25 8.7,-31.75 32.37,-74.54 84.52,-107.44z"/>
   <path fill="url(#id5)" d="M19186.59 8488.28c1.5,-72.03 -457.67,-415.94 -443.53,-453.54 27.43,-72.86 573.94,57.85 622.43,8.58 42.5,-43.16 55.63,-61.16 150.24,-155.46 10.3,-10.26 74.46,-367.48 88.87,-369.9 7.73,-1.25 167.33,313.11 175.12,311.99 63.29,-9.02 51.5,-4.51 114.29,0.97 41.88,3.6 23.26,-2.09 57.66,7.25 22.34,6.12 326.24,-320.87 345.59,-312.62 20.71,8.83 -91.65,443.54 -77.29,458.5 29.5,30.81 51.32,74.39 66.28,126.99 18.89,66.35 555.61,86.17 554.48,173.75 -1.54,115.33 -509.13,95.04 -561.61,356.36 -7.57,37.52 -19.03,73.3 -33.63,107.18 -31.46,72.68 204.72,410.49 150.56,464.3 -54.23,53.96 -399.08,-175.88 -462.26,-143.72 -57.34,29.22 -52.31,33.83 -106.1,42.95 -26.01,4.42 -160.39,348.15 -183.89,347.08 -18.16,-0.81 -37.99,-342.52 -53.03,-350.34 -41.04,-21.31 -86,-57.98 -130.41,-104.21 -34.53,-36.01 -354.24,125.32 -386.35,80.4 -34.06,-47.76 231.21,-310.38 193.03,-353.92 -40.55,-46.3 -82.9,-127.32 -80.45,-242.59z"/>
   <path fill="url(#id6)" d="M13398.43 5088.19c-7.18,-21.91 -182.32,-77.08 -182.04,-89.94 0.56,-24.91 179.47,-43.39 188.88,-63.41 8.26,-17.54 10.32,-24.37 28.89,-62.89 2.03,-4.18 -16.48,-118.87 -12.39,-121.13 2.21,-1.2 83.75,76.81 85.98,75.65 18.16,-9.44 15.08,-6.82 34.62,-11.82 13.03,-3.36 6.8,-3.1 18.18,-3.93 7.4,-0.52 64.5,-131.5 71.22,-131.06 7.19,0.47 19.36,143.67 25.28,146.67 12.17,6.17 23.38,17.02 33.48,31.32 12.74,18.03 176.94,-32.9 185.88,-6.33 11.77,35 -143.68,82.69 -131.82,167.18 1.7,12.13 2.03,24.15 1.21,35.93 -1.79,25.29 105.36,102.26 94.71,124.26 -10.65,22.05 -139.18,-10.8 -154.84,5.62 -14.22,14.9 -12.22,15.76 -27.49,24.22 -7.39,4.09 -11.52,122.15 -18.73,124.32 -5.57,1.68 -47.8,-99.42 -53.17,-100.18 -14.65,-2.09 -32.12,-8.39 -50.44,-17.65 -14.24,-7.21 -93.69,75.42 -108.15,65.26 -15.35,-10.81 36.91,-118.26 20.76,-127.36 -17.15,-9.68 -38.53,-29.66 -50.02,-64.73z"/>
   <path fill="url(#id7)" d="M16964.83 4601.98c115.41,81.12 157.67,253.81 10.67,364.88 -146.99,111.06 -254.96,40.46 -354.18,-68.63 -99.22,-109.1 -20.76,-240.14 45.32,-295.1 66.07,-54.95 182.78,-82.27 298.19,-1.15z"/>
   <path fill="url(#id8)" d="M14864.02 6235.12c-158.06,140.82 -424.85,143.4 -536.76,-109.42 -111.9,-252.8 28.24,-386.37 221.63,-493.95 193.38,-107.59 357.95,51.93 415.61,167.31 57.65,115.36 57.58,295.24 -100.48,436.06z"/>
   <path fill="url(#id9)" d="M7618.51 9488.52c-350.89,-538.14 -237.66,-1339.9 571.75,-1561.07 809.34,-221.15 1146.6,259.94 1381.74,889.03 235.15,629.1 -318.16,1050.59 -690.54,1171.3 -372.3,120.68 -912.05,38.89 -1262.95,-499.26z"/>
   <path fill="url(#id10)" d="M4372.18 8049.95c16.64,-46.33 -205.91,-369.04 -188.56,-390.32 33.62,-41.22 359.16,162.41 401.29,141.05 36.92,-18.7 49.35,-27.5 131.16,-67.99 8.9,-4.4 128.22,-221.82 138.08,-220.25 5.28,0.87 40.23,239.23 45.52,240.2 42.96,7.94 34.34,8.3 73.81,25.51 26.34,11.45 15.52,3.71 35.78,17.25 13.13,8.83 281.16,-136.82 291.89,-127.27 11.49,10.23 -155.91,267.35 -149.87,280.17 12.41,26.37 17.05,59.35 15.29,96.68 -2.21,47.09 341.13,176.76 321.33,233.24 -26.1,74.37 -350.46,-49.27 -441.34,108.57 -13.07,22.66 -28.28,43.34 -45.11,62.1 -36.21,40.24 43.24,310.46 -3.55,333.52 -46.87,23.15 -220.21,-200.8 -268.13,-193.71 -43.51,6.44 -41.25,10.52 -78.08,4.72 -17.81,-2.8 -179.67,190.59 -194.66,184.78 -11.59,-4.47 49.95,-230.13 41.91,-238.46 -21.94,-22.75 -43.09,-56.28 -61.78,-95.89 -14.53,-30.85 -256.74,4.06 -267.75,-32.03 -11.67,-38.35 217.32,-150.71 202.07,-187.23 -16.19,-38.81 -25.98,-100.51 0.7,-174.64z"/>
   <path fill="url(#id11)" d="M12036.26 6000.52c26.42,-88.08 76.63,-161.87 202.26,-139.01 125.61,22.83 108.76,137.26 82.33,225.33 -26.42,88.08 -133.2,130.58 -183.81,112.91 -50.6,-17.66 -127.21,-111.16 -100.78,-199.23z"/>
   <path fill="url(#id12)" d="M14774.18 8719.88c-30.96,-76.92 -32.32,-155.57 91.73,-202.66 124.03,-47.09 179.56,44.01 210.51,120.93 30.97,76.92 -36.44,161.62 -91.62,174.48 -55.16,12.87 -179.68,-15.82 -210.62,-92.75z"/>
   <path fill="url(#id13)" d="M7934.95 6394.56c-30.96,-76.93 -32.32,-155.57 91.73,-202.66 124.03,-47.1 179.56,44 210.51,120.92 30.97,76.92 -36.44,161.62 -91.62,174.49 -55.16,12.87 -179.68,-15.83 -210.62,-92.75z"/>
   <path fill="url(#id14)" d="M11271.82 9984.46c-42.75,-106.22 -44.63,-214.83 126.68,-279.86 171.27,-65.03 247.95,60.77 290.69,166.99 42.76,106.22 -50.32,223.18 -126.51,240.95 -76.17,17.77 -248.13,-21.86 -290.86,-128.08z"/>
   <path fill="url(#id15)" d="M5897.14 12061.04c-86.66,-215.33 -90.46,-435.49 256.81,-567.32 347.2,-131.83 502.64,123.19 589.27,338.53 86.69,215.32 -102,452.42 -256.45,488.43 -154.42,36.03 -502.99,-44.3 -589.63,-259.64z"/>
   <path fill="black" d="M17320.95 1789.56c125.91,-16.03 363.75,11.47 518.58,188.11 0,0 -258.39,0.02 -258.39,0.02 0,0 1.18,6.74 1.18,6.74 9.05,50.15 34.27,135.08 53.13,215.57 10.48,44.71 2.3,133.68 -21.71,174.05 -0.58,0.98 -11.72,-109.52 -59.05,-162.38 -25.19,-28.09 -47.62,-44.52 -56.03,-35.94 -23.32,23.88 -35.04,25.97 -65.94,42.73 -64.56,35.11 -20.16,254.04 -28.34,254.22 -9.25,0.19 -66.95,-59.1 -80.52,-84.27 -54.53,-100.92 -22.22,-147.5 -131.94,-177.22 -20.13,-5.46 -27.67,59.41 -27.27,90.34 1.18,91.27 56.34,145.36 55.29,147.2 -2.06,3.51 -63.02,-17.82 -96.23,-66.55 -85.5,-125.49 -69.88,-295.89 -41.89,-389.31 30.24,-100.74 95.5,-184.99 239.13,-203.31z"/>
   <path fill="black" d="M20441.82 2351.03c0,0 32.08,275.65 32.08,275.65 -44.45,22.41 -140.73,55.82 -213.8,90.91 -40.57,19.48 -103.11,80.78 -118.74,124.3 -0.36,1.05 90.67,-58.58 160.63,-54.59 37.19,2.15 63.78,9.37 62.54,21.17 -3.5,32.8 3.15,42.98 8.96,77.43 14.65,86.86 -174.49,173.77 -169.47,180.17 5.64,7.3 80.98,14.04 108.64,9.04 215.6,-39.1 75.34,-28.47 217.7,-7.33 20.41,3.05 -27.78,58.11 -51.56,76.9 -70.14,55.45 -145.95,46.17 -146.69,48.12 -1.37,3.75 53.17,37.77 111.1,33.37 149.17,-11.32 270.06,-128.02 322.38,-208 159.5,-243.76 -143.67,-637.58 -323.77,-667.14z"/>
  </g>
 </g>
</svg>
