<?xml version="1.0" encoding="UTF-8"?>
<!DOCTYPE svg PUBLIC "-//W3C//DTD SVG 1.1//EN" "http://www.w3.org/Graphics/SVG/1.1/DTD/svg11.dtd">
<!-- Creator: CorelDRAW 2017 -->
<svg xmlns="http://www.w3.org/2000/svg" xml:space="preserve" width="138.906mm" height="177.271mm" version="1.1" shape-rendering="geometricPrecision" text-rendering="geometricPrecision" image-rendering="optimizeQuality" fill-rule="evenodd" clip-rule="evenodd"
viewBox="0 0 13890.62 17727.08"
 xmlns:xlink="http://www.w3.org/1999/xlink">
 <g id="Слой_x0020_1">
  <metadata id="CorelCorpID_0Corel-Layer"/>
  <g id="_543462091328">
   <path fill="#71E2FF" fill-opacity="0.549020" d="M6577.25 48.63c3243.88,-270.84 6989.51,531.75 7296.79,3881.15 453.23,4940.42 -5584.31,4355.43 -3937.24,8141.01 1073.32,2596.94 -382.93,4780.25 -1457.74,5226.13 -1799.42,746.47 -5501.65,569.33 -6489.66,-910.15 -1629.13,-2439.46 -80.96,-3931.59 1012.87,-5151.75 857.35,-956.36 526.32,-3066.11 26.86,-4016.48 -665.47,-1266.28 -1142.97,-2451.98 -834.26,-3608.71 489.62,-1834.6 2392.92,-3395.09 4382.38,-3561.2z"/>
   <path fill="#71D4ED" fill-opacity="0.258824" d="M6571.67 2076.18c1590.87,0 3525.84,19.78 5116.71,19.78 90.82,574.02 168.08,1528.01 -33.01,2209.72l-5069.39 25.92c0,0 -398.79,-1341.88 -14.31,-2255.42z"/>
   <path fill="#6DCBE3" fill-opacity="0.258824" d="M6650.78 2219.64c1590.87,0 3332.03,15.82 4922.91,15.82 107.57,350.27 199.53,1390.46 8.93,1970.5l-4901.71 -3.81c0,0 -351.32,-1108.52 -30.13,-1982.51z"/>
   <g>
    <path fill="#F0EDED" d="M6754.4 2358.6c1579.72,0 3159.44,0 4739.16,0 37.38,433.73 145.1,929.17 0,1732.32 -1579.72,0 -3105.79,0 -4685.51,0 -155.85,-658.06 -204.13,-1074.27 -53.65,-1732.32z"/>
    <path fill="#E3E0E0" d="M6754.4 2358.6c1579.72,0 3159.44,0 4739.16,0 24.34,288.9 67.48,491.82 73.01,866.7l-4900.09 2.21c0,0 -46.43,-248.47 87.92,-868.91z"/>
    <polygon fill="white" points="7197.45,3698.36 11125.52,3698.36 11165.11,3495.23 7114.96,3501.51 "/>
    <polygon fill="white" points="7197.45,3698.36 11125.52,3698.36 11165.11,3495.23 7114.96,3501.51 "/>
    <polygon fill="white" points="7197.45,3698.36 11125.52,3698.36 11165.11,3495.23 7114.96,3501.51 "/>
    <polygon fill="gray" points="7197.45,3698.36 11056.19,3698.36 11112.23,3495.3 11179.31,3495.38 11114.36,3754.9 7226.57,3758.42 "/>
   </g>
   <path fill="#FEF3B9" d="M7195.2 10207.74c18.54,-23.78 96.07,-31.83 61.31,54.23l-51.96 -3.53 -9.35 -50.7zm-921.52 1760.7c85.02,21.07 449.51,3.3 447.78,-8.85 1.03,-33.02 -2.28,-116.56 -3.03,-155.14 -0.16,-9.62 -1.95,-40.07 -0.11,-49.04 27.63,-86.76 46.65,32.26 45.25,75.21 -1.44,44.3 -3.59,88.43 -3.26,132.76 -1.5,3.42 227.97,28.83 233.35,17.65l0.64 -258.16 35.41 1.51c0,0 2.36,206.87 3.31,251.19l353.7 -13.03c44.45,-9.21 102.24,-35.93 115.73,-165.2l-2.1 -875.23c-81.45,-5.58 -129.79,-5.89 -178.93,-11.03l3.01 -661.21c-5.09,-118.06 -121.96,-125.34 -183.74,-45.11 -21.78,31.89 -15.79,270.48 -16.2,357.63 -0.47,97.55 10.71,261.69 -2.7,350.93l-137.57 8.79 -65.25 -2.65 -144.77 4.42 -376.44 -8.35 0.35 -394.27 -211.54 37.16c2.64,251.02 -91.83,1404.96 87.11,1410.02z"/>
   <path fill="#6E72A1" d="M6958.19 5844.2l-364.13 1.2 -153.79 7.85 -171.14 -1.72c-71.74,-2.69 -147.41,-33.41 -237.06,-41.2 -101.45,-8.8 -183.52,2.73 -282.33,3.47 -65.85,32.76 -152.99,22.63 -324.25,122.66 -162,94.62 -217,167.23 -256.21,189.58l-147.52 181.46c-169.62,235.6 -239.95,414.55 -298.81,720.97 -81.13,422.24 -38.16,857.5 -70.79,1287.46 -10.28,337.18 -26.66,696.25 -79.92,1026.88 -41.4,256.92 -316.64,796.02 3.72,961.43 128.6,31.02 302.59,13.68 445.16,22.62 147.79,9.28 262.41,30.65 402.37,71.16 329.43,95.37 383.92,185.22 773.92,159.72l51.79 -9.53 0.4 -0.05 97.69 -10.49 234.47 -60.73c-10.84,-48.12 -21.34,-26.12 -61.54,-69.76 -25.25,-27.39 -29.27,-55.26 -49.29,-70.57 -16.51,-111.14 3.81,-223.75 117.84,-266.39 9.11,114.71 -30.81,255.55 88.73,260.83 131.71,5.83 84.69,-160.01 96.91,-262.21 53.37,30.03 74.46,35.77 104.35,99.62 12.11,25.85 20.08,62.44 19.85,93.1 -0.27,36.02 -2.49,23.6 -7.58,50.54l-3.21 35.13c59.93,-21.04 150.87,-72.95 196.69,-107.61 77.07,-58.3 64.71,-114.6 108.43,-199.72 21.54,-165.03 40.56,-178.12 8.9,-387.47 -83.72,-553.84 -103.92,-570.21 -107,-1186.07 -1.99,-400.06 -7.15,-1295.19 80.24,-1655.26 38.94,21.72 307.85,-32.66 372.34,-41.69 125.19,-17.53 249.03,-43.19 374.32,-66 203.09,-36.99 527.38,-122.85 648.04,-232.16 -21.07,-13.49 19.38,-18.45 -45.58,-10.25 -370.79,46.95 -501.91,36.07 -590.51,-332.58 -5.74,-84.63 28.44,-262.66 -36.97,-307l-938.53 22.78z"/>
   <path fill="#010544" d="M5100.3 4424.77c133.88,251.84 -185.19,390.59 67.13,563.57 127.39,87.32 121.27,45.46 185.23,211.26 30.91,80.17 52.96,46.07 104.91,89.69 8.63,7.26 50.04,128.63 54.15,142.5 2.73,1.44 6.57,0.95 7.92,4.88l22.71 14.02c7.15,4.08 17.47,10.3 29.6,14.58 80.58,28.4 168.11,-11.94 257.42,9 49.65,15.22 90.31,45.44 148.98,25.59 49.5,-16.75 86.24,-51.66 130.45,-61.9 83.03,-104.28 200.03,-199.48 213.14,-397.88l4 -48.15c-132.21,-75.07 -143.01,-301.23 -3.81,-298.55 54.14,1.03 81.22,34.99 119.17,53.54 5.48,-109.09 -63.89,-184.32 -4.17,-305.45 10.25,-169.52 10.87,-249.04 -79.6,-374.87 -117.49,-163.4 -340.39,-141.17 -526.28,-216.27 -56.61,-22.86 -332.56,-163.04 -363.08,-5.5 -16.15,83.34 70.43,151.59 3,204.21 -51.44,33 -98.76,-29.68 -151.62,29.87 -45.36,51.1 1.87,98.93 -19.28,152.48 -37.09,93.93 -198.64,34.79 -199.97,193.38z"/>
   <path fill="#FEEB9B" d="M3290.27 16334.42c-11.97,-193.08 19.83,-1355.8 -24.5,-1449.9 -71.15,-151.11 -168.34,-269.8 -251.71,-412.92 -42.38,-72.76 -51.05,-100.16 -93.17,-132.81 -78.87,-61.08 -174.19,-23.3 -211.66,63.67 -102.49,167.89 -207.98,335.63 -311.73,503.12l-1508.02 -0.91 -208.62 -337.5c-5.17,-9.25 -12.85,-20.88 -19.48,-28.62 -98,-2.47 -177.16,13.3 -250.74,-22.95 -29,-133.88 29.93,-112.23 134.13,-115.45 0,0 35.41,-0.01 35.41,-0.01 0.39,-1.12 -114.51,-179.86 -228.4,-44.79 -54.56,75.82 -348.45,513.1 -351.78,581.73 186.19,-55.37 943.93,-13.61 1192.95,-13.61 204.6,0 1075.54,-10.44 1201.64,2.91 32.58,121.32 -16.77,1131.53 8.48,1392.12l-8.13 48.28 -2.86 20.27 888.59 -0.36c-1.31,-44.63 -9.36,-34.24 9.6,-52.27z"/>
   <path fill="#F2AFA4" d="M7542.57 3684.98c-59.61,16.53 -36.36,113.09 -34.89,170.15 2.19,84.04 10.8,128.69 -15.97,202.33 -51.51,-12.36 -51.04,-51.35 -103.22,-23.45 -31.62,52.5 -3.95,64.79 78.56,138.83 52.01,46.68 61.52,63.24 108.02,117.58 152.9,178.74 112.55,6.07 144.61,306.33 34.72,200.43 78.08,383.82 103.9,594.46 13.08,106.61 26.55,209.24 39.64,315.85l32.61 236.27c46.36,322.64 -71.83,657.72 362.18,762.45 192.79,1.1 249.62,-42.68 266.19,-44.78 64.96,-8.2 24.5,-3.24 45.58,10.25 10.21,-37.84 44.05,-34.43 60.68,-94.68 59.08,-214.1 -160.81,-777.62 -228.94,-967.96l-408.41 -965.93c-71.38,-69.09 -25.59,-203.11 -38.43,-326.3 -6.61,-63.52 -26.05,-94.48 -28.09,-164.07 -1.67,-56.85 18.52,-149.02 -5.62,-189.94 -86.91,-38.91 -40.99,134.92 -87.97,152.47 -5.12,-77.95 9.3,-169.31 -28.58,-222.45 -24.62,-6.26 -40.49,-0.47 -50.14,16.12 -38.17,79.2 23.45,166.54 -34.11,204.91 -32.56,-25.28 -18.7,-71.67 -19,-155.36 -0.16,-45.29 3.42,-122.23 -51.92,-104.11 -66.23,21.69 -2.92,238.08 -36.62,294.91 -32.26,-14.48 -22.23,-73.67 -22.1,-115.16 0.12,-42.34 1.36,-84.74 -2.24,-126.74 -7.76,-17.3 -18.02,-22.56 -45.72,-21.98z"/>
   <path fill="#FECC7A" d="M-0 14937.08l0.46 1449.09 2391.62 0.88 2.86 -20.27 8.13 -48.28c-25.25,-260.59 24.1,-1270.8 -8.48,-1392.12 -126.1,-13.35 -997.04,-2.91 -1201.64,-2.91 -249.02,0 -1006.76,-41.76 -1192.95,13.61z"/>
   <path fill="#FDD179" d="M4068.91 16221.7l183.53 -4.13 1.71 59.33 -185.5 3.78 0.26 -58.98zm-89.89 80.66l1135.42 22.26c35.47,-43.7 39.89,-134.79 -50.37,-194.9 -33.27,-22.17 -151.17,-70.73 -196.21,-74.95l3.24 -41.32 -44.09 147.14 -49.66 -12.12 20.16 -116.29c-5.74,-4.98 -22.86,-17.94 -30.16,-24.17 -19.08,-16.33 -11.9,1.56 -20.87,-23.21 -41.46,45.95 -3.66,136.94 -75.46,119.85 -22.79,-11.14 -19.71,-25.45 -10.44,-62.06 5.97,-23.59 11.39,-39.46 16.39,-66.37 -35.63,-16.83 -13.85,-18.35 -68.33,-21.76 -11.64,40.14 -16.39,84.39 -40.11,115.41l-36.85 -10.85c-12.49,-40.08 7.54,-83.69 21.41,-127.35 -0.53,-0.49 -2.15,-6.11 -20.77,-12.9 -24.82,-9.03 -8.18,-2.81 -27.98,-5.65 -32.83,-4.7 -19.05,9.5 -51.04,-7.46 -89.41,33.92 -288.94,-6.48 -404.15,15.27l-0.12 -47.8c-17.59,68.87 -0.89,36.54 -34.53,89.29 -19.98,31.34 -24.01,52.19 -25.71,102.74 -2.71,80.91 1.91,161.47 -9.77,237.2z"/>
   <path fill="#FDD179" d="M5938.51 16218.63l185.61 -3.45 0.03 59.94 -179.37 1.98 -6.27 -58.47zm341.45 -305.26c-107.28,9.08 -284.36,-15.79 -372.15,12.86 -46.32,56.61 -45.29,75.73 -47.68,160.81 -1.94,69.48 -8.45,146.74 -5.08,211.32 104.56,-17.54 427.64,6.84 555.66,10.94l534.47 16.03c75.76,16.02 -44.92,-17.09 18.39,5.75l16.09 8.66c14.09,-17.08 -3.55,14.23 14.69,-21.51 85.3,-167.02 -163.87,-254.88 -252.8,-266.29l-0.31 -40.15c-11.82,22.03 -16.61,43.72 -23.49,72.86 -2.12,9 -7.51,35.02 -10.6,42.65 -14.71,36.34 -6.33,14.62 -19.45,28.77 -66.52,-17.91 -40.85,-24.37 -19.36,-124.78 -2.52,-2.55 -9.17,-9.67 -10.78,-11.09l-17.22 -14.4c-19.84,-16.59 -12.98,1.63 -24.51,-22.73 -14.32,20.55 -16.68,42.78 -24.4,72.98 -10.24,40.15 -5.25,38.1 -32.8,52.96 -41.99,-17.6 -40.12,-7.56 -29.97,-58.34 6.29,-31.5 12.7,-40.61 18.31,-77.29l-56.56 -44.53c-33.13,62.24 -17.08,90.25 -50.09,137.71 -85.76,-15.64 -33.66,-34.61 -10.67,-174.1l-6.52 8.83c-21.91,15.61 -0.55,6.59 -36.6,12.84 -1.75,0.3 -31.62,1.84 -31.75,1.84 -24.68,0.53 -50.16,-1.28 -74.82,-2.6z"/>
   <path fill="#020443" d="M661.38 14538.55l1964.46 0.54 83.4 -136.63 -32.04 -2.75 -2132.43 0.44c-104.2,3.22 -175.59,-11.78 -134.13,115.46 41.18,32.09 152.74,20.47 250.74,22.94z"/>
   <path fill="#94B4DB" d="M6470.93 10336.6c13.79,44.39 21.96,47.33 47.2,74.72 40.21,43.64 52.79,17.5 63.63,65.62l-0.27 443.9 192.71 3.04 -0.58 -458.23c23.49,-19.15 40,-25.77 65.21,-53.08 21.25,-23.01 29.93,-27.18 48.99,-65.34l7.15 -24.13c5.09,-26.94 6.69,-28.64 6.95,-64.66 0.24,-30.66 -11.05,-64.13 -23.16,-89.98 -29.89,-63.85 -50.98,-69.59 -104.35,-99.63 -12.22,102.21 34.8,268.05 -96.91,262.22 -119.54,-5.29 -79.62,-146.12 -88.73,-260.83 -114.03,42.64 -134.35,155.25 -117.84,266.38z"/>
   <path fill="#D9C5B4" d="M6887.82 10347.23c-22.17,26.94 -27.74,42.33 -48.99,65.34 -25.21,27.31 -41.72,33.93 -65.21,53.08l0.58 458.23 144.76 -4.42c-7.14,-159.49 20.79,-109.29 -41.31,-191.82 -47.74,-63.44 -22.47,-122.97 25.15,-159.58l7.95 17.91c4.15,16.1 3.94,11.13 5.88,29.77 1.74,16.74 -0.45,40.18 1.96,62.65l64.16 2.52 0.92 -115.05c6.65,0.59 32.61,4.83 50.08,39.28 43.03,65.88 5.92,118.15 -48.17,161.47l-1.37 155.5 137.58 -8.8c13.41,-89.24 2.23,-253.37 2.7,-350.93 0.41,-87.14 -12.02,-310.56 18.48,-357.41 48.7,-63.69 96.77,-53.31 129.46,-46.44 -0.69,-2.97 -74.47,-118.16 -79.49,-118.63 -43.72,85.12 -31.36,141.42 -108.43,199.71 -45.82,34.67 -136.76,86.58 -196.69,107.62z"/>
   <path fill="#F2AFA4" d="M5829.37 5474.26c-2.16,119.55 -75.77,212.81 -79.63,339.54 98.81,-0.74 180.88,-12.27 282.33,-3.47 89.65,7.79 165.32,38.51 237.06,41.2l5.36 -8.47 2.54 -7.48 10.32 -14.77c25.97,-43.8 11.68,-36.12 38.91,-112.48 3.89,-62.11 9.5,-250.64 42.87,-291 40.84,-49.35 148.99,-84.26 162.73,-165.16 18.98,-16.59 1.67,4.69 22.17,-25.58 7.21,-10.67 4.52,-6.38 11.28,-20.73 8.64,-18.32 15.22,-38.59 22.22,-61.93 52.01,-198.12 -13.32,-223.56 -44.49,-388.8 -22.47,-17.95 -106.03,-276.36 -105.91,-313.65 -59.72,121.12 9.65,196.34 4.17,305.44 -37.95,-18.55 -65.03,-52.52 -119.17,-53.55 -139.2,-2.67 -128.4,223.49 3.81,298.56l-4 48.14c-13.11,198.4 -130.11,293.61 -213.14,397.88 -44.21,10.25 -80.95,45.15 -130.45,61.91 -58.67,19.84 -99.33,-10.38 -148.98,-25.6z"/>
   <path fill="#040943" d="M6659.13 11536.86l1.32 74.96 125.69 4.96 42.1 -0.12c6.2,-118.3 1.65,-246.92 1.65,-366.36 0,-101.96 29.1,-279.16 -61.48,-305.84 -136.83,-40.29 -109.6,139.48 -109.59,241.35 0.01,116.62 -1.85,234.63 0.31,351.05z"/>
   <path fill="#F2AFA4" d="M4049.03 15873.13l0.12 47.8c115.21,-21.75 314.74,18.65 404.15,-15.27l35.92 -151.12c-30.24,-25.14 -160.94,-42.05 -208.24,-53.46l-198.73 -59.42c-15.41,79.89 -26.11,149.23 -33.22,231.47z"/>
   <path fill="#040943" d="M5846.96 16375.28c33.47,12.83 1019.04,19.73 1084.25,6.57l48.45 -42.11 -16.09 -8.66c-63.31,-22.84 57.37,10.27 -18.39,-5.75l-534.47 -16.03c-128.02,-4.1 -451.1,-28.48 -555.66,-10.94l-8.09 76.92z"/>
   <path fill="#020443" d="M3972.93 16375.8c54.41,22.68 1034.05,21.39 1090.47,0.41 32.14,-13.4 38.08,-18.31 51.04,-51.59l-1135.42 -22.26 -6.09 73.44z"/>
   <path fill="#D9C5B4" d="M6347.29 10537.67l35.87 -2.7c29.59,105.64 -10.72,266.8 14.6,380.55l149.41 4.32 34.32 1 0.27 -443.9 -234.47 60.73z"/>
   <path fill="#020443" d="M6945.74 11615.85l137.76 2.81c2.43,-104.11 0.48,-210.26 0.49,-314.61 0.01,-84.53 27.17,-232.39 -73.45,-229.53 -97.97,2.79 -65.84,166.37 -65.84,240.28 0,99.67 -2.13,201.66 1.04,301.05z"/>
   <path fill="#D9C5B4" d="M6671.63 11967.38c-117.67,15.13 -29.83,-27.94 -171.24,5.03 -39.72,9.26 -142.76,-5.98 -199.82,-6.35 -109.4,-35.4 -104.04,-197.36 -103.88,-285.75l-1.08 -129.89 -7.58 -912.75 9.38 -79.93c-390,25.5 -444.49,-64.35 -773.92,-159.72 -139.96,-40.51 -254.58,-61.88 -402.37,-71.16 -142.57,-8.94 -316.56,8.4 -445.16,-22.62 -1.97,1.42 -5.36,2.46 -6.56,3.19l-23.41 17.06c-7.43,9.11 -12.47,25.29 -14.63,37.51 -35.79,202.48 1.67,407.04 -17.06,605.78 -17.44,186.03 -56.04,366.67 -75.32,551 -2.76,433.14 53.03,612.49 -52.29,1051.65 -81.54,340.01 18.6,744.66 -37.28,1072.24 -13.73,80.54 4.45,110.38 -26,127.29 -8.85,131.53 -78.42,353.59 -119.63,478.65 -69.45,210.71 -129.72,528.27 -138.53,742.22 -9.49,230.43 -94.45,317.25 -61.34,513.85 7.63,45.4 30.96,63.74 48.34,99.38 32.11,65.78 159.38,76.28 228.72,97.02 47.3,11.4 178,28.32 208.25,53.46 205.76,11.88 333.29,100.29 412.64,-181.75 36.77,-145.7 114.07,-355.3 141.07,-484.01 36.24,-172.77 92.32,-321.89 135.04,-500.62 14.58,-61 60.24,-262.94 89.27,-307.61 36.79,-56.58 3.37,-80.75 44.87,-180.3 20.82,-49.99 12.55,-81.75 26.97,-132.33l434.49 -1898.43c43.95,218.09 53.94,1563.35 42.64,1758.33 -39.66,684.49 -59.86,969.87 -171.37,1642.29 -20.56,77.94 -9.68,57.07 17.37,115.29 20.55,44.2 12.18,59.91 46.33,93.91 53.88,53.63 116.11,68.4 205.09,79.27 0,0 12.88,19.39 12.88,19.39l361.12 19.52c0,0 106.2,5.48 149.21,-1.78 220.67,-37.24 221.31,-196.52 232.93,-374.08 22.69,-346.37 86.58,-342.54 147.31,-540.36 53.23,-173.35 84.48,-247.84 92.31,-438.58 12.11,-294.43 -42.96,-388.99 33.44,-723.59 111.18,-486.89 131.79,-394.35 105.88,-1028.05 -12.71,-310.81 -13.44,-258.87 29.88,-531.98 9.18,-57.85 9.65,-135.19 22.1,-186 0,0 -41.87,0.31 -61.08,2.24 -0.96,-44.31 9.62,-218.64 -9.9,-250.93 5.44,80.13 3.72,175.71 3.28,256.99 -0.46,85.18 16.17,132.23 18.6,228.47l-81.1 -4.29c2.82,-183.3 22.44,-76.31 23.17,-224.52 -0.48,0.46 -233.24,-17.46 -233.35,-17.65l4.64 93.14c2.35,191.11 24.85,58.97 25.34,284.51l-98.05 -1.07c1.38,-210.76 13.15,-115.08 23.51,-198.59 3.5,-28.23 0.49,-37.04 7.92,-69.19 -5.32,-146.64 21.26,-116.37 -52.04,-104.8z"/>
   <path fill="#F2AFA4" d="M5907.81 15926.23c87.79,-28.65 264.87,-3.78 372.15,-12.86l7.67 -115.88 -361.12 -19.52c-22.97,50.63 -10.02,87.82 -18.7,148.26z"/>
   <path fill="#040943" d="M7165.38 4460.43c3.78,89.44 -38.27,173.93 -23.57,264.16 31.77,-6.72 41.55,-23.03 56.1,-47.05 30.06,-49.65 16.75,-33.42 55.73,-64.48l44.85 -123.8c13.38,-54.8 46.84,-138.42 -31.52,-149.47 -75.64,-10.67 -77.49,68.49 -101.59,120.64z"/>
   <path fill="#94B4DB" d="M6718.43 11804.44l5.24 267.73c-7.43,32.16 -4.42,40.96 -7.92,69.2 -10.36,83.51 -22.13,-12.17 -23.51,198.58l98.05 1.07c-0.49,-225.54 -22.99,-93.39 -25.34,-284.51l-4.64 -93.13c-0.33,-44.34 1.82,-88.46 3.26,-132.76 5.14,-157.97 -47.1,-141.71 -45.14,-26.18z"/>
   <path fill="#94B4DB" d="M6918.96 10919.46l65.25 2.65 1.37 -155.5c54.09,-43.32 91.62,-96.44 48.17,-161.47 -25.04,-36.74 -50.08,-39.28 -50.08,-39.28l-0.92 115.05 -64.16 -2.52c-3.63,-33.86 -2.48,-80.01 -2.9,-115.11 -69.02,27.89 -85.78,100.92 -38.04,164.36 62.1,82.53 34.17,32.33 41.31,191.82z"/>
   <path fill="#94B4DB" d="M6993.66 11981.02c-0.73,148.21 -20.35,41.23 -23.17,224.53l81.1 4.28c-2.43,-96.23 -19.06,-143.28 -18.6,-228.47 0.44,-81.27 2.16,-176.86 -3.28,-256.99l-35.41 -1.51 -0.64 258.16z"/>
   <path fill="#F2AFA4" d="M6630.26 5520.85c-22.48,33.28 -45.46,87.86 -70.77,119.68 -34.25,43.06 -49.75,53.9 -78.11,102.78l-73.37 105.76 -133.52 -6.01 -5.36 8.47 171.14 1.72 153.79 -7.85 364.13 -1.2c11.56,-85.71 56.94,-217.14 78.74,-308.46 27.97,-117.16 115.79,-546.75 152.83,-620.04 52.57,-104.01 95.16,-175 63.88,-302.65 -38.98,31.06 -25.67,14.83 -55.73,64.48 -14.55,24.02 -24.33,40.33 -56.1,47.05 -14.7,-90.23 27.35,-174.71 23.57,-264.15 -41.75,-92.89 -140.87,-120.98 -242.82,-26.52 -277.02,256.62 -23.2,414.63 -35.84,534.08 -9.93,93.81 -87.39,246.48 -87.79,283.17 -20.29,20.1 -20.02,23.42 -33.91,47.2 -15.73,26.89 -17.53,28.6 -27.94,51.04l-27.3 51.11c-25.93,39.44 -57.93,82.9 -79.52,120.34z"/>
   <path fill="#040736" d="M6546.97 15973.38c-5.61,36.68 -12.02,45.79 -18.31,77.29 -10.15,50.78 -12.02,40.74 29.97,58.34 27.55,-14.86 22.56,-12.81 32.8,-52.96 7.72,-30.2 10.08,-52.43 24.4,-72.98l8.81 -67.76c-41.11,-12.73 -13.79,-10.35 -55.25,-9.74l-22.42 67.81z"/>
   <path fill="#040736" d="M4676.97 15976.22c-5,26.91 -10.42,42.78 -16.39,66.37 -9.27,36.61 -12.35,50.92 10.44,62.06 71.8,17.09 34,-73.9 75.46,-119.85l3.38 -67.47 -41.1 -12.78c-22.48,24.23 -22.71,38.17 -31.79,71.67z"/>
   <path fill="#040736" d="M6668.34 16031.29c-21.49,100.41 -47.16,106.87 19.36,124.78 13.12,-14.15 4.74,7.57 19.45,-28.77 3.09,-7.63 8.48,-33.65 10.6,-42.65 6.88,-29.14 11.67,-50.83 23.49,-72.86l0.72 -50.43 -43.02 -12.44c-20.65,24.92 -23.31,51.92 -30.6,82.37z"/>
   <path fill="#040943" d="M6429.65 15892.46c-22.99,139.49 -75.09,158.46 10.67,174.1 33.01,-47.46 16.96,-75.47 50.09,-137.71l-7.07 -59.85c-49.89,-19.37 -35.49,-20.95 -53.69,23.46z"/>
   <path fill="#040736" d="M4797.51 16032.18l-20.16 116.29 49.66 12.12 44.09 -147.14 -4.08 -50.85 -39.96 -7.91c-20.44,28.09 -19.35,39.78 -29.55,77.49z"/>
   <path fill="#040943" d="M4553.09 15931.67c-13.87,43.66 -33.9,87.27 -21.41,127.35l36.85 10.85c23.72,-31.02 28.47,-75.27 40.11,-115.41l11.47 -79.43 -40.4 -13.53c-20.05,21.89 -25.06,36.45 -26.62,70.17z"/>
   <polygon fill="#040736" points="4068.65,16280.68 4254.15,16276.9 4252.44,16217.57 4068.91,16221.7 "/>
   <polygon fill="#040943" points="5944.78,16277.1 6124.15,16275.12 6124.12,16215.18 5938.51,16218.63 "/>
   <path fill="#151433" d="M7195.2 10207.74c-12.26,25.84 -6.87,42.31 4.97,51.12 6.55,6.33 25.26,15.62 50.68,7.03 19.69,-10.4 21.29,-34.34 16.19,-49.64 -12.93,-38.75 -57.82,-28.97 -71.84,-8.51z"/>
   <rect fill="#FECC7A" x="6489.9" y="11592.22" width="759.36" height="152.87"/>
   <path fill="#C2B0A1" fill-opacity="0.450980" d="M5589.74 11530.06c40.99,-44.8 107.35,76.95 129.1,132.77 23.38,59.95 39.38,124.95 74.9,237.48 26.79,84.9 48.97,157.3 69.68,244.16 17.05,71.53 8.96,175.73 18.71,248.09 11.53,85.62 21.34,172.97 29.36,260.94 11.34,124.22 -0.73,218.18 3.53,341.94 7.41,215.04 -14.82,471.64 -16.45,692.83 -1.07,144.19 -24.88,290.81 -28.25,430.28 -6.38,264.57 -35.72,533.97 -68.25,749.34 -5.38,35.61 -25.51,165.08 -32.23,255.07 -10.46,140.02 -45.66,300.39 -66.85,391.85 -10.72,46.31 -26.13,110.63 -26.13,110.63 0,0 -21.77,-52.51 -41.73,-92.33 -5.07,-10.13 7.13,-47.83 20.1,-126.15 18.31,-110.61 43.34,-287.92 68.21,-457.99 43.4,-296.78 71.24,-615.05 61.04,-615.05 0,-215.33 47,-749.2 32.79,-1269.06 -1.59,-58.11 5.48,-306.46 -13.96,-582.91 -5.45,-77.54 1.68,-164.94 -11.93,-241.65 -8.81,-49.68 -6.03,-123.58 -17.81,-170.81 -74.77,-299.57 -207.98,-513.04 -183.83,-539.43z"/>
  </g>
 </g>
</svg>
