<?xml version="1.0" encoding="UTF-8"?>
<!DOCTYPE svg PUBLIC "-//W3C//DTD SVG 1.1//EN" "http://www.w3.org/Graphics/SVG/1.1/DTD/svg11.dtd">
<!-- Creator: CorelDRAW 2017 -->
<svg xmlns="http://www.w3.org/2000/svg" xml:space="preserve" width="52.9166mm" height="51.5936mm" version="1.1" style="shape-rendering:geometricPrecision; text-rendering:geometricPrecision; image-rendering:optimizeQuality; fill-rule:evenodd; clip-rule:evenodd"
viewBox="0 0 5291.66 5159.36"
 xmlns:xlink="http://www.w3.org/1999/xlink">
 <defs>
  <style type="text/css">
   <![CDATA[
    .str2 {stroke:black;stroke-width:35;stroke-miterlimit:22.9256}
    .str1 {stroke:#2B2A29;stroke-width:20;stroke-miterlimit:22.9256}
    .str0 {stroke:black;stroke-width:20;stroke-miterlimit:22.9256}
    .fil1 {fill:none}
    .fil2 {fill:#2B2A29}
    .fil8 {fill:#4CC0E4}
    .fil0 {fill:black}
    .fil3 {fill:#89D0FC}
    .fil7 {fill:#89D0FC}
    .fil9 {fill:#D9182A}
    .fil6 {fill:#E0E0E0}
    .fil4 {fill:#E0E0E0}
    .fil5 {fill:white}
   ]]>
  </style>
 </defs>
 <g id="Слой_x0020_1">
  <metadata id="CorelCorpID_0Corel-Layer"/>
  <g id="_915286192">
   <g>
    <path class="fil0" d="M2299.31 2730.58c-148,59.44 -321.96,575.36 -788.95,282.79 -220.67,-138.25 -399.04,-621.05 -279.68,-816.39 71.71,-117.34 161.83,-167.61 144.24,-144.94 -27.29,-7.4 -111.8,161.12 -113.12,163.64 -87.1,166.16 91.97,612.24 291.44,726.79 415.39,238.54 486.73,-220.43 712.47,-319.2 29.63,-9.28 61.18,7.23 70.46,36.86 9.28,29.63 -7.23,61.17 -36.86,70.45z"/>
   </g>
   <path class="fil1" d="M2282.51 2676.93c-193.61,60.61 -184.02,399.22 -548.32,366.19 -414.28,-37.57 -527.28,-537.46 -511.49,-787.64 1.95,-30.9 144.68,-234.18 152.22,-203.44"/>
   <path class="fil1 str0" d="M1333.67 1396.9l120.17 -22.76 262.3 1093.9c-36.13,28.81 -78.98,37.11 -122.22,28.68l-260.25 -1099.82z"/>
   <g>
    <path class="fil2" d="M3846.4 3669.58c24.6,-48.04 82.29,-40.34 91.84,41.54 25.12,215.23 14,499.96 23.63,723.99 0.07,1.63 10.6,385.67 -71.23,321.67l-5.73 -7.06 8.98 1.79c65.41,11.73 24.88,-290.37 22.51,-312.1 -14.08,-129.05 -33.05,-609.08 -59.21,-731.44 -11.71,-9.44 -16.5,-24.44 -10.79,-38.39z"/>
   </g>
   <path class="fil1" d="M3884.91 3681.65c26.87,-65.66 36.88,615.27 54.23,755.61 5.32,43.04 27.29,371.54 -54.23,312.46"/>
   <path class="fil3 str1" d="M3595.7 4683.65c15.17,-13.56 51.59,-81.56 139.13,-37.96 31.75,15.81 87.39,129.73 183.98,99.16 222.91,-70.56 699.55,63.63 640.45,207.1 -181.13,439.68 -1063.99,-98.69 -963.56,-268.3z"/>
   <g>
    <path class="fil2" d="M3196.54 3668.83c-22.37,-46.79 -74.84,-39.3 -83.52,40.47 -22.85,209.67 -12.73,487.04 -21.5,705.28 -0.06,1.59 -9.63,375.7 64.79,313.35l5.21 -6.87 -8.16 1.75c-59.49,11.42 -22.64,-282.87 -20.48,-304.04 12.8,-125.72 30.06,-593.34 53.85,-712.53 10.65,-9.21 15.01,-23.82 9.81,-37.41z"/>
   </g>
   <path class="fil1" d="M3161.52 3680.59c-24.44,-63.96 -33.54,599.37 -49.32,736.08 -4.84,41.93 -24.83,361.94 49.32,304.39"/>
   <polygon class="fil4 str0" points="2181.41,2000.68 4773.61,2000.68 4635.87,3667.1 2319.16,3667.1 "/>
   <polygon class="fil4 str0" points="2181.41,2013.69 4774.15,2005.28 4410.72,1663.16 2520.85,1667.62 "/>
   <path class="fil5 str0" d="M3485.55 2156.25c219.69,0 420.6,49.04 556.25,204.97 155.76,179.06 170.63,299.61 165.44,446.83 -14.79,419.73 -279.58,668.59 -721.69,660.17 -221.38,-4.21 -330.43,-65.31 -459.86,-156.55 -165.98,-116.98 -276.66,-315.78 -276.66,-511.97 0,-164.02 82.59,-327.19 208.82,-438.29 166.41,-146.49 326.1,-205.16 527.7,-205.16z"/>
   <path class="fil6 str0" d="M3510.49 2743.69c99.8,24.24 68.46,157.95 -34.78,132.88 -57.44,-13.95 -57.84,-97.37 -14.92,-123.13 11.54,-6.94 32.42,-13.95 49.7,-9.75zm498.83 195.36l-6.71 25.63c-14.41,47.28 -39.29,89.75 -75.87,118.88 -90.17,71.82 -263.95,-3.93 -337.98,-60.89 -51.47,-39.61 -70.9,-93.16 -83.18,-143.14 -12.84,1.15 -28.48,-2.81 -29.87,-2.96 -9.87,27.89 -35.92,96.46 -43.52,125.52 -30.94,118.21 108.58,157.91 17.41,253.94 -10.71,11.27 -25.73,23 -37.98,29.05 -101.33,50.08 -252.05,-36.02 -316.31,-101.96 -49.67,-50.96 -73.4,-102.76 -54.07,-176.54 20.55,-78.53 164.68,-183.88 239.75,-211.02 34.23,-12.37 111.64,-0.14 151.3,0.41 0,0 4.7,-21.61 12.65,-28.14 -24.46,-19.9 -28.74,-32.44 -43.92,-59.88 -61.33,-110.82 -183.66,-54.46 -233.67,-96.03 -24.85,-20.67 -39.24,-80.14 -28.6,-120.79 8.15,-31.14 38.16,-68.58 60.64,-90.33 12.85,-12.45 21.83,-20.01 36.83,-30.94 13.97,-10.19 24.36,-20.26 39,-27.35 14.86,-7.2 28.12,-12.21 43.96,-19.2 95.28,-41.99 212.7,-49.56 272.79,43.47 13.97,21.61 27.89,62.02 31.94,89.56 10.82,73.6 6.78,247.25 -68.27,313.51 6.38,8.15 11.39,15.95 14.09,28.5 58.73,0.8 141.59,-24.22 178.2,-72.36 64.11,-84.31 62.49,-108.36 157.9,-85.19 89.81,21.81 131.45,171.29 103.49,298.25z"/>
   <path class="fil3 str1" d="M3424.55 4656.69c-13.8,-13.21 -46.92,-79.44 -126.54,-36.97 -28.87,15.4 -79.48,126.37 -167.32,96.59 -202.73,-68.73 -636.23,61.99 -582.48,201.75 164.73,428.32 967.68,-96.14 876.34,-261.37z"/>
   <g>
    <g>
     <path class="fil0" d="M4463.68 3449.75l2.81 0.24 -0.05 -0.41 -2.76 0.17zm-9.84 0.62c-238.22,14.12 -403.38,-22.16 -412.02,-324.54 346.48,445.74 356.4,66.09 496.82,220.37 22.28,31.39 14.88,74.89 -16.51,97.16 -20.69,14.68 -46.62,16.47 -68.29,7.01z"/>
    </g>
    <path class="fil1" d="M4481.81 3386.53c-27.79,-39.01 -312.62,164.65 -439.99,-260.7"/>
    <g>
     <path class="fil0" d="M4438.79 3411.41c-187.69,-313.51 -294.59,-464.66 -274.67,-848.2 178.2,396.91 69.14,327.77 379.91,756.82 25.24,29.06 22.13,73.08 -6.93,98.31 -29.06,25.24 -73.07,22.13 -98.31,-6.93z"/>
    </g>
    <path class="fil1" d="M4491.41 3365.72c-295.43,-340.28 -308.45,-765.41 -327.29,-802.51"/>
    <g>
     <path class="fil0" d="M4476.42 3341.61c148.57,-357.07 3.95,-554.34 58.32,-979.54 71.88,413.07 198.42,647.95 64.51,1045.41 -18.19,33.92 -60.43,46.67 -94.35,28.48 -33.92,-18.18 -46.67,-60.43 -28.48,-94.35z"/>
    </g>
    <path class="fil1" d="M4537.83 3374.55c168.36,-314.04 -50.66,-795.18 -3.09,-1012.48"/>
    <g>
     <path class="fil0" d="M4623.95 3315.85c92.79,15.32 197.93,-419.68 206.1,-439.32l118.52 -229.89c-37.83,209.92 -59.54,814.2 -342.38,807.45 -38.18,-4.91 -65.14,-39.82 -60.24,-78 4.91,-38.18 39.82,-65.15 78,-60.24z"/>
    </g>
    <path class="fil1" d="M4615.07 3384.97c193.46,24.78 198.79,-451.96 333.5,-738.33"/>
   </g>
   <g>
    <path class="fil0" d="M4720.12 2654.64c333.75,41.63 606.66,279.33 437.1,595.4 -91.58,170.67 -557.28,332.06 -685.94,0.73 -5.84,336.95 649.48,313.63 781.83,-22.56 149.55,-379.92 -159.46,-626.85 -525.03,-683.7 -30.66,-2.4 -57.28,20.3 -59.48,50.72 -2.2,30.41 20.87,57 51.52,59.41z"/>
   </g>
   <path class="fil1" d="M4724.1 2599.57c619.94,48.57 611.7,653.68 347.37,787.5 -258.19,130.71 -579.31,100.1 -600.19,-136.3"/>
   <g>
    <path class="fil0" d="M1283 2030.45c16.45,-23.65 324.99,-414.43 340.87,-190.81 13.3,187.33 -81.47,110.96 -124.65,174.49 -10.17,-24.57 -1.47,-39.87 22.26,-50.3 96.58,-42.43 43.6,-130.29 42.18,-130.58 0.33,1.14 0.67,0.73 1.12,1.64 -93.38,43.54 -146.61,145.38 -197.47,229.88 -9.47,23.28 -36.03,34.47 -59.31,25 -23.28,-9.48 -34.47,-36.04 -25,-59.32z"/>
   </g>
   <path class="fil1" d="M1325.16 2047.61c36.93,-90.76 319.19,-418.71 266.64,-119.74 -12.47,70.94 -92.58,19.34 -92.58,86.26"/>
   <g>
    <path class="fil0" d="M1293.66 2029.53c527.97,-240.49 493.44,39.89 245.73,4.69 37.07,-20.04 94.86,-27.71 114.54,-50.13 -88.1,3.54 -252.81,89.77 -310.68,121.77 -21.07,13.69 -49.26,7.71 -62.96,-13.37 -13.69,-21.08 -7.71,-49.26 13.37,-62.96z"/>
   </g>
   <path class="fil1" d="M1318.46 2067.69c52.31,-33.99 305.64,-137.43 367.64,-105.39 3.23,72.12 -124,59.95 -146.71,71.92"/>
   <g>
    <path class="fil0" d="M1335.29 2058.81c0.01,0 515.5,-93.26 436.17,2.02 -18.33,22 -27.94,18.95 -58.01,26.95 19.29,-25.49 18.37,-23.51 23.24,-30.82 -79.16,2.94 -295.8,66.64 -368.11,86.58 -23.4,9.19 -49.82,-2.33 -59.01,-25.73 -9.19,-23.39 2.32,-49.81 25.72,-59zm407.64 -11.31l1.1 -1.66 -0.19 -0.1c-0.46,0.53 -0.74,1.12 -0.91,1.76z"/>
   </g>
   <path class="fil1" d="M1351.93 2101.17c0.71,-0.28 569.78,-135.33 361.52,-13.39"/>
   <path class="fil5 str0" d="M-0 426.29c526.79,-180.02 1408.63,-495.7 2229.91,-412.63l86.07 1609.31c-809.44,-115.02 -1355.12,77.65 -1744.66,318.54 -105.65,-584.65 -455.41,-787.1 -571.32,-1515.22z"/>
   <path class="fil5 str2" d="M772.01 535.5l-22.37 4.34 109.69 564.73c12.28,63.24 52.32,118.04 86.84,148.53 37.49,33.12 56.75,42.4 97.54,64.25 42.96,23.01 138.18,58.5 186.37,76.62l151.78 55.88 27.82 -27.39c53.15,-48.86 163.13,-145.01 205.7,-191.59 9.1,-9.96 17.69,-18.17 26.36,-28.37 28.61,-33.67 45.47,-54.08 66.8,-95.83 21.45,-41.98 38.15,-108.61 25.83,-172.06l-109.69 -564.72c-147.45,28.64 -237.11,29.79 -373.06,-26.75 -15.51,-6.46 -85.15,-38.98 -94.01,-47.9 -11.69,11.61 -22.15,26.02 -33.13,38.38 -11.5,12.96 -23.53,26.64 -35.98,38.89 -12.83,12.6 -25.03,24.9 -39.32,36.63 -88.68,72.84 -157,103.02 -277.17,126.36z"/>
   <path class="fil7" d="M1227.44 1382.59l150.81 54.17 68.19 -62.96c45.96,-42.25 141.06,-125.39 177.88,-165.68 7.87,-8.61 15.3,-15.71 22.79,-24.53 24.74,-29.12 39.32,-46.77 57.77,-82.87 18.55,-36.3 32.99,-93.92 22.34,-148.79l-94.85 -488.36c-33.93,784.96 -426.31,804.56 -571.01,810.62 -1.12,0.05 -71.56,-0.76 -71.56,-0.76 33.87,28.67 157.48,79.02 237.64,109.16z"/>
   <path class="fil8" d="M1219.18 922.25l-119.93 -79.66 -59.35 89.87 207.22 141.02 246.93 -364.18c-7.19,-7.07 -78.71,-57.77 -90.43,-58.58l-184.44 271.53z"/>
   <g>
    <path class="fil9" d="M337.96 454.04c892.1,241.88 1104.2,213.63 1819.4,841.94 -977.74,-594.32 -724.17,-461.97 -1852.59,-731.77 -30.42,-9.17 -47.65,-41.26 -38.48,-71.68 9.17,-30.42 41.26,-47.65 71.67,-38.49z"/>
   </g>
   <path class="fil1" d="M321.37 509.13c665.82,200.59 853.48,107.55 1477.5,532.67 61.24,41.72 316.83,214.54 358.49,254.18"/>
   <g>
    <path class="fil9" d="M1906 237.95c-567.61,344.73 -871.34,640.16 -1225.11,1200.32 -2.03,3.22 -7.82,10.58 -12.28,10.72l-0.35 -0.71c0.08,-1.22 -0.43,-0.45 -0.11,-2.38 75.93,-458.38 805.43,-1062.07 1182.16,-1308.63 27.81,-15.38 62.81,-5.31 78.19,22.5 15.38,27.8 5.31,62.8 -22.5,78.18z"/>
   </g>
   <path class="fil1" d="M1878.16 187.61c-316.7,175.18 -421,328.89 -688.83,535.22 -163.58,126.01 -445.89,511.7 -513.34,713.84 -0.23,0.7 -7.09,12.83 -7.73,11.61"/>
  </g>
 </g>
</svg>
