<?xml version="1.0" encoding="UTF-8"?>
<!DOCTYPE svg PUBLIC "-//W3C//DTD SVG 1.1//EN" "http://www.w3.org/Graphics/SVG/1.1/DTD/svg11.dtd">
<!-- Creator: CorelDRAW 2017 -->
<svg xmlns="http://www.w3.org/2000/svg" xml:space="preserve" width="55mm" height="45mm" version="1.1" style="shape-rendering:geometricPrecision; text-rendering:geometricPrecision; image-rendering:optimizeQuality; fill-rule:evenodd; clip-rule:evenodd"
viewBox="0 0 5500 4500"
 xmlns:xlink="http://www.w3.org/1999/xlink">
 <defs>
  <style type="text/css">
   <![CDATA[
    .str0 {stroke:black;stroke-width:35;stroke-miterlimit:22.9256}
    .fil1 {fill:none}
    .fil0 {fill:#71E2FF}
    .fil2 {fill:white}
   ]]>
  </style>
 </defs>
 <g id="Слой_x0020_1">
  <metadata id="CorelCorpID_0Corel-Layer"/>
  <path class="fil0 str0" d="M3433.49 3112.87c179.25,-4 333.36,4.81 512.61,0.81 72.92,-1.12 155.66,-2.96 206.51,26.41 67.27,51.96 132.07,104.57 199.34,156.53l-862.16 7.09c-36.54,-36.04 -73.09,-72.07 -109.63,-108.11 -26.61,-26.04 -39.36,-82.76 53.33,-82.73z"/>
  <path class="fil1 str0" d="M3655.59 3112.93c59.97,0 150.83,0.63 210.8,0.63 -154.38,-102.04 -259.24,-269.74 -309.73,-344.12 -75.2,-110.78 -179.98,-332.17 -209.87,-632.42 -21.86,-219.55 -34.84,-476.45 -98.09,-656.11 -76.39,-216.97 -258.94,-298.89 -425.75,-295.14 -270.38,6.09 -439.68,242.68 -344.77,577.54 54.38,191.87 209.77,371.9 313.6,554.62 80.28,141.26 156.57,384.89 118.41,478.1 -82.15,200.7 -277.35,166 -379.21,109.75 -247.4,-136.61 -312.41,-448.77 -625.85,-734.5 -349.61,-318.7 -1214.77,-494.02 -339.55,-3.35 450.98,252.83 497.66,591.04 741.67,796.7 221.59,186.77 420.81,163.35 507.76,144.81 94.7,-24.43 227.49,-150.82 241.69,-322.64 13.08,-158.32 -72.62,-393.37 -170.23,-593.92 -98.31,-202.01 -226.03,-369.96 -248.57,-485.4 -41.18,-210.97 30.22,-340.68 191.85,-349.81 120.92,-6.83 209.19,68.95 267.27,229.52 83.8,231.66 95.3,524.53 138.19,755.56 24.16,130.14 95.04,357.56 210.62,518.47 64.77,90.17 133.25,181.26 209.76,251.71z"/>
  <path class="fil2" d="M1485.57 1828.77c614.59,14.8 902.98,565.15 668.38,496.19 -368.18,-108.22 -415.81,-274.08 -810.59,-300.73 -450.62,-30.43 -305.77,-403.45 -267.39,-502.2 38.38,-98.75 -204.99,291.94 409.6,306.74z"/>
 </g>
</svg>
