<?xml version="1.0" encoding="UTF-8"?>
<!DOCTYPE svg PUBLIC "-//W3C//DTD SVG 1.1//EN" "http://www.w3.org/Graphics/SVG/1.1/DTD/svg11.dtd">
<!-- Creator: CorelDRAW 2017 -->
<svg xmlns="http://www.w3.org/2000/svg" xml:space="preserve" width="92.604mm" height="87.3124mm" version="1.1" shape-rendering="geometricPrecision" text-rendering="geometricPrecision" image-rendering="optimizeQuality" fill-rule="evenodd" clip-rule="evenodd"
viewBox="0 0 9260.4 8731.24"
 xmlns:xlink="http://www.w3.org/1999/xlink">
 <g id="Слой_x0020_1">
  <metadata id="CorelCorpID_0Corel-Layer"/>
  <g id="_344962593728">
   <path fill="#DEDEDE" d="M4446.38 93.14c2506.41,0 4814.04,1457.4 4814.04,3963.83 0,2506.41 -2169.76,4262.54 -4676.17,4262.54 -2506.42,0 -4584.25,-1457.42 -4584.25,-3963.83 0,-2506.42 1939.95,-4262.54 4446.38,-4262.54z"/>
   <path fill="#71E2FF" fill-opacity="0.549020" d="M1770.49 3957.23c751.43,66.01 333.75,-155.1 831.78,-155.1 295.73,0 1172.24,-29.35 1069.71,239.49 -252.77,662.72 -853.06,269.42 -1314.94,904.39 -318.45,437.79 -6.32,551.27 -67.21,973.3 -60.18,416.99 -348.02,1317.2 -625.57,1317.2 -108.02,0 168.81,-832.11 -12.18,-1136.03 -470.56,-790.1 -63.03,-1150 -252.64,-1479.04 -237.39,-411.96 -428.51,-120.64 -585.4,-607.69 -86.78,-269.37 219.93,-594.33 321.73,-637.06 18.95,-7.95 130.71,264.21 331.26,439.14 85.22,74.34 186.48,131.13 303.46,141.4z"/>
   <path fill="#C9C7C7" fill-opacity="0.258824" d="M1037.91 2178.78c1444.15,0 3200.67,17.95 4644.83,17.95 82.44,521.08 152.57,1387.09 -29.98,2005.93l-4601.87 23.54c0,0 -362,-1218.13 -12.98,-2047.42z"/>
   <path fill="#C4C4C4" fill-opacity="0.258824" d="M1109.72 2309.01c1444.15,0 3024.74,14.36 4468.9,14.36 97.65,317.96 181.13,1262.22 8.11,1788.77l-4449.66 -3.46c0,0 -318.92,-1006.28 -27.35,-1799.67z"/>
   <g>
    <path fill="#F0EDED" d="M1203.78 2435.15c1434.03,0 2868.07,0 4302.1,0 33.94,393.74 131.72,843.48 0,1572.56 -1434.03,0 -2819.36,0 -4253.4,0 -141.47,-597.37 -185.29,-975.19 -48.7,-1572.56z"/>
    <path fill="#E3E0E0" d="M1203.78 2435.15c1434.03,0 2868.07,0 4302.1,0 22.09,262.26 61.26,446.46 66.28,786.77l-4448.18 2.01c0,0 -42.16,-225.56 79.8,-788.78z"/>
    <polygon fill="white" points="1605.97,3651.36 5171.78,3651.36 5207.72,3466.96 1531.1,3472.66 "/>
    <polygon fill="white" points="1605.97,3651.36 5171.78,3651.36 5207.72,3466.96 1531.1,3472.66 "/>
    <polygon fill="white" points="1605.97,3651.36 5171.78,3651.36 5207.72,3466.96 1531.1,3472.66 "/>
    <polygon fill="gray" points="1605.97,3651.36 5108.85,3651.36 5159.72,3467.02 5220.62,3467.1 5161.65,3702.68 1632.41,3705.87 "/>
   </g>
   <path fill="#71E2FF" fill-opacity="0.549020" d="M2432.05 7780.59c-56.32,776.23 -554.2,976 -594.02,795.85 -127.85,-578.47 -310.8,-420.84 -246.37,-907.81 12.99,-98.2 203.31,303.08 392.74,188.01 250.01,-151.86 496.46,-748.67 447.65,-76.05z"/>
   <path fill="#71E2FF" fill-opacity="0.549020" d="M2569.67 6056.94c78.39,-586.5 412.91,-916.27 475.71,-913.19 27.24,1.34 -61.55,488.65 35.8,766.06 79.03,225.21 224.9,313.85 217.19,562.42 -3.08,99.01 -37.11,263.06 -233.14,366.5 -258.71,136.49 -584.91,-113.34 -495.56,-781.79z"/>
  </g>
 </g>
</svg>
