<?xml version="1.0" encoding="UTF-8"?>
<!DOCTYPE svg PUBLIC "-//W3C//DTD SVG 1.1//EN" "http://www.w3.org/Graphics/SVG/1.1/DTD/svg11.dtd">
<!-- Creator: CorelDRAW 2017 -->
<svg xmlns="http://www.w3.org/2000/svg" xml:space="preserve" width="55mm" height="45mm" version="1.1" style="shape-rendering:geometricPrecision; text-rendering:geometricPrecision; image-rendering:optimizeQuality; fill-rule:evenodd; clip-rule:evenodd"
viewBox="0 0 5500 4500"
 xmlns:xlink="http://www.w3.org/1999/xlink">
 <defs>
  <style type="text/css">
   <![CDATA[
    .str0 {stroke:black;stroke-width:35;stroke-miterlimit:22.9256}
    .fil1 {fill:#71E2FF}
    .fil0 {fill:white}
   ]]>
  </style>
 </defs>
 <g id="Слой_x0020_1">
  <metadata id="CorelCorpID_0Corel-Layer"/>
  <path class="fil0 str0" d="M751.1 2058.94c620.76,52.1 1310.38,242.42 1887.42,248.84 396.89,4.42 1005.68,-294.78 775.44,-452.49 -57.36,-39.27 -137.44,-103.97 -278.34,-152.63 0,0 116.45,750.72 1245.88,836.29 479.51,36.33 526.32,466.26 90.98,565.63 -698.42,181.56 -1699.01,68.92 -2528.63,67.59 -397.59,-371.07 -795.17,-742.15 -1192.75,-1113.23z"/>
  <path class="fil0 str0" d="M2523.87 1743.38c0,-55.79 40.92,-98.57 97.31,-100.56 81.64,-2.88 136.32,95.36 75.78,166.04 -53.44,62.4 -173.09,27.88 -173.09,-65.48zm91.87 -449.75l14.93 0c16.53,1.99 32.48,10.61 43.92,25.87 12.47,16.62 12.12,31.9 12.08,59.67 -0.06,47.82 0,95.65 0,143.48 19.78,1.64 59.08,24.98 72.21,35.4 53.54,42.54 56.04,73.58 78.74,130.96 10.24,25.89 17.97,50.73 27.33,77.52l217.36 624.22c18.59,53.19 34.68,105.19 53.72,155.97 4.99,13.33 8.46,25.18 13.15,39.28 4.94,14.85 9,24.41 13.83,38.59l25.84 79.01 -129.28 -146.63c-4.77,-5.93 -7.94,-8.01 -13.03,-14.57l-268.15 -308.53c-5.89,-6.31 -6.47,-8.81 -12.4,-15.19l-128.16 -147.77c-38.77,-45.84 -107.66,-122.05 -139.96,-163.56 -49.55,-63.68 -89.89,-88.91 -89.89,-183.28 0,-85.78 67.29,-181.75 151.76,-201.42 0,-47.83 0.06,-95.66 0,-143.48 -0.04,-27.77 -0.39,-43.05 12.08,-59.67 11.44,-15.27 27.39,-23.88 43.92,-25.87z"/>
  <path class="fil1 str0" d="M2040.66 2719.51c2.07,-1.46 527.01,-607.03 527.01,-607.03 0,0 -220.73,-284.2 -220.73,-284.2 0,0 -257.1,749.63 -306.28,891.23z"/>
  <path class="fil1 str0" d="M3135.62 1702.66c303.81,112.65 508.67,394.58 727,463.47 369.32,123.26 554.87,237.19 759.15,431.26 -163.22,-103.03 -571.8,-28.16 -664.38,14.96 0,0 -314.46,-162.02 -486.52,-309.58 -287.42,-294.91 -268.99,-380.22 -335.25,-600.11z"/>
 </g>
</svg>
