<?xml version="1.0" encoding="UTF-8"?>
<!DOCTYPE svg PUBLIC "-//W3C//DTD SVG 1.1//EN" "http://www.w3.org/Graphics/SVG/1.1/DTD/svg11.dtd">
<!-- Creator: CorelDRAW 2017 -->
<svg xmlns="http://www.w3.org/2000/svg" xml:space="preserve" width="15.8748mm" height="19.8436mm" version="1.1" style="shape-rendering:geometricPrecision; text-rendering:geometricPrecision; image-rendering:optimizeQuality; fill-rule:evenodd; clip-rule:evenodd"
viewBox="0 0 1587.48 1984.36"
 xmlns:xlink="http://www.w3.org/1999/xlink">
 <defs>
  <style type="text/css">
   <![CDATA[
    .str0 {stroke:black;stroke-width:35;stroke-miterlimit:22.9256}
    .fil2 {fill:none}
    .fil0 {fill:#71E2FF}
    .fil1 {fill:black}
   ]]>
  </style>
 </defs>
 <g id="Слой_x0020_1">
  <metadata id="CorelCorpID_0Corel-Layer"/>
  <g id="_432944227680">
   <path class="fil0" d="M226.77 205.58c261.66,54.89 289.29,-44.28 445.64,-131.81 -27.88,54.95 -51.98,157.2 -96.34,195.73 -56.2,36.28 -265.35,23.94 -313.9,-13.25 -37.65,-38.89 -13.47,1.39 -35.4,-50.67z"/>
   <path class="fil0" d="M908.36 214.1c261.66,54.9 263.57,-44.28 419.92,-131.8 -27.88,54.95 -32.37,146.78 -76.73,185.31 -56.21,36.28 -259.23,34.36 -307.79,-2.84 -37.65,-38.88 -13.46,1.39 -35.4,-50.67z"/>
   <path class="fil1" d="M282.34 674.01c9.91,9.88 10.97,12.11 23.88,21.07 132.65,92.04 255.58,3.56 367.22,-15.01 35.76,-5.95 130.08,-4.01 164.96,4 104.75,24.05 182.91,80.68 301.16,34.74 83.68,-32.5 147.1,-114.67 123.58,-234.54 -0.77,0.68 -1.68,1.69 -2.14,2.23 -0.46,0.54 -1.52,1.6 -2.06,2.27l-7.91 11.91c-118.11,196.82 -317.25,-76.71 -449.75,-15.12 -25.73,11.97 -43.1,31.27 -56.5,37.57 -11.58,-6.87 -16.31,-13.44 -27.7,-21.56 -8.86,-6.31 -18.08,-13.49 -29.54,-19.13 -92.39,-45.47 -242.03,114.09 -362.37,88.77 -54.96,-11.56 -68.82,-49.67 -98.1,-89.18l-4.37 66.04c-25.22,-11.65 -109.24,-124.89 -124.09,-169.67 -4.41,99.68 -14.35,176.1 -35.14,268.95 -40.36,180.32 -85.4,307.51 5.31,502.58 16.83,36.18 36.02,62.28 55.28,94.63 39.91,67 22.6,41.77 49.8,99.29 8.53,-75.03 51.23,-146.68 51.38,-167.15 6.94,90.39 -91.76,334.18 74.81,491.51 19.88,18.77 87.06,71.79 119.46,84.78 -15.13,-34.14 -26.51,-52.73 -36.74,-96.29 -7.44,-31.67 -17.7,-75.64 -20.38,-108.85 13.97,20.22 22.67,52.25 34.3,76.08 50.92,104.38 155.64,212.92 247.84,280.82 37.03,27.28 85.04,54.86 136.72,70.52 -26.38,-52.9 -48.01,-80.11 -61.24,-153.27 -19.17,-106.08 1.95,-163.69 -0.34,-194.8 16.69,99.05 32.39,322.12 174.3,345.22 -49.67,-92.18 -92.58,-159.09 -96.99,-285.83 0.53,0.95 1.09,2.2 1.39,2.93l2.51 5.9c0.53,1.45 2.2,7.27 2.67,9.09 10,38.02 17.98,67.88 39.03,103.38 18.33,30.91 49.72,64.35 90.56,72.81 -13.92,-35.63 -55.85,-98.55 -55.41,-141.84 7.76,28.47 56.84,100.17 73.19,109.53 40.11,-24.56 88.5,-37.64 128.52,-61.52 71.87,-42.88 132.08,-140.46 162.1,-216.56l35.25 -107.22c3.98,-15.3 4.75,-24.02 12.52,-35.39 0.44,54.5 -10.76,92.73 -20.75,141.25 12.15,-5.36 49.95,-36.89 65.79,-48.13 27.74,-19.67 39.57,-26.78 57.55,-54.93 57.65,-90.23 78.14,-268.02 68.06,-380.07 -6.16,-68.44 -31.64,-177.76 -32.13,-186.89 24.76,33.76 49.11,91.76 60.2,140.69 12.07,-24.33 18.08,-51.53 32.15,-78.75 12.28,-23.75 26.06,-47.84 28.58,-79.57 7.41,-93.7 -72.76,-239.86 -106.41,-329.05 -22.26,-59.02 -41.07,-166.7 -45.15,-173.14 -15.91,54.68 -69.13,123.04 -105.07,162.37 -39.15,42.84 -6.65,49.79 -46.9,110.58 -102.48,154.82 -278.14,77.69 -303.93,81.55 -72.7,10.86 -119.1,18.85 -196.53,17.22 -49.92,-1.04 -183.55,-22.08 -186.52,-21.66 -26.14,3.66 -54.44,17.02 -88.15,20.41 -85.36,8.59 -187.21,-37.59 -213.39,-100.12l25.63 24.55z"/>
   <path class="fil2 str0" d="M148.5 28.37c394.38,0 821.37,5.8 1215.74,5.8 -85.05,132.49 -57.89,227.32 -137.78,251.69 -80.03,8.3 -154.91,8.67 -225.23,4.95 -105.65,-17.75 -133.13,-158.4 -162.43,-258.97 0,0 -144.24,-1 -144.24,-1 -43.69,140.72 -78.84,240.11 -158.41,255.58 -59.2,9.15 -171.42,6.7 -232.37,-3.12 -91.14,-21.91 -79.71,-143.34 -155.28,-254.93z"/>
  </g>
 </g>
</svg>
