<?xml version="1.0" encoding="UTF-8"?>
<!DOCTYPE svg PUBLIC "-//W3C//DTD SVG 1.1//EN" "http://www.w3.org/Graphics/SVG/1.1/DTD/svg11.dtd">
<!-- Creator: CorelDRAW 2017 -->
<svg xmlns="http://www.w3.org/2000/svg" xml:space="preserve" width="79.3748mm" height="105.833mm" version="1.1" shape-rendering="geometricPrecision" text-rendering="geometricPrecision" image-rendering="optimizeQuality" fill-rule="evenodd" clip-rule="evenodd"
viewBox="0 0 7937.48 10583.32"
 xmlns:xlink="http://www.w3.org/1999/xlink">
 <g id="Слой_x0020_1">
  <metadata id="CorelCorpID_0Corel-Layer"/>
  <g id="_345142283280">
   <path fill="#71E2FF" fill-opacity="0.549020" d="M4108.37 264.4c1990.66,-194.02 3969.75,918.06 3821.24,3009.64 -225.97,3182.41 -2684.12,2218.39 -2965.47,4297.36 -297.35,2197.4 -1993.62,2708.56 -2483.8,2756.33 -1295.91,126.31 -2343.19,-682.3 -2464.64,-1978.68 -217.93,-2326.34 1918.45,-1214.39 1162.67,-4160.42 -511.8,-1994.95 939.33,-3730.2 2930,-3924.23z"/>
   <path fill="#71D4ED" fill-opacity="0.211765" d="M2248.03 1992.36c1401.7,0 3106.58,17.43 4508.28,17.43 80.02,505.76 148.09,1346.31 -29.09,1946.96l-4466.59 22.84c0,0 -351.36,-1182.32 -12.6,-1987.23z"/>
   <path fill="#6DCBE3" fill-opacity="0.211765" d="M2317.73 2118.76c1401.7,0 2935.82,13.94 4337.52,13.94 94.78,308.62 175.81,1225.12 7.87,1736.19l-4318.85 -3.36c0,0 -309.54,-976.7 -26.54,-1746.77z"/>
   <path fill="white" fill-opacity="0.450980" d="M1918.09 3498.39l300.18 67.79 300.17 67.78 91.39 293.85 91.38 293.87 -208.79 226.05 -208.79 226.07 -300.18 -67.79 -300.17 -67.77 -91.38 -293.87 -91.39 -293.85 208.79 -226.06 208.79 -226.07zm103.98 334.33c139.94,-43.52 288.65,34.63 332.17,174.57 43.52,139.94 -34.64,288.66 -174.58,332.18 -139.95,43.53 -288.65,-34.64 -332.18,-174.58 -43.52,-139.94 34.64,-288.65 174.59,-332.17z"/>
   <path fill="white" fill-opacity="0.360784" d="M3446.61 1802.39c-140.96,-4.51 -238.51,-40.69 -338.81,-120.14 -20.51,-16.25 -39.81,-35.24 -57.67,-54.12l-26.76 -28.98c-4.9,-5.86 -9.14,-12.27 -13.7,-18.34 -47.08,-62.55 -78.86,-123.65 -95.66,-201.1 -19.6,-90.4 -17.66,-187.29 8.01,-277.16 25.88,-90.64 69.26,-152.32 128.88,-221.4 38.79,-44.96 109.28,-94.68 163.03,-119.12 15.38,-6.99 26.91,-12.02 43.03,-18.55 48.07,-19.47 114,-35.55 168.61,-33.8 20.22,0.65 39.55,19.15 37.01,39.23 -2.56,20.38 -73.23,127.65 -87.71,150.02 -21.1,32.65 -41.3,62.94 -62.37,95.23 -5.56,8.51 -63.02,94.43 -63.02,94.55 -0.25,7.59 8.41,21.38 13.42,31.03l108.27 210.08 275.81 8.84c4.48,-6.19 7.35,-11.73 11.76,-18.47 61.48,-93.7 125.73,-202.75 187.31,-298.75 15.01,-23.43 30.51,-63.77 70.01,-48.86 21.49,8.11 41.82,55.63 50.77,77.18 58.65,141.48 49.03,318.74 -19.55,453.83 -3.69,7.26 -7.28,14.05 -11.65,20.79 -47.66,73.46 -60.66,88.85 -122.91,146.07l-37.08 29.25c-35.73,25.32 -46.09,30.54 -83.71,50.62 -58.76,31.37 -160.61,54.79 -245.32,52.07z"/>
   <path fill="white" fill-opacity="0.360784" d="M2247.8 2470.98c42.98,1.38 78.66,-31.68 80.17,-78.65 1.15,-36.03 -32.75,-73.71 -68.78,-74.87l-17.25 -0.55c-29.89,-0.96 -67.96,34.43 -68.91,64.04 -0.68,21.36 -2.53,27.08 6.36,45.87 10.39,21.97 36.14,43.12 68.41,44.16zm-84.65 285.78c-92.78,-2.97 -117.24,-58.85 -173.75,-114.05 -33.12,-32.37 -79.24,-73.06 -97.99,-114 -22.56,-49.28 -14.36,-119.3 20.71,-160.71 24,-28.31 375.47,-351.36 411.15,-384.53 9.68,-8.99 459.17,-429.56 471.84,-437.4l26.09 60.68c35.36,76.48 82.29,129.85 140.16,186.69 23.01,22.59 59.09,49.82 87.47,67.84l56.55 32.37c8.28,3.98 23.27,11.58 31.89,13.87 -3.23,10.62 -105.83,101.44 -116.26,111.13l-709.2 659c-43.77,40.67 -79.02,81.35 -148.66,79.11z"/>
   <path fill="white" fill-opacity="0.380392" d="M1355.04 6976.12l-55.19 0 0 1393.31c0,156.04 69.91,304.84 137.88,393.24 73.85,96.07 115.36,127.03 202.25,197.81 91.52,74.54 301.5,202.89 407.72,268.24l335.07 202.93 78.78 -52.27c148.94,-91.62 454.8,-269.43 577.54,-360.54 26.25,-19.48 50.44,-35.02 75.78,-55.26 83.56,-66.85 133.06,-107.59 203.06,-197 70.39,-89.91 140.86,-240.61 140.86,-397.15l0 -1393.31c-363.8,0 -577.5,-38.65 -874.63,-235.88 -33.89,-22.5 -184.46,-131.98 -201.39,-157.27 -33.16,22.2 -64.68,51.61 -96.49,75.94 -33.35,25.51 -68.25,52.48 -103.52,75.83 -36.3,24.04 -71,47.65 -110.37,68.95 -244.5,132.23 -420.87,172.43 -717.35,172.43zm884.57 1126l-248.35 -244.76 -182.62 186.26 427.57 430.98 755.25 -751.83c-13.84,-20.14 -160.45,-173.7 -187.95,-181.04l-563.9 560.39z"/>
   <path fill="white" fill-opacity="0.529412" d="M6348.41 4371.07l146.82 105.96 146.81 105.94 -18.35 180.13 -18.35 180.13 -165.16 74.16 -165.16 74.17 -146.82 -105.94 -146.81 -105.95 18.34 -180.13 18.34 -180.12 165.17 -74.17 165.17 -74.18zm-20.88 204.93c85.78,8.75 148.24,85.36 139.49,171.14 -8.73,85.78 -85.35,148.24 -171.13,139.49 -85.78,-8.73 -148.23,-85.35 -139.49,-171.13 8.74,-85.78 85.35,-148.23 171.13,-139.5z"/>
   <path fill="white" fill-opacity="0.360784" d="M5185.59 5781.29c-57.46,126.16 -127.2,200.96 -237.23,261.86 -22.51,12.45 -47.04,22.77 -70.92,31.82l-36.42 13.31c-7.17,2.22 -14.59,3.64 -21.82,5.49 -74.56,19.02 -142.01,24.73 -218.63,10.65 -89.42,-16.44 -176.58,-54.88 -248.38,-112.18 -72.42,-57.78 -111.95,-120.48 -152.04,-200.71 -26.11,-52.21 -44.52,-134.97 -46.35,-192.98 -0.52,-16.59 -0.71,-28.95 -0.54,-46.05 0.54,-50.98 10.91,-116.87 33.17,-165.74 8.24,-18.09 32.34,-28.63 49.6,-18.72 17.5,10.04 88.06,114.74 102.87,136.34 21.64,31.5 41.47,61.3 62.78,92.62 5.61,8.27 61.8,92.91 61.91,92.97 6.79,3.09 22.58,0.46 33.23,-0.44l231.54 -18.69 112.42 -246.84c-3.92,-6.41 -7.85,-11.1 -12.3,-17.66 -61.73,-91.23 -136.32,-190.79 -200.09,-282.98 -15.58,-22.49 -46.3,-51.82 -17.82,-82.01 15.49,-16.42 66.28,-16.88 89.22,-16.83 150.54,0.35 307.69,76.17 404.27,189.52 5.19,6.09 9.99,11.92 14.45,18.44 48.59,71.03 57.63,88.65 85.97,166.77l12.5 44.71c9.44,42 10.26,53.37 14.23,95.1 6.22,65.17 -11.09,166.42 -45.62,242.23z"/>
   <path fill="white" fill-opacity="0.360784" d="M5338.28 7121.81c17.52,-38.47 1.04,-83.35 -41,-102.5 -32.24,-14.68 -79.26,1.81 -93.94,34.06l-7.03 15.43c-12.19,26.75 5.5,74.68 32,86.75 19.12,8.7 23.61,12.55 44.02,11.6 23.86,-1.11 52.79,-16.46 65.95,-45.34zm227.19 184.96c-37.82,83.04 -97.77,84.07 -169.22,114.43 -41.9,17.79 -96.27,44.23 -140.5,45.73 -53.25,1.81 -113.66,-32.12 -137.94,-79.61 -16.61,-32.49 -176.6,-473.59 -193.18,-518.51 -4.49,-12.18 -215.84,-579.1 -218.16,-593.57l64.92 -0.7c82.76,-3.12 148.93,-25.49 222.39,-56.47 29.2,-12.32 67.57,-34.74 94.65,-53.66l50.77 -39.05c6.75,-6 19.31,-16.72 24.65,-23.67 8.41,6.95 51.96,134.39 56.81,147.53l329.31 892.75c20.33,55.11 43.89,102.48 15.5,164.8z"/>
   <path fill="white" fill-opacity="0.529412" d="M5061.7 1135.36l97.55 70.4 97.54 70.38 -12.19 119.68 -12.19 119.68 -109.73 49.27 -109.73 49.28 -97.55 -70.39 -97.54 -70.39 12.19 -119.67 12.19 -119.68 109.73 -49.28 109.73 -49.28zm-13.86 136.16c56.99,5.8 98.48,56.71 92.68,113.7 -5.81,57 -56.71,98.48 -113.71,92.67 -56.99,-5.79 -98.48,-56.69 -92.68,-113.69 5.81,-56.99 56.71,-98.49 113.71,-92.68z"/>
   <g>
    <path fill="#F0EDED" d="M2409.03 2241.2c1391.87,0 2783.75,0 4175.63,0 32.93,382.16 127.84,818.68 0,1526.33 -1391.88,0 -2736.49,0 -4128.36,0 -137.32,-579.81 -179.85,-946.53 -47.27,-1526.33z"/>
    <path fill="#E3E0E0" d="M2409.03 2241.2c1391.87,0 2783.75,0 4175.63,0 21.44,254.55 59.45,433.33 64.32,763.64l-4317.41 1.95c0,0 -40.92,-218.93 77.46,-765.59z"/>
    <polygon fill="white" points="2799.39,3421.65 6260.38,3421.65 6295.26,3242.67 2726.72,3248.2 "/>
    <polygon fill="white" points="2799.39,3421.65 6260.38,3421.65 6295.26,3242.67 2726.72,3248.2 "/>
    <polygon fill="white" points="2799.39,3421.65 6260.38,3421.65 6295.26,3242.67 2726.72,3248.2 "/>
    <polygon fill="gray" points="2799.39,3421.65 6199.29,3421.65 6248.67,3242.73 6307.78,3242.81 6250.54,3471.47 2825.05,3474.56 "/>
   </g>
  </g>
 </g>
</svg>
