<?xml version="1.0" encoding="UTF-8"?>
<!DOCTYPE svg PUBLIC "-//W3C//DTD SVG 1.1//EN" "http://www.w3.org/Graphics/SVG/1.1/DTD/svg11.dtd">
<svg xmlns="http://www.w3.org/2000/svg" xml:space="preserve" width="793.75mm" height="23.8124mm" version="1.1" shape-rendering="geometricPrecision" text-rendering="geometricPrecision" image-rendering="optimizeQuality" fill-rule="evenodd" clip-rule="evenodd"
viewBox="0 0 79374.98 2381.24" xmlns:xlink="http://www.w3.org/1999/xlink">
 <g>
  <g id="whyService">
   <path fill="none" stroke="var(--icon-color)" stroke-width="35" stroke-miterlimit="22.9256" d="M3782.83 608.96l1995.34 0 0 662.78c0,76.02 -62.2,138.21 -138.21,138.21l-2032.62 0"/>
   <line fill="none" stroke="var(--icon-color)" stroke-width="35" stroke-miterlimit="22.9256" x1="3583.7" y1="1245.85" x2="5589" y2= "1245.85" />
   <path fill="none" stroke="var(--icon-color)" stroke-width="35" stroke-miterlimit="22.9256" d="M3938.15 1315.62c-155.5,112.97 -69.07,236.19 15.02,300.72 71.08,54.55 94.42,196.6 -95.62,273.89"/>
   <path fill="none" stroke="var(--icon-color)" stroke-width="35" stroke-miterlimit="22.9256" d="M4553.55 1323.01c-155.5,112.97 -69.07,236.19 15.02,300.72 71.08,54.55 94.42,196.6 -95.63,273.89"/>
   <path fill="none" stroke="var(--icon-color)" stroke-width="35" stroke-miterlimit="22.9256" d="M5126.78 1313.35c-155.5,112.97 -69.07,236.19 15.02,300.72 71.08,54.55 94.42,196.6 -95.62,273.89"/>
   <path fill="none" fill-rule="nonzero" stroke="var(--icon-color)" stroke-width="34.99" stroke-miterlimit="22.9256" d="M3297.09 692.09c-39.38,0 -76.58,4.94 -111.59,14.78 -35.02,9.84 -73.85,25.7 -116.52,47.59l-68.93 -185.44c42.67,-27.36 92.99,-48.42 150.98,-63.18 57.98,-14.77 114.88,-22.16 170.68,-22.16 70.01,0 127.73,9.3 173.14,27.9 45.4,18.6 81.23,42.12 107.49,70.56 26.26,28.45 44.59,59.63 54.98,93.55 10.39,33.91 15.59,66.19 15.59,96.83 0,30.62 -4.66,58.8 -13.95,84.5 -9.3,25.72 -21.06,49.51 -35.28,71.4 -14.23,21.87 -30.64,42.67 -49.24,62.35 -18.6,19.7 -36.66,38.29 -54.16,55.81 -13.13,13.12 -26.8,27.07 -41.02,41.85 -14.23,14.76 -27.08,30.36 -38.57,46.76 -11.49,16.42 -21.06,33.65 -28.72,51.7 -7.66,18.05 -11.48,36.38 -11.48,54.97 0,4.38 0,10.94 0,19.7 0,8.75 0.54,16.41 1.64,22.97l-216.63 0c-2.19,-10.94 -3.56,-23.25 -4.11,-36.92 -0.55,-13.68 -0.82,-25.43 -0.82,-35.29 0,-30.62 3.83,-58.26 11.49,-82.87 7.65,-24.62 17.78,-47.6 30.36,-68.92 12.58,-21.34 27.08,-41.31 43.49,-59.9 16.4,-18.61 33.37,-36.65 50.87,-54.16 25.17,-25.16 48.15,-50.06 68.93,-74.67 20.79,-24.62 31.18,-52.79 31.18,-84.52 0,-26.26 -10.12,-48.68 -30.36,-67.28 -20.24,-18.6 -50.05,-27.91 -89.44,-27.91zm152.62 825.48c0,48.14 -15.59,85.34 -46.77,111.6 -31.18,26.25 -66.46,39.39 -105.85,39.39 -39.38,0 -74.67,-13.14 -105.85,-39.39 -31.18,-26.26 -46.77,-63.46 -46.77,-111.6 0,-48.14 15.59,-85.34 46.77,-111.59 31.18,-26.26 66.47,-39.4 105.85,-39.4 39.39,0 74.67,13.14 105.85,39.4 31.18,26.25 46.77,63.45 46.77,111.59z"/>
  </g>
  <g id="serviceInclude">
   <g>
    <g>
     <path fill="white" d="M7692 1053.03c-12.26,68.96 -36.99,114.32 -83.19,157.95 -9.45,8.93 -20.16,17.06 -30.71,24.49l-16.14 11.09c-3.24,1.99 -6.69,3.61 -10,5.42 -34.09,18.68 -66.38,29.95 -105.65,32.69 -45.82,3.19 -93.3,-4.67 -135.64,-23.69 -42.7,-19.17 -69.93,-44.89 -99.63,-79.11 -19.33,-22.27 -38.75,-60.46 -46.93,-88.61 -2.34,-8.06 -3.99,-14.09 -6.05,-22.48 -6.14,-25.01 -9.35,-58.56 -4.6,-85.27 1.76,-9.89 12.23,-18.07 21.92,-15.39 9.83,2.71 57.52,45.08 67.48,53.79 14.55,12.7 27.99,24.79 42.36,37.44 3.79,3.34 41.92,37.7 41.98,37.71 3.71,0.66 11.11,-2.61 16.21,-4.39l110.96 -38.24 24 -134.92c-2.73,-2.64 -5.24,-4.45 -8.24,-7.1 -41.68,-36.89 -90.69,-76.23 -133.48,-113.34 -10.45,-9.04 -29.17,-19.54 -19.03,-37.89 5.52,-9.98 30.32,-16.59 41.55,-19.45 73.72,-18.74 160.15,-1.38 221.65,41.95 3.31,2.33 6.39,4.58 9.39,7.21 32.71,28.65 39.35,36.14 63.03,70.81l11.73 20.3c9.9,19.37 11.73,24.83 18.92,44.75 11.23,31.12 15.48,82.84 8.11,124.28z"/>
     <path id="1" fill="var(--icon-color)" d="M7692 1053.03c-12.26,68.96 -36.99,114.32 -83.19,157.95 -9.45,8.93 -20.16,17.06 -30.71,24.49l-16.14 11.09c-3.24,1.99 -6.69,3.61 -10,5.42 -34.09,18.68 -66.38,29.95 -105.65,32.69 -45.82,3.19 -93.3,-4.67 -135.64,-23.69 -42.7,-19.17 -69.93,-44.89 -99.63,-79.11 -19.33,-22.27 -38.75,-60.46 -46.93,-88.61 -2.34,-8.06 -3.99,-14.09 -6.05,-22.48 -6.14,-25.01 -9.35,-58.56 -4.6,-85.27 1.76,-9.89 12.23,-18.07 21.92,-15.39 9.83,2.71 57.52,45.08 67.48,53.79 14.55,12.7 27.99,24.79 42.36,37.44 3.79,3.34 41.92,37.7 41.98,37.71 3.71,0.66 11.11,-2.61 16.21,-4.39l110.96 -38.24 24 -134.92c-2.73,-2.64 -5.24,-4.45 -8.24,-7.1 -41.68,-36.89 -90.69,-76.23 -133.48,-113.34 -10.45,-9.04 -29.17,-19.54 -19.03,-37.89 5.52,-9.98 30.32,-16.59 41.55,-19.45 73.72,-18.74 160.15,-1.38 221.65,41.95 3.31,2.33 6.39,4.58 9.39,7.21 32.71,28.65 39.35,36.14 63.03,70.81l11.73 20.3c9.9,19.37 11.73,24.83 18.92,44.75 11.23,31.12 15.48,82.84 8.11,124.28zm-59.77 72.06c11.74,-22.11 19.86,-47.36 25.32,-78.08 3.12,-17.59 3.84,-37.44 2.61,-56.3 -1.27,-19.51 -4.48,-37.43 -9.08,-50.2l-0.95 -2.63c-5.62,-15.63 -7.62,-21.1 -15.37,-36.38l-10.96 -18.97c-10.57,-15.46 -17.38,-24.91 -24.8,-33.25 -7.83,-8.8 -16.82,-17.05 -31.76,-30.14l-0.14 0c-1.01,-0.89 -1.83,-1.56 -2.52,-2.08 -1.37,-1.04 -2.65,-1.96 -3.86,-2.81 -26.92,-18.96 -59.5,-32.24 -93.47,-38.67 -33.33,-6.31 -67.84,-5.98 -99.47,2.06l-3.74 0.97c16.07,13.83 35.51,30.1 54.9,46.32 24.43,20.42 48.96,40.94 74.3,63.37 1.51,1.33 0.73,0.53 2.61,2.08 1.88,1.55 3.65,3 6.86,6.11l13.34 12.93 -3.23 18.11 -24 134.92 -3.62 20.36 -19.48 6.71 -110.96 38.24 -0.03 -0.07 -2.69 0.98 -0.01 -0.02c-8.78,3.27 -18.91,6.99 -30.85,4.86l-9.9 -1.76 -7.46 -6.71 -16.17 -14.53 -25.81 -23.18 0.05 -0.06 -17.31 -15.33c-7.55,-6.7 -15.01,-13.33 -24.69,-21.78l-2.84 -2.49c-6.49,-5.7 -19.55,-17.16 -30.83,-26.95l0.15 3.47c0.73,13.53 2.8,26.95 5.57,38.26l0.03 -0.01c0.71,2.92 1.62,6.37 2.78,10.68 1.63,6.08 2.4,8.85 2.86,10.43 3.52,12.1 9.77,26.9 17.39,41.29 6.98,13.19 14.86,25.48 22.43,34.2 13.53,15.59 26.5,29.25 40.84,41.1 13.63,11.26 28.57,20.88 46.62,28.98 18.12,8.14 37.61,13.97 57.66,17.47 20.4,3.56 41.15,4.63 61.44,3.22 16.91,-1.18 32.13,-4.13 46.56,-8.73 14.81,-4.71 29.46,-11.37 44.73,-19.73l0.41 -0.27 3.55 -1.88 0.41 -0.14c1.44,-0.74 2.89,-1.49 3.99,-2.17l0.01 0.01 14.42 -9.9 -0.07 -0.1c4.61,-3.25 9.4,-6.76 14.27,-10.59l0.07 0.09c3.99,-3.15 8.17,-6.72 12.54,-10.85 20.2,-19.08 35.68,-38.46 47.35,-60.46z"/>
    </g>
    <g>
     <path fill="white" d="M7935.17 1689.85c3.74,-21.03 -9.96,-40.92 -32.94,-45.01 -17.63,-3.13 -38.56,10.84 -41.7,28.47l-1.5 8.44c-2.6,14.62 12.08,35.85 26.57,38.43 10.44,1.86 13.13,3.17 22.99,0.14 11.54,-3.54 23.77,-14.69 26.58,-30.47zm134.42 61.97c-8.07,45.38 -37.28,53.42 -68.43,77.26 -18.27,13.97 -41.56,33.74 -63.01,40.03 -25.83,7.58 -59.66,-1.44 -77.51,-21.62 -12.21,-13.82 -145.93,-209.57 -159.69,-229.47 -3.73,-5.4 -178.4,-256.28 -181.35,-263.06l31.68 -8.5c40.11,-11.93 69.69,-31.19 101.74,-55.58 12.74,-9.7 28.7,-25.49 39.58,-38.16l19.93 -25.48c2.55,-3.79 7.36,-10.61 9.09,-14.69 4.99,2.35 42.32,59.24 46.34,65.06l273.34 395.51c16.87,24.41 34.35,44.63 28.29,78.7z"/>
     <path id="1" fill="var(--icon-color)" d="M7935.17 1689.85c3.74,-21.03 -9.96,-40.92 -32.94,-45.01 -17.63,-3.13 -38.56,10.84 -41.7,28.47l-1.5 8.44c-2.6,14.62 12.08,35.85 26.57,38.43 10.44,1.86 13.13,3.17 22.99,0.14 11.54,-3.54 23.77,-14.69 26.58,-30.47zm134.42 61.97c-8.07,45.38 -37.28,53.42 -68.43,77.26 -18.27,13.97 -41.56,33.74 -63.01,40.03 -25.83,7.58 -59.66,-1.44 -77.51,-21.62 -12.21,-13.82 -145.93,-209.57 -159.69,-229.47 -3.73,-5.4 -178.4,-256.28 -181.35,-263.06l31.68 -8.5c40.11,-11.93 69.69,-31.19 101.74,-55.58 12.74,-9.7 28.7,-25.49 39.58,-38.16l19.93 -25.48c2.55,-3.79 7.36,-10.61 9.09,-14.69 4.99,2.35 42.32,59.24 46.34,65.06l273.34 395.51c16.87,24.41 34.35,44.63 28.29,78.7zm-112.9 -111.73c11.52,15.75 16.52,35.59 12.93,55.78l0 0.13c-2.51,14.07 -8.9,26.15 -17.16,35.63l-0.14 0c-9.3,10.66 -21.47,18.31 -33.49,22.01l0.01 0.04c-16.79,5.16 -22.51,4.06 -35.71,1.56l-3.54 -0.66 -0.01 0.05c-16.82,-2.99 -32.36,-14.82 -42.38,-29.33 -9.96,-14.4 -15.57,-32.97 -12.62,-49.57l1.5 -8.44c3.28,-18.47 14.98,-34.47 30.05,-44.77 14.95,-10.21 34.06,-15.33 52.12,-12.13 20.66,3.67 37.47,14.7 48.44,29.7zm45.3 145.84c16.05,-10.63 29.5,-19.56 33.15,-40.13 2.94,-16.58 -6.79,-30.39 -17.52,-45.6l0 -0.14 -4.89 -6.98 -0.14 -0.14 -273.34 -395.51 -0.27 -0.41 -4.39 -6.54c-3.51,-5.25 -7.58,-12.69 -11.56,-20.07l-2.95 3.77 -0.96 1.24c-6.37,7.42 -14.26,15.76 -22.29,23.5 -7.57,7.3 -15.46,14.25 -22.62,19.71 -17.08,13 -33.68,24.74 -51.81,35.06 -14.7,8.38 -30.17,15.68 -47.28,21.73 41.14,59.56 124.03,178.77 147.94,213.14l6.6 9.5 0.14 0.27 15.85 23.08c38.96,56.8 132.71,193.47 141.1,202.97 4.26,4.82 11.05,8.5 18.66,10.62 8,2.23 16.24,2.56 22.9,0.61 12.29,-3.6 29.3,-16.85 43.69,-28.05l0.13 -0.14 7.7 -5.96 0.14 -0.13c7.87,-6.02 15.12,-10.83 22.02,-15.4z"/>
    </g>
   </g>
   <rect fill="white" stroke="var(--icon-color)" stroke-width="35" stroke-miterlimit="22.9256" transform="matrix(1.26558 0.468341 -0.552983 1.49428 9081.34 1238.23)" width="110.65" height="223.61"/>
   <circle fill="white" stroke="var(--icon-color)" stroke-width="35" stroke-miterlimit="22.9256" transform="matrix(1.6344 0.604823 -0.604828 1.63438 9280.34 921.912)" r="225.76"/>
   <circle fill="white" stroke="var(--icon-color)" stroke-width="35" stroke-miterlimit="22.9256" transform="matrix(1.15319 0.426748 -0.426751 1.15318 9281.27 919.078)" r="225.76"/>
   <rect fill="white" stroke="var(--icon-color)" stroke-width="35" stroke-miterlimit="22.9256" transform="matrix(1.45886 0.539865 -0.53987 1.45885 8943.21 1300.56)" width="236.8" height="91.28" rx="20" ry="20"/>
   <g>
    <path fill="white" d="M9307.78 849.94c6.2,2.29 26.75,17.71 35.43,18.42 27.6,2.24 79.72,1.14 79.72,1.14 0,0 -39.42,31.17 -55.93,47.68 -8.75,8.74 -11.9,26.04 -13.87,31.38 -14.72,39.75 -58.88,60.06 -98.63,45.35 -39.75,-14.71 -60.06,-58.88 -45.35,-98.63 14.71,-39.75 58.88,-60.06 98.63,-45.34z"/>
    <path id="1" fill="var(--icon-color)" d="M9307.78 849.94c6.2,2.29 26.75,17.71 35.43,18.42 27.6,2.24 79.72,1.14 79.72,1.14 0,0 -39.42,31.17 -55.93,47.68 -8.75,8.74 -11.9,26.04 -13.87,31.38 -14.72,39.75 -58.88,60.06 -98.63,45.35 -39.75,-14.71 -60.06,-58.88 -45.35,-98.63 14.71,-39.75 58.88,-60.06 98.63,-45.34zm-7.04 36.09c-3.07,-1.9 -4.24,-3.01 -4.99,-3.28l-0.71 -0.26c-10.72,-3.76 -21.95,-2.96 -31.47,1.41 -9.63,4.42 -17.6,12.58 -21.6,23.39l-0.28 0.78c-3.73,10.71 -2.94,21.92 1.43,31.42 4.42,9.63 12.59,17.61 23.41,21.61 10.94,4.04 22.45,3.31 32.18,-1.16 9.63,-4.42 17.61,-12.59 21.61,-23.41 0.19,-0.52 0.41,-1.28 0.65,-2.15l0 -0.13c2.36,-8.36 5.85,-20.74 13.32,-32.02 -11.83,-2.74 -23.66,-10.07 -33.55,-16.2z"/>
   </g>
   <path fill="var(--icon-color)" fill-rule="nonzero" stroke="var(--icon-color)" stroke-width="7.62" stroke-miterlimit="22.9256" d="M10372.07 1729.99c0,0 29.7,48.86 29.56,49.58 -1.31,-0.48 -45.25,-29.02 -56.61,-35.69 -44.44,-26.1 -117.61,-65.8 -159.91,-76.4l-1.02 -0.28c-26.42,-8.8 -84.34,-24.5 -149.17,-28.92 -41.16,-2.81 -85.09,-1.07 -125.33,9.87 -157.28,42.76 -272.45,117.56 -371.58,181.93 -108.22,70.29 -197.9,128.53 -304.81,122.59 -24.56,-1.36 -47.67,-4.39 -69.2,-8.98 -76.63,-16.34 -136.17,-52.49 -175.57,-104.47 -39.36,-51.93 -58.36,-119.38 -53.98,-198.36 1.28,-23.02 4.5,-46.84 9.72,-71.33l3.33 -15.61 166.5 61.61 -2.82 11.83c-3.74,15.73 -5.33,30.16 -5.12,43.33 0.58,36.91 15.36,64.6 35.61,84.37 20.63,20.15 47.01,32.35 70.11,37.86 10.26,2.44 19.75,3.55 27.61,3.42 65.78,-1.05 143.13,-52.39 232.06,-111.42 121.05,-80.34 262.93,-174.52 433.64,-182.05 37.5,-1.7 55.45,-3.56 124.97,-4.4 0,0 64.87,31.26 64.87,31.26 -78.33,-7.12 -150.36,-3.35 -186.94,0.59l-0.92 0.05c-163.38,6.91 -302.1,98.99 -420.4,177.52 -92.57,61.44 -173.09,114.89 -246.83,116.07 -10.13,0.16 -21.94,-1.18 -34.4,-4.14 -27.22,-6.49 -58.39,-20.96 -83.01,-45 -25,-24.43 -43.26,-58.51 -43.99,-103.79 -0.18,-11.93 0.86,-24.62 3.32,-38.05l-113.63 -42.06c-3.21,17.85 -5.25,35.04 -6.18,51.54 -4,72.16 13.05,133.38 48.44,180.08 35.36,46.65 89.37,79.2 159.31,94.11 20.54,4.38 42.29,7.25 65.11,8.52 97.77,5.43 184.06,-50.61 288.21,-118.25 100.77,-65.43 217.82,-141.46 379.35,-185.38 43.52,-11.83 90.54,-13.73 134.37,-10.75 67.78,4.62 128.09,20.92 155.76,30.11 119.8,44.11 179.57,89.09 179.57,89.09z"/>
   <polygon fill="none" stroke="var(--icon-color)" stroke-width="35" stroke-miterlimit="22.9256" points="6915.02,1838.45 6806.26,1768.95 6697.5,1699.44 6703.32,1570.5 6709.13,1441.55 6823.7,1382.12 6938.28,1322.68 7047.04,1392.19 7155.8,1461.69 7149.99,1590.64 7144.17,1719.58 7029.6,1779.02 "/>
   <circle fill="none" stroke="var(--icon-color)" stroke-width="35" stroke-miterlimit="22.9256" transform="matrix(-0.853223 -0.0384707 0.038471 -0.853216 6926.65 1580.57)" r="130.31"/>
   <path fill="white" stroke="var(--icon-color)" stroke-width="35" stroke-miterlimit="22.9256" d="M8384.43 1801.15c75.19,47.23 168.54,5.82 187.9,-76.02 6.64,-28.04 -1.05,-74.3 -3.94,-105.66 -13.78,-149.6 -30.27,-297.51 -43.56,-447.74 -1.66,-18.7 -1.74,-39.23 -25.38,-49.67 -11,-4.86 -18.15,-3.47 -27.26,-2.67 -35.41,3.13 -69.66,7.2 -105.06,10.25 -17.51,1.5 -35.16,2.85 -52.56,4.98 -18.36,2.25 -37.67,15.84 -37.84,39.7l20.15 210.94c1.78,19.32 11.54,106.01 11.5,118.01 -0.01,3.52 0.1,2.74 0.67,6.09l3.26 33.49c4.15,50.92 10.73,107.94 15.43,158.37 3.74,40.08 18.86,76.17 56.69,99.93z"/>
   <path fill="white" stroke="var(--icon-color)" stroke-width="35" stroke-miterlimit="22.9256" d="M8361.89 1084.55c0,0 78.08,-9 78.08,-9 0,0 -30.57,-260.32 -32.7,-324.18 -1.22,-37.15 10.64,-86.12 20.96,-124.99 7.51,-28.23 10.45,-24.57 4.39,-41.22l-57.48 -156.94c-24.73,1.49 -51.03,4.35 -75.72,7.08 -6.51,14.93 -22.13,138.73 -26.46,166.96 -1.93,12.5 -2.51,8.65 3.6,20.4 3.41,6.53 6.6,12.97 9.89,19.8 6.27,12.99 12.54,25.81 18.22,38.96 19.56,45.29 22.59,54.81 27.62,99.55l29.6 303.58z"/>
   <circle fill="none" stroke="var(--icon-color)" stroke-width="35" stroke-miterlimit="22.9256" transform="matrix(0.501376 -0.448953 0.448957 0.501372 8454.31 1678.42)" r="82.68"/>
  </g>
  <g id="periodService">
   <path fill="none" stroke="var(--icon-color)" stroke-width="35" stroke-miterlimit="22.9256" d="M-13.73 373.8c656.44,-301.54 989.73,290.22 1811.95,-64.61 -263.56,879.59 10.75,915.29 48.4,1507.1 -595.24,107.31 -851.61,-175.59 -1726.55,9.77 0,-484.51 296.49,-679.97 -133.8,-1452.26z"/>
   <path fill="white" stroke="var(--icon-color)" stroke-width="35" stroke-miterlimit="22.9256" d="M1455.76 1411.96c-127.74,-32.81 -126.09,141.22 -192.73,243.35 0,0 -29.78,-6.75 -29.78,-6.75 2.33,-71.8 9.95,-238.23 13.49,-361.34 2.86,-99.79 1.02,-183.84 -15.4,-243.6 -10.06,-40.18 -47.91,-75.6 -94.26,-48.49 -31.26,20.95 -30.52,86.8 -30.96,136.71 -0.66,106.36 -6.97,326.85 -6.97,326.85 0,0 -42.38,-0.63 -42.38,-0.63 0.78,-100.8 -2.01,-202.52 -3.33,-303.4 -1.07,-81.37 3.32,-231.57 -81.29,-227.59 -41.86,0.39 -70.72,38.98 -72.9,88.8l3.21 445.5c0,0 -47.17,-0.64 -47.17,-0.64 -2.35,-89.14 -2.6,-178.79 -3.77,-267.99 -1.11,-83.26 2.34,-197.78 -77.42,-197.92 -76.46,1.27 -77.16,118.25 -76.08,199.95 1.17,88.78 0.42,179.45 4.2,267.99 0,0 -49.89,0.65 -49.89,0.65 -0.39,-60.69 -1.52,-121.36 -2.24,-182.03 -0.74,-61.38 -4.63,-115.01 -55.76,-125.86 -93.61,-11.99 -97.4,163.52 -96.31,259.35 2.9,218.52 -41.12,466.16 139.6,595.62 190.53,126.14 500.05,106.99 613.19,-15.74 50.8,-45.55 116.15,-141.19 151.38,-245.89 50.36,-149.67 89.82,-328.2 53.57,-336.9z"/>
   <path fill="none" stroke="var(--icon-color)" stroke-width="35" stroke-miterlimit="22.9256" d="M386.58 568.61c222.85,-80.2 360.48,1.52 475.57,62.75 178.81,95.11 354.96,-43.77 583.1,-26.06"/>
   <path fill="none" stroke="var(--icon-color)" stroke-width="35" stroke-miterlimit="22.9256" d="M575.74 725.44c318.89,-33.35 231.06,158.67 678.31,25.88"/>
  </g>
  <g id="stdInstall">
   <polygon fill="none" stroke="var(--icon-color)" stroke-width="35" stroke-miterlimit="22.9256" points="14710.53,923.41 14881.63,904 15052.72,884.59 15155.07,1023.07 15257.43,1161.54 15188.69,1319.41 15119.95,1477.29 14948.85,1496.7 14777.76,1516.1 14675.4,1377.63 14573.04,1239.16 14641.78,1081.29 "/>
   <g>
    <path fill="white" d="M16120.62 884.01c-83.2,84.07 -161.09,123.4 -267.14,139.73 -21.7,3.33 -44.38,4.36 -66.17,4.57l-33.08 -0.08c-6.4,-0.34 -12.76,-1.38 -19.09,-2.04 -65.31,-6.75 -121,-22.07 -178.2,-55.93 -66.75,-39.52 -125.2,-95.99 -165.8,-163.04 -40.95,-67.61 -54.12,-129.47 -62.57,-205.53 -5.51,-49.5 4.14,-121.19 19.78,-168.17 4.48,-13.44 7.97,-23.4 13.15,-37.04 15.45,-40.65 43.19,-90.35 75.41,-122.92 11.94,-12.06 34.34,-13.39 45.24,-0.37 11.06,13.2 36.68,117.84 42.17,139.5 8.04,31.6 15.13,61.3 22.96,92.66 2.06,8.28 22.09,92.61 22.17,92.69 4.52,4.48 17.94,7.02 26.73,9.45l190.91 53.29 162.78 -164.49c-1.25,-6.3 -3.02,-11.21 -4.64,-17.77 -22.54,-91.25 -52.91,-192.95 -76.79,-285.57 -5.84,-22.6 -21.8,-55.14 9.9,-70.92 17.25,-8.58 58.06,6.03 76.41,12.83 120.43,44.66 223.9,151.7 267.82,270.92 2.36,6.41 4.48,12.49 6.13,19.03 17.97,71.2 20.01,87.97 19.68,158.88l-3.18 39.48c-4.82,36.41 -7.52,45.75 -16.64,80.33 -14.24,54.02 -57.95,129.99 -107.94,180.51z"/>
    <path id="1" fill="var(--icon-color)" d="M16120.62 884.01c-83.2,84.07 -161.09,123.4 -267.14,139.73 -21.7,3.33 -44.38,4.36 -66.17,4.57l-33.08 -0.08c-6.4,-0.34 -12.76,-1.38 -19.09,-2.04 -65.31,-6.75 -121,-22.07 -178.2,-55.93 -66.75,-39.52 -125.2,-95.99 -165.8,-163.04 -40.95,-67.61 -54.12,-129.47 -62.57,-205.53 -5.51,-49.5 4.14,-121.19 19.78,-168.17 4.48,-13.44 7.97,-23.4 13.15,-37.04 15.45,-40.65 43.19,-90.35 75.41,-122.92 11.94,-12.06 34.34,-13.39 45.24,-0.37 11.06,13.2 36.68,117.84 42.17,139.5 8.04,31.6 15.13,61.3 22.96,92.66 2.06,8.28 22.09,92.61 22.17,92.69 4.52,4.48 17.94,7.02 26.73,9.45l190.91 53.29 162.78 -164.49c-1.25,-6.3 -3.02,-11.21 -4.64,-17.77 -22.54,-91.25 -52.91,-192.95 -76.79,-285.57 -5.84,-22.6 -21.8,-55.14 9.9,-70.92 17.25,-8.58 58.06,6.03 76.41,12.83 120.43,44.66 223.9,151.7 267.82,270.92 2.36,6.41 4.48,12.49 6.13,19.03 17.97,71.2 20.01,87.97 19.68,158.88l-3.18 39.48c-4.82,36.41 -7.52,45.75 -16.64,80.33 -14.24,54.02 -57.95,129.99 -107.94,180.51zm-141 64.23c39.77,-20.64 77.24,-49.43 116.25,-88.84 22.38,-22.62 43.54,-51.04 60.89,-80.06 17.92,-29.98 31.56,-60.15 38.03,-84.73l1.23 -4.66c7.63,-28.91 10.23,-38.78 14.35,-69.51l-0.03 0 3.18 -39.48 0.01 0c0.12,-31.8 -0.34,-51.96 -2.86,-72.36 -2.5,-20.33 -7.3,-41.26 -15.88,-75.31 -0.54,-2.13 -1.27,-4.53 -2.11,-7.1l0 -0.14c-0.75,-2.28 -1.78,-5.14 -2.92,-8.24 -20.35,-55.26 -54.84,-107.91 -98.38,-151.94l0 -0.14c-42.58,-43.08 -93.8,-77.66 -148.8,-98.06l0.02 -0.05c-8.39,-3.11 -21.8,-7.95 -34.4,-10.9l-14.27 -3.38c-0.79,0.39 2.33,10.75 4.91,19.26 1.27,4.19 2.5,8.26 3.37,11.6l0 0.14c9.95,38.6 22.19,82.78 34.42,126.95 15.05,54.35 30.15,108.83 42.51,158.89l0 0.14 1.71 5.97c1.21,4.27 2.39,8.38 3.34,13.16l3.62 18.13 -13.19 13.32 -162.78 164.49 -14.36 14.52 -19.69 -5.5 -190.91 -53.29 -4.93 -1.29 -0.02 0.07c-12.36,-3.11 -26.61,-6.71 -37.09,-17.11l-6.96 -6.9 -2.34 -9.78 -8.98 -37.56 -0.13 0 -13.06 -54.86 -9.32 -37.75c-3.49,-14.25 -6.94,-28.29 -13.64,-54.64l0 -0.13 -1.6 -6.37c-6.27,-24.96 -23,-91.57 -30.64,-112.87 -11.94,12.75 -23.13,28.1 -33.01,44.2 -12.81,20.89 -23.51,42.98 -30.98,62.65 -2.28,6.02 -4.38,11.73 -6.57,17.91 -3.2,9.05 -4.98,14.18 -6.17,17.77 -7.22,21.69 -13.1,49.9 -16.49,78.71 -3.15,26.8 -4.02,53.39 -1.65,74.69 4.03,36.32 9.15,69.09 18,100.33 8.67,30.66 21.03,60.25 39.64,90.98 18.5,30.56 41.2,58.89 66.97,84.23 26.13,25.7 55.47,48.23 86.8,66.78 26.32,15.58 52.03,26.82 78.41,34.85 26.79,8.16 54.93,13.26 85.57,16.43l0.41 0 6.62 0.78 0.28 0c4.13,0.51 8.3,1.04 10.01,1.13l31.3 0.08c9.43,-0.1 19.67,-0.42 30.93,-1.12 9.78,-0.61 19.83,-1.62 30.04,-3.18 49.29,-7.59 91.83,-20.41 131.34,-40.91zm-518.39 -649.74l-0.04 0.04 0.08 -0.04 -0.04 0zm-6.01 -3.02l0.31 0.37 -0.18 -0.24 -0.13 -0.13z"/>
   </g>
   <g>
    <path fill="white" d="M15847.68 2002.35c25.37,-25.64 25.41,-66.43 -2.61,-94.15 -21.49,-21.27 -63.99,-21.93 -85.25,-0.43l-10.18 10.28c-17.64,17.83 -17.61,61.42 0.05,78.89 12.74,12.61 15.2,17.01 31.82,22.27 19.44,6.14 47.13,2.38 66.17,-16.86zm127.38 215.07c-54.75,55.34 -103.06,38.49 -169.22,41.73 -38.8,1.9 -90.12,7.04 -125.98,-4.8 -43.17,-14.24 -81.53,-59.23 -86.98,-104.41 -3.72,-30.9 -1.78,-431.25 -1.81,-472.11 -0.01,-11.08 -2.1,-527.31 0.31,-539.57l52.18 18.58c67.19,21.89 126.76,23.49 194.72,20.35 27.01,-1.26 64.34,-7.9 91.6,-15.07l52.16 -16.3c7.18,-2.82 20.4,-7.69 26.72,-11.69 4.69,8.05 1.98,122.93 1.99,134.87l0.49 811.9c0.03,50.11 4.93,94.99 -36.18,136.52z"/>
    <path id="1" fill="var(--icon-color)" d="M15847.68 2002.35c25.37,-25.64 25.41,-66.43 -2.61,-94.15 -21.49,-21.27 -63.99,-21.93 -85.25,-0.43l-10.18 10.28c-17.64,17.83 -17.61,61.42 0.05,78.89 12.74,12.61 15.2,17.01 31.82,22.27 19.44,6.14 47.13,2.38 66.17,-16.86zm127.38 215.07c-54.75,55.34 -103.06,38.49 -169.22,41.73 -38.8,1.9 -90.12,7.04 -125.98,-4.8 -43.17,-14.24 -81.53,-59.23 -86.98,-104.41 -3.72,-30.9 -1.78,-431.25 -1.81,-472.11 -0.01,-11.08 -2.1,-527.31 0.31,-539.57l52.18 18.58c67.19,21.89 126.76,23.49 194.72,20.35 27.01,-1.26 64.34,-7.9 91.6,-15.07l52.16 -16.3c7.18,-2.82 20.4,-7.69 26.72,-11.69 4.69,8.05 1.98,122.93 1.99,134.87l0.49 811.9c0.03,50.11 4.93,94.99 -36.18,136.52zm-73.8 -261.91c0.49,26.14 -9.26,51.8 -28.7,71.45 -13.69,13.85 -30.25,22.46 -46.96,26.71 -18.88,4.81 -38.44,4.01 -54.62,-1.1 -22.32,-7.07 -28.08,-12.84 -41.19,-26.15l-4.85 -4.87c-15.56,-15.5 -23.36,-40.16 -23.37,-63.92 -0.01,-23.7 7.76,-48.47 23.32,-64.19l10.18 -10.28 0 -0.14 0.01 -0.01 0.07 0.07c17.5,-17.63 42.74,-26.2 67.48,-25.99 24.51,0.19 49.54,9.06 66.89,26.21l0.28 0.13 0.02 0.02 0.01 0.01 -0.07 0.07c20.66,20.48 31.02,46.29 31.5,71.98zm-53.49 268.58c38.27,0.72 70.28,1.33 102.54,-31.28 26.87,-27.14 26.54,-60.51 26.17,-97.25 -0.11,-11.39 -0.24,-6.59 -0.24,-14.66l0.14 0 -0.49 -811.9 0 -0.41 0.17 -13.55c0.27,-17.51 1.31,-48.01 2.01,-71.37l-37.8 11.81 -1.5 0.41c-15.1,3.97 -33.22,7.81 -51.22,10.77 -16.56,2.72 -33.29,4.72 -47.77,5.39 -35.65,1.64 -69.03,2.05 -102.02,-0.79 -34.27,-2.95 -68.55,-9.33 -105,-21.2l-0.82 -0.27 -6.85 -2.44c-0.49,109.95 0.53,400.28 0.78,473.54l0.06 16.94 -0.11 46.67c-0.34,115.95 -1.17,396.72 1.79,421.34 1.88,15.61 9.77,31.63 21.09,45.23 11.61,13.94 26.55,24.93 42.1,30.06 24.86,8.21 63.82,5.96 96.76,4.06l16.37 -0.9 0.27 0c15.18,-0.73 29.71,-0.46 43.57,-0.2z"/>
   </g>
   <circle fill="none" stroke="var(--icon-color)" stroke-width="35" stroke-miterlimit="22.9256" transform="matrix(0.916263 -0.677283 0.677287 0.916257 14915.2 1200.35)" r="130.31"/>
  </g>
  <g id="unstdInstall">
   <path fill="none" stroke="var(--icon-color)" stroke-width="35" stroke-miterlimit="22.9256" d="M19442.28 485.39c360.29,0.75 572.93,379.48 545.3,635.69 -24.23,224.62 -149.09,336.28 -214.84,422.11 -45.33,59.2 -61.98,131.02 -70.34,222.33 0,0 -490.79,178.56 -490.79,178.56 -17.78,-176.22 -59.28,-283.16 -113.3,-358.56 -91.86,-128.18 -239.5,-216.72 -255.67,-484.75 -20.11,-333.35 239.33,-616.16 599.64,-615.38z"/>
   <line fill="none" stroke="var(--icon-color)" stroke-width="35" stroke-linecap="round" stroke-miterlimit="22.9256" x1="19207.79" y1="1946.63" x2="19101.81" y2= "1988.85" />
   <line fill="none" stroke="var(--icon-color)" stroke-width="35" stroke-linecap="round" stroke-miterlimit="22.9256" x1="19702.4" y1="1765.52" x2="19811.41" y2= "1722.63" />
   <line fill="none" stroke="var(--icon-color)" stroke-width="35" stroke-linecap="round" stroke-miterlimit="22.9256" x1="19144.28" y1="2159.46" x2="19792.58" y2= "1915.39" />
   <line fill="none" stroke="var(--icon-color)" stroke-width="35" stroke-linecap="round" stroke-miterlimit="22.9256" x1="19175.83" y1="2337.03" x2="19776.09" y2= "2111.04" />
   <path fill="none" stroke="var(--icon-color)" stroke-width="35" stroke-miterlimit="22.9256" d="M19255.57 2313.1c83.49,115.52 366.82,95.19 424.05,-158.91"/>
   <path fill="none" stroke="var(--icon-color)" stroke-width="35" stroke-linecap="round" stroke-miterlimit="22.9256" d="M19349.84 1699.16c-30.79,-242.89 -56.47,-285.24 -148.44,-448.27 80.85,26.84 151.51,68.14 229.81,128.97 65.99,-66.29 128.59,-105.37 210.73,-147.86 -75.02,173.99 -116.68,269.07 -130.84,466.5"/>
   <line fill="none" stroke="var(--icon-color)" stroke-width="35" stroke-linecap="round" stroke-miterlimit="22.9256" x1="19422.34" y1="323.61" x2="19415.55" y2= "0.7" />
   <line fill="none" stroke="var(--icon-color)" stroke-width="35" stroke-linecap="round" stroke-miterlimit="22.9256" x1="20546.16" y1="1043.5" x2="20223.25" y2= "1050.29" />
   <line fill="none" stroke="var(--icon-color)" stroke-width="35" stroke-linecap="round" stroke-miterlimit="22.9256" x1="18597.43" y1="1054.28" x2="18274.52" y2= "1061.08" />
   <line fill="none" stroke="var(--icon-color)" stroke-width="35" stroke-linecap="round" stroke-miterlimit="22.9256" x1="18805.82" y1="547.86" x2="18572.68" y2= "324.33" />
   <line fill="none" stroke="var(--icon-color)" stroke-width="35" stroke-linecap="round" stroke-miterlimit="22.9256" x1="20039.36" y1="539.99" x2="20262.89" y2= "306.85" />
   <line fill="none" stroke="var(--icon-color)" stroke-width="35" stroke-linecap="round" stroke-miterlimit="22.9256" x1="18627.49" y1="1795.82" x2="18851.02" y2= "1562.69" />
   <line fill="none" stroke="var(--icon-color)" stroke-width="35" stroke-linecap="round" stroke-miterlimit="22.9256" x1="20273.27" y1="1784.99" x2="20040.14" y2= "1561.47" />
  </g>
  <g id="instalBySelf">
   <path fill="none" stroke="var(--icon-color)" stroke-width="35" stroke-miterlimit="22.9256" d="M27506.34 687.38l2106.93 0 0 591.58c0,67.85 -55.5,123.35 -123.35,123.35l-1748.33 0"/>
   <line fill="none" stroke="var(--icon-color)" stroke-width="35" stroke-miterlimit="22.9256" x1="27759.08" y1="1255.85" x2="29444.42" y2= "1255.85" />
   <path fill="none" stroke="var(--icon-color)" stroke-width="35" stroke-miterlimit="22.9256" d="M27970.96 1318.12c-138.8,100.83 -61.65,210.81 13.4,268.41 63.44,48.69 84.28,175.48 -85.35,244.47"/>
   <path fill="none" stroke="var(--icon-color)" stroke-width="35" stroke-miterlimit="22.9256" d="M28520.23 1324.72c-138.79,100.83 -61.65,210.81 13.41,268.41 63.44,48.69 84.27,175.47 -85.35,244.46"/>
   <path fill="none" stroke="var(--icon-color)" stroke-width="35" stroke-miterlimit="22.9256" d="M29031.88 1316.09c-138.8,100.83 -61.65,210.82 13.4,268.42 63.45,48.68 84.28,175.47 -85.35,244.46"/>
   <path fill="white" stroke="var(--icon-color)" stroke-width="35" stroke-miterlimit="22.9256" d="M27640.01 1075.47c-140.07,-35.97 -138.26,154.85 -211.33,266.84 0,0 -32.65,-7.41 -32.65,-7.41 2.55,-78.72 10.91,-261.21 14.79,-396.2 3.14,-109.42 1.12,-201.58 -16.88,-267.1 -11.04,-44.06 -52.54,-82.9 -103.36,-53.17 -34.28,22.97 -33.47,95.17 -33.95,149.89 -0.72,116.63 -7.64,358.39 -7.64,358.39 0,0 -46.47,-0.69 -46.47,-0.69 0.86,-110.52 -2.2,-222.06 -3.65,-332.67 -1.17,-89.22 3.63,-253.91 -89.14,-249.55 -45.89,0.43 -77.54,42.74 -79.93,97.36l3.52 488.5c0,0 -51.72,-0.71 -51.72,-0.71 -2.58,-97.74 -2.85,-196.03 -4.13,-293.84 -1.22,-91.3 2.56,-216.87 -84.89,-217.03 -83.85,1.4 -84.61,129.67 -83.43,219.25 1.28,97.35 0.47,196.77 4.61,293.84 0,0 -54.7,0.72 -54.7,0.72 -0.43,-66.55 -1.67,-133.07 -2.46,-199.59 -0.81,-67.31 -5.08,-126.11 -61.14,-138.01 -102.64,-13.14 -106.8,179.3 -105.6,284.38 3.18,239.6 -45.09,511.14 153.07,653.08 208.91,138.32 548.3,117.32 672.35,-17.25 55.7,-49.95 127.36,-154.81 165.99,-269.61 55.22,-164.12 98.48,-359.88 58.74,-369.42z"/>
  </g>
  <g id="buyAndInstall">
   <path fill="none" stroke="var(--icon-color)" stroke-width="35" stroke-miterlimit="22.9256" d="M23187.19 633.64l1797.74 0 0 597.15c0,68.49 -56.04,124.52 -124.52,124.52l-1831.32 0"/>
   <line fill="none" stroke="var(--icon-color)" stroke-width="35" stroke-miterlimit="22.9256" x1="23057.4" y1="1207.47" x2="24814.49" y2= "1207.47" />
   <path fill="none" stroke="var(--icon-color)" stroke-width="35" stroke-miterlimit="22.9256" d="M23327.14 1270.33c-140.1,101.78 -62.23,212.79 13.53,270.94 64.04,49.14 85.07,177.13 -86.16,246.77"/>
   <path fill="none" stroke="var(--icon-color)" stroke-width="35" stroke-miterlimit="22.9256" d="M23881.59 1276.98c-140.1,101.78 -62.23,212.8 13.53,270.94 64.04,49.15 85.07,177.13 -86.16,246.77"/>
   <path fill="none" stroke="var(--icon-color)" stroke-width="35" stroke-miterlimit="22.9256" d="M24398.05 1268.28c-140.1,101.78 -62.23,212.8 13.54,270.94 64.04,49.15 85.06,177.13 -86.16,246.77"/>
   <g>
    <polygon fill="none" stroke="var(--icon-color)" stroke-width="35" stroke-miterlimit="22.9256" points="21922.29,994.79 22047.68,980.57 22173.06,966.35 22248.08,1067.83 22323.09,1169.31 22272.71,1285.01 22222.34,1400.71 22096.94,1414.93 21971.56,1429.16 21896.54,1327.68 21821.53,1226.19 21871.91,1110.5 "/>
    <g>
     <path fill="white" d="M22955.69 965.92c-60.97,61.61 -118.05,90.43 -195.77,102.4 -15.9,2.44 -32.53,3.2 -48.5,3.35l-24.24 -0.06c-4.69,-0.25 -9.35,-1.01 -13.99,-1.5 -47.86,-4.94 -88.68,-16.16 -130.59,-40.98 -48.92,-28.96 -91.76,-70.35 -121.52,-119.49 -30.01,-49.55 -39.66,-94.88 -45.85,-150.62 -4.04,-36.28 3.03,-88.82 14.49,-123.25 3.29,-9.85 5.84,-17.15 9.64,-27.14 11.33,-29.8 31.65,-66.22 55.27,-90.09 8.75,-8.84 25.16,-9.81 33.15,-0.27 8.1,9.67 26.88,86.36 30.91,102.23 5.89,23.16 11.09,44.93 16.82,67.91 1.51,6.07 16.19,67.87 16.25,67.93 3.32,3.28 13.15,5.15 19.59,6.92l139.91 39.06 119.3 -120.55c-0.92,-4.61 -2.22,-8.22 -3.41,-13.02 -16.51,-66.88 -38.77,-141.41 -56.27,-209.29 -4.28,-16.56 -15.98,-40.41 7.26,-51.97 12.64,-6.29 42.54,4.42 55.99,9.4 88.26,32.73 164.1,111.18 196.28,198.55 1.73,4.7 3.29,9.16 4.5,13.94 13.16,52.18 14.66,64.48 14.41,116.44l-2.32 28.93c-3.54,26.69 -5.52,33.54 -12.2,58.88 -10.43,39.59 -42.47,95.26 -79.11,132.29z"/>
     <path id="1" fill="var(--icon-color)" d="M22955.69 965.92c-60.97,61.61 -118.05,90.43 -195.77,102.4 -15.9,2.44 -32.53,3.2 -48.5,3.35l-24.24 -0.06c-4.69,-0.25 -9.35,-1.01 -13.99,-1.5 -47.86,-4.94 -88.68,-16.16 -130.59,-40.98 -48.92,-28.96 -91.76,-70.35 -121.52,-119.49 -30.01,-49.55 -39.66,-94.88 -45.85,-150.62 -4.04,-36.28 3.03,-88.82 14.49,-123.25 3.29,-9.85 5.84,-17.15 9.64,-27.14 11.33,-29.8 31.65,-66.22 55.27,-90.09 8.75,-8.84 25.16,-9.81 33.15,-0.27 8.1,9.67 26.88,86.36 30.91,102.23 5.89,23.16 11.09,44.93 16.82,67.91 1.51,6.07 16.19,67.87 16.25,67.93 3.32,3.28 13.15,5.15 19.59,6.92l139.91 39.06 119.3 -120.55c-0.92,-4.61 -2.22,-8.22 -3.41,-13.02 -16.51,-66.88 -38.77,-141.41 -56.27,-209.29 -4.28,-16.56 -15.98,-40.41 7.26,-51.97 12.64,-6.29 42.54,4.42 55.99,9.4 88.26,32.73 164.1,111.18 196.28,198.55 1.73,4.7 3.29,9.16 4.5,13.94 13.16,52.18 14.66,64.48 14.41,116.44l-2.32 28.93c-3.54,26.69 -5.52,33.54 -12.2,58.88 -10.43,39.59 -42.47,95.26 -79.11,132.29zm-107.6 38.77c28.25,-14.66 54.97,-35.2 82.85,-63.38 15.86,-16.03 30.9,-36.24 43.25,-56.9 12.69,-21.22 22.32,-42.48 26.84,-59.67l0.91 -3.44c5.44,-20.63 7.34,-27.8 10.23,-49.28l-0.03 0 2.32 -28.93 0.01 0c0.08,-22.33 -0.27,-36.63 -2.06,-51.17 -1.77,-14.46 -5.23,-29.52 -11.41,-54.06 -0.41,-1.65 -0.86,-3.14 -1.32,-4.55l-0.04 0.01c-0.8,-2.42 -1.45,-4.26 -2.04,-5.85 -14.5,-39.36 -39.04,-76.83 -69.98,-108.13 -30.24,-30.59 -66.61,-55.16 -105.66,-69.64l0.02 -0.04c-4.9,-1.8 -12.22,-4.48 -19.51,-6.49 0.72,2.38 1.44,4.77 2.18,7.68 7.11,27.58 16.13,60.13 25.16,92.74 11.09,40.06 22.22,80.21 31.25,116.82l1.14 4.15 0.04 -0.01c0.96,3.34 1.89,6.59 2.64,10.38l3.62 18.12 -13.19 13.33 -119.3 120.55 -14.37 14.52 -19.68 -5.5 -139.91 -39.06 0.01 -0.04 -3.31 -0.85 -0.03 0.1c-10.19,-2.57 -21.97,-5.53 -31.43,-14.88l-7.1 -7.01 -2.34 -9.8 -6.66 -27.86 -0.13 0 -9.46 -39.66 0 -0.14 -6.71 -27.2c-2.36,-9.64 -4.54,-18.52 -10.11,-40.44l0 -0.13 -1.23 -4.88c-3.52,-14.01 -11.52,-45.86 -17.06,-65.93 -4.37,5.76 -8.56,11.97 -12.51,18.4 -9.08,14.81 -16.66,30.45 -21.94,44.36l0 0.14c-2.09,5.49 -3.59,9.54 -4.74,12.8 -2.15,6.11 -3.49,9.98 -4.49,12.97l-0.04 -0.01c-5.05,15.21 -9.19,35.18 -11.6,55.7 -2.23,19.02 -2.86,37.79 -1.21,52.66 2.91,26.16 6.58,49.73 12.89,72.03 6.07,21.45 14.86,42.37 28.17,64.37l-0.1 0.06c13.12,21.67 29.28,41.81 47.63,59.85 18.59,18.28 39.48,34.32 61.82,47.55 18.68,11.06 36.86,19.02 55.41,24.66 18.97,5.78 39.04,9.41 60.96,11.67l0.55 0 4.77 0.57 0.14 0c3.03,0.37 6.21,0.78 6.76,0.8l22.46 0.06c6.56,-0.07 13.79,-0.3 22.09,-0.82 6.77,-0.42 13.83,-1.13 21.08,-2.24l0 -0.02c35.25,-5.43 65.54,-14.53 93.5,-29.04zm-54.36 -565.89c-3.36,1.67 -1.16,1.66 1.83,1.67 -0.69,-1.2 -0.29,-2.44 -1.83,-1.67z"/>
    </g>
    <g>
     <path fill="white" d="M22755.67 1785.51c18.59,-18.79 18.62,-48.69 -1.91,-69 -15.75,-15.59 -46.9,-16.07 -62.49,-0.32l-7.46 7.54c-12.92,13.07 -12.9,45.01 0.04,57.82 9.34,9.24 11.14,12.46 23.32,16.32 14.25,4.5 34.54,1.74 48.5,-12.36zm93.35 157.62c-40.13,40.55 -75.53,28.21 -124.02,30.58 -28.43,1.39 -66.05,5.16 -92.33,-3.52 -31.63,-10.44 -59.75,-43.4 -63.74,-76.51 -2.72,-22.65 -1.3,-316.05 -1.33,-346 0,-8.12 -1.53,-386.44 0.23,-395.43l38.24 13.61c49.24,16.05 92.91,17.22 142.71,14.92 19.79,-0.93 47.15,-5.79 67.13,-11.04l38.23 -11.95c5.25,-2.06 14.94,-5.64 19.58,-8.57 3.43,5.9 1.45,90.09 1.45,98.85l0.36 595.01c0.03,36.72 3.61,69.61 -26.51,100.05z"/>
     <path id="1" fill="var(--icon-color)" d="M22755.67 1785.51c18.59,-18.79 18.62,-48.69 -1.91,-69 -15.75,-15.59 -46.9,-16.07 -62.49,-0.32l-7.46 7.54c-12.92,13.07 -12.9,45.01 0.04,57.82 9.34,9.24 11.14,12.46 23.32,16.32 14.25,4.5 34.54,1.74 48.5,-12.36zm93.35 157.62c-40.13,40.55 -75.53,28.21 -124.02,30.58 -28.43,1.39 -66.05,5.16 -92.33,-3.52 -31.63,-10.44 -59.75,-43.4 -63.74,-76.51 -2.72,-22.65 -1.3,-316.05 -1.33,-346 0,-8.12 -1.53,-386.44 0.23,-395.43l38.24 13.61c49.24,16.05 92.91,17.22 142.71,14.92 19.79,-0.93 47.15,-5.79 67.13,-11.04l38.23 -11.95c5.25,-2.06 14.94,-5.64 19.58,-8.57 3.43,5.9 1.45,90.09 1.45,98.85l0.36 595.01c0.03,36.72 3.61,69.61 -26.51,100.05zm-44.77 -192.1c0.4,21.55 -7.7,42.79 -23.83,59.09 -11.28,11.4 -24.9,18.53 -38.65,22.03l0.01 0.03c-15.5,3.95 -31.61,3.27 -45,-0.95l-0.14 0c-18.47,-5.87 -23.24,-10.6 -33.99,-21.5l-3.35 -3.36 -0.06 0.06c-13.28,-13.14 -19.96,-33.87 -19.97,-53.69 -0.01,-19.59 6.55,-40.21 19.66,-53.48l0.13 -0.14 7.46 -7.54c14.6,-14.73 35.47,-21.94 55.9,-21.84 20.36,0.1 41.26,7.5 55.81,21.89l0.14 0.13c16.99,16.8 25.47,38.07 25.88,59.27zm-48.38 187.67c25.88,0.49 47.55,0.89 68.4,-20.18 16.95,-17.13 16.73,-39.76 16.47,-64.67l0 -0.13 -0.07 -10.5 0 -0.14 -0.36 -595.01 0 -0.41 0.13 -9.67c0.15,-10.24 1.28,-25.92 2.22,-40l-16.36 5.11 -1.64 0.41c-11.46,3 -24.99,5.88 -38.26,8.07 -12.47,2.05 -25.08,3.55 -35.98,4.06l-0.14 0c-26.63,1.22 -51.55,1.53 -76.07,-0.58 -23.63,-2.04 -47.35,-6.28 -72.46,-13.94 -0.17,85.51 0.47,275.79 0.66,331.14l0.05 15.42 -0.08 35.47c-0.24,85.49 -0.84,288.79 1.28,306.43 1.15,9.62 6.15,19.65 13.33,28.27 7.41,8.9 16.86,15.9 26.62,19.12 16.57,5.47 44.15,3.88 67.46,2.54l12.02 -0.66 0.27 0c11.28,-0.54 22.15,-0.34 32.51,-0.15z"/>
    </g>
    <circle fill="none" stroke="var(--icon-color)" stroke-width="35" stroke-miterlimit="22.9256" transform="matrix(0.671498 -0.496357 0.496361 0.671493 22072.3 1197.75)" r="130.31"/>
   </g>
  </g>
  <g id="price">
   <path fill="none" stroke="var(--icon-color)" stroke-width="35" stroke-miterlimit="22.9256" d="M31633.56 416.24c266.35,0 532.71,0 799.07,0 177.94,0 414.88,197.6 414.88,381.84 0,388.99 0,777.99 0,1166.98l-1213.95 0c0,-516.27 0,-1032.55 0,-1548.82z"/>
   <path fill="none" stroke="var(--icon-color)" stroke-width="35" stroke-miterlimit="22.9256" d="M31633.56 416.24c306.07,0 472.17,0 778.25,0 175.41,10.46 122.09,271.7 122.09,271.7 0,0 295.3,-36.11 313.61,152.08l0 1125.04 -1213.95 0 0 -1548.82z"/>
   <line fill="none" stroke="var(--icon-color)" stroke-width="35" stroke-miterlimit="22.9256" x1="31827.39" y1="924.66" x2="32601.25" y2= "924.84" />
   <line fill="none" stroke="var(--icon-color)" stroke-width="35" stroke-miterlimit="22.9256" x1="31832.93" y1="1152.19" x2="32606.8" y2= "1152.36" />
   <line fill="none" stroke="var(--icon-color)" stroke-width="35" stroke-miterlimit="22.9256" x1="31841.24" y1="1377.54" x2="32615.11" y2= "1377.72" />
   <line fill="none" stroke="var(--icon-color)" stroke-width="35" stroke-miterlimit="22.9256" x1="31846.81" y1="1620.85" x2="32620.68" y2= "1621.03" />
  </g>
  <g id="measurement">
   <path fill="none" stroke="var(--icon-color)" stroke-width="35" stroke-miterlimit="22.9256" d="M11839.24 314.81c417.41,0 758.07,338.39 755.78,755.77l-4.15 756.39c-502.46,0.13 -1004.92,0.26 -1507.38,0.38 -0.01,-252.26 -0.04,-504.51 -0.04,-756.77 0,-417.4 338.38,-755.77 755.79,-755.77z"/>
   <circle fill="none" stroke="var(--icon-color)" stroke-width="35" stroke-miterlimit="22.9256" cx="11839.24" cy="1070.58" r="455.1"/>
   <polygon fill="none" stroke="var(--icon-color)" stroke-width="35" stroke-miterlimit="22.9256" points="12592.4,1545.43 13411.81,1545.43 13411.79,1827.25 12590.86,1826.97 "/>
   <line fill="none" stroke="var(--icon-color)" stroke-width="35" stroke-miterlimit="22.9256" x1="13411.81" y1="1545.43" x2="13411.78" y2= "2066.5" />
  </g>
  <g id="promCond">
   <path fill="none" stroke="var(--icon-color)" stroke-width="35" stroke-linecap="round" stroke-linejoin="round" stroke-miterlimit="22.9256" d="M36068.41 1217.39l0 -1110.08c0,-21.69 17.73,-39.42 39.41,-39.42l956.09 0c21.68,0 39.41,17.73 39.41,39.42l0 1611.41c0,21.66 -17.75,39.45 -39.41,39.41l-249.4 -0.42"/>
   <circle fill="white" stroke="var(--icon-color)" stroke-width="35" stroke-linecap="round" stroke-linejoin="round" stroke-miterlimit="22.9256" cx="36594.97" cy="532.19" r="297.01"/>
   <path fill="white" stroke="var(--icon-color)" stroke-width="35" stroke-linecap="round" stroke-linejoin="round" stroke-miterlimit="22.9256" d="M36607.7 502.62c41.81,10.15 28.68,66.17 -14.57,55.66 -24.07,-5.84 -24.23,-40.79 -6.26,-51.58 4.84,-2.9 13.59,-5.85 20.83,-4.08zm208.98 81.84l-2.81 10.74c-6.04,19.81 -16.47,37.6 -31.79,49.8 -37.78,30.09 -110.58,-1.65 -141.59,-25.51 -21.57,-16.59 -32.84,-24.83 -37.98,-45.77 -9.58,-2.33 -25.65,29.6 -27.62,37.15 -12.96,49.52 45.49,66.16 7.3,106.38 -4.49,4.73 -10.79,9.64 -15.91,12.17 -42.45,20.98 -105.59,-15.09 -132.51,-42.71 -20.81,-21.35 -30.75,-43.05 -22.66,-73.96 8.61,-32.9 68.99,-77.03 100.44,-88.4 14.34,-5.18 28.89,-7.95 45.5,-7.72 0,0 7.18,-6.38 15.38,-16.01 -64.55,-52.52 -94.93,-41.94 -108.49,-53.2 -10.41,-8.67 -16.43,-33.58 -11.98,-50.61 3.42,-13.04 15.99,-28.73 25.4,-37.84 5.39,-5.21 9.15,-8.38 15.44,-12.96 5.85,-4.27 10.2,-8.49 16.33,-11.46 6.23,-3.01 11.79,-5.12 18.42,-8.04 39.92,-17.59 89.11,-20.77 114.28,18.21 5.85,9.05 11.68,25.98 13.38,37.52 4.53,30.83 14.45,95.65 -16.99,123.4 5.96,6.48 5.22,6.56 7.28,14.93 24.61,0.34 46.33,-5.2 61.67,-25.37 26.86,-35.32 26.18,-45.4 66.15,-35.69 37.62,9.14 55.07,71.77 43.36,124.95z"/>
   <circle fill="white" stroke="var(--icon-color)" stroke-width="35" stroke-linecap="round" stroke-linejoin="round" stroke-miterlimit="22.9256" cx="36595.05" cy="1218.85" r="297.01"/>
   <path fill="white" stroke="var(--icon-color)" stroke-width="35" stroke-linecap="round" stroke-linejoin="round" stroke-miterlimit="22.9256" d="M36607.78 1189.28c41.81,10.15 28.68,66.17 -14.57,55.67 -24.07,-5.85 -24.23,-40.79 -6.25,-51.58 4.83,-2.91 13.58,-5.85 20.82,-4.09zm208.98 81.84l-2.81 10.74c-6.04,19.81 -16.46,37.6 -31.79,49.8 -37.78,30.09 -110.58,-1.65 -141.59,-25.51 -21.57,-16.59 -32.84,-24.83 -37.98,-45.77 -9.58,-2.33 -25.64,29.6 -27.62,37.15 -12.96,49.52 45.49,66.16 7.3,106.38 -4.49,4.73 -10.78,9.64 -15.91,12.18 -42.45,20.97 -105.59,-15.09 -132.51,-42.72 -20.81,-21.35 -30.75,-43.05 -22.66,-73.96 8.61,-32.9 68.99,-77.03 100.44,-88.4 14.34,-5.18 28.9,-7.95 45.51,-7.72 0,0 7.17,-6.38 15.37,-16 -64.55,-52.52 -94.93,-41.95 -108.48,-53.21 -10.42,-8.66 -16.44,-33.57 -11.99,-50.61 3.42,-13.04 15.99,-28.72 25.41,-37.84 5.38,-5.21 9.14,-8.38 15.43,-12.96 5.85,-4.26 10.2,-8.49 16.33,-11.46 6.23,-3.01 11.79,-5.11 18.43,-8.04 39.91,-17.59 89.1,-20.76 114.28,18.21 5.84,9.05 11.68,25.98 13.38,37.52 4.53,30.83 14.44,95.65 -17,123.41 5.96,6.48 5.22,6.55 7.28,14.92 24.61,0.34 46.33,-5.2 61.67,-25.37 26.86,-35.31 26.18,-45.39 66.15,-35.68 37.62,9.13 55.07,71.76 43.36,124.94z"/>
   <polyline fill="none" stroke="var(--icon-color)" stroke-width="35" stroke-linecap="round" stroke-linejoin="round" stroke-miterlimit="22.9256" points="35004.52,1635.88 35693.23,1286.74 36692.04,1795.01 35673.42,2313.38 34674.61,1805.1 34880.28,1702.29 "/>
   <polygon fill="white" stroke="var(--icon-color)" stroke-width="35" stroke-linecap="round" stroke-linejoin="round" stroke-miterlimit="22.9256" points="35077.16,1560.69 35542.97,1788.99 35542.31,2075.81 35076.94,1816.4 "/>
   <polygon fill="white" stroke="var(--icon-color)" stroke-width="35" stroke-linecap="round" stroke-linejoin="round" stroke-miterlimit="22.9256" points="35803.23,1794.07 36273.83,1554.58 36274.52,1827.35 35802.83,2075.49 "/>
   <polygon fill="white" stroke="var(--icon-color)" stroke-width="35" stroke-linecap="round" stroke-linejoin="round" stroke-miterlimit="22.9256" points="35542.97,1794.45 35803.23,1794.07 35802.83,2075.49 35542.31,2075.81 "/>
   <polygon fill="white" stroke="var(--icon-color)" stroke-width="35" stroke-linecap="round" stroke-linejoin="round" stroke-miterlimit="22.9256" points="35077.92,1438.32 35543.44,1201.43 35802.98,1201.54 36274.57,1427.57 36273.83,1554.58 35803.81,1793.76 35543.44,1794.71 35076.3,1556.99 "/>
   <path fill="none" stroke="var(--icon-color)" stroke-width="35" stroke-linecap="round" stroke-linejoin="round" stroke-miterlimit="22.9256" d="M36064.24 836.62c-185.76,0 -927.92,-14.07 -1113.68,-14.07 -43.98,0.99 -85.62,15.01 -118.74,46.98 -29.99,35.06 -33.1,66.34 -34.41,91.3 -0.01,222.76 1.46,374.62 1.6,483.1 0.82,72.62 23.57,146.01 90.4,187.89 12.88,7.41 40.13,21.42 70.89,36.62 41.32,20.41 88.98,42.97 116.72,54.61"/>
  </g>
  <g id="mobCond">
   <path fill="none" stroke="var(--icon-color)" stroke-width="35" stroke-linecap="round" stroke-linejoin="round" stroke-miterlimit="22.9256" d="M38582.02 599.19c0,0 -273.89,-163.86 -273.89,-163.86 159.12,-56.09 850.65,-334.74 850.65,-334.74 12.17,7.27 310.4,185.71 310.4,185.71 139.58,120.34 188.02,190.05 216.2,502.82l0 1158.49 -850.66 333.07c0,-391.42 0,-782.84 0,-1174.25 -25.72,-243.36 -64.94,-362.92 -252.7,-507.24z"/>
   <path fill="none" stroke="var(--icon-color)" stroke-width="35" stroke-linecap="round" stroke-linejoin="round" stroke-miterlimit="22.9256" d="M38834.72 2280.68l-526.59 -315.06 0 -1530.29 254.66 152.36c228.33,156.1 246.66,305.46 271.93,511.62l0 1181.37z"/>
   <line fill="none" stroke="var(--icon-color)" stroke-width="35" stroke-linecap="round" stroke-miterlimit="22.9256" x1="38965.85" y1="973.65" x2="39572.23" y2= "734.75" />
   <line fill="none" stroke="var(--icon-color)" stroke-width="35" stroke-linecap="round" stroke-miterlimit="22.9256" x1="38962.82" y1="1090.3" x2="39569.21" y2= "851.4" />
   <line fill="none" stroke="var(--icon-color)" stroke-width="35" stroke-linecap="round" stroke-miterlimit="22.9256" x1="38962.94" y1="1200.52" x2="39569.32" y2= "961.62" />
   <line fill="none" stroke="var(--icon-color)" stroke-width="35" stroke-linecap="round" stroke-miterlimit="22.9256" x1="38971.95" y1="1311.43" x2="39578.34" y2= "1072.53" />
   <line fill="none" stroke="var(--icon-color)" stroke-width="35" stroke-linecap="round" stroke-linejoin="round" stroke-miterlimit="22.9256" x1="38378.3" y1="1883.98" x2="38751.87" y2= "2109.02" />
   <line fill="none" stroke="var(--icon-color)" stroke-width="35" stroke-linecap="round" stroke-linejoin="round" stroke-miterlimit="22.9256" x1="38371.26" y1="1777.19" x2="38744.83" y2= "2002.23" />
   <line fill="none" stroke="var(--icon-color)" stroke-width="35" stroke-linecap="round" stroke-linejoin="round" stroke-miterlimit="22.9256" x1="38373.39" y1="1672.02" x2="38746.96" y2= "1897.05" />
  </g>
  <g id="homeCond">
   <path fill="white" stroke="var(--icon-color)" stroke-width="35" stroke-linecap="round" stroke-linejoin="round" stroke-miterlimit="22.9256" d="M41703.88 66.15l1368.04 0c12.3,0 22.37,10.05 22.37,22.35l0 920.79c0,12.3 -10.07,22.36 -22.37,22.36l-1368.04 0c-12.3,0 -22.36,-10.06 -22.36,-22.36l0 -920.79c0,-12.3 10.06,-22.35 22.36,-22.35z"/>
   <path fill="none" stroke="var(--icon-color)" stroke-width="35" stroke-linecap="round" stroke-linejoin="round" stroke-miterlimit="22.9256" d="M41334.26 1264.84l2068.22 0 0 540.18c0,61.96 -50.69,112.64 -112.64,112.64l-1842.94 0c-61.96,0 -112.64,-50.68 -112.64,-112.64l0 -540.18z"/>
   <circle fill="white" stroke="var(--icon-color)" stroke-width="35" stroke-linecap="round" stroke-linejoin="round" stroke-miterlimit="22.9256" cx="42383.34" cy="540.18" r="359.68"/>
   <line fill="none" stroke="var(--icon-color)" stroke-width="35" stroke-linecap="round" stroke-linejoin="round" stroke-miterlimit="22.9256" x1="41523.37" y1="1783.92" x2="43248.3" y2= "1783.92" />
   <path fill="white" stroke="var(--icon-color)" stroke-width="35" stroke-linecap="round" stroke-linejoin="round" stroke-miterlimit="22.9256" d="M42398.76 504.37c50.63,12.29 34.73,80.13 -17.65,67.41 -29.14,-7.07 -29.34,-49.39 -7.57,-62.46 5.86,-3.52 16.45,-7.08 25.22,-4.95zm253.07 99.11l-3.4 13.01c-7.31,23.98 -19.94,45.53 -38.5,60.31 -45.74,36.44 -133.91,-2 -171.47,-30.9 -26.11,-20.09 -39.76,-30.06 -45.99,-55.42 -11.6,-2.82 -31.05,35.84 -33.44,44.99 -15.7,59.97 55.09,80.11 8.83,128.83 -5.43,5.72 -13.06,11.67 -19.26,14.74 -51.42,25.4 -127.87,-18.28 -160.48,-51.73 -25.2,-25.85 -37.23,-52.14 -27.43,-89.56 10.42,-39.85 83.54,-93.29 121.63,-107.06 17.36,-6.28 34.99,-9.63 55.11,-9.35 0,0 8.69,-7.73 18.61,-19.38 -78.17,-63.6 -114.96,-50.8 -131.37,-64.44 -12.61,-10.49 -19.91,-40.66 -14.51,-61.28 4.13,-15.8 19.36,-34.79 30.76,-45.83 6.52,-6.31 11.08,-10.15 18.69,-15.7 7.08,-5.16 12.36,-10.28 19.78,-13.87 7.55,-3.65 14.27,-6.2 22.31,-9.74 48.33,-21.3 107.91,-25.15 138.4,22.05 7.08,10.96 14.14,31.47 16.2,45.44 5.49,37.34 17.49,115.83 -20.58,149.45 7.22,7.84 6.32,7.93 8.81,18.07 29.81,0.41 56.11,-6.3 74.68,-30.72 32.54,-42.77 31.71,-54.98 80.12,-43.22 45.56,11.07 66.69,86.91 52.5,151.31z"/>
   <path fill="none" stroke="var(--icon-color)" stroke-width="35" stroke-linecap="round" stroke-linejoin="round" stroke-miterlimit="22.9256" d="M41681.53 552.96c-192.9,0 -301.7,0 -494.6,0 -44.14,0 -78.22,1.75 -104.87,34.56 -20.4,25.19 -27.56,56.82 -27.56,102.52 -0.01,298.48 1.84,538.95 1.83,837.43 0,42.19 13.51,63.67 26.63,78.52 12.75,16.43 40.88,30.17 76.67,30.57l174.63 0.18"/>
   <path fill="none" stroke="var(--icon-color)" stroke-width="35" stroke-linecap="round" stroke-linejoin="round" stroke-miterlimit="22.9256" d="M41902.86 1840.78c-126.73,92.06 -56.29,192.49 12.24,245.09 57.93,44.45 76.95,160.22 -77.94,223.22"/>
   <path fill="none" stroke="var(--icon-color)" stroke-width="35" stroke-linecap="round" stroke-linejoin="round" stroke-miterlimit="22.9256" d="M42404.41 1846.8c-126.73,92.07 -56.29,192.49 12.24,245.09 57.93,44.46 76.95,160.23 -77.93,223.22"/>
   <path fill="none" stroke="var(--icon-color)" stroke-width="35" stroke-linecap="round" stroke-linejoin="round" stroke-miterlimit="22.9256" d="M42871.6 1838.93c-126.73,92.06 -56.29,192.49 12.24,245.09 57.93,44.45 76.95,160.22 -77.94,223.22"/>
  </g>
  <g id="engineering">
   <path fill="white" stroke="var(--icon-color)" stroke-width="35" stroke-miterlimit="22.9256" d="M44242.2 1045c471.94,39.66 996.08,184.08 1434.65,189.04 301.73,3.31 764.75,-224.07 589.59,-344.04 -43.63,-29.74 -104.43,-78.99 -211.51,-116 0,0 88.58,570.76 947.18,635.86 364.2,27.43 399.9,354.27 69.08,429.96 -531.1,137.81 -1291.54,52.21 -1922.12,51.22 -302.39,-281.9 -604.45,-564.13 -906.86,-846.04l-0.01 0z"/>
   <path fill="white" stroke="var(--icon-color)" stroke-width="35" stroke-miterlimit="22.9256" d="M45589.92 805.07c0,-42.31 31.07,-75.02 74.04,-76.35 61.8,-2.31 103.43,72.38 57.51,125.92 -40.65,47.59 -131.53,21.49 -131.53,-49.57l-0.02 0zm69.74 -342.05l11.24 0c12.56,1.65 24.78,8.26 33.38,19.84 9.58,12.55 9.25,24.12 9.25,45.27 0,36.35 0,72.71 0,109.06 15.21,1.33 44.95,19.17 54.86,27.11 40.65,32.05 42.64,55.84 59.82,99.47 7.93,19.5 13.88,38.34 20.82,58.83l165.25 474.58c14.21,40.32 26.44,79.98 40.98,118.65 3.63,9.92 6.28,19.17 9.92,29.74 3.63,11.24 6.94,18.51 10.58,29.41l19.49 60.15 -98.15 -111.71c-3.63,-4.29 -5.94,-5.94 -9.92,-10.9l-203.91 -234.64c-4.3,-4.62 -4.96,-6.61 -9.26,-11.57l-97.49 -112.36c-29.41,-34.7 -81.96,-92.54 -106.42,-124.26 -37.67,-48.25 -68.41,-67.43 -68.41,-139.46 0,-65.1 51.22,-138.15 115.34,-153.01 0,-36.35 0,-72.71 0,-109.06 0,-21.15 -0.32,-32.71 9.26,-45.28 8.59,-11.57 20.82,-18.17 33.37,-19.84l0 -0.02z"/>
   <path fill="white" stroke="var(--icon-color)" stroke-width="35" stroke-miterlimit="22.9256" d="M45222.43 1547.01c1.65,-0.99 400.56,-461.36 400.56,-461.36 0,0 -167.55,-216.14 -167.55,-216.14 0,0 -195.65,569.75 -233,677.5l-0.01 0z"/>
   <path fill="white" stroke="var(--icon-color)" stroke-width="35" stroke-linejoin="bevel" stroke-miterlimit="22.9256" d="M46054.92 774c231.01,85.6 386.67,300.08 552.57,352.31 280.58,93.85 421.7,180.44 577.03,327.84 -123.94,-78.33 -434.6,-21.48 -504.98,11.57 0,0 -238.94,-123.27 -369.82,-235.3 -218.45,-224.4 -204.57,-289.18 -254.8,-456.4l0 -0.02z"/>
  </g>
  <g id="engineeringPricing">
   <path fill="none" stroke="var(--icon-color)" stroke-width="35" stroke-miterlimit="22.9256" d="M49133.51 1329.43c259.65,0.68 320.67,123.39 595.91,157.97 270.16,33.55 409.48,-7.81 739.3,-48.48 316.26,-322.7 499.98,-496.93 932.51,-796.92 -391.85,-8.82 -516.25,-29.5 -833.87,45.76 -280.33,66.44 -496.59,63.04 -666.42,31.53 -230.84,-42.37 -343.04,-161.7 -547.78,-165.42"/>
   <path fill="white" stroke="var(--icon-color)" stroke-width="35" stroke-miterlimit="22.9256" d="M49441.97 834.19l2438.55 550.83 -1678.59 453.88 -759.97 -1004.71 0.01 0zm482.35 308.81l1233.85 253.88 -847.76 194.92 -386.09 -448.8z"/>
   <line fill="none" stroke="var(--icon-color)" stroke-width="35" stroke-miterlimit="22.9256" x1="50388.03" y1="1779.92" x2="50319.9" y2= "1702.98" />
   <line fill="none" stroke="var(--icon-color)" stroke-width="35" stroke-miterlimit="22.9256" x1="50604.64" y1="1725.68" x2="50536.84" y2= "1649.08" />
   <line fill="none" stroke="var(--icon-color)" stroke-width="35" stroke-miterlimit="22.9256" x1="50841.92" y1="1668.4" x2="50774.12" y2= "1591.78" />
   <line fill="none" stroke="var(--icon-color)" stroke-width="35" stroke-miterlimit="22.9256" x1="51050.72" y1="1606.03" x2="50982.59" y2= "1529.09" />
   <line fill="none" stroke="var(--icon-color)" stroke-width="35" stroke-miterlimit="22.9256" x1="51286.31" y1="1548.41" x2="51218.51" y2= "1471.79" />
   <line fill="none" stroke="var(--icon-color)" stroke-width="35" stroke-miterlimit="22.9256" x1="51496.47" y1="1481.29" x2="51428.67" y2= "1404.67" />
   <line fill="none" stroke="var(--icon-color)" stroke-width="35" stroke-miterlimit="22.9256" x1="50100.93" y1="1700.6" x2="50220.59" y2= "1669.08" />
   <line fill="none" stroke="var(--icon-color)" stroke-width="35" stroke-miterlimit="22.9256" x1="49987.37" y1="1560.95" x2="50107.03" y2= "1529.76" />
   <line fill="none" stroke="var(--icon-color)" stroke-width="35" stroke-miterlimit="22.9256" x1="49889.41" y1="1416.2" x2="50009.07" y2= "1384.67" />
   <line fill="none" stroke="var(--icon-color)" stroke-width="35" stroke-miterlimit="22.9256" x1="49779.58" y1="1280.95" x2="49898.9" y2= "1249.77" />
   <line fill="none" stroke="var(--icon-color)" stroke-width="35" stroke-miterlimit="22.9256" x1="49674.84" y1="1137.91" x2="49794.16" y2= "1106.38" />
   <line fill="none" stroke="var(--icon-color)" stroke-width="35" stroke-miterlimit="22.9256" x1="49579.59" y1="1003" x2="49699.25" y2= "971.48" />
   <path fill="white" fill-rule="nonzero" stroke="var(--icon-color)" stroke-width="35" stroke-miterlimit="22.9256" d="M48863.35 719.29c-48.13,0 -93.9,5.76 -136.94,17.96 -43.05,12.21 -90.85,31.53 -143.04,58.64l-84.75 -227.79c52.54,-33.55 114.23,-59.66 185.42,-77.63 71.18,-18.3 141.02,-27.45 209.48,-27.45 86.09,0 156.94,11.53 212.88,34.58 55.59,22.71 99.66,51.53 131.85,86.44 32.21,34.91 54.91,73.21 67.46,114.9 12.87,41.69 19.32,81.36 19.32,118.98 0,37.63 -5.77,72.21 -17.29,103.72 -11.18,31.53 -25.76,61.02 -43.39,87.8 -17.28,26.78 -37.63,52.21 -60.34,76.61 -22.72,24.08 -45.09,46.78 -66.44,68.48 -16.27,15.94 -32.88,33.22 -50.51,51.18 -17.28,18.31 -33.22,37.28 -47.45,57.63 -13.9,20 -25.76,41.35 -35.26,63.39 -9.14,22.37 -13.9,44.75 -13.9,67.45 0,5.42 0,13.56 0,24.41 0,10.5 0.68,20 2.04,28.13l-266.09 0c-2.72,-13.55 -4.41,-28.48 -5.09,-45.42 -0.68,-16.6 -1.01,-31.18 -1.01,-43.39 0,-37.63 4.74,-71.52 14.23,-101.7 9.15,-30.17 21.69,-58.3 37.28,-84.74 15.26,-26.1 33.22,-50.51 53.22,-73.55 20.35,-22.72 41.01,-44.75 62.71,-66.44 30.85,-30.85 58.99,-61.36 84.41,-91.53 25.76,-30.5 38.3,-65.08 38.3,-104.07 0,-32.2 -12.21,-59.66 -37.28,-82.36 -24.74,-23.05 -61.35,-34.23 -109.83,-34.23l0.01 0zm187.45 1013.51c0,59.32 -18.99,104.75 -57.28,136.94 -38.31,32.54 -81.69,48.48 -130.17,48.48 -48.13,0 -91.53,-15.94 -129.83,-48.48 -38.31,-32.21 -57.63,-77.62 -57.63,-136.94 0,-58.98 19.32,-104.75 57.63,-136.94 38.3,-32.21 81.68,-48.48 129.83,-48.48 48.48,0 91.86,16.27 130.17,48.48 38.3,32.21 57.28,77.96 57.28,136.94z"/>
  </g>
 </g>
</svg>
