<?xml version="1.0" encoding="UTF-8"?>
<!DOCTYPE svg PUBLIC "-//W3C//DTD SVG 1.1//EN" "http://www.w3.org/Graphics/SVG/1.1/DTD/svg11.dtd">
<!-- Creator: CorelDRAW 2017 -->
<svg xmlns="http://www.w3.org/2000/svg" xml:space="preserve" width="55mm" height="45mm" version="1.1" style="shape-rendering:geometricPrecision; text-rendering:geometricPrecision; image-rendering:optimizeQuality; fill-rule:evenodd; clip-rule:evenodd"
viewBox="0 0 5500 4500"
 xmlns:xlink="http://www.w3.org/1999/xlink">
 <defs>
  <style type="text/css">
   <![CDATA[
    .str0 {stroke:black;stroke-width:20;stroke-miterlimit:22.9256}
    .fil1 {fill:black}
    .fil0 {fill:#71E2FF}
   ]]>
  </style>
 </defs>
 <g id="Слой_x0020_1">
  <metadata id="CorelCorpID_0Corel-Layer"/>
  <path class="fil0 str0" d="M2745.36 1611.25c270.34,0 496.77,236.34 488.83,531.82 -7.94,295.48 -263.46,289.73 -270.54,576.8 0,0 -411.11,98.09 -411.11,98.09 -14.81,-370.9 -295.33,-361.35 -296.67,-717.22 -1.02,-270.33 219.15,-489.49 489.49,-489.49z"/>
  <path class="fil1" d="M2228.93 2105.1c0,336.86 221.61,357.32 267.58,581.22 10.12,49.31 1.15,67.6 36.71,91.41l31.72 -8.99c29.87,-112.29 -75.42,-282.56 -124.39,-322.73 -120.17,-98.58 -139.55,-230.1 -139.55,-372.94 0,-125.08 69.57,-225.82 134.05,-290.35 277.89,-278.05 762.79,-69.85 762.79,330.39 0,316.81 -264.25,326.66 -264.25,576.54l-379.93 92.51c-94.74,22.81 -53.27,75.65 -36.46,75.65 50.74,0 363.29,-84.62 432.94,-103.57 67.22,-18.3 37.61,-56.86 61.13,-123.04 57.75,-162.47 250.63,-234.12 250.63,-478.05 0,-171.7 -22.28,-284.02 -146.07,-406.46 -47.93,-47.41 -71.92,-71.1 -136.66,-103.56 -104.85,-52.56 -159.41,-50.51 -269.79,-50.51 -146.86,0 -264.33,81.08 -338.48,157.98 -72.77,75.48 -141.97,209 -141.97,354.5z"/>
  <path class="fil1" d="M2573.26 2281.26c0,33.37 60.46,140.73 71.66,288.68 3.79,50.06 -1.93,67.33 8.41,111.7 48.13,0 62.7,-0.74 64.61,-48.02 0.71,-17.64 -7.44,-84.01 -10.66,-110.02 -6.81,-55.03 -24.71,-142.03 -45.94,-186.28 56.05,14.97 25.49,56.05 80.07,56.05 30.52,0 31.31,-37.16 72.07,-48.05 -23.74,101.9 -68.27,215.13 -40.04,336.32 47.86,3.98 54.57,12.35 56.32,-55.77 1.79,-69.73 18.6,-166.22 38.67,-225.6 11.59,-34.31 66.96,-143.03 1.1,-143.03 -71.75,0 -87.16,20.62 -128.12,48.05 -55.81,-37.38 -54.36,-48.05 -136.12,-48.05 -15.47,0 -32.03,14.28 -32.03,24.02z"/>
  <path class="fil1" d="M2501.19 3114.05c0,61.03 61.35,32.76 115.31,19.22l269.05 -67.27c35.98,-8.98 112.1,-16.28 112.1,-56.05 0,-70.03 -169.61,0.38 -270.64,25.64 -56.75,14.18 -225.82,42.27 -225.82,78.46z"/>
  <path class="fil1" d="M2501.19 2961.9c0,53.8 4.88,50 144.23,16.11 40.04,-9.74 84.01,-21.1 121.63,-30.51 236.5,-59.13 238.78,-44.24 222.6,-113.72 -93.07,0 -321.29,70.81 -439.15,97.36 -24.44,5.5 -49.31,2.37 -49.31,30.76z"/>
  <path class="fil1" d="M3237.88 2489.46c0,22.01 4.06,28.85 15.02,41.03 5.13,5.71 24.17,18.95 34.99,29.07 22.1,20.68 45.87,40.43 68.98,59.14 22.11,17.9 78.74,74.29 106.79,74.91 24.23,0.54 30.46,-11.68 30.46,-35.99 0,-28.41 -132.85,-124.02 -162.01,-150.29 -16.84,-15.16 -34.62,-41.89 -62.2,-41.89 -15.47,0 -32.03,14.28 -32.03,24.02z"/>
  <path class="fil1" d="M2749.42 3194.12c-65.64,0 -152.14,-87.48 -152.14,-8.01 0,44.31 91.75,72.07 160.15,72.07 43.08,0 144.13,-43.59 144.13,-80.07 0,-68.21 -85.23,-5.31 -85.33,-5.26 -12.09,6.68 -53.71,21.27 -66.81,21.27z"/>
  <path class="fil1" d="M3357.99 2065.06c49.35,11.5 251.92,17.24 276.31,-4.64 23.52,-21.1 3.96,-28.31 3.96,-51.41 -71.91,-16.75 -171.75,-8.01 -248.24,-8.01 -43.87,0 -37.14,42.71 -32.03,64.06z"/>
  <path class="fil1" d="M1852.58 2033.03c0,61.36 68.43,40.04 224.21,40.04 32.59,0 43.07,-12.65 56.05,-32.03 -5.41,-20.28 -15.47,-40.04 -40.04,-40.04l-208.19 0c-18.74,0 -32.03,13.29 -32.03,32.03z"/>
  <path class="fil1" d="M3157.8 1656.68c0,105.96 135.46,-41.63 175,-73.24 13.7,-10.95 23.12,-15.1 36.02,-28.66 23.77,-24.98 26.9,-66.26 -18.84,-66.26 -20.65,0 -80.53,62.63 -98.45,77.71 -20.96,17.62 -27.16,20.39 -47.67,40.42 -11.45,11.18 -14.34,12.04 -25.82,22.22 -13.89,12.33 -20.24,3.88 -20.24,27.81z"/>
  <path class="fil1" d="M2317.02 1688.71c1.77,-21.27 12.61,-32.24 -19.32,-60.39 -31.61,-27.86 -137.46,-131.79 -172.87,-131.79 -37.07,0 -31.79,40.88 -14.44,61.8 10.34,12.47 19.63,15.77 31.58,25.16l94.78 81.41c69.94,55.15 48.98,23.81 80.27,23.81z"/>
  <path class="fil1" d="M2717.39 1264.31l0 224.21c0,37.07 64.06,37.42 64.06,-24.02 0,-124.5 20.91,-224.21 -40.04,-224.21 -18.45,0 -24.02,5.57 -24.02,24.02z"/>
  <path class="fil1" d="M1988.71 2641.6c0,21.63 3.82,22.08 8.01,40.04 68.92,0 45.31,-7.48 126.94,-73.24 63.3,-51 105.27,-74.53 105.27,-118.94 0,-54.5 -66.26,-7.39 -89.98,14.12l-103.4 88.78c-8.48,6.73 -46.84,41.13 -46.84,49.24z"/>
 </g>
</svg>
