<?xml version="1.0" encoding="UTF-8"?>
<!DOCTYPE svg PUBLIC "-//W3C//DTD SVG 1.1//EN" "http://www.w3.org/Graphics/SVG/1.1/DTD/svg11.dtd">
<!-- Creator: CorelDRAW 2017 -->
<svg xmlns="http://www.w3.org/2000/svg" xml:space="preserve" width="82.0208mm" height="47.6248mm" version="1.1" shape-rendering="geometricPrecision" text-rendering="geometricPrecision" image-rendering="optimizeQuality" fill-rule="evenodd" clip-rule="evenodd"
viewBox="0 0 8202.08 4762.48"
 xmlns:xlink="http://www.w3.org/1999/xlink">
 <g id="Слой_x0020_1">
  <metadata id="CorelCorpID_0Corel-Layer"/>
  <g id="_543505219152">
   <path fill="#F0EDED" d="M260.55 899.58c2554.56,0 5109.11,0 7663.67,0 60.45,701.39 234.64,1502.55 0,2801.31 -2554.56,0 -5022.36,0 -7576.91,0 -252.02,-1064.13 -330.09,-1737.18 -86.76,-2801.31z"/>
   <path fill="#E3E0E0" d="M260.55 899.58c2554.56,0 5109.11,0 7663.67,0 39.35,467.18 109.12,795.32 118.06,1401.54l-7923.89 3.57c0,0 -75.1,-401.81 142.16,-1405.11z"/>
   <polygon fill="white" points="977,3066.1 7329.06,3066.1 7393.08,2737.61 843.62,2747.77 "/>
   <polygon fill="white" points="977,3066.1 7329.06,3066.1 7393.08,2737.61 843.62,2747.77 "/>
   <polygon fill="white" points="977,3066.1 7329.06,3066.1 7393.08,2737.61 843.62,2747.77 "/>
   <polygon fill="gray" points="977,3066.1 7216.95,3066.1 7307.57,2737.73 7416.05,2737.86 7311.01,3157.53 1024.09,3163.21 "/>
  </g>
 </g>
</svg>
