<?xml version="1.0" encoding="UTF-8"?>
<!DOCTYPE svg PUBLIC "-//W3C//DTD SVG 1.1//EN" "http://www.w3.org/Graphics/SVG/1.1/DTD/svg11.dtd">
<!-- Creator: CorelDRAW 2017 -->
<svg xmlns="http://www.w3.org/2000/svg" xml:space="preserve" width="55mm" height="45mm" version="1.1" style="shape-rendering:geometricPrecision; text-rendering:geometricPrecision; image-rendering:optimizeQuality; fill-rule:evenodd; clip-rule:evenodd"
viewBox="0 0 5500 4500"
 xmlns:xlink="http://www.w3.org/1999/xlink">
 <defs>
  <style type="text/css">
   <![CDATA[
    .str0 {stroke:black;stroke-width:35;stroke-miterlimit:22.9256}
    .fil2 {fill:none}
    .fil1 {fill:#71E2FF}
    .fil0 {fill:white}
   ]]>
  </style>
 </defs>
 <g id="Слой_x0020_1">
  <metadata id="CorelCorpID_0Corel-Layer"/>
  <rect class="fil0 str0" x="3107.21" y="782.3" width="1364.92" height="2263.26" rx="18.22" ry="52.41"/>
  <circle class="fil1 str0" cx="3795.15" cy="1353.46" r="398.7"/>
  <path class="fil0 str0" d="M3812.24 1313.77c56.12,13.62 38.5,88.82 -19.56,74.72 -32.31,-7.84 -32.53,-54.75 -8.4,-69.24 6.5,-3.9 18.24,-7.85 27.96,-5.48zm280.52 109.86l-3.77 14.41c-8.1,26.59 -22.1,50.48 -42.67,66.86 -50.71,40.39 -148.44,-2.22 -190.07,-34.25 -28.95,-22.27 -44.07,-33.33 -50.98,-61.43 -12.86,-3.13 -34.42,39.73 -37.07,49.86 -17.4,66.48 61.06,88.81 9.79,142.81 -6.02,6.34 -14.47,12.94 -21.35,16.34 -56.99,28.16 -141.74,-20.26 -177.88,-57.34 -27.94,-28.66 -41.27,-57.79 -30.41,-99.28 11.56,-44.17 92.61,-103.41 134.82,-118.67 19.25,-6.96 38.79,-10.67 61.08,-10.36 0,0 9.64,-8.57 20.64,-21.49 -86.65,-70.5 -127.43,-56.3 -145.62,-71.42 -13.98,-11.63 -22.07,-45.07 -16.09,-67.93 4.59,-17.51 21.46,-38.57 34.1,-50.81 7.23,-6.99 12.28,-11.24 20.72,-17.39 7.85,-5.73 13.7,-11.4 21.92,-15.38 8.37,-4.05 15.82,-6.87 24.73,-10.79 53.58,-23.62 119.62,-27.88 153.41,24.44 7.85,12.15 15.68,34.88 17.96,50.36 6.08,41.39 19.39,128.4 -22.81,165.66 8,8.7 7.01,8.8 9.77,20.04 33.03,0.45 62.2,-6.99 82.78,-34.06 36.06,-47.41 35.14,-60.94 88.81,-47.9 50.5,12.26 73.92,96.33 58.19,167.72z"/>
  <circle class="fil1 str0" cx="3795.26" cy="2275.22" r="398.7"/>
  <path class="fil0 str0" d="M3812.35 2235.53c56.12,13.62 38.5,88.82 -19.56,74.72 -32.31,-7.84 -32.53,-54.75 -8.4,-69.24 6.5,-3.9 18.24,-7.85 27.96,-5.48zm280.52 109.86l-3.77 14.41c-8.1,26.59 -22.1,50.48 -42.67,66.86 -50.71,40.39 -148.44,-2.22 -190.07,-34.25 -28.95,-22.27 -44.07,-33.33 -50.98,-61.43 -12.86,-3.13 -34.42,39.73 -37.07,49.86 -17.4,66.48 61.06,88.81 9.79,142.81 -6.02,6.34 -14.47,12.94 -21.35,16.34 -56.99,28.16 -141.74,-20.26 -177.88,-57.34 -27.94,-28.66 -41.27,-57.79 -30.41,-99.28 11.56,-44.17 92.61,-103.41 134.82,-118.67 19.25,-6.96 38.79,-10.67 61.08,-10.36 0,0 9.64,-8.57 20.64,-21.49 -86.65,-70.5 -127.43,-56.3 -145.62,-71.42 -13.98,-11.63 -22.07,-45.07 -16.09,-67.93 4.59,-17.51 21.46,-38.57 34.1,-50.81 7.23,-6.99 12.28,-11.24 20.72,-17.39 7.85,-5.73 13.7,-11.4 21.92,-15.38 8.37,-4.05 15.82,-6.87 24.73,-10.79 53.58,-23.62 119.62,-27.88 153.41,24.44 7.85,12.15 15.68,34.88 17.96,50.36 6.08,41.39 19.39,128.4 -22.81,165.66 8,8.7 7.01,8.8 9.77,20.04 33.03,0.45 62.2,-6.99 82.78,-34.06 36.06,-47.41 35.14,-60.94 88.81,-47.9 50.5,12.26 73.92,96.33 58.19,167.72z"/>
  <path class="fil0" d="M2763.3 2100.1c288.37,62.42 384.6,121.71 636.82,278.59 99.65,61.97 313.87,321.32 397.31,333.11 273.58,38.66 431.29,282.94 329.7,508.96 -176.5,392.64 -835.86,616.38 -1687.13,432.08 -851.26,-184.31 -1476.08,-676.58 -1395.57,-1099.51 80.51,-422.93 867.64,-637.48 1718.87,-453.23z"/>
  <polygon class="fil0 str0" points="1217.32,3062.19 2584.69,2366.35 3925.46,3048.65 2558.09,3744.49 "/>
  <polygon class="fil0 str0" points="1757.68,2734.1 2382.97,3040.57 2382.09,3425.59 1757.4,3077.36 "/>
  <polygon class="fil0 str0" points="2732.34,3047.38 3364.06,2725.89 3364.98,3092.06 2731.81,3425.16 "/>
  <polygon class="fil0 str0" points="2382.97,3047.9 2732.34,3047.38 2731.81,3425.16 2382.09,3425.59 "/>
  <polygon class="fil0 str0" points="1758.7,2569.84 2383.61,2251.83 2732.01,2251.98 3365.06,2555.4 3364.06,2725.89 2733.12,3046.97 2383.6,3048.25 1756.53,2729.13 "/>
  <ellipse class="fil0" transform="matrix(0.0753559 -0.534637 0.687201 0.0968595 1579.49 2890.31)" rx="177.27" ry="153.46"/>
  <path class="fil2 str0" d="M3107.21 1763.04c-249.35,0 -1270.11,-19.8 -1519.47,-19.8 -59.04,1.32 -114.93,20.15 -159.39,63.06 -40.26,47.06 -44.43,89.06 -46.19,122.56 -0.02,299.03 1.95,502.89 2.14,648.5 1.1,97.48 31.65,196 121.35,252.22 40.51,23.32 186.89,95.22 251.84,122.47"/>
 </g>
</svg>
