<?xml version="1.0" encoding="UTF-8"?>
<!DOCTYPE svg PUBLIC "-//W3C//DTD SVG 1.1//EN" "http://www.w3.org/Graphics/SVG/1.1/DTD/svg11.dtd">
<!-- Creator: CorelDRAW 2017 -->
<svg xmlns="http://www.w3.org/2000/svg" xml:space="preserve" width="52.9166mm" height="52.9166mm" version="1.1" shape-rendering="geometricPrecision" text-rendering="geometricPrecision" image-rendering="optimizeQuality" fill-rule="evenodd" clip-rule="evenodd"
viewBox="0 0 5291.66 5291.66"
 xmlns:xlink="http://www.w3.org/1999/xlink">
 <defs>
   <clipPath id="id0">
    <path d="M-0 -0.01l5291.68 0 0 5291.67 -5291.68 0 0 -5291.67z"/>
   </clipPath>
 </defs>
 <g id="Слой_x0020_1">
  <metadata id="CorelCorpID_0Corel-Layer"/>
  <polygon fill="#E0E0E0" points="-0,-0.01 5291.68,-0.01 5291.68,5291.66 -0,5291.66 "/>
  <g clip-path="url(#id0)">
   <g id="_869250029072">
    <g>
     <path id="1" fill="#D9D9D9" d="M-873.92 2206.08l3432.03 -637.3c-44.07,-110.25 -51.7,-751.86 -28.8,-861.67 816.46,-131.77 2462.62,-298.43 3413.89,-405.83 17.21,52.55 419.99,1286.08 418.39,1364.39 0.11,-6.86 -914.4,98.79 -1554.4,157.46 -53.98,4.94 -58.13,-83.49 -111.64,-78.73 -172.17,15.32 -241.03,26.36 -391.12,41.3 -32.88,3.27 60.52,110.43 28.52,112.98 -610.3,48.82 -910.87,75.61 -1520.43,156.27 -17.14,1.97 -70.79,-36.32 -98.4,-84.46l-3458.68 652.85 -129.36 -417.26z"/>
     <path fill="#CCCACA" d="M-860.69 2259l3467.83 -643.93c-5.94,-14.86 -9.33,-23.62 -9.33,-23.62 -27.67,-75.85 -49.05,-745.64 -30.47,-834.73 816.46,-131.77 2437.82,-295.12 3389.09,-402.52 17.21,52.55 358.81,1190.17 357.21,1268.48 0.11,-6.86 -846.59,111.18 -1486.61,169.86 -53.99,4.96 -68.69,-80.56 -122.38,-77.9 -169.03,8.38 -293.92,30.18 -447.35,42.53 -32.98,2.65 49.39,96.33 17.35,98.89 -333.41,26.69 -648.66,51.45 -774.92,58.67l-685.54 77.38c-17.14,1.97 -42.69,-31.35 -70.3,-79.49l-3504.99 661.11 -99.59 -314.73z"/>
     <path fill="#4C556A" d="M3621.71 5551.7c93.68,-92.36 135.47,-794.17 66.46,-1109.85 -82.61,-334.92 -155.47,-648.26 -280.39,-924.2 -105.17,-232.27 -279.87,-371.49 -425.49,-618.19 -10.29,-22.24 -25.36,-36.9 -42.19,-46.34 -48.43,-27.19 -111.44,-11.37 -116.79,-9.75 -77.85,23.53 -158.72,95.55 -217.57,118.31 -141.13,54.63 -429.55,115.44 -450.68,180.66 1.75,240.82 16.84,353.47 -64.61,530.51 -29.86,127.71 28.8,209.31 32.61,323.09 2.63,78.5 -0.15,158.42 -33.01,225.72l-64.31 -2.97c24.26,52.38 195.56,1240.11 180.62,1360.7l85.3 0c217.3,0 1300.48,1.42 1330.05,-27.69z"/>
     <polygon fill="white" points="-854.07,2302 2905.75,1603.85 2968.61,1832.53 -791.22,2530.68 "/>
     <path fill="#D6B19F" d="M619.44 1990.97c-14.18,8.77 -15.33,26.85 -25.85,28.96 -17.35,0.65 -21.59,-17.06 -49.43,-14.16 -23.07,17.68 -12.28,31.78 -20.87,50.42 -14.21,36.63 -36.63,20.42 -49.34,36.06 -24.07,24.53 -32.67,58.1 -42.17,95.57 -13.79,54.36 12.55,115.3 10.42,204.75 19.56,69.2 51.12,115.92 103.67,175.38l286.52 243.14 57.49 -340.41c-123.82,-37.51 -206.95,6.37 -270.77,-78.18l93.64 -18.43c42.83,-23.37 70.83,-11.41 94.61,-81.43 6.48,-19.08 1.47,-50.87 -5.19,-70.87l-46.61 8.66c-18.43,3.41 -13.78,44.79 -41.96,41.07 -13.75,-1.8 -20.22,-13.64 -14.46,-44.16 13.47,-71.41 27.51,-153.98 20.68,-210.96 -22.29,-74.93 -45.12,-10.67 -59.63,-8.61 -10.34,1.46 -20.29,-29.38 -40.75,-16.8z"/>
     <path fill="#D6B19F" d="M2000.75 1604.85c185.47,0 335.82,152.36 335.82,340.31 0,187.94 -71.82,590 -326.22,488.09 -25.52,-10.22 -63.2,-25.42 -84.67,-12.91 -125.54,73.12 -142.87,-113.33 -186.58,-170.17 -56.93,-74.05 -40.43,-194.87 -63.66,-290.02 -7.57,-30.99 -10.44,-13.06 -7.06,-42.35 16.55,-143.24 178.41,-312.95 332.37,-312.95z"/>
     <path fill="#52320E" d="M2079.2 1469.19c198.71,0 349.61,158.02 374.64,380.73 10.98,97.74 -28.38,243.53 -87.06,320.17 -76.29,99.61 -108.56,171.23 -219.4,183.11 -22.84,2.44 -110.92,19.31 -126.53,2.1 -27.19,-29.98 -49.83,-109.8 -119.38,-197.36 -15,-18.88 -10.76,-131.46 -60.15,-137.49 -21.3,-2.61 -27.45,23.42 -34.71,23.93 -8.64,0.61 -13.06,-6.62 -9.68,-32.18 25.22,-190.85 -149.17,-199.19 -147.92,-216.12 2.37,-32.09 -8.18,-89.66 -3.92,-111.08 12.67,-63.63 94.18,-68.81 113.2,-97.73 16.72,-25.45 16,-62.17 54.31,-83.29 81.44,-44.9 144.93,-34.79 266.6,-34.79z"/>
     <path fill="#D18710" d="M2843.31 2841.86l-84.06 -390.68 -103.9 -178.89c100.78,-10.34 213.37,73.6 235.59,162.86 1.35,5.43 50.27,413.62 50.93,419.09 -34.39,19.07 -58.72,-6.25 -98.56,-12.38zm-840.16 -470.19c-38.43,10.86 -1.62,8.21 -37.43,22.52 -13.64,5.45 -34.4,6.67 -53.31,10.22l2.51 34.18c60.43,131.07 365.96,564.03 364.77,628.62 -26.34,23.42 -72.63,38 -106.07,51.74l-228.9 -343.02c-125.16,-207.74 -158.95,-232.35 -72.11,-334.45 -12.43,-36.41 6.25,0.08 -25,-13.39 -1.3,-0.55 -4.22,-1.3 -5.53,-1.98 -31.06,-16.04 -53.76,-70.33 -65.05,-104.35 -16.38,-56.59 -45.2,-64.51 -57.12,-117.31 -25.55,16.55 -9.86,-8.46 -18.93,35.62 -0.76,3.74 -1.63,41.91 -1.54,47.88 0.48,30.97 3.42,61.65 5.67,92.46 8.63,59.16 21.98,50.87 46.49,71.11 -48.38,36.84 -244.69,29.94 -335.29,53.48 -242.06,62.87 -230.29,8.61 -317.62,-12.65 -56.34,-13.71 -120.24,-7.08 -165.71,-28 -42.37,-19.49 -82.67,-40.41 -136.5,-28.02 -81.31,18.74 -150.49,114.8 -155.5,229.89 3.64,53.69 22.53,137.37 40.27,182.86 40.52,103.83 79.61,90.64 127.41,103.77 36.04,9.9 36.91,25.07 76.7,37.66 37.58,11.88 59.46,0.71 86.6,29.01 98.98,103.19 53.16,113.5 242.11,108.57 60.29,-1.56 390.14,115.42 436.06,153.93 164.77,138.21 275.72,646.24 375.61,936.67l0 0 64.31 2.97c32.86,-67.3 63.42,-132.67 60.79,-211.17 -3.82,-113.78 -45.27,-106.73 -15.41,-234.45 24.46,-104.67 -21,24.33 5.57,-213.89 5.78,-51.8 23.18,-180.96 15.45,-228.22l-1.39 -191.59c21.13,-65.22 309.55,-126.03 450.68,-180.66 52.75,-20.42 106.71,-54.86 148.68,-62.17 14.62,-27.17 152.23,-128.19 227.87,-0.05 90.14,152.71 107.32,183.36 207.6,310.77 73.99,93.99 179.02,237.37 224.59,356.17 16.9,-53.92 -14.16,-114.24 -27.02,-196.1 -7.36,-46.73 -24.83,-133.56 -31.71,-182.27 -12.56,-88.97 -34.35,-116.79 -48.93,-191.81 -19.78,-101.74 -21.73,-145.54 -50.25,-244.81 -24.7,-85.97 -65.93,-129.05 -101.06,-207.52 -66.26,-148 -67.87,-294.42 -238.66,-355.6 -112.15,-40.17 -287.38,-45.84 -377.61,5.01 -104.71,30.87 -147.93,-40.24 -187.01,-19.31 -35.37,18.94 -62.37,76.66 -107.67,101.21 -64.92,35.17 -150.78,56.32 -210.35,67.09 -14.9,2.68 -15.45,22.39 -31.06,29.38z"/>
     <path fill="#D6B19F" d="M837.11 1966.7l-43.15 -1.69c-43.91,175.65 207.05,83.44 245.39,186.69 -3.27,1.22 -95.14,17.47 -100.8,59.95 11.47,67.55 47.6,50.47 103.38,46.95 255.65,-16.15 155.86,-29.92 254.68,-80.73 62.49,-32.14 235.62,49.93 304.75,78.7 107.97,44.97 61.73,25.26 103.75,123.84 -2.25,-30.81 -5.19,-61.49 -5.67,-92.46 -0.09,-5.97 0.78,-44.14 1.54,-47.88 9.07,-44.08 -6.62,-19.07 18.93,-35.62 -21.95,-62.33 -20.31,-128.28 -54.99,-180.7 -56.48,-9.44 -109.34,-5.48 -155.07,-45.62 -172.43,-14.44 -128.4,-71.38 -205.84,-104.75 -62.93,-27.12 -152.79,-76.21 -194.88,-70.58l-20.81 52.05c-41.07,-16.11 -62.09,-30.98 -95.02,-35.5 -58.95,73.43 -6.04,23.23 -93.79,63.03 -17.57,10.91 -55,99.69 -62.4,84.32z"/>
     <path fill="#4C556A" d="M1873.36 2421.99c-40.48,14.18 -104.33,18.63 -123.38,30.7 -37.24,23.58 82.38,162.09 176.74,318.74l246.9 347.52c33.44,-13.74 90.21,-32.11 116.55,-55.52 0.59,-32.03 -279.11,-536.31 -376.5,-641.93 -13.3,-14.43 -35.04,-1.5 -40.31,0.49z"/>
     <path fill="#4C556A" d="M2824.8 2848.41c37.58,-11.11 85.72,-8.75 117.07,5.83 -11.74,-99.06 5.88,-341.45 -52.65,-457.82 -26.12,-51.96 -125.86,-190.05 -200.85,-238.99 0,0 -76.32,7.1 -112.33,19.67l110.26 172.63c107.27,156.51 78.47,297.34 138.5,498.68z"/>
     <g>
      <path fill="#D3D6DE" d="M2801.17 1833.2c24.14,-28.18 89.84,-24.74 148.29,-24.87l-70.59 -77.18c7.08,-66.91 4.95,-47.44 -19.99,-99.82l-5.27 -74.31 3144.34 -339.38 13.83 43.47c1.24,2.96 2.31,6.54 3.01,9.14l9.61 154.76c-200.63,23.95 -383.35,40.58 -580.38,57.95l-877.67 92.37c-25.26,3.57 -43.74,5.13 -68.34,4.78 -30.32,-0.44 -11.33,-8.59 -39.58,16.64 -136.9,-2.74 -260.18,17.33 -394.32,31.95 -78.03,8.5 -108,26.37 -191.13,23.93l-569.74 52.92c-65.67,7.81 -128.5,21.61 -188.13,24.67l-205.94 34.05 40.29 44.06c76.43,2.17 148.88,-32.38 217.68,-41.31l227.22 -19.77c64,-9.78 5.79,-15.16 91.83,-15.05 10.42,0 18.56,-0.28 28.65,-2.24l829.42 -87.48c132.54,-8.17 132.78,-23.11 173.19,-26.13 142.38,-10.66 284.73,-19.69 421.97,-40.4 130.28,-19.68 281.03,-18.87 419.74,-40.53 136.06,-21.25 285.64,-28.32 416.09,-43.65l209.24 -12.69c44.24,-4.12 5.12,-19.68 80.04,-20.5 88.44,-0.98 -5.8,-12.59 72.98,-27.88 4.12,5.5 9.82,22.55 12.59,29.48 14.04,42.84 -6.45,-7.26 3.93,19l29.59 -120.44 -42.22 -233.36c-5.7,-31.56 -49.15,-9.24 -88.73,40.48 18.95,-28.51 29.4,-17.47 38.76,-48.71 -24.05,-24.47 -4.96,-7.72 -57.69,-28.46 -18.64,-7.33 12.96,0.2 -18.84,-7.41 16.73,42.64 17.32,22.62 11.25,74.19 -37.53,-15.92 -15.61,-43.33 -37.53,-18.71l-23.82 -43.23c-52.59,-2.7 -103.62,14.96 -137.76,19.7 -38.77,5.37 -31.84,-18.96 -95.3,-4.95 -2.16,0.48 -4.6,1.42 -6.73,1.98 -69.58,18.07 -65.42,6.63 -102.57,14.85 -36.78,8.14 -2.66,13.34 -51.91,19.28 -37.54,4.53 -43.82,-83.83 -134.75,-48.99 -1.42,81.2 99.02,105.38 87.21,136.47 -947.21,89.13 -1885.06,138.16 -2819.06,308.81 -71.87,13.13 83.86,222.79 97.24,292.52z"/>
      <path fill="#A4A4AD" d="M2806.09 1797.74c16.39,25.95 32.27,87.06 38.13,125.7 91.13,-28.98 1189.99,-151.66 1328.93,-134.14 -11.59,-38.52 -31.56,-44.43 -12.19,-86.93l453.84 -48.05c50.01,-7.78 131.92,-23.77 179.16,10.74l52.65 45.42c0,0 1163.32,-134.6 1365.35,-145.79l-28.34 -205.95 -46.11 71.96c-14.77,-9.86 -3272.34,336.85 -3331.42,367.04z"/>
      <path fill="#6F7787" d="M2858.88 1631.33l18.5 136.43 3147.02 -342.75c-1.74,-28.08 3.08,-126.68 -12.62,-163.9 -16.15,64.85 38.63,19.18 -135.73,41.54 -40.4,5.17 -89.29,2.91 -122.15,16.13 40.98,-1.37 80.92,-5.21 121.87,-9.64 150.62,-16.27 94.12,-7.83 113.85,17.09 -267.92,21.97 -530.29,57.11 -795.62,81.37l-1292.49 133.88c-31.44,3.6 -39.77,13.56 -75.18,10.02 -78.2,-7.82 -9.19,-30.28 -92,-26.95 -192.59,7.77 -503.57,61.6 -693.3,77.8 -29.97,2.56 -111.3,4.79 -138,21.69l-44.15 7.29z"/>
      <path fill="#304F59" d="M2858.88 1631.33l14.18 20.36c144.37,-12.41 716.04,-110.73 861.27,-127.14 82.81,-3.33 1.43,39 71.38,30.33 221.91,-6.6 1112.32,-118.69 1388.29,-147.28 265.33,-24.26 827.92,-84.53 827.92,-84.53 -1.07,-34.3 -10.14,-61.96 -10.14,-61.96l-13.83 -43.47 -3144.34 339.38 5.27 74.31z"/>
      <path fill="#304F59" d="M6024.4 1425.01l0.26 -81.68c-52.05,9.12 33.01,33.16 -107.17,43.72l-412.25 37.98 -2.66 52.74c0,0 464.04,-45.86 521.82,-52.76z"/>
      <path fill="#F7F4F4" d="M2671.65 838.9c-18.58,89.09 -6.3,629.9 21.37,705.76 55.25,-1.08 110.52,-15.95 169.26,-22.7l368.04 -34.37c449.66,-25.7 2912.73,-337.09 2912.54,-324.05 1.58,-78.31 -64.91,-674.61 -82.12,-727.16 -951.27,107.4 -2572.63,270.75 -3389.09,402.52z"/>
     </g>
     <g>
      <path fill="#D3D6DE" d="M2801.17 1833.2c24.14,-28.18 89.84,-24.74 148.29,-24.87l-70.59 -77.18c7.08,-66.91 4.95,-47.44 -19.99,-99.82l-5.27 -74.31 3144.34 -339.38 13.83 43.47c1.24,2.96 2.31,6.54 3.01,9.14l9.61 154.76c-200.63,23.95 -383.35,40.58 -580.38,57.95l-877.67 92.37c-25.26,3.57 -43.74,5.13 -68.34,4.78 -30.32,-0.44 -11.33,-8.59 -39.58,16.64 -136.9,-2.74 -260.18,17.33 -394.32,31.95 -78.03,8.5 -108,26.37 -191.13,23.93l-569.74 52.92c-65.67,7.81 -128.5,21.61 -188.13,24.67l-205.94 34.05 40.29 44.06c76.43,2.17 148.88,-32.38 217.68,-41.31l227.22 -19.77c64,-9.78 5.79,-15.16 91.83,-15.05 10.42,0 18.56,-0.28 28.65,-2.24l829.42 -87.48c132.54,-8.17 132.78,-23.11 173.19,-26.13 142.38,-10.66 284.73,-19.69 421.97,-40.4 130.28,-19.68 281.03,-18.87 419.74,-40.53 136.06,-21.25 285.64,-28.32 416.09,-43.65l209.24 -12.69c44.24,-4.12 5.12,-19.68 80.04,-20.5 88.44,-0.98 -5.8,-12.59 72.98,-27.88 4.12,5.5 9.82,22.55 12.59,29.48 14.04,42.84 -6.45,-7.26 3.93,19l29.59 -120.44 -42.22 -233.36c-5.7,-31.56 -49.15,-9.24 -88.73,40.48 18.95,-28.51 29.4,-17.47 38.76,-48.71 -24.05,-24.47 -4.96,-7.72 -57.69,-28.46 -18.64,-7.33 12.96,0.2 -18.84,-7.41 16.73,42.64 17.32,22.62 11.25,74.19 -37.53,-15.92 -15.61,-43.33 -37.53,-18.71l-23.82 -43.23c-52.59,-2.7 -103.62,14.96 -137.76,19.7 -38.77,5.37 -31.84,-18.96 -95.3,-4.95 -2.16,0.48 -4.6,1.42 -6.73,1.98 -69.58,18.07 -65.42,6.63 -102.57,14.85 -36.78,8.14 -2.66,13.34 -51.91,19.28 -37.54,4.53 -43.82,-83.83 -134.75,-48.99 -1.42,81.2 99.02,105.38 87.21,136.47 -947.21,89.13 -1885.06,138.16 -2819.06,308.81 -71.87,13.13 83.86,222.79 97.24,292.52z"/>
      <path fill="#A4A4AD" d="M2806.09 1797.74c16.39,25.95 32.27,87.06 38.13,125.7 91.13,-28.98 1189.99,-151.66 1328.93,-134.14 -11.59,-38.52 -31.56,-44.43 -12.19,-86.93l453.84 -48.05c50.01,-7.78 131.92,-23.77 179.16,10.74l52.65 45.42c0,0 1163.32,-134.6 1365.35,-145.79l-28.34 -205.95 -46.11 71.96c-14.77,-9.86 -3272.34,336.85 -3331.42,367.04z"/>
      <path fill="#6F7787" d="M2858.88 1631.33l18.5 136.43 3147.02 -342.75c-1.74,-28.08 3.08,-126.68 -12.62,-163.9 -16.15,64.85 38.63,19.18 -135.73,41.54 -40.4,5.17 -89.29,2.91 -122.15,16.13 40.98,-1.37 80.92,-5.21 121.87,-9.64 150.62,-16.27 94.12,-7.83 113.85,17.09 -267.92,21.97 -530.29,57.11 -795.62,81.37l-1292.49 133.88c-31.44,3.6 -39.77,13.56 -75.18,10.02 -78.2,-7.82 -9.19,-30.28 -92,-26.95 -192.59,7.77 -503.57,61.6 -693.3,77.8 -29.97,2.56 -111.3,4.79 -138,21.69l-44.15 7.29z"/>
      <path fill="#304F59" d="M2858.88 1631.33l14.18 20.36c144.37,-12.41 716.04,-110.73 861.27,-127.14 82.81,-3.33 1.43,39 71.38,30.33 221.91,-6.6 1112.32,-118.69 1388.29,-147.28 265.33,-24.26 827.92,-84.53 827.92,-84.53 -1.07,-34.3 -10.14,-61.96 -10.14,-61.96l-13.83 -43.47 -3144.34 339.38 5.27 74.31z"/>
      <path fill="#304F59" d="M6024.4 1425.01l0.26 -81.68c-52.05,9.12 33.01,33.16 -107.17,43.72l-412.25 37.98 -2.66 52.74c0,0 464.04,-45.86 521.82,-52.76z"/>
      <path fill="#F7F4F4" d="M2671.65 838.9c-18.58,89.09 -6.3,629.9 21.37,705.76 55.25,-1.08 110.52,-15.95 169.26,-22.7l368.04 -34.37c449.66,-25.7 2912.73,-337.09 2912.54,-324.05 1.58,-78.31 -64.91,-674.61 -82.12,-727.16 -951.27,107.4 -2572.63,270.75 -3389.09,402.52z"/>
     </g>
    </g>
   </g>
  </g>
  <polygon fill="none" points="-0,-0.01 5291.68,-0.01 5291.68,5291.66 -0,5291.66 "/>
 </g>
</svg>
