<?xml version="1.0" encoding="UTF-8"?>
<!DOCTYPE svg PUBLIC "-//W3C//DTD SVG 1.1//EN" "http://www.w3.org/Graphics/SVG/1.1/DTD/svg11.dtd">
<!-- Creator: CorelDRAW 2017 -->
<svg xmlns="http://www.w3.org/2000/svg" xml:space="preserve" width="34.3958mm" height="47.6248mm" version="1.1" style="shape-rendering:geometricPrecision; text-rendering:geometricPrecision; image-rendering:optimizeQuality; fill-rule:evenodd; clip-rule:evenodd"
viewBox="0 0 3439.58 4762.48"
 xmlns:xlink="http://www.w3.org/1999/xlink">
 <defs>
  <style type="text/css">
   <![CDATA[
    .str2 {stroke:#F78031;stroke-width:30;stroke-miterlimit:22.9256}
    .str0 {stroke:#2B2A29;stroke-width:20;stroke-miterlimit:22.9256}
    .str1 {stroke:black;stroke-width:20;stroke-miterlimit:22.9256}
    .fil1 {fill:none}
    .fil2 {fill:#2B2A29}
    .fil0 {fill:black}
    .fil3 {fill:#89D0FC}
    .fil6 {fill:#E0E0E0}
    .fil4 {fill:#E0E0E0}
    .fil5 {fill:white}
   ]]>
  </style>
 </defs>
 <g id="Слой_x0020_1">
  <metadata id="CorelCorpID_0Corel-Layer"/>
  <g id="_944759782144">
   <g>
    <path class="fil0" d="M1065.87 1935.84c-490.59,303.1 -678.74,-236.69 -419.98,-701.52 28.04,-50.36 58.1,-78.31 74.87,-124.28 -3.44,-1.49 -5.32,3.09 -7.19,5.35 -443.73,534.51 -192.33,1215.88 389.73,875.53 14.66,-10.48 18.16,-31.29 7.82,-46.5 -10.34,-15.21 -30.59,-19.06 -45.25,-8.58z"/>
   </g>
   <path class="fil1" d="M1084.59 1963.38c-283.52,202.64 -471.35,81.18 -568.09,-185.39 -32.87,-90.63 -24.37,-248.88 40.11,-398.27 43.5,-100.81 118.5,-214.79 158.92,-262.59 1.42,-1.69 1.61,-5.93 5.23,-7.09"/>
   <g>
    <path class="fil0" d="M774.39 1087.42c-49.97,-101.11 -87.03,-252.2 56.18,-306.28 5.46,-2.06 10.07,0.16 15.52,0.56 2.49,-39.54 -259.09,17.97 -133.54,325.43 5.48,17.65 23.77,27.54 40.84,22.1 17.07,-5.44 26.48,-24.16 21,-41.81z"/>
   </g>
   <path class="fil1" d="M743.47 1097.28c-12.81,-41.28 -60.38,-84.64 -44.3,-158.61 14.02,-64.49 15.87,-79.83 76.03,-129.51 15.7,-12.96 53.85,-51.65 70.89,-27.46"/>
   <g>
    <path class="fil0" d="M779.38 1088.28c-33.96,-132.82 13.2,-266.23 166.26,-294.82 4.51,7.28 1.71,3.93 8.62,9.86 14.59,-55.95 -293.07,-11.1 -236.72,304.66 5.48,17.65 23.77,27.55 40.84,22.1 17.08,-5.44 26.48,-24.16 21,-41.8z"/>
   </g>
   <path class="fil1" d="M748.46 1098.13c-18.35,-59.13 -28.32,-174.72 30.1,-216.46 12.45,-8.9 163.65,-117.17 172.13,-89.82l3.57 11.47"/>
   <g>
    <path class="fil0" d="M768.03 1128.16c90.55,-340.65 247.76,-208.96 294.6,-256.96 -237.15,-21.33 -274.92,-0.61 -355.53,233.1 -6.21,17.25 2.4,36.58 19.22,43.17 16.83,6.59 35.5,-2.06 41.71,-19.31z"/>
   </g>
   <path class="fil1" d="M737.57 1116.23c30.49,-84.77 -12.41,-82.27 83.4,-179.17 34.88,-35.28 160.05,-90.57 211.82,-65.12 14.32,7.04 12.25,5.56 29.84,-0.74"/>
   <g>
    <path class="fil0" d="M722.35 1146.27c50.23,103.39 183.47,90.57 238.84,-1.32 -39.93,7.69 -153.15,61.24 -177.47,-19.84 -5.86,-17.53 -24.35,-26.99 -41.3,-21.15 -16.95,5.85 -25.93,24.78 -20.07,42.31z"/>
   </g>
   <path class="fil1" d="M753.04 1135.69c23.48,70.08 124.85,67.89 170.69,35.62l37.46 -26.36"/>
   <g>
    <path class="fil0" d="M2575.83 1955.64c360.26,101.73 513.85,-20.79 476.47,-415.42 -24.45,-258.05 -179.23,-322.16 -249.19,-459.59 45.82,-26.33 269.03,296.18 290.32,455.34 57.85,432.35 -133.65,586.74 -539.82,482.82 -17.44,-6.14 -26.61,-25.25 -20.47,-42.69 6.14,-17.44 25.25,-26.6 42.69,-20.46z"/>
   </g>
   <path class="fil1" d="M2564.72 1987.21c390.84,137.44 485.6,-77.87 504.45,-263.35 11.23,-110.44 20.1,-253.47 -64.46,-394.39 -57.07,-95.09 -148.03,-199.61 -195.35,-242.41 -1.67,-1.51 -2.4,-5.7 -6.25,-6.43"/>
   <g>
    <path class="fil2" d="M2053.75 2698.8c16.6,-32.43 55.54,-27.24 61.99,28.03 16.96,145.29 9.45,337.5 15.96,488.73 0.04,1.1 7.15,260.34 -48.09,217.14l-3.87 -4.76 6.06 1.2c44.16,7.92 16.8,-196.01 15.2,-210.68 -9.5,-87.11 -22.31,-411.15 -39.97,-493.75 -7.91,-6.37 -11.14,-16.5 -7.28,-25.91z"/>
   </g>
   <path class="fil1" d="M2079.74 2706.94c18.14,-44.32 24.9,415.34 36.61,510.07 3.59,29.05 18.42,250.81 -36.61,210.92"/>
   <path class="fil3 str0" d="M1884.51 3383.33c10.25,-9.15 34.83,-55.05 93.92,-25.62 21.44,10.67 59,87.57 124.19,66.94 150.48,-47.63 472.23,42.95 432.34,139.8 -122.27,296.8 -718.24,-66.62 -650.45,-181.12z"/>
   <g>
    <path class="fil2" d="M1615.06 2698.29c-15.09,-31.59 -50.51,-26.53 -56.38,27.31 -15.42,141.54 -8.59,328.78 -14.51,476.1 -0.04,1.08 -6.5,253.61 43.74,211.53l3.51 -4.64 -5.51 1.18c-40.16,7.71 -15.28,-190.95 -13.82,-205.24 8.64,-84.87 20.29,-400.53 36.35,-480.99 7.19,-6.21 10.13,-16.08 6.62,-25.25z"/>
   </g>
   <path class="fil1" d="M1591.42 2706.23c-16.5,-43.18 -22.64,404.6 -33.29,496.88 -3.27,28.31 -16.76,244.33 33.29,205.48"/>
   <polygon class="fil4 str1" points="929.81,1572.22 2679.65,1572.22 2586.67,2697.12 1022.8,2697.12 "/>
   <polygon class="fil4 str1" points="929.81,1581 2680.02,1575.32 2434.69,1344.38 1158.94,1347.38 "/>
   <path class="fil5 str1" d="M1810.16 1677.23c148.3,0 283.92,33.11 375.49,138.37 105.14,120.87 115.18,202.24 111.68,301.62 -9.99,283.34 -188.73,451.33 -487.17,445.65 -149.44,-2.84 -223.06,-44.09 -310.43,-105.68 -112.04,-78.97 -186.76,-213.16 -186.76,-345.6 0,-110.72 55.75,-220.87 140.96,-295.87 112.34,-98.88 220.14,-138.49 356.23,-138.49z"/>
   <path class="fil6 str1" d="M1826.99 2073.78c67.37,16.36 46.22,106.62 -23.47,89.7 -38.78,-9.42 -39.05,-65.73 -10.08,-83.12 7.8,-4.68 21.89,-9.42 33.55,-6.58zm336.74 131.87l-4.53 17.31c-9.73,31.91 -26.53,60.58 -51.22,80.25 -60.87,48.48 -178.18,-2.66 -228.15,-41.11 -34.75,-26.73 -52.9,-40.01 -61.2,-73.75l-33.89 -8.23c3.02,4.25 3.56,5.24 8.39,9.14 5.75,4.62 1.37,1.77 9.34,5.76 -6.66,18.84 -23.2,33.58 -28.34,53.19 -20.88,79.8 73.3,106.6 11.76,171.42 -7.23,7.61 -17.37,15.53 -25.64,19.61 -68.4,33.81 -170.14,-24.31 -213.52,-68.82 -33.53,-34.41 -49.54,-69.37 -36.51,-119.18 13.88,-53.01 111.18,-124.12 161.85,-142.44 23.11,-8.35 46.55,-12.81 73.32,-12.44 -0.3,13.21 -2.18,13.96 4.95,22.4 6.47,-24.73 6.73,-32.84 19.82,-48.19 -16.51,-13.43 -6.82,-2.39 -17.07,-20.91 -41.39,-74.81 -123.97,-36.77 -157.73,-64.83 -16.78,-13.95 -26.49,-54.1 -19.31,-81.54 5.5,-21.02 25.76,-46.29 40.93,-60.98 8.68,-8.39 14.74,-13.5 24.87,-20.88 9.43,-6.88 16.44,-13.68 26.32,-18.47 10.04,-4.85 18.99,-8.24 29.68,-12.95 64.32,-28.35 143.58,-33.46 184.15,29.34 9.42,14.59 18.82,41.87 21.56,60.45 7.3,49.69 23.28,154.13 -27.39,198.85 9.61,10.44 8.42,10.57 11.74,24.05 39.64,0.55 74.65,-8.37 99.36,-40.87 43.28,-56.91 42.19,-73.15 106.6,-57.5 60.62,14.72 88.73,115.62 69.86,201.32z"/>
   <path class="fil3 str0" d="M1768.98 3365.14c-9.32,-8.92 -31.67,-53.63 -85.42,-24.96 -19.49,10.39 -53.65,85.31 -112.95,65.2 -136.85,-46.39 -429.48,41.85 -393.2,136.19 111.2,289.14 653.23,-64.89 591.57,-176.43z"/>
   <g>
    <path class="fil1 str2" d="M1629.18 942.66c-71.89,68.87 -193.1,76.06 -233.45,-12.08 -53.31,-116.42 120.6,-192.16 154.42,-136.1 -27.06,-21.77 -113.24,-190.32 57.83,-193.55 72.15,-1.36 80.9,96.74 80.9,96.74 0.97,0.85 -11.11,-62.43 34.15,-84.7 101.86,-50.13 167.22,11.06 161.95,59.88"/>
    <path class="fil1 str2" d="M1934.31 674.84c126.22,-104.44 192.53,82.72 80.86,128.8 -18.85,7.77 215.1,-79.01 181.64,96.82 -23.44,123.16 -113.15,146.48 -191.81,145.8 -127.3,-1.08 -234.25,-72.82 -277.04,-112.39"/>
    <path class="fil1 str2" d="M1579.52 972.15c57.66,55.16 30.67,150.34 -25.47,189.77 -17.69,12.42 -44.22,13.95 -88.36,13.95"/>
    <path class="fil1 str2" d="M1684.52 1020.3c18.92,71.75 10.75,102.19 -30.73,158.79 -8.39,11.45 -44.02,40.84 -44.02,40.84l0 0"/>
    <path class="fil1 str2" d="M1872.34 1020.53c0,54.1 1.53,119.38 74.54,146.46 56.98,21.15 111.56,13.13 111.56,13.13"/>
    <path class="fil1 str2" d="M1186.81 716.96c-28.74,-9.24 -22.9,38.61 19.04,31.02 6.4,-1.16 18.18,-25.9 -20.14,-43.09"/>
    <path class="fil1 str2" d="M2215.26 553.42c-2.1,-0.2 -38.44,54.88 22.14,54.88 27.16,0 29.32,-15.98 17.36,-28.54"/>
    <path class="fil1 str2" d="M2255.87 724.64c-24.22,0.6 -29.62,23.05 -6.68,23.05l2.29 0"/>
    <path class="fil1 str2" d="M1252.63 891.47c28.84,-44.53 90.99,44.4 13.08,26.62 -0.59,-0.13 -10.74,-6.3 -10.88,-7.96"/>
   </g>
   <g>
    <path class="fil0" d="M2745.37 1064.38c38.66,-106.25 57.9,-260.63 -95.52,-297.73 -5.84,-1.42 -10.29,1.33 -15.82,2.35 -7.45,-38.99 267.64,-12.22 177.13,307.78 -3.42,18.17 -20.93,30.12 -39.09,26.7 -18.17,-3.43 -30.12,-20.93 -26.7,-39.1z"/>
   </g>
   <path class="fil1" d="M2778.27 1070.58c8.01,-42.49 51.36,-91.09 25.72,-162.69 -22.35,-62.45 -26.15,-77.46 -93.93,-119.83 -17.7,-11.05 -61.57,-45.06 -76.03,-19.06"/>
   <g>
    <path class="fil0" d="M2740.37 1065.81c18.33,-135.88 -46.53,-262.94 -206.86,-273.57 -3.72,7.76 -1.27,4.1 -7.61,10.8 -21.88,-53.89 298.85,-45.04 280.25,275.17 -3.42,18.16 -20.92,30.12 -39.09,26.69 -18.16,-3.42 -30.12,-20.93 -26.69,-39.09z"/>
   </g>
   <path class="fil1" d="M2773.26 1072.01c11.47,-60.87 7.36,-176.85 -57.66,-211.54 -13.86,-7.39 -182.17,-97.39 -187.47,-69.25l-2.23 11.82"/>
   <g>
    <path class="fil0" d="M2756.94 1104.11c-134.98,-327.89 -279.71,-178.83 -333.64,-221.07 240.29,-48.71 281.55,-32.52 393.1,190.29 8.5,16.42 2.07,36.62 -14.34,45.12 -16.42,8.51 -36.62,2.08 -45.12,-14.34z"/>
   </g>
   <path class="fil1" d="M2786.67 1088.72c-41.75,-80.67 2.51,-83.16 -107.65,-168.3 -40.11,-31 -175.19,-71.4 -225.06,-40.11 -13.8,8.66 -11.86,6.95 -30.66,2.73"/>
   <g>
    <path class="fil0" d="M2805.97 1116.8c-38.63,108.54 -176.71,111.27 -244.83,26.41 41.87,3.01 164.48,43.05 179.34,-40.31 3.84,-18.09 21.61,-29.64 39.7,-25.8 18.08,3.84 29.63,21.61 25.79,39.7z"/>
   </g>
   <path class="fil1" d="M2773.23 1109.85c-15.37,72.34 -119.48,81.93 -170.45,55.2l-41.64 -21.84"/>
  </g>
 </g>
</svg>
