<?xml version="1.0" encoding="UTF-8"?>
<!DOCTYPE svg PUBLIC "-//W3C//DTD SVG 1.1//EN" "http://www.w3.org/Graphics/SVG/1.1/DTD/svg11.dtd">
<!-- Creator: CorelDRAW 2017 -->
<svg xmlns="http://www.w3.org/2000/svg" xml:space="preserve" width="52.9166mm" height="52.9166mm" version="1.1" shape-rendering="geometricPrecision" text-rendering="geometricPrecision" image-rendering="optimizeQuality" fill-rule="evenodd" clip-rule="evenodd"
viewBox="0 0 5291.66 5291.66"
 xmlns:xlink="http://www.w3.org/1999/xlink">
 <defs>
   <clipPath id="id0">
    <path d="M-0 -0.01l5291.68 0 0 5291.67 -5291.68 0 0 -5291.67z"/>
   </clipPath>
 </defs>
 <g id="Слой_x0020_1">
  <metadata id="CorelCorpID_0Corel-Layer"/>
  <polygon fill="#EB9773" points="-0,-0.01 5291.68,-0.01 5291.68,5291.66 -0,5291.66 "/>
  <g clip-path="url(#id0)">
   <g id="_869253580576">
    <g>
     <path id="1" fill="#E69573" d="M1684.96 218.92c901.43,0 2014.26,-9.64 2915.69,-9.64 115.86,314 121.01,870.37 7.91,1273.97 -95.95,0 -147.27,-0.7 -245.56,-0.99l6.94 2451.77 93.19 -1.59 -3.37 422.46 -450.37 -2.09 2.91 -425.39 91.23 0.37 -0.55 -2452.55c-797.3,-2.93 -1534.77,-19.19 -2307.82,-19.19 -17.63,-74.46 -10.62,-28.04 -23.65,-105.71l-1825.63 624.85 -8.49 -469.1 1702.29 -542.45c-25.25,-249.79 -8.41,-509.89 45.28,-744.72z"/>
     <path fill="#E39574" d="M1713.98 267.7c882.92,0 1911.35,13.23 2794.27,13.23 113.48,307.56 118.52,758.56 7.75,1153.87 -93.98,0 -83.4,0.12 -179.67,-0.16l-7.47 2534.87 85.08 0.15 3.3 343.8 -366.23 0.82 1.65 -345.45 79.89 0 0 -2534.79c-780.93,-2.87 -1621.48,-12.92 -2378.66,-12.92 -17.27,-72.93 -10.4,-27.46 -23.17,-103.54l-1788.14 612.02 14.36 -381.72 1723.91 -555.94c-24.73,-244.66 -19.46,-494.23 33.13,-724.24z"/>
     <rect fill="#E8E8E8" x="4100.57" y="4025.88" width="262.89" height="249.54"/>
     <path fill="white" d="M4180.46 1233.53l97.93 0c0,948.97 0,1897.96 0,2846.93 13.95,13.35 22.52,36.98 23.8,50.43 6.13,50.55 -23.8,94.9 -74.22,95.06 -54.01,-1.3 -80.78,-45.85 -74.01,-95.21 1.4,-8.52 6.83,-35.39 26.5,-50.28l0 -2846.93z"/>
     <polygon fill="#E3E0E0" points="-15.6,1608.85 1894.76,992.78 1926.7,1194.58 -23.35,1845.05 "/>
     <path fill="#F0EDED" d="M1806.76 384.08c882.92,0 1765.83,0 2648.75,0 20.89,242.42 81.1,519.32 0,968.21 -882.92,0 -1735.84,0 -2618.76,0 -87.1,-367.79 -114.09,-600.41 -29.99,-968.21z"/>
     <path fill="#E3E0E0" d="M1806.76 384.08c882.92,0 1765.83,0 2648.75,0 13.6,161.47 37.72,274.89 40.81,484.41l-2738.69 1.24c0,0 -25.96,-138.88 49.13,-485.65z"/>
     <polygon fill="white" points="2054.39,1132.89 4249.81,1132.89 4271.94,1019.35 2008.29,1022.86 "/>
     <polygon fill="white" points="2054.39,1132.89 4249.81,1132.89 4271.94,1019.35 2008.29,1022.86 "/>
     <polygon fill="white" points="2054.39,1132.89 4249.81,1132.89 4271.94,1019.35 2008.29,1022.86 "/>
     <polygon fill="gray" points="2054.39,1132.89 4211.06,1132.89 4242.38,1019.39 4279.88,1019.44 4243.57,1164.49 2070.66,1166.45 "/>
    </g>
   </g>
  </g>
  <polygon fill="none" points="-0,-0.01 5291.68,-0.01 5291.68,5291.66 -0,5291.66 "/>
 </g>
</svg>
