<?xml version="1.0" encoding="UTF-8"?>
<!DOCTYPE svg PUBLIC "-//W3C//DTD SVG 1.1//EN" "http://www.w3.org/Graphics/SVG/1.1/DTD/svg11.dtd">
<!-- Creator: CorelDRAW 2017 -->
<svg xmlns="http://www.w3.org/2000/svg" xml:space="preserve" width="34.3958mm" height="47.6248mm" version="1.1" style="shape-rendering:geometricPrecision; text-rendering:geometricPrecision; image-rendering:optimizeQuality; fill-rule:evenodd; clip-rule:evenodd"
viewBox="0 0 3439.58 4762.48"
 xmlns:xlink="http://www.w3.org/1999/xlink">
 <defs>
  <style type="text/css">
   <![CDATA[
    .str0 {stroke:#2B2A29;stroke-width:20;stroke-miterlimit:22.9256}
    .str1 {stroke:black;stroke-width:20;stroke-miterlimit:22.9256}
    .fil3 {fill:none}
    .fil2 {fill:#2B2A29}
    .fil5 {fill:black}
    .fil4 {fill:#89D0FC}
    .fil0 {fill:#E0E0E0}
    .fil1 {fill:white}
   ]]>
  </style>
 </defs>
 <g id="Слой_x0020_1">
  <metadata id="CorelCorpID_0Corel-Layer"/>
  <g id="_944750479296">
   <polygon class="fil0 str0" points="741.78,1368.85 2210.11,1179.88 2166.16,2322.59 725.88,2611.91 "/>
   <polygon class="fil0 str0" points="741.78,1368.85 403.93,1200.09 1862.92,1029.13 2210.11,1179.88 "/>
   <polygon class="fil0 str0" points="741.78,1368.85 725.88,2611.91 408.32,2338.3 403.93,1200.09 "/>
   <path class="fil1 str0" d="M1177.2 1573.11c-312.98,279.06 -65.21,964.99 503.97,690.31 500.14,-241.36 226.36,-882.89 -184.58,-834.66 -38.21,4.48 -184.37,31.26 -319.39,144.35z"/>
   <path class="fil0 str1" d="M1457.66 1841.2c25.77,-58 103.61,-24.17 76.95,35.83 -14.83,33.38 -65.59,24.41 -76.51,-4.53 -2.94,-7.79 -4.9,-21.26 -0.44,-31.3zm173.9 -281.71l14.84 6.91c27.16,13.99 50.23,33.81 63.9,59.27 33.71,62.76 -31.55,160.05 -74.36,198.77 -29.77,26.91 -44.7,41.09 -76.45,43.04l-12.96 29.18c4.32,-2.02 5.31,-2.35 9.6,-6.06 5.11,-4.42 1.82,-0.94 6.72,-7.47 15.88,9.09 26.45,26.4 43.27,34.23 68.46,31.87 108.01,-48.57 156.33,17.47 5.67,7.76 11.14,18.19 13.47,26.3 19.24,67.15 -49.76,149.27 -96.95,181.06 -36.47,24.57 -70.59,33.26 -113.31,13.37 -45.48,-21.17 -93.6,-120.45 -101.81,-169.09 -3.74,-22.18 -3.92,-44.03 0.79,-68.07 11.85,2.43 12.23,4.24 20.99,-0.8 -21.22,-9.87 -28.47,-11.44 -40.16,-25.74 -14.8,12.68 -3.27,5.75 -21.63,11.95 -74.16,25.04 -53.41,105.65 -84.21,131.46 -15.31,12.83 -53.06,15.01 -76.6,4.05 -18.03,-8.4 -37.48,-30.78 -48.22,-46.85 -6.14,-9.19 -9.75,-15.49 -14.74,-25.81 -4.65,-9.62 -9.63,-17.06 -12.33,-26.74 -2.73,-9.83 -4.31,-18.45 -6.81,-28.85 -15,-62.57 -6.63,-134.8 56.57,-161.06 14.68,-6.1 40.79,-10.1 57.98,-9.52 45.95,1.55 142.63,4.25 174.62,57.21 10.98,-6.95 10.9,-5.85 23.59,-6.63 6.98,-35.62 4.67,-68.62 -20.55,-96.19 -44.18,-48.3 -58.98,-49.97 -34.35,-105.42 23.18,-52.2 118.67,-61 192.77,-29.97z"/>
   <g>
    <path class="fil2" d="M1689.65 2432.41c16.23,-37.11 54.47,-31.41 60.82,32.19 16.63,166.8 9.27,387.5 15.65,561.12 0.04,1.27 7.01,298.92 -47.18,249.31l-3.79 -5.47 5.94 1.39c43.32,9.09 16.49,-225.05 14.92,-241.9 -9.34,-100.18 -21.87,-471.94 -39.21,-566.89 -7.76,-7.32 -10.93,-18.94 -7.15,-29.75z"/>
   </g>
   <path class="fil3" d="M1715.15 2441.76c17.8,-50.88 24.42,476.86 35.91,585.63 3.52,33.36 18.08,287.96 -35.91,242.17"/>
   <g>
    <path class="fil2" d="M1412.94 2472.07c33.53,103.28 18.9,308.29 -32.17,404.76 -67.72,127.9 -123.14,245.95 -186.13,375.52 -24.48,50.34 -12.65,31.72 -36.84,64.68 -39.55,-4.22 -20.27,-0.34 -57.89,-11.48 38.55,-1.97 19.26,-1.14 57.89,-2.49 3.97,-62.68 153.2,-374.06 189.36,-451.35 33.11,-70.76 43.62,-275.7 19.81,-350.28 -7.92,-13 -4.05,-30.11 8.65,-38.21 12.69,-8.11 29.4,-4.14 37.32,8.85z"/>
   </g>
   <path class="fil3" d="M1389.95 2486.75c32.73,53.72 6.51,331.95 -25.99,377.52 -39.45,55.33 -203.67,445.78 -206.16,445.78 -27.91,0 -31.3,-1.4 -57.89,-4.5"/>
   <path class="fil4 str0" d="M1523.64 3218.35c10.05,-10.51 34.16,-63.21 92.13,-29.42 21.03,12.25 57.87,100.54 121.83,76.85 147.61,-54.68 463.23,49.32 424.1,160.51 -119.94,340.77 -704.56,-76.48 -638.06,-207.94z"/>
   <path class="fil4 str0" d="M1038.68 3540.09c82.36,244.2 538.55,101.92 306.06,-61.27 -110.61,-77.63 -137.55,-154.02 -169.79,-318.3 -216.85,49.03 -198.42,195.3 -136.27,379.57z"/>
   <g>
    <path class="fil5" d="M2210.53 1715.61c159.53,-3.55 239.07,566.85 354.75,367.48 65.41,-112.75 165.58,-228.94 256.35,-324.36 3.42,-3.13 6.32,-6.1 8.24,-8.63l0.36 -0.37 -0.05 -0.04c1.39,-1.89 2.19,-3.51 2.19,-4.75 0.01,-5.76 -3.67,-6.51 -10.01,-3.53l-0.86 -0.91 -1.97 2.37c-44.32,25.1 -188.55,190.64 -194.28,197.4 -10.83,12.78 -107.45,144.97 -108.86,144.8 -60.06,-7.16 -117.8,-423.21 -311.44,-424.63 -15.05,1.56 -26,15.18 -24.45,30.41 1.54,15.24 14.99,26.33 30.03,24.76z"/>
   </g>
   <path class="fil3" d="M2207.74 1688.03c177.54,-18.42 254.84,551.91 341.23,386.33 43.57,-83.52 206.13,-266.17 277.08,-329.43l-39.45 41.53"/>
   <g>
    <path class="fil5" d="M2782.58 1817.9c125.26,-86.95 125.15,87.83 285.83,50.19 81.88,-19.17 132.86,-75.6 186.02,-134.69l-63.16 40.47c-294.98,184.03 -227.39,-132.12 -442.28,0.22 -11.95,9.39 -14.12,26.82 -4.84,38.91 9.28,12.1 26.48,14.29 38.43,4.9z"/>
   </g>
   <path class="fil3" d="M2765.78 1796c168.82,-132.71 164.45,236.66 488.65,-62.6"/>
   <g>
    <path class="fil5" d="M2798.45 1798.79c33.81,-78.07 226.05,54.62 326.55,-52.56 32.38,-34.53 29.76,-74.25 22.83,-117.63 -8.66,32.93 -14.12,75.4 -41.18,98.11 -107.96,90.62 -286.16,-89.4 -359.3,52.1 -5.45,14.29 1.57,30.35 15.69,35.86 14.11,5.52 29.96,-1.59 35.41,-15.88z"/>
   </g>
   <path class="fil3" d="M2772.9 1788.8c31.08,-81.51 135.97,-17.99 212.96,-17.99 130.62,0 161.97,-44.17 161.97,-142.21"/>
   <g>
    <path class="fil5" d="M2790.89 1786.41c95.16,107.12 207.3,191.9 357.57,144.05 65.49,-20.85 87.24,-47.19 128.28,-96.43l-45.24 28.09c-169.5,99.07 -287.1,28.28 -398.25,-110.88 -9.59,-11.84 -26.85,-13.57 -38.54,-3.86 -11.7,9.71 -13.41,27.19 -3.82,39.03z"/>
   </g>
   <path class="fil3" d="M2812.07 1768.83c34.75,42.91 125.07,162.19 277.04,155.71 79.49,-3.39 135.62,-39.95 187.63,-90.51"/>
   <g>
    <path class="fil5" d="M2781.04 1786.81c82.95,-139.51 76.79,-119.03 224.67,-170.77 -152.71,-9.42 -179.62,15.68 -269.39,138.75 -8.73,12.51 -5.8,29.81 6.55,38.66 12.35,8.84 29.44,5.87 38.17,-6.64z"/>
   </g>
   <path class="fil3" d="M2758.68 1770.8c60.02,-85.94 64.06,-136.76 247.03,-154.76"/>
   <g>
    <path class="fil5" d="M590.96 1709.37c-218.27,158.17 -338.55,319.39 -340.01,605.56 -1.53,297.49 313.92,441.58 576.49,386.34l-55.77 0.79c-226.91,-1.04 -489.11,-123.73 -481.11,-385.58 8.26,-270.19 121.63,-415.38 330.65,-560.86 12.61,-8.46 16.06,-25.67 7.71,-38.44 -8.35,-12.77 -25.35,-16.26 -37.96,-7.81z"/>
   </g>
   <path class="fil3" d="M606.09 1732.49c-286.65,192.23 -328.26,397.38 -335.34,583.21 -9.36,245.81 258.92,433.02 556.69,385.57"/>
   <g>
    <path class="fil5" d="M763.33 2622.45c15.77,192.82 161.46,67.52 297.79,37.12 114.16,-25.46 16.43,-120.05 -57.16,-94.38 -4.24,1.48 -10.83,6.22 -14.52,9.12 2.19,1.47 42.91,0.53 76.9,19 66.74,36.26 -57.33,40.56 -61.95,41.54 -126.33,26.92 -183.5,95.38 -186.28,-12.4 0,-15.32 -12.26,-27.73 -27.39,-27.73 -15.12,0 -27.39,12.41 -27.39,27.73z"/>
   </g>
   <path class="fil3" d="M790.72 2622.45c0,159.67 133.57,34.77 268.74,20.74 63.58,-6.6 52.98,-66.38 -46.61,-73.66 -12.66,-0.93 -15.32,5.63 -23.41,4.78"/>
   <g>
    <path class="fil5" d="M783.33 2627.13c-34.35,211.37 561.25,96.2 285.48,-9.5 12.29,11.64 35.22,30.84 44.92,47 34.69,57.84 -296.15,53.83 -277.18,-24.37 3.58,-14.88 -5.43,-29.88 -20.12,-33.51 -14.7,-3.63 -29.52,5.5 -33.1,20.38z"/>
   </g>
   <path class="fil3" d="M809.94 2633.7c-33.88,140.83 489.51,105.12 258.87,-16.07"/>
   <g>
    <path class="fil5" d="M793.24 2686.99c30.05,62.81 16.27,89.89 103.47,113.03 66.13,17.55 218.38,21.96 213.75,-79.69 -1.09,-23.96 -21.31,-55.28 -48.15,-43.44 10.19,6.79 18.8,9.19 24.31,21.32 31.58,69.61 -83.72,80.68 -136.47,69.14 -105.55,-23.09 -78.99,-32.55 -109.29,-107.77 -7.47,-13.32 -24.2,-17.97 -37.35,-10.4 -13.15,7.57 -17.75,24.5 -10.27,37.81z"/>
   </g>
   <path class="fil3" d="M817.05 2673.29c25.38,45.19 -6.68,91.13 129.6,114.74 176.12,30.51 179.14,-111.14 115.66,-111.14"/>
   <g>
    <path class="fil5" d="M823.34 2645.29c17.96,-78.24 116.32,-76.31 77.1,-200.17l-31.4 -63.36 5.47 68.37c4.5,131.1 -64.09,63.94 -104.72,183.45 -3.19,14.97 6.21,29.73 20.99,32.97 14.79,3.23 29.36,-6.29 32.56,-21.26z"/>
   </g>
   <path class="fil3" d="M796.57 2639.44c21.7,-101.75 144.44,-52.31 72.47,-257.68"/>
  </g>
 </g>
</svg>
