<?xml version="1.0" encoding="UTF-8"?>
<!DOCTYPE svg PUBLIC "-//W3C//DTD SVG 1.1//EN" "http://www.w3.org/Graphics/SVG/1.1/DTD/svg11.dtd">
<!-- Creator: CorelDRAW 2017 -->
<svg xmlns="http://www.w3.org/2000/svg" xml:space="preserve" width="52.9166mm" height="52.9166mm" version="1.1" shape-rendering="geometricPrecision" text-rendering="geometricPrecision" image-rendering="optimizeQuality" fill-rule="evenodd" clip-rule="evenodd"
viewBox="0 0 5291.66 5291.66"
 xmlns:xlink="http://www.w3.org/1999/xlink">
 <defs>
   <clipPath id="id0">
    <path d="M-0 -0.01l5291.68 0 0 5291.67 -5291.68 0 0 -5291.67z"/>
   </clipPath>
 </defs>
 <g id="Слой_x0020_1">
  <metadata id="CorelCorpID_0Corel-Layer"/>
  <polygon fill="#EBBF7C" points="-0,-0.01 5291.68,-0.01 5291.68,5291.66 -0,5291.66 "/>
  <g clip-path="url(#id0)">
   <g id="_869242469584">
    <g>
     <path id="1" fill="#E0B87B" fill-rule="nonzero" d="M4604.2 2906.86c-42.25,-181.18 -126.67,-309.53 -220.41,-388.74 -87.29,-58.68 -199.45,-59.71 -340.98,-34.13l-5.45 -177.91c166.63,-28.83 339.68,-3.95 451.56,78.43 117.4,96.72 232.94,242.1 259.77,491.2 -1.18,32.53 -32.36,35.94 -52.47,39.97 -13.7,2.74 -41.24,8.53 -54.99,11.31 -14.28,0.95 -32.87,-2.26 -37.03,-20.13z"/>
     <path fill="#E0B87B" fill-rule="nonzero" d="M4289.36 3352.52c-154.22,-260.45 121.46,-618.24 -2.41,-964.7 -28.55,-76.37 -61.79,-136.51 -134.42,-153.17 -74.95,-14.19 -177.21,28.48 -250.18,51.85l0 -31.4c94.26,-30.07 125.77,-125.5 266.1,-98.91 94.09,17.83 158.79,120.63 192.4,225.42 52.38,163.35 32.8,378.17 13.25,465.48 -43.17,192.85 -53.29,392.97 -16.55,477.73l-68.19 27.7z"/>
     <path fill="#E0B87B" fill-rule="nonzero" d="M4471.22 2191.7c-66.88,42.75 -163.37,89.65 -234.38,114.05 -53,22.78 -109.43,15.54 -143.06,20.88l-43.18 13 0.62 -88.22 22.35 -7.34 3.66 -0.49c26.06,-3.54 63.48,-27.25 113.21,-48.62 65.76,-28.27 157.85,-81.1 224.04,-116.2l4.9 10.94 58.03 -36.03 76.8 -49.31 81.99 -40.19 107.03 -43.95 168.58 -79.52 42.91 107.17 -161.93 71.07 -74.81 35.46 -53.97 18.11 -46.06 22.1 -43.06 25.01 -56.09 28.54 -54.12 29.9 6.54 13.64z"/>
     <path fill="#E0B87B" fill-rule="nonzero" d="M4382.14 2078.82c-21.89,19.86 -66.85,50.39 -101.58,79.09 -58.22,48.1 -146.26,71.08 -203.33,85.67l-26.02 8.65 0.01 -45.82 9.04 -14.63c48.44,-12.38 97.35,-61.66 152.25,-107.02 36.2,-29.91 92.05,-77.7 120.64,-93.43l3.57 5.26 26.32 -25.85 132.58 -115.07 111.09 -96.25 60.44 -55.46 53.39 -64.55 60.34 48.4 -49.05 64.64 -43.88 45.49 -59.31 47.08 -84.65 73.67 -93.12 83 -76.72 63.79 7.99 13.34z"/>
     <path fill="#DBB378" fill-rule="nonzero" d="M4457.75 2186.39c-66.88,42.75 -152.42,86.56 -223.43,110.96 -53,22.78 -101.16,35.38 -134.79,40.72l-43.18 13 0.62 -88.22 22.35 -7.34 3.66 -0.49c26.06,-3.54 63.48,-27.25 113.21,-48.62 65.76,-28.27 148.54,-74.49 214.73,-109.59l3.88 7.43 68.36 -39.13 76.8 -49.31 81.99 -40.19 107.03 -43.95 149.77 -69.81 32.37 76.79 -149.95 66.11 -70.26 31.33 -57.28 25.54 -44.4 18.8 -43.89 28.73 -49.06 30.61 -63.42 37.13 4.89 9.5z"/>
     <path fill="#DBB378" fill-rule="nonzero" d="M4363.91 2074.96c-21.89,19.86 -59,44.61 -93.73,73.31 -58.22,48.1 -130.13,92.16 -187.2,106.75l-26.02 8.65 0.01 -45.82 9.04 -14.63c48.44,-12.38 97.35,-61.66 152.25,-107.02 36.2,-29.91 85.16,-71.54 113.75,-87.27l3.79 6.4 32.99 -33.15 132.58 -115.07 111.09 -96.25 60.44 -55.46 48.43 -60.83 40.49 31.03 -47.38 62.17 -38.93 38.46 -42.78 40.05 -92.91 78.21 -95.19 82.18 -87.06 75.16 6.34 13.13z"/>
     <path fill="#E0B87B" d="M-0 3272c1361.68,-447.51 2729.25,-884.77 4090.93,-1332.28 32.07,-10.97 58.84,12.17 60.21,34.81 1.87,160.49 6,312.09 9.1,472.53 2.29,118.66 -15.63,128.93 -60.54,144.09l-4099.7 1455.77 0 -774.92z"/>
     <path fill="#DBB378" fill-rule="nonzero" d="M4298.08 3332.91c-114.54,-264.24 121.22,-614.46 -7.94,-959.95 -28.55,-76.37 -72.38,-137.18 -145.01,-153.84 -74.95,-14.19 -177.21,28.48 -250.18,51.85l0 -31.4c94.26,-30.07 122.49,-99.93 262.82,-73.34 94.09,17.83 158.1,97.68 191.71,202.49 52.4,163.35 36.77,375.53 17.22,462.84 -43.17,192.85 -55.37,396.69 -17.59,481.24l-51.03 20.11z"/>
     <path fill="#DBB378" fill-rule="nonzero" d="M4616.21 2888.96c-40.29,-162.8 -102.66,-296.65 -198.02,-370.79 -93.81,-72.92 -215.55,-89.44 -350.29,-66.46l-0.96 -127.75c175,-34.8 318.53,12.21 426.92,96.61 111.77,86.9 210.13,223.46 235.67,447.25 1.07,17.94 -15.38,25.15 -34.53,28.77 -13.06,2.47 -39.26,7.66 -52.35,10.16 -13.6,0.85 -22.45,-1.67 -26.44,-17.79z"/>
     <path fill="#DBB378" d="M-14.36 3320.17c1361.68,-447.51 2723.35,-895.02 4085.03,-1342.53 32.07,-10.97 54.21,4.23 55.58,26.87 1.87,160.49 1.17,310.77 5.47,471.21 1.32,49.22 -7.71,66.43 -52.62,81.59l-4093.46 1445.51 0 -682.65z"/>
     <polygon fill="#EDE2D5" stroke="#999999" stroke-width="7.62" stroke-miterlimit="22.9256" points="-47.5,3424.7 4064.59,2044.2 4068.56,2486.91 -47.5,3916.84 "/>
     <path fill="none" stroke="#FFC431" stroke-width="30" stroke-miterlimit="22.9256" d="M4324.02 2057.3c45.65,-32.74 79.39,-76.07 125.03,-108.8 91.62,-93.07 188.5,-143.82 286.75,-268.64"/>
     <path fill="none" stroke="#FFC431" stroke-width="50" stroke-miterlimit="22.9256" d="M4408.77 2155.07c58.04,-33.47 118.75,-76.87 176.79,-110.35 99.68,-51.14 178.22,-77.21 310.98,-139.97"/>
     <path fill="#E3DBD1" fill-rule="nonzero" d="M4064.58 2469.45l-624.64 179.09 -375.19 171.68 -457.83 114.57 -476.1 152.61c-317.6,130.51 -627.01,256.63 -947.97,377.2l-269.3 59.35c-348.62,163.17 -587.28,260.43 -963.73,364.8l6.17 -381.09 389.84 -144.75 426.36 -124.57 260.44 -95.55 415.8 -137.08c80.88,-33.23 155.26,-57.53 220.01,-82.6 71.62,-27.72 144.84,-51.3 216.47,-76.46 200.68,-70.49 400.46,-135.23 606.42,-197.55l468.55 -152.49 411.92 -164.11c201.27,-54.21 491.68,-133.25 690.38,-196.89l2.4 333.84z"/>
     <path fill="#DED6CD" fill-rule="nonzero" d="M4064.31 2455.15l-624.64 179.09 -376.19 168.7 -461.46 110.27 -476.76 144.34c-317.6,130.51 -626.69,258.29 -947.65,378.86l-272.93 62.33c-349.95,152.59 -584.98,234.62 -956.13,354.21l7.25 -333.75 483.61 -173.28 325.89 -90.47 229.71 -85.98 453.42 -153.83c385.49,-136.27 559.02,-200.9 849.97,-294.71 65.7,-21.18 140.26,-35.84 221.6,-61.74l467.72 -153.65 378.23 -156.96c214.53,-57.79 440.53,-119.79 695.92,-196.04l2.44 302.61z"/>
     <path fill="gray" fill-rule="nonzero" d="M4435.76 2183.13c-68.12,36.13 -145.85,75.08 -212.96,103.93 -53,22.78 -100.67,39.72 -134.3,45.06 -271.68,89.19 -529.18,166.54 -804.54,246.91 -392.16,145.37 -562.3,202.93 -958.58,311.39l-483.48 168.31c-637.15,236.84 -1240.85,442.05 -1888.39,657.33l-1.01 -3.05 0 -75.31 1111.39 -369.49c414.73,-154.17 820.44,-303.41 1237.68,-448.66l451.9 -123.75 504.75 -187.11 473.96 -138.33 338.79 -111.29 3.66 -0.49c26.06,-3.54 68.86,-18.99 118.59,-40.36 65.76,-28.27 141.49,-66.21 207.68,-101.31l34.86 66.22z"/>
     <path fill="gray" fill-rule="nonzero" d="M4345.54 2069.84c-25.2,13.87 -57.66,40.68 -92.39,69.38 -58.22,48.1 -122.6,101.29 -179.67,115.88l-345.11 97.84 -430.77 130.38c-290.78,119 -419.31,160.42 -729.92,255.17 -98.21,31.39 -191.19,60.41 -290.06,88.64l-195.88 63.99 -297.5 106.25c-605.39,222.67 -1212.83,421.63 -1825.57,623.02l-6.17 -18.98 0 -21.01 825.43 -271.3 699.57 -241.41c302.17,-111.22 600.51,-225.14 910.31,-313.58 194.54,-62.11 389.17,-121.11 584.59,-180.72l313.56 -128.33c242.31,-73.32 541.16,-148.2 777.68,-228.72 48.44,-12.38 109.15,-62.54 164.05,-107.9 36.2,-29.91 70.04,-57.87 98.63,-73.6l19.22 35z"/>
     <path fill="black" fill-rule="nonzero" d="M4307.52 3308.72c-53.24,-122.82 -0.36,-393.06 14.2,-467.53l2.21 -11.31c31.95,-168.41 24.92,-340.2 -20.88,-462.71 -16.85,-45.08 -38.95,-83.33 -66.23,-111.96 -26.55,-27.84 -58.15,-46.58 -94.67,-53.5 -34.74,-6.58 -74.3,-2.68 -118.68,13.9l-1.64 0.53c-43.98,10.92 -88.53,25.21 -133.04,39.48 -45.09,14.45 -90.21,28.94 -135.05,40.06l-440.43 122.92c-351.34,153.57 -598.88,232.7 -969.8,339.69l-288.67 94.34c-152.59,61.54 -285.4,105.59 -443.67,157.93 -379.44,138.21 -728.37,267.35 -1119.55,374.21 -199.82,80.1 -333.88,127.08 -539.12,190.86l0 -31.32 268.82 -83.43c254.38,-101.98 314.39,-119.12 587.74,-193.79l470.98 -167.77c206.66,-75.28 402.26,-143.87 610.86,-212.85 248.35,-100.16 483.17,-168.08 739.99,-242.16l349.18 -112.7c355.19,-155.25 375.13,-150.43 766.53,-264.99 43.99,-10.91 88.53,-25.21 133.05,-39.48 44.88,-14.39 89.8,-28.8 134.42,-39.91 49.37,-18.28 93.95,-22.45 133.58,-14.94 43.05,8.16 80.02,29.96 110.85,62.3 30.09,31.57 54.29,73.29 72.55,122.16 47.68,127.52 55.2,305.24 22.3,478.69l-2.21 11.43c-14.18,72.6 -65.69,335.83 -16.2,450.01l-27.42 11.84z"/>
     <path fill="white" fill-rule="nonzero" d="M4636.04 2881.48l-1.95 -10.12c-33.79,-170.14 -105.12,-295.86 -202.77,-371.78 -96.07,-74.68 -219.02,-101.65 -357.76,-75.62l-6.09 1.21 -630.96 172.2 -376.19 168.7 -461.46 110.27 -476.76 144.34c-317.6,130.51 -626.69,258.29 -947.65,378.86l-272.93 62.33c-360.88,157.36 -555.94,227.82 -951.45,355.31l2.43 -57.05 0 -31.27 573.87 -184.99 351.53 -153.3 273.67 -62.48 356.53 -136c448.01,-184.04 620.58,-251.74 1069.1,-387.45l458.63 -109.5 375.12 -168.24c214.06,-57.66 427.78,-118.92 642.1,-175.2l6.61 -1.25c160.77,-30.21 304.34,1.86 417.66,89.95 111.77,86.9 192.83,227.87 230.28,416.61l1.98 10.41 -73.54 14.06z"/>
     <path fill="none" stroke="#FFF4A5" stroke-width="20" stroke-miterlimit="22.9256" d="M371.51 3388.14c95.79,10.28 127.31,141.31 115.41,255.73"/>
     <path fill="none" stroke="#FFF4A5" stroke-width="20" stroke-miterlimit="22.9256" d="M1315.99 3074.01c76.82,8.34 132.64,114.74 122.22,221.08"/>
     <path fill="none" stroke="#FFF4A5" stroke-width="20" stroke-miterlimit="22.9256" d="M2304.34 2733.85c60.1,16.41 118.87,75.81 92.32,202.69"/>
     <path fill="none" stroke="#FFF4A5" stroke-width="20" stroke-miterlimit="22.9256" d="M3368.98 2358.7c56.78,18.04 104.63,108.53 63.5,260.19"/>
    </g>
   </g>
  </g>
  <polygon fill="none" points="-0,-0.01 5291.68,-0.01 5291.68,5291.66 -0,5291.66 "/>
 </g>
</svg>
