<?xml version="1.0" encoding="UTF-8"?>
<!DOCTYPE svg PUBLIC "-//W3C//DTD SVG 1.1//EN" "http://www.w3.org/Graphics/SVG/1.1/DTD/svg11.dtd">
<!-- Creator: CorelDRAW 2017 -->
<svg xmlns="http://www.w3.org/2000/svg" xml:space="preserve" width="55mm" height="45mm" version="1.1" style="shape-rendering:geometricPrecision; text-rendering:geometricPrecision; image-rendering:optimizeQuality; fill-rule:evenodd; clip-rule:evenodd"
viewBox="0 0 5500 4500"
 xmlns:xlink="http://www.w3.org/1999/xlink">
 <defs>
  <style type="text/css">
   <![CDATA[
    .str0 {stroke:black;stroke-width:35;stroke-miterlimit:22.9256}
    .fil1 {fill:none}
    .fil2 {fill:#71E2FF}
    .fil0 {fill:white}
   ]]>
  </style>
 </defs>
 <g id="Слой_x0020_1">
  <metadata id="CorelCorpID_0Corel-Layer"/>
  <rect class="fil0 str0" x="2046.04" y="804.87" width="1827.38" height="1248.87" rx="24.39" ry="28.92"/>
  <path class="fil1 str0" d="M1596.85 2355.37l2675.22 0 0 698.71c0,80.14 -65.55,145.7 -145.7,145.7l-2383.82 0c-80.13,0 -145.7,-65.56 -145.7,-145.7l0 -698.71z"/>
  <circle class="fil2 str0" cx="2953.83" cy="1418.03" r="465.24"/>
  <line class="fil1 str0" x1="1841.47" y1="3026.79" x2="4072.64" y2= "3026.79" />
  <path class="fil0 str0" d="M2973.77 1371.71c65.49,15.9 44.93,103.65 -22.82,87.2 -37.7,-9.16 -37.96,-63.9 -9.8,-80.8 7.58,-4.55 21.28,-9.16 32.62,-6.4zm327.35 128.2l-4.4 16.82c-9.46,31.03 -25.79,58.9 -49.8,78.01 -59.17,47.14 -173.21,-2.58 -221.79,-39.96 -33.78,-25.99 -51.43,-38.89 -59.49,-71.69 -15.01,-3.65 -40.17,46.36 -43.26,58.19 -20.3,77.57 71.26,103.63 11.43,166.64 -7.03,7.4 -16.89,15.1 -24.92,19.07 -66.5,32.86 -165.4,-23.64 -207.57,-66.91 -32.6,-33.44 -48.16,-67.44 -35.49,-115.85 13.49,-51.54 108.07,-120.67 157.33,-138.48 22.46,-8.12 45.26,-12.45 71.28,-12.09 0,0 11.24,-10 24.08,-25.07 -101.11,-82.27 -148.7,-65.71 -169.93,-83.35 -16.31,-13.57 -25.75,-52.59 -18.77,-79.27 5.35,-20.43 25.04,-45 39.79,-59.28 8.44,-8.16 14.33,-13.12 24.17,-20.3 9.17,-6.68 15.99,-13.3 25.59,-17.95 9.76,-4.72 18.46,-8.01 28.86,-12.59 62.52,-27.56 139.58,-32.53 179.01,28.52 9.16,14.18 18.3,40.7 20.96,58.77 7.1,48.3 22.63,149.83 -26.62,193.31 9.34,10.15 8.18,10.27 11.4,23.38 38.55,0.53 72.58,-8.15 96.6,-39.74 42.08,-55.32 41.01,-71.11 103.63,-55.9 58.93,14.31 86.26,112.41 67.91,195.72z"/>
  <path class="fil1 str0" d="M2046.04 1434.55c-249.5,0 -390.24,0 -639.75,0 -57.09,0 -101.17,2.27 -135.65,44.71 -26.39,32.58 -35.64,73.5 -35.64,132.61 -0.02,386.08 2.37,697.13 2.36,1083.21 0,54.57 17.47,82.35 34.45,101.57 16.49,21.25 52.87,39.02 99.17,39.54l225.87 0.23"/>
  <path class="fil1 str0" d="M2332.33 3100.34c-163.92,119.09 -72.81,248.99 15.84,317.02 74.93,57.51 99.53,207.26 -100.81,288.74"/>
  <path class="fil1 str0" d="M2981.08 3108.13c-163.92,119.09 -72.81,248.99 15.84,317.02 74.93,57.51 99.53,207.26 -100.81,288.74"/>
  <path class="fil1 str0" d="M3585.38 3097.94c-163.92,119.09 -72.81,248.99 15.84,317.03 74.93,57.5 99.54,207.25 -100.81,288.74"/>
 </g>
</svg>
