<?xml version="1.0" encoding="UTF-8"?>
<!DOCTYPE svg PUBLIC "-//W3C//DTD SVG 1.1//EN" "http://www.w3.org/Graphics/SVG/1.1/DTD/svg11.dtd">
<!-- Creator: CorelDRAW 2017 -->
<svg xmlns="http://www.w3.org/2000/svg" xml:space="preserve" width="52.9166mm" height="52.9166mm" version="1.1" shape-rendering="geometricPrecision" text-rendering="geometricPrecision" image-rendering="optimizeQuality" fill-rule="evenodd" clip-rule="evenodd"
viewBox="0 0 5291.66 5291.66"
 xmlns:xlink="http://www.w3.org/1999/xlink">
 <g id="Слой_x0020_1">
  <metadata id="CorelCorpID_0Corel-Layer"/>
  <g id="_869281793568">
   <rect fill="#E0E0E0" x="90.74" y="-0.02" width="5200.91" height="5291.67"/>
   <polygon fill="#333E48" points="1085.2,1885.06 4993.12,1879.82 4990.54,2314.11 1530.72,2314.11 1533.99,4402.44 1085.05,4400.99 "/>
   <polygon fill="white" points="1272.53,1883.53 1298.34,1883.53 1298.34,2005.68 1272.53,2005.68 "/>
   <polygon fill="white" points="1498.56,1883.53 1524.37,1883.53 1524.37,2005.68 1498.56,2005.68 "/>
   <polygon fill="white" points="1720.07,1883.19 1745.88,1883.19 1745.88,2005.35 1720.07,2005.35 "/>
   <polygon fill="white" points="1958.64,1882.87 1984.45,1882.87 1984.45,2005.03 1958.64,2005.03 "/>
   <polygon fill="white" points="2184.67,1882.87 2210.48,1882.87 2210.48,2005.03 2184.67,2005.03 "/>
   <polygon fill="white" points="2406.18,1882.54 2431.99,1882.54 2431.99,2004.69 2406.18,2004.69 "/>
   <polygon fill="white" points="2631.88,1881.62 2657.69,1881.62 2657.69,2003.77 2631.88,2003.77 "/>
   <polygon fill="white" points="2857.91,1881.62 2883.72,1881.62 2883.72,2003.77 2857.91,2003.77 "/>
   <polygon fill="white" points="3100.74,1881.45 3126.55,1881.45 3126.55,2003.61 3100.74,2003.61 "/>
   <polygon fill="white" points="3334.29,1881.74 3360.1,1881.74 3360.1,2003.9 3334.29,2003.9 "/>
   <polygon fill="white" points="3560.32,1881.74 3586.13,1881.74 3586.13,2003.9 3560.32,2003.9 "/>
   <polygon fill="white" points="3781.83,1881.41 3807.64,1881.41 3807.64,2003.56 3781.83,2003.56 "/>
   <polygon fill="white" points="4020.39,1881.09 4046.2,1881.09 4046.2,2003.24 4020.39,2003.24 "/>
   <path fill="#DCB5A2" d="M90.74 5190.19c469.55,-964.38 353.56,-808.52 1197.47,-1372.35 93.85,-73.21 286.03,-171.99 332.22,-276.72 63.95,-144.82 19.74,-144.63 219.51,-398.4 51.22,-65.03 128.81,-199.74 125.27,-290.5 -231.08,-103.02 -324.06,175.04 -404.54,331.64 -50.44,71.52 -72.87,78.26 -76.52,109.16 1.54,-49.87 4.43,-135.06 23.51,-171.69 13.67,-81.42 14.55,-95.9 28.37,-183.36 20.75,-131.38 31.79,-318.64 56.1,-400.73 10.82,-36.6 16.47,-75.23 24.17,-115.12 27.59,-142.95 87.92,-240.88 51.18,-406.25 -13.83,-14.5 -15.21,-30.66 -53.63,-55.49 -41.37,13.7 -39,8.46 -54.28,46.01 -141.21,206.7 -147.01,480.94 -233.02,711.08l-28.65 104.15c-7.41,-3.91 -16.63,-9.72 -23.91,-55.85 12.41,-133.78 19.76,-197.84 50.58,-324.42 29.36,-120.49 104.34,-146.77 127.66,-218.39 9.95,-37.03 20.94,-61.51 36.91,-96.66 16.26,-35.77 15.98,-52.13 30.18,-82.46l-5.26 -47.12c-25.54,-33.18 -50.18,-79.1 -95.29,-36.54 -9.65,9.24 -46.62,49.5 -68.69,104.8 -66.61,88.84 -162.62,186.78 -178.05,268.17 -17.52,92.5 -57.62,239.56 -62.59,287.04 -19.4,101.92 -30.05,202.19 -72.36,327.44 -17.03,-34.48 8.65,-88.92 13.29,-137.07 44.41,-240.91 42.06,-323.68 66.79,-391.58 14.51,-39.88 38.58,-142.04 80.88,-231.17 38.92,-82.02 75.62,-142.32 89.34,-175.7 -0.87,-43.28 -45.92,-69.84 -117.4,-44.87 -104.72,76.3 -113.66,157.51 -144.99,216.2 -82.57,154.81 -169.53,532.16 -183.72,573.71 -25.9,78.68 -2.76,76.64 -34.08,84.92 -6.18,-35.97 33.1,-388.28 75.38,-439.03 71.32,-87.01 98.16,-212.54 28.64,-283.16 -116.84,18.96 -147.02,175.52 -221.36,264.06 -67.33,156.2 -97.25,259.38 -172.33,424.78 -11.36,-1.15 -54.71,610.67 -73.87,666.4 -56.89,169.02 -190.22,320.39 -352.91,461.88l0 1253.19z"/>
   <path fill="#DCB5A2" d="M3197.66 2216.52c16.48,126.41 126.16,116.12 142,112.62 102.45,-9.38 234.42,-37.6 293.67,-68.63 31.53,-14.68 55.36,-38.39 84.94,-65.69 -3.32,70.49 45.95,129.41 81.99,157.39 8.55,6.63 -17.1,48.35 3.5,53.08 109.47,25.16 295.47,41.93 419.78,54.55 -108.16,-149.54 -208.76,-311.57 -314.22,-452.42 -101.7,-56.4 -162.82,-11.69 -245.12,32.13 -39.36,20.96 -78.09,47.7 -114.82,66.41 -63.42,32.29 -270.74,92.87 -351.72,110.56z"/>
   <path fill="#181A1C" d="M4711.69 2620.78l129.3 10.21c24.37,-49.33 -2.79,-35.01 -16.68,-89.12l-44.04 -22.17 -40.27 -2.9c-23.48,51.78 -45.04,38.08 -28.31,103.98z"/>
   <path fill="#0F4430" d="M3054 2414.79l103.11 22.11c-12.95,-50.4 -6.98,-63.38 -4.01,-84.36 2.51,-10.87 9.15,-22.28 30.05,-33.51 -24.85,-8.72 -61.66,-13.72 -86.14,-19.08l-236.52 19.75 193.51 95.09z"/>
   <path fill="#4B5359" d="M4841.04 2630.88c7.69,-2.35 25.89,2.71 28.72,-1.16 10.11,-39.24 22.19,-54.04 3.48,-99.55l-92.97 -10.47 44.04 22.17c13.89,54.11 29.17,34.77 16.73,89.01z"/>
   <path fill="#ABA29C" d="M4711.69 2620.78c2.2,-60.37 4.83,-52.2 28.31,-103.98l-49.44 -5.16 -7.43 105.83c0,0 24.25,3.05 28.56,3.31z"/>
   <polyline fill="none" stroke="white" stroke-width="10" stroke-miterlimit="22.9256" points="2876,2330.61 2854.94,2318.23 3097.01,2299.95 3183.68,2319.28 "/>
   <path fill="#DCB5A2" d="M3160.5 2334.4c-25.97,37.51 -17.9,115.51 63.86,253.98l70.83 365.98c89.22,192.54 170.57,317.83 199.36,368.33 188.62,359.01 125.17,434.44 170.04,887.61 6.6,66.64 -13.27,608.77 -93.79,1081.36l790.92 0c-42.76,-290.97 -73.51,-814.8 -84.97,-896.45 -12.5,-89.08 -31.8,-159.37 -34.37,-258.76 -2.41,-92.39 -3.79,-183.11 -28.59,-265.23 -23.63,-78.26 -16.94,-180.15 -17.47,-276.97 -1.49,-272.16 65.15,-638.59 125.82,-909.16 3.88,-57.51 -5.25,-74.32 -10.8,-98.72 -39.25,-27.02 -244.9,-44.6 -301.24,-44.85 -20.28,-2.2 -175.65,-44.08 -174.4,-19.94 11.54,223.82 -110.07,293.36 -241.59,199.8 -200.54,-123.13 -160.26,-215.19 -265.49,-370.08 -37.98,-29.37 -67.01,-44.1 -135.29,-39.17l-32.83 22.27z"/>
   <path fill="#0F4430" d="M3318.85 2343.94c35.79,45.66 44.85,73.81 66.65,118.37 406.42,55.77 1138.44,147.26 1297.63,155.16l7.43 -105.83 -467.02 -51.8c-256.3,-33.21 -772.37,-108.51 -904.69,-115.9z"/>
   <polygon fill="white" points="1085.97,4259.66 1085.97,4233.4 1206.03,4233.4 1206.03,4259.66 "/>
   <polygon fill="white" points="1085.97,4029.69 1085.97,4003.43 1206.03,4003.43 1206.03,4029.69 "/>
   <polygon fill="white" points="2072.03,2257.98 2097.84,2257.98 2097.84,2314.11 2072.03,2314.11 "/>
   <polygon fill="white" points="2298.06,2257.98 2323.87,2257.98 2323.87,2314.11 2298.06,2314.11 "/>
   <polygon fill="white" points="2519.57,2257.65 2545.38,2257.65 2545.38,2314.11 2519.57,2314.11 "/>
   <polygon fill="white" points="2745.28,2256.73 2771.09,2256.73 2771.09,2314.11 2745.28,2314.11 "/>
   <polygon fill="white" points="2971.31,2256.73 2997.12,2256.73 2997.12,2305.78 2971.31,2305.78 "/>
   <polygon fill="white" points="1810.16,2256.86 1835.97,2256.86 1835.97,2314.24 1810.16,2314.24 "/>
   <polygon fill="white" points="4267.55,1880.73 4293.36,1880.73 4293.36,2002.88 4267.55,2002.88 "/>
   <polygon fill="white" points="4489.06,1880.39 4514.87,1880.39 4514.87,2002.55 4489.06,2002.55 "/>
   <polygon fill="white" points="4727.62,1880.07 4753.44,1880.07 4753.44,2002.23 4727.62,2002.23 "/>
   <polygon fill="white" points="4380.19,2258.58 4406,2258.58 4406,2314.7 4380.19,2314.7 "/>
   <polygon fill="white" points="4601.7,2258.24 4627.52,2258.24 4627.52,2314.7 4601.7,2314.7 "/>
   <polygon fill="white" points="4827.41,2257.32 4853.22,2257.32 4853.22,2314.7 4827.41,2314.7 "/>
   <polygon fill="white" points="4153.7,2258.41 4179.52,2258.41 4179.52,2314.53 4153.7,2314.53 "/>
   <path fill="white" fill-rule="nonzero" d="M196.93 420.25l-196.93 0 0 -41.77 73.22 0 0 -275.45 -73.22 0 0 -37.25c27.65,0 48.08,-4.04 61.2,-12.04 13.04,-8 20.45,-23.24 22.11,-45.53l42.06 0 0 370.27 71.56 0 0 41.77z"/>
   <path id="1" fill="none" fill-rule="nonzero" stroke="white" stroke-width="7.62" stroke-miterlimit="22.9256" d="M196.93 420.25l-196.93 0 0 -41.77 73.22 0 0 -275.45 -73.22 0 0 -37.25c27.65,0 48.08,-4.04 61.2,-12.04 13.04,-8 20.45,-23.24 22.11,-45.53l42.06 0 0 370.27 71.56 0 0 41.77z"/>
  </g>
 </g>
</svg>
