<?xml version="1.0" encoding="UTF-8"?>
<!DOCTYPE svg PUBLIC "-//W3C//DTD SVG 1.1//EN" "http://www.w3.org/Graphics/SVG/1.1/DTD/svg11.dtd">
<!-- Creator: CorelDRAW 2017 -->
<svg xmlns="http://www.w3.org/2000/svg" xml:space="preserve" width="55mm" height="45mm" version="1.1" style="shape-rendering:geometricPrecision; text-rendering:geometricPrecision; image-rendering:optimizeQuality; fill-rule:evenodd; clip-rule:evenodd"
viewBox="0 0 5500 4500"
 xmlns:xlink="http://www.w3.org/1999/xlink">
 <defs>
  <style type="text/css">
   <![CDATA[
    .str0 {stroke:black;stroke-width:35;stroke-miterlimit:22.9256}
    .fil2 {fill:none}
    .fil1 {fill:#71E2FF}
    .fil0 {fill:white}
   ]]>
  </style>
 </defs>
 <g id="Слой_x0020_1">
  <metadata id="CorelCorpID_0Corel-Layer"/>
  <circle class="fil0 str0" cx="2891.52" cy="2036.74" r="568.09"/>
  <circle class="fil1 str0" cx="2888.34" cy="2041.71" r="489.14"/>
  <circle class="fil0 str0" cx="2892.97" cy="2038.19" r="396.79"/>
  <path class="fil2 str0" d="M3489.11 1489.08c172.69,152.94 289.06,417.49 279.41,643.96 -13.37,314.07 -165.44,622.43 -452.56,790.84l-61.24 -450.3 -0.03 0c-98.47,81.95 -225.05,131.25 -363.17,131.25 -138.69,0 -265.74,-49.73 -364.39,-132.29l-0.05 0 -54.38 508.95c-382.96,-150.47 -701.64,-515.14 -734.29,-878.87 0,0 -2.18,-925.44 -2.18,-925.44 0,0 842.13,1.78 842.13,1.78 0,0 0.03,186.34 0.03,186.34 315.5,-148.57 708.66,-55.18 910.72,123.78zm-302.42 1497.18c-82.52,32.07 -173.68,53.97 -273.49,63.37 -101.26,9.54 -203.66,0.21 -303.61,-24.42l26.49 -228.66 524.14 0 26.47 189.71z"/>
  <path class="fil0 str0" d="M2527.08 2472.54l0.05 0c98.65,82.56 225.7,132.29 364.39,132.29 138.12,0 264.7,-49.3 363.17,-131.25l0.03 0 116.61 857.45 -936.39 3.92 92.14 -862.41zm109 324.01l524.14 0 57.92 415.19 -630.15 0 48.09 -415.19z"/>
  <circle class="fil1 str0" cx="2897.99" cy="2041.45" r="72.64"/>
 </g>
</svg>
