<?xml version="1.0" encoding="UTF-8"?>
<!DOCTYPE svg PUBLIC "-//W3C//DTD SVG 1.1//EN" "http://www.w3.org/Graphics/SVG/1.1/DTD/svg11.dtd">
<!-- Creator: CorelDRAW 2017 -->
<svg xmlns="http://www.w3.org/2000/svg" xml:space="preserve" width="52.9166mm" height="52.9166mm" version="1.1" shape-rendering="geometricPrecision" text-rendering="geometricPrecision" image-rendering="optimizeQuality" fill-rule="evenodd" clip-rule="evenodd"
viewBox="0 0 5291.66 5291.66"
 xmlns:xlink="http://www.w3.org/1999/xlink">
 <defs>
   <clipPath id="id0">
    <path d="M-0 -0.01l5291.68 0 0 5291.67 -5291.68 0 0 -5291.67z"/>
   </clipPath>
 </defs>
 <g id="Слой_x0020_1">
  <metadata id="CorelCorpID_0Corel-Layer"/>
  <polygon fill="#EBBF7C" points="-0,-0.01 5291.68,-0.01 5291.68,5291.66 -0,5291.66 "/>
  <g clip-path="url(#id0)">
   <g id="_869281797120">
    <g>
     <path id="1" fill="#E0B575" d="M5930.11 1301.2c111.14,-128.22 159.72,-490.67 -36.59,-586.64 -149.9,-73.27 -65.17,-205.76 -220.15,-148.32 68.05,-186.87 422.1,-718.52 269.5,-858.38l-185.28 -169.81c-14.82,-13.61 -2085.89,1077.35 -2717.64,1436.45 -231.65,-90.43 -548.82,-196.61 -554.79,-196.13 -31.83,2.53 -1146.66,542.03 -1146.66,542.03 0,0 -171.94,288.52 -249.49,446.65 -1.48,12.66 17.05,212.82 25.08,298.35 -176.5,101.12 -349.79,195.4 -466.13,210.01 -12.89,2.09 -27.06,4.51 -39.23,7.97 -140.22,0.48 -303.51,-81.21 -382.76,35.02 -118.21,216.97 -27.03,568.19 169.48,760.02 175.32,171.14 712.41,402.58 819.46,120.9 46.69,-122.87 122.12,-211.21 302.28,-346.21 -2.37,2.4 414.88,87.81 692.07,142.96l339.02 -260.56 61.82 301.27c-72.62,-21.06 -232.84,13.95 -284.8,51.63 -539.29,442.34 96.45,1262.55 760.25,1248.87 217.44,3.11 286.86,-263.87 299.62,-438.34 86.73,29.94 709.07,32.33 876.47,51.34 22.65,-96.39 1028.42,-1203.95 1163.49,-1398.94l-72.16 -603.14c144.57,-156.63 338.06,-371.16 577.14,-647zm-4965.46 1711.19l0 -0.01 26.64 -29.68 0 0.03 -26.64 29.66zm-437.23 -49.52c21.14,22.83 43.7,44.63 67.32,64.78 -15.62,-11.99 -30.7,-25.36 -44.96,-40.27 -7.51,-7.86 -14.98,-16.04 -22.36,-24.51zm51.26 -651.61c1.42,5.21 5.36,11.23 12.49,18.2 -7.8,-7.3 -11.73,-13.24 -12.49,-18.2zm76.16 65.53c28.22,22.58 56.53,47.4 84.15,74.97 -32.01,-27.88 -53.7,-48.85 -84.15,-74.97zm1142.76 161.69l4.22 0.11c-8.53,5.11 -17.01,10.27 -25.42,15.45l21.2 -15.56zm2783.15 -356.94l-1155.42 -206.17 0.31 -0.83c393.56,68.92 1121.18,196.89 1155.11,207zm-2316.87 -490.24l-632.99 -253.71c278.37,107.31 640.36,243.5 632.99,253.71zm2316.87 490.24c16.87,-20.61 406.87,1705.43 0,0z"/>
     <g>
      <path fill="#945D1E" d="M5574.29 1461.95c101.03,-116.56 145.19,-446.03 -33.26,-533.27 -136.26,-66.61 -59.24,-187.04 -200.12,-134.83 0,0 -1235.12,952.26 -1170.54,931.93l597.79 620.48c0,0 283.31,-281.12 806.13,-884.31z"/>
      <path fill="#945D1E" d="M3858.4 1321.46l1596.13 -1035.72c345.69,-224.32 270.22,-144.91 131.36,-272.18l-168.42 -154.36c-16.2,-14.86 -2731.97,1420.41 -2632.38,1408.52 414.09,396.33 320.84,547.81 320.84,547.81 0,0 132.62,-91.85 752.47,-494.07z"/>
      <path fill="#B7A878" d="M3227.39 2264.98c0,0 154.65,-420.27 154.65,-420.27 0,0 -965.84,564.94 -965.84,564.94 0,0 -231.78,532.86 -231.78,532.86 0,0 1042.97,-677.53 1042.97,-677.53z"/>
      <path fill="#8C927A" d="M4347.69 2262.2c0.09,-0.11 254.5,1066.73 254.5,1066.73 36.28,-35.61 422.94,-600.47 513.06,-730.57l-131.35 -1097.88c0,0 -579.32,697.26 -636.21,761.72z"/>
      <path fill="#585747" d="M2569.78 2697.47l80.48 372.23c279.18,259.93 433.77,528.32 708.71,790.66 0,0 753.52,9.6 836.46,19.02 4.82,-20.51 406.76,-550.45 406.76,-550.45 -0.02,0.02 -254.5,-1066.73 -254.5,-1066.73 0,0 -1275.2,-227.53 -1275.2,-227.53 0,0 -502.71,662.8 -502.71,662.8z"/>
      <path fill="#16090A" d="M2506.65 3204.25c-138.44,131.68 -8.91,451.58 132.22,569.53 48.77,45.32 133.23,101.7 218.04,126.53 45.54,13.35 95.63,26.95 150.67,18.14 46.17,-7.38 87.27,-30.06 115.17,-50.45 26.73,-19.54 47.75,-53.37 48.17,-95.14 1.42,-140.83 -76.78,-264.1 -121.94,-323.18 -114.23,-149.48 -339.28,-331.09 -542.33,-245.43z"/>
      <path fill="#585747" d="M1199.69 2191.44c94.48,-38.44 122.52,-41.48 219.54,-103.53 0,0 -8.41,-48.98 -8.41,-48.98 19.11,-381.85 492.97,-241.18 520.02,-214.95 34.07,24.14 139.76,129.55 164.25,151.75 83.07,226.12 31.54,449.4 -178.17,557.73 -212.02,109.51 -420.85,282.7 -418.78,287.48 15.07,-11.99 686.28,121.57 686.28,121.57 0,0 231.86,-532.91 231.78,-532.86 0,0 -174.61,-593.09 -174.61,-593.09 0,0 -841.19,-337.16 -841.19,-337.16 0,0 -156.3,262.27 -226.8,406.02 -1.71,14.67 26.09,306.02 26.09,306.02z"/>
      <path fill="black" d="M3594.56 3561.48c-27.58,13.23 -16.74,10.66 -6.01,30.03 286.89,102.16 554.5,-148.8 605.8,-468.09 27.25,-216.89 -55.32,-475.96 -198.92,-617.33 -202.95,-199.82 -510.89,-220.76 -751.68,-90.83 -216.17,112.59 -249.71,391.56 -232.46,400.73 1.74,0.92 422.7,-394.02 688.27,-203.91 194.95,165.35 226.37,413.58 156.91,584.72 -70.26,173.15 -188.89,329.63 -261.91,364.68z"/>
      <path fill="#945D1E" d="M2496.77 3083.86c73.45,4.45 262.27,43.85 323.29,159.61 38.68,22.87 161.98,118.58 223.46,199.03 93.12,121 136.96,242.9 128.54,381.12l-10.14 107.28c14.09,7.18 36.37,17.79 50.26,25.12 -25.83,178.77 -158.72,164.89 -183.43,260.42 247.26,-59.28 272.89,-144.32 291.4,-403.5 25.29,-54.8 92.15,-107.54 117.97,-130.06 62.22,-52.36 242.93,-166.17 277.68,-198.46 105.97,-89.46 230.1,-202.43 263.88,-359.66 41.35,-192.46 19.67,-493.03 -319.77,-613.79 -353.2,-71.04 -753.16,459.25 -1009.65,558.73 -82.62,-7.73 -154.06,-18.84 -227.61,22.93l74.12 -8.77z"/>
      <path fill="#281415" d="M1061.31 3004.54l-0.93 -29.5c-56.4,-212.69 -198.55,-523.35 -452.75,-542.48 -174.56,37.47 -129.61,323.07 20.07,499.68 177.53,209.47 405.84,264.04 433.61,72.3z"/>
      <path fill="#945D1E" d="M3087.04 3983.99c33.97,-24.53 67.57,-66.77 80.79,-132.98 0.3,-1.56 1,-5.21 1.82,-10.4 3.47,-21.89 9.36,-71.18 -0.26,-105.98 -1.82,82.63 -21.7,104.76 -30.17,115.03 -55.01,66.76 -179.22,82.72 -260.35,56.3 -71.96,-23.43 -163.51,-66.8 -231.06,-129.22 -47.47,-43.87 -88.31,-89.82 -116.38,-139.76 -27.99,-49.8 -71.73,-162.32 -77.81,-241.13 -6.05,-78.3 6.2,-146.11 53.03,-191.6 -40.8,13.53 -53.33,36.73 -72.72,59.76 -44.01,63.41 -53.65,162 -42.55,240.02 12.2,85.75 36.86,170.84 79.45,243.8 58.96,101 148.23,180.82 249.76,225.28 118.01,51.67 276.21,83.71 366.45,10.88z"/>
      <path fill="#D6C89A" d="M3382.04 1844.71c0,0 -153.61,-478.82 -289.32,-618.86 -252.85,163.5 -818.63,521.89 -851.13,590.71 0,0 174.61,593.09 174.61,593.09 0,0 965.84,-564.94 965.84,-564.94z"/>
      <path fill="#D68F3E" d="M2988.51 4221.83c89.41,1.3 186.26,-87.62 216.68,-201.12 24.44,-91.17 12.49,-221.36 -35.8,-286.08 8.3,39 0.06,109.2 -4.84,128.26 -26.93,104.66 -96.68,137.74 -134.3,149.03 -86.67,26.03 -184.33,6.7 -266.56,-21.83 -226.1,-78.43 -343.35,-279.59 -372.31,-486.06 -11.1,-78.02 -1.46,-176.61 42.55,-240.02 51.45,-74.14 147.69,-90.51 236.99,-74.11 48.83,8.97 97.7,25 147.35,53.51 6.42,3.69 38.76,25.31 47.01,31.47 -149.1,-186.26 -392.57,-244.55 -540.05,-137.95 -351.94,338.96 59.87,1097.33 663.28,1084.9z"/>
      <path fill="black" d="M2072.37 2475.66c79.36,-60.84 103.46,-173.98 106.61,-222.37 43.83,-671.78 -995.86,-685.93 -746.33,-3.69 35.87,98.06 126.92,211.99 198.04,256.46 116.65,72.94 205.74,150.44 441.68,-30.4z"/>
      <path fill="#F0F5F5" d="M2241.59 1816.56c-1.33,1.85 146.16,-134.84 851.13,-590.71 -181.29,-84.34 -643.09,-239.72 -649.98,-239.17 -28.93,2.3 -1042.34,492.72 -1042.34,492.72 127.46,59.55 851.09,323.44 841.19,337.16z"/>
      <path fill="#B7A878" d="M3942.44 1404.18c-24.92,4.12 -869.95,630.49 -869.95,630.49 0,0 1232.82,214.91 1275.2,227.53 62.28,-70.59 614.4,-714.27 636.21,-761.72 0,0 -1059.08,-81.58 -1041.46,-96.3z"/>
      <path fill="#945D1E" d="M1091.5 3208.38c-6.83,10.32 -11.55,17.85 -12.48,19.01 -17.38,21.73 -39.7,30.06 -40.56,30.59 -1.96,1.21 102.63,-9.37 137.61,-101.41 80.11,-210.72 432.2,-397.93 844.48,-724.14 101.67,-80.45 73.61,-335.31 -60.44,-437.64 -78.16,-59.66 -188.35,-86.26 -254.8,-80.96 -19.6,1.57 -50.3,10.71 -68.69,14.86 -234.98,76.93 -652.74,392.31 -863.94,418.84 -45.87,7.43 -109.21,19.31 -14.19,76.2 171.69,130.72 356.37,349.32 333.01,784.65z"/>
      <path fill="#D68F3E" d="M1044.04 3256.14c106.45,-54.34 64.04,-257.04 59.1,-286.13 0,0 -42.54,47.44 -42.77,47.67 -0.02,0.02 8.33,60.35 -36.68,88.98 -31.95,20.32 -219,14.85 -340.26,-111.93 -116.03,-121.3 -219.77,-328.03 -166.83,-479.13 12.63,-33.99 35.61,-52.21 60.84,-66.47 149.99,-67.24 375.18,236.67 421.08,360.18 55.08,129.78 61.85,208.37 61.86,208.35l42.76 -47.65c0,0 -17.89,-108.35 -90.18,-246.37 -49.61,-94.75 -100.75,-166.61 -153.66,-212.44 -36.32,-31.44 -57.75,-52.91 -95.19,-84.01 -87.57,-53.42 -56.13,-60.82 -0.34,-73.71 -132.8,13.17 -297.55,-80.01 -374.69,33.13 -107.46,197.23 -24.58,516.5 154.06,690.88 123.67,120.73 321.38,239.67 500.9,178.65z"/>
      <path fill="#945D1E" d="M1003.38 3143.16c77.94,-7.45 63.13,-142.94 39.4,-209.15 18.05,89.24 -8.4,117 -46.4,125.6 -53.72,12.16 -132.31,-16.9 -212.36,-70.65 -131.15,-88.06 -253.74,-280.88 -249.71,-429.92 1.39,-51.2 11.99,-77.63 32.89,-103.78 -44.35,24.2 -54.32,66.52 -59.13,91.2 -15.41,55.62 -9.13,142.38 22.14,222.4 65.98,168.8 278.24,392.93 473.17,374.3z"/>
     </g>
    </g>
   </g>
  </g>
  <polygon fill="none" points="-0,-0.01 5291.68,-0.01 5291.68,5291.66 -0,5291.66 "/>
 </g>
</svg>
