<?xml version="1.0" encoding="UTF-8"?>
<!DOCTYPE svg PUBLIC "-//W3C//DTD SVG 1.1//EN" "http://www.w3.org/Graphics/SVG/1.1/DTD/svg11.dtd">
<!-- Creator: CorelDRAW 2017 -->
<svg xmlns="http://www.w3.org/2000/svg" xml:space="preserve" width="52.9166mm" height="52.9166mm" version="1.1" shape-rendering="geometricPrecision" text-rendering="geometricPrecision" image-rendering="optimizeQuality" fill-rule="evenodd" clip-rule="evenodd"
viewBox="0 0 5291.66 5291.66"
 xmlns:xlink="http://www.w3.org/1999/xlink">
 <defs>
   <clipPath id="id0">
    <path d="M-0 -0.01l5291.68 0 0 5291.67 -5291.68 0 0 -5291.67z"/>
   </clipPath>
 </defs>
 <g id="Слой_x0020_1">
  <metadata id="CorelCorpID_0Corel-Layer"/>
  <polygon fill="#F2F8FA" points="-0,-0.01 5291.68,-0.01 5291.68,5291.66 -0,5291.66 "/>
  <g clip-path="url(#id0)">
   <g id="_869250022672">
    <g>
     <rect fill="#BFA98E" x="-264.58" y="-0.01" width="2645.84" height="5291.67"/>
     <path fill="#B3A088" d="M2381.26 4916.09c-69.45,-21.4 -463.19,8.33 -538.45,-19.23 -63.37,-23.2 -97.58,-101.02 -108.05,-157.39 -82.07,-1.55 -293.67,-2.78 -293.67,-2.78 0,0 -99.9,-2043.54 -99.9,-2043.54 -98.59,-0.87 -191.07,0.02 -289.84,1.23 -10.63,837.75 -7.77,1483.1 -0.5,2332.51 552.72,-1.48 996.53,5.7 1330.41,16.46 0,0 0,-127.26 0,-127.26zm-1328.31 572.15l14.07 0c3.17,-8.45 6.79,-16.78 10.48,-24.96l-24.55 24.96z"/>
     <polygon fill="#B3A088" points="1732.46,2118.42 2381.26,2259.07 2381.26,4875.93 1733.43,4875.01 "/>
     <g>
      <polygon fill="#EAF0F2" points="3302.03,4065.34 3687.37,4046.57 3717.38,3930.74 3698.07,4115.61 3302.03,4186.37 "/>
      <path fill="white" d="M3018.97 4894.95l520.85 -15.91 97.11 -250.21c-132.88,-4.72 -356.34,-0.68 -498.2,-0.68 0,0 -80.62,151.95 -110.22,234.54 2.68,-14.28 5.16,-32.7 5.47,-54.02 -7.3,4.04 -27.19,9.44 -35.21,12.38 -42.67,15.62 -285.72,15.54 -328.15,0 -77.62,-28.44 -200.04,9.53 -281.02,-15.6 -69.42,-21.55 -382.22,13.13 -457.49,-14.43 -63.37,-23.21 -97.58,-101.02 -108.05,-157.39 -82.07,-1.55 -293.67,-2.78 -293.67,-2.78 0,0 -104.85,-1937.67 -104.85,-1937.67 -98.59,-0.87 -197.69,1.64 -296.46,2.85 -10.63,837.75 3.8,1375.61 11.07,2225.02 522.39,-1.4 1312.95,6.39 1878.82,-26.1zm-1876.72 487.45l14.07 0c3.17,-8.45 6.79,-16.78 10.48,-24.96l-24.55 24.96zm2545.12 -1335.83l30.01 -115.83c-65.92,-0.69 -408.52,-3.37 -408.52,-3.37 -3.86,-0.99 -2.22,-6.28 1.33,-14.62 -5.45,3.01 -11.21,5.72 -17.28,8.12 0.21,43.29 1.55,77.62 -4.31,112.81 3.17,10.75 7.02,21.26 10.13,31.97 113.28,-10.79 346.37,-11.83 388.64,-19.08z"/>
      <path fill="#E3D1BA" d="M-264.58 3085.45c338.18,-217.45 659.65,-493.42 981.01,-740.57 17.12,-19.72 37.75,-42.06 90.42,-77.65 28.81,-19.48 55.14,-41.03 85.13,-57.35l-175.55 135c17.12,-19.72 37.75,-42.06 90.42,-77.65 28.81,-19.48 55.14,-41.03 85.13,-57.35l337.12 -259.25 17.93 -20.69c-8.06,-9.55 -78.26,-62.73 -140.28,-132.96l-116.35 -137.15 -67.85 52.18 -0.02 0.65 -2.58 1.34 -121.42 93.38c-3.33,3.11 -7.02,5.88 -10.96,8.43l-70.72 54.38c-0.99,3.15 1.79,1.68 -9.19,7.07l-418.96 322.18c-9.7,8.26 -21.07,17.13 -34.5,26.75l-3.47 2.47 -515.31 374.23 0 482.56z"/>
      <path fill="#FAEAD5" d="M-268.21 2165.14l3.63 437.75c404.03,-299.18 832.05,-629.38 1236.18,-928.61 -10.55,-12.44 -123.51,-189.79 -177.07,-210.69 -358.82,213.79 -714.16,468.63 -1062.74,701.55z"/>
      <path fill="white" d="M-268.21 2165.14l1062.74 -701.55c3.45,-3.52 -40.62,-92.43 -54.35,-98.55l-418.42 244.88 -586.34 363.1 -3.63 192.12z"/>
      <path fill="#BBD7DF" d="M105.59 -0.01c3.43,101.26 4.78,187.54 0.32,199.37 -45.82,1.23 -30.55,-8.83 -44.72,-45.1l-92.68 -3.25 53.96 1170.62c-96.86,43.42 -139.87,76.13 -268.01,84.63 3.36,-52.27 -2.02,-154.26 6.33,-194.45 11.07,-53.32 15.42,-42.28 1.07,-93.44l-25.32 -97.82c0,0 3.43,667.36 -1.12,952.47l767.75 -469.28c-23.56,-30.98 -73.73,-1150.89 -83.59,-1503.75l-313.99 0z"/>
      <path fill="white" d="M-263.46 1020.55c16.02,22.1 14.77,60.25 25.32,97.82 14.35,51.16 10,40.12 -1.07,93.44 -8.35,40.19 -2.97,142.18 -6.33,194.45 128.14,-8.5 171.15,-41.21 268.01,-84.63l-53.96 -1170.62 92.68 3.25c14.17,36.27 -1.1,46.33 44.72,45.1 4.46,-11.83 3.11,-98.11 -0.32,-199.37l-370.17 0 0 672.29c7.58,136.81 12.96,288.97 1.12,348.27z"/>
      <path fill="#778BA3" d="M1410.85 111.84c27.91,-27.01 78.27,-59.49 76.77,-82.48 -6.95,0.78 -12.35,1.11 -15.16,1.11 -8.42,15.9 -29.67,21.21 -39.3,35.57 -3.67,5.49 -11.18,23.25 -22.31,45.8zm154.79 -104.36l12.49 4.81c-11.19,49.9 -15.07,14.17 -44.72,46.32 -31.04,33.66 -15.28,230.18 -15.28,280.26 115.38,2.26 57.57,53.17 114.02,145.12l39.92 59.02c21.29,40.2 -5.26,-43.58 4.03,13.44 0.65,3.95 2.53,39.37 2.67,49.6 0.03,3.07 -0.38,20.07 -0.27,22.91l2.94 26.93c24.64,36.77 32.89,26.06 53.22,50.69 20.26,24.56 27.9,22.99 36.23,64.63 -8.09,8.1 -6.05,6.52 -16.93,15.24l-52.26 26.46c-36.49,12.52 -4.35,-5.25 -33.68,13.98 -18.53,12.15 -13.22,3.23 -20.47,21.17 31.14,35.7 107.69,47.62 152.99,44.66 44.2,-2.88 19.85,-15.35 59.8,12.98 -5.4,48.75 10.25,11.77 -21.91,42.6 -24.49,23.48 -12.51,-5.26 -28.96,24.65 74.43,66.42 131.31,30.76 234.12,108.55 23.65,17.91 50.11,19.25 31.68,62.27 -26.58,-7.61 -52.09,-28.61 -70.76,-42.63 -0.23,-1.62 0.83,-4.11 0.95,-4.79l2.58 -28.46 -79.55 -2.85c38.87,36.17 72.23,66.68 118.31,87.92l41.96 26.28 -147.42 24.27c13.21,12.27 -8.37,4.21 20.35,8.78 37.31,5.95 13.49,-12.94 97.6,14.8 -10.86,26.07 -6.84,10.45 -19.54,27.34 -9.34,12.43 -4.04,-4.41 -13.24,17.16 7.02,9.27 12.97,-12.88 9.28,33.93 44.21,-2.77 123.11,-12.76 148.58,13.27 -46.4,6.07 -58.06,-12.49 -104.44,3.37 -21.84,7.47 -55.79,34.64 -52.76,61.64 0.7,6.18 17.99,37.99 19.55,40.28 8.26,10.34 16.91,22.36 25.96,31.86 4.92,4.94 9.59,9.62 14.78,14.29l45.22 59.95c12.32,1.88 7.49,0.52 19.45,-16.92 29.09,38.89 3.21,27.06 54.31,18.3l41.56 -11.74c0.74,50.82 8.13,30.38 36.31,60.79 16.5,17.8 17.28,29.25 33.88,52.85 29.53,42.01 42.9,50.54 32.15,91.68 -14.7,56.18 -2.86,-24.64 -9.51,19.77 49.64,-7.98 38.52,-20.15 85.28,15.79 -19.46,61.79 -13.29,6.34 -30.53,48.03 18.96,13.92 11,6.21 17.91,35.79 26.25,-7.26 72.95,-7.02 113.24,-7.02 1.32,-1.88 3.51,-7.03 4.12,-5.53l53.21 -51.37c28.64,-18.13 152.12,-44.52 172.01,-52.27 -6.8,-34.97 -89.46,-55.53 -72.06,-87.05 -11.49,-40.75 -51.87,-74.47 -77.06,-104.56 -102.52,-122.49 -9.55,-86.08 -226.99,-156.24 -38.02,-12.26 -15.96,-10.48 -45.12,-37.79 -10.67,-10 -79.95,-85.13 -86.82,-94.92 -95.17,-135.48 -150.93,-290.59 -292.45,-392.83 -78.13,-76.51 -32.67,-107.25 -97.66,-232.93l-34.35 -622.02 -247.8 0c-2.9,2.72 -6.31,5.21 -10.12,7.49z"/>
      <rect fill="#D6D2D2" x="1824.06" y="2233.43" width="1209.93" height="2610.26"/>
      <polygon fill="#E8E3E3" points="3033.98,2233.44 3302.03,1759.07 3302.03,4249.13 3033.98,4837.59 "/>
      <polygon fill="#F5F2F2" points="1824.06,2233.44 3031.16,2233.44 3308.57,1737.12 2179.6,1729.23 "/>
      <path fill="#185E70" d="M1231.47 -0.01l0.18 2.18c3.95,12.95 4.26,26.2 3.37,39.41l2.86 33.55c15.41,94.98 46.61,182.62 45.51,302.94 3.39,26.18 29.23,56.55 32.67,82.97 6.45,49.5 -3.4,115.95 16.37,162.09 21.31,49.75 46.25,217.79 83.99,279.82 34.96,57.44 70.82,144.17 125.83,207.75 32.41,37.41 117.28,172.99 140.27,197.64 78.39,84.1 235.43,184.15 282.48,283.13 11.94,25.1 49.34,34.27 46.78,103.85 12.56,42.01 63.83,58.23 89.31,115.96 33.26,-34.76 65.72,-91.79 72.13,-91.78l178.43 0.24c19.43,-79.14 -50.84,-121.33 -67.34,-139.13 -28.18,-30.41 -35.57,-9.97 -36.31,-60.79 -14.44,4.08 -31.24,9.82 -45.73,12.57 -46.92,8.61 -22.04,18.44 -50.14,-19.13 -11.96,17.44 -7.13,18.8 -19.45,16.92l-45.22 -59.95c-16.54,-14.88 -26.68,-28.55 -40.74,-46.15 -1.56,-2.29 -18.85,-34.1 -19.55,-40.28 -3.03,-27 30.92,-54.17 52.76,-61.64 46.38,-15.86 58.04,2.7 104.44,-3.37 -25.47,-26.03 -104.37,-16.04 -148.58,-13.27 3.69,-46.81 -2.26,-24.66 -9.28,-33.93 9.2,-21.57 3.9,-4.73 13.24,-17.16 12.7,-16.89 8.68,-1.27 19.54,-27.34 -84.11,-27.74 -60.29,-8.85 -97.6,-14.8 -28.72,-4.57 -7.14,3.49 -20.35,-8.78l147.42 -24.27 -41.96 -26.28c-46.08,-21.24 -79.44,-51.75 -118.31,-87.92l79.55 2.85 -2.58 28.46c-0.12,0.68 -1.18,3.17 -0.95,4.79 18.67,14.02 44.18,35.02 70.76,42.63 18.43,-43.02 -8.03,-44.36 -31.68,-62.27 -102.81,-77.79 -159.69,-42.13 -234.12,-108.55 16.45,-29.91 4.47,-1.17 28.96,-24.65 32.16,-30.83 16.51,6.15 21.91,-42.6 -39.95,-28.33 -15.6,-15.86 -59.8,-12.98 -45.3,2.96 -121.85,-8.96 -152.99,-44.66 7.25,-17.94 1.94,-9.02 20.47,-21.17 29.33,-19.23 -2.81,-1.46 33.68,-13.98l52.26 -26.46c10.88,-8.72 8.84,-7.14 16.93,-15.24 -8.33,-41.64 -15.97,-40.07 -36.23,-64.63 -20.33,-24.63 -28.58,-13.92 -53.22,-50.69l-2.94 -26.93c-0.11,-2.84 0.3,-19.84 0.27,-22.91 -0.27,-19.37 -1.37,-38.81 -3.93,-58.02l-42.69 -64.04c-56.45,-91.95 1.36,-142.86 -114.02,-145.12 0,-50.08 -6.17,-242.3 24.87,-275.96 29.65,-32.15 34.2,-13.02 45.39,-62.92l-356.92 0zm443.37 548.04c15.07,25.73 -4.9,-37.42 0,0z"/>
      <path fill="#B3A088" d="M1824.06 1631.57l0 422.42c-18.03,-0.42 -37.56,-0.63 -56.97,0.61 12.94,0.86 30.7,1.68 56.97,1.38l0 397.26c-46.23,-64.91 -84.05,-144.61 -104.85,-183.67 -26.96,-1.06 -78.46,19.12 -105.71,13.61l-53.76 -14.44c-26.06,-4.96 -35.34,-11.53 -59.52,-30.1 -86.5,-66.49 -15.91,-62.53 -77.27,-95.49 -16.61,-8.93 -41.35,-16.54 -62.03,-25.23 -85.01,-35.73 -148.52,-126.09 -206.5,-135.07 -8.06,-9.55 -78.26,-62.73 -140.28,-132.96 -133.48,-106.52 -202.55,-195.19 -312.22,-333.39 -61.05,-61.06 -230.35,-295.51 -238.21,-298.57l-41.88 -1165.03 715.51 0 1 0c0.25,0.73 0.48,1.45 0.7,2.18l-0.18 -2.18 -0.52 0 -1 0c0.71,17.23 2.23,33.95 4.32,50.36 1.07,8.33 2.28,16.59 3.61,24.78l-2.86 -33.55c-0.2,2.93 -0.46,5.85 -0.75,8.77 -2.35,23.81 -6.85,47.24 0.91,68.31 1.36,36.52 4.94,68.41 10.61,77.74 30.56,50.36 -15.39,212.79 23.36,259.7l15.71 71.1c11.53,23.08 -5.87,13.32 22.73,81.21 0.45,1.08 0.91,2.25 1.32,3.39 -0.98,37.63 12.19,79.94 21.96,107.82 34.87,99.46 -38.68,109.86 -24.78,195.69 71.17,13.2 87.96,82.32 118.23,134.28l47.03 56.43c67.26,74.28 42.82,55.58 89.54,141.97 64.63,119.51 170.43,197.42 266.15,270.33 27.62,21.02 36.31,21.33 58.33,36.99 6.38,4.54 18.04,13.08 31.3,23.35z"/>
      <path fill="#CCC5BE" d="M1902.17 2080.23l-0.6 0.03 0.66 -0.05 -0.06 0.02zm-78.11 365.22l-66.93 -848.08c27.62,21.02 36.31,21.33 58.33,36.99 12.87,9.15 47.16,34.56 72.89,57.67 4.7,11.23 8.85,21.91 12.1,33.62 -19.2,157.53 45.38,51.03 56.66,128.32 45.16,18.89 88.01,100.13 58.33,147.26 1.23,-1.94 2.28,-3.77 3.17,-5.51 58.98,1.64 107.15,-13.88 158.82,27.41 23.26,17.76 42.17,31.33 64.9,50.1 32.39,-1.24 44.78,1.19 77.05,0.84 71.4,-0.75 52.59,-0.69 97.28,16.96l50.86 32.2c69.41,9.07 252.78,-48.1 240.53,28.77 -20.75,68.27 -129.1,79.47 -191.43,69.05 41.88,142.2 18.79,236.75 -49.47,286.6 -10.57,7.71 -71.92,15.68 -102.12,-16.69 -5.84,-6.27 -12.39,-9.65 -19.14,-11 -12.09,-2.43 -2.04,27.73 -37.06,39.14 -14.38,4.68 -46.55,6.21 -71.7,-1.72 -14.46,-4.55 -42.39,-38.21 -42.39,-38.21 -17.72,48.83 -70.87,72.17 -105.36,52.1 -18.84,-10.98 -31.75,-25.8 -33.49,-25.59 -2.5,0.31 -7.2,33.94 -39.47,61.63 -106.55,6.83 -127.41,-28.54 -192.36,-121.86zm68.08 -364.72c-53.03,2.5 -83.04,1.3 -102.35,0.01 37.58,-2.41 75.61,0.7 102.35,-0.01zm122.99 -79.01c-1.9,2.95 -5.73,11.96 -16.33,23.61 4.89,-6.46 10.28,-14.21 16.33,-23.61zm-67.8 60.5c-5.82,2.88 -12.14,5.75 -19.01,8.55 7.32,-4.4 13.42,-6.76 19.01,-8.55z"/>
      <path fill="#E3B9A4" d="M1972.08 2001.18c-161.71,8.62 -124.41,-15.74 -186.67,14.87 -25.13,12.35 -44.83,33.01 -52.66,67.35 -15.29,67.21 -2.45,0.91 19.73,69.23 55.25,111.39 57.11,105.37 116.74,222.06 77.24,151.25 114.67,105.23 136.01,96.85l-7.61 -93.29c23.08,14.42 24.41,19.17 58.44,74.48 17.01,15.36 45.87,5.05 62.43,-6.05 12.71,-8.53 20.23,-35.15 16.77,-73.34 -1.71,-18.76 -11.91,-39.04 -14.07,-63.86l32.91 29.64 49.23 93.87c26.34,42.94 95.7,33.31 113.42,-15.52 15.09,-41.55 -2.22,-72.69 -13.74,-104.13 -13.84,-37.81 -34.12,-87.48 -26.97,-123.48 2.07,1.69 4.99,1.78 5.87,5.42 1.77,7.43 41.4,49.79 48.42,79.63 8.54,68.75 9.66,116.88 34.43,167.01 7.28,11.05 19.83,24.37 45.52,23.04 40.28,-19.2 46.88,-60.44 56.32,-108.61 6.46,-73.77 2.52,-107.9 2.19,-145.6 -10.08,-14.97 -55.93,-59.77 -64.99,-72.89 47.45,30.78 247.58,44.7 268.33,-23.57 12.25,-76.87 -65.29,-61.04 -134.7,-70.11l-50.86 -32.2c-44.69,-17.65 -25.88,-17.71 -97.28,-16.96 -32.27,0.35 -44.66,-2.08 -77.05,-0.84 -22.73,-18.77 -41.64,-32.34 -64.9,-50.1 -51.67,-41.29 -99.84,-25.77 -158.82,-27.41 -0.97,1.89 -2.12,3.88 -3.48,6 -4.54,7.05 -20.19,48.8 -112.96,78.51z"/>
      <path fill="#185E70" d="M1231.47 -0.01l0.18 2.18c-0.22,-0.73 -0.45,-1.45 -0.7,-2.18l-1 0 -715.51 0 41.88 1165.03c7.86,3.06 177.16,237.51 238.21,298.57 109.67,138.2 178.74,226.87 312.22,333.39 62.02,70.23 132.22,123.41 140.28,132.96 57.98,8.98 121.49,99.34 206.5,135.07 20.68,8.69 45.42,16.3 62.03,25.23 61.36,32.96 -9.23,29 77.27,95.49 24.18,18.57 33.46,25.14 59.52,30.1l53.76 14.44c27.25,5.51 58.91,-1.44 85.87,-0.38 -53.83,-177.68 -76.44,-70.84 -59.23,-146.49 27.21,-119.42 211.34,-68.99 256.06,-85.31 40.91,-30.66 46.59,1.66 96.23,-75.42 30.29,-47.05 -12.7,-128.79 -58.02,-147.75 -11.28,-77.29 -75.86,29.21 -56.66,-128.32 -3.25,-11.71 -7.4,-22.39 -12.1,-33.62 -25.73,-23.11 -60.02,-48.52 -72.89,-57.67 -22.02,-15.66 -30.71,-15.97 -58.33,-36.99 -95.72,-72.91 -201.52,-150.82 -266.15,-270.33 -46.72,-86.39 -22.28,-67.69 -89.54,-141.97l-47.03 -56.43c-30.27,-51.96 -47.06,-121.08 -118.23,-134.28 -13.9,-85.83 59.65,-96.23 24.78,-195.69 -9.77,-27.88 -22.94,-70.19 -21.96,-107.82 -0.41,-1.14 -0.87,-2.31 -1.32,-3.39 -28.6,-67.89 -11.2,-58.13 -22.73,-81.21l-15.71 -71.1c-38.75,-46.91 7.2,-209.34 -23.36,-259.7 -5.67,-9.33 -9.25,-41.22 -10.61,-77.74 -7.76,-21.07 -3.26,-44.5 -0.91,-68.31 0.29,-2.92 0.55,-5.84 0.75,-8.77l2.86 33.55c-1.33,-8.19 -2.54,-16.45 -3.61,-24.78 -2.09,-16.41 -3.61,-33.13 -4.32,-50.36l1 0 0.52 0z"/>
      <polygon fill="#EAF0F2" points="2381.26,4916.09 3511.28,4879.91 3636.93,4628.83 3516.9,5047.92 2381.26,5047.92 "/>
      <polygon fill="#F2F2F2" points="1824.06,4843.69 3033.98,4843.69 3001.76,4869.91 2319.24,4877.59 2210.03,4876.53 2001.82,4875.39 1733.43,4878.32 1733.34,4632.43 1824.06,4628.47 "/>
     </g>
    </g>
   </g>
  </g>
  <polygon fill="none" points="-0,-0.01 5291.68,-0.01 5291.68,5291.66 -0,5291.66 "/>
 </g>
</svg>
