<?xml version="1.0" encoding="UTF-8"?>
<!DOCTYPE svg PUBLIC "-//W3C//DTD SVG 1.1//EN" "http://www.w3.org/Graphics/SVG/1.1/DTD/svg11.dtd">
<!-- Creator: CorelDRAW 2017 -->
<svg xmlns="http://www.w3.org/2000/svg" xml:space="preserve" width="29.104mm" height="43.6562mm" version="1.1" style="shape-rendering:geometricPrecision; text-rendering:geometricPrecision; image-rendering:optimizeQuality; fill-rule:evenodd; clip-rule:evenodd"
viewBox="0 0 2910.4 4365.62"
 xmlns:xlink="http://www.w3.org/1999/xlink">
 <defs>
  <style type="text/css">
   <![CDATA[
    .fil0 {fill:black}
    .fil1 {fill:#71E2FF}
    .fil2 {fill:#FDFDFD}
   ]]>
  </style>
 </defs>
 <g id="Слой_x0020_1">
  <metadata id="CorelCorpID_0Corel-Layer"/>
  <g id="_433191651024">
   <path class="fil0" d="M783.61 2487.79l164.25 0c0,0 11.83,1753.2 0,1795.91l-164.3 0 0.05 -1795.91zm-277.08 0.39l166.44 -0.49 -2.23 1796.01 -164.26 0 0.05 -1795.52zm-277.56 0l165.33 -0.92 -0.97 1796.44 -163.97 0 -0.39 -1795.52zm2309.09 625.61c0,0 104.29,-0.05 287.69,-0.05l-0.05 1046.82c-335.2,0 -287.3,-0.1 -287.3,-0.1 0,-348.63 2.52,-698.14 -0.34,-1046.67zm-358.91 -0.05l288.66 0 -1.31 1046.82 -287.35 -0.78 0 -1046.04zm-355.03 0l287.79 0 -4.37 1046.72c-17.21,-0.44 -284.58,0.39 -284.58,0.14 -3.11,-251.42 0.19,-1043.66 1.16,-1046.86zm-353 0l291.62 -1.12c0,0 -1.4,795.39 -5.67,1048.23 0,0 -286.87,-0.58 -286.87,-0.58l0.92 -1046.53zm-374.76 1046.82c0.24,-188.16 5.38,-1047.06 5.38,-1047.06 0,0 114.23,0.24 297.63,0.24l-2.08 1046.82c-101.96,0 -300.93,0 -300.93,0l0 0zm-990.24 -2018.59l968.81 -0.87 -3.93 2142.6 -86.29 0 -1.99 -1825.73 -229.85 -0.87 0 1826.6 -48.14 -0.05 -0.3 -1823.15 -218.26 0.24c-0.15,1.55 -8.34,1367.62 -8.34,1638.2 0,190.77 22.35,185.58 -43.15,188.49 -26.86,-52.02 -9.26,-1596.11 -10.52,-1826.69 0,0 -226.89,0.14 -226.89,0.14l0.82 1826.99 -91.82 -2.13 -0.15 -2143.77zm239.94 -248.37c0.68,-81.6 -3.83,-452.53 -3.83,-452.53 -45.28,-147.19 -15.27,-379.08 -15.27,-557.01l526.85 -0.34c0,165.13 8.87,354.79 0.29,516.77 -3.06,35.73 -16.92,39.81 -15.52,40.82 0,0 -7.27,350.57 -8.38,451.37l-36.41 0 0 -451.51 -112.77 0c0,58.08 -3.74,453.06 -3.74,453.06 0,0 -30.1,-0.39 -30.64,-0.34l-1.64 -452.33 -110.01 -0.3 -4.31 451.42 -34.47 0 0 -451.56 -112.77 0.1c0,85.47 0,170.94 0,256.42 0,121.78 -3.54,196.78 -3.54,196.78 0,0 -19.49,-1.69 -33.84,-0.82zm-3.78 -1119.49c3.39,0 50.71,-85.86 61.62,-119.46l369.43 3.3c15.85,27 53.91,109.18 71.85,116.16l-502.9 0zm249.53 -380.58l183.36 228.78 -369.72 -1.55c0,0 183.74,-224.66 186.36,-227.23zm-356.73 1386.23c-0.29,154.52 0,68.85 13.77,150.88 1.84,11.2 -1.99,17.89 -3,20.17 -20.32,46.3 -14.74,-2.57 -20.51,85.52l-98.52 2.71 -13.43 38.11c-19.92,63.71 -34.32,46.25 -37.81,61.77l0 2175.52 2780.72 -3.44 0.14 -1258.74c-582.31,-0.29 -1168.02,12.51 -1749.36,0l-1.36 -923.62c-19.25,-17.02 18.66,-6.64 -36.46,-20.51l-0.97 -71.02 -113.5 -0.78c-0.48,-25.94 2.14,-36.99 -6.69,-61.04l-7.41 -14.69c-35.93,-65.21 5.57,15.47 5.04,-129.45l-1.12 -369.52c-2.86,-2.52 -6.78,-4.61 -9.6,-6.11l-49.59 -14.4 -0.73 -524.23c2.71,-88.14 42.32,-20.71 30.45,-132.55 -59.05,-30.01 -43.35,-22.69 -74.08,-76.46 -46.64,-81.54 -17.36,-24.29 -16.49,-87.7 -52.65,-51.34 -149.13,-169.11 -190.24,-228.21 -22.3,-32.09 -24.34,-68.98 -24.24,-151.21 0,0 -16.44,-111.02 -18.62,-144.52 -15.85,93.86 -22.54,137.3 -22.59,142.58 0.24,118.05 7.18,120.09 -31.03,167.36 -25.35,29.62 -176.28,195.33 -180.5,209.78 -6.54,22.16 22.06,20.94 -4.07,68.17l-38.01 64.19c-11.83,17.74 -32.58,19 -44.26,31.99 -13.09,14.55 -16.49,45.67 -0.97,72 29.77,59.83 25.35,-20.07 25.31,178.31 -0.05,134.74 4.31,276.69 -1.22,409.82l-58.56 0.39c-3.59,109.95 -0.24,228.59 -0.49,338.93z"/>
   <path class="fil1" d="M106.27 4285.74l91.82 2.13 -0.82 -1826.99c0,0 226.89,-0.14 226.89,-0.14 1.26,230.58 -7.66,1827.08 -7.66,1827.08 0,0 64.34,0.1 64.34,0.1 -10.33,-266.07 5.18,-1825.63 5.18,-1825.63l218.41 -1.79 0.15 1827.27 48.14 -0.09 2.43 -1826.89 227.57 0.05 1.41 1827.42 86.58 -0.58 4.22 -2146.58 -968.81 0.87 0.15 2143.77z"/>
   <path class="fil1" d="M666.86 1026.84c21.28,12.71 33.74,25.02 44.99,42.13 59.05,89.94 16.87,187.63 -71.31,224.96 -56.58,24 -72.92,3.83 -123.83,-6.74 36.9,-21.57 36.8,-85.96 112.92,-112.96 -12.17,-77.57 -20.56,17.89 -20.56,-174.44 11.1,2.28 43.88,18.76 57.79,27.05zm-211.96 -70.68c-198.87,126.82 -93.52,486.41 184.91,429.84 273.34,-55.66 236.88,-461.45 -40.29,-468.68 -50.42,-0.48 -106.42,14.4 -144.62,38.84z"/>
   <path class="fil2" d="M629.63 1174.23c-75,38.93 -76.02,91.39 -112.92,112.96 50.91,10.57 67.25,30.74 123.83,6.74 88.18,-37.33 130.36,-135.02 71.31,-224.96 -11.25,-17.11 -23.71,-29.42 -44.99,-42.13 -13.91,-8.29 -46.69,-24.77 -57.79,-27.05 0,192.33 6.69,75.83 20.56,174.44z"/>
   <polygon class="fil1" points="2542.91,3934.63 2679.68,3934.49 2679,3794.91 2542.86,3795 "/>
   <polygon class="fil1" points="2543.83,3380.53 2679.24,3380.53 2678.76,3242.31 2545.21,3242.7 "/>
   <polygon class="fil1" points="2542.43,3749.96 2679.77,3749.24 2678.76,3611.99 2544.07,3611.6 "/>
   <polygon class="fil1" points="2685.06,3934.53 2820.42,3933.56 2820.23,3795.88 2684.86,3795.54 "/>
   <polygon class="fil1" points="2543.25,4117.89 2678.32,4117.31 2678.51,3979.04 2543.25,3979.09 "/>
   <polygon class="fil1" points="2684.72,4117.8 2820.27,4117.31 2820.52,3979.57 2685.16,3979.33 "/>
   <polygon class="fil1" points="2683.85,3380.53 2820.9,3380.53 2820.37,3243.23 2685.79,3242.8 "/>
   <polygon class="fil1" points="2542.28,3565.3 2679.48,3565.25 2678.42,3428.29 2543.83,3427.95 "/>
   <polygon class="fil1" points="2683.89,3565.25 2821,3565.25 2820.47,3428.09 2686.08,3427.85 "/>
   <polygon class="fil1" points="2684.77,3749.09 2820.52,3748.61 2819.98,3612.23 2685.88,3611.94 "/>
   <polygon class="fil1" points="2185.22,3934.05 2321.99,3933.91 2321.31,3794.33 2185.17,3794.43 "/>
   <polygon class="fil1" points="2186.14,3379.96 2321.55,3379.96 2321.08,3241.74 2187.52,3242.12 "/>
   <polygon class="fil1" points="2184.74,3749.39 2322.08,3748.66 2321.07,3611.41 2186.38,3611.02 "/>
   <polygon class="fil1" points="2327.37,3933.96 2462.73,3932.99 2462.54,3795.3 2327.18,3794.96 "/>
   <polygon class="fil1" points="2185.56,4117.32 2320.63,4116.73 2320.82,3978.46 2185.56,3978.51 "/>
   <polygon class="fil1" points="2327.03,4117.22 2462.58,4116.73 2462.83,3979 2327.47,3978.76 "/>
   <polygon class="fil1" points="2326.16,3379.96 2463.21,3379.96 2462.68,3242.66 2328.1,3242.22 "/>
   <polygon class="fil1" points="2184.59,3564.72 2321.79,3564.67 2320.73,3427.71 2186.14,3427.37 "/>
   <polygon class="fil1" points="2326.21,3564.67 2463.31,3564.67 2462.78,3427.52 2328.39,3427.28 "/>
   <polygon class="fil1" points="2327.08,3748.52 2462.83,3748.03 2462.29,3611.65 2328.19,3611.36 "/>
   <polygon class="fil1" points="1826.4,3934.49 1963.16,3934.35 1962.48,3794.77 1826.35,3794.87 "/>
   <polygon class="fil1" points="1827.31,3380.4 1962.73,3380.4 1962.25,3242.17 1828.7,3242.56 "/>
   <polygon class="fil1" points="1825.91,3749.83 1963.26,3749.1 1962.24,3611.85 1827.56,3611.46 "/>
   <polygon class="fil1" points="1968.54,3934.4 2103.91,3933.43 2103.71,3795.74 1968.35,3795.4 "/>
   <polygon class="fil1" points="1826.74,4117.75 1961.81,4117.17 1962,3978.9 1826.74,3978.95 "/>
   <polygon class="fil1" points="1968.2,4117.66 2103.76,4117.17 2104,3979.44 1968.64,3979.19 "/>
   <polygon class="fil1" points="1967.33,3380.4 2104.39,3380.4 2103.86,3243.1 1969.27,3242.66 "/>
   <polygon class="fil1" points="1825.77,3565.16 1962.97,3565.11 1961.9,3428.15 1827.32,3427.81 "/>
   <polygon class="fil1" points="1967.38,3565.11 2104.49,3565.11 2103.95,3427.96 1969.56,3427.71 "/>
   <polygon class="fil1" points="1968.25,3748.95 2104,3748.47 2103.47,3612.09 1969.37,3611.8 "/>
   <polygon class="fil1" points="1476.73,3933.92 1613.5,3933.77 1612.82,3794.19 1476.69,3794.29 "/>
   <polygon class="fil1" points="1477.65,3379.82 1613.07,3379.82 1612.59,3241.6 1479.04,3241.99 "/>
   <polygon class="fil1" points="1476.25,3749.25 1613.6,3748.52 1612.58,3611.27 1477.9,3610.88 "/>
   <polygon class="fil1" points="1618.88,3933.82 1754.24,3932.85 1754.05,3795.16 1618.69,3794.82 "/>
   <polygon class="fil1" points="1477.07,4117.18 1612.14,4116.6 1612.34,3978.33 1477.07,3978.38 "/>
   <polygon class="fil1" points="1618.54,4117.08 1754.1,4116.6 1754.34,3978.86 1618.98,3978.62 "/>
   <polygon class="fil1" points="1617.67,3379.82 1754.73,3379.82 1754.2,3242.52 1619.61,3242.08 "/>
   <polygon class="fil1" points="1476.1,3564.58 1613.31,3564.53 1612.24,3427.57 1477.66,3427.23 "/>
   <polygon class="fil1" points="1617.72,3564.53 1754.83,3564.53 1754.29,3427.38 1619.9,3427.14 "/>
   <polygon class="fil1" points="1618.59,3748.38 1754.34,3747.89 1753.81,3611.51 1619.71,3611.22 "/>
   <polygon class="fil1" points="1108.41,3934.27 1245.18,3934.12 1244.5,3794.55 1108.36,3794.64 "/>
   <polygon class="fil1" points="1109.33,3380.17 1244.74,3380.17 1244.27,3241.95 1110.71,3242.34 "/>
   <polygon class="fil1" points="1107.93,3749.6 1245.27,3748.88 1244.26,3611.62 1109.57,3611.24 "/>
   <polygon class="fil1" points="1250.56,3934.17 1385.92,3933.2 1385.73,3795.52 1250.37,3795.18 "/>
   <polygon class="fil1" points="1108.75,4117.53 1243.82,4116.95 1244.01,3978.68 1108.75,3978.73 "/>
   <polygon class="fil1" points="1250.22,4117.43 1385.77,4116.95 1386.02,3979.21 1250.66,3978.97 "/>
   <polygon class="fil1" points="1249.35,3380.17 1386.4,3380.17 1385.87,3242.87 1251.29,3242.44 "/>
   <polygon class="fil1" points="1107.78,3564.94 1244.98,3564.89 1243.92,3427.93 1109.33,3427.59 "/>
   <polygon class="fil1" points="1249.4,3564.89 1386.5,3564.89 1385.97,3427.73 1251.58,3427.49 "/>
   <polygon class="fil1" points="1250.27,3748.73 1386.02,3748.25 1385.48,3611.87 1251.38,3611.58 "/>
  </g>
 </g>
</svg>
