<?xml version="1.0" encoding="UTF-8"?>
<!DOCTYPE svg PUBLIC "-//W3C//DTD SVG 1.1//EN" "http://www.w3.org/Graphics/SVG/1.1/DTD/svg11.dtd">
<!-- Creator: CorelDRAW 2017 -->
<svg xmlns="http://www.w3.org/2000/svg" xml:space="preserve" width="55mm" height="45mm" version="1.1" style="shape-rendering:geometricPrecision; text-rendering:geometricPrecision; image-rendering:optimizeQuality; fill-rule:evenodd; clip-rule:evenodd"
viewBox="0 0 5500 4500"
 xmlns:xlink="http://www.w3.org/1999/xlink">
 <defs>
  <style type="text/css">
   <![CDATA[
    .str0 {stroke:black;stroke-width:35;stroke-miterlimit:22.9256}
    .fil2 {fill:none}
    .fil1 {fill:black}
    .fil3 {fill:#71E2FF}
    .fil0 {fill:white}
   ]]>
  </style>
 </defs>
 <g id="Слой_x0020_1">
  <metadata id="CorelCorpID_0Corel-Layer"/>
  <path class="fil0 str0" d="M3963 1563.94c100.9,2.51 224.61,186.07 180.1,378.94 -44.52,192.87 -183.33,200.06 -253.46,146.36 -32.7,-25.06 -70.56,-46.64 -69.9,-141.73 0.23,-33.05 -0.85,-72.04 -6.8,-117.78 -23.12,-177.31 49.17,-268.29 150.06,-265.79z"/>
  <path class="fil0 str0" d="M2693.42 2126.64c489.53,-161.06 1255.5,-469.78 1261.5,-472.9 0,0 90.92,11.79 116.89,143.6 20.53,114.03 -41.96,219.07 -41.96,219.07l-1145.77 650.84 -190.66 -540.61z"/>
  <g>
   <path class="fil0" d="M3106.8 1686.85l247.88 -299.3c-2.61,393.3 14.34,766.6 11.73,1159.9 0.93,59.92 -7.07,144.33 -61.46,217.45l-211.06 325 12.91 -1403.05z"/>
   <path id="1" class="fil1" d="M3106.8 1686.85l247.88 -299.3c-2.61,393.3 14.34,766.6 11.73,1159.9 0.93,59.92 -7.07,144.33 -61.46,217.45l-211.06 325 12.91 -1403.05zm212.76 -202.08l-178.02 214.93 -11.69 1270.77 145.48 -224.01c0.49,-0.8 1.02,-1.58 1.59,-2.34 23.95,-32.19 37.75,-67.12 45.47,-100.68 7.96,-34.64 9.59,-67.86 9.16,-95.44l0.01 0 -0.01 -0.69c1.3,-196.13 -2.29,-387.71 -5.86,-579.26 -3,-160.04 -5.98,-320.08 -6.13,-483.28z"/>
  </g>
  <g>
   <path class="fil0" d="M1941.1 1420.8c45.47,-21.49 84.45,-32.39 111.75,-35.24l1301.83 1.99 -246.84 298.03 -1471.66 -0.4c88.79,-85.38 225.92,-197.84 304.92,-264.38z"/>
   <path id="1" class="fil1" d="M1941.1 1420.8c45.47,-21.49 84.45,-32.39 111.75,-35.24l1301.83 1.99 -246.84 298.03 -1471.66 -0.4c88.79,-85.38 225.92,-197.84 304.92,-264.38zm70.18 9.69c-15.84,4.99 -33.19,11.66 -51.53,20.14l-40.6 34.16c-57.82,48.37 -130.43,109.11 -193.68,165.55l1365.85 0.38 189.19 -228.42 -1225.36 -1.88c-11.45,1.29 -25.73,4.41 -42.33,9.55l-1.54 0.52z"/>
  </g>
  <path class="fil0 str0" d="M1729.74 1669.01l1291.07 0c69,0 125.46,56.46 125.46,125.47l0 1046.36c0,250.96 -205.31,456.27 -456.26,456.27l-629.49 0c-250.94,0 -456.26,-205.31 -456.26,-456.27l0 -1046.36c0,-69.01 56.47,-125.47 125.48,-125.47z"/>
  <line class="fil2 str0" x1="1615.41" y1="2748.12" x2="3143.24" y2= "2748.12" />
  <line class="fil2 str0" x1="1610.29" y1="2859.28" x2="3138.12" y2= "2859.28" />
  <line class="fil2 str0" x1="1628.18" y1="2971.85" x2="3120.18" y2= "2971.85" />
  <rect class="fil3 str0" x="2164.25" y="1880.55" width="436.84" height="112.74" rx="97.12" ry="106.52"/>
  <circle class="fil3 str0" cx="2029.82" cy="1934.43" r="48.68"/>
  <path class="fil0" d="M3148.96 1728.86l168.29 -217.18 0.71 -49.63c-62.41,76.98 -129.7,153.01 -192.11,229.98 11.36,12.06 18.05,26.2 23.11,36.83z"/>
  <path class="fil0" d="M3096.19 1665.61l203.26 -241.03 -45.86 0.27c-62.41,76.97 -139.1,146.14 -201.51,223.12 19.91,1.3 33.22,8.39 44.11,17.64z"/>
 </g>
</svg>
