<?xml version="1.0" encoding="UTF-8"?>
<!DOCTYPE svg PUBLIC "-//W3C//DTD SVG 1.1//EN" "http://www.w3.org/Graphics/SVG/1.1/DTD/svg11.dtd">
<!-- Creator: CorelDRAW 2017 -->
<svg xmlns="http://www.w3.org/2000/svg" xml:space="preserve" width="51.5936mm" height="43.6562mm" version="1.1" style="shape-rendering:geometricPrecision; text-rendering:geometricPrecision; image-rendering:optimizeQuality; fill-rule:evenodd; clip-rule:evenodd"
viewBox="0 0 5159.36 4365.62"
 xmlns:xlink="http://www.w3.org/1999/xlink">
 <defs>
  <style type="text/css">
   <![CDATA[
    .fil1 {fill:black}
    .fil0 {fill:#71E2FF}
   ]]>
  </style>
 </defs>
 <g id="Слой_x0020_1">
  <metadata id="CorelCorpID_0Corel-Layer"/>
  <g id="_433190508864">
   <polygon class="fil0" points="4582.01,4174.6 926.9,4175.93 550.81,3650.74 546.15,3643.26 540.84,3632.87 537.44,3617.32 537.26,3565.28 1169.39,3558.91 2919.96,3757.99 3394.11,3830.65 4180.94,3811.88 "/>
   <g>
    <path class="fil1" d="M1884.15 3396.09c-15.67,20.45 -29.76,32.77 -41.53,59.67l41.22 -0.28 0.31 -59.39zm-235.86 -26.16c-15.25,14.04 -40.73,52.89 -43.9,76.99l48.3 1.57 -4.4 -78.56zm-312.5 -24.32l-42.83 90.19 55.92 0.8 -13.09 -90.99zm1883.22 161.97l209 8.94 -48.23 -368.3c-21.66,14.85 -101.8,134.79 -117.13,157.29 -55.35,81.3 -79.04,72.99 -43.64,202.07zm-1958.83 -75.44l-22.12 -113.09c-13.5,16.94 -25.75,47.9 -31.99,72.52 -12.12,47.76 15.17,45.85 54.11,40.57zm-418.22 -90.7c-11.82,17.04 -17.41,53.08 -16.4,76.93 24.86,1.74 78.57,13.59 66.24,-19.47 -1.36,-3.64 -45.36,-52.08 -49.84,-57.46zm618.44 98.13l80.35 5.23 -20.06 -188c-22.27,20.68 -34.69,55.06 -49.13,84.05 -22.6,45.37 -20.87,41.82 -11.16,98.72zm206.97 6.9l85.99 5.8 -5.84 -251.26c-23.39,20.15 -49.28,74.98 -67.87,106.74 -30.19,51.57 -16.46,71.39 -12.28,138.72zm-897 -190.29c-51.48,3.72 -59.17,13.76 -74.6,57.6 -9.52,27.1 -29.47,72.67 -31.61,98.68l144.42 5.5c51.36,-103.93 -13.28,-114.48 -38.21,-161.78zm597.26 182.08l39.18 0.97c31.54,-56.41 33.8,-54.17 23.32,-125.82 -7.02,-48.04 -13.3,-96.73 -20.67,-144.48 -52.51,74.11 -79,179.45 -41.83,269.33zm-63.4 -299.12c-14.65,19.41 -51.26,122.46 -53.73,134.37 -6.44,31.2 16.67,123.24 23.92,156.9l17.85 -27.14c5.99,-12.34 9.37,-21.56 14.09,-33.09 42.07,-102.77 15.28,-82.91 -2.13,-231.04zm-107.69 233.64c29.1,-48.08 35.75,-83.14 24.37,-139.53 -8.35,-41.36 -18.78,-113.95 -33.12,-150.29 -30.94,63.01 -26.96,240.05 8.75,289.82zm-348.34 -147.72l-71.55 23.46c18.31,23.06 32.27,45.97 53.02,61.91l18.53 -85.37zm709.5 217.49c36.3,4.55 21.69,4.03 60.85,-60.86 26.2,-43.42 28.27,-36.52 22.93,-99.08 -6.74,-78.88 -13.6,-159.47 -17.64,-238.37l-88.72 170.51c-6.27,23.46 12.83,200.93 22.58,227.8zm-107.01 -97.24c27.07,-28.54 67.42,-115.6 63.12,-157.71 -6.86,-67.14 -13.26,-142.15 -23.97,-208.6 -11.56,17.46 -66.18,142.33 -67.71,163.48 -1.54,21.33 21.52,184.56 28.56,202.83zm443.68 -398.32c-24.6,18.98 -51.7,80.15 -68.16,107.85 -83.22,140.04 -63.93,85.67 -59.5,278.48 0.67,29.07 0.04,60.74 1.33,89.3 1.77,39.19 9.85,32.97 50.5,29.97 15.13,-17.39 49.28,-62.61 58.53,-79.98 16.52,-31.01 16.61,-376 17.3,-425.62zm165.71 200.27c-30.56,28.38 -70.6,96.15 -98.34,134.4 -50.4,69.5 -60.67,64.35 -60.72,175.69l129.55 4.41 29.51 -314.5zm-681.38 -205.87c-18.23,20.9 -59.91,143 -62.09,154.51 -6.06,32.11 16.18,149.08 23.98,187.04 88.45,-162.66 62.15,-161.95 38.11,-341.55zm1174.1 166.68l-246.53 258.69c-24.99,24.9 -63.1,56.88 -68.85,103.37l196.4 6.65c24.44,-32.64 95.53,-304.08 118.98,-368.71zm-1309.29 144.99c75.12,-235.02 59.88,-79.95 20.31,-372.13l-34.37 83.59c-7.3,20.11 -27.64,68.63 -28.27,89.36 -1.29,42.8 24.81,168.96 42.33,199.18zm414.12 54.14c20.25,-24.13 37.09,-57.95 54.92,-88.86 32.26,-55.91 34.9,-40.34 32.68,-116.8 -2.78,-96.44 -5.42,-192.9 -7.08,-289.4 -1.15,1.42 -2.78,1.81 -3.28,4.39l-49.31 94.98c-81.16,162.03 -48.9,123.78 -27.93,395.69zm1535.66 63.47c1.05,-1.01 3.5,-5.08 4.35,-3.69l114.07 -154.69c58.08,-79.48 80.05,-85.49 48.7,-189.44 -39.93,-14.03 -77.46,-33.38 -116.1,-46.11 -36.56,-12.05 -79.67,22.29 -108.7,42.92l57.68 351.01zm230.92 -323.34l-44.31 -14.58 5.43 55.17c1.95,0.3 4.15,-0.31 4.6,0.95l16.93 -10.57c7.37,-9.71 8.7,-20.31 17.35,-30.97zm-1893.26 137.04c21.72,-24.87 88.01,-154.4 88.41,-191.56 0.65,-61.01 -11.95,-205.62 -21.91,-266.23 -20.96,31.36 -71.06,154.66 -87.22,196.98 -12.93,33.83 6.63,228.96 20.72,260.81zm-113.7 -83.01c14.91,-20.03 67.71,-143.65 68.17,-170.29 0.76,-43.73 -16.25,-176.42 -24.6,-222.11 -21.28,52.19 -49.22,117.73 -66.14,171.84 -11.19,35.74 8.76,192.99 22.57,220.56zm1748.47 -158.01l-48.34 -15.29 6.01 43.36c9.48,-3.26 11.68,-2.59 22.75,-9.59l19.58 -18.48zm-2263.96 -17.01l-38.15 12.21 35.3 18.72 2.85 -30.93zm405.91 144.25c12.7,-38.24 63.32,-134.07 63.08,-180.54 -0.27,-51.69 -21.66,-165.67 -30.47,-222.74 -85.11,189.17 -74.05,185.93 -32.61,403.28zm-398.72 -219l-24.51 44c5.49,-0.43 29.26,4.7 30.33,-26.96 1.1,-32.34 0.32,-10.01 -5.82,-17.04zm331.19 -123.24c-20.09,44.63 -58.88,238.43 -47.85,290.03 18.11,-28.93 37.02,-94.99 49.85,-129.56 23.27,-62.7 9.39,-91.68 -2,-160.47zm1847.07 133.38c0.69,-12.44 2.3,-10.79 -0.25,-24.15 -3.35,-17.49 -4.82,-14.73 -10.2,-23.1l-12.24 34.37 22.69 12.88zm17.84 5l40.15 15.58c-8.42,-26.23 -28,-59.01 -49.71,-77.24l9.56 61.66zm-766.49 -119.3l-207.07 291.14c-60.14,88.73 -49.55,62.37 -61.4,191.57 -6.92,75.59 -16.77,155.91 -20.94,232.95 215.13,4.63 159.74,64.56 253.72,-495.11 11.45,-68.15 31.17,-155.44 35.69,-220.55zm-706.19 231.72c17.45,-18.62 103.61,-193.49 104.59,-225.24 3.3,-105.54 -7.37,-225.5 -7.93,-333.41 -22.66,28.34 -84.36,187.73 -105.57,236.46 -26.84,61.61 2.74,243.02 8.91,322.19zm1470.79 -252.73l13.8 -35.83 -43.29 -12.11c5.96,29.45 12.09,32.78 29.49,47.94zm-1529.48 -323.73c-20.2,63.29 -57.97,156.2 -85.25,225.9 -22.94,58.64 -13.62,68.79 -6.62,134.37 5.34,50.16 9.18,98.54 17.1,147.49 11.47,-17.79 88.52,-194 93.78,-216.2 5.98,-25.19 -13.08,-253.23 -19.01,-291.56zm-189.87 455.91c17.82,-20.69 71.76,-179.07 72.43,-194.04 2.13,-47.39 -18.82,-193.11 -26.41,-245.34 -11.15,16.65 -66.61,167.58 -74.68,196.39 -8.34,29.78 16.02,211.85 28.66,242.99zm-259.15 -226.85l-10.28 30.92 55.58 -11.6c-15.23,-13.49 -22.53,-18.04 -45.3,-19.32zm190.4 -135.99c-24.75,44.81 -70.42,165.04 -62.88,221.73 1.68,12.61 4.19,27.26 6.27,40.84l11.66 44.93c23.39,-41.04 38.31,-95.7 55.38,-143.35 15.34,-42.8 1.42,-114.86 -10.43,-164.15zm797.54 67.69l-177.77 302.11c-25.87,44.22 -22.4,39.82 -23.24,99.47 -1.42,99.22 -11.58,281.78 -6.54,361.51l99.91 -137.12c54.72,-79.29 56.64,-55.57 67.76,-176.63 12.49,-136.05 39.68,-317.16 39.88,-449.34zm-900.77 37.85l-43.27 9.14c41.19,37.59 39.85,5.59 43.27,-9.14zm691.68 -127.53c-45.96,72.11 -95.82,191.11 -134.93,270.16 -24.29,49.1 -13.27,117.54 -11.77,180.04 1.6,66.89 1.76,135.55 5.43,202.14 8.26,-6.69 132.63,-202.53 134.45,-256.07 4.03,-119.02 13.67,-280.68 6.82,-396.27zm-740.4 87.95l-13.61 25.49 49.19 -9.89c-3.95,-3.4 -4.3,-6.18 -12.94,-10.03 -13.65,-6.11 -10.83,-3.63 -22.64,-5.57zm1772.56 20.27c-13.46,-22.21 -81.76,-109.07 -100.54,-121.33l-35.72 11.28c1.23,13.7 4.84,48.09 8.48,57.51 11.32,29.27 98.98,46.87 127.78,52.54zm-1741.42 -139.67l-43.97 11.04 35.68 18.48 8.29 -29.52zm1243.18 -169.13l-64.83 384.95 139.76 -192.48c36.28,-52.02 29.26,-46.21 -5.89,-99.73 -23.44,-35.71 -41.87,-62.59 -69.04,-92.74zm-1020.15 22.3c-28.54,31.38 -50.13,81.09 -71.79,125.93 -27.61,57.19 -12.28,109.05 0.02,175.08 20.71,-36.62 36.66,-93.6 51.63,-136.03 29.24,-82.87 30.96,-67.45 20.14,-164.98zm-135.19 71.54c-14.39,9.29 -17.25,16.06 -24.89,33.99l41.55 -7.57c-6.78,-27.99 10.15,-5.13 -16.66,-26.42zm435.49 -351.33c-31.78,52.86 -81.82,215.36 -108.36,285.85 -29.63,78.73 -22.55,75 -15.75,163.98 4.69,61.32 9.76,123.06 13.85,185.07 11.37,-13.87 106.48,-230.07 115.23,-261.05 11.03,-39.12 -0.28,-317.48 -4.97,-373.85zm-175.02 101.88c-34.36,57.63 -60.19,150.73 -87.92,224.3 -24.33,64.56 1.8,212.2 12.87,284.49 1.36,-1.45 3.21,-5.79 3.79,-4.63 4.22,8.32 81.91,-209.26 86.86,-222.17 22.17,-57.81 5.49,-134.18 0.48,-211.9 -0.58,-8.88 -1.08,-31.39 -2.15,-38.28l-13.93 -31.81zm372.28 -130.09c-21.15,20.81 -62.53,131.66 -74.89,160.58 -87.65,205.13 -97.88,180.73 -92.92,367 1.73,65.15 -1.8,161.87 7.48,222.76 29.77,-58.75 135.38,-249.11 148.74,-300.08 11.48,-43.81 13.43,-385.99 11.59,-450.26zm-631.46 322.99c-1.15,-0.57 7.76,-8.82 -13,-4.45 -20.18,4.24 -7.24,0.89 -14.23,11.27 29.18,19.69 14.63,14.16 27.23,-6.82zm1063.52 -149.9l-54.98 86.91c-192.53,338.14 -147.22,182.36 -182.02,552.44 -8.18,87.03 -19.74,180.82 -23.97,268.98 36.89,-38.15 258.31,-351.9 266,-391.43 18.09,-93 30.67,-186.5 46.88,-281.08 27.87,-162.68 43.11,-131.12 -51.91,-235.82zm235.02 144l51.34 -8.88 -65.4 -19.97 14.06 28.85zm-1242.4 -70.27c-33.42,4.74 -10.61,-4.74 -32.61,18.63 -12.01,12.75 -14.85,11.32 -21.68,28.23 42.86,-0.73 32.67,-24.41 54.29,-46.86zm1404.44 28.45c-6.65,-12.09 10.23,-16.05 -60.91,-26.26l40.87 36.83c25.69,5.52 19.74,-10.23 20.04,-10.57zm-98.36 -7.07c-13.85,-13.98 -24.62,-20.45 -35.42,-42.26l-76.57 9.97 111.99 32.29zm-1148.8 -75.64c-18.79,16.37 -34.74,40.91 -51.2,63.6 -24.63,33.94 -15.17,49.85 -8.96,95.82l60.16 -159.42zm835.7 -40.66c-23.81,-25.41 -120.29,-123.14 -149.86,-127.54l-42.11 460.4c27.42,-42.6 182.97,-301.13 191.97,-332.86zm-418.15 715.19c1.88,-1.32 4.3,-5.88 5.22,-4.51 5.42,8.11 103.42,-169.21 105.31,-172.48 127.72,-220.3 93.01,-143.75 119.23,-435.78 1.52,-16.88 50.08,-364.05 -15.17,-229.18 -8.17,16.86 -13.98,28.76 -22.21,46.02l-138.53 281.75c-53.15,105.59 -44.92,96.07 -47.73,229.01 -2.02,94.93 -5.23,190.26 -6.12,285.17zm-204.81 -869.67c-29.29,14.94 -128.34,89.63 -137.75,107.9 -11.24,21.81 6.96,191.18 11.7,225.95 34.94,-46.33 96.61,-262.48 126.05,-333.85zm422.24 -8.55c-28.28,-29.41 -156.19,-79.83 -192.21,-61.37 -11.25,35.4 -15.95,407.62 -14.01,472.49 20.28,-22.38 184.71,-360.14 206.22,-411.12zm-397.83 -6.77l8.53 364.69c23.8,-37.44 174.39,-384.85 175.24,-425.58 -50.18,-4.47 -146.85,36.13 -183.77,60.89zm1220.94 297.55c-15.07,31.49 28.66,-15.81 -13.23,13.09 -16.91,11.68 -27.6,11.12 -52.07,9.84 0.17,2.26 0.98,18.49 0.62,20.46 -4.11,22.78 2.91,0.42 -5.97,15.93 -17.75,-0.21 -40.66,0.6 -49.14,-9.12l4.61 9.42c0.53,1.27 1.66,3.7 2.29,5.24 2.03,5.04 3.35,8.68 6.47,17.99l-63.44 -13.84 64.47 74.42 88.68 -31.28 24.74 -12.45 26.95 27.85c-37.67,43.23 33.15,1.74 -13.25,9.1 -1.18,0.18 -7.14,-1.8 -8.87,-3.22l6.98 9.55c-10.93,10.11 0.31,4.75 -22.07,13.54 -9.38,3.68 -22.85,7.3 -30.23,10.05l66.49 20.49 -29.24 37.7 -46.69 -12.39 86.81 113.47c15.41,17.79 17.66,16.57 40.96,8.34l-3.83 -52.14c-5.94,-23.59 0.64,-4.78 11.55,-13.63l7.91 56.62 75.01 -27.48c15.75,-8.93 6.5,-4.15 11.86,-8.73 -20.28,-22.14 -46.25,-25.1 -80.7,-32.24l-1.2 -19.11c43.85,-6.01 1.51,1.8 43.77,15.62 44.27,14.47 88.21,-7.22 68.82,46.12 -7.32,20.14 -5.39,5.42 -6.28,30.5 -15.72,-18.09 -11.13,-18.58 -23.44,-18.05 -25.13,1.12 -12.17,5.74 -10.62,27.44 -9.2,3.52 -17.31,6.28 -25.63,9.76 -15.91,6.67 -15.5,6.52 -26.25,15.68l38.43 11.28c-2.26,35.86 -0.83,7 1.59,17.72l7.66 21.89c16.85,-2.42 22.33,-11.69 23.95,-13.26 1.14,-1.12 3.06,-5.48 4.67,-7.05 0.78,52.82 -3.83,11.21 -15.28,35.7 -1.47,0.83 -43.21,16.58 -25.47,54.58 4.12,8.84 30.18,44.37 35.37,52.5 14.06,21.98 57.13,94.49 77.08,107.39l35.08 -19.08c42.28,13.37 -25.34,20.37 37.52,21.06l-20.41 21.21 71.37 26.19c-0.13,-10.1 -0.77,-30.75 -2.36,-38.35 -7.98,-38.21 1.16,-14.23 -14.16,-24.06l7.1 -23.28c52.49,-12.1 6.73,-3.57 22.37,7.64 -8.6,28.41 -1.16,55.91 5.1,86.45 33.65,10.1 60.3,31.15 92.94,26.11l11.73 -1.98c0.23,22.49 6.75,18.93 31.96,28.35l125.52 53.28 -9.17 10.7c-7.57,-2.97 -20.5,-12.81 -33.79,-11.7 -27.35,2.28 -14.6,0.2 -26.43,26.34l-120.33 -44.4c-76.92,55.08 -45.98,120.33 -34.36,209.13 10.89,83.29 23.64,168.18 33.16,251.22 26.32,1.44 51.08,-0.9 68.88,8.65 -45.37,12.9 -63.53,-3.69 -84.63,6.07 -21.13,9.78 -8.28,-8.2 -16.51,16.51 -4.28,-13.7 7.43,-21.67 -38.29,-22.5 -22.21,-0.41 -6.01,1.29 -11.82,0.8l-145.06 -6.55c-29.89,-6.66 -57.23,6.95 -85.7,-15.58l72.52 1.92 -14.34 -88.99 -22.9 21.72c-1.01,0.83 -3.05,2.32 -4.59,3.45l-3.04 -2.68c15.3,-41.58 29.41,-33.54 18.55,-92.23l-55.93 -318.21 -21.56 3.68c-0.72,-1.13 -1.44,-4.54 -1.61,-3.7l-2.91 -8.08c-3.33,-9.94 -0.82,-5.99 -4.35,-13.65l-17.04 1.92c12.7,-18.26 19.64,-15.43 36.83,-31.07 -4.07,-68.24 -6.02,-63.06 -66.17,-79.98 -11.01,23.7 -23.24,52.05 -35.23,78.78 -27.4,61.09 -36.38,63.84 -18.75,77.3 -8.51,15.52 7.86,5.67 -17.41,20.45 -11.97,7.02 -9.27,3.27 -20.6,3.43l78.44 -186.98 -162.53 -63.89 15.47 103.13c-5.71,18.24 4.64,35 -7.03,60 -15.15,-20.17 -10.41,-56.56 -15.76,-84.25 -2.73,-14.13 -17.17,-59.72 -31.02,-71.22l8.22 -15.16c1.12,-2.02 2.46,-4.29 3.75,-6.64l14.78 -39.68 192.95 71.27c26.25,-39.18 34.78,-65.74 10.32,-101.02 -10.13,-14.61 -17.39,-22.62 -28.82,-38.76l-34.03 -42.11 -80.23 28.12c8.33,-35.65 2.54,-27.97 -32.34,-23.77 12.76,-13.83 6.9,-8.57 25.64,-16.34 10.81,-4.48 24.26,-9.78 32.85,-14.02l-119.76 -42.7 14.21 83.39 25.83 -5.47 21.57 24.74c-45.33,-6 -11.97,-1.2 -35.75,2.13 -8.96,1.26 -21.93,4.25 -32.6,5.79l-1.04 -15.42c7.02,-9.7 4.96,-1.55 5.71,-17.82 0.11,-2.62 -3.35,-25.08 -3.88,-27.86 -3.24,-16.97 -6.78,-33.57 -10.26,-51.76l-30.28 -18.41 6.34 -38.59c11,-4.92 17.43,5.84 10.14,-28.37 -7.26,-33.98 -4.66,-21.71 -23.51,-28.14 1.62,-1.53 4.12,-6.16 4.83,-4.64 0.64,1.36 3.48,-3.45 4.28,-4.3l8.39 -9.47c-20.09,-18.99 -23.17,0.8 -59.29,-4.93 1.47,-1.23 3.79,-4.87 4.6,-3.43l13.94 -8.45c11.37,-6.25 6.07,-1.77 16.66,-8.83l-85.37 -25.16c-51.04,-11.11 -18.1,-7.69 -27.65,9.86 -17.49,-14.04 -14.16,22.3 -14.16,-27.21l26.39 -14.01c2.69,-41.62 3.57,10.92 7.06,-13.03l97.99 25.48c-4.68,-24.95 -41.7,-58.35 -57.91,-73.99 -20.93,1.72 -30.08,4.8 -51.14,9.46 -4.62,1.02 -24.93,5.07 -27.44,6.06 -26.38,10.3 -9.89,0.66 -22.24,16.66 -24.59,9.44 6.46,-5.98 -27.03,-0.7 -1.55,0.24 -4.21,1.11 -5.51,1.38 -1.35,0.27 -3.99,0.69 -5.67,1.74 28.49,26.71 20.24,-0.9 23.28,27.27 -19.95,8.04 -25.33,18.88 -26.3,20.92 -0.67,1.4 -1.66,8.01 -3.66,15.42l-10.36 28.28c-17.7,20.64 -180.07,244.63 -188.51,272.3l-114.29 684.71c23.12,-14.46 182.07,-193.08 217.31,-231.57 16.47,-17.99 31.84,-27.66 48.2,-46.15 79.67,-90.06 56.67,-94.02 76,-113.26 12.7,-1.54 4.33,-10.35 10.4,3.55 5.87,18.1 5.42,10.28 34.57,-19.15 8.38,-8.46 10.78,-12.88 18.86,-21.47 14.46,-15.36 6.8,-9.53 24.05,-19.7l1.11 8.33c-15.59,35.64 -57.58,70.37 -84.7,100.4 -25.99,28.77 -129.75,379.09 -137.08,416.96l149.8 5.1 38.63 11.99c1.3,0.65 3.34,2.21 5.2,2.85 1.34,-11.99 -4.67,0.59 8.01,-12.55l125.97 5.19 15.25 11.66 28.38 -12.28c23.01,130.19 183.12,32.19 90.44,-83.72 11.24,-7.42 6.43,-21.8 38.46,20.92 16.53,22.06 12.92,2.53 10.7,43.75 -1.1,20.46 1.77,29.82 -7.05,47.4 -6.59,13.13 -18.89,30.71 -28.76,46.62l4.47 9.98c13.93,43.59 0.21,-6.89 -6.06,36.59 -5.37,37.15 8.73,24.99 1.61,76.18l3.74 307.67c4.54,30.44 4.56,16.31 7.89,25.31 6.39,17.31 54.34,29.55 35.05,54.68 -76.07,-34.79 -57.24,-75.45 -58.94,-185.09 -1.21,-78.17 1.21,-166.97 -5.08,-243.76 -22.06,19.35 -23.42,39.64 -66.8,39.17 -22.87,-17.36 -20.64,-29.15 -36.01,-56.24 -270.56,-27.85 -542.28,-51.04 -813.68,-72.18 -269.64,-21.01 -561.83,-53.9 -830.33,-61.76 -0.14,13.93 0.68,29.45 0.3,42.93 -0.78,27.23 4.26,23.02 -9.33,37.27 -4.23,-18.74 -5.16,-43.41 -4.19,-64.02 2.46,-52.58 34.93,-26.72 7.28,-62.38 -38.03,-49.02 -0.61,-12.13 -11.9,-72.45l-21.98 -72.85c-0.58,-1.68 -1.23,-3.47 -1.8,-5.17l-7 -31.35c1.56,-29.87 9.33,-21.74 9.46,-129.05l-20.17 12.41c-17.46,20.78 -0.35,18.25 0.1,18.65 -3.49,-25.65 -2.32,-28.67 -15.28,-42.82 -24.35,-4.86 -12.42,1.44 -27.51,-18.55 53.71,-0.2 13.71,4.48 29.42,-20.46l-15.67 -1.58c-0.35,-0.12 -19.88,10.91 -11.01,-41.42l6.68 0.65c12.87,17.76 13,8.2 26.68,-5.38 23.69,8.68 -6.22,19.64 9.36,-3.41 11.67,-17.28 -2.33,-27.47 17.4,-47.33 -0.91,-2.36 -3.31,-7.68 -4.03,-6.4l-7 -11.49c-9.99,-20.88 -9.95,14.13 -4.72,-17.72 5.01,-30.46 -7.95,3.24 9.64,-15.7l6.56 -5.13c0.54,-0.49 2.2,-1.51 2.66,-1.97 14.37,-14.02 15.41,-50.37 9.13,-75l-17.3 -2.99 -28.31 4.46 -6.69 -23.09 31.75 -7.65 -38.44 -19.11c16.79,-12.91 -25.61,-15.98 31.39,-9.29l-3.56 -15.05 36.97 17.15 5.98 -39.34c0.45,-14.89 -1.18,-15.66 -1.3,-21.82 -0.03,-1.68 -0.86,-21.54 3.59,-35.56l20.4 6.78 12.08 -34.53 -54.37 6.61c-0.82,0.52 -2.46,-0.06 -2.76,0.94 -9.11,30.81 -5.21,1.06 -6.38,1.02l-25.64 -7.37c-27.36,-14.55 8.34,-5.4 -17.7,-12.12l9.03 -27.68c-6.69,-3.47 12.89,-4.51 -18.43,-3.78 -13.03,0.3 -10.45,3.12 -30.82,1.71l-21.01 -3.81c-17.91,31.78 -17.41,46.27 -49.59,38.76 14.41,18.32 9.75,20.1 10.35,29.13 0.07,1.16 -8.13,11.29 21.44,13.47l-31.93 13.63 11.87 27.22 -18.38 -3.83c-25.07,39.51 -16.52,21.05 -1.68,30.13l0.06 26.42 -20.13 7.78c2.88,24.92 -2.47,8.84 6.76,22.34 -5.34,6.87 -20.33,2.49 -29.72,29.52l3.31 19.86 21.62 0.47 -11.67 10.67c-1.42,1.07 -3.37,2.48 -4.82,3.52 -1.6,1.15 -3.95,2.85 -5.35,3.84 -1.47,1.04 -3.88,2.52 -5.73,3.91 31.92,-8.39 11.36,-15.27 28.36,2.58l-30.09 11.77c-1.27,7.59 -5.04,16.98 -5.26,23.58 -0.82,26.07 -2.21,10.39 7.03,22.35 13.03,16.52 3.67,4.58 12.19,30.56 -40.93,-4.2 -16.63,4.39 -53.44,-13.56l0.3 13.63c-19.75,-20.65 5.6,-7.89 -27.09,-24.72 -14.57,12.87 -23.39,38.04 -31.5,57.45l37.59 -10.1c7.65,29.38 -6.46,11.58 24.99,20.27 -36.67,-4.93 -2.33,-1.44 -17.67,9.69l-66.16 22.36c9.4,27.36 19.54,29.87 46.03,40.25 -1.69,1.41 -3.94,1.54 -4.89,4.45 -0.97,2.96 -7.88,6.66 -9.51,7.6 -17.55,10.04 9.47,3.04 -18.62,6.31l-35.49 -11.45c-9.68,30.46 -32.15,60.25 -31.6,96.41 38.1,-0.38 61.89,-21.39 99.85,-27.3 1.7,-0.6 4.16,-3.81 4.86,-2.4l22.18 -15.9c1.09,1.13 2.19,1.83 2.58,3.96 0.39,2.11 2.11,3.14 2.65,3.87l22.64 22.74 -21.49 11.89 10.59 31.84 -2.52 -1.74 -19.58 -19.08c-1.07,-1 -2.97,-2.88 -4.57,-4.18l-19.78 108.33c29.09,14.77 31.75,34.76 56.24,53.68l14.45 -32.46 8.94 -0.18 -11.44 50.23 21.37 20.66 42.97 -0.44c-1.81,-28.74 1.94,-1.22 -5.89,-22.86 -8.86,-24.43 -4.72,-4.93 -6.98,-26.31l2.82 2.1 18.58 17.19 10.78 -45.09c-2.44,18.03 -6.88,14.27 9.82,14.27 -9.93,13.68 -13.82,39.44 -9.45,60.09 7.85,2.86 12.85,5.63 24.94,6.11 34.44,1.39 21.41,2.48 31.98,-11.58 51.01,3.1 -4.24,-7.54 30.02,-6.85 -0.99,11.72 -2.83,23.35 -2.06,35.27 3.29,50.26 6.17,19.23 6.45,19.31 -2.1,-0.75 -7.87,-3.84 -9.24,-4.72 -0.93,-0.6 -2.55,-2.06 -3.66,-2.75 -31.56,-19.31 -35.96,-16.79 -54.01,13.31 -5.07,-7.25 -22.38,-30.07 -27.08,-6.46 -3.35,16.79 25.71,2.69 -11.91,14.26 50.64,0 7.08,-2.18 25.57,11.27l-313.88 -24.13c-2.19,0.36 -3.89,0.74 -5.93,1.28l-15.97 8.11c3.03,19.92 3.7,3.84 -11.96,8.46l-13.38 -38.03 -14.77 10.29c-18.33,16.34 5.39,1.84 -7.39,9.34 -0.75,-12.51 2.06,0.67 -3.8,-13.95 -8.75,-21.87 -23.95,-35.59 -47.57,-27.2 -7.71,26.4 3.56,33.77 20.06,40.92l-9.92 -5.84c-0.73,-0.24 -13.66,-6.66 -36.44,-6.4 17.61,47.11 6.16,135.7 6.16,194.55 -16.93,-18.91 -9.9,-64.91 -10.28,-93.7 -0.44,-34.1 -0.64,-68.27 -1.95,-102.34l-455.87 -29.6 3.71 -32.41 484.43 22.09 173.65 -403.61c186.93,-387.07 419.86,-727.84 744.9,-995.97 154.65,-101.18 176.65,-118.23 354.74,-167.05 357.88,-98.09 824.99,183.57 1098.06,409.59 1.45,1.21 5.58,4.75 6.85,5.91 9.18,8.36 6.23,5.78 8.89,9z"/>
    <g>
     <path class="fil1" d="M4062.64 3704.9l-924.65 -56.65c45.32,43.54 107.36,79.75 175.5,111.22 111.76,51.62 117.9,41.68 250.81,33.84 158.28,-9.34 388.84,-4.53 498.34,-88.41zm182.08 -147.12c7.8,-122.79 -117.29,-87.75 -101.99,-2.27l101.99 2.27zm-221.9 -16.85c-20.56,-20.48 -142.58,-203.36 -179.98,-228.1 -29.92,32.17 -117.26,143.22 -148.08,162.04l1.12 49.39c31.66,13 283.3,23.05 326.94,16.67zm-187.34 -241.7c-30.62,-42.89 -85.07,-131.6 -136.2,-137.72l-1.29 292.6 137.49 -154.88zm-427.23 -485.06c-16.8,-20.5 -28.03,-38.7 -65.34,-47.94l8.93 74.75c21,-3.32 40.76,-17.19 56.41,-26.81zm-595.65 -77.06c-0.8,-1.67 -2.98,2.01 -4.51,2.97 8.75,21.87 4.44,15.8 29.46,22.99l-4.47 -27.11 -20.48 1.15zm473.62 -40.86c-7.41,-17.5 -2.25,-13.7 -26.28,-34.92l-83.37 -72.37 -25.09 65.33 134.74 41.96zm-306.59 1379.33c19.29,-25.13 -28.66,-37.37 -35.05,-54.68 -3.33,-9 -3.35,5.13 -7.89,-25.31l-3.74 -307.67c7.12,-51.19 -6.98,-39.03 -1.61,-76.18 6.27,-43.48 19.99,7 6.06,-36.59l-4.47 -9.98c9.87,-15.91 22.17,-33.49 28.76,-46.62 8.82,-17.58 5.95,-26.94 7.05,-47.4 2.22,-41.22 5.83,-21.69 -10.7,-43.75 -32.03,-42.72 -27.22,-28.34 -38.46,-20.92 -57.16,3.15 -97.18,12.16 -90.44,83.72l-28.38 12.28 -15.25 -11.66 -30.04 -200.65c-20.63,22.05 -89.73,174.96 -95.93,195.46 -12.68,13.14 -6.67,0.56 -8.01,12.55 -1.86,-0.64 -3.9,-2.2 -5.2,-2.85l-38.63 -11.99 32.99 0.12c18.63,-46.17 106.05,-206.27 106.64,-238.52 1.02,-54.73 -42.05,-223.25 -54.95,-284.11l-12.7 0.05 -1.11 -8.33c9.89,-36.13 -3.51,-72.74 -20.69,-116.75l-56.79 177.07c-6.07,-13.9 2.3,-5.09 -10.4,-3.55 1.19,-35.09 26.2,-101.36 37.91,-138.87 24.71,-79.09 26.8,-60.71 2.25,-140.3 -24.37,-79.05 -59.51,-183.99 -94.53,-249.19l29.38 -14.18 -13.72 -23.49 10.36 -28.28c2,-7.41 2.99,-14.02 3.66,-15.42 0.97,-2.04 6.35,-12.88 26.3,-20.92 -3.04,-28.17 5.21,-0.56 -23.28,-27.27 1.68,-1.05 4.32,-1.47 5.67,-1.74 1.3,-0.27 3.96,-1.14 5.51,-1.38 33.49,-5.28 2.44,10.14 27.03,0.7l60.74 16.33c-3.49,23.95 -4.37,-28.59 -7.06,13.03l-26.39 14.01c0,49.51 -3.33,13.17 14.16,27.21l24.57 44.98 53.25 -8.97c36.12,5.73 39.2,-14.06 59.29,4.93l-8.39 9.47c-0.8,0.85 -3.64,5.66 -4.28,4.3 -0.71,-1.52 -3.21,3.11 -4.83,4.64l-68.38 22.61c25.01,21.44 57.85,19.18 81.75,33.9l-6.34 38.59 -45.28 -6.34 59.1 130.24 24.89 -8.05 1.04 15.42c10.67,-1.54 23.64,-4.53 32.6,-5.79 23.78,-3.33 -9.58,-8.13 35.75,-2.13l-21.57 -24.74 21.23 -4.86c34.88,-4.2 40.67,-11.88 32.34,23.77l-70.78 28.4 10.59 54.1 -14.78 39.68c-1.29,2.35 -2.63,4.62 -3.75,6.64l-8.22 15.16c13.85,11.5 28.29,57.09 31.02,71.22 5.35,27.69 0.61,64.08 15.76,84.25 11.67,-25 1.32,-41.76 7.03,-60l47.48 150.41 21.14 -2.67c11.33,-0.16 8.63,3.59 20.6,-3.43 25.27,-14.78 8.9,-4.93 17.41,-20.45 18.8,-21.1 58.1,-42.13 83.32,-45.03l17.04 -1.92c3.53,7.66 1.02,3.71 4.35,13.65l2.91 8.08c0.17,-0.84 0.89,2.57 1.61,3.7l-151.1 94.56 61.97 197.65c47.81,6.34 33.66,-2.45 55.95,-37.88l90.62 -0.15c-18.16,51.29 -131.56,185.6 -136.82,212.65l90.48 2.94c11.13,-21.47 27.9,-52.53 47.84,-63.01l3.04 2.68c-7.46,27.45 -29.61,39.9 -30.69,61.9 28.47,22.53 55.81,8.92 85.7,15.58l145.06 6.55c5.81,0.49 -10.39,-1.21 11.82,-0.8 45.72,0.83 34.01,8.8 38.29,22.5 8.23,-24.71 -4.62,-6.73 16.51,-16.51 21.1,-9.76 39.26,6.83 84.63,-6.07 39.43,-10.91 99.34,8.09 128.41,-6 36.08,-17.48 42.19,-46.72 42.55,-90.71 0.73,-88.32 6.58,-186.19 3.73,-276.05l-122.04 -51.84c11.83,-26.14 -0.92,-24.06 26.43,-26.34 13.29,-1.11 26.22,8.73 33.79,11.7l9.17 -10.7c8.97,-5.33 6.55,-4.84 9.93,-8.59 -22.32,-20.46 -86.63,-108.43 -119.42,-129 -20.55,17.83 -25.58,44.49 -47.99,55.96l-11.73 1.98c16.22,-25.56 32.1,-44.65 47.3,-72.13 -11.49,-22.09 -55.61,-62.72 -75.03,-79.85l-70.31 39.42c-15.64,-11.21 30.12,-19.74 -22.37,-7.64l-7.1 23.28 -34.44 15.01c-62.86,-0.69 4.76,-7.69 -37.52,-21.06l73.94 -44.17c-1.38,-29.06 -3.02,-67.13 -15.17,-90.45l-180.83 -60.77c11.45,-24.49 16.06,17.12 15.28,-35.7 -1.61,1.57 -3.53,5.93 -4.67,7.05 -1.62,1.57 -7.1,10.84 -23.95,13.26l-7.66 -21.89c-2.42,-10.72 -3.85,18.14 -1.59,-17.72l14.03 5.4c9.75,-14.31 18.12,-30.43 22.03,-51.38l-22.61 9.26c-1.55,-21.7 -14.51,-26.32 10.62,-27.44 12.31,-0.53 7.72,-0.04 23.44,18.05 0.89,-25.08 -1.04,-10.36 6.28,-30.5 19.39,-53.34 -24.55,-31.65 -68.82,-46.12 -42.26,-13.82 0.08,-21.63 -43.77,-15.62l1.2 19.11 -17.47 -4.95 3.39 16.78c-10.91,8.85 -17.49,-9.96 -11.55,13.63l-10.27 -37.85 -66.98 -19.43 29.24 -37.7c32.39,18.6 29.6,-0.12 30.34,-0.52 -11.47,-29.72 -20.74,-32.93 -44.53,-43.56l-6.98 -9.55c1.73,1.42 7.69,3.4 8.87,3.22 46.4,-7.36 -24.42,34.13 13.25,-9.1l-26.95 -27.85 -24.74 12.45 -89.71 -29.3c-3.12,-9.31 -4.44,-12.95 -6.47,-17.99 -0.63,-1.54 -1.76,-3.97 -2.29,-5.24l-4.61 -9.42c8.48,9.72 31.39,8.91 49.14,9.12 8.88,-15.51 1.86,6.85 5.97,-15.93 0.36,-1.97 -0.45,-18.2 -0.62,-20.46 24.47,1.28 35.16,1.84 52.07,-9.84 41.89,-28.9 -1.84,18.4 13.23,-13.09 67.46,40.52 288.67,228.61 345.13,278.44l524.27 488.24c24.56,26.83 56.48,4.88 209.6,188.71 38.57,46.31 112.15,120.82 157.33,153.43 35.95,25.95 84.58,31.33 135.36,24.99 21.92,-18.71 43.22,-54.76 62.2,-79.37l101.57 9.26c2.99,38.45 -102.84,176.83 -121.67,230.25l698.49 36.69 0.95 202.42c-113.8,-27.39 -309.89,-38.94 -433.91,-50.32 -149.24,-13.71 -304.73,-30.1 -455.33,-37.01 -0.74,55.18 9.43,151.99 -9.5,196.79 -32.52,76.93 -47.29,61.73 -134.54,73.51l-992.52 134.03c-20.91,0.25 -27.77,-3.7 -39.81,-13.78l-22.88 -27.84z"/>
     <path class="fil1" d="M1159.76 3575.92c-3.79,49.72 -37.79,39.93 -134.58,52.9l-425.27 57.2c-20.58,-1.15 -46.81,-28.19 -52.15,-40.79 0,-58.85 11.45,-147.44 -6.16,-194.55 22.78,-0.26 35.71,6.16 36.44,6.4l9.92 5.84c-16.5,-7.15 -27.77,-14.52 -20.06,-40.92 23.62,-8.39 38.82,5.33 47.57,27.2 5.86,14.62 3.05,1.44 3.8,13.95 12.78,-7.5 -10.94,7 7.39,-9.34l14.77 -10.29 13.38 38.03c15.66,-4.62 14.99,11.46 11.96,-8.46 25.31,4.58 59.6,29.62 85.41,40.57 61.09,25.95 270.03,0.65 326.27,-16.2 -19.11,-9.84 -54.49,-7.75 -75.9,-9.63 -18.49,-13.45 25.07,-11.27 -25.57,-11.27 37.62,-11.57 8.56,2.53 11.91,-14.26 4.7,-23.61 22.01,-0.79 27.08,6.46 18.05,-30.1 22.45,-32.62 54.01,-13.31 1.11,0.69 2.73,2.15 3.66,2.75 1.37,0.88 7.14,3.97 9.24,4.72 -0.28,-0.08 -3.16,30.95 -6.45,-19.31 -0.77,-11.92 1.07,-23.55 2.06,-35.27 -34.26,-0.69 20.99,9.95 -30.02,6.85l3.95 -29.49 3.17 2.14c22.05,-16.54 21.6,-58.05 19.34,-88.61 -7.04,-8.09 -6.12,-5.61 -12.68,-12.25 -13.62,-13.79 -1.52,1.47 -6.19,-7.33l17.69 -16.25c0.39,-1.77 2.14,-1.8 3.23,-2.66l14.13 -91.1c9.21,-11.5 6.8,1.14 9.76,-19.81 2.84,-20.13 2.94,-6.39 -6.59,-22.94 12.96,14.15 11.79,17.17 15.28,42.82 -0.45,-0.4 -17.56,2.13 -0.1,-18.65l20.17 -12.41c-0.13,107.31 -7.9,99.18 -9.46,129.05l7 31.35c0.57,1.7 1.22,3.49 1.8,5.17l21.98 72.85c11.29,60.32 -26.13,23.43 11.9,72.45 27.65,35.66 -4.82,9.8 -7.28,62.38 -0.97,20.61 -0.04,45.28 4.19,64.02z"/>
     <path class="fil1" d="M1034.61 3161.32l-49.18 11.39c-15.54,7.36 -8.82,4.37 -16.79,10.6 12.5,23.38 33.48,28.93 54.02,39.63 15.45,-19.09 16.62,-32.41 11.95,-61.62zm-32.04 -99.4l-23.79 73.83 41.97 -13.87 -18.18 -59.96zm-111.55 -13.21c-3.7,21.07 -7.29,37.28 -11.01,57.87 -6.6,36.57 -7.25,33.44 23.97,44.82 9.26,-57.03 23.86,-53.56 -12.96,-102.69zm150.37 20.08c-12.07,-5.67 -13.96,-5.82 -27.61,-9.55l14.72 58.95c28.1,-6.24 30.4,-2.08 37.38,-30.35l-24.49 -19.05zm-61.41 23.42c9.27,-34.29 20.68,-39.46 -4.89,-56.61 -15.66,12.26 -44.61,90.17 -19.32,110.38 20.03,-14.83 16.96,-26.95 24.21,-53.77zm-56.45 -16.24l11.39 -43.75 -30.36 10.13c1.61,4.49 2.61,10.32 5.74,16.26 15.77,29.91 0.3,4.05 13.23,17.36zm144.19 -119.21c-5.56,-29.44 -0.15,-28.48 -28.2,-40.21l-12.24 52.81 40.44 -12.6zm-45.06 -51.52c-21.17,8.64 -29.19,49.95 -33.85,75.03 44.58,-10.72 38.16,-66.38 33.85,-75.03zm101.91 -52.23c-23.72,14.82 -36.45,12.51 -51.07,20.67 -11.13,6.2 -3.52,2.17 -9.59,9.59 13.89,16.75 27.95,21.99 53.67,31.27 5.26,-28.34 14.78,-37.36 6.99,-61.53zm-33.84 -146.36l-14.37 43.9 70.85 -21.33 -56.48 -22.57zm-54.7 41.69l21.55 -42.12 -36.54 6.67c4.29,29.17 2.01,23.16 14.99,35.45zm-5.04 -66.41c0.7,-1.94 2.8,-2.17 4.78,-4.43l-26.05 -11.75c2.42,29.68 -4.32,12.74 7.94,19.17l13.33 -2.99zm50.59 -16.89c26.04,6.72 -9.66,-2.43 17.7,12.12l25.64 7.37c1.17,0.04 -2.73,29.79 6.38,-1.02 0.3,-1 1.94,-0.42 2.76,-0.94 8.53,13.15 0.77,3.77 10.81,13.95 0.3,0.3 10.98,7.13 11.08,7.19 -4.45,14.02 -3.62,33.88 -3.59,35.56 0.12,6.16 1.75,6.93 1.3,21.82l-56.5 16.36 13.55 5.83 3.56 15.05c-57,-6.69 -14.6,-3.62 -31.39,9.29 -17.76,-17.56 -9.42,-0.73 -18.56,-3.07l-14.81 17.35c17.01,1.55 -16.11,13.03 7.24,-2.87l9.69 19.66c0.14,-0.72 2.06,2.68 3.29,4.75l19.84 -9.06 6.69 23.09 28.31 -4.46 17.3 2.99c6.28,24.63 5.24,60.98 -9.13,75 -0.46,0.46 -2.12,1.48 -2.66,1.97l-6.56 5.13c-17.59,18.94 -4.63,-14.76 -9.64,15.7 -5.23,31.85 -5.27,-3.16 4.72,17.72l7 11.49c0.72,-1.28 3.12,4.04 4.03,6.4 -19.73,19.86 -5.73,30.05 -17.4,47.33 -15.58,23.05 14.33,12.09 -9.36,3.41 -13.68,13.58 -13.81,23.14 -26.68,5.38 7.38,-17.09 9.12,-26.87 2.76,-47.54 -6.85,-3.4 6.22,-13.42 -37.1,0.02l-28.15 17.05 55.81 29.82c-8.87,52.33 10.66,41.3 11.01,41.42l15.67 1.58c-15.71,24.94 24.29,20.26 -29.42,20.46 15.09,19.99 3.16,13.69 27.51,18.55 9.53,16.55 9.43,2.81 6.59,22.94 -2.96,20.95 -0.55,8.31 -9.76,19.81l2.09 -33.45c-29.57,7.16 -45.09,12.37 -40.87,51.67 1.96,18.3 19.67,62.54 24.65,72.88 -1.09,0.86 -2.84,0.89 -3.23,2.66l-17.69 16.25 -26.81 -9.4c-24.72,38.47 6.57,45.38 26.34,117.59l-3.17 -2.14c-14.59,-11.9 -13.22,-13.1 -21.52,-33.4 -2.61,-6.38 -5.23,-14.42 -8.08,-19.34 -10.4,-17.95 -5.46,-8.77 -13.13,-15.83l-8.69 43.44c-16.7,0 -12.26,3.76 -9.82,-14.27 18.08,-50.9 13.19,-103.25 -39.52,-119.07 -3.58,20.77 -16.47,58.16 -18.19,75.39 -1.93,19.45 19.89,47.86 28.35,71.58l-2.82 -2.1c-17.81,-12.81 -16.97,-18.71 -29.98,-37.75l-10.05 16.47 -8.94 0.18c13.34,-63.35 -8.14,-54.09 -26.76,-106.29l2.52 1.74c24.49,17.76 16.85,27.86 36.54,45.34 6.49,-12.12 16.85,-39.86 18.89,-56.52 1.76,-14.27 14.22,-30.79 -44.53,-32.55l-22.64 -22.74c-0.54,-0.73 -2.26,-1.76 -2.65,-3.87 -0.39,-2.13 -1.49,-2.83 -2.58,-3.96l-22.18 15.9c-0.7,-1.41 -3.16,1.8 -4.86,2.4 -3.85,-27.35 -19.45,-38.65 -32.76,-57.66 28.09,-3.27 1.07,3.73 18.62,-6.31 1.63,-0.94 8.54,-4.64 9.51,-7.6 0.95,-2.91 3.2,-3.04 4.89,-4.45 9.69,14.23 8.77,10.85 24.16,12.96 1.86,-10.45 8.28,-34.52 9.12,-41.88 6.08,-52.42 7.49,-24.77 -13.15,-33.69 15.34,-11.13 -19,-14.62 17.67,-9.69 -31.45,-8.69 -17.34,9.11 -24.99,-20.27 26.2,-6.29 20.31,1.87 21,-22.63l-0.3 -13.63c36.81,17.95 12.51,9.36 53.44,13.56 -8.52,-25.98 0.84,-14.04 -12.19,-30.56l32.28 12.32c6.01,-9.02 14.14,-21.58 14.94,-36.76 1.93,-37.02 -18.86,-33.25 -18.9,-33.26 -17,-17.85 3.56,-10.97 -28.36,-2.58 1.85,-1.39 4.26,-2.87 5.73,-3.91 1.4,-0.99 3.75,-2.69 5.35,-3.84 1.45,-1.04 3.4,-2.45 4.82,-3.52l11.67 -10.67 -1.94 -22.77c-20.92,-0.41 -10.21,-2.53 -22.99,2.44 9.39,-27.03 24.38,-22.65 29.72,-29.52l48.35 18.16 22.13 -59.45 -57.11 11.17 -0.06 -26.42 34.94 -14.54 -14.88 -11.76 -11.87 -27.22 31.93 -13.63c-29.57,-2.18 -21.37,-12.31 -21.44,-13.47 -0.6,-9.03 4.06,-10.81 -10.35,-29.13 32.18,7.51 31.68,-6.98 49.59,-38.76l21.01 3.81c6.41,22.3 -8.55,9.08 21.51,23.26 7.18,3.39 10.82,3.31 18.71,6.49z"/>
    </g>
   </g>
  </g>
 </g>
</svg>
