<?xml version="1.0" encoding="UTF-8"?>
<!DOCTYPE svg PUBLIC "-//W3C//DTD SVG 1.1//EN" "http://www.w3.org/Graphics/SVG/1.1/DTD/svg11.dtd">
<!-- Creator: CorelDRAW 2017 -->
<svg xmlns="http://www.w3.org/2000/svg" xml:space="preserve" width="71.4374mm" height="47.6248mm" version="1.1" shape-rendering="geometricPrecision" text-rendering="geometricPrecision" image-rendering="optimizeQuality" fill-rule="evenodd" clip-rule="evenodd"
viewBox="0 0 7143.74 4762.48"
 xmlns:xlink="http://www.w3.org/1999/xlink">
 <defs>
    <clipPath id="id0">
     <path d="M2423.06 644.35c955.39,0 1729.9,774.51 1729.9,1729.9 0,955.4 -774.51,1729.9 -1729.9,1729.9 -955.4,0 -1729.9,-774.5 -1729.9,-1729.9 0,-955.39 774.5,-1729.9 1729.9,-1729.9z"/>
    </clipPath>
 </defs>
 <g id="Слой_x0020_1">
  <metadata id="CorelCorpID_0Corel-Layer"/>
  <g id="_543466458464">
   <rect fill="#F0EDED" x="52.92" y="51.11" width="6984.99" height="4658.47" rx="148.08" ry="146.38"/>
   <rect fill="none" stroke="#E3E0E0" stroke-width="35" stroke-miterlimit="22.9256" x="418.89" y="424.73" width="4003.21" height="3923.25" rx="145.92" ry="146.38"/>
   <path fill="gray" d="M2423.06 644.35c955.39,0 1729.9,774.51 1729.9,1729.9 0,955.4 -774.51,1729.9 -1729.9,1729.9 -955.4,0 -1729.9,-774.5 -1729.9,-1729.9 0,-955.39 774.5,-1729.9 1729.9,-1729.9z"/>
   <g clip-path="url(#id0)">
    <g>
     <path id="1" fill="#C2C2C2" d="M2442.81 2146.63c290.74,70.58 199.47,460.14 -101.3,387.1 -167.38,-40.65 -168.53,-283.66 -43.5,-358.7 33.63,-20.2 94.46,-40.67 144.8,-28.4zm1453.27 569.13l-19.54 74.66c-42,137.76 -114.49,261.49 -221.08,346.33 -262.69,209.28 -768.97,-11.45 -984.63,-177.4 -149.97,-115.38 -228.33,-172.65 -264.1,-318.26 -66.64,-16.2 -178.34,205.81 -192.06,258.33 -90.12,344.37 316.36,460.06 50.75,739.79 -31.21,32.86 -74.99,67.04 -110.64,84.66 -295.23,145.88 -734.28,-104.94 -921.5,-297.04 -144.73,-148.46 -213.81,-299.4 -157.55,-514.32 59.88,-228.8 479.76,-535.7 698.45,-614.77 99.72,-36.04 200.94,-55.28 316.45,-53.68 0,0 37.1,-75.5 106.9,-111.3 -448.88,-365.23 -660.15,-291.7 -754.39,-370.02 -72.41,-60.24 -114.33,-233.48 -83.33,-351.92 23.75,-90.7 111.16,-199.77 176.65,-263.17 37.46,-36.22 63.61,-58.25 107.31,-90.13 40.7,-29.65 70.97,-59.04 113.59,-79.68 43.34,-20.96 81.96,-35.57 128.12,-55.89 277.55,-122.35 619.66,-144.43 794.72,126.62 40.67,62.94 81.23,180.68 93.05,260.9 31.51,214.42 100.45,665.16 -118.19,858.2 33.7,30.86 44.55,62.06 50.61,103.79 171.15,2.36 322.23,-36.18 428.86,-176.43 186.81,-245.6 182.06,-315.68 460.06,-248.16 261.61,63.53 382.94,499.04 301.49,868.89z"/>
     <rect fill="#F0EDED" x="1968.3" y="639.75" width="102.45" height="3461.98"/>
     <rect fill="#F0EDED" x="2792.32" y="659.17" width="102.45" height="3461.98"/>
     <rect fill="#F0EDED" x="1256.52" y="778.83" width="102.45" height="3461.98"/>
     <rect fill="#F0EDED" x="3532.86" y="800.78" width="102.45" height="3461.98"/>
     <rect fill="#F0EDED" transform="matrix(2.69878E-14 -0.509569 1.38316 1.83186E-14 703.907 888.565)" width="100.54" height="2502.96"/>
     <rect fill="#F0EDED" transform="matrix(2.69878E-14 -0.509569 1.38316 1.83186E-14 692.911 1122.86)" width="100.54" height="2502.96"/>
     <rect fill="#F0EDED" transform="matrix(2.69878E-14 -0.509569 1.38316 1.83186E-14 690.227 1374.05)" width="100.54" height="2502.96"/>
     <rect fill="#F0EDED" transform="matrix(2.69878E-14 -0.509569 1.38316 1.83186E-14 690.227 1613.06)" width="100.54" height="2502.96"/>
     <rect fill="#F0EDED" transform="matrix(2.69878E-14 -0.509569 1.38316 1.83186E-14 726.826 1877.55)" width="100.54" height="2502.96"/>
     <rect fill="#F0EDED" transform="matrix(2.69878E-14 -0.509569 1.38316 1.83186E-14 690.241 2117.18)" width="100.54" height="2502.96"/>
     <rect fill="#F0EDED" transform="matrix(2.69878E-14 -0.509569 1.38316 1.83186E-14 692.067 2374.25)" width="100.54" height="2502.96"/>
     <rect fill="#F0EDED" transform="matrix(2.69878E-14 -0.509569 1.38316 1.83186E-14 690.241 2637.75)" width="100.54" height="2502.96"/>
     <rect fill="#F0EDED" transform="matrix(2.69878E-14 -0.509569 1.38316 1.83186E-14 682.012 2901.25)" width="100.54" height="2502.96"/>
     <rect fill="#F0EDED" transform="matrix(2.69878E-14 -0.509569 1.38316 1.83186E-14 700.311 3179.39)" width="100.54" height="2502.96"/>
     <rect fill="#F0EDED" transform="matrix(2.69878E-14 -0.509569 1.38316 1.83186E-14 696.645 3468.51)" width="100.54" height="2502.96"/>
     <rect fill="#F0EDED" transform="matrix(2.69878E-14 -0.509569 1.38316 1.83186E-14 683.837 3774.09)" width="100.54" height="2502.96"/>
     <rect fill="#F0EDED" transform="matrix(2.69878E-14 -0.509569 1.38316 1.83186E-14 705.802 4063.21)" width="100.54" height="2502.96"/>
    </g>
   </g>
   <path fill="none" d="M2423.06 644.35c955.39,0 1729.9,774.51 1729.9,1729.9 0,955.4 -774.51,1729.9 -1729.9,1729.9 -955.4,0 -1729.9,-774.5 -1729.9,-1729.9 0,-955.39 774.5,-1729.9 1729.9,-1729.9z"/>
   <rect fill="#E3E0E0" x="4752.99" y="948.04" width="1902.99" height="278.13" rx="162.64" ry="146.38"/>
   <rect fill="#E3E0E0" x="4754.83" y="1577.5" width="1902.99" height="278.13" rx="162.64" ry="146.38"/>
   <rect fill="#E3E0E0" x="4753.43" y="2212.44" width="1902.99" height="278.13" rx="162.64" ry="146.38"/>
   <rect fill="#E3E0E0" x="4753.21" y="2868.19" width="1902.99" height="278.13" rx="162.64" ry="146.38"/>
   <rect fill="#E3E0E0" x="4752.98" y="3546.38" width="1902.99" height="278.13" rx="162.64" ry="146.38"/>
  </g>
 </g>
</svg>
