<?xml version="1.0" encoding="UTF-8" standalone="no"?>
<!-- Creator: CorelDRAW 2017 -->

<svg
   xmlns:dc="http://purl.org/dc/elements/1.1/"
   xmlns:cc="http://creativecommons.org/ns#"
   xmlns:rdf="http://www.w3.org/1999/02/22-rdf-syntax-ns#"
   xmlns:svg="http://www.w3.org/2000/svg"
   xmlns="http://www.w3.org/2000/svg"
   xmlns:sodipodi="http://sodipodi.sourceforge.net/DTD/sodipodi-0.dtd"
   xmlns:inkscape="http://www.inkscape.org/namespaces/inkscape"
   xml:space="preserve"
   width="206.78726"
   height="173.76028"
   version="1.1"
   viewBox="0 0 206.78726 173.76028"
   id="svg4639"
   sodipodi:docname="plate_1.svg"
   style="clip-rule:evenodd;fill-rule:evenodd;image-rendering:optimizeQuality;shape-rendering:geometricPrecision;text-rendering:geometricPrecision"
   inkscape:version="0.92.1 r15371"><metadata
     id="metadata4645"><rdf:RDF><cc:Work
         rdf:about=""><dc:format>image/svg+xml</dc:format><dc:type
           rdf:resource="http://purl.org/dc/dcmitype/StillImage" /><dc:title></dc:title></cc:Work></rdf:RDF></metadata><defs
     id="defs4643" /><sodipodi:namedview
     pagecolor="#ffffff"
     bordercolor="#666666"
     borderopacity="1"
     objecttolerance="10"
     gridtolerance="10"
     guidetolerance="10"
     inkscape:pageopacity="0"
     inkscape:pageshadow="2"
     inkscape:window-width="1920"
     inkscape:window-height="1017"
     id="namedview4641"
     showgrid="false"
     fit-margin-top="0"
     fit-margin-left="0"
     fit-margin-right="0"
     fit-margin-bottom="0"
     inkscape:zoom="1.6183206"
     inkscape:cx="132.18508"
     inkscape:cy="71.103542"
     inkscape:window-x="-8"
     inkscape:window-y="-8"
     inkscape:window-maximized="1"
     inkscape:current-layer="layer2" /><g
     id="Слой_x0020_1"
     transform="translate(43.020554,0.28782366)"><metadata
       id="CorelCorpID_0Corel-Layer" /><path
       d="m 143.97,91.44 4.96,0.93 c -0.18,-0.67 -0.72,-1.07 -1.07,-1.5 l -5.27,-10.81 -0.1,-0.15 c -2.2,-3.65 -1.97,-2.91 -4.78,-6.21 -1.93,-2.29 -3.35,-3.48 -6.43,-4.35 -1.6,-0.42 -0.37,-0.37 -3.08,-0.89 l -3.19,-0.84 c -1.76,0.6 -0.48,0.03 -1.89,-0.09 -3.68,0.42 -10.52,0.84 -11.95,4.73 -1.7,-0.67 -2.86,-1.51 -4.23,-2.58 -0.68,-0.54 -1.12,-0.99 -1.5,-1.62 l -0.7,-1.42 c -0.23,-0.43 -0.05,-0.16 -0.19,-0.27 l 0.05,-0.01 c -0.56,-0.47 -1.05,-0.9 -1.51,-1.48 -0.81,-0.23 -1.54,-0.33 -1.59,-0.32 0,0 -0.75,0.43 -0.99,1.18 4.02,1.11 2.66,1.19 5.15,3.47 1.65,1.51 3.37,2.26 5.28,3.6 -0.77,3.05 -0.95,7.95 1.57,10.27 2.9,2.68 4.6,4.19 8.67,5.95 2.58,1.12 1.38,1.17 5.48,2.15 5.18,1.23 5.34,1.47 9.28,1.23 2.7,-0.17 6.22,-0.98 8.03,-0.97 z"
       id="path4486"
       inkscape:connector-curvature="0"
       style="fill:#c7c8c9;fill-opacity:0.36078401" /><g
       id="_1377866912"><path
         d="m 44.49,5.95 c 0,0 -0.05,-0.16 0.65,-0.42 2.12,-0.79 4.36,-1.25 6.49,-1.86 L 55.21,2.92 C 55.64,2.83 55.62,2.81 56,2.79 l 4.18,-0.37 c 2.19,-0.25 4.45,-0.26 6.68,-0.26 0.05,0 0.11,0 0.16,0 1.88,-0.04 1.9,0.14 2.68,0.14 1.92,0.01 3.84,0.28 5.77,0.61 l 5.96,1.17 c 3.59,0.87 6.06,1.99 9.35,3.18 4.12,1.48 8.61,4.35 12.15,6.87 2.41,1.72 4.5,3.65 6.73,5.59 l 5.07,5.52 c 0.2,0.25 0.2,0.25 0.48,0.56 1.25,1.38 2.13,2.88 3.21,4.4 0.3,0.42 0.63,0.93 0.85,1.29 l 3.34,5.64 c 0.52,0.94 0.91,2.13 1.48,3.33 0.32,0.65 0.4,0.99 0.66,1.64 1.32,3.31 1.91,5.93 2.9,9.15 0.32,1.02 0.42,2.33 0.61,3.49 0.05,0.29 0.32,1.19 0.39,1.72 l 0.12,1.6 c 0.18,1.21 0.22,2.15 0.25,3.31 l 0.16,6.51 c 0.02,1.09 -0.15,1.97 -0.27,2.89 -0.01,0.06 -0.04,0.29 -0.06,0.43 l -0.74,5.57 c -0.08,0.53 -0.22,1.01 -0.32,1.5 -0.67,3.24 -1.63,6.28 -2.71,9.45 l -5.62,11.43 c -0.96,1.6 -2.18,3.07 -3.25,4.58 -1.68,2.34 -2.84,3.4 -4.6,5.4 l -1.95,2.04 c -1.88,1.82 -3.9,3.37 -5.98,4.99 l -5.27,3.52 c -0.45,0.26 -0.7,0.47 -1.31,0.85 -4.02,2.49 -8.77,4.11 -13.36,5.57 -2.58,0.82 -4.93,1.1 -7.31,1.72 -1.26,0.34 -2.07,0.45 -3.27,0.52 -1.25,0.07 -2.13,0.19 -3.38,0.31 -1.99,0.17 -6.51,-0.01 -8.64,-0.1 -0.49,-0.02 -0.31,0.01 -0.72,-0.05 -0.31,-0.04 0.11,0 -0.42,-0.07 l -4.13,-0.58 c -0.49,-0.08 -0.97,-0.08 -1.44,-0.17 l -4.9,-1.14 c -0.32,-0.08 -0.35,-0.06 -0.69,-0.15 l -5.34,-1.77 c -2.66,-0.91 -5.16,-2.19 -7.66,-3.49 -2.95,-1.52 -5.69,-3.39 -8.37,-5.35 -0.39,-0.28 -0.74,-0.52 -1.1,-0.81 -0.42,-0.34 -0.73,-0.64 -1.16,-1 -0.43,-0.36 -0.68,-0.55 -1.07,-0.89 -0.72,-0.65 -1.46,-1.27 -2.16,-2 -4.88,-5.05 -4.49,-4.61 -9.21,-11.15 -0.52,-0.72 -0.08,-0.04 -0.43,-0.58 -0.66,-1.02 -1.19,-2.05 -1.7,-2.92 L 8.3,91.85 C 8.12,91.44 7.69,90.67 7.53,90.35 6.99,89.28 6.8,87.97 6.27,86.85 4.88,83.93 3.45,78.08 3.13,74.39 3.08,73.73 2.99,73.39 2.87,72.69 L 2.68,70.17 C 2.67,70.01 2.6,69.65 2.57,69.34 L 2.51,66.28 c 0,-0.05 0,-0.1 0,-0.16 -0.05,-5.49 0.5,-6.6 0.81,-10.73 0.12,-1.58 0.92,-4.68 1.33,-6.32 0.06,-0.23 0.11,-0.38 0.2,-0.63 0.34,-0.85 0.61,-1.92 0.87,-2.77 L 6.63,43.08 C 7.38,41.03 9.28,36.6 10.5,34.57 l 4.06,-6.31 c 0.22,-0.31 0.64,-0.83 0.93,-1.19 l 1.73,-2.16 c 0.3,-0.35 0.6,-0.71 0.9,-1.06 1.2,-1.36 2.55,-2.99 3.91,-4.22 0.2,-0.18 0.46,-0.33 0.72,-0.55 l 3.8,-3.23 c 2.58,-2.06 5.28,-3.91 8.08,-5.57 1.97,-1.18 4.07,-2.1 6.26,-3 0.38,-0.16 3.42,-1.22 3.6,-1.33 z M 5.43,38.15 C 5.34,38.91 5.26,39.03 4.9,39.76 l -2.45,7.15 c -0.15,0.76 0.02,0.04 -0.22,0.79 -0.37,1.09 -0.11,1.33 -0.78,2.05 0.08,0.57 -0.46,3.03 -0.63,4.11 l -0.4,1.38 C 0.58,56.23 0.21,57.88 0.16,59.15 0.1,60.61 0.03,61.89 0,63.37 c -0.02,0.85 0.24,8.43 0.2,8.49 0.34,1.24 0.42,2.91 0.67,4.36 3.53,20.73 16.04,37.39 34.07,47.24 15.98,8.72 40.29,11.46 62.28,-0.4 38.76,-20.91 45.8,-72.92 15.28,-104.02 -0.55,-0.56 -2.38,-2.16 -2.68,-2.62 -0.71,-0.21 -5.05,-3.88 -5.78,-4.41 -2.2,-1.6 -3.79,-2.54 -5.97,-3.82 C 91.08,4.06 82.32,1.43 74.3,0.44 70.18,-0.07 70.42,0.08 66.56,-0.08 65.71,-0.11 65.38,0.13 64.59,-0.1 62.72,-0.66 56.15,0.18 54.24,0.5 42.26,2.53 31.38,8.02 22.89,15.26 17.33,20 12.55,25.57 8.83,31.85 8,33.25 6.11,37.29 5.43,38.15 Z"
         id="path4488"
         inkscape:connector-curvature="0"
         style="fill:#dae4d8" /><path
         d="m 27.39,77.11 c -0.53,-1.67 -2,-9.13 -1.84,-10.8 0.35,-3.83 0.3,-5.05 0.95,-9.31 l 4.41,-11.14 c 0.89,-1.9 2.78,-4.16 4.36,-5.53 0.51,-0.43 0.13,-0.02 0.51,-0.66 0.77,-1.31 2.12,-2.1 3.25,-3.17 l 0.2,-0.19 c 1.9,-1.65 3.99,-3.01 6.14,-4.15 4.28,-2.27 10.22,-4.72 15.25,-5.21 0.64,-0.06 0.97,0.04 1.47,-0.02 0.72,-0.09 1,-0.18 1.64,-0.22 l 3.08,-0.22 c 0.41,0.01 0.3,0.08 0.62,0.16 l 2.11,0.11 c 0.04,0.01 0.09,0.02 0.13,0.03 0.34,0.07 0.33,0.11 0.71,0.13 0.39,0.01 0.49,-0.07 0.79,-0.05 0.48,0.03 2.5,0.74 4.29,0.37 0.96,-0.19 3.28,0.33 3.96,0.71 l 1.92,0.54 c 0.03,0.01 0.09,0.03 0.13,0.04 l 1.69,0.82 c 0.77,0.41 1.58,0.72 2.44,1.16 l 4.45,2.91 c 5.45,4.16 9.88,9.28 12.64,15.89 2.07,4.93 2.79,8.57 3.23,13.42 0.31,3.43 -0.05,8.18 -0.86,11.39 -0.89,3.53 -2.05,6.72 -3.63,10.07 L 96.22,92 c -0.91,1.01 -2.1,2.05 -2.91,3.1 -0.56,0.73 -1.39,1.11 -2.09,1.67 l -0.42,0.41 c -0.52,0.61 -0.95,0.78 -1.88,1.46 -1.64,1.19 -3.51,2.14 -5.25,3.25 -2.54,1.63 -11.87,3.94 -15.27,4.12 -0.8,0.04 -0.61,-0.1 -1.28,-0.11 -0.64,-0.01 -1.06,0.1 -1.63,0.15 -0.65,0.04 -0.94,-0.05 -1.5,-0.02 l -2.78,-0.24 c -0.55,-0.06 -1.08,0.02 -1.53,-0.04 l -3.35,-0.83 c -0.04,-0.01 -0.1,-0.03 -0.14,-0.04 l -2.42,-0.39 c -0.05,0 -0.1,0 -0.15,-0.01 -0.87,-0.07 -1.78,-0.48 -2.59,-0.9 l -1.06,-0.6 c -0.31,-0.1 -0.32,-0.05 -0.65,-0.21 L 41.52,97.7 C 40.74,97.08 40.12,96.46 39.41,95.88 33.92,91.37 29.58,84.01 27.39,77.11 Z M 40.89,7.28 c -2.19,0.9 -4.29,1.82 -6.26,3 -2.8,1.66 -5.5,3.51 -8.08,5.57 l -3.8,3.23 c -0.26,0.22 -0.52,0.37 -0.72,0.55 -1.36,1.23 -2.71,2.86 -3.91,4.22 -0.3,0.35 -0.6,0.71 -0.9,1.06 l -1.73,2.16 c -0.29,0.36 -0.71,0.88 -0.93,1.19 L 10.5,34.57 C 9.28,36.6 7.38,41.03 6.63,43.08 l -0.91,2.59 c -0.26,0.85 -0.53,1.92 -0.87,2.77 -0.09,0.25 -0.14,0.4 -0.2,0.63 -0.41,1.64 -1.21,4.74 -1.33,6.32 -0.31,4.13 -0.86,5.24 -0.81,10.73 0,0.06 0,0.11 0,0.16 l 0.06,3.06 c 0.03,0.31 0.1,0.67 0.11,0.83 l 0.19,2.52 c 0.12,0.7 0.21,1.04 0.26,1.7 0.32,3.69 1.75,9.54 3.14,12.46 0.53,1.12 0.72,2.43 1.26,3.5 0.16,0.32 0.59,1.09 0.77,1.5 l 2.34,4.58 c 0.51,0.87 1.04,1.9 1.7,2.92 0.35,0.54 -0.09,-0.14 0.43,0.58 4.72,6.54 4.33,6.1 9.21,11.15 0.7,0.73 1.44,1.35 2.16,2 0.39,0.34 0.64,0.53 1.07,0.89 0.43,0.36 0.74,0.66 1.16,1 0.36,0.29 0.71,0.53 1.1,0.81 2.68,1.96 5.42,3.83 8.37,5.35 2.5,1.3 5,2.58 7.66,3.49 l 5.34,1.77 c 0.34,0.09 0.37,0.07 0.69,0.15 l 4.9,1.14 c 0.47,0.09 0.95,0.09 1.44,0.17 l 4.13,0.58 c 0.53,0.07 0.11,0.03 0.42,0.07 0.41,0.06 0.23,0.03 0.72,0.05 2.13,0.09 6.65,0.27 8.64,0.1 1.25,-0.12 2.13,-0.24 3.38,-0.31 1.2,-0.07 2.01,-0.18 3.27,-0.52 2.38,-0.62 4.73,-0.9 7.31,-1.72 4.59,-1.46 9.34,-3.08 13.36,-5.57 0.61,-0.38 0.86,-0.59 1.31,-0.85 l 5.27,-3.52 c 2.08,-1.62 4.1,-3.17 5.98,-5 l 1.95,-2.03 c 1.76,-2 2.92,-3.06 4.6,-5.4 1.07,-1.51 2.29,-2.98 3.25,-4.58 l 5.62,-11.43 c 1.08,-3.17 2.04,-6.21 2.71,-9.45 0.1,-0.49 0.24,-0.97 0.32,-1.5 l 0.74,-5.57 c 0.02,-0.14 0.05,-0.37 0.06,-0.43 0.12,-0.92 0.29,-1.8 0.27,-2.89 l -0.16,-6.51 c -0.03,-1.16 -0.07,-2.1 -0.25,-3.31 l -0.12,-1.6 c -0.07,-0.53 -0.34,-1.43 -0.39,-1.72 -0.19,-1.16 -0.29,-2.47 -0.61,-3.49 -0.99,-3.22 -1.58,-5.84 -2.9,-9.15 -0.26,-0.65 -0.34,-0.99 -0.66,-1.64 -0.57,-1.2 -0.96,-2.39 -1.48,-3.33 l -3.34,-5.64 c -0.22,-0.36 -0.55,-0.87 -0.85,-1.29 -1.08,-1.52 -1.96,-3.02 -3.21,-4.4 -0.28,-0.31 -0.28,-0.31 -0.48,-0.56 l -5.07,-5.52 c -2.23,-1.94 -4.32,-3.87 -6.73,-5.59 C 99.39,11.61 94.9,8.74 90.78,7.26 87.49,6.07 85.02,4.95 81.43,4.08 L 75.47,2.91 C 73.54,2.58 71.62,2.31 69.7,2.3 68.92,2.3 68.9,2.12 67.02,2.16 64.7,2.2 62.5,2.15 60.18,2.42 58.59,2.56 56.75,2.61 55.21,2.92 l -3.58,0.75 c -4,1.15 -6.92,2.04 -10.74,3.61 z"
         id="path4490"
         inkscape:connector-curvature="0"
         style="fill:#e3e8ed" /><path
         d="m 26.98,77.61 c 3.1,8.95 6.64,14.71 14.04,20.81 16.47,12.12 39.92,10.48 55.2,-6.42 4.39,-6.58 6.84,-9.93 8.84,-17.88 0.81,-3.21 1.17,-7.96 0.86,-11.39 -0.44,-4.85 -1.16,-8.49 -3.23,-13.42 C 99.92,42.7 95.5,37.58 90.05,33.42 75.12,22.9 60.35,24.22 45.37,32.16 41.34,34.3 33.44,40.29 30.91,45.86 25.19,56.92 23.51,65.52 26.98,77.61 Z"
         id="path4492"
         inkscape:connector-curvature="0"
         style="fill:#f7f9fb" /></g><path
       d="m 130.48,69.3 c -1.61,-0.42 -0.37,-0.37 -3.08,-0.89 l -3.19,-0.84 c -1.76,0.6 -0.48,0.03 -1.89,-0.09 -3.68,0.42 -10.53,0.84 -11.95,4.73 -1.7,-0.67 -2.86,-1.51 -4.23,-2.58 -0.68,-0.54 -1.13,-0.99 -1.5,-1.62 l -0.7,-1.42 c -0.23,-0.43 -0.06,-0.16 -0.19,-0.27 l 0.05,-0.01 c -0.56,-0.47 -1.05,-0.9 -1.51,-1.48 -0.81,-0.23 -1.54,-0.33 -1.6,-0.32 0,0 -0.74,0.43 -0.99,1.18 4.02,1.11 2.67,1.19 5.16,3.47 1.65,1.51 3.37,2.26 5.28,3.6 -0.77,3.05 -0.95,7.95 1.57,10.27 2.9,2.68 4.6,4.19 8.67,5.95 l 5.9,2.3 c 2.75,-4.94 4.86,-18.81 4.2,-21.98 z"
       id="path4495"
       inkscape:connector-curvature="0"
       style="fill:#b4c6b8" /><path
       d="m 14.48,67.22 c 1.68,0.25 2.96,0.63 5.1,0.68 6.91,0.14 13.46,-2.53 15.51,-1.31 1.09,-0.13 0.84,-0.2 1.91,0.32 l 0.71,-1.19 c 0.01,-0.93 0.2,-0.03 -0.42,-0.77 l -0.49,0.79 c -4.17,-0.95 -7.74,0.63 -11.38,1.08 -1.64,0.2 -9.6,1.03 -11.61,-1.52 -1.01,-0.92 -2.28,-1.65 -2.37,-1.67 0,0 -0.21,0.03 -0.51,0.13 1.29,1.78 0.99,2.06 2.64,2.96 0.3,0.16 0.6,0.33 0.91,0.5 z"
       id="path4497"
       inkscape:connector-curvature="0"
       style="fill:#899094" /><path
       d="m 80.63,40.83 c 1.51,-1.15 4.72,-3.85 4.37,-5.94 -2.64,1.92 -1.11,1.28 -6.3,3.01 -5.59,1.86 -12.01,-5.45 -11.63,-15.37 -9.81,5.4 0.42,23.34 13.56,18.3 z"
       id="path4499"
       inkscape:connector-curvature="0"
       style="fill:#899094" /><path
       d="m 48.09,81.27 c 0.33,-0.25 0.42,-0.29 0.71,-0.5 2.29,-1.57 4.96,-5.6 4.71,-7.1 -2.64,1.93 -0.51,2.08 -5.7,3.82 -5.6,1.86 -11.66,-2.8 -11.28,-12.72 -9.81,5.4 -1.59,21.54 11.56,16.5 z"
       id="path4501"
       inkscape:connector-curvature="0"
       style="fill:#899094" /><path
       d="m 96.08,74.89 c 1.86,2.05 4.88,3.66 7.49,3.73 2.89,0.07 6.3,-0.38 8.41,-3.17 0.26,-0.34 0.33,-0.41 0.56,-0.69 1.81,-2.17 3.39,-6.82 2.8,-8.19 -2.05,2.61 0.01,2.15 -4.53,5.3 -4.88,3.4 -15.1,1.04 -17.08,-8.64 -0.72,0.84 -0.28,0.09 -0.68,1.3 -0.84,2.56 1.22,8.37 3.03,10.36 z"
       id="path4503"
       inkscape:connector-curvature="0"
       style="fill:#899094" /><path
       d="m 56.17,119.97 0.29,6.31 c 0.76,-0.42 1.09,-1.19 1.51,-1.74 l 11.63,-9.52 c 0.05,-0.05 0.11,-0.11 0.16,-0.16 3.8,-3.73 2.96,-3.24 6.18,-7.6 2.22,-3.01 3.26,-5.07 3.43,-9.07 0.05,-2.08 0.35,-0.56 0.2,-4 l 0.1,-4.12 C 78.44,88.09 79.5,89.49 79.23,87.74 l -1.68,-4.68 c -1.13,-2.35 -3.18,-7.97 -7.5,-8.49 0.32,-2.26 1.01,-3.91 1.92,-5.89 0.46,-0.98 0.88,-1.65 1.53,-2.29 l 1.53,-1.25 c 0.45,-0.41 0.18,-0.12 0.28,-0.31 0.84,1.64 1.23,2.94 2.49,4.81 3.83,5.71 9.73,9.51 9.92,11.87 0.72,0.81 0.64,0.57 0.83,1.74 l 1.37,-0.1 c 0.76,-0.52 0.14,0.15 0.38,-0.78 l -0.92,0.05 c -1.6,-3.93 -4.93,-5.94 -7.37,-8.64 -1.1,-1.22 -6.31,-7.22 -5.39,-10.31 0.17,-1.34 0.04,-2.8 0.01,-2.88 0,0 -0.74,-0.78 -1.72,-0.87 -0.2,5.21 -0.68,3.59 -2.74,7.27 -1.36,2.44 -1.78,4.75 -2.86,7.46 -3.93,-0.06 -9.94,1.13 -12.04,4.86 -2.41,4.29 -3.76,6.8 -4.74,12.25 -0.61,3.47 -1.03,2.02 -1.03,7.29 0,6.65 -0.25,6.91 1.17,11.64 0.98,3.23 2.98,7.27 3.5,9.48 z"
       id="path4505"
       inkscape:connector-curvature="0"
       style="fill:#3c7924" /><path
       d="m 89.92,83.15 -1.37,0.1 c -0.19,-1.17 -0.11,-0.93 -0.83,-1.74 -3.8,1.09 -4.49,1.5 -6.05,5.07 l 0.9,1.61 c 2.81,-4.85 -0.54,-3.9 5.69,-4.21 -1.76,1.29 -1.58,0.64 -2.22,3.12 -0.64,2.47 0.84,7.45 1.51,8.43 0.94,1.38 -1.14,-0.51 1.31,0.95 0.69,0.41 -0.6,0.09 0.59,0.24 0.35,0.05 1.25,0 1.63,0.01 -0.09,0.32 -0.3,0.8 -0.33,0.87 -0.2,0.58 -0.24,-0.13 -0.17,0.61 4.97,0 5.1,1.26 9.14,-1.49 3.24,-2.21 1.79,-2.21 3.66,-4.55 1.09,-1.35 -0.29,1.29 0.33,-0.37 0.27,-1.34 0.48,-4.24 0.02,-5.6 l -0.6,-1.67 c -0.73,-2.38 -1.39,-4.11 -3.13,-5.64 -1.88,-1.65 -5.03,-2.42 -6.32,0.3 -1.01,2.13 -0.25,1.47 -1.76,3.06 -0.05,0.05 -0.11,0.13 -0.16,0.17 -0.98,1.06 -0.43,0.71 -2.64,1.51 0.16,-0.16 0.39,-0.45 0.8,-0.78 z"
       id="path4507"
       inkscape:connector-curvature="0"
       style="fill:#e12b21" /><path
       d="m 56.17,119.97 c -0.52,-2.21 -2.52,-6.25 -3.5,-9.48 -1.42,-4.73 -1.17,-4.99 -1.17,-11.64 0,-5.27 0.42,-3.82 1.03,-7.29 0.98,-5.45 2.33,-7.96 4.74,-12.25 2.1,-3.73 8.11,-4.92 12.04,-4.86 1.08,-2.71 1.5,-5.02 2.86,-7.46 2.06,-3.68 2.54,-2.06 2.74,-7.27 -0.27,0.41 -0.1,0.11 -0.28,0.76 -1.14,4.31 -0.53,2.24 -3.2,5.44 l -2.63,3.43 c -2.16,4.13 -1.46,3.21 -5.28,4.12 l -2.6,0.62 c -1.18,0.26 -1.17,0.57 -2.18,0.97 -1.09,0.43 -1.61,0.51 -2.37,0.87 l -2.72,1.43 c -0.86,0.57 -0.35,0.15 -0.77,0.99 -1,1.99 -2.12,2.5 -2.67,3.74 -0.26,0.59 -0.42,1.48 -0.72,2.21 -0.7,1.67 -1.48,2.46 -2.07,4.34 -0.6,1.87 -0.56,3.13 -1.5,4.93 l -0.68,2.09 c -0.21,2.63 -0.46,3.92 0,5.61 0.3,1.11 0.2,1.45 0.23,2.71 0.09,3.13 1.83,6.59 3.06,9.39 0.33,0.74 0.84,1.39 1.15,2.04 1.26,2.61 0.88,4.52 2.46,6.42 1.51,-0.24 0.88,-0.53 1.95,-1.22 0.79,-0.52 0.02,-0.14 1.44,-0.45 z"
       id="path4509"
       inkscape:connector-curvature="0"
       style="fill:#b4c6b8" /><path
       d="m 90.8,78.57 c -0.6,1.19 -0.93,1.18 -1.89,1.89 0.86,2.04 1.68,0.98 1.39,1.91 -0.24,0.93 0.38,0.26 -0.38,0.78 -0.41,0.33 -0.64,0.62 -0.8,0.78 2.21,-0.8 1.66,-0.45 2.64,-1.51 0.05,-0.04 0.11,-0.12 0.16,-0.17 1.51,-1.59 0.75,-0.93 1.76,-3.06 1.29,-2.72 4.44,-1.95 6.32,-0.3 1.74,1.53 2.4,3.26 3.13,5.64 l 0.6,1.67 c 0.46,1.36 0.25,4.26 -0.02,5.6 -0.62,1.66 0.76,-0.98 -0.33,0.37 -1.87,2.34 -0.42,2.34 -3.66,4.55 -4.04,2.75 -4.17,1.49 -9.14,1.49 -0.07,-0.74 -0.03,-0.03 0.17,-0.61 0.03,-0.07 0.24,-0.55 0.33,-0.87 -0.38,-0.01 -1.28,0.04 -1.63,-0.01 -1.19,-0.15 0.1,0.17 -0.59,-0.24 -2.45,-1.46 -0.37,0.43 -1.31,-0.95 -0.67,-0.98 -2.15,-5.96 -1.51,-8.43 0.64,-2.48 0.46,-1.83 2.22,-3.12 -6.23,0.31 -2.88,-0.64 -5.69,4.21 l -0.9,-1.61 -0.38,1.54 c -0.42,9.92 9.86,15.15 15.95,13.28 5.66,-1.73 3.34,-1.89 6.22,-3.81 1.26,-2.14 2.42,-3.78 2.63,-7.09 -0.25,-5.46 -1.44,-8.37 -4.51,-11.3 -5.8,-5.54 -9.56,-1.17 -10.78,-0.63 z"
       id="path4511"
       inkscape:connector-curvature="0"
       style="fill:#a2170c" /><path
       d="m 79.67,90.07 -0.1,4.12 c 0.15,3.44 -0.15,1.92 -0.2,4 0.87,0.6 0.69,0.69 1.37,1.87 1.46,2.51 4.24,4.94 7.02,5.76 3.05,0.91 6.81,1.45 9.79,-0.63 0.36,-0.26 0.45,-0.3 0.78,-0.5 2.49,-1.58 5.4,-5.6 5.13,-7.1 -2.88,1.92 -0.56,2.08 -6.22,3.81 -6.09,1.87 -16.37,-3.36 -15.95,-13.28 -0.99,0.6 -0.33,0 -1.06,1.05 -0.3,0.43 -0.2,0.44 -0.56,0.9 z"
       id="path4513"
       inkscape:connector-curvature="0"
       style="fill:#899094" /><g
       id="_1377856000"><path
         d="m 105.37,53.76 c 3.02,0 5.69,0.86 7.64,2.43 2.03,1.65 3.27,4.07 3.27,7.11 0,2.36 -1.15,4.95 -2.5,6.72 -2.04,2.67 -5,4.29 -8.71,4.01 -6.5,-0.49 -11.71,-5.52 -11.21,-10.73 0.26,-2.81 1.39,-5.71 3.7,-7.47 1.99,-1.5 4.95,-2.07 7.81,-2.07 z"
         id="path4515"
         inkscape:connector-curvature="0"
         style="fill:#a2170c" /><path
         d="m 106.18,55.31 c 1.39,0 2.06,0.63 3.17,1.1 0.65,0.27 1.84,0.24 2.36,0.66 0.72,0.58 0.65,1.35 1.06,2.18 0.42,0.88 1.31,1.84 1.31,2.96 0,0.82 -0.56,1.39 -0.87,2.2 -0.33,0.89 -0.43,2 -0.94,2.67 -0.72,0.94 -1.54,1.19 -2.56,1.69 -1.08,0.54 -2.36,1.32 -3.74,1.21 -2.59,-0.19 -4.99,-1.34 -6.48,-3 -1.22,-1.35 -1.8,-3.07 -1.64,-4.77 0.1,-1.07 0.87,-1.8 1.36,-2.78 0.43,-0.87 0.54,-2.02 1.32,-2.62 0.42,-0.31 1.09,-0.39 1.61,-0.6 1.26,-0.5 2.58,-0.9 4.04,-0.9 z"
         id="path4517"
         inkscape:connector-curvature="0"
         style="fill:#e12b21" /><path
         d="m 108.42,58.42 c 2.77,1.17 3.84,3.28 2.85,5.92 -0.25,0.65 -0.32,1.47 -0.7,1.97 -0.53,0.69 -1.14,0.88 -1.89,1.25 -0.8,0.4 -1.75,0.97 -2.77,0.9 -1.91,-0.15 -3.68,-0.99 -4.79,-2.22 -0.9,-1 -1.33,-2.27 -1.21,-3.53 0.41,-4.27 4.72,-5.88 8.51,-4.29 z"
         id="path4519"
         inkscape:connector-curvature="0"
         style="fill:#fa756e" /><path
         d="m 106.55,56.9 c 0.99,0 1.48,0.44 2.27,0.78 0.47,0.2 1.33,0.18 1.7,0.48 0.52,0.41 0.47,0.97 0.76,1.57 0.31,0.63 0.94,1.32 0.94,2.12 0,0.59 -0.4,1 -0.62,1.58 -0.24,0.64 -0.31,1.44 -0.68,1.92 -0.51,0.68 -1.11,0.85 -1.84,1.22 -0.77,0.39 -1.7,0.94 -2.69,0.87 -1.86,-0.14 -3.58,-0.96 -4.66,-2.16 -0.87,-0.97 -1.29,-2.21 -1.17,-3.43 0.07,-0.77 0.62,-1.29 0.98,-2 0.3,-0.62 0.38,-1.45 0.95,-1.88 0.3,-0.22 0.78,-0.28 1.15,-0.43 0.91,-0.36 1.85,-0.64 2.91,-0.64 z"
         id="path4521"
         inkscape:connector-curvature="0"
         style="fill:#e12b21" /><path
         d="m 106.84,59.26 c 0.39,-1.65 0.72,-3.06 1.27,-3.97 0.33,-0.54 1.8,0.53 1.54,1.04 -0.5,0.99 -0.85,1.04 -1.36,3.17 -0.03,0.11 -0.02,0.19 0.13,0.48 0.11,0.24 0.23,0.48 0.38,0.7 0.16,0.23 3.65,-1.21 3.99,-3.16 0.04,-0.26 1.06,2.65 1.06,2.89 0,0.32 -4.18,0.86 -5.04,2.11 -0.14,0.2 -0.09,0.47 -0.22,0.64 -0.16,0.22 -0.43,0.23 -0.64,0.37 -0.4,0.27 -0.81,0.59 -1.36,0.55 -0.51,-0.04 -0.81,-0.44 -1.17,-0.71 -0.23,-0.17 -0.54,-0.15 -0.72,-0.35 -0.2,-0.23 -0.4,-0.46 -0.53,-0.71 -0.11,-0.21 -0.18,-0.44 -0.16,-0.7 0.03,-0.3 0.55,-0.38 0.68,-0.67 0.13,-0.31 -0.34,-0.76 0.18,-1.04 0.26,-0.15 0.44,0.08 0.77,0.01 0.29,-0.07 1.05,-0.04 1.2,-0.65 z"
         id="path4523"
         inkscape:connector-curvature="0"
         style="fill:#a2170c" /></g><path
       d="m 99.71,49.72 3.64,0.29 c 3.05,0.05 1.71,0.22 3.54,0.37 0.54,-0.68 0.62,-0.53 1.67,-1.03 2.23,-1.05 4.39,-3.2 5.13,-5.42 0.82,-2.44 1.32,-5.47 -0.51,-8 -0.22,-0.3 -0.25,-0.38 -0.43,-0.66 -1.38,-2.11 -4.93,-4.67 -6.26,-4.53 1.69,2.44 1.84,0.56 3.34,5.25 1.62,5.06 -3.06,13.16 -11.84,12.32 0.53,0.83 0,0.26 0.93,0.92 0.38,0.26 0.39,0.17 0.79,0.49 z"
       id="path4526"
       inkscape:connector-curvature="0"
       style="fill:#899094" /><g
       id="_1377860800"><path
         d="m 99.8,28.01 c 3.02,0 5.6,1.81 7.54,3.38 2.04,1.64 3.27,4.07 3.27,7.1 0,2.37 -1.15,4.95 -2.5,6.72 -2.04,2.68 -5,4.29 -8.71,4.02 -6.5,-0.49 -10.96,-6.68 -10.46,-11.89 0.27,-2.8 1.54,-5.18 3.86,-6.93 1.98,-1.51 4.14,-2.4 7,-2.4 z"
         id="path4528"
         inkscape:connector-curvature="0"
         style="fill:#a2170c" /><path
         d="m 91.61,39.92 c -0.38,-1.33 0.03,-2.15 0.18,-3.35 0.08,-0.69 0.06,-1.51 0.32,-2.12 0.36,-0.85 0.79,-1.32 1.48,-1.94 0.72,-0.65 1.55,-1.37 2.63,-1.68 0.79,-0.22 1.34,-0.24 2.2,-0.17 0.94,0.07 2.04,-0.14 2.83,0.17 1.1,0.43 1.56,1.16 2.33,2 0.82,0.88 1.91,1.91 2.19,3.26 0.53,2.54 0.09,5.17 -1.1,7.05 -0.97,1.55 -2.46,2.58 -4.13,2.89 -1.07,0.2 -1.98,-0.34 -3.05,-0.54 C 96.53,45.32 95.4,45.53 94.61,44.94 94.19,44.62 93.93,44 93.59,43.56 92.76,42.49 92.02,41.33 91.61,39.92 Z"
         id="path4530"
         inkscape:connector-curvature="0"
         style="fill:#e12b21" /><path
         d="m 93.98,36.92 c 0.36,-2.99 2.09,-4.6 4.91,-4.37 0.69,0.05 1.5,-0.1 2.09,0.12 0.81,0.32 1.15,0.86 1.72,1.48 0.6,0.65 1.41,1.41 1.62,2.41 0.39,1.88 0.06,3.82 -0.81,5.22 -0.72,1.14 -1.82,1.9 -3.06,2.13 -4.22,0.79 -6.95,-2.92 -6.47,-6.99 z"
         id="path4532"
         inkscape:connector-curvature="0"
         style="fill:#fa756e" /><path
         d="m 93.03,39.13 c -0.27,-0.95 0.02,-1.54 0.13,-2.4 0.06,-0.5 -0.19,-1.32 -0.01,-1.76 0.26,-0.62 0.8,-0.72 1.3,-1.16 0.52,-0.47 1.01,-1.28 1.79,-1.5 0.56,-0.16 1.07,0.12 1.69,0.17 0.67,0.05 1.46,-0.1 2.03,0.12 0.79,0.31 1.12,0.83 1.68,1.44 0.58,0.63 1.37,1.37 1.57,2.34 0.38,1.83 0.06,3.72 -0.79,5.07 -0.7,1.11 -1.77,1.85 -2.97,2.08 -0.77,0.14 -1.42,-0.25 -2.2,-0.39 -0.68,-0.13 -1.5,0.03 -2.06,-0.4 -0.31,-0.22 -0.49,-0.67 -0.74,-0.99 -0.6,-0.77 -1.13,-1.6 -1.42,-2.62 z"
         id="path4534"
         inkscape:connector-curvature="0"
         style="fill:#e12b21" /><path
         d="M 94.93,36.93 C 94,35.94 91.81,34.82 90.21,34.99 c -0.26,0.03 2.34,-3.42 3.54,-4.37 2.35,-1.85 1.38,1.21 1.86,1.87 0.86,1.2 1.16,2.57 2.06,2.88 0.22,0.07 0.47,-0.05 0.67,0.02 0.26,0.1 0.34,0.35 0.54,0.52 0.37,0.31 0.79,0.61 0.9,1.15 0.1,0.5 -0.21,0.91 -0.36,1.33 -0.1,0.26 0,0.56 -0.14,0.79 -0.17,0.26 -0.34,0.51 -0.54,0.7 -0.17,0.17 -0.38,0.29 -0.62,0.34 -0.31,0.06 -0.52,-0.41 -0.83,-0.46 -0.34,-0.05 -0.64,0.53 -1.06,0.11 -0.21,-0.21 -0.06,-0.7 -0.38,-0.8 -1.23,-0.38 -0.34,-0.73 -0.58,-1.17 -0.26,-0.48 -0.03,-0.64 -0.34,-0.97 z"
         id="path4536"
         inkscape:connector-curvature="0"
         style="fill:#a2170c" /></g><path
       d="m 73.48,60.25 2.24,3.08 c 3.11,3.75 8.62,5.33 13.39,3.39 5.77,-1.49 8.68,-13.39 -0.68,-17.21 -0.78,2.98 2.97,4.15 1.55,8.68 -2.89,4.7 -11.27,7.25 -16.55,-0.25 -0.3,0.98 -0.21,0.18 -0.1,1.36 0.05,0.47 0.12,0.42 0.15,0.95 z"
       id="path4539"
       inkscape:connector-curvature="0"
       style="fill:#899094" /><g
       id="_1377859360"><path
         d="m 88.64,52.98 0.51,-1.13 c 1.01,0.35 0.79,0.32 1.74,0.09 0.78,-3.49 0.75,-4.21 -1.41,-6.99 l -1.66,0.02 c 2.63,4.33 3.33,1.25 0.88,6.33 -0.26,-1.95 0.17,-1.52 -1.52,-3.11 -1.68,-1.57 -6.27,-2.55 -7.34,-2.45 -1.5,0.16 0.9,-0.68 -1.32,0.64 -0.62,0.37 0.19,-0.52 -0.45,0.36 -0.18,0.26 -0.54,0.99 -0.71,1.29 -0.21,-0.21 -0.5,-0.59 -0.55,-0.64 -0.37,-0.41 0.21,-0.14 -0.4,-0.4 -2.15,3.95 -3.21,3.5 -2.77,7.9 0.35,3.52 0.98,2.37 2.02,4.87 0.6,1.45 -0.9,-0.79 0.15,0.42 0.95,0.79 3.16,2.22 4.44,2.44 l 1.58,0.25 c 2.2,0.44 3.86,0.67 5.83,-0.05 2.12,-0.78 4.1,-2.95 2.5,-5.14 -1.26,-1.73 -1.06,-0.84 -1.67,-2.73 -0.02,-0.06 -0.05,-0.14 -0.07,-0.19 -0.41,-1.24 -0.37,-0.65 -0.06,-2.75 0.06,0.19 0.19,0.5 0.28,0.97 z"
         id="path4541"
         inkscape:connector-curvature="0"
         style="fill:#e12b21" /><path
         d="m 91.89,55.66 c -0.68,-0.99 -0.53,-1.25 -0.68,-2.32 -1.99,-0.2 -1.51,0.91 -2.11,0.28 -0.64,-0.6 -0.37,0.19 -0.46,-0.64 -0.09,-0.47 -0.22,-0.78 -0.28,-0.97 -0.31,2.1 -0.35,1.51 0.06,2.75 0.02,0.05 0.05,0.13 0.07,0.19 0.61,1.89 0.41,1 1.67,2.73 1.6,2.19 -0.38,4.36 -2.5,5.14 -1.97,0.72 -3.63,0.49 -5.83,0.05 l -1.58,-0.25 c -1.28,-0.22 -3.49,-1.65 -4.44,-2.44 -1.05,-1.21 0.45,1.03 -0.15,-0.42 -1.04,-2.5 -1.67,-1.35 -2.02,-4.87 -0.44,-4.4 0.62,-3.95 2.77,-7.9 0.61,0.26 0.03,-0.01 0.4,0.4 0.05,0.05 0.34,0.43 0.55,0.64 0.17,-0.3 0.53,-1.03 0.71,-1.29 0.64,-0.88 -0.17,0.01 0.45,-0.36 2.22,-1.32 -0.18,-0.48 1.32,-0.64 1.07,-0.1 5.66,0.88 7.34,2.45 1.69,1.59 1.26,1.16 1.52,3.11 2.45,-5.08 1.75,-2 -0.88,-6.33 l 1.66,-0.02 -1.05,-0.97 c -7.69,-4.62 -16.28,1.27 -17.44,6.92 -1.07,5.23 0.06,3.46 0.34,6.58 1.15,1.92 1.95,3.56 4.48,5.15 4.44,2.17 7.27,2.47 10.92,1.31 6.91,-2.21 5.06,-7.08 5.16,-8.28 z"
         id="path4543"
         inkscape:connector-curvature="0"
         style="fill:#a2170c" /><path
         d="m 109.34,50.02 c -1.52,-0.11 -2.69,-0.36 -4.61,-0.25 -6.2,0.36 -11.88,3.2 -13.8,2.26 -0.96,0.19 -0.74,0.24 -1.73,-0.15 l -0.55,1.11 c 0.06,0.83 -0.18,0.04 0.43,0.66 l 0.38,-0.75 c 3.8,0.57 6.89,-1.1 10.12,-1.76 1.45,-0.29 8.51,-1.59 10.49,0.55 0.97,0.75 2.16,1.32 2.24,1.33 0,0 0.19,-0.04 0.44,-0.15 -1.27,-1.5 -1.03,-1.78 -2.56,-2.46 -0.28,-0.13 -0.57,-0.25 -0.85,-0.39 z"
         id="path4545"
         inkscape:connector-curvature="0"
         style="fill:#3c7924" /></g><g
       id="_1377892160"><path
         d="m 83.21,19.35 c 1.97,2.04 -0.08,5.54 0.02,5.81 0.16,0.45 3.91,2.3 3.1,7.08 -0.56,3.33 -1.89,3.99 -3.83,4.79 -3.11,1.27 -6.51,1.8 -9.88,0.22 -5.89,-2.78 -8.96,-9.35 -6.63,-14.04 1.26,-2.52 3.36,-4.98 6.17,-5.7 6.87,-1.77 9.94,0.69 11.05,1.84 z"
         id="path4548"
         inkscape:connector-curvature="0"
         style="fill:#a2170c" /><path
         d="m 80.83,19.38 c 4.19,1.6 1.91,4.95 2.14,5.85 0.1,0.39 1.83,0.6 1.58,4.36 -0.09,1.39 0.08,1.88 -0.49,2.52 -0.63,0.71 -1.54,1.59 -2.25,2.03 -1.01,0.62 -2.37,0.73 -3.5,0.85 -1.2,0.11 -3.03,0.08 -4.29,-0.51 -2.34,-1.11 -3.29,-3.73 -4.09,-5.81 -0.65,-1.7 -0.58,-3.51 0.18,-5.04 0.48,-0.97 0.9,-1.75 1.7,-2.49 0.72,-0.65 1.79,-1.32 2.74,-1.59 0.5,-0.15 2.04,-0.72 2.6,-0.73 1.36,-0.03 2.31,0.03 3.68,0.56 z"
         id="path4550"
         inkscape:connector-curvature="0"
         style="fill:#e12b21" /><path
         d="m 82.46,30.93 c -0.61,0.17 -1.6,0.18 -2.38,-0.18 -2.06,-0.97 -2.98,-2.01 -3.68,-3.84 -0.57,-1.49 -0.51,-3.08 0.15,-4.42 1.14,-2.29 2.74,-2.69 4.44,-2.53 0.17,0.01 0.58,-0.07 0.67,-0.02 0.73,0.45 0.47,1.76 0.1,4.74 -0.46,3.6 1.33,3.71 1.71,5.41 0.07,0.29 -0.66,0.74 -1.01,0.84 z"
         id="path4552"
         inkscape:connector-curvature="0"
         style="fill:#fa756e" /><path
         d="m 84.24,30.04 c -0.14,0.21 -0.49,0.44 -0.67,0.5 -0.55,0.19 -1.13,-0.1 -1.96,-0.19 -3.42,-0.39 -5.71,-4.17 -3.73,-7.58 0.43,-0.74 0.56,-1.57 1.3,-2.08 1.07,-0.74 1.84,-1.03 2.35,-0.87 0.29,0.09 0.6,0.14 0.77,0.93 0.24,1.03 0.22,3.11 0.15,4.81 -0.05,1.16 2.25,3.81 1.79,4.48 z"
         id="path4554"
         inkscape:connector-curvature="0"
         style="fill:#e12b21" /><path
         d="m 83,25.07 c 0.02,0.06 0.22,0.36 0.59,0.58 0.5,0.31 1.29,1.68 1.02,2.22 -0.12,0.23 -0.83,0.27 -1.21,0.33 -0.27,0.04 -0.89,-0.39 -1.14,-0.33 -0.46,0.12 -1.4,0.03 -1.9,-0.21 -0.45,-0.21 -0.04,-0.89 -0.28,-1.26 -0.14,-0.24 -0.43,-0.37 -0.52,-0.62 -0.33,-0.86 0.42,-1.11 0.61,-1.48 0.23,-0.43 -0.1,-1.19 0.52,-1.42 0.44,-0.16 0.85,-0.07 1.18,-0.2 0.64,-0.24 1.04,-0.75 1.33,-0.62 0.7,0.33 0.26,1.51 0,2.33 -0.09,0.29 -0.25,0.53 -0.2,0.68 z"
         id="path4556"
         inkscape:connector-curvature="0"
         style="fill:#a2170c" /><path
         d="m 104.26,17.78 c -1.68,0.2 -3,0.17 -5.06,0.69 -6.67,1.68 -12.24,5.95 -14.53,5.32 -1,0.42 -0.75,0.42 -1.91,0.2 l -0.37,1.33 c 0.24,0.89 -0.19,0.07 0.61,0.62 l 0.25,-0.89 c 4.25,-0.18 7.26,-2.63 10.63,-4.02 1.52,-0.62 8.92,-3.5 11.52,-1.59 1.21,0.62 2.63,0.98 2.71,0.98 0,0 0.2,-0.09 0.45,-0.26 -1.7,-1.36 -1.49,-1.71 -3.3,-2.14 -0.33,-0.08 -0.66,-0.15 -1,-0.24 z"
         id="path4558"
         inkscape:connector-curvature="0"
         style="fill:#3c7924" /></g><path
       d="m 149.37,87.73 4.97,0.93 c -0.19,-0.67 -0.73,-1.07 -1.08,-1.5 L 147.99,76.35 147.9,76.2 c -2.21,-3.65 -1.98,-2.91 -4.78,-6.21 -1.94,-2.28 -3.35,-3.48 -6.44,-4.35 -1.6,-0.42 -0.37,-0.37 -3.07,-0.89 l -3.19,-0.84 c -1.77,0.6 -0.48,0.03 -1.9,-0.09 -3.68,0.42 -10.52,0.84 -11.94,4.73 -1.71,-0.67 -2.87,-1.5 -4.24,-2.58 -0.68,-0.54 -1.12,-0.99 -1.5,-1.62 l -0.69,-1.42 c -0.24,-0.43 -0.06,-0.16 -0.19,-0.27 l 0.05,-0.01 c -0.57,-0.47 -1.05,-0.9 -1.52,-1.47 -0.8,-0.24 -1.54,-0.34 -1.59,-0.33 0,0 -0.75,0.43 -0.99,1.18 4.02,1.11 2.66,1.19 5.15,3.47 1.65,1.51 3.37,2.26 5.29,3.6 -0.77,3.05 -0.96,7.95 1.56,10.28 2.9,2.67 4.6,4.18 8.67,5.94 2.59,1.12 1.38,1.17 5.48,2.15 5.19,1.23 5.35,1.47 9.29,1.23 2.69,-0.17 6.21,-0.98 8.02,-0.97 z"
       id="path4561"
       inkscape:connector-curvature="0"
       style="fill:#3c7924" /><path
       d="m 48.78,36.01 c -1.6,2.38 -4.05,4.97 -4.11,7.76 -0.01,0.2 -0.01,0.41 -0.01,0.65 -0.03,2.64 1.12,5.82 3.06,7.71 2.15,2.09 5.07,4.2 8.65,3.88 0.44,-0.04 0.54,-0.03 0.91,-0.05 2.92,-0.14 7.42,-2.04 7.94,-3.35 -3.41,0.24 -1.52,1.4 -7.21,0.25 -6.12,-1.24 -12.23,-9.99 -6.88,-17.68 -1.14,0.04 -0.28,-0.14 -1.44,0.36 -0.47,0.21 -0.38,0.27 -0.91,0.47 z"
       id="path4563"
       inkscape:connector-curvature="0"
       style="fill:#899094" /><path
       d="m 37.06,66.38 -0.69,1.2 c -1.08,-0.5 -0.83,-0.44 -1.92,-0.29 -1.25,3.77 -1.31,4.57 0.77,7.9 l 1.84,0.16 c -2.42,-5.09 -3.54,-1.76 -0.25,-7.12 0.07,2.2 -0.37,1.68 1.33,3.63 1.69,1.93 6.65,3.54 7.85,3.54 1.68,0 -1.07,0.66 1.53,-0.55 0.74,-0.34 -0.26,0.55 0.54,-0.35 0.24,-0.26 0.71,-1.03 0.94,-1.35 0.21,0.26 0.49,0.71 0.53,0.77 0.37,0.5 -0.24,0.13 0.41,0.49 2.83,-4.13 3.95,-3.51 3.96,-8.43 0.01,-3.95 -0.82,-2.74 -1.69,-5.63 -0.5,-1.68 0.91,0.97 -0.12,-0.49 -0.96,-0.98 -3.25,-2.81 -4.63,-3.2 l -1.73,-0.45 c -2.39,-0.75 -4.2,-1.19 -6.46,-0.61 -2.44,0.62 -4.88,2.8 -3.36,5.41 1.2,2.06 1.08,1.05 1.55,3.21 0.01,0.07 0.04,0.16 0.05,0.23 0.32,1.41 0.34,0.76 -0.25,3.04 -0.04,-0.22 -0.15,-0.58 -0.2,-1.11 z"
       id="path4565"
       inkscape:connector-curvature="0"
       style="fill:#e12b21" /><path
       d="m 33.76,63.05 c 0.65,1.17 0.45,1.44 0.49,2.65 2.18,0.44 1.78,-0.84 2.38,-0.08 0.64,0.74 0.43,-0.16 0.43,0.76 0.05,0.53 0.16,0.89 0.2,1.11 0.59,-2.28 0.57,-1.63 0.25,-3.04 -0.01,-0.07 -0.04,-0.16 -0.05,-0.23 -0.47,-2.16 -0.35,-1.15 -1.55,-3.21 -1.52,-2.61 0.92,-4.79 3.36,-5.41 2.26,-0.58 4.07,-0.14 6.46,0.61 l 1.73,0.45 c 1.38,0.39 3.67,2.22 4.63,3.2 1.03,1.46 -0.38,-1.19 0.12,0.49 0.87,2.89 1.7,1.68 1.69,5.63 -0.01,4.92 -1.13,4.3 -3.96,8.43 -0.65,-0.36 -0.04,0.01 -0.41,-0.49 -0.04,-0.06 -0.32,-0.51 -0.53,-0.77 -0.23,0.32 -0.7,1.09 -0.94,1.35 -0.8,0.9 0.2,0.01 -0.54,0.35 -2.6,1.21 0.15,0.55 -1.53,0.55 -1.2,0 -6.16,-1.61 -7.85,-3.54 -1.7,-1.95 -1.26,-1.43 -1.33,-3.63 -3.29,5.36 -2.17,2.03 0.25,7.12 l -1.84,-0.16 1.06,1.19 c 7.99,5.99 18.18,0.44 20.1,-5.68 1.78,-5.68 0.33,-3.85 0.37,-7.33 C 55.7,61.1 55,59.2 52.37,57.15 47.7,54.25 44.6,53.59 40.42,54.46 c -7.9,1.66 -6.41,7.27 -6.66,8.59 z"
       id="path4567"
       inkscape:connector-curvature="0"
       style="fill:#a2170c" /><path
       d="m 13.8,67.31 c 1.67,0.3 2.94,0.71 5.07,0.81 6.91,0.31 13.52,-2.2 15.54,-0.94 1.09,-0.11 0.85,-0.18 1.91,0.37 l 0.74,-1.18 c 0.03,-0.92 0.2,-0.02 -0.41,-0.77 l -0.5,0.78 c -4.15,-1.06 -7.76,0.44 -11.41,0.8 -1.65,0.16 -9.62,0.8 -11.57,-1.79 -0.98,-0.95 -2.24,-1.71 -2.33,-1.74 0,0 -0.21,0.03 -0.51,0.13 1.25,1.8 0.94,2.08 2.57,3.01 0.29,0.17 0.59,0.34 0.9,0.52 z"
       id="path4569"
       inkscape:connector-curvature="0"
       style="fill:#3c7924" /><g
       id="_1377869216"><path
         d="M 48.2,47.08 C 47.08,43.92 47,40.81 47.92,38.2 c 0.96,-2.73 3.04,-4.92 6.22,-6.04 2.47,-0.87 5.59,-0.63 7.95,0.13 3.54,1.14 6.33,3.64 7.4,7.63 1.89,6.97 -1.45,14.28 -7.08,15.68 -3.03,0.75 -6.48,0.65 -9.16,-1.12 -2.31,-1.52 -4,-4.41 -5.05,-7.4 z"
         id="path4571"
         inkscape:connector-curvature="0"
         style="fill:#a2170c" /><path
         d="m 49.52,45.66 c -0.51,-1.45 -0.11,-2.38 -0.03,-3.72 0.05,-0.77 -0.42,-2.01 -0.17,-2.71 0.34,-0.96 1.16,-1.17 1.89,-1.91 0.76,-0.77 1.43,-2.05 2.61,-2.46 0.85,-0.3 1.66,0.07 2.61,0.09 1.05,0.02 2.25,-0.28 3.14,0 1.25,0.41 1.81,1.18 2.72,2.06 0.96,0.92 2.24,1.98 2.64,3.46 0.75,2.78 0.44,5.71 -0.74,7.88 -0.97,1.77 -2.55,3.01 -4.38,3.47 -1.17,0.29 -2.21,-0.24 -3.41,-0.39 -1.07,-0.13 -2.31,0.18 -3.23,-0.42 -0.48,-0.32 -0.8,-0.99 -1.21,-1.45 -1,-1.14 -1.9,-2.37 -2.44,-3.9 z"
         id="path4573"
         inkscape:connector-curvature="0"
         style="fill:#e12b21" /><path
         d="m 51.94,42.18 c 0.2,-3.34 2.01,-5.23 5.13,-5.17 0.78,0.02 1.67,-0.21 2.32,0 0.92,0.3 1.34,0.87 2.01,1.52 0.71,0.68 1.66,1.46 1.96,2.56 0.55,2.05 0.32,4.22 -0.55,5.82 -0.72,1.32 -1.89,2.23 -3.24,2.57 -4.62,1.15 -7.89,-2.76 -7.63,-7.3 z"
         id="path4575"
         inkscape:connector-curvature="0"
         style="fill:#fa756e" /><path
         d="m 51.04,44.69 c -0.37,-1.03 -0.08,-1.71 -0.02,-2.66 0.03,-0.56 -0.3,-1.46 -0.13,-1.95 0.25,-0.7 0.84,-0.85 1.36,-1.38 0.55,-0.55 1.03,-1.47 1.88,-1.77 0.61,-0.22 1.19,0.06 1.88,0.07 0.75,0.01 1.61,-0.21 2.25,0 0.9,0.29 1.3,0.85 1.96,1.47 0.69,0.67 1.61,1.43 1.9,2.5 0.54,1.99 0.31,4.1 -0.54,5.66 -0.69,1.27 -1.83,2.17 -3.15,2.49 -0.83,0.21 -1.58,-0.17 -2.45,-0.28 -0.77,-0.09 -1.66,0.13 -2.32,-0.3 -0.34,-0.23 -0.58,-0.71 -0.87,-1.04 -0.72,-0.82 -1.36,-1.7 -1.75,-2.81 z"
         id="path4577"
         inkscape:connector-curvature="0"
         style="fill:#e12b21" /><path
         d="m 53.4,43.52 c -1.86,0.2 -3.46,0.38 -4.62,0.13 -0.69,-0.14 -0.11,-2.07 0.52,-1.99 1.22,0.16 1.4,0.5 3.81,0.25 0.14,-0.01 0.21,-0.05 0.47,-0.31 0.2,-0.21 0.4,-0.42 0.58,-0.66 0.18,-0.25 -2.61,-3.37 -4.77,-3 -0.29,0.05 2.37,-2.09 2.63,-2.18 0.33,-0.11 2.44,4.06 4.06,4.5 0.26,0.07 0.53,-0.09 0.75,-0.02 0.29,0.09 0.4,0.37 0.63,0.54 0.43,0.32 0.91,0.62 1.07,1.21 0.15,0.55 -0.16,1.02 -0.31,1.5 -0.09,0.29 0.05,0.61 -0.1,0.88 -0.16,0.29 -0.33,0.58 -0.54,0.81 -0.19,0.2 -0.4,0.35 -0.67,0.42 -0.34,0.08 -0.61,-0.42 -0.95,-0.45 -0.38,-0.03 -0.67,0.63 -1.16,0.19 -0.25,-0.22 -0.08,-0.49 -0.28,-0.81 -0.17,-0.28 -0.43,-1.08 -1.12,-1.01 z"
         id="path4579"
         inkscape:connector-curvature="0"
         style="fill:#a2170c" /></g><path
       d="m 90.3,30.75 c 0.38,0.63 0.62,1.19 1.2,1.88 2.4,2.13 4.66,3.24 4.7,4.4 0.34,0.29 0.29,0.19 0.43,0.73 l 0.56,-0.24 c 0.29,-0.36 0.07,0.05 0.12,-0.44 0.13,-0.05 -0.76,-2.07 -2.79,-3.3 -0.66,-0.39 -1.5,-0.93 -2.03,-1.44 -0.98,-0.97 -1.49,-1.75 -1.39,-2.46 0.01,-0.68 -0.51,-1.47 -0.53,-1.5 0,0 -0.07,-0.06 -0.18,-0.11 -0.2,1.11 -0.37,1.12 -0.19,2 0.03,0.15 0.07,0.32 0.1,0.48 z"
       id="path4582"
       inkscape:connector-curvature="0"
       style="fill:#3c7924" /><path
       d="m 52.85,68.67 c 1.32,2.66 3.85,5.23 6.37,6.09 3.9,1.35 7.51,0.78 10.95,-1.75 2.27,-1.66 3.54,-5.36 3.29,-6.95 -2.61,2.04 -0.51,2.2 -5.64,4.03 -5.53,1.97 -14.05,-3.85 -13.67,-14.33 -3.7,2.61 -3.15,9.18 -1.3,12.91 z"
       id="path4584"
       inkscape:connector-curvature="0"
       style="fill:#899094;fill-opacity:0.36078401" /><g
       id="_1377871104"><path
         d="m 75.3,61.04 c -0.05,3.24 -2.04,5.96 -3.75,8.01 -1.8,2.15 -4.43,3.43 -7.67,3.38 -2.54,-0.05 -5.29,-1.33 -7.16,-2.81 -2.82,-2.23 -4.5,-5.43 -4.13,-9.4 0.64,-6.95 7.35,-11.62 12.92,-10.98 3,0.33 5.52,1.74 7.36,4.26 1.57,2.15 2.49,4.48 2.43,7.54 z"
         id="path4586"
         inkscape:connector-curvature="0"
         style="fill:#a2170c" /><path
         d="m 62.7,52.05 c 1.43,-0.38 2.3,0.07 3.58,0.25 0.74,0.11 1.62,0.09 2.27,0.38 0.91,0.4 1.4,0.87 2.05,1.62 0.68,0.79 1.44,1.7 1.75,2.86 0.22,0.84 0.23,1.44 0.14,2.35 -0.1,1.01 0.11,2.19 -0.23,3.03 -0.49,1.17 -1.28,1.65 -2.19,2.46 -0.96,0.86 -2.08,2.01 -3.53,2.29 C 63.8,67.8 61,67.28 59,65.98 57.37,64.91 56.29,63.3 55.99,61.5 c -0.19,-1.15 0.4,-2.11 0.63,-3.26 0.21,-1.02 0,-2.24 0.65,-3.07 0.34,-0.45 1.01,-0.71 1.49,-1.07 1.17,-0.87 2.42,-1.64 3.94,-2.05 z"
         id="path4588"
         inkscape:connector-curvature="0"
         style="fill:#e12b21" /><path
         d="m 65.87,54.65 c 3.2,0.43 4.89,2.32 4.59,5.33 -0.07,0.74 0.08,1.61 -0.17,2.23 -0.36,0.87 -0.94,1.23 -1.62,1.82 -0.71,0.64 -1.53,1.49 -2.61,1.69 -2.02,0.39 -4.09,0 -5.57,-0.96 -1.21,-0.79 -2.01,-1.99 -2.23,-3.32 -0.76,-4.53 3.26,-7.39 7.61,-6.79 z"
         id="path4590"
         inkscape:connector-curvature="0"
         style="fill:#fa756e" /><path
         d="m 63.51,53.59 c 1.03,-0.28 1.66,0.05 2.58,0.18 0.53,0.07 1.42,-0.19 1.88,0.02 0.65,0.29 0.76,0.87 1.22,1.42 0.5,0.56 1.35,1.1 1.57,1.94 0.16,0.6 -0.14,1.14 -0.21,1.8 -0.07,0.73 0.08,1.57 -0.17,2.17 -0.34,0.85 -0.91,1.19 -1.57,1.78 -0.69,0.61 -1.49,1.44 -2.54,1.64 -1.96,0.37 -3.97,-0.01 -5.41,-0.94 -1.18,-0.77 -1.95,-1.93 -2.17,-3.23 -0.14,-0.82 0.29,-1.51 0.46,-2.34 0.14,-0.73 -0.01,-1.61 0.46,-2.2 0.25,-0.32 0.73,-0.51 1.07,-0.77 0.84,-0.63 1.74,-1.18 2.83,-1.47 z"
         id="path4592"
         inkscape:connector-curvature="0"
         style="fill:#e12b21" /><path
         d="m 65.84,55.66 c 1.07,-0.98 2.32,-3.3 2.16,-5.02 -0.02,-0.28 3.63,2.57 4.62,3.88 1.94,2.55 -1.32,1.45 -2.04,1.95 -1.29,0.9 -2.78,1.19 -3.12,2.15 -0.08,0.24 0.05,0.51 -0.04,0.72 -0.11,0.27 -0.38,0.35 -0.56,0.57 -0.34,0.39 -0.67,0.83 -1.25,0.94 -0.54,0.1 -0.97,-0.24 -1.42,-0.41 -0.27,-0.11 -0.59,-0.01 -0.84,-0.17 -0.27,-0.18 -0.54,-0.36 -0.74,-0.58 -0.18,-0.19 -0.31,-0.41 -0.35,-0.68 -0.06,-0.33 0.45,-0.55 0.5,-0.88 0.06,-0.36 -0.55,-0.69 -0.1,-1.13 0.23,-0.22 0.76,-0.06 0.87,-0.4 0.43,-1.3 0.79,-0.34 1.27,-0.59 0.52,-0.27 0.68,-0.03 1.04,-0.35 z"
         id="path4594"
         inkscape:connector-curvature="0"
         style="fill:#a2170c" /></g><path
       d="m 68.32,54.43 c -0.46,0.76 -0.85,1.17 -1.26,1.64 -0.9,1.03 -1.27,2.07 -1.17,2.9 L 65.03,58.7 c -0.09,-0.02 -0.16,-0.07 -0.2,-0.14 -0.02,-0.04 0.04,-1.19 1.22,-2.7 0.36,-0.44 0.86,-1.02 1.12,-1.46 0.47,-0.84 0.65,-1.42 0.4,-1.73 -0.17,-0.33 0.01,-0.91 0.02,-0.94 0,0 0.03,-0.05 0.1,-0.12 0.33,0.37 0.98,0.78 0.98,0.78 0.29,0.64 -0.01,1.41 -0.35,2.04 z"
       id="path4597"
       inkscape:connector-curvature="0"
       style="fill:#3c7924" /><path
       d="m 38.77,27.74 c 1.03,1.34 1.67,2.5 3.17,4.01 4.83,4.89 11.34,7.52 11.96,9.81 0.87,0.65 0.74,0.44 1.14,1.55 l 1.33,-0.36 c 0.65,-0.66 0.16,0.12 0.23,-0.84 l -0.89,0.23 c -2.32,-3.57 -5.96,-4.92 -8.87,-7.12 -1.3,-0.99 -7.55,-5.9 -7.22,-9.11 -0.08,-1.35 -0.48,-2.76 -0.53,-2.83 0,0 -0.17,-0.13 -0.45,-0.26 -0.31,2.16 -0.72,2.15 -0.17,3.93 0.1,0.32 0.2,0.65 0.3,0.99 z"
       id="path4599"
       inkscape:connector-curvature="0"
       style="fill:#3c7924" /><g
       id="_1377873568"><path
         d="m 56.69,92.73 c -2.95,-1.33 -4.67,-4.23 -5.87,-6.62 -1.27,-2.5 -1.41,-5.42 -0.07,-8.38 1.04,-2.31 3.3,-4.33 5.4,-5.46 3.17,-1.72 6.77,-1.99 10.28,-0.09 6.13,3.34 7.76,11.35 4.98,16.22 -1.5,2.63 -3.79,4.39 -6.82,5.08 -2.6,0.59 -5.11,0.51 -7.9,-0.75 z"
         id="path4601"
         inkscape:connector-curvature="0"
         style="fill:#94140a" /><path
         d="m 69.94,84.71 c -0.22,1.46 -0.98,2.08 -1.65,3.19 -0.39,0.64 -0.72,1.45 -1.25,1.94 -0.72,0.67 -1.35,0.94 -2.3,1.24 -0.99,0.31 -2.12,0.65 -3.31,0.47 -0.87,-0.12 -1.42,-0.35 -2.23,-0.8 -0.88,-0.49 -2.05,-0.76 -2.68,-1.41 -0.89,-0.9 -1.02,-1.82 -1.4,-2.98 -0.41,-1.22 -1.03,-2.71 -0.7,-4.15 0.6,-2.72 2.19,-5.08 4.18,-6.41 1.63,-1.08 3.54,-1.43 5.31,-1 1.13,0.28 1.78,1.21 2.74,1.88 0.86,0.59 2.06,0.88 2.57,1.8 0.27,0.5 0.25,1.21 0.39,1.8 0.34,1.41 0.55,2.87 0.33,4.43 z"
         id="path4603"
         inkscape:connector-curvature="0"
         style="fill:#e12b21" /><path
         d="m 66.3,86.59 c -1.67,2.77 -4.07,3.58 -6.72,2.12 -0.65,-0.37 -1.51,-0.57 -1.98,-1.05 -0.66,-0.67 -0.76,-1.35 -1.04,-2.2 -0.3,-0.91 -0.75,-2 -0.52,-3.07 0.45,-2.01 1.62,-3.76 3.1,-4.74 1.2,-0.8 2.61,-1.06 3.92,-0.74 4.47,1.1 5.51,5.92 3.24,9.68 z"
         id="path4605"
         inkscape:connector-curvature="0"
         style="fill:#fa756e" /><path
         d="m 68.2,84.85 c -0.15,1.05 -0.7,1.5 -1.18,2.29 -0.28,0.46 -0.39,1.38 -0.77,1.73 -0.52,0.48 -1.1,0.34 -1.78,0.56 -0.71,0.22 -1.55,0.79 -2.4,0.67 -0.62,-0.09 -1,-0.58 -1.58,-0.91 -0.64,-0.35 -1.47,-0.55 -1.93,-1.01 -0.64,-0.65 -0.73,-1.31 -1.01,-2.14 -0.29,-0.88 -0.73,-1.95 -0.5,-2.99 0.43,-1.95 1.57,-3.65 3,-4.6 1.18,-0.78 2.55,-1.03 3.82,-0.72 0.81,0.2 1.28,0.86 1.97,1.35 0.62,0.42 1.48,0.63 1.85,1.3 0.2,0.35 0.18,0.86 0.28,1.28 0.24,1.02 0.4,2.07 0.23,3.19 z"
         id="path4607"
         inkscape:connector-curvature="0"
         style="fill:#e12b21" /><path
         d="m 65.38,86.17 c 0.48,1.37 2.12,3.43 3.75,3.97 0.27,0.09 -3.79,2.31 -5.38,2.71 -3.11,0.77 -0.82,-1.79 -0.99,-2.64 -0.31,-1.55 0,-3.03 -0.74,-3.72 -0.19,-0.18 -0.49,-0.16 -0.65,-0.33 -0.21,-0.2 -0.17,-0.49 -0.3,-0.74 -0.22,-0.46 -0.5,-0.94 -0.37,-1.52 0.12,-0.53 0.6,-0.8 0.94,-1.14 0.21,-0.21 0.24,-0.54 0.48,-0.7 0.28,-0.19 0.55,-0.36 0.83,-0.46 0.25,-0.08 0.5,-0.12 0.77,-0.05 0.32,0.08 0.32,0.63 0.61,0.81 0.31,0.2 0.85,-0.23 1.07,0.36 0.12,0.3 -0.24,0.71 0.03,0.95 1.02,0.91 0,0.87 0.04,1.4 0.04,0.58 -0.25,0.64 -0.09,1.1 z"
         id="path4609"
         inkscape:connector-curvature="0"
         style="fill:#a2170c" /></g><path
       d="M 70.48,96.81 C 70.17,95.8 70.19,94.8 69.63,93.6 68.4,90.69 64.51,86.71 64.06,83.98 l -0.96,0.06 c -0.52,0.25 -0.17,0.2 -0.42,0.75 l 0.75,-0.07 c 0.51,3.27 2.16,4.36 3.4,6.28 4.41,6.79 1.49,5.77 2.14,8.48 0,0 0.41,0.05 0.55,0.19 0.78,-1.46 0.87,-1.24 0.96,-2.86 z"
       id="path4612"
       inkscape:connector-curvature="0"
       style="fill:#60964c" /><path
       d="m 19.36,58.32 c 3.06,0.91 6.82,1.45 9.79,-0.63 0.37,-0.26 0.46,-0.3 0.78,-0.5 2.5,-1.58 5.4,-5.6 5.13,-7.1 -2.87,1.92 -0.56,2.08 -6.21,3.81 -6.1,1.87 -16.21,-4.47 -15.79,-14.38 -5.43,5.64 -0.34,16.84 6.3,18.8 z"
       id="path4614"
       inkscape:connector-curvature="0"
       style="fill:#899094" /><g
       id="_1377876096"><path
         d="m 24.49,36.01 -1.25,-0.58 c 0.4,-1.11 0.36,-0.86 0.12,-1.92 -3.85,-0.89 -4.65,-0.87 -7.75,1.49 l 0.01,1.84 c 4.81,-2.87 1.42,-3.67 7.02,-0.91 -2.17,0.27 -1.7,-0.21 -3.46,1.65 -1.76,1.85 -2.89,6.91 -2.79,8.09 0.16,1.67 -0.74,-0.99 0.69,1.47 0.4,0.69 -0.57,-0.21 0.39,0.5 0.29,0.21 1.09,0.61 1.43,0.8 -0.23,0.24 -0.66,0.55 -0.72,0.61 -0.46,0.4 -0.14,-0.23 -0.44,0.44 4.34,2.42 3.84,3.58 8.71,3.14 3.9,-0.35 2.64,-1.06 5.41,-2.19 1.61,-0.65 -0.88,0.99 0.47,-0.16 0.89,-1.04 2.48,-3.48 2.74,-4.88 l 0.29,-1.76 c 0.52,-2.43 0.78,-4.26 0,-6.45 -0.84,-2.35 -3.21,-4.56 -5.66,-2.81 -1.92,1.37 -0.93,1.16 -3.03,1.82 -0.07,0.02 -0.16,0.05 -0.22,0.07 -1.37,0.45 -0.72,0.41 -3.04,0.04 0.22,-0.07 0.56,-0.21 1.08,-0.3 z"
         id="path4616"
         inkscape:connector-curvature="0"
         style="fill:#e12b21" /><path
         d="m 27.49,32.44 c -1.11,0.74 -1.39,0.57 -2.58,0.73 -0.24,2.2 1,1.68 0.29,2.34 -0.67,0.7 0.2,0.41 -0.71,0.5 -0.52,0.09 -0.86,0.23 -1.08,0.3 2.32,0.37 1.67,0.41 3.04,-0.04 0.06,-0.02 0.15,-0.05 0.22,-0.07 2.1,-0.66 1.11,-0.45 3.03,-1.82 2.45,-1.75 4.82,0.46 5.66,2.81 0.78,2.19 0.52,4.02 0,6.45 l -0.29,1.76 c -0.26,1.4 -1.85,3.84 -2.74,4.88 -1.35,1.15 1.14,-0.49 -0.47,0.16 -2.77,1.13 -1.51,1.84 -5.41,2.19 -4.87,0.44 -4.37,-0.72 -8.71,-3.14 0.3,-0.67 -0.02,-0.04 0.44,-0.44 0.06,-0.06 0.49,-0.37 0.72,-0.61 -0.34,-0.19 -1.14,-0.59 -1.43,-0.8 -0.96,-0.71 0.01,0.19 -0.39,-0.5 -1.43,-2.46 -0.53,0.2 -0.69,-1.47 -0.1,-1.18 1.03,-6.24 2.79,-8.09 1.76,-1.86 1.29,-1.38 3.46,-1.65 -5.6,-2.76 -2.21,-1.96 -7.02,0.91 L 15.61,35 14.53,36.16 c -5.19,8.46 1.25,18.03 7.48,19.36 5.78,1.24 3.84,-0.03 7.28,-0.31 2.15,-1.25 3.96,-2.12 5.75,-4.91 2.44,-4.89 2.81,-8.01 1.55,-12.07 -2.37,-7.66 -7.77,-5.67 -9.1,-5.79 z"
         id="path4618"
         inkscape:connector-curvature="0"
         style="fill:#a2170c" /><path
         d="m 21.42,13.08 c -0.14,1.68 -0.43,2.97 -0.32,5.1 0.33,6.86 3.42,13.17 2.36,15.28 0.2,1.07 0.25,0.83 -0.19,1.92 L 24.5,36 c 0.92,-0.05 0.04,0.2 0.73,-0.47 L 24.41,35.1 c 0.66,-4.2 -1.15,-7.63 -1.85,-11.21 -0.31,-1.61 -1.68,-9.44 0.71,-11.61 0.84,-1.06 1.49,-2.37 1.5,-2.46 0,0 -0.05,-0.21 -0.17,-0.5 -1.67,1.4 -1.97,1.13 -2.75,2.82 -0.14,0.31 -0.28,0.62 -0.43,0.94 z"
         id="path4620"
         inkscape:connector-curvature="0"
         style="fill:#3c7924" /></g><path
       d="m 35.97,103.36 c 2.83,-0.62 5.99,-2.55 7.61,-4.95 3.55,-5.27 1.55,-17.5 -7.91,-18.42 2.5,2.9 4.14,4.13 4.09,10.05 -0.05,6.37 -5.68,12.6 -15.01,9.22 0.28,1.12 -0.09,0.31 0.69,1.33 1.57,2.05 7.93,3.35 10.53,2.77 z"
       id="path4623"
       inkscape:connector-curvature="0"
       style="fill:#899094" /><g
       id="_1377876832"><path
         d="m 23.07,98.55 c -2.5,-2.24 -4.06,-4.93 -4.5,-7.66 -0.47,-2.86 0.31,-5.78 2.56,-8.28 1.75,-1.95 4.61,-3.24 7.04,-3.7 3.66,-0.69 7.3,0.17 10.15,3.15 5,5.21 5.57,13.22 1.3,17.15 -2.3,2.12 -5.37,3.68 -8.58,3.41 -2.75,-0.23 -5.62,-1.96 -7.97,-4.07 z"
         id="path4625"
         inkscape:connector-curvature="0"
         style="fill:#a2170c" /><path
         d="m 23.54,96.67 c -1.14,-1.03 -1.23,-2.04 -1.8,-3.25 -0.33,-0.7 -1.34,-1.57 -1.45,-2.3 -0.17,-1.01 0.46,-1.59 0.74,-2.58 0.3,-1.04 0.28,-2.49 1.11,-3.41 0.6,-0.67 1.49,-0.73 2.34,-1.17 0.93,-0.49 1.84,-1.33 2.76,-1.51 1.28,-0.24 2.15,0.17 3.36,0.5 1.29,0.36 2.92,0.67 3.99,1.78 1.99,2.07 3.12,4.8 3.12,7.27 0,2.02 -0.79,3.87 -2.18,5.15 -0.89,0.81 -2.06,0.84 -3.19,1.29 -1,0.39 -1.94,1.26 -3.02,1.17 -0.58,-0.04 -1.19,-0.48 -1.77,-0.69 -1.42,-0.52 -2.8,-1.17 -4.01,-2.25 z"
         id="path4627"
         inkscape:connector-curvature="0"
         style="fill:#e12b21" /><path
         d="m 24,92.45 c -1.43,-3.02 -0.75,-5.55 2.03,-6.99 0.69,-0.36 1.36,-0.98 2.04,-1.11 0.95,-0.19 1.59,0.12 2.49,0.36 0.95,0.26 2.15,0.5 2.94,1.32 1.47,1.53 2.31,3.54 2.31,5.37 0,1.5 -0.59,2.86 -1.61,3.81 -3.5,3.22 -8.25,1.35 -10.2,-2.76 z"
         id="path4629"
         inkscape:connector-curvature="0"
         style="fill:#fa756e" /><path
         d="m 24.41,95.09 c -0.81,-0.73 -0.88,-1.46 -1.29,-2.33 -0.24,-0.51 -0.96,-1.13 -1.05,-1.65 -0.11,-0.73 0.33,-1.14 0.54,-1.86 0.21,-0.74 0.2,-1.79 0.8,-2.45 0.43,-0.48 1.07,-0.52 1.68,-0.84 0.67,-0.35 1.32,-0.96 1.98,-1.08 0.92,-0.18 1.55,0.12 2.42,0.36 0.92,0.25 2.1,0.48 2.86,1.27 1.43,1.49 2.25,3.45 2.25,5.23 0,1.45 -0.57,2.78 -1.57,3.7 -0.64,0.58 -1.48,0.6 -2.29,0.93 -0.72,0.28 -1.39,0.91 -2.18,0.84 -0.41,-0.03 -0.85,-0.34 -1.27,-0.5 -1.02,-0.37 -2.01,-0.84 -2.88,-1.62 z"
         id="path4631"
         inkscape:connector-curvature="0"
         style="fill:#e12b21" /><path
         d="m 25.93,92.93 c -1.54,1.07 -2.86,1.99 -4,2.33 -0.67,0.2 -1.09,-1.77 -0.49,-2 1.14,-0.44 1.46,-0.23 3.46,-1.6 0.11,-0.08 0.16,-0.15 0.26,-0.5 0.08,-0.28 0.16,-0.56 0.2,-0.85 C 25.4,90 21.45,88.6 19.73,89.96 19.5,90.14 20.81,86.99 21,86.78 c 0.23,-0.26 4.08,2.4 5.72,2 0.25,-0.06 0.41,-0.33 0.65,-0.37 0.29,-0.06 0.52,0.13 0.81,0.17 0.52,0.07 1.1,0.11 1.52,0.55 0.39,0.41 0.34,0.97 0.44,1.46 0.06,0.3 0.33,0.52 0.33,0.82 0,0.34 -0.01,0.68 -0.08,0.98 -0.07,0.26 -0.19,0.5 -0.39,0.68 -0.25,0.24 -0.73,-0.08 -1.05,0.06 -0.35,0.16 -0.29,0.88 -0.92,0.73 -0.33,-0.08 -0.31,-0.4 -0.63,-0.58 -0.3,-0.16 -0.91,-0.74 -1.47,-0.35 z"
         id="path4633"
         inkscape:connector-curvature="0"
         style="fill:#a2170c" /></g><path
       d="M 8.11,86.08 C 7.64,87.31 7.34,88.53 7.03,89.94 6.79,91 6.71,91.81 6.82,92.75 l 0.4,2.01 c 0.1,0.62 0.07,0.21 0.02,0.42 1.59,-0.69 2.64,-1.42 4.67,-2.01 6.19,-1.79 12.8,-0.7 14.32,-2.39 1.01,-0.13 0.81,-0.01 1.63,-0.78 l 0.96,1.02 c 0.26,0.92 0.19,-0.03 -0.17,0.86 L 28,91.21 c -3.5,1.94 -7.14,1.22 -10.54,1.64 -1.53,0.19 -8.91,1.26 -10.04,4.28 -0.66,1.15 -1.61,2.19 -1.68,2.23 0,0 -1,0.1 -1.78,-0.51 2.9,-4.15 1.6,-3.23 2.23,-7.47 0.29,-2.01 0.91,-3.64 1.52,-5.43 0.13,0.05 0.27,0.09 0.4,0.13 z"
       id="path4636"
       inkscape:connector-curvature="0"
       style="fill:#58a13b" /></g><g
     inkscape:groupmode="layer"
     id="layer2"
     inkscape:label="Layer 2"
     style="display:inline"
     transform="translate(43.020554,0.28782366)"><g
       style="clip-rule:evenodd;fill-rule:evenodd;image-rendering:optimizeQuality;shape-rendering:geometricPrecision;text-rendering:geometricPrecision"
       id="g4691"
       transform="translate(-43.022369,98.155775)"><g
         id="Слой_x0020_1-2"><metadata
           id="CorelCorpID_0Corel-Layer-8" /><path
           id="path4662"
           d="m 14.5,23.84 c 9.74,-2.1 10.17,-11.82 6.05,-18.32 -1.73,3 0.28,6.39 -4.02,10.45 C 11.89,20.35 4.16,19.73 0.14,10.65 -0.4,19.56 7.67,25.02 14.5,23.84 Z"
           inkscape:connector-curvature="0"
           style="fill:#899094;fill-opacity:0.54901997" /><path
           id="path4664"
           d="m 10.9,-0.33 c 3.02,0 5.59,1.81 7.54,3.37 2.03,1.65 3.27,4.08 3.27,7.11 0,2.36 -1.15,4.95 -2.5,6.72 -2.04,2.68 -5,4.29 -8.71,4.01 C 4,20.4 -0.46,14.21 0.04,9 0.3,6.19 1.58,3.82 3.9,2.06 c 1.98,-1.5 4.14,-2.39 7,-2.39 z"
           inkscape:connector-curvature="0"
           style="fill:#a2170c" /><path
           id="path4666"
           d="M 2.71,11.58 C 2.33,10.25 2.74,9.43 2.89,8.23 2.97,7.53 2.94,6.72 3.2,6.1 3.56,5.25 3.99,4.78 4.69,4.16 5.41,3.51 6.24,2.79 7.32,2.49 8.1,2.26 8.66,2.25 9.52,2.31 c 0.94,0.08 2.04,-0.13 2.83,0.18 1.1,0.43 1.56,1.16 2.33,1.99 0.82,0.89 1.91,1.91 2.19,3.27 0.53,2.54 0.09,5.16 -1.1,7.05 -0.97,1.55 -2.46,2.58 -4.13,2.89 C 10.57,17.89 9.66,17.35 8.58,17.15 7.63,16.97 6.5,17.19 5.71,16.6 5.29,16.28 5.03,15.66 4.69,15.22 3.86,14.14 3.11,12.99 2.71,11.58 Z"
           inkscape:connector-curvature="0"
           style="fill:#e12b21" /><path
           id="path4668"
           d="m 5.08,8.58 c 0.36,-3 2.09,-4.61 4.9,-4.38 0.7,0.06 1.51,-0.1 2.09,0.13 0.82,0.32 1.16,0.86 1.73,1.48 0.6,0.65 1.41,1.41 1.62,2.41 0.39,1.88 0.06,3.82 -0.81,5.21 -0.72,1.15 -1.82,1.91 -3.06,2.14 C 7.33,16.35 4.6,12.65 5.08,8.58 Z"
           inkscape:connector-curvature="0"
           style="fill:#fa756e" /><path
           id="path4670"
           d="M 4.13,10.79 C 3.86,9.84 4.15,9.25 4.26,8.39 4.32,7.89 4.06,7.06 4.25,6.63 4.51,6.01 5.05,5.91 5.55,5.46 6.07,5 6.56,4.19 7.34,3.97 7.9,3.81 8.41,4.08 9.03,4.13 c 0.67,0.06 1.46,-0.09 2.03,0.13 0.79,0.31 1.12,0.83 1.68,1.43 0.58,0.64 1.37,1.38 1.57,2.35 0.38,1.83 0.06,3.71 -0.79,5.07 -0.7,1.11 -1.77,1.85 -2.97,2.08 C 9.78,15.33 9.13,14.94 8.35,14.8 7.67,14.67 6.85,14.83 6.28,14.4 5.98,14.17 5.8,13.73 5.55,13.41 4.95,12.64 4.42,11.8 4.13,10.79 Z"
           inkscape:connector-curvature="0"
           style="fill:#e12b21" /><path
           id="path4672"
           d="M 6.03,8.59 C 5.1,7.6 2.91,6.48 1.31,6.65 1.05,6.68 3.65,3.23 4.85,2.28 7.2,0.42 6.23,3.48 6.71,4.14 7.57,5.34 7.87,6.72 8.77,7.02 8.99,7.1 9.24,6.97 9.44,7.05 9.7,7.15 9.78,7.4 9.98,7.57 c 0.37,0.31 0.79,0.61 0.9,1.15 0.1,0.5 -0.21,0.91 -0.37,1.33 -0.09,0.26 0.01,0.55 -0.13,0.78 -0.17,0.26 -0.34,0.52 -0.54,0.71 C 9.67,11.71 9.46,11.83 9.21,11.88 8.91,11.93 8.69,11.46 8.38,11.42 8.04,11.37 7.75,11.95 7.33,11.53 7.12,11.32 7.27,10.83 6.95,10.73 5.72,10.35 6.61,9.99 6.37,9.56 6.11,9.08 6.34,8.92 6.03,8.59 Z"
           inkscape:connector-curvature="0"
           style="fill:#a2170c" /></g></g></g><g
     inkscape:groupmode="layer"
     id="layer3"
     inkscape:label="Layer 3"
     style="display:inline"
     transform="translate(43.020554,0.28782366)"><g
       style="clip-rule:evenodd;fill-rule:evenodd;image-rendering:optimizeQuality;shape-rendering:geometricPrecision;text-rendering:geometricPrecision"
       id="g4717"
       transform="translate(136.54671,126.46885)"><g
         id="Слой_x0020_1-5"><metadata
           id="CorelCorpID_0Corel-Layer-4" /><path
           id="path4694"
           d="M 17.47,46.86 C 26.56,44.71 29.14,35.23 24.62,28.13 22.67,31.12 24.05,34.18 19.17,38.24 13.92,42.61 5.16,42 0.6,32.92 c -0.61,8.9 9.14,15.12 16.87,13.94 z"
           inkscape:connector-curvature="0"
           style="fill:#899094;fill-opacity:0.54901997" /><path
           id="path4696"
           d="m 15.03,24.12 -0.85,-1.09 c 0.86,-0.81 0.71,-0.6 0.98,-1.66 -3.03,-2.54 -3.75,-2.89 -7.58,-2.18 l -0.84,1.64 c 5.6,-0.38 2.94,-2.63 6.68,2.37 -2.06,-0.74 -1.42,-0.95 -3.84,-0.1 -2.4,0.85 -5.7,4.85 -6.14,5.96 -0.62,1.56 -0.22,-1.23 -0.06,1.62 0.05,0.8 -0.41,-0.44 0.13,0.62 0.16,0.32 0.69,1.04 0.91,1.36 -0.32,0.11 -0.84,0.2 -0.92,0.22 -0.59,0.15 -0.02,-0.28 -0.59,0.19 2.77,4.12 1.8,4.94 6.34,6.75 3.64,1.45 2.83,0.25 5.82,0.5 1.73,0.15 -1.24,0.48 0.49,0.07 1.26,-0.53 3.79,-1.98 4.66,-3.11 l 1.05,-1.44 c 1.56,-1.93 2.63,-3.44 2.92,-5.74 0.32,-2.48 -0.8,-5.53 -3.77,-5.08 -2.34,0.35 -1.36,0.61 -3.53,0.25 -0.07,-0.01 -0.16,-0.02 -0.23,-0.03 -1.42,-0.23 -0.83,0.03 -2.72,-1.35 0.22,0.04 0.59,0.07 1.09,0.23 z"
           inkscape:connector-curvature="0"
           style="fill:#e12b21" /><path
           id="path4698"
           d="m 19.32,22.29 c -1.32,0.16 -1.5,-0.12 -2.62,-0.52 -1.21,1.85 0.12,1.95 -0.8,2.22 -0.92,0.32 -0.01,0.46 -0.87,0.13 -0.5,-0.16 -0.87,-0.19 -1.09,-0.23 1.89,1.38 1.3,1.12 2.72,1.35 0.07,0.01 0.16,0.02 0.23,0.03 2.17,0.36 1.19,0.1 3.53,-0.25 2.97,-0.45 4.09,2.6 3.77,5.08 -0.29,2.3 -1.36,3.81 -2.92,5.74 l -1.05,1.44 c -0.87,1.13 -3.4,2.58 -4.66,3.11 -1.73,0.41 1.24,0.08 -0.49,-0.07 -2.99,-0.25 -2.18,0.95 -5.82,-0.5 C 4.71,38.01 5.68,37.19 2.91,33.07 3.48,32.6 2.91,33.03 3.5,32.88 3.58,32.86 4.1,32.77 4.42,32.66 4.2,32.34 3.67,31.62 3.51,31.3 2.97,30.24 3.43,31.48 3.38,30.68 3.22,27.83 2.82,30.62 3.44,29.06 3.88,27.95 7.18,23.95 9.58,23.1 12,22.25 11.36,22.46 13.42,23.2 9.68,18.2 12.34,20.45 6.74,20.83 l 0.84,-1.64 -1.5,0.54 c -8.46,5.19 -7.05,16.64 -2.1,20.65 4.6,3.73 3.43,1.72 6.63,3.03 2.48,-0.15 4.49,-0.1 7.35,-1.77 4.4,-3.26 6.14,-5.88 6.86,-10.06 1.36,-7.91 -4.37,-8.58 -5.5,-9.29 z"
           inkscape:connector-curvature="0"
           style="fill:#a2170c" /><path
           id="path4700"
           d="m 22.69,2.28 c -0.89,1.44 -1.73,2.46 -2.6,4.39 -2.81,6.28 -2.92,13.3 -4.82,14.71 -0.3,1.04 -0.15,0.84 -1.04,1.62 l 0.82,1.11 c 0.84,0.37 -0.06,0.2 0.86,-0.09 l -0.53,-0.75 c 2.49,-3.45 2.43,-7.33 3.43,-10.83 0.45,-1.58 2.78,-9.18 5.89,-10.03 1.23,-0.57 2.4,-1.45 2.45,-1.52 0,0 0.05,-0.21 0.07,-0.52 -2.12,0.49 -2.26,0.11 -3.72,1.27 -0.26,0.21 -0.53,0.42 -0.81,0.64 z"
           inkscape:connector-curvature="0"
           style="fill:#3c7924" /></g></g></g></svg>