<?xml version="1.0" encoding="UTF-8"?>
<!DOCTYPE svg PUBLIC "-//W3C//DTD SVG 1.1//EN" "http://www.w3.org/Graphics/SVG/1.1/DTD/svg11.dtd">
<!-- Creator: CorelDRAW 2017 -->
<svg xmlns="http://www.w3.org/2000/svg" xml:space="preserve" width="235px" height="235px" version="1.1" shape-rendering="geometricPrecision" text-rendering="geometricPrecision" image-rendering="optimizeQuality" fill-rule="evenodd" clip-rule="evenodd"
viewBox="0 0 235 235"
 xmlns:xlink="http://www.w3.org/1999/xlink">
 <g id="Слой_x0020_1">
  <metadata id="CorelCorpID_0Corel-Layer"/>
  <path fill="#E3E8ED" d="M48.94 138.7c-0.95,-2.98 -3.57,-16.32 -3.29,-19.3 0.64,-6.84 0.54,-9.02 1.71,-16.63l7.87 -19.91c1.59,-3.39 4.97,-7.43 7.8,-9.87 0.9,-0.78 0.23,-0.04 0.91,-1.19 1.37,-2.35 3.78,-3.75 5.81,-5.66l0.36 -0.35c3.39,-2.95 7.11,-5.36 10.97,-7.41 7.64,-4.05 18.25,-8.43 27.24,-9.3 1.15,-0.11 1.74,0.06 2.64,-0.05 1.28,-0.15 1.77,-0.32 2.93,-0.38l5.5 -0.41c0.73,0.03 0.52,0.15 1.11,0.29l3.76 0.2c0.07,0.02 0.17,0.04 0.24,0.05 0.61,0.13 0.58,0.21 1.27,0.23 0.69,0.02 0.86,-0.12 1.41,-0.08 0.85,0.05 4.45,1.31 7.66,0.67 1.72,-0.35 5.85,0.58 7.08,1.25l3.42 0.97c0.07,0.03 0.17,0.06 0.23,0.08l3.03 1.46c1.38,0.74 2.83,1.29 4.37,2.08l7.94 5.2c9.74,7.42 17.65,16.57 22.6,28.38 3.69,8.82 4.98,15.33 5.76,23.98 0.55,6.14 -0.09,14.63 -1.54,20.36 -1.59,6.31 -3.67,12.01 -6.48,17.99l-9.3 13.96c-1.64,1.81 -3.77,3.66 -5.22,5.55 -1,1.3 -2.47,1.97 -3.73,2.97l-0.75 0.74c-0.93,1.08 -1.7,1.4 -3.35,2.6 -2.93,2.13 -6.29,3.83 -9.38,5.81 -4.55,2.91 -21.21,7.05 -27.29,7.36 -1.43,0.08 -1.09,-0.17 -2.29,-0.19 -1.15,-0.02 -1.89,0.18 -2.92,0.26 -1.16,0.09 -1.67,-0.08 -2.68,-0.03l-4.96 -0.42c-0.98,-0.12 -1.93,0.03 -2.73,-0.08l-6 -1.49c-0.07,-0.02 -0.16,-0.04 -0.23,-0.06l-4.34 -0.69c-0.08,-0.01 -0.18,-0.02 -0.26,-0.02 -1.56,-0.13 -3.19,-0.86 -4.62,-1.62l-1.9 -1.08c-0.56,-0.17 -0.58,-0.08 -1.18,-0.36l-13.93 -9.07c-1.39,-1.11 -2.5,-2.2 -3.78,-3.25 -9.79,-8.05 -17.55,-21.21 -21.47,-33.54zm24.13 -124.78c-3.91,1.61 -7.67,3.26 -11.2,5.36 -4.99,2.97 -9.82,6.28 -14.42,9.96l-6.8 5.77c-0.47,0.38 -0.92,0.66 -1.28,0.98 -2.44,2.19 -4.85,5.12 -6.98,7.55 -0.54,0.61 -1.08,1.27 -1.62,1.89l-3.09 3.86c-0.52,0.64 -1.27,1.57 -1.67,2.12l-7.24 11.27c-2.19,3.64 -5.58,11.55 -6.92,15.21l-1.62 4.62c-0.47,1.53 -0.95,3.45 -1.55,4.96 -0.18,0.45 -0.26,0.71 -0.37,1.13 -0.72,2.93 -2.17,8.47 -2.37,11.3 -0.55,7.38 -1.54,9.35 -1.45,19.17 0,0.09 0,0.19 0,0.28l0.11 5.47c0.05,0.55 0.17,1.2 0.2,1.49l0.32 4.49c0.22,1.25 0.38,1.87 0.48,3.04 0.56,6.59 3.12,17.06 5.6,22.27 0.95,2 1.3,4.35 2.25,6.25 0.29,0.57 1.06,1.94 1.38,2.67l4.18 8.2c0.92,1.54 1.86,3.4 3.03,5.21 0.63,0.97 -0.16,-0.24 0.77,1.04 8.45,11.68 7.75,10.89 16.46,19.93 1.25,1.3 2.58,2.41 3.87,3.56 0.69,0.61 1.14,0.95 1.9,1.59 0.78,0.66 1.33,1.2 2.08,1.79 0.64,0.52 1.27,0.95 1.96,1.46 4.79,3.49 9.69,6.83 14.97,9.56 4.47,2.31 8.93,4.6 13.68,6.23l9.54 3.16c0.62,0.16 0.66,0.12 1.23,0.27l8.76 2.05c0.84,0.14 1.7,0.14 2.58,0.28l7.38 1.04c0.94,0.14 0.19,0.06 0.74,0.14 0.73,0.1 0.41,0.05 1.29,0.08 3.8,0.17 11.89,0.49 15.44,0.17 2.24,-0.2 3.81,-0.42 6.04,-0.55 2.14,-0.12 3.59,-0.32 5.85,-0.91 4.25,-1.12 8.46,-1.63 13.05,-3.09 8.2,-2.61 16.7,-5.5 23.87,-9.95 1.1,-0.68 1.54,-1.06 2.34,-1.53l9.42 -6.28c3.72,-2.89 7.33,-5.67 10.7,-8.92l3.47 -3.64c3.15,-3.57 5.23,-5.47 8.22,-9.66 1.93,-2.68 4.1,-5.31 5.82,-8.18l10.04 -20.43c1.92,-5.65 3.64,-11.08 4.84,-16.87 0.18,-0.88 0.42,-1.73 0.57,-2.68l1.33 -9.96c0.02,-0.24 0.09,-0.65 0.11,-0.77 0.21,-1.64 0.52,-3.21 0.47,-5.17l-0.27 -11.62c-0.06,-2.07 -0.14,-3.75 -0.45,-5.92l-0.23 -2.85c-0.12,-0.95 -0.6,-2.56 -0.69,-3.09 -0.34,-2.06 -0.53,-4.41 -1.08,-6.22 -1.77,-5.76 -2.84,-10.44 -5.2,-16.35 -0.46,-1.17 -0.61,-1.78 -1.16,-2.94 -1.03,-2.15 -1.73,-4.26 -2.66,-5.94l-5.96 -10.09c-0.4,-0.63 -0.98,-1.54 -1.52,-2.3 -1.94,-2.72 -3.5,-5.39 -5.73,-7.87 -0.5,-0.55 -0.5,-0.54 -0.87,-0.99l-9.06 -9.88c-3.98,-3.45 -7.72,-6.91 -12.02,-9.97 -6.33,-4.52 -14.35,-9.64 -21.72,-12.29 -5.87,-2.11 -10.28,-4.12 -16.7,-5.68l-10.66 -2.08c-3.45,-0.59 -6.86,-1.09 -10.31,-1.1 -1.39,0 -1.42,-0.31 -4.78,-0.25 -4.14,0.07 -8.08,-0.01 -12.22,0.47 -2.85,0.25 -6.13,0.34 -8.89,0.89l-6.4 1.35c-7.14,2.04 -12.36,3.65 -19.18,6.44z"/>
  <path fill="#F7F9FB" d="M48.21 139.61c5.54,15.97 11.88,26.28 25.1,37.17 29.42,21.67 71.32,18.72 98.64,-11.47 7.83,-11.76 12.2,-17.75 15.78,-31.95 1.45,-5.73 2.09,-14.22 1.54,-20.36 -0.78,-8.65 -2.07,-15.16 -5.76,-23.98 -4.95,-11.81 -12.86,-20.96 -22.6,-28.38 -26.68,-18.8 -53.07,-16.45 -79.83,-2.26 -7.21,3.82 -21.33,14.53 -25.85,24.48 -10.21,19.76 -13.22,35.13 -7.02,56.75z"/>
  <path fill="#DAE4D8" d="M79.5 11.55c0,0 -0.09,-0.3 1.16,-0.76 3.79,-1.4 7.79,-2.23 11.59,-3.31l6.4 -1.35c0.77,-0.15 0.74,-0.2 1.41,-0.23l7.48 -0.66c3.91,-0.45 7.94,-0.46 11.94,-0.47 0.09,0 0.18,0 0.28,0 3.36,-0.06 3.39,0.25 4.78,0.25 3.45,0.01 6.86,0.51 10.31,1.1l10.66 2.08c6.42,1.56 10.83,3.57 16.7,5.68 7.37,2.65 15.39,7.77 21.72,12.29 4.3,3.06 8.04,6.52 12.02,9.97l9.06 9.88c0.37,0.45 0.37,0.44 0.87,0.99 2.23,2.48 3.79,5.15 5.73,7.87 0.54,0.76 1.12,1.67 1.52,2.3l5.96 10.09c0.93,1.68 1.62,3.79 2.66,5.94 0.55,1.16 0.7,1.77 1.16,2.94 2.36,5.91 3.43,10.59 5.2,16.35 0.55,1.81 0.74,4.16 1.08,6.22 0.09,0.53 0.57,2.14 0.69,3.09l0.23 2.85c0.31,2.17 0.39,3.85 0.45,5.92l0.27 11.62c0.05,1.96 -0.26,3.53 -0.47,5.17 -0.02,0.12 -0.09,0.53 -0.11,0.77l-1.33 9.96c-0.15,0.95 -0.39,1.8 -0.57,2.68 -1.2,5.79 -2.92,11.22 -4.84,16.87l-10.04 20.43c-1.72,2.87 -3.89,5.5 -5.82,8.18 -2.99,4.19 -5.07,6.08 -8.22,9.66l-3.47 3.64c-3.37,3.25 -6.98,6.03 -10.7,8.92l-9.42 6.28c-0.8,0.47 -1.24,0.85 -2.34,1.53 -7.17,4.45 -15.67,7.34 -23.87,9.95 -4.59,1.46 -8.8,1.97 -13.05,3.09 -2.26,0.59 -3.71,0.79 -5.85,0.91 -2.23,0.13 -3.8,0.35 -6.04,0.55 -3.55,0.32 -11.64,0 -15.44,-0.17 -0.88,-0.03 -0.56,0.02 -1.29,-0.08 -0.55,-0.08 0.2,0 -0.74,-0.14l-7.38 -1.04c-0.88,-0.14 -1.74,-0.14 -2.58,-0.28l-8.76 -2.05c-0.57,-0.15 -0.61,-0.11 -1.23,-0.27l-9.55 -3.16c-4.74,-1.63 -9.2,-3.92 -13.67,-6.23 -5.28,-2.73 -10.18,-6.07 -14.97,-9.56 -0.69,-0.51 -1.32,-0.94 -1.96,-1.46 -0.75,-0.59 -1.3,-1.13 -2.08,-1.79 -0.76,-0.64 -1.21,-0.98 -1.89,-1.59 -1.3,-1.15 -2.63,-2.26 -3.88,-3.56 -8.71,-9.04 -8.01,-8.25 -16.46,-19.93 -0.93,-1.28 -0.14,-0.07 -0.77,-1.04 -1.17,-1.81 -2.11,-3.67 -3.03,-5.21l-4.18 -8.2c-0.32,-0.73 -1.09,-2.1 -1.38,-2.67 -0.95,-1.9 -1.3,-4.25 -2.25,-6.25 -2.48,-5.21 -5.04,-15.68 -5.6,-22.27 -0.1,-1.17 -0.26,-1.79 -0.48,-3.04l-0.32 -4.49c-0.03,-0.29 -0.15,-0.94 -0.2,-1.49l-0.11 -5.47c0,-0.09 0,-0.19 0,-0.28 -0.09,-9.82 0.9,-11.79 1.45,-19.17 0.2,-2.83 1.65,-8.37 2.37,-11.3 0.11,-0.42 0.19,-0.68 0.37,-1.13 0.6,-1.51 1.08,-3.44 1.55,-4.96l1.62 -4.62c1.34,-3.67 4.73,-11.57 6.91,-15.21l7.25 -11.27c0.4,-0.55 1.15,-1.48 1.67,-2.12l3.09 -3.86c0.54,-0.62 1.08,-1.28 1.62,-1.89 2.13,-2.43 4.54,-5.36 6.98,-7.55 0.36,-0.32 0.81,-0.6 1.28,-0.98l6.8 -5.77c4.6,-3.68 9.43,-6.99 14.42,-9.96 3.53,-2.1 7.29,-3.75 11.2,-5.36 0.68,-0.28 6.1,-2.18 6.43,-2.37zm-69.8 57.54c-0.15,1.34 -0.3,1.58 -0.95,2.87l-4.37 12.77c-0.26,1.36 0.04,0.09 -0.4,1.42 -0.65,1.95 -0.2,2.38 -1.39,3.66 0.14,1.03 -0.82,5.42 -1.12,7.35l-0.71 2.47c0.27,1.75 -0.38,4.71 -0.47,6.98 -0.11,2.6 -0.24,4.89 -0.29,7.54 -0.03,1.52 0.43,15.07 0.36,15.18 0.61,2.2 0.75,5.18 1.19,7.78 6.31,37.06 28.68,66.82 60.89,84.41 28.55,15.58 71.99,20.48 111.28,-0.71 69.27,-37.37 81.85,-130.3 27.3,-185.87 -0.98,-1 -4.25,-3.86 -4.78,-4.69 -1.27,-0.38 -9.02,-6.92 -10.33,-7.88 -3.92,-2.86 -6.77,-4.53 -10.66,-6.82 -12.5,-7.37 -28.15,-12.08 -42.48,-13.85 -7.36,-0.91 -6.93,-0.64 -13.84,-0.92 -1.52,-0.07 -2.11,0.37 -3.52,-0.05 -3.33,-0.99 -15.08,0.51 -18.49,1.09 -21.41,3.62 -40.84,13.42 -56.02,26.37 -9.93,8.47 -18.48,18.41 -25.12,29.64 -1.48,2.5 -4.87,9.72 -6.08,11.26z"/>
  <path fill="#3C7924" d="M105.21 95.01c0.05,0.06 0.13,0.07 0.16,0.17l1.3 1.05c1.86,1.14 5.9,2.33 5.95,3.05 0.12,1.79 1.06,5.75 1.86,7.39 1.28,-0.57 5.21,-5.15 11.29,0.66 3.22,3.07 4.48,6.12 4.73,11.84l0.56 -1.01 1.63 0.35c5.41,0.24 1.95,0.02 4.22,0.77 1.66,0.55 4.49,0.51 6.55,0.5 20.7,-0.13 13.45,-1.94 23.3,-4.24 2.19,-0.52 3.67,-0.92 6.24,-0.92 4.8,-0.01 4.22,0.2 3.81,-1.79l2.16 -0.35c-2.12,-1.51 -3.86,-2.23 -5.84,-4.16 -0.64,-0.62 -0.91,-1.23 -1.5,-1.89l-3.43 -3.26c-0.98,-1.25 -1.71,-2 -3.02,-3.35 -4.27,-4.4 -5.24,-4.14 -7.32,-5.79l-6.03 -3.69c-2.05,-1.25 -5.02,-2.13 -7.6,-2.58 -5.06,-0.9 -6.5,-0.4 -11.19,-0.53l-7.57 1.55c-2.15,1.1 0.54,-0.69 -3.18,1.14 -0.64,0.31 -0.38,0.15 -1.23,0.43 -6.75,2.26 -7.62,6.64 -8.49,7.67 -2.56,-0.71 -5.66,-2.79 -7.36,-3.01z"/>
  <path fill="#3C7924" d="M78.18 150.06l0.31 6.6c0.79,-0.44 1.14,-1.24 1.59,-1.82l12.18 -9.97c0.05,-0.05 0.12,-0.12 0.17,-0.17 3.98,-3.91 3.11,-3.39 6.47,-7.96 2.33,-3.16 3.42,-5.32 3.6,-9.51 0.06,-2.18 0.36,-0.59 0.21,-4.19l0.11 -4.32c-1.3,-2.07 -0.19,-0.6 -0.46,-2.45l-1.77 -4.9c-1.18,-2.46 -3.33,-8.36 -7.85,-8.89 0.33,-2.38 1.05,-4.11 2.01,-6.18 0.48,-1.03 0.91,-1.73 1.6,-2.4l1.6 -1.31c0.48,-0.43 0.19,-0.12 0.29,-0.33 0.89,1.73 1.3,3.09 2.61,5.05 4.02,5.98 10.21,9.97 10.4,12.44 0.76,0.85 0.67,0.6 0.87,1.82l1.44 -0.1c0.79,-0.55 0.14,0.16 0.4,-0.83l-0.97 0.07c-1.68,-4.13 -5.16,-6.23 -7.73,-9.07 -1.15,-1.27 -6.61,-7.56 -5.64,-10.8 1.06,0.16 0.35,0.05 1.28,1.06 1.05,1.14 2.76,2.77 4.31,3.11l-0.93 -1.12c-0.46,-0.43 -0.69,-0.61 -1.06,-0.95 -0.8,-0.71 -1.15,-0.9 -1.73,-1.91 -0.5,-0.87 -0.65,-2.13 -1.14,-2.91 -0.68,-1.07 -1.2,-0.58 -2.52,-1.2 -0.21,5.46 -0.71,3.75 -2.87,7.61 -1.43,2.56 -1.87,4.98 -3,7.82 -4.12,-0.06 -10.42,1.18 -12.62,5.09 -2.53,4.5 -3.95,7.13 -4.96,12.84 -0.65,3.63 -1.08,2.12 -1.09,7.64 0,6.97 -0.26,7.25 1.23,12.2 1.02,3.38 3.12,7.62 3.66,9.94z"/>
  <path fill="#E12B21" d="M113.56 111.47l-1.44 0.1c-0.2,-1.22 -0.11,-0.97 -0.87,-1.82 -3.98,1.14 -4.71,1.57 -6.33,5.31l0.94 1.69c2.94,-5.09 -0.58,-4.09 5.96,-4.42 -1.85,1.36 -1.66,0.68 -2.33,3.28 -0.67,2.59 0.88,7.8 1.58,8.83 0.99,1.45 -1.19,-0.53 1.38,0.99 0.72,0.43 -0.63,0.11 0.61,0.26 0.37,0.05 1.31,0 1.71,0.01 -0.09,0.33 -0.32,0.84 -0.34,0.92 -0.22,0.6 -0.25,-0.14 -0.19,0.63 5.22,0 5.35,1.32 9.59,-1.56 3.39,-2.32 1.87,-2.32 3.84,-4.77 1.14,-1.42 -0.31,1.35 0.34,-0.39 0.28,-1.4 0.5,-4.44 0.02,-5.87l-0.63 -1.75c-0.76,-2.49 -1.45,-4.3 -3.28,-5.91 -1.97,-1.72 -5.27,-2.53 -6.62,0.31 -1.06,2.24 -0.26,1.54 -1.85,3.22 -0.05,0.05 -0.11,0.12 -0.16,0.18 -1.03,1.1 -0.46,0.73 -2.77,1.57 0.17,-0.16 0.41,-0.47 0.84,-0.81z"/>
  <path fill="#B4C6B8" d="M78.18 150.06c-0.54,-2.32 -2.64,-6.56 -3.66,-9.94 -1.49,-4.95 -1.23,-5.23 -1.23,-12.2 0.01,-5.52 0.44,-4.01 1.09,-7.64 1.01,-5.71 2.43,-8.34 4.96,-12.84 2.2,-3.91 8.5,-5.15 12.62,-5.09 1.13,-2.84 1.57,-5.26 3,-7.82 2.16,-3.86 2.66,-2.15 2.87,-7.61 -0.29,0.43 -0.11,0.11 -0.29,0.79 -1.2,4.51 -0.56,2.34 -3.36,5.7l-2.76 3.59c-2.27,4.34 -1.52,3.37 -5.53,4.32l-2.73 0.66c-1.24,0.27 -1.23,0.59 -2.28,1.01 -1.14,0.45 -1.69,0.53 -2.48,0.91l-2.85 1.49c-0.9,0.61 -0.37,0.17 -0.81,1.04 -1.04,2.09 -2.23,2.63 -2.8,3.93 -0.27,0.61 -0.44,1.55 -0.76,2.31 -0.73,1.75 -1.54,2.58 -2.17,4.55 -0.62,1.97 -0.58,3.28 -1.57,5.17l-0.71 2.19c-0.22,2.75 -0.48,4.1 0,5.88 0.32,1.16 0.21,1.51 0.25,2.84 0.09,3.27 1.91,6.9 3.2,9.84 0.34,0.78 0.88,1.45 1.21,2.14 1.31,2.73 0.91,4.73 2.57,6.72 1.58,-0.24 0.92,-0.55 2.04,-1.28 0.83,-0.54 0.02,-0.14 1.52,-0.47l0.66 -0.19z"/>
  <path fill="#A2170C" d="M114.48 106.67c-0.63,1.24 -0.98,1.23 -1.98,1.98 0.9,2.13 1.76,1.03 1.46,1.99 -0.26,0.99 0.39,0.28 -0.4,0.83 -0.43,0.34 -0.67,0.65 -0.84,0.81 2.31,-0.84 1.74,-0.47 2.77,-1.57 0.05,-0.06 0.11,-0.13 0.16,-0.18 1.59,-1.68 0.79,-0.98 1.85,-3.22 1.35,-2.84 4.65,-2.03 6.62,-0.31 1.83,1.61 2.52,3.42 3.28,5.91l0.63 1.75c0.48,1.43 0.26,4.47 -0.02,5.87 -0.65,1.74 0.8,-1.03 -0.34,0.39 -1.97,2.45 -0.45,2.45 -3.84,4.77 -4.24,2.88 -4.37,1.56 -9.59,1.56 -0.06,-0.77 -0.03,-0.03 0.19,-0.63 0.02,-0.08 0.25,-0.59 0.34,-0.92 -0.4,-0.01 -1.34,0.04 -1.71,-0.01 -1.24,-0.15 0.11,0.17 -0.61,-0.26 -2.57,-1.52 -0.39,0.46 -1.38,-0.99 -0.7,-1.03 -2.25,-6.24 -1.58,-8.83 0.67,-2.6 0.48,-1.92 2.33,-3.28 -6.54,0.33 -3.02,-0.67 -5.96,4.42l-0.94 -1.69 -0.41 1.62c-0.44,10.39 10.33,15.87 16.72,13.91 5.93,-1.81 3.5,-1.98 6.52,-3.99 1.32,-2.24 2.54,-3.96 2.75,-7.43 -0.25,-5.72 -1.51,-8.77 -4.73,-11.84 -6.08,-5.81 -10.01,-1.23 -11.29,-0.66z"/>
  <path fill="#899094" d="M102.82 118.72l-0.11 4.32c0.15,3.6 -0.15,2.01 -0.21,4.19 0.91,0.63 0.73,0.72 1.44,1.96 1.52,2.63 4.44,5.18 7.35,6.04 3.2,0.95 7.15,1.52 10.26,-0.67 0.38,-0.26 0.48,-0.3 0.82,-0.52 2.61,-1.65 5.66,-5.87 5.38,-7.44 -3.02,2.01 -0.59,2.18 -6.52,3.99 -6.39,1.96 -17.16,-3.52 -16.72,-13.91 -1.03,0.63 -0.34,0 -1.11,1.1 -0.32,0.45 -0.21,0.46 -0.58,0.94z"/>
 </g>
</svg>
