<?xml version="1.0" encoding="UTF-8"?>
<!DOCTYPE svg PUBLIC "-//W3C//DTD SVG 1.1//EN" "http://www.w3.org/Graphics/SVG/1.1/DTD/svg11.dtd">
<!-- Creator: CorelDRAW 2017 -->
<svg xmlns="http://www.w3.org/2000/svg" xml:space="preserve" width="14.552mm" height="19.8436mm" version="1.1" style="shape-rendering:geometricPrecision; text-rendering:geometricPrecision; image-rendering:optimizeQuality; fill-rule:evenodd; clip-rule:evenodd"
viewBox="0 0 1455.2 1984.36"
 xmlns:xlink="http://www.w3.org/1999/xlink">
 <defs>
  <style type="text/css">
   <![CDATA[
    .str0 {stroke:black;stroke-width:35;stroke-miterlimit:22.9256}
    .fil2 {fill:none}
    .fil1 {fill:black}
    .fil0 {fill:#71E2FF}
   ]]>
  </style>
 </defs>
 <g id="Слой_x0020_1">
  <metadata id="CorelCorpID_0Corel-Layer"/>
  <g id="_433196957072">
   <path class="fil0" d="M345.57 735.31c236.91,46.92 442.17,66.99 750.34,15.37 5.75,-53.65 45.18,-40.63 68.8,-233.72 -298.25,214.85 -537.41,92.14 -842.94,131.84 0,0 23.8,86.51 23.8,86.51z"/>
   <g>
    <path class="fil1" d="M141.3 1804.97c58.01,13.97 106.12,27.85 150.84,40.75 121.24,34.98 216.81,62.56 439.39,66.74 175.01,3.27 310.32,-30.84 453.34,-66.9 44.27,-11.15 89.27,-22.51 137.49,-33.23 -11.63,-63.73 -23.89,-135.86 -36.93,-212.6 -44.97,-264.64 -99.34,-584.52 -165.66,-784.4 -3.06,-9.22 -8.06,-18.43 -12.82,-27.21l0.1 -0.05c-10.34,-19.04 -19.93,-36.73 -21.64,-66.78l-0.35 -6.01 1.85 -6.02c6.27,-20.51 12.97,-30.86 19.8,-41.42l0 -0.13c6.11,-9.44 12.44,-19.24 18.6,-50.2 2.65,-13.35 6.47,-30.23 10.27,-47.03 3.03,-13.45 6.05,-26.8 8.79,-40.42 -142.18,-44.03 -122.06,-184.56 -101.84,-325.59 5.58,-38.84 11.15,-77.75 12.6,-112.85l-106.5 -30.14c-0.79,14.46 -1.5,29.65 -2.23,45.51 -5,107.47 -11.32,243.05 -42.12,304.07l-4.44 8.79 -8.27 5.16c-19.99,12.48 -46.52,20.06 -75,24.37 -33.54,5.08 -71.27,5.77 -103.07,4.85l-7.78 -0.22c-79.2,-2.17 -121.16,-3.36 -146.87,-84.55 -12.52,-39.51 -22.36,-96.06 -28.98,-154.34 -5.53,-48.7 -8.82,-99.17 -9.5,-142 -5.84,1.22 -12.18,2.68 -18.8,4.3 -27.46,6.69 -58.15,16.04 -81.48,23.64 1.89,22.27 4.09,44.06 6.3,65.92 5.79,57.35 11.67,115.37 11.88,176.51 0.45,120.09 -32.39,141.21 -87.51,176.65 -9.29,5.97 -19.41,12.47 -29.89,20.12 0.33,13.48 1.24,29.06 2.57,45.02 1.93,23.26 4.68,45.92 7.72,62.6 2.95,16.14 8.07,27.65 12.36,37.3 12.21,27.45 20.57,46.26 2.19,88.48 -67.02,153.82 -127.64,543.29 -172.1,829.09 -11.98,77.02 -22.82,146.63 -32.31,202.22zm1221.57 34.34c-52.44,-278.52 -119.78,-763 -210.01,-1034.92 -11.1,-33.46 -30.51,-48.63 -32.59,-85.01 11.99,-39.15 26.79,-32.02 39.36,-95.17 8.19,-41.2 18.8,-80.05 24.93,-120.45 -199.99,-35.03 -89.92,-273.79 -94.33,-438.5l-173.67 -49.16c-8.15,99.92 -7.05,307.11 -43.45,379.24 -35.79,22.34 -105.94,25.57 -158.65,24.03 -67.97,-1.97 -103.28,-0.54 -122.25,-60.44 -25.28,-79.8 -39.34,-235.58 -36.8,-324.24 -31.87,-4.25 -136.21,29.34 -172.26,41.99 6.12,87.5 19.93,175.28 20.26,266.81 0.49,131.8 -45.32,121.03 -117.49,179.66 -0.69,36.53 4.25,94.51 10.92,131.02 9.9,54.07 36.46,60.58 16.88,105.54 -90.89,208.59 -168.24,826.48 -212.45,1071.74 246,55.63 307.09,109.8 629.71,115.87 247.48,4.64 414.34,-62.61 631.89,-108.01z"/>
   </g>
   <path class="fil0 str0" d="M332.3 1070.78c74.15,29.37 157.49,34.55 257.57,27.13 -5.4,109.39 34.71,289.55 -8.32,332.12 -140.83,27.93 -236.51,12.88 -298.64,-32.49 -22.17,-78.66 32.93,-217.84 49.39,-326.76z"/>
   <path class="fil2 str0" d="M345.57 735.31c223.16,73.89 532.81,65.17 767.83,11.49"/>
   <path class="fil0 str0" d="M1099.02 1055.9c-70.22,32.13 -150.26,40.44 -246.91,36.79 9.55,109.11 -21.91,290.63 21.22,331.55 136.7,22.61 228.23,3.98 286.25,-43.69 18.21,-79.43 -40.37,-216.43 -60.56,-324.65z"/>
  </g>
 </g>
</svg>
