<?xml version="1.0" encoding="UTF-8"?>
<!DOCTYPE svg PUBLIC "-//W3C//DTD SVG 1.1//EN" "http://www.w3.org/Graphics/SVG/1.1/DTD/svg11.dtd">
<!-- Creator: CorelDRAW 2017 -->
<svg xmlns="http://www.w3.org/2000/svg" xml:space="preserve" width="55mm" height="45mm" version="1.1" style="shape-rendering:geometricPrecision; text-rendering:geometricPrecision; image-rendering:optimizeQuality; fill-rule:evenodd; clip-rule:evenodd"
viewBox="0 0 5500 4500"
 xmlns:xlink="http://www.w3.org/1999/xlink">
 <defs>
  <style type="text/css">
   <![CDATA[
    .str0 {stroke:black;stroke-width:35;stroke-miterlimit:22.9256}
    .fil0 {fill:none}
    .fil3 {fill:black}
    .fil2 {fill:#71E2FF}
    .fil1 {fill:white}
   ]]>
  </style>
 </defs>
 <g id="Слой_x0020_1">
  <metadata id="CorelCorpID_0Corel-Layer"/>
  <line class="fil0 str0" x1="1744.61" y1="1962.7" x2="3975.78" y2= "1962.7" />
  <path class="fil0 str0" d="M1499.99 1291.28l2675.22 0 0 698.71c0,80.14 -65.55,145.7 -145.7,145.7l-2383.82 0c-80.13,0 -145.7,-65.56 -145.7,-145.7l0 -698.71z"/>
  <circle class="fil1" transform="matrix(1.15977 0.353848 -0.353848 1.15977 2449.85 2386.66)" r="312.21"/>
  <path class="fil1" d="M1726.08 1798.86c86.72,0 154.34,41.23 154.34,127.95 0,37.59 -64.64,84.71 -102.99,132 -50.12,61.82 -97.47,178.47 -146.6,178.47 -86.72,0 -231.58,-132.18 -124.94,-206.32 106.64,-74.14 133.47,-232.1 220.19,-232.1z"/>
  <circle class="fil1" cx="3781.45" cy="1965.28" r="378.57"/>
  <g id="_828779504">
   <g>
    <path class="fil2" d="M4107.5 1963.12c-5.32,84.84 -28.91,142.93 -78.62,201.88 -10.17,12.06 -21.97,23.34 -33.67,33.75l-17.95 15.58c-3.63,2.85 -7.56,5.28 -11.3,7.92 -38.55,27.2 -75.94,45.22 -122.91,53.91 -54.81,10.14 -113.15,7.19 -166.81,-9.93 -54.12,-17.26 -90.48,-44.54 -130.99,-81.73 -26.37,-24.19 -55.02,-67.57 -68.75,-100.4 -3.93,-9.39 -6.75,-16.43 -10.38,-26.27 -10.85,-29.31 -19.31,-69.32 -17.25,-102.18 0.76,-12.17 12.26,-23.48 24.31,-21.58 12.23,1.92 75.54,46.47 88.75,55.6 19.28,13.32 37.16,26.05 56.22,39.33 5.02,3.51 55.72,39.71 55.8,39.71 4.56,0.29 13.03,-4.67 18.93,-7.51l128.55 -61.35 10.41 -165.98c-3.64,-2.82 -6.93,-4.64 -10.9,-7.43 -55.32,-38.76 -119.82,-79.47 -176.51,-118.34 -13.84,-9.47 -37.86,-19.55 -28.15,-43.08 5.29,-12.79 34.28,-24.16 47.43,-29.15 86.31,-32.72 192.92,-23.66 273.03,20.15 4.3,2.35 8.33,4.64 12.31,7.4 43.37,30.06 52.4,38.18 85.72,76.73l16.93 22.87c14.6,22 17.55,28.33 28.95,51.37 17.82,35.97 30.05,97.76 26.85,148.73z"/>
    <path id="1" class="fil3" d="M4107.5 1963.12c-5.32,84.84 -28.91,142.93 -78.62,201.88 -10.17,12.06 -21.97,23.34 -33.67,33.75l-17.95 15.58c-3.63,2.85 -7.56,5.28 -11.3,7.92 -38.55,27.2 -75.94,45.22 -122.91,53.91 -54.81,10.14 -113.15,7.19 -166.81,-9.93 -54.12,-17.26 -90.48,-44.54 -130.99,-81.73 -26.37,-24.19 -55.02,-67.57 -68.75,-100.4 -3.93,-9.39 -6.75,-16.43 -10.38,-26.27 -10.85,-29.31 -19.31,-69.32 -17.25,-102.18 0.76,-12.17 12.26,-23.48 24.31,-21.58 12.23,1.92 75.54,46.47 88.75,55.6 19.28,13.32 37.16,26.05 56.22,39.33 5.02,3.51 55.72,39.71 55.8,39.71 4.56,0.29 13.03,-4.67 18.93,-7.51l128.55 -61.35 10.41 -165.98c-3.64,-2.82 -6.93,-4.64 -10.9,-7.43 -55.32,-38.76 -119.82,-79.47 -176.51,-118.34 -13.84,-9.47 -37.86,-19.55 -28.15,-43.08 5.29,-12.79 34.28,-24.16 47.43,-29.15 86.31,-32.72 192.92,-23.66 273.03,20.15 4.3,2.35 8.33,4.64 12.31,7.4 43.37,30.06 52.4,38.18 85.72,76.73l16.93 22.87c14.6,22 17.55,28.33 28.95,51.37 17.82,35.97 30.05,97.76 26.85,148.73zm-55.2 97.94c11.42,-29.06 17.92,-61.42 20.34,-100.13 1.39,-22.2 -0.52,-46.78 -4.68,-69.86 -4.28,-23.75 -10.88,-45.61 -18.62,-61.23l-1.52 -3.08c-9.36,-18.92 -12.46,-25.18 -25.07,-44.2l-15.19 -20.52c-15.33,-17.74 -25.06,-28.44 -35.12,-37.46 -10.35,-9.27 -22.63,-18.19 -43.21,-32.45 -0.86,-0.59 -2.26,-1.46 -3.98,-2.48l0 -0.14 -5.19 -2.86c-35.91,-19.63 -78.07,-31.46 -121.07,-34.63 -42.29,-3.11 -85.02,2.15 -122.98,16.53 -4.32,1.63 -10.71,4.11 -17.22,7.2 1.68,1.07 3.42,2.2 5.33,3.5 28.85,19.79 53.68,36.16 78.54,52.56 33.66,22.19 67.4,44.46 98.24,66.06l0.14 0c1.18,0.83 2.29,1.56 3.34,2.23l0.13 0.13c2.79,1.81 5.5,3.58 8.66,6.02l14.68 11.36 -1.15 18.45 -10.41 165.98 -1.29 20.55 -18.53 8.84 -128.35 61.25 -3.44 1.72c-9.17,4.68 -19.83,9.99 -32.92,9.17l-9.9 -0.62 -8.14 -5.8 -24.28 -17.28 -31.52 -22.43 0.03 -0.04 -23.06 -16.16 -0.14 0c-13.01,-9.13 -27.13,-19.06 -32.64,-22.86l-4.01 -2.78 -0.14 0c-11.38,-7.91 -37.03,-25.73 -53.98,-37.04 0.51,6.68 1.38,13.57 2.54,20.44 2.8,16.59 7.31,33.01 12.41,46.8 2.6,7.05 4.13,11.11 4.67,12.48l0.14 0c2.26,5.72 3.69,9.19 5.03,12.42 6.16,14.73 15.95,32.17 27.25,48.68 10.51,15.34 22.07,29.51 32.88,39.42 19.06,17.49 36.92,32.52 55.74,44.78 18.49,12.04 38.42,21.87 62.13,29.43 23.61,7.53 48.5,12 73.69,13.5 25.67,1.52 51.44,-0.07 76.3,-4.67 20.61,-3.8 39.13,-9.68 56.68,-17.55 17.66,-7.93 34.78,-18.16 52.42,-30.61l0.41 -0.28 4 -2.74 0.28 -0.13c1.48,-0.99 3.01,-2.03 5.11,-3.68l0.01 0.01 16.34 -14.18 -0.04 -0.04c5.86,-5.22 11.42,-10.32 16.04,-14.9 5.35,-5.3 10.24,-10.45 14.21,-15.16l0 -0.14c22.36,-26.52 38.79,-52.66 50.08,-81.38zm-344.18 31.62l-0.2 0.1m-59.37 -414.5c-1.45,3.53 -0.05,2.21 2,0.16 -0.98,-0.67 -1.34,-1.77 -2,-0.16z"/>
   </g>
   <g>
    <path class="fil1" d="M4488.13 2697.61c1.63,-25.86 -17.63,-47.97 -45.9,-49.74 -21.68,-1.36 -45,18.37 -46.36,40.05l-0.65 10.38c-1.13,17.99 19.48,41.57 37.3,42.69 12.86,0.81 16.27,2.03 27.75,-2.98 13.43,-5.85 26.65,-20.97 27.86,-40.4zm170.6 56.27c-3.5,55.84 -37.62,69.54 -71.91,102.56 -20.11,19.35 -45.47,46.39 -70.48,56.92 -30.11,12.68 -72.13,6.45 -96.43,-15.44 -16.61,-14.97 -204.73,-232.66 -224.05,-254.76 -5.24,-6 -250.3,-284.53 -254.79,-292.3l37.04 -14.6c46.72,-19.89 79.74,-47.18 115.04,-80.99 14.03,-13.44 31.11,-34.67 42.48,-51.44l20.54 -33.47c2.56,-4.91 7.41,-13.8 8.95,-18.95 6.34,2.14 59.15,65.62 64.8,72.08l383.89 439.38c23.69,27.12 47.55,49.1 44.92,91.01z"/>
    <path id="1" class="fil3" d="M4523.1 2697.59l0.03 0 0 0.02 -0.14 2.19c-0.99,15.8 -6.53,29.97 -14.53,41.57 -9.02,13.07 -21.51,23.09 -34.24,28.63 -17.9,7.8 -24.39,7.32 -39.38,6.2l0 -0.01 -4.78 -0.34 0 -0.02c-18.44,-1.25 -36.77,-12.27 -49.55,-26.89 -12.78,-14.61 -21.29,-34.27 -20.15,-52.69l0.65 -10.38 0 -0.14c1.29,-20.54 12.17,-39.55 27.46,-52.75 14.7,-12.72 34.22,-20.67 53.76,-20.06l0 -0.05 0.02 0 2.19 0.14c23.66,1.5 43.8,11.77 57.79,27.18 13.92,15.33 21.66,35.59 20.87,57.4zm-34.97 0.02c1.63,-25.86 -17.63,-47.97 -45.9,-49.74 -21.68,-1.36 -45,18.37 -46.36,40.05l-0.65 10.38c-1.13,17.99 19.48,41.57 37.3,42.69 12.86,0.81 16.27,2.03 27.75,-2.98 13.43,-5.85 26.65,-20.97 27.86,-40.4zm170.6 56.27c-3.5,55.84 -37.62,69.54 -71.91,102.56 -20.11,19.35 -45.47,46.39 -70.48,56.92 -30.11,12.68 -72.13,6.45 -96.43,-15.44 -16.61,-14.97 -204.73,-232.66 -224.05,-254.76 -5.24,-6 -250.3,-284.53 -254.79,-292.3l37.04 -14.6c46.72,-19.89 79.74,-47.18 115.04,-80.99 14.03,-13.44 31.11,-34.67 42.48,-51.44l20.54 -33.47c2.56,-4.91 7.41,-13.8 8.95,-18.95 6.34,2.14 59.15,65.62 64.8,72.08l383.89 439.38c23.69,27.12 47.55,49.1 44.92,91.01zm-72.01 56.09c19.25,-16.16 35.36,-29.71 37.15,-58.28 1.46,-23.26 -13.17,-39.71 -29.3,-57.82l0 -0.13 -6.87 -7.76 -0.14 -0.14 -383.89 -439.38 -0.41 -0.41 -6.36 -7.48c-6.39,-7.56 -15.18,-19.39 -23.17,-30.08l-8.3 13.52 -0.95 1.37c-6.91,10.19 -15.09,21.15 -23.09,30.84 -7.77,9.41 -16.14,18.64 -24.04,26.21 -18.68,17.89 -36.86,34.14 -56.8,48.72 -18.71,13.68 -38.78,25.78 -61.83,36.19 55.66,63.98 179.48,204.89 214.18,244.37l9.21 10.48 0.14 0.14 22.41 25.81c54.75,63.11 186.08,214.49 198.63,225.8 6.98,6.29 17.01,10.44 27.76,12.16 11.29,1.8 22.7,0.93 31.75,-2.87 15.41,-6.49 34.72,-25.39 51.06,-41.4l0.13 -0.14 8.49 -8.27 0.14 -0.14c8.73,-8.4 16.59,-15.01 24.1,-21.31z"/>
   </g>
  </g>
  <path class="fil2 str0" d="M3629.72 2480.11c79.32,4.77 122.91,114.77 31.86,155.49 -46.48,18.16 -113.82,-16.77 -107.8,-83.71 3.8,-42.07 35.29,-68.3 75.94,-71.78zm-153.68 -8.46c0.12,60.54 -0.34,120.34 1.34,180.98l157.81 88.67c0,0 155.03,-89.77 156.42,-90.33l-2.42 -185.21 -157.52 -87.79c-21.2,12.4 -155.63,93.68 -155.63,93.68z"/>
  <g>
   <path class="fil1 str0" d="M869.11 2916.41c32.56,113.4 161.67,155.14 253.37,91.3 31.43,-21.88 64.82,-74.49 89.75,-108.09 118.96,-160.29 233.75,-321.31 353.74,-481.8 14.94,-19.98 33.05,-40.37 18.91,-71.67 -6.58,-14.55 -14.9,-19.52 -24.62,-26.79 -37.82,-28.29 -75.33,-54.62 -113.07,-82.98 -18.67,-14.04 -37.34,-28.34 -56.45,-41.65 -20.17,-14.05 -51.33,-17.71 -72.64,5.75l-167.02 226.66c-15.37,20.69 -82.55,115.16 -93.21,127 -3.13,3.48 -2.34,2.81 -4.74,6.62l-26.46 36.04c-41.03,54.08 -85.06,116.37 -125.1,170.45 -31.83,42.99 -48.85,92.11 -32.46,149.16z"/>
   <path class="fil2 str0" d="M1481.96 2187.1c0,0 85.27,60.3 85.27,60.3 0,0 200.47,-284.77 254.97,-349.88 31.72,-37.85 86.87,-75.81 131.54,-105.13 32.45,-21.3 32.12,-15.06 40.87,-36.92l82.22 -206.3c-25.8,-20.43 -54.37,-40.91 -81.23,-60.1 -19.68,9 -144.88,117.71 -174.18,141.81 -12.99,10.67 -10.16,6.34 -14.51,23.39 -2.43,9.49 -4.98,18.69 -7.77,28.36 -5.31,18.42 -10.47,36.66 -16.5,54.72 -20.78,62.17 -26.22,74.27 -60.89,123.02l-239.79 326.73z"/>
   <circle class="fil0 str0" cx="1047.06" cy="2856.86" r="73.93"/>
  </g>
  <path class="fil2 str0" d="M1115.18 1616.35c58.84,-29.99 136.39,30.47 88.3,97.99 -25.65,32.58 -88.62,35.91 -112.49,-14.59 -15,-31.74 -3.48,-63.8 24.19,-83.4zm-113.68 58.65c25.58,43.33 50.43,86.37 77.17,129.11l150.41 -2.92c0,0 73.28,-129.6 74.04,-130.59l-79.73 -131.69 -149.83 3.43c-9.97,17.81 -72.06,132.66 -72.06,132.66z"/>
  <g>
   <rect class="fil1 str0" transform="matrix(1.04295 0.318204 -0.375709 1.23142 2303.5 2678.63)" width="110.65" height="223.61"/>
   <circle class="fil1 str0" transform="matrix(1.34688 0.410934 -0.410934 1.34688 2449.12 2414.09)" r="225.76"/>
   <circle class="fil1 str0" transform="matrix(0.95032 0.289944 -0.289944 0.95032 2449.74 2411.76)" r="225.76"/>
   <rect class="fil1 str0" transform="matrix(1.20222 0.3668 -0.3668 1.20222 2195 2735.41)" width="236.8" height="91.28" rx="20" ry="20"/>
   <g>
    <path class="fil2" d="M2467.87 2354.74c5.11,1.56 22.42,13.03 29.45,13.19 22.37,0.51 64.36,-2.83 64.36,-2.83 0,0 -30.33,27 -42.87,41.09 -6.65,7.47 -8.37,21.57 -9.72,25.97 -9.99,32.76 -44.66,51.22 -77.42,41.23 -32.76,-10 -51.22,-44.67 -41.22,-77.43 9.99,-32.76 44.66,-51.21 77.42,-41.22z"/>
    <path id="1" class="fil3" d="M2467.87 2354.74c5.11,1.56 22.42,13.03 29.45,13.19 22.37,0.51 64.36,-2.83 64.36,-2.83 0,0 -30.33,27 -42.87,41.09 -6.65,7.47 -8.37,21.57 -9.72,25.97 -9.99,32.76 -44.66,51.22 -77.42,41.23 -32.76,-10 -51.22,-44.67 -41.22,-77.43 9.99,-32.76 44.66,-51.21 77.42,-41.22zm-7.3 35.4c-2.66,-1.44 -0.7,-1.4 -2.82,-2.04 -7.2,-2.19 -14.61,-1.27 -20.72,1.98 -6.14,3.27 -11.05,8.88 -13.22,16 -2.19,7.2 -1.28,14.61 1.97,20.72 3.27,6.15 8.89,11.06 16.01,13.23 7.2,2.19 14.61,1.27 20.72,-1.98 6.15,-3.27 11.05,-8.89 13.22,-16.01 0.47,-1.53 -0.19,0.27 0.15,-1.31l0.14 -0.14c1.21,-5.46 2.83,-12.85 6.07,-20.51 -7.74,-2.56 -15.02,-6.5 -21.38,-9.94l-0.14 0z"/>
   </g>
  </g>
  <path class="fil0 str0" d="M2219.49 2953.99l115.4 35.21c-19.69,110.82 78.25,146.67 123.21,143.32 130.44,-9.71 287.6,-244.31 524.14,-268.2 49.5,-8.27 179.33,-20.84 282.25,9.13 0,0 143.12,145.93 119.43,161.18 -3.86,2.48 -113.38,-62.36 -167.8,-72.67 -36.4,-9.81 -143.53,-30.83 -228.75,-2.23 -260.98,87.6 -366.95,276.47 -527.73,276.93 -172.39,0.49 -266.55,-110.14 -240.15,-282.67z"/>
  <path class="fil1" d="M3478.72 2819.42c68.02,26.16 109.04,95.08 87.76,164.83 -21.28,69.75 -67.44,115.64 -137.19,94.36 -69.75,-21.28 -76.76,-108.83 -213.13,-162.33 -177.92,-69.8 -409.69,-80.75 -384.98,-121.48 29.29,-48.28 420.61,-62.65 647.54,24.62z"/>
 </g>
</svg>
