<?xml version="1.0" encoding="UTF-8"?>
<!DOCTYPE svg PUBLIC "-//W3C//DTD SVG 1.1//EN" "http://www.w3.org/Graphics/SVG/1.1/DTD/svg11.dtd">
<!-- Creator: CorelDRAW 2017 -->
<svg xmlns="http://www.w3.org/2000/svg" xml:space="preserve" width="37.0416mm" height="19.8436mm" version="1.1" style="shape-rendering:geometricPrecision; text-rendering:geometricPrecision; image-rendering:optimizeQuality; fill-rule:evenodd; clip-rule:evenodd"
viewBox="0 0 3704.16 1984.36"
 xmlns:xlink="http://www.w3.org/1999/xlink">
 <defs>
  <style type="text/css">
   <![CDATA[
    .str0 {stroke:black;stroke-width:35;stroke-miterlimit:22.9256}
    .fil3 {fill:none}
    .fil1 {fill:black}
    .fil0 {fill:#71E2FF}
    .fil2 {fill:white}
   ]]>
  </style>
 </defs>
 <g id="Слой_x0020_1">
  <metadata id="CorelCorpID_0Corel-Layer"/>
  <g id="_433197249024">
   <g>
    <g>
     <path class="fil0" d="M3151.3 660.75c-4.84,77.2 -26.31,130.07 -71.55,183.72 -9.25,10.97 -19.99,21.23 -30.64,30.7l-16.33 14.18c-3.3,2.59 -6.88,4.81 -10.28,7.21 -35.08,24.76 -69.11,41.15 -111.85,49.06 -49.88,9.23 -102.97,6.54 -151.8,-9.04 -49.25,-15.71 -82.34,-40.52 -119.21,-74.37 -24,-22.02 -50.07,-61.49 -62.56,-91.37 -3.58,-8.55 -6.14,-14.95 -9.45,-23.9 -9.87,-26.68 -17.57,-63.09 -15.7,-92.99 0.7,-11.08 11.16,-21.37 22.13,-19.64 11.13,1.75 68.75,42.29 80.77,50.6 17.54,12.12 33.81,23.7 51.15,35.79 4.58,3.19 50.71,36.13 50.78,36.14 4.15,0.26 11.86,-4.26 17.23,-6.84l116.98 -55.83 9.48 -151.04c-3.32,-2.56 -6.31,-4.23 -9.93,-6.76 -50.33,-35.27 -109.03,-72.33 -160.62,-107.69 -12.6,-8.63 -34.45,-17.8 -25.61,-39.21 4.8,-11.64 31.19,-21.99 43.16,-26.53 78.54,-29.77 175.55,-21.53 248.45,18.34 3.92,2.14 7.59,4.22 11.21,6.73 39.46,27.36 47.68,34.75 78,69.83l15.42 20.82c13.28,20.01 15.97,25.78 26.34,46.74 16.21,32.74 27.34,88.96 24.43,135.35z"/>
     <path id="1" class="fil1" d="M3151.3 660.75c-4.84,77.2 -26.31,130.07 -71.55,183.72 -9.25,10.97 -19.99,21.23 -30.64,30.7l-16.33 14.18c-3.3,2.59 -6.88,4.81 -10.28,7.21 -35.08,24.76 -69.11,41.15 -111.85,49.06 -49.88,9.23 -102.97,6.54 -151.8,-9.04 -49.25,-15.71 -82.34,-40.52 -119.21,-74.37 -24,-22.02 -50.07,-61.49 -62.56,-91.37 -3.58,-8.55 -6.14,-14.95 -9.45,-23.9 -9.87,-26.68 -17.57,-63.09 -15.7,-92.99 0.7,-11.08 11.16,-21.37 22.13,-19.64 11.13,1.75 68.75,42.29 80.77,50.6 17.54,12.12 33.81,23.7 51.15,35.79 4.58,3.19 50.71,36.13 50.78,36.14 4.15,0.26 11.86,-4.26 17.23,-6.84l116.98 -55.83 9.48 -151.04c-3.32,-2.56 -6.31,-4.23 -9.93,-6.76 -50.33,-35.27 -109.03,-72.33 -160.62,-107.69 -12.6,-8.63 -34.45,-17.8 -25.61,-39.21 4.8,-11.64 31.19,-21.99 43.16,-26.53 78.54,-29.77 175.55,-21.53 248.45,18.34 3.92,2.14 7.59,4.22 11.21,6.73 39.46,27.36 47.68,34.75 78,69.83l15.42 20.82c13.28,20.01 15.97,25.78 26.34,46.74 16.21,32.74 27.34,88.96 24.43,135.35zm-53.16 87.98c10.26,-26.13 16.12,-55.28 18.3,-90.17 1.25,-19.96 -0.47,-42.06 -4.21,-62.82 -3.84,-21.32 -9.75,-40.92 -16.67,-54.89l-1.38 -2.79c-8.44,-17.06 -11.24,-22.73 -22.59,-39.85l-13.69 -18.48c-13.84,-16 -22.61,-25.67 -31.6,-33.72 -9.29,-8.31 -20.39,-16.38 -39.01,-29.29l-0.14 0c-1.27,-0.88 -2.34,-1.56 -3.3,-2.13l-0.14 -0.14c-1.53,-0.91 -3.01,-1.74 -4.49,-2.54 -32.27,-17.65 -70.2,-28.28 -108.89,-31.13 -38.05,-2.8 -76.47,1.92 -110.58,14.84 -2.76,1.05 -6.42,2.46 -10.3,4.11l0.14 0.1c26.47,18.14 48.84,32.9 71.16,47.62 30.72,20.26 61.53,40.59 89.66,60.3l0.07 -0.09 3.15 2.19c2.6,1.69 5.12,3.31 8.15,5.66l14.68 11.37 -1.15 18.44 -9.48 151.04 -1.29 20.55 -18.53 8.84 -116.78 55.74 -3.14 1.56c-8.69,4.43 -18.79,9.45 -31.52,8.65l-9.91 -0.62 -8.13 -5.8 -18.1 -12.88c-11.52,-8.22 -25.19,-17.98 -32.41,-22.99l0 -0.14 -20.8 -14.58 -0.14 0c-12.35,-8.68 -24.37,-17.13 -30.07,-21.07l-0.14 0 -3.57 -2.48c-9.18,-6.37 -28.81,-20.01 -43.67,-30.11 0.43,3.92 1,7.88 1.67,11.85 2.51,14.9 6.56,29.65 11.14,42.03l-0.07 0.02 4.42 11.26 -0.12 0.05 4.68 11.2c5.51,13.2 14.31,28.87 24.48,43.72 9.43,13.77 19.81,26.49 29.46,35.35 17.24,15.82 33.38,29.4 50.31,40.43 16.61,10.81 34.51,19.63 55.78,26.42 21.23,6.77 43.63,10.8 66.3,12.14 23.11,1.37 46.31,-0.06 68.68,-4.2 18.49,-3.42 35.12,-8.69 50.87,-15.75 15.84,-7.11 31.26,-16.33 47.17,-27.56l0.41 -0.28 3.62 -2.48 0.14 -0.13c1.74,-1.18 3.55,-2.4 4.61,-3.23l0.01 0.01 14.72 -12.78 -0.04 -0.04c5.35,-4.76 10.35,-9.35 14.48,-13.43 4.4,-4.36 8.72,-8.95 12.74,-13.72 20.13,-23.88 34.91,-47.38 45.05,-73.18zm-511.36 -92.46l0 0.1 0.01 -0.1 -0.01 0zm149.78 -253.54c-1.73,4.19 -0.74,2.63 0.91,-0.14 -0.19,-0.83 -0.33,-1.29 -0.91,0.14z"/>
    </g>
    <g>
     <path class="fil2" d="M3497.69 1329.15c1.47,-23.54 -16.05,-43.65 -41.77,-45.27 -19.73,-1.24 -40.96,16.72 -42.2,36.45l-0.59 9.45c-1.03,16.36 17.73,37.83 33.95,38.84 11.7,0.74 14.8,1.85 25.25,-2.71 12.22,-5.33 24.25,-19.08 25.36,-36.76zm155.24 51.2c-3.19,50.82 -34.23,63.29 -65.44,93.33 -18.3,17.62 -41.38,42.22 -64.14,51.81 -27.39,11.54 -65.64,5.87 -87.75,-14.05 -15.12,-13.63 -186.31,-211.73 -203.89,-231.85 -4.77,-5.45 -227.77,-258.92 -231.86,-266l33.7 -13.28c42.52,-18.1 72.57,-42.93 104.69,-73.7 12.77,-12.23 28.31,-31.55 38.66,-46.81l18.7 -30.46c2.32,-4.47 6.74,-12.56 8.13,-17.25 5.77,1.95 53.84,59.72 58.98,65.6l349.34 399.84c21.57,24.68 43.27,44.69 40.88,82.82z"/>
     <path id="1" class="fil1" d="M3497.69 1329.15c1.47,-23.54 -16.05,-43.65 -41.77,-45.27 -19.73,-1.24 -40.96,16.72 -42.2,36.45l-0.59 9.45c-1.03,16.36 17.73,37.83 33.95,38.84 11.7,0.74 14.8,1.85 25.25,-2.71 12.22,-5.33 24.25,-19.08 25.36,-36.76zm155.24 51.2c-3.19,50.82 -34.23,63.29 -65.44,93.33 -18.3,17.62 -41.38,42.22 -64.14,51.81 -27.39,11.54 -65.64,5.87 -87.75,-14.05 -15.12,-13.63 -186.31,-211.73 -203.89,-231.85 -4.77,-5.45 -227.77,-258.92 -231.86,-266l33.7 -13.28c42.52,-18.1 72.57,-42.93 104.69,-73.7 12.77,-12.23 28.31,-31.55 38.66,-46.81l18.7 -30.46c2.32,-4.47 6.74,-12.56 8.13,-17.25 5.77,1.95 53.84,59.72 58.98,65.6l349.34 399.84c21.57,24.68 43.27,44.69 40.88,82.82zm-140.47 -105.97c13.88,15.05 21.43,35.2 20.09,56.82l0 0.14c-0.94,14.98 -6.2,28.42 -13.78,39.41 -8.55,12.4 -20.4,21.87 -32.49,27.15 -17.01,7.42 -23.14,6.96 -37.33,5.9l0 -0.01 -4.33 -0.31 0 -0.02c-17.65,-1.21 -35.11,-11.67 -47.24,-25.53 -11.64,-13.34 -19.56,-31.14 -19.19,-48.14l-0.06 0 0 -0.01 0.14 -2.05 0.59 -9.45 0 -0.14c1.23,-19.57 11.56,-37.65 26.07,-50.18 14.46,-12.5 33.81,-20.14 53.04,-18.94l0.14 0c22.13,1.39 41.05,10.95 54.35,25.36zm72.9 154.62c16.97,-14.24 31.16,-26.17 32.71,-50.84 1.24,-19.88 -11.68,-34.39 -25.91,-50.37l0 -0.13 -6.22 -7.02 -0.14 -0.14 -349.34 -399.84 -0.41 -0.41 -5.73 -6.74c-5.2,-6.14 -11.93,-15.38 -18.32,-24.16l-5.3 8.63 -0.95 1.37c-6.38,9.41 -13.89,19.48 -21.2,28.32l-0.07 -0.06c-7.45,9.02 -15.14,17.55 -22.04,24.16 -17.08,16.36 -33.72,31.23 -52,44.6 -16.16,11.81 -33.4,22.34 -52.99,31.5 52.97,60.77 166.68,190.12 194.36,221.61l0 0.14 6.15 7 0.14 0.14 19.72 22.71c49.36,56.91 169.81,195.76 181.16,205.99 5.89,5.3 14.44,8.83 23.65,10.3 9.72,1.55 19.51,0.83 27.18,-2.4 13.48,-5.67 30.86,-22.69 45.54,-37.09l0.13 -0.14 7.67 -7.47 0.14 -0.14c8.04,-7.73 15.23,-13.79 22.07,-19.52z"/>
    </g>
   </g>
   <circle class="fil2" transform="matrix(1.15977 0.353848 -0.353848 1.15977 1661.46 1034.28)" r="312.21"/>
   <path class="fil2" d="M937.69 446.48c86.72,0 154.34,41.23 154.34,127.95 0,37.59 -64.64,84.71 -102.99,132 -50.12,61.82 -97.47,178.47 -146.6,178.47 -86.72,0 -231.58,-132.18 -124.94,-206.32 106.64,-74.14 133.47,-232.1 220.19,-232.1z"/>
   <g>
    <path class="fil2 str0" d="M80.72 1564.03c32.56,113.4 161.67,155.14 253.37,91.3 31.43,-21.88 64.82,-74.49 89.75,-108.09 118.96,-160.29 233.75,-321.31 353.74,-481.8 14.94,-19.98 33.05,-40.37 18.91,-71.67 -6.58,-14.55 -14.9,-19.52 -24.62,-26.79 -37.82,-28.29 -75.33,-54.62 -113.07,-82.98 -18.67,-14.04 -37.34,-28.34 -56.45,-41.65 -20.17,-14.05 -51.33,-17.71 -72.64,5.75l-167.02 226.66c-15.37,20.69 -82.55,115.16 -93.21,127 -3.13,3.48 -2.34,2.81 -4.74,6.62l-26.46 36.04c-41.03,54.08 -85.06,116.37 -125.1,170.45 -31.83,42.99 -48.85,92.11 -32.46,149.16z"/>
    <path class="fil0 str0" d="M693.57 834.72c0,0 85.27,60.3 85.27,60.3 0,0 200.47,-284.77 254.97,-349.88 31.72,-37.85 86.87,-75.81 131.54,-105.13 32.45,-21.3 32.12,-15.06 40.87,-36.92l82.22 -206.3c-25.8,-20.43 -54.37,-40.91 -81.23,-60.1 -19.68,9 -144.88,117.71 -174.18,141.81 -12.99,10.67 -10.16,6.34 -14.51,23.39 -2.43,9.49 -4.98,18.69 -7.77,28.36 -5.31,18.42 -10.47,36.66 -16.5,54.72 -20.78,62.17 -26.22,74.27 -60.89,123.02l-239.79 326.73z"/>
    <circle class="fil3 str0" cx="258.67" cy="1504.48" r="73.93"/>
   </g>
   <path class="fil0 str0" d="M326.79 263.97c58.84,-29.99 136.39,30.47 88.3,97.99 -25.65,32.58 -88.62,35.91 -112.49,-14.59 -15,-31.74 -3.48,-63.8 24.19,-83.4zm-113.68 58.65c25.58,43.33 50.43,86.37 77.17,129.11l150.41 -2.92c0,0 73.28,-129.6 74.04,-130.59l-79.73 -131.69 -149.83 3.43c-9.97,17.81 -72.06,132.66 -72.06,132.66z"/>
   <g>
    <rect class="fil2 str0" transform="matrix(1.04295 0.318204 -0.375709 1.23142 1515.11 1326.25)" width="110.65" height="223.61"/>
    <circle class="fil2 str0" transform="matrix(1.34688 0.410934 -0.410934 1.34688 1660.73 1061.71)" r="225.76"/>
    <circle class="fil2 str0" transform="matrix(0.95032 0.289944 -0.289944 0.95032 1661.35 1059.38)" r="225.76"/>
    <rect class="fil2 str0" transform="matrix(1.20222 0.3668 -0.3668 1.20222 1406.61 1383.03)" width="236.8" height="91.28" rx="20" ry="20"/>
    <g>
     <path class="fil0" d="M1679.48 1002.36c5.11,1.56 22.42,13.03 29.45,13.19 22.37,0.51 64.36,-2.83 64.36,-2.83 0,0 -30.33,27 -42.87,41.09 -6.65,7.47 -8.37,21.57 -9.72,25.97 -9.99,32.76 -44.66,51.22 -77.42,41.23 -32.76,-10 -51.22,-44.67 -41.22,-77.43 9.99,-32.76 44.66,-51.21 77.42,-41.22z"/>
     <path id="1" class="fil1" d="M1679.48 1002.36c5.11,1.56 22.42,13.03 29.45,13.19 22.37,0.51 64.36,-2.83 64.36,-2.83 0,0 -30.33,27 -42.87,41.09 -6.65,7.47 -8.37,21.57 -9.72,25.97 -9.99,32.76 -44.66,51.22 -77.42,41.23 -32.76,-10 -51.22,-44.67 -41.22,-77.43 9.99,-32.76 44.66,-51.21 77.42,-41.22zm-7.3 35.4c-2.66,-1.44 -0.7,-1.4 -2.82,-2.04 -7.2,-2.19 -14.61,-1.27 -20.72,1.98 -6.14,3.27 -11.05,8.88 -13.22,16 -2.19,7.2 -1.28,14.61 1.97,20.72 3.27,6.15 8.89,11.06 16.01,13.23 7.2,2.19 14.61,1.27 20.72,-1.98 6.15,-3.27 11.05,-8.89 13.22,-16.01 0.47,-1.53 -0.19,0.27 0.15,-1.31l0.14 -0.14c1.21,-5.46 2.83,-12.85 6.07,-20.51 -7.74,-2.56 -15.02,-6.5 -21.38,-9.94l-0.14 0z"/>
    </g>
   </g>
   <path class="fil3 str0" d="M1431.1 1601.61l115.4 35.21c-19.69,110.82 78.25,146.67 123.21,143.32 130.44,-9.71 287.6,-244.31 524.14,-268.2 49.5,-8.27 179.33,-20.84 282.25,9.13 0,0 143.12,145.93 119.43,161.18 -3.86,2.48 -113.38,-62.36 -167.8,-72.67 -36.4,-9.81 -143.53,-30.83 -228.75,-2.23 -260.98,87.6 -366.95,276.47 -527.73,276.93 -172.39,0.49 -266.55,-110.14 -240.15,-282.67z"/>
   <path class="fil2" d="M2690.33 1467.04c68.02,26.16 109.04,95.08 87.76,164.83 -21.28,69.75 -67.44,115.64 -137.19,94.36 -69.75,-21.28 -76.76,-108.83 -213.13,-162.33 -177.92,-69.8 -409.69,-80.75 -384.98,-121.48 29.29,-48.28 420.61,-62.65 647.54,24.62z"/>
  </g>
 </g>
</svg>
