<?xml version="1.0" encoding="UTF-8"?>
<!DOCTYPE svg PUBLIC "-//W3C//DTD SVG 1.1//EN" "http://www.w3.org/Graphics/SVG/1.1/DTD/svg11.dtd">
<!-- Creator: CorelDRAW 2017 -->
<svg xmlns="http://www.w3.org/2000/svg" xml:space="preserve" width="97.8958mm" height="79.3748mm" version="1.1" shape-rendering="geometricPrecision" text-rendering="geometricPrecision" image-rendering="optimizeQuality" fill-rule="evenodd" clip-rule="evenodd"
viewBox="0 0 9789.58 7937.48"
 xmlns:xlink="http://www.w3.org/1999/xlink">
 <defs>
   <clipPath id="id0">
    <path d="M-0 0l9789.58 0 0 7937.49 -9789.58 0 0 -7937.49z"/>
   </clipPath>
     <mask id="id1">
       <linearGradient id="id2" gradientUnits="userSpaceOnUse" x1="2990.21" y1="-269.53" x2="4435.67" y2="4437.9">
        <stop offset="0" stop-opacity="1" stop-color="white"/>
        <stop offset="0.239216" stop-opacity="0.501961" stop-color="white"/>
        <stop offset="1" stop-opacity="0" stop-color="white"/>
       </linearGradient>
      <rect fill="url(#id2)" x="1650.26" y="514.77" width="3705.88" height="4688.83"/>
     </mask>
 </defs>
 <g id="Слой_x0020_1">
  <metadata id="CorelCorpID_0Corel-Layer"/>
  <polygon fill="white" points="-0,0 9789.58,0 9789.58,7937.49 -0,7937.49 "/>
  <g clip-path="url(#id0)">
   <g id="_834046838192">
    <g>
     <polygon id="1" fill="#F3DFC7" points="1073.93,7408.54 1063.5,504.17 4923.42,504.55 4921.9,2729.65 9255.95,2714.52 9276.08,7408.54 "/>
     <path id="2" fill="white" d="M1073.93 7408.54l-10.43 -6904.37 3859.92 0.38 -1.52 2225.1 4334.05 -15.13 20.13 4694.02 -8202.15 0zm9.52 -6884.45l10.37 6864.45 8162.25 0 -19.95 -4654.03 -4314.22 15.06 -19.94 0.07 0.02 -19.99 1.51 -2205.18 -3820.04 -0.38z"/>
    </g>
    <g>
     <path fill="#999999" d="M9253.97 7419.99l-8200.17 -1.09c3.82,-720.27 3.79,-1056.16 3.79,-1056.16l-520.74 -0.47 0.53 1575.23 9239.31 12.78 -1.83 -530.25zm0 0l1.92 -5210.09 -4326.26 0 4.96 -2215.14 -4919.47 -0.03 -5.31 3379.89 525.74 -1.42 7.08 -2864.2 3866.73 -4.17 -8.35 2224.78 4334.74 0 -2.67 4690.34 520.89 0.04z"/>
    </g>
    <polygon fill="#CCCCCC" points="539.34,6361.49 539.31,1636.46 1060.42,1634.22 1061.56,6362.74 "/>
    <rect fill="#C8F4FF" transform="matrix(4.78404E-14 -1.81037 1.14443 3.03196E-14 732.47 6362.21)" width="2611.23" height="127.04"/>
    <path fill="#B3B3B3" stroke="white" stroke-width="20" stroke-miterlimit="22.9256" d="M2808.99 5430.19l0 -657.65c0,-205.95 168.49,-374.44 374.44,-374.44l0.03 0c211.83,0 385.14,173.31 385.14,385.14l0 657.36c0,206.04 -168.57,374.6 -374.59,374.6l-0.01 0c-211.77,0 -385.01,-173.24 -385.01,-385.01z"/>
    <path fill="#4CC0E4" stroke="white" stroke-width="20" stroke-miterlimit="22.9256" d="M1215.18 6899.45l-0.3 -2747.2c-0.88,-174.4 134.56,-193.89 284.33,-194.49l637.61 0.61c108.12,1.08 156.96,72.18 158.67,143.74l1.23 2000.77c0,0 2272.61,-2.12 2615.16,-2.19 144.93,-0.04 197.18,107.64 197.39,282.31 -0.01,215.75 -0.01,431.51 -0.01,647.26 0.24,114.07 -105.78,225.67 -208.48,225.93 -1103.81,0.17 -2207.59,0.3 -3311.34,0.45 -153.56,-2.92 -353.55,-66.72 -374.26,-357.19z"/>
    <path fill="#BFF2FF" stroke="#205969" stroke-width="20" stroke-miterlimit="22.9256" d="M1392.98 5113.23l0 -789.98c0,-103.51 84.67,-188.19 188.19,-188.19l726.51 0 0 978.17 -914.7 0z"/>
    <path fill="#0099BA" stroke="#205969" stroke-width="20" stroke-miterlimit="22.9256" d="M1392.98 5114.72l0 -791.48c0,-103.5 84.67,-188.18 188.19,-188.18l56.86 0 0 979.66 -245.05 0z"/>
    <rect fill="#BFF2FF" stroke="#205969" stroke-width="20" stroke-miterlimit="22.9256" transform="matrix(2.99468E-14 -1.13121 1.10702 2.92013E-14 1392.98 6100.35)" width="872.61" height="826.27"/>
    <rect fill="#0099BA" stroke="#205969" stroke-width="20" stroke-miterlimit="22.9256" transform="matrix(2.98226E-14 -1.12951 1.10702 2.92634E-14 1392.99 6100.35)" width="872.61" height="221.36"/>
    <path fill="#BFF2FF" stroke="#205969" stroke-width="20" stroke-miterlimit="22.9256" d="M1393 6856.17l0 -755.83 914.7 0 0 951.83 -718.71 0c-107.8,0 -195.99,-88.19 -195.99,-196z"/>
    <path fill="#0099BA" stroke="#205969" stroke-width="20" stroke-miterlimit="22.9256" d="M1397.22 6860.64l-4.23 -760.3 251.54 0 -2.26 710.03 671.03 0 0 245.05 -679.08 0 0 -0.22 -42.44 0c-107.01,0 -193.96,-87.55 -194.56,-194.56z"/>
    <rect fill="#BFF2FF" stroke="#205969" stroke-width="20" stroke-miterlimit="22.9256" x="2310.59" y="6104.6" width="799.27" height="947.23"/>
    <rect fill="#0099BA" stroke="#205969" stroke-width="20" stroke-miterlimit="22.9256" x="2312.08" y="6806.77" width="797.78" height="245.05"/>
    <rect fill="#BFF2FF" stroke="#205969" stroke-width="20" stroke-miterlimit="22.9256" x="3109.86" y="6103.84" width="927.58" height="947.61"/>
    <rect fill="#0099BA" stroke="#205969" stroke-width="20" stroke-miterlimit="22.9256" x="3109.86" y="6806.39" width="927.58" height="245.05"/>
    <path fill="#BFF2FF" stroke="#205969" stroke-width="20" stroke-miterlimit="22.9256" d="M4721.02 7049.17l-679.41 0 0 -946.07 873.96 0 0 751.52c0,107.01 -87.54,194.55 -194.55,194.55z"/>
    <path fill="#0099BA" stroke="#205969" stroke-width="20" stroke-miterlimit="22.9256" d="M4721.02 7049.17l-677.92 0 0 -245.05 872.47 0 0 50.5c0,107 -87.54,194.55 -194.55,194.55z"/>
    <path fill="white" d="M2012.81 6467.46c85.87,-190.62 106.72,-155.64 155.46,-248.31 -106.34,-23.66 -188.36,-66.35 -270.37,-131.32 -65.15,-51.63 -160.17,-157.93 -222.65,-187.25 -28.08,85.96 -66.94,231.24 -131.97,293.16l-11.34 70.35c-25.48,86.75 74.84,119.29 103.38,205.8 96.91,46.22 107.05,122.38 211.06,178.31 103.95,-29.96 116.17,-103.04 166.43,-180.74z"/>
    <path fill="#90C441" d="M2185.23 6816.99l73.7 -59.48c21.76,-31.97 18.59,-8.51 5.78,-47.71l-51.1 -45.52c-49.7,-32.57 -63.73,-50.16 -109.03,-90.08 -42.89,-37.81 -79.32,-48.39 -91.77,-106.74 -50.26,77.7 -62.48,150.78 -166.43,180.74 -104.01,-55.93 -114.15,-132.09 -211.06,-178.31 -65.91,70.99 -89.7,108.02 -160.17,158.4 17.22,45.37 -6.82,5.08 28.28,47.87 70.05,39.43 39.26,-12.82 62.07,100.94 85.72,1.83 94.57,-17.98 131.79,52.03 104.37,89.4 105.89,145.5 149.09,182.51l25.35 -25.93c50.06,-54.21 58.79,-79.83 117.52,-108.77 37.77,-18.63 150.19,-51.36 195.98,-59.95z"/>
    <rect fill="#CCCCCC" transform="matrix(3.46553E-14 -1.34317 1.1399 3.10522E-14 4926.78 2210.86)" width="1269.86" height="459.23"/>
    <g>
     <polygon fill="#CCCCCC" points="5887.37,7419.58 5887.37,6432.44 9253.94,6432.44 9253.94,7419.58 "/>
     <path id="1" fill="white" d="M5887.37 7419.58l0 -987.14 3366.57 0 0 987.14 -3366.57 0zm20 -967.14l0 947.14 3326.57 0 0 -947.14 -3326.57 0z"/>
    </g>
    <g>
     <polygon fill="#CCCCCC" points="9255.6,2729.65 9255.6,6127.52 8407.93,6127.52 8407.93,2729.65 "/>
     <path id="1" fill="white" d="M9255.6 2729.65l0 3397.87 -847.67 0 0 -3397.87 847.67 0zm-20 3377.87l0 -3357.87 -807.67 0 0 3357.87 807.67 0z"/>
    </g>
    <rect fill="white" transform="matrix(3.0506E-14 -1.15689 1.13244 3.00711E-14 8403.96 6432.23)" width="779.06" height="747.86"/>
    <circle fill="#59585C" transform="matrix(3.03196E-14 -1.14443 1.14443 3.03196E-14 9035.42 5763.63)" r="116.42"/>
    <circle fill="#59585C" transform="matrix(3.03196E-14 -1.14443 1.14443 3.03196E-14 8632.34 5761.27)" r="116.42"/>
    <circle fill="#59585C" transform="matrix(3.03196E-14 -1.14443 1.14443 3.03196E-14 8632.34 6196.16)" r="116.42"/>
    <circle fill="#59585C" transform="matrix(3.03196E-14 -1.14443 1.14443 3.03196E-14 9034.01 6195.78)" r="116.42"/>
    <rect fill="white" transform="matrix(3.03196E-14 -1.14443 1.72709 4.59764E-14 8498.74 4579.33)" width="613.84" height="291.05"/>
    <rect fill="gray" transform="matrix(3.03196E-14 -1.14443 1.14372 3.03196E-14 8868.12 4273.65)" width="63.5" height="338.88"/>
    <g>
     <path fill="#2C5A1C" d="M1723.82 3291.32c8.82,-20.97 13.75,-53.49 16.75,-74.88 1.65,-11.8 3.01,-23.3 3.91,-35.08 0.84,-10.96 0.54,-25.77 3.12,-35.58 1.77,3.95 0.71,0.49 1.59,5.51 0.36,2.04 0.19,1.76 0.34,3.93l1.61 24.54c1.68,18.19 6.55,87.29 13.61,95.66 8.03,-20.9 -4.07,-124.58 -3.91,-150.04 6.99,25.61 19.55,113.93 33.04,140.18 0.9,-7.46 -1.92,-28.14 -2.81,-36.06 -1.43,-12.69 -2.64,-24.24 -4.45,-37.04l-12.4 -70.61 29.15 74.55c5.93,13.99 25.07,63.58 35.99,73.94 1.08,-7.67 0.46,-3.18 -0.84,-10.04 -0.88,-4.68 -1.14,-2.68 -0.47,-8.17l-39.94 -108.39c-3.51,-8.72 -9.7,-28.46 -14.1,-34.44 -8.86,-4.58 -13.93,-23.68 -19.89,-36.78l4.73 36.54c-2.98,-5.92 -8.07,-25.74 -9.1,-33.22 -0.49,7.27 -0.55,13.71 -0.1,20.49 0.46,6.74 1.08,12.57 -0.18,19.74l-4.9 -39.17c-2.46,11.81 -2.03,30.28 -8.17,41.63 0.9,-1.43 1.95,-26.52 1.87,-30.64l-10.09 23.53c-2.64,-2.72 1.68,-13.06 2.68,-15.96 2.12,-6.19 3.77,-9.85 2.64,-16.15l-15.27 33.49c-0.54,-10.97 7.16,-24.3 9.76,-35.84l-19.91 29.68 14.85 -32.31 -22.9 26.88c-0.07,-7.32 13.14,-22.69 17.81,-30.13 -4.8,3.8 -21.13,18.77 -25.4,24.35 1.7,-3.92 4.61,-7.67 7.21,-10.58 6.04,-6.76 9.51,-8.41 8.22,-15.97 -5.47,6.58 -18.72,14.69 -25.33,17.78 1.91,-8.43 29.01,-21.22 36.28,-30.14 -12.93,2.71 -24.25,13.69 -36.71,18.65 4.26,-6.69 14.13,-12.58 19.14,-15.8 -4.46,-2.08 -11.26,0.19 -16.25,3.5 -0.54,-4.55 0.09,-0.04 1.49,-4.14l1.35 -4.91 -4.4 -2.38c0.2,-0.38 0.59,-1.03 0.76,-1.59 -3.54,-1.11 -4.94,-2.59 -6.58,0.64 4.29,-6.76 9.64,-0.81 19.81,-9.46 -9.73,-3.46 -4.72,-0.7 -14.13,-1.69 4.53,-0.44 4.14,-0.89 9.02,-0.63l-1.89 -4.5c-0.52,-3.99 -4.84,-0.4 1.31,-2.56 4.75,-1.67 26.54,1.41 30.12,1.04 -12.95,-6.1 -40.39,-11.43 -46.38,-18.87 -6.77,3.5 -13.67,-0.83 -29.2,-3.42 -10.38,-1.73 -19.46,-2.26 -29.41,-4.05 -5.28,0.24 -28.06,-0.14 -31.85,-1.7l-13.28 2.16c-11.73,0.85 -28,2.64 -38.65,6.53 18.56,1.61 81.69,2.08 97.07,8.66 -5.99,3.21 -38.23,2.03 -46.36,2.45 -13.01,0.68 -32.59,2.75 -44.38,8.29 13.11,2.82 68.94,2.51 88.8,4.38 -33.31,2.98 -46.87,6.83 -76.05,14.83l-26.2 8.89 -9.58 7.49 57.85 -12.03c18.72,-3.1 40.94,-7.58 59.67,-7.56 -18.34,8.1 -98.37,26.46 -123.67,46.19l135.18 -34.87c-24.7,9.67 -101.55,29.62 -123.75,50.34 4.79,0.07 40.89,-8.88 50.71,-11.82l50.19 -14.44c-15.5,10.12 -32.98,18.1 -50.38,30.34 -8.62,6.06 -42.84,32.85 -45.52,41.45 44.15,-28.55 105.1,-63 149.78,-80.28 -6.21,6.52 -28.11,19.21 -37.7,25.92 -26.78,18.74 -96.35,66.75 -112.04,86.9 8.05,1.02 16.71,-5.57 23.57,-11.01 11.71,-0.76 94.17,-65.2 107.26,-70.34 -26.09,31.59 -65.05,64.96 -88.19,101.41 21.06,-9.64 83.58,-77.72 105.02,-98.68 -10.49,16.09 -88.25,110.76 -86.53,125.14 16.65,-11.9 51.66,-58.1 67.55,-78.39 1.23,-1.56 21.85,-29.26 21.39,-25.61 -0.04,0.29 0.96,-0.66 1.5,-0.89 -22.53,38.76 -48.22,85.01 -65.41,126.07 24.29,-16.47 63,-96.38 80.67,-124.05 -6.13,28.75 -48.77,120.44 -43.27,140.67 11.22,-13.02 28.73,-59.74 35.5,-77.26 5.54,-14.33 21.24,-65.5 30.38,-72.35 -0.98,34.74 -37.83,127.14 -45.05,160.06 27.54,-35.08 34.1,-70.33 47.92,-105.78l-5.2 113.86z"/>
     <path fill="#78A857" d="M1603.28 2889.99c10.44,-11.61 19.94,-21.07 29.66,-33.08 5.47,-6.77 9.05,-11.53 14.19,-19.12 6.6,-9.74 6.5,-8.98 16.83,-5.94 19.99,-5.35 103.54,50.96 124.62,65.79 8.55,-13.82 2.58,-3.42 1.44,-8.27 -13.17,-4.77 -46.71,-28.91 -62.27,-37.79 -10.35,-5.91 -19.77,-10.84 -30.43,-15.99 -9.83,-4.75 -20.12,-6.76 -29.13,-12.59 -0.39,-0.1 -1.21,0.16 -1.18,-0.24 0.04,-0.59 -1.91,-0.48 -2.57,-0.69 -2.61,-0.86 -1.22,-0.17 -4.48,-1.69 14.63,-21.78 28.59,-67.39 37.31,-91.98l11.22 -46.54c5.9,3.47 8.65,6.19 13.95,6.56 -6.61,-5.71 -8.59,-5.39 -15.92,-8.89 -11.15,-5.32 -33.17,-26.28 -41.73,-33.03 2.08,-4.7 -0.26,-0.72 3.74,-1.45 1.57,-9.81 -3.81,-34.78 -6.95,-47.11 -1.43,-5.58 -3.56,-16.32 -5.63,-22.32 -2.03,-5.85 -6.87,-15.96 -6.9,-21.07 -4.85,-5.63 -2.68,-4.87 -6.81,-10.64 -0.28,6.52 17.94,98.2 15.64,145.29 -4.16,-9.33 -27.96,-128.34 -46.29,-150.4 -0.38,12.41 5.71,32 7.99,44.1 6.64,35.28 23.74,98.92 25.83,130.09 -6.4,-28.67 -34.47,-141.57 -54.94,-165.39 -0.46,7.24 3.55,23.74 4.94,31.77l14.07 64.99c2.06,8.77 6.84,22.54 7.43,31.75 -8.82,-20.74 -19.13,-41.43 -32,-62.81 -6.69,-11.13 -12.75,-20.22 -20.62,-30.55 -3.81,-5 -6.72,-8.94 -11.32,-14.43 -6.73,-8.04 -8.65,-12.93 -16.15,-12.26 10.05,12.65 39.7,73.85 47.38,90.34l36.63 86.09c0.72,4.78 4.68,3.03 -1.89,2.79 -0.9,8.13 -0.43,0.02 0.21,5.14l8.12 19.63c0.2,0.36 0.47,0.81 0.67,1.16 0.2,0.35 0.45,0.81 0.64,1.16 2.77,5.22 7.57,19.05 11.01,22.04 -0.54,-3.83 -10.51,-19.49 -13.61,-23.65 -15.78,-21.24 -12.02,-23.2 -23.02,-20.28l19.46 32.88c3.03,3.87 1.88,2.4 4.38,5.68l-5.93 -5.36c-14.23,-15.93 -13.11,-14.1 -20.68,-11.53l19.26 20.44c-7.5,-5.09 -7.4,-8.83 -28.86,-22.1 0.54,8.8 -1.38,1.17 1.76,8.01l12.3 11.93c1.42,1.22 6.63,5.7 9.93,8.44 2.81,2.34 2.32,5.39 7.22,3.67 -12.5,-7.73 -29.13,-21.1 -38.81,-19.76 2.84,8.43 30.88,25.46 38.68,30.28 0.83,-4.17 -2.05,-2.12 -7.73,-5l-25.54 -12.08c-2.77,-0.98 -4.08,-1.41 -6,-1.38 -7.6,0.13 0.18,-1.44 -7.97,2.01 22.08,13.65 34.15,16.86 43.43,22.6 0.28,-3.35 -0.16,-1.64 -6.38,-3.91 -4.55,-1.67 -5.3,-1.96 -10.4,-3.44 -10.48,-3.03 -13.5,-5.87 -23.76,-2.84l18.51 11.44c-0.35,-3.43 0.45,-0.99 -3.71,-1.83l-20.59 -3.16c-4.84,-0.77 -9.06,-1.15 -13.63,-1.4 -3.2,-0.18 -3.53,-0.36 -6.54,-0.05l-7.98 1.87c4.05,4.96 2.98,2.53 -7.04,2.4l-75.97 1.42c-19.8,0.99 -73.21,1.34 -85.64,9.31 28.91,10.58 190.49,2.5 191.95,5.73 7.28,4.19 12.61,3.12 26.37,3.01 3.71,-0.03 1.74,-0.02 5.35,-0.29 3.22,-0.24 4.81,-0.53 8.06,0.19 -0.66,-4.2 -10.1,-0.47 -18.06,0.97l-5.12 0.62c-3.65,0.31 -4.85,0.38 -7.87,0.49 0.49,2.4 -9.46,6.32 7.88,8.02l21.93 -2.36 -33.75 11.03c-2.32,8.01 -3.2,2.03 -1.38,6.9 11.58,0.38 15.22,-7.59 27.19,-6.63 -11.62,10.81 -68.5,34.98 -84.14,42.01 -13.73,6.16 -27.63,11.56 -41.93,17.3 -11.24,4.52 -33.58,11.53 -41.98,16.48 23.97,5.14 121.61,-28.03 146.35,-48.78 -1.42,8.38 -59.21,42.5 -65.54,46.35l-68.16 41.11c3.44,0.14 3.93,-0.42 6.59,-0.98l7.19 -1.33c1.09,-4.5 0.13,-2.09 2.04,-1.19l47.46 -19.51c23.96,-12.19 50.37,-27.35 71.55,-45.2 -0.65,10.88 -100.96,78.92 -110.17,87.33 22.04,-0.32 87.86,-49.12 104.89,-61.67 11.23,-8.27 21.22,-20.36 31.85,-28.63z"/>
     <path fill="#74A453" d="M1543.38 2805.89l7.98 -1.87c3.01,-0.31 3.34,-0.13 6.54,0.05 4.57,0.25 8.79,0.63 13.63,1.4l20.59 3.16c4.16,0.84 3.36,-1.6 3.71,1.83l-18.51 -11.44c10.26,-3.03 13.28,-0.19 23.76,2.84 5.1,1.48 5.85,1.77 10.4,3.44 6.22,2.27 6.66,0.56 6.38,3.91 -9.28,-5.74 -21.35,-8.95 -43.43,-22.6 8.15,-3.45 0.37,-1.88 7.97,-2.01 1.92,-0.03 3.23,0.4 6,1.38l25.54 12.08c5.68,2.88 8.56,0.83 7.73,5 -7.8,-4.82 -35.84,-21.85 -38.68,-30.28 9.68,-1.34 26.31,12.03 38.81,19.76 -4.9,1.72 -4.41,-1.33 -7.22,-3.67 -3.3,-2.74 -8.51,-7.22 -9.93,-8.44l-12.3 -11.93c-3.14,-6.84 -1.22,0.79 -1.76,-8.01 21.46,13.27 21.36,17.01 28.86,22.1l-19.26 -20.44c7.57,-2.57 6.45,-4.4 20.68,11.53l5.93 5.36c-2.5,-3.28 -1.35,-1.81 -4.38,-5.68l-19.46 -32.88c11,-2.92 7.24,-0.96 23.02,20.28 3.1,4.16 13.07,19.82 13.61,23.65 -3.44,-2.99 -8.24,-16.82 -11.01,-22.04 -0.19,-0.35 -0.44,-0.81 -0.64,-1.16 -0.2,-0.35 -0.47,-0.8 -0.67,-1.16l-8.12 -19.63c-0.64,-5.12 -1.11,2.99 -0.21,-5.14 -0.95,-10.58 -107.99,-178.37 -124.19,-186.19 -0.5,11.6 33.77,68 41.89,82.23 8.24,14.45 16.52,27.46 24.57,40.13l24.95 41.91 -88.08 -88.62c-5.54,-5.04 -10.5,-9.58 -16.26,-14.73 -2.59,-2.32 -5.83,-5.59 -7.66,-7.15 -4.25,-3.62 -5.19,-4.26 -8.4,-3.92l49.6 60.99c5.69,6.77 51.03,54.89 53.28,62.41 -24.19,-17.7 -64.83,-55.47 -95.75,-79.78 -5.44,-4.28 -25.37,-20.29 -32.01,-21.84 -6.22,-1.45 0.22,-1.33 -6.02,0l60.25 58.6c5.91,5.41 61.04,51.08 63.85,58.26 -23.42,-13.34 -136.98,-87.74 -151.74,-88.36 22.6,29.8 114.23,84.02 146.36,105.59 -10.61,-1.82 -69.68,-29.49 -85.84,-35.95 -14.46,-5.78 -72.35,-30.74 -82.38,-25.89 37.76,30.84 139.49,63.91 177.25,85.23 -2.32,4.45 4.21,6.62 -11.95,1.84 -53.74,-15.89 -93.5,-29.07 -145.84,-49.99l-23.72 -8.59c-0.64,0.43 -1.16,-0.18 -1.75,-0.2l5.86 6.66c29.77,24.33 87.53,42.74 109.17,53.82l-120.08 -13.8c-6.24,-0.52 -10.42,-1.59 -16.31,-0.09 30.59,16.55 168.26,42.47 185.39,38.04z"/>
     <path fill="#2C5A1C" d="M1839.87 2722.64c12.01,1.26 29.35,-0.15 39.61,-1.6 7.33,-1.04 12.58,-1.84 19.02,-3 5.62,-1.02 12.62,-3.6 18.88,-4.32 13.19,-4.31 42.31,-13.54 55.37,-24.97 -13.52,1.81 -58.93,18.27 -91.16,21.6 17.94,-5.29 67.07,-19.88 84.44,-35.88 -12.61,3.16 -21.47,6.05 -34.74,9.78 -4.6,1.29 -30.71,8.67 -33.42,10.26 22.22,-14.19 54.22,-24.96 75.11,-51.9 -22.6,11.9 -60.06,38.37 -81.1,43.17 20.02,-18.03 55.34,-37.29 77.58,-63.61 -17.89,5.53 -58.6,43.75 -77.96,50.26 8.94,-8.71 22.83,-18.16 33.14,-26.99l24.11 -22.19c3.96,-4.37 4.45,-5.95 4.33,-9.63l-65 45.15c13.53,-19.36 41.02,-41.85 52.89,-75.38 -2.58,1.15 -0.32,-0.4 -3.99,2.64l-41.39 47.33c-14.98,16.16 -30.01,31.21 -45.14,45.07 10.27,-17.76 30.43,-41.57 43.44,-59.85l38.04 -62.77c-0.25,0.15 0.08,-1.15 0,-1.71 -6.66,6.18 -30.08,37.54 -35.05,39.63l-35.76 50.55 26.61 -68.02c1.51,-3.97 3.01,-7.45 4.45,-11.49 0.78,-2.18 1.23,-3.37 1.67,-5.84 1.1,-6.28 0.48,-1.38 0.21,-4.61 -19.02,26.67 -30.34,57.89 -46.02,85.71l16.38 -53.11c4.16,-13.54 14.7,-39.84 11.85,-51.28 -17.8,23.7 -29.95,82.36 -42.66,109.17 2.13,-9.74 19.99,-103.07 16.33,-115.66 -17.05,34.53 -19.27,83.76 -26.41,105.44 -0.81,-7.5 -0.31,-86.19 0.53,-88.64l-1.47 -5.64c-0.97,-6.09 0.29,-9.68 -3.11,-16.25 -6.51,12.95 -7.45,76.18 -7.86,96.3 -0.18,9.37 1.65,24.58 -3.47,32.08 -4.87,-31.83 -7.51,-126.27 -7.97,-128.17 -11.15,24.89 -7.15,63.94 -8.47,86 -7.72,-20.68 -14.57,-65.61 -24.71,-83.38 -4.14,25.08 14.64,99.75 21.96,121.75 -11.08,-19.88 -33.81,-84.85 -48.48,-99.96 -2.48,14.81 33.4,86.95 35.05,99.18 -10.21,-11.66 -34.84,-63.35 -52.41,-80.12 2.29,12.11 26.96,58.65 32.85,69.78 3.88,7.34 9.42,15.19 11.92,22.31 -12.47,-12.08 -25.78,-29.78 -38.05,-43.91 -32.18,-37.04 -13.35,-13.61 -22.68,-46.35l-2.65 18.07 -12.53 -10.79 -5.01 -3.17c7.58,5.16 0.46,-1.02 0.35,3.97l17.13 24.97 9.36 11.84c8.95,8.23 37.11,44.1 50.53,59.16 7.9,8.87 20.98,20.03 12.29,16.41 1.43,6.49 -7.19,0.62 2.54,6.19l2.66 -1.65c5.58,-2.52 1.65,0.32 8.22,0.46 -1.71,-2.62 -2.45,-3.93 -3.93,-7.05 -2.99,-6.25 -2.84,-2.29 -1.7,-6.63l7.35 9.6c0.07,-4.45 -1.29,-6.85 -3.6,-9.88 0.38,-0.25 0.95,-0.42 1.25,-0.55l2.86 -1.18c2.19,-0.97 1.48,-0.06 5.3,-2.59 -4.64,-2.88 -6.93,0.13 -2.56,-13.3 1.1,4.51 2.17,12.21 6.46,16.05 0.23,-6.56 -1.13,-6.72 0.66,-15.88 2,4.65 0.42,-0.04 1.31,4.52 1.16,5.99 -0.18,17.71 2.92,25.22 -0.05,-7.12 -0.08,-19.4 2.55,-25.82 5.12,7.77 0.47,5.15 3.39,12.88 4.39,-8.1 0.75,-6.06 5.76,-14.72 0.22,0.61 0.39,1.35 0.48,1.89l0.64 3.56c0.39,5.04 0.14,-3.85 -0.08,3.08 -0.15,4.78 -1.85,0.16 -0.07,6.44l8.8 -15.02 -3.46 14.67c-0.46,2.88 -0.38,2.53 -0.38,4.36l9.86 -15 -6.96 18.98c-0.05,0.29 0.21,0.75 -0.06,1.35 -0.27,0.58 -0.1,0.9 -0.33,1.04l18.38 -19.28 -15.27 22.85c4.49,-1.2 5.71,-1.04 10.73,-7.92 0.45,3.87 -2.55,9.56 -2.99,11.76 2.64,-3.15 7.09,-7.98 10.96,-7.57 7.19,0.75 -2.75,-2.38 2.24,1.35 5.68,4.24 5.31,7.57 4.24,2.05 -1.58,5.82 -2.48,7.96 -7.19,13.3 2.11,0.4 4.13,0 6.66,5.51 -10.5,-0.43 -12.57,6.11 -14.4,9.54z"/>
     <path fill="#28130E" d="M1986.03 2874.47c-3.54,-8.46 -5.03,-17.19 -17.91,-29.62 -7.71,10.89 -18.44,19.44 -27.91,24.98 6.44,0.61 10.76,-1.45 18.05,-0.29l-67.62 24.29c7.47,1.19 9.94,-0.09 16.5,-0.17 14.18,-0.17 38.75,0.15 51.84,5 -0.46,0.19 -1.44,0.84 -1.41,0.48 0.03,-0.36 -1.08,0.37 -1.4,0.45l-96.42 7.93c-3.28,1.98 -2.84,0 -4.59,2.56 -0.11,0.16 -0.31,0.72 -0.38,0.87 -0.08,0.17 -0.14,0.85 -0.2,0.99 -0.05,0.15 -0.2,0.72 -0.1,1.06l53.19 -0.23c10.3,-0.12 45.4,-0.6 54.14,3.29 -8.82,5.27 -86.36,8.78 -101.76,8.03 25.43,6.62 72.09,6.01 99.15,20.14 -29.36,1.91 -69.94,-8.43 -99.89,-9.15 16.97,8.16 64.37,16.41 94.01,31.87 -6.59,1.77 -14.81,-0.7 -21.62,-2.16l-41.83 -10.7c-8.02,-2.28 -14.85,-5.29 -22.08,-4.1 22.76,12.56 48.17,20.24 71.48,34.85 -14.6,-0.74 -75.75,-23.28 -90.69,-32.15 19.05,15.71 79.09,49.59 90.06,65.5 -14.42,1.94 -82.17,-50.17 -102.28,-58.94l-0.83 -1.57c2.75,8.76 30.43,30.39 37.22,35.94 14.15,11.57 28.27,22.4 42.76,33.35 -22.29,-1.09 -55.06,-31.69 -72,-45.18 8.26,8.89 40.01,50.68 43.28,59.81 -20.12,-12.05 -33.58,-33.86 -49.39,-48.15l10.44 16.41c8.34,11.53 28.16,35.17 31.62,43.94 -23.33,-18.18 -38.64,-44.68 -57.57,-63.61 0.09,0.5 0.25,1.15 0.35,1.5l3.71 8.99c9.25,16.19 24.59,43.24 35.72,56.37 -23.45,-14.48 -36.67,-46.08 -48.76,-62.88l19.96 57.83c-16.39,-13.69 -30.17,-61.7 -36.63,-77.24 0.52,17.42 21.32,69.84 24.07,84.54 -10.05,-11.23 -25.09,-46.32 -27.6,-60.06 -1.65,-9.01 -4.08,-13.08 -4.58,-21.48 -1.95,0.37 -2.34,-1.06 -7.39,6.4 -12.53,18.47 -18.35,39.15 -22.43,58.81l18.59 13.11c10.52,6.83 18.92,16.23 30.6,21.52 41.4,5.14 96.76,-14 133.48,-51.32 21.48,-21.84 36.36,-50.37 43.68,-78.89 4.84,-18.87 7.32,-62.25 1.37,-72.92z"/>
     <path fill="#28130E" d="M1790.02 2889.37l3.09 -5c-0.17,-1.6 -1.58,-0.79 1.34,-10.28 0.75,-2.46 2.05,-5.87 3.05,-8.61 2.04,-5.54 4.02,-10.81 6.1,-16.71l0.02 -3.01c2.09,-25.13 14.65,-63.24 8.88,-102l-3.15 -8.29c-50.63,2.37 -104.5,26.65 -141.16,87.53 9.01,5.83 19.3,7.84 29.13,12.59 10.66,5.15 20.08,10.08 30.43,15.99 15.56,8.88 49.1,33.02 62.27,37.79z"/>
     <path fill="#28130E" d="M1837.86 2861.42c11.82,-11.29 63.73,-61.02 76.03,-62.76 -16.06,26.88 -55.92,53.44 -75.4,76.85 7.64,-2.77 32.68,-19.13 41.55,-24.22 13.71,-7.86 29.54,-14.14 41.28,-21.38 -15.57,18.46 -54.15,36.7 -72.49,52.21l87.57 -36.17c-4.47,6.91 -30.93,19.85 -38.79,23.86 -11.48,5.85 -32.34,14.36 -41.41,21.2l73.94 -20.02c12.66,-9.72 25.95,-14.36 36.6,-31.48 -6.3,-14.22 -6.43,-24.64 -8.79,-30.3 -2.73,-6.53 -4,-3.93 -6.25,-10.33 -33.3,-39.26 -87.11,-66.09 -133.34,-63.44 -3.24,7.65 0.11,4.45 0.86,21.06 1.11,24.39 -4.15,59.94 -2.8,65.75l13.68 -18.96c5.4,-7.78 11.69,-16.54 18.45,-20.13 -9.03,15.99 -28.94,45.38 -31.41,61.1 11.29,-17.34 19.59,-28.96 33.64,-43.85l13 -10.5 -44.3 68.49c0.41,-0.25 0.93,-0.61 1.19,-0.81l6.55 -6.26c28.15,-32.55 27.55,-24.83 49.15,-45.01 0.03,3.29 0.83,1.53 -1.6,5.83 -0.29,0.5 -3.62,4.1 -4.1,4.58 -15.94,15.92 -48.05,55.53 -53.71,59.09l-5.72 11.02 26.62 -25.42z"/>
     <path fill="#30CBF2" d="M2030.21 2945.08l1.94 -28.56c0.34,-0.07 0.83,0.49 1.35,0.1l2.97 0.36c0.4,0.08 1,0.21 1.42,0.3 2.49,0.55 2.18,1.03 4.98,1.48 -18.19,-10.01 -31.41,-19.22 -45.13,-34.81 -14.33,-16.29 -8.22,-10.52 -11.71,-9.48 5.95,10.67 3.47,54.05 -1.37,72.92 -7.32,28.52 -22.2,57.05 -43.68,78.89 -36.72,37.32 -92.08,56.46 -133.48,51.32 1.78,4.85 33.94,34.7 40.81,43.16 9.78,-7.43 99.73,-9.53 157.22,-110.14 6.04,-10.58 11.15,-22.33 15.02,-33.41 3.08,-8.82 6.19,-26.32 9.66,-32.13z"/>
     <path fill="#28130E" d="M1731.86 3032.69l20.76 6.51c4.39,-11.75 4.32,-19.79 11.35,-34.92 5.47,-11.77 12.37,-24.89 20.69,-35.62 3.03,-6.87 -1.14,-23.19 0.96,-34.44l-1.31 -15.76c-10.93,-4.72 -91.23,8.55 -103.76,11.69 -5.87,1.47 -10.45,1.95 -16.33,3.12 -4.91,0.97 -13.27,0.98 -13.91,5.93 2.29,15.95 16.27,60.29 35.17,74.62 5.99,7.44 33.43,12.77 46.38,18.87z"/>
     <path fill="#2C5A1C" d="M1408.2 3172.67l-2.53 20.32 7.78 -7.72c-0.63,-6.68 4.28,-20.07 6.11,-27.18l11.93 -50.14c1.62,-7.98 2.39,-19.87 6.98,-23.13 -3.49,-8.61 -5.16,2.7 -3.21,-10.41l-7.8 11.16 0.45 -8.41 -5.62 8.52c0.49,-6.27 -1.45,3.95 0.53,-4.35l1.01 -4.9c0.09,-0.48 0.25,-1.18 0.29,-1.78l-8.51 10.29c-0.2,-4.45 1.08,-5.64 3.99,-10.9 -4.16,2.4 -7.01,3.4 -10.56,5.17l11.05 -10.16 -12.74 5.75 9.94 -11.3c-2.52,2.39 -9.76,5.39 -14.53,5.35l11.74 -8.48 -13.3 2.93c5.29,-4.32 5.1,-2.28 7.65,-6.19l4.83 -5.25c-4.66,-0.34 -13.39,0.21 -18.12,-2.22 2.64,-0.21 6.61,-0.42 9.47,-0.74l8.01 -1.14c0.42,-0.06 1.13,-0.16 1.47,-0.21 0.34,-0.05 1,-0.15 1.49,-0.21 -6.3,-1.94 -16.08,-1.18 -19.39,-4.66 5.48,-0.38 5.49,0.9 12.25,-0.15 -4.16,-3.09 -2.44,1.68 -5.01,-4.95 -2.36,-6.08 3.19,-1.51 -1.09,-4.3 -10.34,-3.11 -22.01,-5.73 -29.48,-11.3 -9.67,-8.12 -54.52,-14.33 -66.57,-14.65 16.16,9.42 39.91,13.12 56.52,20.87 -11.12,0.31 -22.72,-1.8 -35.55,-1.24 -6.34,0.28 -10.58,0.73 -16.78,1.24 -7.62,0.62 -10.01,1.67 -16.96,3.29 13.83,3.79 72.24,2.58 96.63,10.9 -12.46,3.5 -83.97,-1.78 -108.8,6.32l2.47 3.25 11.22 -0.33c21.38,2.05 61.41,-0.78 74.54,1.35 -13.81,6.68 -52.99,11.09 -70.81,20.18 11.92,1.11 27.51,-3.04 39.64,-4.49 11.46,-1.37 25.5,-5.56 37.4,-6.73 -16.81,6.23 -66.25,20.55 -79.7,30.64 10.78,1.68 68.03,-18.25 82.94,-22.41 -15.32,10.52 -56.16,26.82 -74.36,41.5 15.69,0.76 60.63,-25.73 70.84,-27.67 -12.44,11.55 -53.15,37.03 -60.29,49.77 20.06,-5.63 58.81,-38.77 81.01,-52.81 0.52,3.15 3.85,-1.81 -2.02,6.12 0,0.01 -4.25,4.01 -4.39,4.13 -3.16,2.79 -5.67,4.97 -8.77,7.69l-56.5 46.12c21.04,-4.98 41.53,-24.93 53.25,-29.94l-37.09 49.91c15.84,-9.21 54.86,-52.85 65.66,-71.15 -6.96,13.34 -14.33,26.26 -21.45,39.35 -5.92,10.87 -18.52,29.65 -15.6,38.03l40.44 -62.48c-0.11,0.47 -0.21,1.02 -0.35,1.54l-4.72 11.89c-2.28,5.49 -4.28,10.3 -6.45,15.78 -2.13,5.43 -3.84,10.27 -5.84,15.79 -0.87,2.4 -2.48,6.53 -3.06,8.84l-0.78 5.9c-0.29,0.67 -0.04,1 -0.01,1.49 14.09,-21.25 21.67,-43.99 34.06,-65.4l-14.85 68.1z"/>
     <path fill="#28130E" d="M1785.4 2910.39l3.18 -12.75c-21.08,-14.83 -104.63,-71.14 -124.62,-65.79 -8.88,16.37 -13.06,33.59 -15.45,50.33 -1.33,9.34 -2.04,14.41 -1.95,24.03 0.07,8.74 1.39,15.87 1.64,22.84l67.42 -11.82c15.71,-2.22 56.03,-7.76 69.78,-6.84z"/>
     <path fill="#345926" d="M2034.82 2880.18c1.77,-0.95 4.15,-3.66 10.22,-0.46l-13.95 -6.28c0.78,-4.23 2.83,-0.57 2,-8.25 -0.38,-3.52 -0.51,-1.67 0.06,-5.28 0.27,-1.72 0.93,-0.6 1.22,-4.44l-10.34 -4.09c8.54,-4.02 53.93,-0.14 65.93,-1.71 7.46,-0.97 13.2,-0.45 19.89,-1.47 -6.09,-3.23 -10.74,-2.25 -17.9,-4.39 -1.03,0.46 -56.06,-2.04 -61.74,-2.84 17.15,-4.08 52.25,-8.42 66.48,-15.44 -19.12,-1.09 -50.81,4.19 -69.18,7.09 13.52,-3.01 61.17,-17.76 71.22,-23.76 -10.9,-0.99 -28.81,4.08 -39.18,7.02l-38.08 10.29c3.63,-0.24 66.71,-30.23 72.77,-35.8 -22.09,7.37 -41.56,9.72 -69.56,25.37 14.82,-13.5 45.54,-26.42 58.88,-43.78 -19.96,3.35 -60.91,38.69 -73.19,40.48 17.87,-20.14 59.99,-44 66.38,-52.09 -4.3,2.37 -43.06,16.19 -52.21,29.42 10.59,-16 27.78,-29.58 37.91,-47.16 -11.7,7.3 -52.59,44.96 -59,57.55 6.59,-14.42 35.47,-51.13 35.49,-63.21 -11.03,6.47 -29.89,44.81 -40.09,54.51l24.72 -57.99c-11.56,12.23 -21.13,33.45 -29.88,48.25 -5.04,-12.08 13.13,-45 11.83,-66.39 -7.71,5.09 -14.64,36.62 -17.91,47.4l-10.72 36.62c-0.31,1.35 -1.08,4.45 -1.26,5.41 -0.8,4.3 -0.35,4.33 -0.24,4.5 3.21,8.35 3.57,-3.25 1.96,4.31 -0.19,0.88 0.52,1.22 0.29,1.76l5.98 -11.18c0.75,2.05 4.55,6.04 -1.34,7.24 2.77,-0.81 2.01,-0.83 5.39,-0.51l4.07 1.15c5.56,1.28 -0.93,-3.65 9.81,2.58l4.31 19.86c-3.83,2.28 -4.76,1.93 -6.59,4.43 4.72,-1.58 7.67,1.7 9.6,3.4l-5.98 6.28c-3.09,2.2 -1.78,-1.37 -1.18,3.25l0.69 2.63c-0.22,0.66 0.34,1 0.46,2.25l-7.8 -0.36c3.66,3.99 1.51,5.61 1.51,5.68 0,0.15 0.02,0.83 0.02,0.97 0,0.26 0.2,1.81 0.37,2.34l-9.45 -3.97c1.25,-0.14 0.39,-3.56 1.52,0.32l-2.03 3.96c-0.37,0.6 -0.68,0.8 -0.8,1.29 3.3,2.77 2.2,1.92 4.74,4.63 3.91,4.16 -0.54,-0.05 5.33,5.67 6.83,6.67 25.82,25.6 33.31,28.26 5.01,-5.07 0.08,-2.37 6.28,-1.69 0.58,0.06 5.41,2.33 6.17,2.74 3.9,2.1 6.45,3.56 10.62,5.57l-11.06 -10.99c-5.26,-4.16 -7.7,-4.58 -9.65,-10.15 9.79,1 25.51,12.84 40.27,12.14 -9.62,-5.63 -32.48,-14.9 -39.73,-20.96 -3.44,-2.87 -2.22,-2.3 -2.58,-3.44l4.92 1.46z"/>
     <path fill="#74A453" d="M1401.21 2907.85c6.88,-4.29 31.67,-8.99 43.78,-12.86 24.18,-7.75 115.27,-33.02 125.1,-41.66 -1.82,-4.87 -0.94,1.11 1.38,-6.9l33.75 -11.03 -21.93 2.36c-17.34,-1.7 -7.39,-5.62 -7.88,-8.02 3.02,-0.11 4.22,-0.18 7.87,-0.49l5.12 -0.62c7.96,-1.44 17.4,-5.17 18.06,-0.97 -3.25,-0.72 -4.84,-0.43 -8.06,-0.19 -3.61,0.27 -1.64,0.26 -5.35,0.29 -13.76,0.11 -19.09,1.18 -26.37,-3.01 -5.92,-2.58 -37.28,3.2 -43.98,4.11 -14.95,2.04 -27.79,3.88 -43.23,6.35l-87.33 18.51c12.8,3.13 69.16,-1.97 84.4,-3.22 26.42,-2.16 57.1,-5.39 81.07,-9.55 -9.48,5 -35.1,11.91 -45.63,15.22 -25.84,8.12 -124.14,40.69 -136.29,53.37 5.81,1.67 7.81,0.89 13.51,-0.45l12.01 -1.24z"/>
     <path fill="#30CBF2" d="M1668.19 2823c36.66,-60.88 90.53,-85.16 141.16,-87.53 4.26,-15.2 -12.51,-13.77 -23.14,-20.81 -11.63,2.05 -26.64,-10.77 -38.33,-11.55 -1.03,2.35 -18.77,8.5 -24.95,11.6 -6.48,3.25 -19.4,11.92 -25.66,13.69 -8.72,24.59 -22.68,70.2 -37.31,91.98 3.26,1.52 1.87,0.83 4.48,1.69 0.66,0.21 2.61,0.1 2.57,0.69 -0.03,0.4 0.79,0.14 1.18,0.24z"/>
     <path fill="#74A453" d="M1854.48 2913c-3.97,3.9 -5.46,4.11 -8.01,6.34l9 6.26 -24.72 -0.91c9.66,3.82 15.72,4.2 24.41,9.85 -5.31,0.84 -19.97,-2.06 -25.67,-5.09 1.74,3.46 10.04,5.69 16.39,10.02 -8.59,0.71 -17.92,-2.08 -25.7,-6.4 6.47,4.94 15.28,9.17 19.28,15.3 -9.64,2.05 -19.77,-9.32 -33.98,-16.97 7.32,-0.29 33.29,31.48 47.34,33.74 -3.46,-2.14 -11.19,-7.98 -16.46,-5.89 20.11,8.77 87.86,60.88 102.28,58.94 -10.97,-15.91 -71.01,-49.79 -90.06,-65.5 14.94,8.87 76.09,31.41 90.69,32.15 -23.31,-14.61 -48.72,-22.29 -71.48,-34.85 7.23,-1.19 14.06,1.82 22.08,4.1l41.83 10.7c6.81,1.46 15.03,3.93 21.62,2.16 -29.64,-15.46 -77.04,-23.71 -94.01,-31.87 29.95,0.72 70.53,11.06 99.89,9.15 -27.06,-14.13 -73.72,-13.52 -99.15,-20.14 15.4,0.75 92.94,-2.76 101.76,-8.03 -8.74,-3.89 -43.84,-3.41 -54.14,-3.29l-53.19 0.23z"/>
     <path fill="#74A453" d="M1835.53 2957.68c-4.56,-2.54 -11.57,-5.39 -15.35,-4.23l8.6 12.31c-0.61,-0.15 -2.86,-1.04 -3.35,-1.08l-5.23 0.1c0.42,0.39 0.81,1.39 1.29,1.15l3.28 5.36c-24.25,-27.66 -11.52,-16.34 -19.59,-14.49 5.24,5.13 8.42,12.38 12.85,15.92l-13.98 -12.67c0.25,0.09 0.41,4.15 0.36,4.54 -0.7,5.86 0.84,0.51 -6.97,3.24 -7.83,-14.64 -8.81,-9.27 -10.4,-23.85 -0.41,-3.7 -0.71,-5.15 -1.42,-9.76 -2.1,11.25 2.07,27.57 -0.96,34.44 4.57,5.39 3.21,2.97 3.47,9.1 0.5,8.4 2.93,12.47 4.58,21.48 2.51,13.74 17.55,48.83 27.6,60.06 -2.75,-14.7 -23.55,-67.12 -24.07,-84.54 6.46,15.54 20.24,63.55 36.63,77.24l-19.96 -57.83c12.09,16.8 25.31,48.4 48.76,62.88 -11.13,-13.13 -26.47,-40.18 -35.72,-56.37l-3.71 -8.99c-0.1,-0.35 -0.26,-1 -0.35,-1.5 18.93,18.93 34.24,45.43 57.57,63.61 -3.46,-8.77 -23.28,-32.41 -31.62,-43.94l-10.44 -16.41c15.81,14.29 29.27,36.1 49.39,48.15 -3.27,-9.13 -35.02,-50.92 -43.28,-59.81 16.94,13.49 49.71,44.09 72,45.18 -14.49,-10.95 -28.61,-21.78 -42.76,-33.35 -6.79,-5.55 -34.47,-27.18 -37.22,-35.94z"/>
     <path fill="#2C5A1C" d="M1848.31 3120.76c-6.87,-8.46 -39.03,-38.31 -40.81,-43.16 -11.68,-5.29 -20.08,-14.69 -30.6,-21.52l20.3 26.33c-4.37,2.74 1.5,-0.59 -7.98,1.4 2.16,2.81 6.29,9.76 2.99,8.5 1.79,2.45 -8.72,-15.52 -14.32,-20.52l3.9 24.38c0.15,0.44 0.39,1.03 0.52,1.31l3.65 7.31c21.64,37.9 27.74,47.14 47.42,89.81 5.15,11.19 9.43,22.88 14.62,32.23 0.91,-18.48 -15.1,-61.85 -24.66,-81.14l-12.68 -26.52c8.88,6.69 30.02,38.37 36.78,48.55 9.42,14.18 21.8,34.97 31.64,47.02 -2.25,-14.01 -11.27,-32.13 -19.47,-47.39l-21.43 -34.32c-0.51,-0.7 -3.97,-5.56 -4.08,-5.75 -3.12,-5.76 -1.37,-1.99 -2.27,-5.98 11.63,9.98 24.39,26.26 34.1,38.02 8.55,10.33 21.02,27.92 29.65,35.89 -6.19,-17.93 -29.91,-58.34 -47.27,-74.45z"/>
     <path fill="#368805" d="M1784.01 3109.3l-6.44 -17.77 4.22 4.64 -3.9 -24.38c5.6,5 16.11,22.97 14.32,20.52 3.3,1.26 -0.83,-5.69 -2.99,-8.5 9.48,-1.99 3.61,1.34 7.98,-1.4l-20.3 -26.33 -18.59 -13.11c4.08,-19.66 9.9,-40.34 22.43,-58.81 5.05,-7.46 5.44,-6.03 7.39,-6.4 -0.26,-6.13 1.1,-3.71 -3.47,-9.1 -8.32,10.73 -15.22,23.85 -20.69,35.62 -7.03,15.13 -6.96,23.17 -11.35,34.92l-20.76 -6.51c-3.58,0.37 -25.37,-2.71 -30.12,-1.04 -6.15,2.16 -1.83,-1.43 -1.31,2.56l1.89 4.5c-4.88,-0.26 -4.49,0.19 -9.02,0.63 9.41,0.99 4.4,-1.77 14.13,1.69 -10.17,8.65 -15.52,2.7 -19.81,9.46 1.64,-3.23 3.04,-1.75 6.58,-0.64 -0.17,0.56 -0.56,1.21 -0.76,1.59l4.4 2.38 -1.35 4.91c-1.4,4.1 -2.03,-0.41 -1.49,4.14 4.99,-3.31 11.79,-5.58 16.25,-3.5 -5.01,3.22 -14.88,9.11 -19.14,15.8 12.46,-4.96 23.78,-15.94 36.71,-18.65 -7.27,8.92 -34.37,21.71 -36.28,30.14 6.61,-3.09 19.86,-11.2 25.33,-17.78 1.29,7.56 -2.18,9.21 -8.22,15.97 -2.6,2.91 -5.51,6.66 -7.21,10.58 4.27,-5.58 20.6,-20.55 25.4,-24.35 -4.67,7.44 -17.88,22.81 -17.81,30.13l22.9 -26.88 -14.85 32.31 19.91 -29.68c-2.6,11.54 -10.3,24.87 -9.76,35.84l15.27 -33.49c1.13,6.3 -0.52,9.96 -2.64,16.15 -1,2.9 -5.32,13.24 -2.68,15.96l10.09 -23.53c0.08,4.12 -0.97,29.21 -1.87,30.64 6.14,-11.35 5.71,-29.82 8.17,-41.63l4.9 39.17c1.26,-7.17 0.64,-13 0.18,-19.74 -0.45,-6.78 -0.39,-13.22 0.1,-20.49 1.03,7.48 6.12,27.3 9.1,33.22l-4.73 -36.54c5.96,13.1 11.03,32.2 19.89,36.78z"/>
     <path fill="#88B66A" d="M1835.53 2957.68l0.83 1.57c5.27,-2.09 13,3.75 16.46,5.89 -14.05,-2.26 -40.02,-34.03 -47.34,-33.74 14.21,7.65 24.34,19.02 33.98,16.97 -4,-6.13 -12.81,-10.36 -19.28,-15.3 7.78,4.32 17.11,7.11 25.7,6.4 -6.35,-4.33 -14.65,-6.56 -16.39,-10.02 5.7,3.03 20.36,5.93 25.67,5.09 -8.69,-5.65 -14.75,-6.03 -24.41,-9.85l24.72 0.91 -9 -6.26c2.55,-2.23 4.04,-2.44 8.01,-6.34 -0.1,-0.34 0.05,-0.91 0.1,-1.06 0.06,-0.14 0.12,-0.82 0.2,-0.99 0.07,-0.15 0.27,-0.71 0.38,-0.87 1.75,-2.56 1.31,-0.58 4.59,-2.56 -1.05,-2.56 0.06,-1.01 -2.56,-3.7 -3.93,-4.04 -1.17,-1.8 -6.4,-5.1 1.07,-0.8 5.15,-3.55 5.39,-3.79 -12.88,5.86 -0.18,-4.38 -19.5,0.61 0.3,-3.29 -0.52,0.64 5.55,-6.94l-9.16 -2.12 8.52 -8.03c-24.64,11.91 -12.2,-1.45 -27.02,14.31 2.67,-9.02 20.94,-17.17 23.22,-27.85l0.07 -3.49 -26.62 25.42 5.72 -11.02c5.93,-9.83 1.32,-1.88 1.18,-6.51 -3.85,4.67 -15.55,13.71 -15.59,18.46l4.76 -27.28c-5.18,7.88 -9.69,16.3 -14.2,23.88l-3.09 5c1.14,4.85 7.11,-5.55 -1.44,8.27l-3.18 12.75 -1.09 8.07 1.31 15.76c0.71,4.61 1.01,6.06 1.42,9.76 1.59,14.58 2.57,9.21 10.4,23.85 7.81,-2.73 6.27,2.62 6.97,-3.24 0.05,-0.39 -0.11,-4.45 -0.36,-4.54l13.98 12.67c-4.43,-3.54 -7.61,-10.79 -12.85,-15.92 8.07,-1.85 -4.66,-13.17 19.59,14.49l-3.28 -5.36c-0.48,0.24 -0.87,-0.76 -1.29,-1.15l5.23 -0.1c0.49,0.04 2.74,0.93 3.35,1.08l-8.6 -12.31c3.78,-1.16 10.79,1.69 15.35,4.23z"/>
     <path fill="#30CBF2" d="M1951.7 2798.88c4.95,1.8 -0.72,2.75 4.37,0.17 -5.05,-17.08 -4.42,-36.3 -2.66,-54.3l0.43 -5.81c-0.25,0.18 0.06,-1 0.07,-1.51 -4.24,0.28 0.22,1.01 -4.02,-0.56 -1.44,-0.53 -2.49,-1.14 -3.78,-1.95 -5.22,-3.28 -27.44,-16.69 -28.73,-21.2 -6.26,0.72 -13.26,3.3 -18.88,4.32 -6.44,1.16 -11.69,1.96 -19.02,3 -10.26,1.45 -27.6,2.86 -39.61,1.6 -2.94,0.47 -8.16,0 -13.85,0.05l-13.01 1.03c1,4.35 0.98,7.92 5.35,11.72 46.23,-2.65 100.04,24.18 133.34,63.44z"/>
     <path fill="#74A453" d="M1859.75 2907.52l96.42 -7.93c0.32,-0.08 1.43,-0.81 1.4,-0.45 -0.03,0.36 0.95,-0.29 1.41,-0.48 -13.09,-4.85 -37.66,-5.17 -51.84,-5 -6.56,0.08 -9.03,1.36 -16.5,0.17l67.62 -24.29c-7.29,-1.16 -11.61,0.9 -18.05,0.29l-10.07 1.16 -73.94 20.02c9.07,-6.84 29.93,-15.35 41.41,-21.2 7.86,-4.01 34.32,-16.95 38.79,-23.86l-87.57 36.17c18.34,-15.51 56.92,-33.75 72.49,-52.21 -11.74,7.24 -27.57,13.52 -41.28,21.38 -8.87,5.09 -33.91,21.45 -41.55,24.22 19.48,-23.41 59.34,-49.97 75.4,-76.85 -12.3,1.74 -64.21,51.47 -76.03,62.76l-0.07 3.49c-2.28,10.68 -20.55,18.83 -23.22,27.85 14.82,-15.76 2.38,-2.4 27.02,-14.31l-8.52 8.03 9.16 2.12c-6.07,7.58 -5.25,3.65 -5.55,6.94 19.32,-4.99 6.62,5.25 19.5,-0.61 -0.24,0.24 -4.32,2.99 -5.39,3.79 5.23,3.3 2.47,1.06 6.4,5.1 2.62,2.69 1.51,1.14 2.56,3.7z"/>
     <path fill="#2B6618" d="M1940.21 2869.83c9.47,-5.54 20.2,-14.09 27.91,-24.98 12.88,12.43 14.37,21.16 17.91,29.62 3.49,-1.04 -2.62,-6.81 11.71,9.48 13.72,15.59 26.94,24.8 45.13,34.81l6.56 3.03 -19.85 -16.29c-7.49,-2.66 -26.48,-21.59 -33.31,-28.26 -5.87,-5.72 -1.42,-1.51 -5.33,-5.67 -2.54,-2.71 -1.44,-1.86 -4.74,-4.63 0.12,-0.49 0.43,-0.69 0.8,-1.29l2.03 -3.96c-1.13,-3.88 -0.27,-0.46 -1.52,-0.32l9.45 3.97c-0.17,-0.53 -0.37,-2.08 -0.37,-2.34 0,-0.14 -0.02,-0.82 -0.02,-0.97 0,-0.07 2.15,-1.69 -1.51,-5.68l7.8 0.36c-0.12,-1.25 -0.68,-1.59 -0.46,-2.25l-0.69 -2.63c-0.6,-4.62 -1.91,-1.05 1.18,-3.25l5.98 -6.28c-1.93,-1.7 -4.88,-4.98 -9.6,-3.4 1.83,-2.5 2.76,-2.15 6.59,-4.43l-4.31 -19.86c-10.74,-6.23 -4.25,-1.3 -9.81,-2.58l-4.07 -1.15c-3.38,-0.32 -2.62,-0.3 -5.39,0.51 5.89,-1.2 2.09,-5.19 1.34,-7.24l-5.98 11.18c0.23,-0.54 -0.48,-0.88 -0.29,-1.76 1.61,-7.56 1.25,4.04 -1.96,-4.31l-1.73 3.86c1.53,-21.44 12.21,-70.5 12.57,-79.9 -14.87,22.36 -14.41,45.34 -17.89,57.86 1.71,-8.9 -0.03,-33.4 0.58,-44.79 0.3,-5.65 1.23,-10.89 -0.38,-16.37 -7.15,16.56 -9.2,42.67 -8.03,56.03 2.08,-5.56 -4.34,-43.67 -3.95,-55.52l-2.65 7c-0.01,0.51 -0.32,1.69 -0.07,1.51l-0.43 5.81c-1.76,18 -2.39,37.22 2.66,54.3 -5.09,2.58 0.58,1.63 -4.37,-0.17 2.25,6.4 3.52,3.8 6.25,10.33 2.36,5.66 2.49,16.08 8.79,30.3 -10.65,17.12 -23.94,21.76 -36.6,31.48l10.07 -1.16z"/>
     <path fill="#276A07" d="M1830.1 2803.29l-13.68 18.96c-1.35,-5.81 3.91,-41.36 2.8,-65.75 -0.75,-16.61 -4.1,-13.41 -0.86,-21.06 -4.37,-3.8 -4.35,-7.37 -5.35,-11.72l13.01 -1.03c5.69,-0.05 10.91,0.42 13.85,-0.05 1.83,-3.43 3.9,-9.97 14.4,-9.54 -2.53,-5.51 -4.55,-5.11 -6.66,-5.51 4.71,-5.34 5.61,-7.48 7.19,-13.3 1.07,5.52 1.44,2.19 -4.24,-2.05 -4.99,-3.73 4.95,-0.6 -2.24,-1.35 -3.87,-0.41 -8.32,4.42 -10.96,7.57 0.44,-2.2 3.44,-7.89 2.99,-11.76 -5.02,6.88 -6.24,6.72 -10.73,7.92l15.27 -22.85 -18.38 19.28c0.23,-0.14 0.06,-0.46 0.33,-1.04 0.27,-0.6 0.01,-1.06 0.06,-1.35l6.96 -18.98 -9.86 15c0,-1.83 -0.08,-1.48 0.38,-4.36l3.46 -14.67 -8.8 15.02c-1.78,-6.28 -0.08,-1.66 0.07,-6.44 0.22,-6.93 0.47,1.96 0.08,-3.08l-0.64 -3.56c-0.09,-0.54 -0.26,-1.28 -0.48,-1.89 -5.01,8.66 -1.37,6.62 -5.76,14.72 -2.92,-7.73 1.73,-5.11 -3.39,-12.88 -2.63,6.42 -2.6,18.7 -2.55,25.82 -3.1,-7.51 -1.76,-19.23 -2.92,-25.22 -0.89,-4.56 0.69,0.13 -1.31,-4.52 -1.79,9.16 -0.43,9.32 -0.66,15.88 -4.29,-3.84 -5.36,-11.54 -6.46,-16.05 -4.37,13.43 -2.08,10.42 2.56,13.3 -3.82,2.53 -3.11,1.62 -5.3,2.59l-2.86 1.18c-0.3,0.13 -0.87,0.3 -1.25,0.55 2.31,3.03 3.67,5.43 3.6,9.88l-7.35 -9.6c-1.14,4.34 -1.29,0.38 1.7,6.63 1.48,3.12 2.22,4.43 3.93,7.05 -6.57,-0.14 -2.64,-2.98 -8.22,-0.46l-2.66 1.65c-9.73,-5.57 -1.11,0.3 -2.54,-6.19l-4.57 -1.79 -4.82 -1.6c5.32,6.74 2.79,5.65 2.96,12.9l10.65 6.67c-0.57,0.3 -2.87,0.56 -3.17,0.73 -5.91,3.45 -1.56,-3.49 -2.75,3.02 6.63,2.55 5.81,0.7 11.28,4.7 10.63,7.04 27.4,5.61 23.14,20.81l3.15 8.29c5.77,38.76 -6.79,76.87 -8.88,102l-0.02 3.01c8.88,-17.14 15.16,-28.84 26.5,-45.48z"/>
     <path fill="#388B0D" d="M1444.1 3098.13c-0.44,-4.22 -1.51,-4.36 1.42,-9.5 5.56,-9.74 2.39,-1.39 4.34,-3.19 3.18,-2.95 -1.1,-9 2.93,-11.49l1.2 -0.84c-5.44,-7.48 -6.85,-17.84 -12.12,-25.48 19.06,-26.47 72.67,-58.55 101.93,-73.5 7.34,-3.75 30.08,-12.62 33.24,-15.72 1.42,-2.31 0.9,-1.3 -3.05,-3.71 -16.9,3.82 -66.81,31.91 -83.55,43.79l-23.51 17.24c-4.04,2.23 -1.33,0.96 -4.03,1.75 -4.38,8.09 -15.56,15.03 -23.42,23.61l-7.37 -6.27 -7.61 -5.75c-4.51,2.74 2.71,2.2 -3.02,1.86 -2.62,-0.16 -0.9,-1.23 -6.32,-0.93l5.45 5.83c-3.19,2.93 -1.94,3.81 -10.64,1.32 1.63,5.89 -5.8,-1.48 3.3,6.06l-4.41 -0.68c-6.76,1.05 -6.77,-0.23 -12.25,0.15 3.31,3.48 13.09,2.72 19.39,4.66 -0.49,0.06 -1.15,0.16 -1.49,0.21 -0.34,0.05 -1.05,0.15 -1.47,0.21l-8.01 1.14c-2.86,0.32 -6.83,0.53 -9.47,0.74 4.73,2.43 13.46,1.88 18.12,2.22l-4.83 5.25c-2.55,3.91 -2.36,1.87 -7.65,6.19l13.3 -2.93 -11.74 8.48c4.77,0.04 12.01,-2.96 14.53,-5.35l-9.94 11.3 12.74 -5.75 -11.05 10.16c3.55,-1.77 6.4,-2.77 10.56,-5.17 -2.91,5.26 -4.19,6.45 -3.99,10.9l8.51 -10.29c-0.04,0.6 -0.2,1.3 -0.29,1.78l-1.01 4.9c-1.98,8.3 -0.04,-1.92 -0.53,4.35l5.62 -8.52 -0.45 8.41 7.8 -11.16c-1.95,13.11 -0.28,1.8 3.21,10.41l-10.29 81.88c-0.08,2.72 0.03,2.69 0.34,4.45 10.15,-18.7 17.04,-57.91 15.58,-73.02z"/>
     <path fill="#30CBF2" d="M1685.48 3013.82c-18.9,-14.33 -32.88,-58.67 -35.17,-74.62 -10.54,-4.1 -24.24,3.43 -32.41,6.43 -0.5,0.14 -1.54,0.81 -1.51,0.42l-9.48 2.85c4.57,4.01 3.41,4.73 5.62,13.95 4.79,19.97 13.99,40.37 14.34,43.5 9.95,1.79 19.03,2.32 29.41,4.05 15.53,2.59 22.43,6.92 29.2,3.42z"/>
     <path fill="#345926" d="M1747.88 2703.11c11.69,0.78 26.7,13.6 38.33,11.55 -5.47,-4 -4.65,-2.15 -11.28,-4.7 1.19,-6.51 -3.16,0.43 2.75,-3.02 0.3,-0.17 2.6,-0.43 3.17,-0.73l-10.65 -6.67c-0.17,-7.25 2.36,-6.16 -2.96,-12.9l4.82 1.6c-2.74,-5.75 -8.83,-9.28 -14.21,-14.14l-45.53 -44.37c-2.55,-2.81 -4.86,-5.32 -7.71,-7.79 -5.99,-5.2 -3.95,-0.59 -7.01,-7.9l-2.28 -1.15 -1.78 0.66 7.89 14.79 11.97 14.24c1.18,1.4 0.5,0.49 1.79,2.23l1.51 2.44c5.33,5.46 10.04,10.98 15.82,16.61 5.09,4.94 13.43,10.81 16.66,16.63 -11.29,-7.04 -30.13,-18.3 -38.22,-26.65l-20.6 -13.76c-7.24,-7.44 -7.8,-8.86 -17.7,-11.27l4.81 6.68c3.23,2.97 6,6.39 9.3,9.1 2.29,1.88 3.13,1.98 5.12,3.78 4.35,3.93 2.79,3.06 3.59,4.35 3.46,5.97 1.73,2.53 1.48,9.78 -5.89,0.71 -7.82,-2.69 -7.82,-2.69 -16.02,-11.27 -20.32,-10.12 -20.61,-14.76 -4,0.73 -1.66,-3.25 -3.74,1.45 8.56,6.75 30.58,27.71 41.73,33.03 7.33,3.5 9.31,3.18 15.92,8.89 7.55,6.65 17.25,9.17 25.44,14.69z"/>
     <path fill="#30CBF2" d="M1637.71 2933.52c5.55,-1.31 5.49,-1.05 10.49,-4.47 -0.25,-6.97 -1.57,-14.1 -1.64,-22.84 -0.09,-9.62 0.62,-14.69 1.95,-24.03 2.39,-16.74 6.57,-33.96 15.45,-50.33 -10.33,-3.04 -10.23,-3.8 -16.83,5.94 -5.14,7.59 -8.72,12.35 -14.19,19.12 -9.72,12.01 -19.22,21.47 -29.66,33.08 1.2,3.73 1.76,33.53 1.19,38.5 4,-0.89 1.18,0.2 5.53,-2.71 2.35,-1.57 5.42,-5.33 11.75,-5.4 2.83,-0.03 7.71,1.3 10.44,3.18 6.54,4.5 5.32,8.57 5.52,9.96z"/>
     <path fill="#366B25" d="M1373.28 3021.98c7.47,5.57 19.14,8.19 29.48,11.3 4.28,2.79 -1.27,-1.78 1.09,4.3 2.57,6.63 0.85,1.86 5.01,4.95l4.41 0.68c-9.1,-7.54 -1.67,-0.17 -3.3,-6.06 8.7,2.49 7.45,1.61 10.64,-1.32l-5.45 -5.83c5.42,-0.3 3.7,0.77 6.32,0.93 5.73,0.34 -1.49,0.88 3.02,-1.86l7.61 5.75c-1.66,-6.24 -4.55,-8.95 -9.01,-14.29 -3.23,-3.86 -8.35,-9.16 -9.86,-12.36 -17.4,-13.15 -34.38,-34.75 -57.68,-41.23 0.31,5.46 -3.32,-3.47 1.48,3.51 2.1,3.04 36.82,27.58 47.02,40.04 -15.95,-10.91 -38.18,-29.44 -56.98,-35.01 0.31,3.7 1.6,4.89 7.23,8.7l28.99 21.26c-8.67,-5.35 -49.32,-22.75 -61.91,-20.3 17.79,8.64 37.79,15.07 57.07,26.56 -5.06,-0.16 -45.97,-12.63 -69.11,-15.58l50.76 18.67c12.93,4.35 11.53,3.72 13.17,7.19z"/>
     <path fill="#74A453" d="M1816.96 2875.82c5.66,-3.56 37.77,-43.17 53.71,-59.09 0.48,-0.48 3.81,-4.08 4.1,-4.58 2.43,-4.3 1.63,-2.54 1.6,-5.83 -21.6,20.18 -21,12.46 -49.15,45.01l-6.55 6.26c-0.26,0.2 -0.78,0.56 -1.19,0.81l44.3 -68.49 -13 10.5c-14.05,14.89 -22.35,26.51 -33.64,43.85 2.47,-15.72 22.38,-45.11 31.41,-61.1 -6.76,3.59 -13.05,12.35 -18.45,20.13 -11.34,16.64 -17.62,28.34 -26.5,45.48 -2.08,5.9 -4.06,11.17 -6.1,16.71 -1,2.74 -2.3,6.15 -3.05,8.61 -2.92,9.49 -1.51,8.68 -1.34,10.28 4.51,-7.58 9.02,-16 14.2,-23.88l-4.76 27.28c0.04,-4.75 11.74,-13.79 15.59,-18.46 0.14,4.63 4.75,-3.32 -1.18,6.51z"/>
     <path fill="#345926" d="M1462.42 3173.13c6.44,-32.34 -0.47,-75.12 -9.63,-99.18 -4.03,2.49 0.25,8.54 -2.93,11.49 -1.95,1.8 1.22,-6.55 -4.34,3.19 -2.93,5.14 -1.86,5.28 -1.42,9.5 0.43,12.41 2.35,26.21 2.53,40.39 0.15,11.49 -1.23,29.35 0.48,39.1 8.66,-22.11 6.63,-49.2 6.61,-67.62 1.29,10.44 3.08,20.31 4.6,32.34 0.71,5.64 1.66,27.81 4.1,30.79z"/>
     <path fill="#4D9211" d="M1650.31 2939.2c0.64,-4.95 9,-4.96 13.91,-5.93 5.88,-1.17 10.46,-1.65 16.33,-3.12 12.53,-3.14 92.83,-16.41 103.76,-11.69l1.09 -8.07c-13.75,-0.92 -54.07,4.62 -69.78,6.84l-67.42 11.82c-5,3.42 -4.94,3.16 -10.49,4.47l-4.32 1.22c-7.63,1.2 -13.42,2.96 -19.65,6.34 -0.29,3.32 -0.25,2.49 4.16,4.55 8.17,-3 21.87,-10.53 32.41,-6.43z"/>
     <path fill="#72916E" d="M2072.62 2892.23c0.69,0.45 3.3,1.58 4.86,1.78l6.18 -0.29c0,0.43 1.07,-0.23 1.6,-0.38 -12.96,-7.78 -27.77,-9.81 -39.32,-16.52l10.04 1.9c4.02,1.22 5.43,1.35 9.61,2.13 6.48,1.2 12.22,2.55 18.15,5.11 0.63,-9.94 5.11,2.28 -2.35,-4.78l-21.78 -9.25c-7.96,-3.8 -19.13,-6.15 -24.48,-9.79 8.21,3.18 34.94,6.03 44.21,4.47l11.41 -1.65c6.22,-0.38 3.78,0.52 8.68,-2.26l-60.98 -7.57c-5.02,-0.2 0.26,-0.82 -4.08,0.34 -0.29,3.84 -0.95,2.72 -1.22,4.44 -0.57,3.61 -0.44,1.76 -0.06,5.28 0.83,7.68 -1.22,4.02 -2,8.25l13.95 6.28c-6.07,-3.2 -8.45,-0.49 -10.22,0.46 13.46,3.98 24.13,10.15 37.8,12.05z"/>
     <path fill="#78A857" d="M1693.54 2613.55l1.78 -0.66 -5.65 -8.31c-1.87,-3.55 -1.05,-4.98 -1.44,-8.95 -0.76,-7.76 -3.16,-11.44 -0.91,-17.98 0.11,-4.99 7.23,1.19 -0.35,-3.97l5.01 3.17c-2.29,-4.52 -1.89,-3.84 -7.2,-6.49 -4.67,8.82 -5.65,42.52 -7.29,54.69l-3.33 -0.11c-0.44,-0.04 -1.11,-0.13 -1.55,-0.18l0.05 4.05c9.9,2.41 10.46,3.83 17.7,11.27 -0.48,-4.64 -0.36,-9.24 -0.31,-14.71 0,-0.33 -0.15,-7.91 -0.13,-8.05 1.36,-9.03 -1.58,-4.27 3.62,-3.77z"/>
     <path fill="#30CBF2" d="M1611.95 2939.51c-1.29,-10.7 10.08,-18.06 21.44,-4.77l4.32 -1.22c-0.2,-1.39 1.02,-5.46 -5.52,-9.96 -2.73,-1.88 -7.61,-3.21 -10.44,-3.18 -6.33,0.07 -9.4,3.83 -11.75,5.4 -4.35,2.91 -1.53,1.82 -5.53,2.71 0.27,7.42 2.38,5.81 1.16,13.6l6.32 -2.58z"/>
     <path fill="#88B66A" d="M1606.91 2948.9l9.48 -2.85c-0.03,0.39 1.01,-0.28 1.51,-0.42 -4.41,-2.06 -4.45,-1.23 -4.16,-4.55l-1.79 -1.57 -6.32 2.58c-2.37,1 -4.4,2.28 -8.14,3.29 -11.96,3.24 -7.3,0.35 -23.5,9.32 3.95,2.41 4.47,1.4 3.05,3.71l29.87 -9.51z"/>
     <path fill="#74A453" d="M1695.48 2652.72c-0.8,-1.29 0.76,-0.42 -3.59,-4.35 -1.99,-1.8 -2.83,-1.9 -5.12,-3.78 -3.3,-2.71 -6.07,-6.13 -9.3,-9.1 -1.97,6.01 -1.2,7.57 -2.69,13.64l-6.25 -4.08c0.29,4.64 4.59,3.49 20.61,14.76 0,0 1.93,3.4 7.82,2.69l-7.13 -4.06 0.16 -6.57c3.83,-2.29 -0.77,-1.5 5.49,0.85z"/>
     <path fill="#74A453" d="M1716.7 2647.25l-1.51 -2.44c-1.29,-1.74 -0.61,-0.83 -1.79,-2.23l-11.97 -14.24 -3.02 15.62 -8.05 -3.88 20.6 13.76 1.02 -7.47c3.06,-1.25 -2.31,-5.03 4.72,0.88z"/>
     <path fill="#74A453" d="M1713.81 2614.46l-9.36 -11.84 -2.41 12.1c-3.69,1.53 0.37,1.34 -4.44,-0.68 3.06,7.31 1.02,2.7 7.01,7.9 2.85,2.47 5.16,4.98 7.71,7.79l0.02 -15.76 1.47 0.49z"/>
     <path fill="#75C8D6" d="M1633.39 2934.74c-11.36,-13.29 -22.73,-5.93 -21.44,4.77l1.79 1.57c6.23,-3.38 12.02,-5.14 19.65,-6.34z"/>
    </g>
    <path fill="white" stroke="black" stroke-width="7.62" stroke-miterlimit="22.9256" d="M522.94 2821.51l-440.55 0c-23.23,0 -42.22,-19 -42.22,-42.22l0 -1091.16c0,-23.23 18.99,-42.23 42.22,-42.23l440.55 0 0 1175.61z"/>
    <polyline fill="none" stroke="#FFC431" stroke-width="75" stroke-miterlimit="22.9256" points="1796.89,553.05 516.33,551.99 506.18,2836.65 "/>
    <path fill="#3A9BB9" stroke="white" stroke-width="20" stroke-miterlimit="22.9256" d="M5765.45 4854.07l-90.79 -203.99c-33.28,-74.76 0.67,-163.13 75.43,-196.41l356.49 -158.66 211.77 475.8 -356.49 158.67c-74.76,33.28 -163.14,-0.66 -196.41,-75.41z"/>
    <path fill="#3A9BB9" stroke="white" stroke-width="20" stroke-miterlimit="22.9256" d="M5997.56 3689.31l174.27 -139.59c63.86,-51.15 157.96,-40.75 209.12,23.12l243.95 304.54 -406.49 325.6 -243.94 -304.55c-51.16,-63.87 -40.77,-157.96 23.09,-209.12z"/>
    <path fill="#3A9BB9" stroke="white" stroke-width="20" stroke-miterlimit="22.9256" d="M6519.08 4728.01l509.66 -107.18 80.3 381.85c16.85,80.08 -34.88,159.37 -114.96,176.21l-218.5 45.95c-80.07,16.84 -159.35,-34.9 -176.2,-114.98l-80.3 -381.85z"/>
    <path fill="#3A9BB9" stroke="white" stroke-width="20" stroke-miterlimit="22.9256" d="M7224.44 4514.88l48.55 -518.54 388.51 36.37c81.48,7.63 141.89,80.52 134.26,161.99l-20.82 222.31c-7.62,81.47 -80.52,141.87 -161.99,134.25l-388.51 -36.38z"/>
    <path fill="#3A9BB9" stroke="white" stroke-width="20" stroke-miterlimit="22.9256" d="M7058.46 3301.55l210.22 75.26c77.04,27.58 117.5,113.17 89.92,190.21l-131.52 367.37 -490.34 -175.53 131.52 -367.37c27.58,-77.05 113.17,-117.52 190.2,-89.94z"/>
    <circle fill="#BFF2FF" stroke="#205969" stroke-width="20" stroke-miterlimit="22.9256" transform="matrix(-0.436314 -0.815212 1.02715 -0.549749 6713.46 4258.06)" r="735.54"/>
    <rect fill="white" transform="matrix(3.27054E-13 -12.3332 1.61264 4.27457E-14 700.967 6361.93)" width="383.22" height="19.53"/>
    <rect fill="white" transform="matrix(4.15794E-13 -15.8094 1.24162 3.33019E-14 535.355 6362.19)" width="1.83" height="420.6"/>
    <path fill="#71E2FF" mask="url(#id1)" d="M1653.53 1111.77c21.42,-204.68 48.9,-360.35 146.01,-596.75l1351.73 0c566.89,703.97 500.2,1065.73 619.12,1467.29 419.18,991.66 978.83,963.67 1585.5,1917.33l-586.66 1303.71c-345.66,-443.17 -381.88,-880.5 -1036,-1330.01 -991.03,-647.38 -2149.56,-1603.94 -2079.7,-2761.57z"/>
    <path fill="white" stroke="black" stroke-width="7.62" stroke-miterlimit="22.9256" d="M1799.54 518.19l0 221.03c0,76.68 62.73,139.41 139.41,139.41l1073.09 0c76.68,0 139.41,-62.73 139.41,-139.41l0 -221.03 -1351.91 0z"/>
   </g>
  </g>
  <polygon fill="none" points="-0,0 9789.58,0 9789.58,7937.49 -0,7937.49 "/>
 </g>
</svg>
