<?xml version="1.0" encoding="UTF-8"?>
<!DOCTYPE svg PUBLIC "-//W3C//DTD SVG 1.1//EN" "http://www.w3.org/Graphics/SVG/1.1/DTD/svg11.dtd">
<!-- Creator: CorelDRAW 2017 -->
<svg xmlns="http://www.w3.org/2000/svg" xml:space="preserve" width="97.8958mm" height="79.3748mm" version="1.1" shape-rendering="geometricPrecision" text-rendering="geometricPrecision" image-rendering="optimizeQuality" fill-rule="evenodd" clip-rule="evenodd"
viewBox="0 0 9789.58 7937.48"
 xmlns:xlink="http://www.w3.org/1999/xlink">
 <defs>
   <clipPath id="id0">
    <path d="M-0 0l9789.58 0 0 7937.49 -9789.58 0 0 -7937.49z"/>
   </clipPath>
 </defs>
 <g id="Слой_x0020_1">
  <metadata id="CorelCorpID_0Corel-Layer"/>
  <rect fill="none" x="661.46" y="1685.39" width="7789.34" height="4995.33"/>
  <polygon fill="#E9EEF2" points="-0,0 9789.58,0 9789.58,7937.49 -0,7937.49 "/>
  <g clip-path="url(#id0)">
   <g id="_869263426832">
    <rect fill="#F7F4F4" x="1461.25" y="-1614.38" width="8997.47" height="2368.47"/>
    <rect fill="#F7F4F4" x="1459.93" y="7937.49" width="8997.47" height="2174.9"/>
    <rect fill="#C4DB95" transform="matrix(-1.21964E-13 -1.52228 2.33556 -1.87125E-13 3730.47 7373.43)" width="4093.94" height="3369.62"/>
    <path fill="white" stroke="black" stroke-width="7.62" stroke-miterlimit="22.9256" d="M551.7 6737.72l0 -1255.67c0,-33.49 27.4,-60.89 60.89,-60.89l591.58 0 0 1377.45 -591.58 0c-33.49,0 -60.89,-27.4 -60.89,-60.89z"/>
    <rect fill="#999999" transform="matrix(-1.21116E-13 -2.71195 1.52228 -2.18803E-13 3021.73 9892.88)" width="4128.82" height="465.58"/>
    <rect fill="#CCCCCC" transform="matrix(-1.21964E-13 -1.52228 1.52228 -1.21964E-13 3021.73 5426.95)" width="2370.67" height="465.58"/>
    <rect fill="#C8F4FF" transform="matrix(-4.93257E-13 -6.1565 1.52228 -1.21964E-13 3290.13 5426.94)" width="586.18" height="127"/>
    <rect fill="white" transform="matrix(-7.54475E-13 -9.41685 2.14506 -1.71862E-13 3248.27 5426.85)" width="383.22" height="19.53"/>
    <rect fill="white" transform="matrix(-1.68484E-12 -21.029 1.68301 -1.34842E-13 3021.73 5426.47)" width="1.83" height="420.6"/>
    <rect fill="#666666" transform="matrix(-1.21964E-13 -1.52228 1.33823 -1.07219E-13 1127.71 7373.27)" width="369.05" height="66.75"/>
    <rect fill="#666666" transform="matrix(-1.21964E-13 -1.52228 1.96646 -1.57552E-13 407.984 6892.83)" width="60.63" height="411.43"/>
    <polygon fill="#666666" points="1198.07,7375.06 1218.33,7269.52 1218.33,7269.52 546.88,6803.13 490.85,6883.81 "/>
    <rect fill="#999999" x="1213.74" y="7374.02" width="10386.7" height="563.47"/>
    <rect fill="#F3DFC7" x="3730.47" y="7265.09" width="7869.97" height="191.29"/>
    <rect fill="#F0EBEB" x="4712.99" y="5440.1" width="293" height="278.11"/>
    <path fill="white" d="M4811.14 2220.95l109.14 0c0,1095.3 0,2190.62 0,3285.93 15.55,15.41 25.11,42.68 26.53,58.2 6.83,58.34 -26.53,109.54 -82.72,109.72 -60.19,-1.5 -90.02,-52.92 -82.49,-109.9 1.57,-9.83 7.62,-40.84 29.54,-58.02l0 -3285.93z"/>
    <rect fill="#999999" transform="matrix(-1.03034E-13 -2.29722 1.20329 -1.72215E-13 1213.73 9529.86)" width="4859.74" height="205.69"/>
    <rect fill="#F3DFC7" transform="matrix(-1.03034E-13 -1.286 1.286 -1.03034E-13 1461.25 7374.02)" width="4851.7" height="1213.44"/>
    <rect fill="#CCCCCC" transform="matrix(-1.0248E-13 -1.27909 1.286 -1.03034E-13 1213.74 5425.31)" width="2825.75" height="192.46"/>
    <rect fill="#C8F4FF" transform="matrix(-4.93257E-13 -6.1565 1.52228 -1.21964E-13 1267.63 5426.74)" width="586.18" height="127"/>
    <rect fill="white" transform="matrix(-7.54475E-13 -9.41685 2.14506 -1.71862E-13 1225.77 5426.65)" width="383.22" height="19.53"/>
    <rect fill="white" transform="matrix(-1.68484E-12 -21.029 0.588082 -4.7117E-14 1213.9 5431.5)" width="1.83" height="420.6"/>
    <polyline fill="none" stroke="#FFC431" stroke-width="75" stroke-miterlimit="22.9256" points="4726.58,2041.63 1518.99,2485.84 1517.84,6119.16 1213.75,6114.67 "/>
    <g>
     <polygon fill="#999999" points="5494.9,7253.28 5494.9,5440.65 8592.65,5440.65 8592.65,7253.28 "/>
     <path id="1" fill="white" d="M5494.9 7253.28l0 -1812.63 3097.75 0 0 1812.63 -3097.75 0zm20 -1792.63l0 1772.63 3057.75 0 0 -1772.63 -3057.75 0z"/>
    </g>
    <g>
     <path fill="#4CC0E4" d="M5494.9 7253.28l0 -650.52c0,-37.86 30.96,-68.82 68.81,-68.82l2960.12 0c37.85,0 68.82,30.96 68.82,68.82l0 650.52 -3097.75 0z"/>
     <path id="1" fill="#9AD6EA" d="M5494.9 7253.28l0 -650.52c0,-37.86 30.96,-68.82 68.81,-68.82l2960.12 0c37.85,0 68.82,30.96 68.82,68.82l0 650.52 -3097.75 0zm20 -650.52l0 630.52 3057.75 0 0 -630.52c0,-13.44 -5.49,-25.66 -14.31,-34.51 -8.85,-8.82 -21.07,-14.31 -34.51,-14.31l-2960.12 0c-13.4,0 -25.61,5.5 -34.46,14.35l-0.04 -0.04c-8.82,8.85 -14.31,21.07 -14.31,34.51z"/>
    </g>
    <g>
     <path fill="white" d="M5842.44 6351.9l0 -112.9c0,-138.2 -2.22,-251.74 59.95,-315.06 19.9,-20.27 -102.11,-99.97 -30.79,-131.53 126.24,-55.85 423.5,-14.34 601.72,44.18 161.91,53.17 212.65,-5.36 284.81,20.55 41.69,14.97 169.99,101.44 204.7,120.1 15.5,8.33 -70.62,12.09 -74.61,55.02 -7.97,85.67 1.93,178.45 1.93,193.88l0 125.76 -1047.71 0z"/>
     <path id="1" fill="#F2FCFF" d="M5842.44 6351.9l0 -112.9c0,-138.2 -2.22,-251.74 59.95,-315.06 19.9,-20.27 -102.11,-99.97 -30.79,-131.53 126.24,-55.85 423.5,-14.34 601.72,44.18 161.91,53.17 212.65,-5.36 284.81,20.55 41.69,14.97 169.99,101.44 204.7,120.1 15.5,8.33 -70.62,12.09 -74.61,55.02 -7.97,85.67 1.93,178.45 1.93,193.88l0 125.76 -1047.71 0zm30 -112.9l0 82.9 987.71 0 0 -95.76c0,-3.24 -0.42,-9.39 -0.98,-17.96 -2.37,-35.8 -7.22,-108.78 -0.72,-178.62 2.61,-28.15 20.62,-44.93 40.83,-55.82l-14.53 -9.12c-49.76,-31.24 -112.63,-70.71 -136.7,-79.35 -22.53,-8.08 -45.18,-5.04 -72.58,-1.34 -48.48,6.52 -109.2,14.7 -211.41,-18.86 -94.82,-31.14 -224.16,-57.37 -342.36,-66.04 -96.92,-7.11 -185.24,-2.55 -238.03,20.8 -3.77,1.67 -3.99,4.18 -2.81,6.84 4.79,10.83 15.21,23.98 24.66,35.91 23.8,30.04 44.24,55.81 18.2,82.34 -51.52,52.48 -51.47,155.08 -51.4,280.26l0.12 0 0 13.82z"/>
    </g>
    <g>
     <path fill="white" d="M7258.76 6345.65l0 -112.9c0,-39.26 32.55,-53.91 29.1,-81.66 -5.42,-43.46 -43.5,-94.41 -6.37,-133.03 22.66,-23.57 -104.91,-17.6 -74.48,-94.47 69.82,-176.41 558.57,-102.04 726.87,-45.61 158.46,53.14 241.61,0.82 313.98,20.55 108.67,29.62 3.46,61.56 14.66,92.45 32.42,89.39 21.91,203.69 21.91,228.91l0 125.76 -1025.67 0z"/>
     <path id="1" fill="#F2FCFF" d="M7258.76 6345.65l0 -112.9c0,-39.26 32.55,-53.91 29.1,-81.66 -5.42,-43.46 -43.5,-94.41 -6.37,-133.03 22.66,-23.57 -104.91,-17.6 -74.48,-94.47 69.82,-176.41 558.57,-102.04 726.87,-45.61 158.46,53.14 241.61,0.82 313.98,20.55 108.67,29.62 3.46,61.56 14.66,92.45 32.42,89.39 21.91,203.69 21.91,228.91l0 125.76 -1025.67 0zm30 -112.9l0 82.9 965.67 0 0 -95.76c0,-1.92 0.27,-8.51 0.61,-17.09 1.56,-39.62 5.15,-130.47 -20.65,-201.62 -10.27,-28.35 6.67,-46.09 23.56,-63.77 4.93,-5.16 9.87,-10.35 10.03,-10.94l0.12 0c1.25,-4.62 -7.88,6.39 -28.09,0.89 -22.33,-6.08 -49.33,-3.26 -81.14,0.06 -58.33,6.09 -130.84,13.68 -234.48,-21.08 -98.14,-32.9 -307.98,-72.05 -475.68,-61.53 -104.77,6.57 -190.88,31.86 -213.81,89.8 -7.7,19.47 17.73,28.87 35.16,35.3 13.2,4.87 24.35,8.99 32.74,17.05 16.48,15.89 18.85,32.47 0.25,51.84 -13.49,14.03 -5.34,38.62 2.6,62.6l-0.11 0.04c5.11,15.4 10.19,30.68 12.09,46.02 2.97,23.92 -6.43,38.55 -16.85,54.79 -5.69,8.87 -12.02,18.74 -12.02,30.5z"/>
    </g>
    <g>
     <path fill="#F2FCFF" d="M5651.9 6533.94l0 -112.91c0,-37.86 30.96,-68.82 68.82,-68.82l2655.13 0c30.77,0 55.96,25.18 55.96,55.96l0 125.77 -2779.91 0z"/>
     <path id="1" fill="white" d="M5651.9 6533.94l0 -112.91c0,-37.86 30.96,-68.82 68.82,-68.82l2655.13 0c30.77,0 55.96,25.18 55.96,55.96l0 125.77 -2779.91 0zm20 -112.91l0 92.91 2739.91 0 0 -105.77c0,-9.86 -4.07,-18.87 -10.58,-25.38 -6.51,-6.51 -15.52,-10.58 -25.38,-10.58l-2655.13 0c-13.44,0 -25.66,5.49 -34.51,14.31 -8.82,8.85 -14.31,21.07 -14.31,34.51z"/>
    </g>
    <polygon fill="#FADF99" points="3021.74,2320.1 3021.74,2222.68 3730.48,2126.99 3730.48,2224.33 "/>
    <polygon fill="white" points="3730.47,2258.44 3730.47,2074.28 4638.42,1948.78 4634.35,2132.06 "/>
    <rect fill="white" stroke="black" stroke-width="7.62" stroke-miterlimit="22.9256" transform="matrix(-1.21964E-13 -1.52228 1.52228 -1.21964E-13 4614.12 2233.41)" width="461.23" height="1165.78" rx="60" ry="60"/>
    <rect fill="black" transform="matrix(-1.21964E-13 -1.52228 1.52228 -1.21964E-13 4745.34 2122.36)" width="13.23" height="1002.78"/>
    <rect fill="#999999" x="1213.73" y="754.08" width="10386.7" height="370.32"/>
   </g>
  </g>
  <polygon fill="none" points="-0,0 9789.58,0 9789.58,7937.49 -0,7937.49 "/>
 </g>
</svg>
