<?xml version="1.0" encoding="UTF-8"?>
<!DOCTYPE svg PUBLIC "-//W3C//DTD SVG 1.1//EN" "http://www.w3.org/Graphics/SVG/1.1/DTD/svg11.dtd">
<!-- Creator: CorelDRAW 2017 -->
<svg xmlns="http://www.w3.org/2000/svg" xml:space="preserve" width="97.8958mm" height="79.3748mm" version="1.1" shape-rendering="geometricPrecision" text-rendering="geometricPrecision" image-rendering="optimizeQuality" fill-rule="evenodd" clip-rule="evenodd"
viewBox="0 0 9789.58 7937.48"
 xmlns:xlink="http://www.w3.org/1999/xlink">
 <defs>
   <clipPath id="id0">
    <path d="M-0 -0.01l9789.58 0 0 7937.5 -9789.58 0 0 -7937.5z"/>
   </clipPath>
 </defs>
 <g id="Слой_x0020_1">
  <metadata id="CorelCorpID_0Corel-Layer"/>
  <rect fill="none" x="661.46" y="1685.39" width="7789.34" height="4995.33"/>
  <g>
  </g>
  <g clip-path="url(#id0)">
   <g>
    <path fill="#F0C188" d="M8008.45 1431.22c43.52,13.18 533.23,12.59 589.99,2.23l0.75 -243.8c-55.24,-9.53 -548.74,-9.34 -589.35,2.1l-1.39 239.47z"/>
    <polygon fill="#F0C188" points="3213.84,1138.53 3803.48,1140.4 3804.13,885.82 3212.21,886.45 "/>
    <polygon fill="#F0C188" points="1939.01,1138.55 2530.41,1139.65 2530.55,889.2 2443.45,885.83 1938.79,886.99 "/>
    <polygon fill="#F0C188" points="8007.98,840.14 8600.54,841.5 8599.31,587.99 8009.21,588.46 "/>
    <polygon fill="#F0C188" points="6395.22,1140.06 6986.94,1140.31 6986.91,888.96 6395.32,886.53 "/>
    <polygon fill="#F0C188" points="8643.34,841.62 9234.76,841.78 9234.12,588.38 8645.41,588.9 "/>
    <polygon fill="#F0C188" points="1302.59,1136.81 1894.88,1140.3 1894.26,887.14 1301.78,886.56 "/>
    <path fill="#F0C188" d="M1007.02 837.6l588.67 3.38 3.01 -245.41c-50.79,-14 -532.48,-13.26 -593.25,-2.24l1.57 244.27z"/>
    <polygon fill="#F0C188" points="2279.83,840.76 2872.36,841.57 2871.4,589.18 2282.93,588.84 "/>
    <path fill="#F0C188" d="M-266.91 837.48l589.73 3.58 2.33 -247.12c-61.24,-10.79 -541.14,-11.94 -592.89,1.26l0.83 242.28z"/>
    <polygon fill="#F0C188" points="2576.02,1139.28 3168.53,1139.83 3167.46,890.39 2575.2,886.53 "/>
    <polygon fill="#F0C188" points="7668.11,1135.49 8259.34,1140.33 8260.17,886.99 7666.22,887.11 "/>
    <polygon fill="#F0C188" points="370.38,841.29 960.84,841.46 960.77,589.23 372.78,588.95 "/>
    <polygon fill="#F0C188" points="8941.91,1136.12 9533.27,1140.03 9533.44,887.87 8939.85,886.54 "/>
    <polygon fill="#F0C188" points="3552.85,622.81 3553.85,839.7 4139.7,841.87 4145.29,588.22 3553.12,588.9 "/>
    <polygon fill="#F0C188" points="4827.32,840.07 5015.05,841.72 5026.24,841.58 5413.2,841.02 5418.07,590.65 5272.22,588.46 5149.22,588.77 4826.37,588.92 "/>
    <path fill="#F0C188" d="M2280.21 1434.26c65.16,10.64 543.21,12.09 590.8,-3.26l1.02 -239.57 -588.86 -5.71 -2.96 248.54z"/>
    <polygon fill="#F0C188" points="6734.13,1437.55 7325.76,1437.73 7326.51,1187.36 6738.18,1185.3 "/>
    <polygon fill="#F0C188" points="4824.91,1437.33 5416.13,1438.11 5417.38,1186.37 4830.61,1185.63 "/>
    <polygon fill="#F0C188" points="8305.11,1136.02 8896.16,1140.22 8896.68,888.5 8304.01,886.8 "/>
    <polygon fill="#F0C188" points="666.31,1137.71 1257.96,1139.9 1257.52,890.3 664.72,886.73 "/>
    <polygon fill="#F0C188" points="4190.4,841.24 4775.59,841.12 4781.49,589.62 4190.45,588.95 "/>
    <path fill="#F0C188" d="M9918.01 837.75l583.23 3.5c16.91,-60.02 9.12,-186.49 5.09,-252.44l-191.5 0.11 -190.07 0.19 -207.51 1.23 0.76 247.41z"/>
    <polygon fill="#F0C188" points="3850.07,1138.97 4440.64,1139.73 4442.14,892.47 3848.54,886.07 "/>
    <polygon fill="#F0C188" points="6734.89,841.21 7323.16,841.12 7326.86,592.09 6735,588.66 "/>
    <polygon fill="#F0C188" points="9578.06,980.6 9579.75,1136.47 10169.39,1140.31 10170.64,888.55 9577.8,887.97 "/>
    <polygon fill="#F0C188" points="5462.07,1436.93 6052.86,1437.9 6052.95,1186.01 5466.87,1186.05 "/>
    <polygon fill="#F0C188" points="4189.88,1435.51 4780.05,1438.19 4780,1185.25 4193.41,1185.99 "/>
    <polygon fill="#F0C188" points="5464.34,840.17 6049.32,841.04 6054.61,589.64 5463.6,588.81 "/>
    <path fill="#F0C188" d="M9279.77 1433.56c57.35,10.36 547.9,11.09 590.66,-2.05l0.72 -240.21 -588.65 -5.11 -2.73 247.37z"/>
    <path fill="#F0C188" d="M9917.37 1433.6c54.79,10.42 548.84,10.58 590.65,-2.39l0.71 -240.53 -588.29 -4.31 -3.07 247.23z"/>
    <path fill="#F0C188" d="M9280.05 838.04l590.14 3 1.35 -245.05c-197.89,-11.73 -393.18,-7.63 -592.19,-5.45l0.7 247.5z"/>
    <polygon fill="#F0C188" points="29.77,1136.47 620.66,1139.99 620.56,890.88 28.52,886.45 "/>
    <polygon fill="#F0C188" points="6098.54,1437.28 6688.61,1437.94 6689.41,1187.84 6103.51,1185.51 "/>
    <polygon fill="#F0C188" points="3552.98,1435.47 4143.47,1438.26 4143.84,1186.87 3556.64,1185.82 "/>
    <polygon fill="#F0C188" points="1006.27,1433.74 1597.53,1438.35 1596.93,1185.88 1009.54,1185.86 "/>
    <polygon fill="#F0C188" points="1644.16,838.01 2230.9,840.77 2234.02,589.4 1642.37,588.98 "/>
    <polygon fill="#F0C188" points="6100.01,840.02 6685.83,840.64 6690.55,590.87 6099.64,588.77 "/>
    <polygon fill="#F0C188" points="2917.05,1434.34 3506.92,1438.26 3507.14,1185.37 2920.89,1186.08 "/>
    <polygon fill="#F0C188" points="7372.72,840.98 7959.38,840.76 7964.03,592.78 7373.77,588.37 "/>
    <polygon fill="#F0C188" points="7371.68,1437.72 7961.99,1437.74 7962.96,1188.88 7377.78,1185.43 "/>
    <polygon fill="#F0C188" points="1643.87,1433.61 2232.5,1438.51 2233.28,1185.47 1645.47,1185.93 "/>
    <polygon fill="#F0C188" points="2917.66,839.08 3502.15,840.93 3508.03,588.75 2916.72,591.06 "/>
    <polygon fill="#F0C188" points="370.15,1438.15 962,1437.88 961.18,1190.49 376.96,1185.74 "/>
    <polygon fill="#F0C188" points="8643.61,1432.82 9233.64,1438.25 9233.35,1185.82 8646.4,1186.63 "/>
    <polygon fill="#F0C188" points="-267.04,1432.44 324.48,1437.94 324.66,1189.78 -265.59,1186.24 "/>
    <polygon fill="#F0C188" points="7620.65,1135.98 7623.5,889.89 7033.29,890.11 7035.75,1133.76 "/>
    <polygon fill="#F0C188" points="5124.29,1135.21 5710.53,1135.59 5712.26,888.74 5121.8,893.07 "/>
    <polygon fill="#F0C188" points="4491.22,1135.82 5074.44,1135.78 5074.04,891.21 4488.5,889.89 "/>
    <polygon fill="#F0C188" points="5762.77,1135 6346.44,1135.4 6348.11,891.81 5758.83,891.15 "/>
    <path fill="#F0C188" d="M4491.22 1135.82l-2.72 -245.93 585.54 1.32 0.4 244.57 -583.22 0.04zm0 0c29.58,17.79 530.03,20.73 581.98,5.02 33.94,-50.2 19.04,-185.95 12.4,-249.69 -57.76,-20.7 -233.75,-10.56 -305.35,-11.92 -62.04,-1.18 -260.85,-15.77 -298.38,15.65 -6.22,5.03 -1.31,9.06 0.82,39.02l-1.83 170.24c1.97,28.68 0.52,19.25 10.36,31.68z"/>
    <path fill="#F0C188" d="M5762.77 1135c38.1,22.41 245.97,11.57 292.11,10.78 70.43,-1.22 245.04,10.3 300.94,-8.64 11.54,-51.29 12.46,-208.35 -4.51,-250.75 -40.99,-5.4 -528.64,-22.16 -592.48,4.76l589.28 0.66 -1.67 243.59 -583.67 -0.4z"/>
    <path fill="#F0C188" d="M5124.29 1135.21c36.74,19.57 88.45,11.81 136.75,11.01 52.14,-0.84 104.35,0.47 156.53,-0.23 78.6,-1.06 224.81,8.49 293.33,-3.69 24.15,-46.57 24.45,-208.66 4.87,-257.14 -27.81,-4.68 -525.86,-15.16 -576.49,-1.08 -3.02,0.83 -6.56,3.26 -8.93,4.09 -2.37,0.84 -5.71,3.23 -8.55,4.9l590.46 -4.33 -1.73 246.85 -586.24 -0.38z"/>
    <path fill="#F0C188" d="M7620.65 1135.98l-584.9 -2.22 -2.46 -243.65 590.21 -0.22c-17.36,-8.69 17.99,-3.28 -25.82,-9.53l-568.52 3.56c-17.68,59.54 -14.37,192.26 0.32,253.22 49.11,17.01 227.84,11.08 288.86,8.78 52.45,-1.97 260.27,13.42 302.31,-9.94z"/>
    <path fill="#F0C188" d="M7650.22 2316.81c43.51,13.18 533.22,12.58 589.98,2.23l0.75 -243.81c-55.24,-9.52 -548.74,-9.34 -589.35,2.1l-1.38 239.48z"/>
    <polygon fill="#F0C188" points="2855.6,2024.11 3445.25,2025.99 3445.89,1771.4 2853.98,1772.04 "/>
    <polygon fill="#F0C188" points="1580.78,2024.14 2172.17,2025.23 2172.32,1774.78 2085.21,1771.42 1580.55,1772.58 "/>
    <polygon fill="#F0C188" points="7649.74,1725.72 8242.3,1727.08 8241.07,1473.57 7650.97,1474.05 "/>
    <polygon fill="#F0C188" points="6036.99,2025.64 6628.7,2025.89 6628.68,1774.55 6037.08,1772.12 "/>
    <polygon fill="#F0C188" points="8285.1,1727.2 8876.53,1727.36 8875.88,1473.97 8287.18,1474.48 "/>
    <polygon fill="#F0C188" points="944.36,2022.39 1536.64,2025.88 1536.02,1772.72 943.54,1772.14 "/>
    <path fill="#F0C188" d="M648.79 1723.19l588.66 3.38 3.01 -245.42c-50.79,-14 -532.47,-13.26 -593.25,-2.23l1.58 244.27z"/>
    <polygon fill="#F0C188" points="1921.59,1726.35 2514.13,1727.15 2513.16,1474.76 1924.7,1474.43 "/>
    <polygon fill="#F0C188" points="9857.14,2023.34 10448.09,2025.66 10448.43,1773.91 9855.65,1772.22 "/>
    <polygon fill="#F0C188" points="2217.79,2024.86 2810.29,2025.42 2809.22,1775.97 2216.97,1772.12 "/>
    <polygon fill="#F0C188" points="7309.88,2021.07 7901.1,2025.92 7901.93,1772.58 7307.99,1772.7 "/>
    <polygon fill="#F0C188" points="12.14,1726.87 602.6,1727.05 602.54,1474.81 14.55,1474.54 "/>
    <polygon fill="#F0C188" points="8583.67,2021.71 9175.03,2025.62 9175.2,1773.45 8581.61,1772.13 "/>
    <polygon fill="#F0C188" points="3194.61,1508.4 3195.62,1725.29 3781.47,1727.45 3787.05,1473.81 3194.89,1474.48 "/>
    <polygon fill="#F0C188" points="4469.08,1725.66 4656.82,1727.31 4668,1727.16 5054.96,1726.61 5059.83,1476.24 4913.99,1474.05 4790.99,1474.35 4468.13,1474.51 "/>
    <path fill="#F0C188" d="M1921.98 2319.84c65.15,10.65 543.21,12.1 590.8,-3.26l1.02 -239.57 -588.87 -5.7 -2.95 248.53z"/>
    <polygon fill="#F0C188" points="6375.89,2323.13 6967.53,2323.32 6968.28,2072.95 6379.95,2070.89 "/>
    <polygon fill="#F0C188" points="4466.68,2322.92 5057.89,2323.7 5059.15,2071.96 4472.37,2071.22 "/>
    <polygon fill="#F0C188" points="7946.87,2021.6 8537.93,2025.8 8538.44,1774.08 7945.78,1772.38 "/>
    <polygon fill="#F0C188" points="308.07,2023.29 899.72,2025.48 899.29,1775.88 306.49,1772.31 "/>
    <polygon fill="#F0C188" points="3832.16,1726.82 4417.36,1726.7 4423.26,1475.21 3832.22,1474.54 "/>
    <path fill="#F0C188" d="M9559.77 1723.33l583.24 3.5c16.9,-60.02 9.11,-186.49 5.08,-252.44l-191.5 0.12 -190.07 0.18 -207.5 1.23 0.75 247.41z"/>
    <polygon fill="#F0C188" points="3491.84,2024.56 4082.4,2025.31 4083.91,1778.06 3490.3,1771.65 "/>
    <polygon fill="#F0C188" points="6376.66,1726.79 6964.93,1726.7 6968.62,1477.68 6376.76,1474.25 "/>
    <polygon fill="#F0C188" points="9219.83,1866.18 9221.52,2022.05 9811.16,2025.89 9812.4,1774.14 9219.56,1773.56 "/>
    <polygon fill="#F0C188" points="5103.84,2322.51 5694.63,2323.49 5694.72,2071.6 5108.63,2071.64 "/>
    <polygon fill="#F0C188" points="3831.65,2321.1 4421.82,2323.78 4421.77,2070.83 3835.18,2071.57 "/>
    <polygon fill="#F0C188" points="5106.11,1725.75 5691.09,1726.62 5696.37,1475.22 5105.37,1474.39 "/>
    <path fill="#F0C188" d="M8921.53 2319.14c57.36,10.37 547.9,11.1 590.66,-2.04l0.73 -240.22 -588.65 -5.11 -2.74 247.37z"/>
    <path fill="#F0C188" d="M9559.14 2319.18c54.79,10.42 548.83,10.58 590.64,-2.39l0.72 -240.53 -588.3 -4.3 -3.06 247.22z"/>
    <path fill="#F0C188" d="M8921.81 1723.62l590.14 3 1.35 -245.05c-197.89,-11.72 -393.18,-7.63 -592.19,-5.45l0.7 247.5z"/>
    <polygon fill="#F0C188" points="-328.46,2022.05 262.42,2025.58 262.33,1776.46 -329.72,1772.04 "/>
    <polygon fill="#F0C188" points="5740.31,2322.87 6330.37,2323.53 6331.18,2073.42 5745.27,2071.1 "/>
    <polygon fill="#F0C188" points="3194.74,2321.06 3785.23,2323.84 3785.6,2072.46 3198.4,2071.4 "/>
    <polygon fill="#F0C188" points="648.03,2319.33 1239.3,2323.94 1238.69,2071.47 651.31,2071.44 "/>
    <polygon fill="#F0C188" points="1285.93,1723.6 1872.66,1726.36 1875.78,1474.98 1284.13,1474.56 "/>
    <polygon fill="#F0C188" points="5741.77,1725.61 6327.6,1726.23 6332.31,1476.45 5741.4,1474.35 "/>
    <polygon fill="#F0C188" points="2558.82,2319.92 3148.68,2323.84 3148.91,2070.95 2562.66,2071.67 "/>
    <polygon fill="#F0C188" points="7014.49,1726.57 7601.14,1726.35 7605.79,1478.37 7015.53,1473.95 "/>
    <polygon fill="#F0C188" points="7013.44,2323.3 7603.76,2323.33 7604.72,2074.46 7019.54,2071.02 "/>
    <polygon fill="#F0C188" points="1285.64,2319.2 1874.26,2324.1 1875.04,2071.06 1287.24,2071.52 "/>
    <polygon fill="#F0C188" points="2559.42,1724.67 3143.91,1726.52 3149.79,1474.34 2558.49,1476.65 "/>
    <polygon fill="#F0C188" points="11.92,2323.74 603.77,2323.46 602.95,2076.08 18.72,2071.32 "/>
    <polygon fill="#F0C188" points="8285.38,2318.4 8875.4,2323.83 8875.11,2071.4 8288.17,2072.22 "/>
    <polygon fill="#F0C188" points="7262.41,2021.56 7265.27,1775.47 6675.06,1775.7 6677.51,2019.34 "/>
    <polygon fill="#F0C188" points="4766.06,2020.8 5352.29,2021.18 5354.02,1774.32 4763.56,1778.65 "/>
    <polygon fill="#F0C188" points="4132.98,2021.4 4716.2,2021.36 4715.81,1776.79 4130.26,1775.47 "/>
    <polygon fill="#F0C188" points="5404.53,2020.58 5988.21,2020.98 5989.87,1777.4 5400.6,1776.74 "/>
    <polygon fill="#F0C188" points="10190.89,1726.68 10443.27,1727.06 10447.21,1476.74 10191.83,1474.38 "/>
    <polygon fill="#F0C188" points="10190.06,2322.96 10446.44,2323.77 10446.64,2072.77 10195.66,2071.82 "/>
    <path fill="#F0C188" d="M4132.98 2021.4l-2.72 -245.93 585.55 1.32 0.39 244.57 -583.22 0.04zm0 0c29.58,17.79 530.03,20.74 581.98,5.02 33.94,-50.19 19.05,-185.95 12.4,-249.68 -57.76,-20.71 -233.74,-10.57 -305.34,-11.93 -62.04,-1.17 -260.86,-15.76 -298.39,15.65 -6.22,5.03 -1.31,9.06 0.82,39.03l-1.82 170.23c1.96,28.69 0.51,19.26 10.35,31.68z"/>
    <path fill="#F0C188" d="M5404.53 2020.58c38.1,22.42 245.98,11.57 292.12,10.78 70.42,-1.21 245.03,10.3 300.93,-8.64 11.54,-51.29 12.47,-208.34 -4.5,-250.75 -40.99,-5.4 -528.64,-22.16 -592.48,4.77l589.27 0.66 -1.66 243.58 -583.68 -0.4z"/>
    <path fill="#F0C188" d="M4766.06 2020.8c36.74,19.57 88.45,11.8 136.74,11.01 52.14,-0.85 104.36,0.46 156.53,-0.24 78.6,-1.05 224.82,8.49 293.33,-3.68 24.15,-46.58 24.46,-208.67 4.87,-257.15 -27.81,-4.67 -525.85,-15.16 -576.48,-1.08 -3.03,0.83 -6.57,3.26 -8.93,4.09 -2.38,0.85 -5.72,3.24 -8.56,4.9l590.46 -4.33 -1.73 246.86 -586.23 -0.38z"/>
    <path fill="#F0C188" d="M7262.41 2021.56l-584.9 -2.22 -2.45 -243.64 590.21 -0.23c-17.37,-8.69 17.98,-3.27 -25.82,-9.52l-568.53 3.55c-17.68,59.55 -14.36,192.27 0.32,253.22 49.11,17.01 227.84,11.08 288.87,8.79 52.45,-1.97 260.27,13.41 302.3,-9.95z"/>
    <path fill="#F0C188" d="M8594.59 3198.71c43.52,13.18 533.23,12.58 589.99,2.23l0.75 -243.81c-55.24,-9.52 -548.74,-9.34 -589.35,2.1l-1.39 239.48z"/>
    <polygon fill="#F0C188" points="3799.98,2906.01 4389.62,2907.89 4390.27,2653.3 3798.36,2653.94 "/>
    <polygon fill="#F0C188" points="2525.15,2906.04 3116.55,2907.13 3116.7,2656.68 3029.59,2653.32 2524.93,2654.48 "/>
    <polygon fill="#F0C188" points="8594.12,2607.63 9186.68,2608.99 9185.45,2355.47 8595.35,2355.95 "/>
    <polygon fill="#F0C188" points="6981.37,2907.54 7573.08,2907.79 7573.06,2656.45 6981.46,2654.02 "/>
    <polygon fill="#F0C188" points="9229.48,2609.1 9820.9,2609.26 9820.26,2355.87 9231.55,2356.38 "/>
    <polygon fill="#F0C188" points="1888.74,2904.29 2481.02,2907.78 2480.4,2654.62 1887.92,2654.04 "/>
    <polygon fill="#F0C188" points="-22.83,2907.02 569.97,2907.27 570.96,2657.21 -22.83,2654.62 "/>
    <path fill="#F0C188" d="M1593.16 2605.09l588.67 3.38 3.01 -245.42c-50.79,-14 -532.48,-13.26 -593.25,-2.23l1.57 244.27z"/>
    <polygon fill="#F0C188" points="2865.97,2608.25 3458.5,2609.05 3457.54,2356.66 2869.07,2356.33 "/>
    <path fill="#F0C188" d="M319.23 2604.97l589.74 3.58 2.32 -247.12c-61.23,-10.79 -541.14,-11.94 -592.89,1.25l0.83 242.29z"/>
    <polygon fill="#F0C188" points="3162.16,2906.76 3754.67,2907.32 3753.6,2657.87 3161.35,2654.02 "/>
    <polygon fill="#F0C188" points="8254.25,2902.97 8845.48,2907.82 8846.31,2654.48 8252.36,2654.6 "/>
    <polygon fill="#F0C188" points="956.52,2608.77 1546.98,2608.95 1546.92,2356.71 958.92,2356.44 "/>
    <polygon fill="#F0C188" points="9528.05,2903.61 10119.41,2907.52 10119.58,2655.35 9525.99,2654.03 "/>
    <polygon fill="#F0C188" points="4138.99,2390.3 4139.99,2607.19 4725.84,2609.36 4731.43,2355.71 4139.27,2356.38 "/>
    <polygon fill="#F0C188" points="5413.46,2607.56 5601.2,2609.21 5612.38,2609.06 5999.34,2608.51 6004.21,2358.14 5858.37,2355.95 5735.37,2356.25 5412.51,2356.41 "/>
    <path fill="#F0C188" d="M2866.35 3201.74c65.16,10.65 543.21,12.1 590.81,-3.26l1.01 -239.57 -588.86 -5.7 -2.96 248.53z"/>
    <polygon fill="#F0C188" points="7320.27,3205.03 7911.9,3205.22 7912.66,2954.85 7324.32,2952.79 "/>
    <polygon fill="#F0C188" points="5411.06,3204.82 6002.27,3205.6 6003.53,2953.86 5416.75,2953.12 "/>
    <polygon fill="#F0C188" points="8891.25,2903.5 9482.31,2907.7 9482.82,2655.99 8890.16,2654.28 "/>
    <polygon fill="#F0C188" points="1252.45,2905.19 1844.1,2907.39 1843.66,2657.78 1250.87,2654.22 "/>
    <polygon fill="#F0C188" points="4776.54,2608.72 5361.73,2608.6 5367.64,2357.11 4776.59,2356.44 "/>
    <polygon fill="#F0C188" points="4436.21,2906.46 5026.78,2907.21 5028.29,2659.96 4434.68,2653.56 "/>
    <polygon fill="#F0C188" points="7321.03,2608.69 7909.3,2608.6 7913,2359.58 7321.14,2356.15 "/>
    <polygon fill="#F0C188" points="10164.2,2748.08 10165.89,2903.95 10755.54,2907.79 10756.78,2656.04 10163.94,2655.46 "/>
    <polygon fill="#F0C188" points="6048.21,3204.41 6639,3205.39 6639.1,2953.5 6053.01,2953.54 "/>
    <polygon fill="#F0C188" points="4776.03,3203 5366.2,3205.68 5366.14,2952.73 4779.55,2953.47 "/>
    <polygon fill="#F0C188" points="6050.49,2607.65 6635.47,2608.52 6640.75,2357.12 6049.75,2356.29 "/>
    <path fill="#F0C188" d="M9865.91 3201.04c57.35,10.37 547.9,11.1 590.66,-2.04l0.73 -240.22 -588.66 -5.11 -2.73 247.37z"/>
    <path fill="#F0C188" d="M9866.19 2605.53l590.14 2.99 1.35 -245.04c-197.89,-11.73 -393.18,-7.64 -592.19,-5.46l0.7 247.51z"/>
    <polygon fill="#F0C188" points="615.92,2903.95 1206.8,2907.48 1206.71,2658.36 614.66,2653.94 "/>
    <polygon fill="#F0C188" points="6684.68,3204.77 7274.75,3205.43 7275.55,2955.32 6689.65,2953 "/>
    <polygon fill="#F0C188" points="4139.12,3202.96 4729.61,3205.75 4729.98,2954.36 4142.78,2953.3 "/>
    <polygon fill="#F0C188" points="1592.41,3201.23 2183.68,3205.84 2183.07,2953.37 1595.69,2953.34 "/>
    <polygon fill="#F0C188" points="2230.31,2605.5 2817.04,2608.26 2820.16,2356.89 2228.51,2356.46 "/>
    <polygon fill="#F0C188" points="6686.15,2607.51 7271.97,2608.13 7276.69,2358.35 6685.78,2356.25 "/>
    <polygon fill="#F0C188" points="3503.19,3201.82 4093.06,3205.75 4093.28,2952.85 3507.04,2953.57 "/>
    <polygon fill="#F0C188" points="7958.86,2608.47 8545.52,2608.25 8550.17,2360.27 7959.91,2355.86 "/>
    <polygon fill="#F0C188" points="7957.82,3205.2 8548.14,3205.23 8549.1,2956.37 7963.92,2952.92 "/>
    <polygon fill="#F0C188" points="2230.02,3201.1 2818.64,3206 2819.42,2952.96 2231.61,2953.42 "/>
    <polygon fill="#F0C188" points="3503.8,2606.57 4088.29,2608.42 4094.17,2356.24 3502.86,2358.55 "/>
    <polygon fill="#F0C188" points="956.3,3205.64 1548.14,3205.36 1547.33,2957.98 963.1,2953.22 "/>
    <polygon fill="#F0C188" points="9229.76,3200.3 9819.78,3205.73 9819.49,2953.3 9232.54,2954.12 "/>
    <polygon fill="#F0C188" points="319.1,3199.92 910.62,3205.43 910.8,2957.26 320.55,2953.72 "/>
    <polygon fill="#F0C188" points="8206.79,2903.46 8209.64,2657.37 7619.43,2657.6 7621.89,2901.24 "/>
    <polygon fill="#F0C188" points="5710.43,2902.7 6296.67,2903.08 6298.4,2656.22 5707.94,2660.55 "/>
    <polygon fill="#F0C188" points="5077.36,2903.3 5660.58,2903.26 5660.19,2658.69 5074.64,2657.37 "/>
    <polygon fill="#F0C188" points="6348.91,2902.49 6932.58,2902.88 6934.25,2659.3 6344.98,2658.64 "/>
    <polygon fill="#F0C188" points="-22.83,3204.95 272.7,3204.86 273.34,2957.87 -22.83,2954.68 "/>
    <polygon fill="#F0C188" points="-11.74,2605.54 281.49,2605.12 284.92,2358.69 -11.74,2353.9 "/>
    <path fill="#F0C188" d="M5077.36 2903.3l-2.72 -245.93 585.55 1.32 0.39 244.57 -583.22 0.04zm0 0c29.58,17.79 530.03,20.74 581.98,5.02 33.94,-50.19 19.04,-185.95 12.4,-249.68 -57.76,-20.71 -233.74,-10.57 -305.35,-11.93 -62.04,-1.17 -260.85,-15.76 -298.38,15.65 -6.22,5.03 -1.31,9.06 0.82,39.03l-1.83 170.23c1.97,28.69 0.52,19.26 10.36,31.68z"/>
    <path fill="#F0C188" d="M6348.91 2902.49c38.1,22.41 245.97,11.56 292.11,10.77 70.43,-1.21 245.04,10.3 300.94,-8.63 11.54,-51.3 12.47,-208.35 -4.5,-250.76 -40.99,-5.4 -528.65,-22.16 -592.48,4.77l589.27 0.66 -1.67 243.58 -583.67 -0.39z"/>
    <path fill="#F0C188" d="M5710.43 2902.7c36.74,19.57 88.46,11.8 136.75,11.01 52.14,-0.84 104.35,0.46 156.53,-0.24 78.6,-1.05 224.82,8.49 293.33,-3.68 24.15,-46.58 24.46,-208.67 4.87,-257.15 -27.81,-4.67 -525.86,-15.16 -576.49,-1.08 -3.02,0.83 -6.56,3.26 -8.92,4.09 -2.38,0.85 -5.72,3.24 -8.56,4.9l590.46 -4.33 -1.73 246.86 -586.24 -0.38z"/>
    <path fill="#F0C188" d="M8206.79 2903.46l-584.9 -2.22 -2.46 -243.64 590.21 -0.23c-17.36,-8.69 17.99,-3.27 -25.81,-9.52l-568.53 3.55c-17.68,59.55 -14.37,192.27 0.32,253.23 49.11,17 227.84,11.07 288.86,8.78 52.46,-1.97 260.28,13.41 302.31,-9.95z"/>
    <path fill="#F0C188" d="M8236.36 4084.29c43.51,13.18 533.23,12.59 589.98,2.23l0.76 -243.8c-55.24,-9.52 -548.75,-9.34 -589.35,2.1l-1.39 239.47z"/>
    <polygon fill="#F0C188" points="3441.75,3791.6 4031.39,3793.47 4032.03,3538.89 3440.12,3539.52 "/>
    <polygon fill="#F0C188" points="2166.92,3791.62 2758.32,3792.72 2758.46,3542.27 2671.36,3538.9 2166.69,3540.06 "/>
    <polygon fill="#F0C188" points="8235.88,3493.21 8828.44,3494.57 8827.22,3241.06 8237.11,3241.53 "/>
    <polygon fill="#F0C188" points="6623.13,3793.13 7214.85,3793.38 7214.82,3542.03 6623.22,3539.6 "/>
    <polygon fill="#F0C188" points="8871.24,3494.69 9462.67,3494.85 9462.02,3241.45 8873.32,3241.97 "/>
    <polygon fill="#F0C188" points="1530.5,3789.88 2122.78,3793.37 2122.16,3540.21 1529.68,3539.63 "/>
    <polygon fill="#F0C188" points="-381.06,3792.6 211.74,3792.85 212.73,3542.8 -381.06,3540.21 "/>
    <path fill="#F0C188" d="M1234.93 3490.67l588.66 3.39 3.01 -245.42c-50.79,-14 -532.47,-13.26 -593.24,-2.23l1.57 244.26z"/>
    <polygon fill="#F0C188" points="2507.73,3493.83 3100.27,3494.64 3099.3,3242.25 2510.84,3241.92 "/>
    <path fill="#F0C188" d="M-39 3490.56l589.73 3.57 2.33 -247.12c-61.24,-10.79 -541.14,-11.93 -592.89,1.26l0.83 242.29z"/>
    <polygon fill="#F0C188" points="2803.93,3792.35 3396.44,3792.9 3395.37,3543.46 2803.11,3539.6 "/>
    <polygon fill="#F0C188" points="7896.02,3788.56 8487.24,3793.41 8488.08,3540.06 7894.13,3540.18 "/>
    <polygon fill="#F0C188" points="598.29,3494.36 1188.75,3494.53 1188.68,3242.3 600.69,3242.02 "/>
    <polygon fill="#F0C188" points="9169.82,3789.19 9761.17,3793.1 9761.35,3540.94 9167.76,3539.62 "/>
    <polygon fill="#F0C188" points="3780.75,3275.88 3781.76,3492.77 4367.61,3494.94 4373.2,3241.3 3781.03,3241.97 "/>
    <polygon fill="#F0C188" points="5055.23,3493.14 5242.96,3494.8 5254.15,3494.65 5641.1,3494.1 5645.98,3243.73 5500.13,3241.53 5377.13,3241.84 5054.27,3242 "/>
    <path fill="#F0C188" d="M2508.12 4087.33c65.16,10.64 543.21,12.1 590.8,-3.26l1.02 -239.57 -588.86 -5.71 -2.96 248.54z"/>
    <polygon fill="#F0C188" points="6962.03,4090.62 7553.67,4090.8 7554.42,3840.43 6966.09,3838.37 "/>
    <polygon fill="#F0C188" points="5052.82,4090.41 5644.04,4091.19 5645.29,3839.44 5058.51,3838.7 "/>
    <polygon fill="#F0C188" points="8533.02,3789.09 9124.07,3793.29 9124.59,3541.57 8531.92,3539.87 "/>
    <polygon fill="#F0C188" points="894.22,3790.78 1485.87,3792.97 1485.43,3543.37 892.63,3539.8 "/>
    <polygon fill="#F0C188" points="4418.31,3494.31 5003.5,3494.19 5009.4,3242.7 4418.36,3242.02 "/>
    <path fill="#F0C188" d="M10145.91 3490.82l583.24 3.5c16.9,-60.02 9.11,-186.49 5.09,-252.44l-191.5 0.12 -190.08 0.18 -207.5 1.23 0.75 247.41z"/>
    <polygon fill="#F0C188" points="4077.98,3792.05 4668.54,3792.8 4670.05,3545.55 4076.45,3539.14 "/>
    <polygon fill="#F0C188" points="6962.8,3494.28 7551.07,3494.19 7554.77,3245.16 6962.9,3241.73 "/>
    <polygon fill="#F0C188" points="9805.97,3633.67 9807.66,3789.54 10397.3,3793.38 10398.54,3541.62 9805.7,3541.04 "/>
    <polygon fill="#F0C188" points="5689.98,4090 6280.77,4090.97 6280.86,3839.09 5694.77,3839.12 "/>
    <polygon fill="#F0C188" points="4417.79,4088.58 5007.96,4091.26 5007.91,3838.32 4421.32,3839.06 "/>
    <polygon fill="#F0C188" points="5692.25,3493.24 6277.23,3494.11 6282.51,3242.71 5691.51,3241.88 "/>
    <path fill="#F0C188" d="M9507.67 4086.63c57.36,10.37 547.9,11.09 590.66,-2.05l0.73 -240.21 -588.65 -5.11 -2.74 247.37z"/>
    <path fill="#F0C188" d="M10145.28 4086.67c54.79,10.42 548.84,10.58 590.65,-2.39l0.71 -240.53 -588.3 -4.31 -3.06 247.23z"/>
    <path fill="#F0C188" d="M9507.95 3491.11l590.15 3 1.34 -245.05c-197.89,-11.73 -393.18,-7.63 -592.19,-5.45l0.7 247.5z"/>
    <polygon fill="#F0C188" points="257.68,3789.54 848.56,3793.06 848.47,3543.95 256.43,3539.52 "/>
    <polygon fill="#F0C188" points="6326.45,4090.35 6916.51,4091.01 6917.32,3840.91 6331.41,3838.58 "/>
    <polygon fill="#F0C188" points="3780.89,4088.54 4371.37,4091.33 4371.74,3839.94 3784.54,3838.89 "/>
    <polygon fill="#F0C188" points="1234.17,4086.81 1825.44,4091.42 1824.83,3838.95 1237.45,3838.93 "/>
    <polygon fill="#F0C188" points="1872.07,3491.08 2458.81,3493.84 2461.92,3242.47 1870.27,3242.05 "/>
    <polygon fill="#F0C188" points="6327.91,3493.09 6913.74,3493.71 6918.45,3243.94 6327.54,3241.84 "/>
    <polygon fill="#F0C188" points="3144.96,4087.41 3734.82,4091.33 3735.05,3838.44 3148.8,3839.15 "/>
    <polygon fill="#F0C188" points="7600.63,3494.06 8187.29,3493.83 8191.93,3245.85 7601.67,3241.44 "/>
    <polygon fill="#F0C188" points="7599.59,4090.79 8189.9,4090.82 8190.87,3841.95 7605.69,3838.5 "/>
    <polygon fill="#F0C188" points="1871.78,4086.68 2460.41,4091.58 2461.18,3838.54 1873.38,3839.01 "/>
    <polygon fill="#F0C188" points="3145.56,3492.15 3730.06,3494 3735.93,3241.82 3144.63,3244.13 "/>
    <polygon fill="#F0C188" points="598.06,4091.22 1189.91,4090.95 1189.09,3843.56 604.86,3838.81 "/>
    <polygon fill="#F0C188" points="8871.52,4085.89 9461.55,4091.32 9461.26,3838.89 8874.31,3839.71 "/>
    <polygon fill="#F0C188" points="-39.13,4085.51 552.38,4091.01 552.57,3842.85 -37.68,3839.31 "/>
    <polygon fill="#F0C188" points="7848.56,3789.05 7851.41,3542.96 7261.2,3543.18 7263.66,3786.83 "/>
    <polygon fill="#F0C188" points="5352.2,3788.28 5938.43,3788.67 5940.16,3541.81 5349.7,3546.14 "/>
    <polygon fill="#F0C188" points="4719.12,3788.89 5302.35,3788.85 5301.95,3544.28 4716.4,3542.96 "/>
    <polygon fill="#F0C188" points="5990.68,3788.07 6574.35,3788.47 6576.01,3544.88 5986.74,3544.22 "/>
    <path fill="#F0C188" d="M4719.12 3788.89l-2.72 -245.93 585.55 1.32 0.4 244.57 -583.23 0.04zm0 0c29.58,17.79 530.03,20.73 581.99,5.02 33.93,-50.2 19.04,-185.95 12.4,-249.69 -57.77,-20.7 -233.75,-10.56 -305.35,-11.92 -62.04,-1.18 -260.86,-15.77 -298.39,15.65 -6.22,5.03 -1.3,9.06 0.82,39.02l-1.82 170.24c1.97,28.68 0.51,19.25 10.35,31.68z"/>
    <path fill="#F0C188" d="M5990.68 3788.07c38.09,22.41 245.97,11.57 292.11,10.78 70.43,-1.22 245.03,10.3 300.93,-8.64 11.55,-51.29 12.47,-208.35 -4.5,-250.75 -40.99,-5.4 -528.64,-22.16 -592.48,4.76l589.27 0.66 -1.66 243.59 -583.67 -0.4z"/>
    <path fill="#F0C188" d="M5352.2 3788.28c36.74,19.57 88.45,11.81 136.75,11.02 52.13,-0.85 104.35,0.46 156.52,-0.24 78.61,-1.06 224.82,8.49 293.33,-3.69 24.16,-46.57 24.46,-208.66 4.88,-257.14 -27.82,-4.68 -525.86,-15.16 -576.49,-1.08 -3.03,0.83 -6.57,3.26 -8.93,4.09 -2.38,0.85 -5.72,3.24 -8.56,4.9l590.46 -4.33 -1.73 246.86 -586.23 -0.39z"/>
    <path fill="#F0C188" d="M7848.56 3789.05l-584.9 -2.22 -2.46 -243.65 590.21 -0.22c-17.37,-8.69 17.98,-3.28 -25.82,-9.52l-568.52 3.55c-17.69,59.54 -14.37,192.26 0.31,253.22 49.11,17.01 227.84,11.08 288.87,8.78 52.45,-1.97 260.27,13.42 302.31,-9.94z"/>
    <path fill="#F0C188" d="M7905.28 4979.27c43.51,13.18 533.22,12.58 589.98,2.23l0.75 -243.81c-55.24,-9.52 -548.74,-9.34 -589.35,2.1l-1.38 239.48z"/>
    <polygon fill="#F0C188" points="3110.66,4686.57 3700.3,4688.45 3700.95,4433.86 3109.04,4434.5 "/>
    <polygon fill="#F0C188" points="1835.83,4686.6 2427.23,4687.69 2427.38,4437.24 2340.27,4433.88 1835.61,4435.04 "/>
    <polygon fill="#F0C188" points="7904.8,4388.18 8497.36,4389.55 8496.13,4136.03 7906.03,4136.51 "/>
    <polygon fill="#F0C188" points="6292.05,4688.1 6883.76,4688.35 6883.74,4437.01 6292.14,4434.58 "/>
    <polygon fill="#F0C188" points="8540.16,4389.66 9131.58,4389.82 9130.94,4136.43 8542.23,4136.94 "/>
    <polygon fill="#F0C188" points="1199.42,4684.85 1791.7,4688.34 1791.08,4435.18 1198.6,4434.6 "/>
    <path fill="#F0C188" d="M903.84 4385.65l588.67 3.38 3.01 -245.42c-50.79,-14 -532.47,-13.26 -593.25,-2.23l1.57 244.27z"/>
    <polygon fill="#F0C188" points="2176.65,4388.81 2769.18,4389.61 2768.22,4137.22 2179.75,4136.89 "/>
    <polygon fill="#F0C188" points="10112.2,4685.81 10703.15,4688.12 10703.49,4436.37 10110.71,4434.68 "/>
    <path fill="#F0C188" d="M-370.09 4385.53l589.74 3.58 2.32 -247.12c-61.23,-10.79 -541.14,-11.94 -592.89,1.25l0.83 242.29z"/>
    <polygon fill="#F0C188" points="2472.84,4687.32 3065.35,4687.88 3064.28,4438.43 2472.03,4434.58 "/>
    <polygon fill="#F0C188" points="7564.93,4683.53 8156.16,4688.38 8156.99,4435.04 7563.05,4435.16 "/>
    <polygon fill="#F0C188" points="267.2,4389.33 857.66,4389.51 857.6,4137.27 269.61,4137 "/>
    <polygon fill="#F0C188" points="8838.73,4684.17 9430.09,4688.08 9430.26,4435.91 8836.67,4434.59 "/>
    <polygon fill="#F0C188" points="3449.67,4170.86 3450.67,4387.75 4036.52,4389.91 4042.11,4136.27 3449.95,4136.94 "/>
    <polygon fill="#F0C188" points="4724.14,4388.12 4911.88,4389.77 4923.06,4389.62 5310.02,4389.07 5314.89,4138.7 5169.05,4136.51 5046.05,4136.81 4723.19,4136.97 "/>
    <path fill="#F0C188" d="M2177.03 4982.3c65.16,10.65 543.21,12.1 590.81,-3.26l1.01 -239.57 -588.86 -5.7 -2.96 248.53z"/>
    <polygon fill="#F0C188" points="6630.95,4985.59 7222.58,4985.78 7223.34,4735.41 6635,4733.35 "/>
    <polygon fill="#F0C188" points="4721.74,4985.38 5312.95,4986.16 5314.21,4734.42 4727.43,4733.68 "/>
    <polygon fill="#F0C188" points="8201.93,4684.06 8792.99,4688.26 8793.5,4436.54 8200.84,4434.84 "/>
    <polygon fill="#F0C188" points="563.13,4685.75 1154.78,4687.94 1154.35,4438.34 561.55,4434.78 "/>
    <polygon fill="#F0C188" points="4087.22,4389.28 4672.41,4389.16 4678.32,4137.67 4087.28,4137 "/>
    <path fill="#F0C188" d="M9814.83 4385.79l583.24 3.5c16.9,-60.02 9.11,-186.49 5.08,-252.44l-191.5 0.12 -190.07 0.18 -207.5 1.23 0.75 247.41z"/>
    <polygon fill="#F0C188" points="3746.89,4687.02 4337.46,4687.77 4338.97,4440.52 3745.36,4434.11 "/>
    <polygon fill="#F0C188" points="6631.71,4389.25 7219.98,4389.16 7223.68,4140.14 6631.82,4136.71 "/>
    <polygon fill="#F0C188" points="9474.88,4528.64 9476.57,4684.51 10066.22,4688.35 10067.46,4436.6 9474.62,4436.02 "/>
    <polygon fill="#F0C188" points="5358.89,4984.97 5949.68,4985.95 5949.78,4734.06 5363.69,4734.1 "/>
    <polygon fill="#F0C188" points="4086.71,4983.56 4676.88,4986.24 4676.82,4733.29 4090.23,4734.03 "/>
    <polygon fill="#F0C188" points="5361.17,4388.21 5946.15,4389.08 5951.43,4137.68 5360.43,4136.85 "/>
    <path fill="#F0C188" d="M9176.59 4981.6c57.35,10.37 547.9,11.1 590.66,-2.04l0.73 -240.22 -588.66 -5.11 -2.73 247.37z"/>
    <path fill="#F0C188" d="M9814.2 4981.64c54.79,10.42 548.83,10.58 590.64,-2.39l0.71 -240.53 -588.29 -4.3 -3.06 247.22z"/>
    <path fill="#F0C188" d="M9176.87 4386.09l590.14 2.99 1.35 -245.05c-197.89,-11.72 -393.18,-7.63 -592.19,-5.45l0.7 247.51z"/>
    <polygon fill="#F0C188" points="-73.4,4684.51 517.48,4688.04 517.39,4438.92 -74.66,4434.5 "/>
    <polygon fill="#F0C188" points="5995.36,4985.33 6585.43,4985.99 6586.23,4735.88 6000.33,4733.56 "/>
    <polygon fill="#F0C188" points="3449.8,4983.52 4040.29,4986.3 4040.66,4734.92 3453.46,4733.86 "/>
    <polygon fill="#F0C188" points="903.09,4981.79 1494.36,4986.4 1493.75,4733.93 906.37,4733.9 "/>
    <polygon fill="#F0C188" points="1540.99,4386.06 2127.72,4388.82 2130.84,4137.45 1539.19,4137.02 "/>
    <polygon fill="#F0C188" points="5996.83,4388.07 6582.66,4388.69 6587.37,4138.91 5996.46,4136.81 "/>
    <polygon fill="#F0C188" points="2813.87,4982.38 3403.74,4986.3 3403.96,4733.41 2817.72,4734.13 "/>
    <polygon fill="#F0C188" points="7269.54,4389.03 7856.2,4388.81 7860.85,4140.83 7270.59,4136.42 "/>
    <polygon fill="#F0C188" points="7268.5,4985.76 7858.82,4985.79 7859.78,4736.93 7274.6,4733.48 "/>
    <polygon fill="#F0C188" points="1540.7,4981.66 2129.32,4986.56 2130.1,4733.52 1542.29,4733.98 "/>
    <polygon fill="#F0C188" points="2814.48,4387.13 3398.97,4388.98 3404.85,4136.8 2813.54,4139.11 "/>
    <polygon fill="#F0C188" points="266.98,4986.2 858.82,4985.92 858.01,4738.54 273.78,4733.78 "/>
    <polygon fill="#F0C188" points="8540.44,4980.86 9130.46,4986.29 9130.17,4733.86 8543.22,4734.68 "/>
    <polygon fill="#F0C188" points="-370.22,4980.48 221.3,4985.99 221.48,4737.82 -368.77,4734.28 "/>
    <polygon fill="#F0C188" points="7517.47,4684.02 7520.32,4437.93 6930.11,4438.16 6932.57,4681.8 "/>
    <polygon fill="#F0C188" points="5021.11,4683.26 5607.35,4683.64 5609.08,4436.78 5018.62,4441.11 "/>
    <polygon fill="#F0C188" points="4388.04,4683.86 4971.26,4683.82 4970.87,4439.25 4385.32,4437.93 "/>
    <polygon fill="#F0C188" points="5659.59,4683.05 6243.26,4683.44 6244.93,4439.86 5655.66,4439.2 "/>
    <path fill="#F0C188" d="M4388.04 4683.86l-2.72 -245.93 585.55 1.32 0.39 244.57 -583.22 0.04zm0 0c29.58,17.79 530.03,20.74 581.98,5.02 33.94,-50.19 19.04,-185.95 12.4,-249.68 -57.76,-20.71 -233.74,-10.57 -305.34,-11.93 -62.05,-1.17 -260.86,-15.76 -298.39,15.65 -6.22,5.03 -1.31,9.06 0.82,39.03l-1.82 170.23c1.96,28.69 0.51,19.26 10.35,31.68z"/>
    <path fill="#F0C188" d="M5659.59 4683.05c38.1,22.41 245.97,11.56 292.12,10.77 70.42,-1.21 245.03,10.3 300.93,-8.64 11.54,-51.29 12.47,-208.34 -4.5,-250.75 -40.99,-5.4 -528.65,-22.16 -592.48,4.77l589.27 0.66 -1.67 243.58 -583.67 -0.39z"/>
    <path fill="#F0C188" d="M5021.11 4683.26c36.74,19.57 88.46,11.8 136.75,11.01 52.14,-0.84 104.35,0.46 156.53,-0.24 78.6,-1.05 224.82,8.49 293.33,-3.68 24.15,-46.58 24.46,-208.67 4.87,-257.15 -27.81,-4.67 -525.86,-15.16 -576.49,-1.08 -3.02,0.83 -6.56,3.26 -8.92,4.09 -2.38,0.85 -5.72,3.24 -8.56,4.9l590.46 -4.33 -1.73 246.86 -586.24 -0.38z"/>
    <path fill="#F0C188" d="M7517.47 4684.02l-584.9 -2.22 -2.46 -243.64 590.21 -0.23c-17.36,-8.69 17.99,-3.27 -25.81,-9.52l-568.53 3.55c-17.68,59.55 -14.37,192.27 0.32,253.22 49.11,17.01 227.84,11.08 288.86,8.79 52.46,-1.97 260.28,13.41 302.31,-9.95z"/>
    <path fill="#F0C188" d="M7547.04 5864.85c43.51,13.18 533.23,12.59 589.98,2.23l0.76 -243.8c-55.24,-9.53 -548.75,-9.34 -589.35,2.1l-1.39 239.47z"/>
    <polygon fill="#F0C188" points="2752.43,5572.16 3342.07,5574.03 3342.72,5319.45 2750.8,5320.08 "/>
    <polygon fill="#F0C188" points="1477.6,5572.18 2069,5573.28 2069.14,5322.83 1982.04,5319.46 1477.37,5320.62 "/>
    <polygon fill="#F0C188" points="7546.56,5273.77 8139.12,5275.13 8137.9,5021.62 7547.79,5022.09 "/>
    <polygon fill="#F0C188" points="5933.81,5573.69 6525.53,5573.94 6525.5,5322.59 5933.9,5320.16 "/>
    <polygon fill="#F0C188" points="8181.92,5275.25 8773.35,5275.41 8772.7,5022.01 8184,5022.53 "/>
    <polygon fill="#F0C188" points="841.18,5570.44 1433.46,5573.93 1432.84,5320.77 840.36,5320.19 "/>
    <path fill="#F0C188" d="M545.61 5271.23l588.66 3.39 3.01 -245.42c-50.79,-14 -532.47,-13.26 -593.24,-2.23l1.57 244.26z"/>
    <polygon fill="#F0C188" points="1818.42,5274.39 2410.95,5275.2 2409.99,5022.81 1821.52,5022.48 "/>
    <polygon fill="#F0C188" points="9753.96,5571.39 10344.91,5573.7 10345.26,5321.96 9752.47,5320.27 "/>
    <polygon fill="#F0C188" points="2114.61,5572.91 2707.12,5573.46 2706.05,5324.02 2113.79,5320.16 "/>
    <polygon fill="#F0C188" points="7206.7,5569.12 7797.92,5573.97 7798.76,5320.62 7204.81,5320.74 "/>
    <polygon fill="#F0C188" points="-91.03,5274.92 499.43,5275.09 499.36,5022.86 -88.63,5022.58 "/>
    <polygon fill="#F0C188" points="8480.5,5569.75 9071.85,5573.66 9072.03,5321.5 8478.44,5320.18 "/>
    <polygon fill="#F0C188" points="3091.43,5056.44 3092.44,5273.33 3678.29,5275.5 3683.88,5021.85 3091.71,5022.53 "/>
    <polygon fill="#F0C188" points="4365.91,5273.7 4553.64,5275.35 4564.83,5275.21 4951.78,5274.65 4956.66,5024.28 4810.81,5022.09 4687.81,5022.4 4364.95,5022.55 "/>
    <path fill="#F0C188" d="M1818.8 5867.89c65.16,10.64 543.21,12.1 590.8,-3.26l1.02 -239.57 -588.86 -5.71 -2.96 248.54z"/>
    <polygon fill="#F0C188" points="6272.71,5871.18 6864.35,5871.36 6865.1,5620.99 6276.77,5618.93 "/>
    <polygon fill="#F0C188" points="4363.5,5870.97 4954.72,5871.74 4955.97,5620 4369.19,5619.26 "/>
    <polygon fill="#F0C188" points="7843.7,5569.65 8434.75,5573.85 8435.27,5322.13 7842.6,5320.43 "/>
    <polygon fill="#F0C188" points="204.9,5571.34 796.55,5573.53 796.11,5323.93 203.31,5320.36 "/>
    <polygon fill="#F0C188" points="3728.99,5274.87 4314.18,5274.75 4320.08,5023.25 3729.04,5022.58 "/>
    <path fill="#F0C188" d="M9456.59 5271.38l583.24 3.5c16.9,-60.02 9.11,-186.49 5.09,-252.44l-191.5 0.11 -190.07 0.19 -207.51 1.23 0.75 247.41z"/>
    <polygon fill="#F0C188" points="3388.66,5572.61 3979.22,5573.36 3980.73,5326.1 3387.13,5319.7 "/>
    <polygon fill="#F0C188" points="6273.48,5274.84 6861.75,5274.75 6865.45,5025.72 6273.58,5022.29 "/>
    <polygon fill="#F0C188" points="9116.65,5414.23 9118.34,5570.1 9707.98,5573.94 9709.22,5322.18 9116.38,5321.6 "/>
    <polygon fill="#F0C188" points="5000.66,5870.56 5591.45,5871.53 5591.54,5619.64 5005.45,5619.68 "/>
    <polygon fill="#F0C188" points="3728.47,5869.14 4318.64,5871.82 4318.59,5618.88 3732,5619.62 "/>
    <polygon fill="#F0C188" points="5002.93,5273.8 5587.91,5274.67 5593.19,5023.27 5002.19,5022.44 "/>
    <path fill="#F0C188" d="M8818.35 5867.19c57.36,10.37 547.9,11.09 590.66,-2.05l0.73 -240.21 -588.65 -5.11 -2.74 247.37z"/>
    <path fill="#F0C188" d="M9455.96 5867.23c54.79,10.42 548.84,10.58 590.65,-2.39l0.71 -240.53 -588.3 -4.31 -3.06 247.23z"/>
    <path fill="#F0C188" d="M8818.63 5271.67l590.15 3 1.34 -245.05c-197.89,-11.73 -393.18,-7.63 -592.19,-5.45l0.7 247.5z"/>
    <polygon fill="#F0C188" points="-431.64,5570.1 159.24,5573.62 159.15,5324.51 -432.89,5320.08 "/>
    <polygon fill="#F0C188" points="5637.13,5870.91 6227.19,5871.57 6228,5621.47 5642.09,5619.14 "/>
    <polygon fill="#F0C188" points="3091.57,5869.1 3682.05,5871.89 3682.42,5620.5 3095.22,5619.45 "/>
    <polygon fill="#F0C188" points="544.85,5867.37 1136.12,5871.98 1135.51,5619.51 548.13,5619.49 "/>
    <polygon fill="#F0C188" points="1182.75,5271.64 1769.49,5274.4 1772.6,5023.03 1180.95,5022.61 "/>
    <polygon fill="#F0C188" points="5638.59,5273.65 6224.42,5274.27 6229.13,5024.5 5638.22,5022.4 "/>
    <polygon fill="#F0C188" points="2455.64,5867.97 3045.5,5871.89 3045.73,5619 2459.48,5619.71 "/>
    <polygon fill="#F0C188" points="6911.31,5274.62 7497.97,5274.39 7502.62,5026.41 6912.35,5022 "/>
    <polygon fill="#F0C188" points="6910.27,5871.35 7500.58,5871.37 7501.55,5622.51 6916.37,5619.06 "/>
    <polygon fill="#F0C188" points="1182.46,5867.24 1771.09,5872.14 1771.86,5619.1 1184.06,5619.57 "/>
    <polygon fill="#F0C188" points="2456.25,5272.71 3040.74,5274.56 3046.61,5022.38 2455.31,5024.69 "/>
    <polygon fill="#F0C188" points="-91.26,5871.78 500.59,5871.51 499.77,5624.12 -84.46,5619.37 "/>
    <polygon fill="#F0C188" points="8182.2,5866.45 8772.23,5871.88 8771.94,5619.45 8184.99,5620.27 "/>
    <polygon fill="#F0C188" points="7159.24,5569.61 7162.09,5323.52 6571.88,5323.74 6574.34,5567.39 "/>
    <polygon fill="#F0C188" points="4662.88,5568.84 5249.11,5569.22 5250.84,5322.37 4660.38,5326.7 "/>
    <polygon fill="#F0C188" points="4029.8,5569.45 4613.03,5569.41 4612.63,5324.84 4027.08,5323.52 "/>
    <polygon fill="#F0C188" points="5301.36,5568.63 5885.03,5569.03 5886.69,5325.44 5297.42,5324.78 "/>
    <polygon fill="#F0C188" points="10087.72,5274.72 10340.09,5275.1 10344.03,5024.79 10088.65,5022.42 "/>
    <polygon fill="#F0C188" points="10086.88,5871.01 10343.26,5871.81 10343.46,5620.82 10092.48,5619.87 "/>
    <path fill="#F0C188" d="M4029.8 5569.45l-2.72 -245.93 585.55 1.32 0.4 244.57 -583.23 0.04zm0 0c29.58,17.79 530.03,20.73 581.99,5.02 33.93,-50.2 19.04,-185.95 12.4,-249.69 -57.77,-20.7 -233.75,-10.56 -305.35,-11.92 -62.04,-1.18 -260.86,-15.77 -298.39,15.65 -6.22,5.03 -1.3,9.06 0.82,39.02l-1.82 170.24c1.97,28.68 0.51,19.25 10.35,31.68z"/>
    <path fill="#F0C188" d="M5301.36 5568.63c38.1,22.41 245.97,11.57 292.11,10.78 70.43,-1.22 245.03,10.3 300.94,-8.64 11.54,-51.29 12.46,-208.35 -4.51,-250.75 -40.99,-5.4 -528.64,-22.16 -592.48,4.76l589.27 0.66 -1.66 243.59 -583.67 -0.4z"/>
    <path fill="#F0C188" d="M4662.88 5568.84c36.74,19.57 88.45,11.81 136.75,11.02 52.13,-0.85 104.35,0.46 156.52,-0.24 78.61,-1.06 224.82,8.49 293.33,-3.69 24.16,-46.57 24.46,-208.66 4.88,-257.14 -27.82,-4.68 -525.86,-15.16 -576.49,-1.08 -3.03,0.83 -6.57,3.26 -8.93,4.09 -2.38,0.84 -5.72,3.24 -8.56,4.9l590.46 -4.33 -1.73 246.85 -586.23 -0.38z"/>
    <path fill="#F0C188" d="M7159.24 5569.61l-584.9 -2.22 -2.46 -243.65 590.21 -0.22c-17.37,-8.69 17.99,-3.28 -25.82,-9.52l-568.52 3.55c-17.69,59.54 -14.37,192.26 0.31,253.22 49.12,17.01 227.84,11.08 288.87,8.78 52.45,-1.97 260.27,13.42 302.31,-9.94z"/>
    <path fill="#F0C188" d="M7874.99 6751.56c43.52,13.18 533.23,12.58 589.99,2.23l0.75 -243.81c-55.24,-9.52 -548.74,-9.33 -589.35,2.1l-1.39 239.48z"/>
    <polygon fill="#F0C188" points="3080.38,6458.86 3670.02,6460.74 3670.67,6206.16 3078.76,6206.79 "/>
    <polygon fill="#F0C188" points="1805.55,6458.89 2396.95,6459.99 2397.1,6209.54 2309.99,6206.17 1805.33,6207.33 "/>
    <polygon fill="#F0C188" points="7874.52,6160.48 8467.08,6161.84 8465.85,5908.32 7875.75,5908.8 "/>
    <polygon fill="#F0C188" points="6261.77,6460.4 6853.48,6460.65 6853.45,6209.3 6261.86,6206.87 "/>
    <polygon fill="#F0C188" points="8509.88,6161.96 9101.3,6162.12 9100.66,5908.72 8511.95,5909.24 "/>
    <polygon fill="#F0C188" points="1169.14,6457.15 1761.42,6460.63 1760.8,6207.48 1168.32,6206.9 "/>
    <path fill="#F0C188" d="M873.56 6157.94l588.67 3.38 3.01 -245.41c-50.79,-14 -532.48,-13.26 -593.25,-2.24l1.57 244.27z"/>
    <polygon fill="#F0C188" points="2146.37,6161.1 2738.9,6161.9 2737.94,5909.51 2149.47,5909.18 "/>
    <polygon fill="#F0C188" points="10081.92,6458.1 10672.87,6460.41 10673.21,6208.67 10080.43,6206.98 "/>
    <path fill="#F0C188" d="M-400.37 6157.82l589.74 3.58 2.32 -247.12c-61.24,-10.79 -541.14,-11.94 -592.89,1.26l0.83 242.28z"/>
    <polygon fill="#F0C188" points="2442.56,6459.62 3035.07,6460.17 3034,6210.73 2441.75,6206.87 "/>
    <polygon fill="#F0C188" points="7534.65,6455.83 8125.88,6460.67 8126.71,6207.33 7532.76,6207.45 "/>
    <polygon fill="#F0C188" points="236.92,6161.63 827.38,6161.8 827.32,5909.57 239.32,5909.29 "/>
    <polygon fill="#F0C188" points="8808.45,6456.46 9399.81,6460.37 9399.98,6208.2 8806.39,6206.88 "/>
    <polygon fill="#F0C188" points="3419.39,5943.15 3420.39,6160.04 4006.24,6162.21 4011.83,5908.56 3419.67,5909.24 "/>
    <polygon fill="#F0C188" points="4693.86,6160.41 4881.59,6162.06 4892.78,6161.92 5279.74,6161.36 5284.61,5910.99 5138.77,5908.8 5015.77,5909.1 4692.91,5909.26 "/>
    <path fill="#F0C188" d="M2146.75 6754.6c65.16,10.64 543.21,12.09 590.81,-3.27l1.01 -239.56 -588.86 -5.71 -2.96 248.54z"/>
    <polygon fill="#F0C188" points="6600.67,6757.88 7192.3,6758.07 7193.06,6507.7 6604.72,6505.64 "/>
    <polygon fill="#F0C188" points="4691.46,6757.67 5282.67,6758.45 5283.92,6506.71 4697.15,6505.97 "/>
    <polygon fill="#F0C188" points="8171.65,6456.36 8762.71,6460.55 8763.22,6208.84 8170.55,6207.13 "/>
    <polygon fill="#F0C188" points="532.85,6458.05 1124.5,6460.24 1124.06,6210.63 531.27,6207.07 "/>
    <polygon fill="#F0C188" points="4056.94,6161.57 4642.13,6161.45 4648.04,5909.96 4056.99,5909.29 "/>
    <path fill="#F0C188" d="M9784.55 6158.09l583.24 3.5c16.9,-60.02 9.11,-186.5 5.08,-252.45l-191.5 0.12 -190.07 0.19 -207.5 1.23 0.75 247.41z"/>
    <polygon fill="#F0C188" points="3716.61,6459.31 4307.18,6460.07 4308.68,6212.81 3715.08,6206.41 "/>
    <polygon fill="#F0C188" points="6601.43,6161.55 7189.7,6161.45 7193.4,5912.43 6601.54,5909 "/>
    <polygon fill="#F0C188" points="9444.6,6300.94 9446.29,6456.8 10035.94,6460.65 10037.18,6208.89 9444.34,6208.31 "/>
    <polygon fill="#F0C188" points="5328.61,6757.26 5919.4,6758.24 5919.5,6506.35 5333.41,6506.39 "/>
    <polygon fill="#F0C188" points="4056.43,6755.85 4646.6,6758.53 4646.54,6505.59 4059.95,6506.33 "/>
    <polygon fill="#F0C188" points="5330.88,6160.5 5915.86,6161.38 5921.15,5909.98 5330.14,5909.14 "/>
    <path fill="#F0C188" d="M9146.31 6753.9c57.35,10.36 547.9,11.09 590.66,-2.05l0.72 -240.22 -588.65 -5.11 -2.73 247.38z"/>
    <path fill="#F0C188" d="M9783.91 6753.94c54.8,10.42 548.84,10.57 590.65,-2.39l0.71 -240.54 -588.29 -4.3 -3.07 247.23z"/>
    <path fill="#F0C188" d="M9146.59 6158.38l590.14 3 1.35 -245.05c-197.89,-11.73 -393.18,-7.64 -592.19,-5.46l0.7 247.51z"/>
    <polygon fill="#F0C188" points="-103.69,6456.8 487.2,6460.33 487.11,6211.21 -104.94,6206.79 "/>
    <polygon fill="#F0C188" points="5965.08,6757.62 6555.15,6758.28 6555.95,6508.17 5970.05,6505.85 "/>
    <polygon fill="#F0C188" points="3419.52,6755.81 4010.01,6758.6 4010.38,6507.21 3423.18,6506.15 "/>
    <polygon fill="#F0C188" points="872.81,6754.08 1464.08,6758.69 1463.47,6506.22 876.08,6506.19 "/>
    <polygon fill="#F0C188" points="1510.71,6158.35 2097.44,6161.11 2100.56,5909.74 1508.91,5909.32 "/>
    <polygon fill="#F0C188" points="5966.55,6160.36 6552.37,6160.98 6557.09,5911.2 5966.18,5909.1 "/>
    <polygon fill="#F0C188" points="2783.59,6754.68 3373.46,6758.6 3373.68,6505.71 2787.44,6506.42 "/>
    <polygon fill="#F0C188" points="7239.26,6161.32 7825.92,6161.1 7830.57,5913.12 7240.31,5908.71 "/>
    <polygon fill="#F0C188" points="7238.22,6758.06 7828.54,6758.08 7829.5,6509.22 7244.32,6505.77 "/>
    <polygon fill="#F0C188" points="1510.41,6753.95 2099.04,6758.85 2099.82,6505.81 1512.01,6506.27 "/>
    <polygon fill="#F0C188" points="2784.2,6159.42 3368.69,6161.27 3374.57,5909.09 2783.26,5911.4 "/>
    <polygon fill="#F0C188" points="236.7,6758.49 828.54,6758.21 827.72,6510.83 243.5,6506.08 "/>
    <polygon fill="#F0C188" points="8510.16,6753.16 9100.18,6758.58 9099.89,6506.15 8512.94,6506.97 "/>
    <polygon fill="#F0C188" points="-400.5,6752.77 191.02,6758.28 191.2,6510.12 -399.05,6506.58 "/>
    <polygon fill="#F0C188" points="7487.19,6456.32 7490.04,6210.22 6899.83,6210.45 6902.29,6454.1 "/>
    <polygon fill="#F0C188" points="4990.83,6455.55 5577.07,6455.93 5578.8,6209.08 4988.34,6213.41 "/>
    <polygon fill="#F0C188" points="4357.76,6456.16 4940.98,6456.12 4940.59,6211.54 4355.04,6210.22 "/>
    <polygon fill="#F0C188" points="5629.31,6455.34 6212.98,6455.73 6214.65,6212.15 5625.38,6211.49 "/>
    <path fill="#F0C188" d="M4357.76 6456.16l-2.72 -245.94 585.55 1.32 0.39 244.58 -583.22 0.04zm0 0c29.58,17.79 530.03,20.73 581.98,5.02 33.94,-50.2 19.04,-185.96 12.4,-249.69 -57.76,-20.7 -233.74,-10.56 -305.35,-11.92 -62.04,-1.18 -260.85,-15.77 -298.38,15.65 -6.22,5.03 -1.31,9.06 0.82,39.02l-1.83 170.24c1.97,28.68 0.52,19.25 10.36,31.68z"/>
    <path fill="#F0C188" d="M5629.31 6455.34c38.1,22.41 245.97,11.57 292.11,10.77 70.43,-1.21 245.04,10.3 300.94,-8.63 11.54,-51.29 12.47,-208.35 -4.5,-250.76 -40.99,-5.4 -528.65,-22.15 -592.48,4.77l589.27 0.66 -1.67 243.58 -583.67 -0.39z"/>
    <path fill="#F0C188" d="M4990.83 6455.55c36.74,19.57 88.46,11.81 136.75,11.01 52.14,-0.84 104.35,0.47 156.53,-0.23 78.6,-1.06 224.82,8.49 293.33,-3.69 24.15,-46.58 24.46,-208.66 4.87,-257.14 -27.81,-4.68 -525.86,-15.16 -576.49,-1.09 -3.02,0.84 -6.56,3.27 -8.93,4.1 -2.37,0.84 -5.71,3.23 -8.55,4.9l590.46 -4.33 -1.73 246.85 -586.24 -0.38z"/>
    <path fill="#F0C188" d="M7487.19 6456.32l-584.9 -2.22 -2.46 -243.65 590.21 -0.23c-17.36,-8.69 17.99,-3.27 -25.81,-9.52l-568.53 3.56c-17.68,59.54 -14.37,192.26 0.32,253.22 49.11,17.01 227.84,11.08 288.86,8.78 52.46,-1.97 260.28,13.42 302.31,-9.94z"/>
    <path fill="#F0C188" d="M7516.76 7637.14c43.51,13.18 533.22,12.59 589.98,2.24l0.76 -243.81c-55.24,-9.52 -548.75,-9.34 -589.35,2.1l-1.39 239.47z"/>
    <polygon fill="#F0C188" points="2722.15,7344.45 3311.79,7346.32 3312.43,7091.74 2720.52,7092.38 "/>
    <polygon fill="#F0C188" points="1447.32,7344.48 2038.72,7345.57 2038.86,7095.12 1951.75,7091.76 1447.09,7092.92 "/>
    <polygon fill="#F0C188" points="7516.28,7046.06 8108.84,7047.42 8107.62,6793.91 7517.51,6794.39 "/>
    <polygon fill="#F0C188" points="5903.53,7345.98 6495.25,7346.23 6495.22,7094.88 5903.62,7092.46 "/>
    <polygon fill="#F0C188" points="8151.64,7047.54 8743.07,7047.7 8742.42,6794.31 8153.72,6794.82 "/>
    <polygon fill="#F0C188" points="810.9,7342.73 1403.18,7346.22 1402.56,7093.06 810.08,7092.48 "/>
    <path fill="#F0C188" d="M515.33 7043.53l588.66 3.38 3.01 -245.42c-50.79,-14 -532.47,-13.26 -593.24,-2.23l1.57 244.27z"/>
    <polygon fill="#F0C188" points="1788.13,7046.68 2380.67,7047.49 2379.7,6795.1 1791.24,6794.77 "/>
    <polygon fill="#F0C188" points="9723.68,7343.68 10314.63,7345.99 10314.98,7094.25 9722.19,7092.56 "/>
    <polygon fill="#F0C188" points="2084.33,7345.2 2676.84,7345.76 2675.77,7096.31 2083.51,7092.46 "/>
    <polygon fill="#F0C188" points="7176.42,7341.41 7767.64,7346.26 7768.48,7092.92 7174.53,7093.04 "/>
    <polygon fill="#F0C188" points="-121.31,7047.21 469.15,7047.38 469.08,6795.15 -118.91,6794.87 "/>
    <polygon fill="#F0C188" points="8450.22,7342.05 9041.57,7345.95 9041.75,7093.79 8448.15,7092.47 "/>
    <polygon fill="#F0C188" points="3061.15,6828.73 3062.16,7045.63 3648.01,7047.79 3653.59,6794.15 3061.43,6794.82 "/>
    <polygon fill="#F0C188" points="4335.62,7046 4523.36,7047.65 4534.54,7047.5 4921.5,7046.95 4926.38,6796.58 4780.53,6794.39 4657.53,6794.69 4334.67,6794.85 "/>
    <path fill="#F0C188" d="M1788.52 7640.18c65.15,10.65 543.21,12.1 590.8,-3.26l1.02 -239.57 -588.86 -5.7 -2.96 248.53z"/>
    <polygon fill="#F0C188" points="6242.43,7643.47 6834.07,7643.65 6834.82,7393.28 6246.49,7391.22 "/>
    <polygon fill="#F0C188" points="4333.22,7643.26 4924.43,7644.04 4925.69,7392.29 4338.91,7391.55 "/>
    <polygon fill="#F0C188" points="7813.42,7341.94 8404.47,7346.14 8404.98,7094.42 7812.32,7092.72 "/>
    <polygon fill="#F0C188" points="174.62,7343.63 766.26,7345.82 765.83,7096.22 173.03,7092.65 "/>
    <polygon fill="#F0C188" points="3698.71,7047.16 4283.9,7047.04 4289.8,6795.55 3698.76,6794.87 "/>
    <path fill="#F0C188" d="M9426.31 7043.67l583.24 3.5c16.9,-60.02 9.11,-186.49 5.08,-252.44l-191.49 0.12 -190.08 0.18 -207.5 1.23 0.75 247.41z"/>
    <polygon fill="#F0C188" points="3358.38,7344.9 3948.94,7345.65 3950.45,7098.4 3356.85,7091.99 "/>
    <polygon fill="#F0C188" points="6243.2,7047.13 6831.47,7047.04 6835.16,6798.02 6243.3,6794.58 "/>
    <polygon fill="#F0C188" points="9086.37,7186.52 9088.06,7342.39 9677.7,7346.23 9678.94,7094.48 9086.1,7093.89 "/>
    <polygon fill="#F0C188" points="4970.38,7642.85 5561.17,7643.83 5561.26,7391.94 4975.17,7391.98 "/>
    <polygon fill="#F0C188" points="3698.19,7641.44 4288.36,7644.12 4288.31,7391.17 3701.72,7391.91 "/>
    <polygon fill="#F0C188" points="4972.65,7046.09 5557.63,7046.96 5562.91,6795.56 4971.91,6794.73 "/>
    <path fill="#F0C188" d="M8788.07 7639.48c57.36,10.37 547.9,11.09 590.66,-2.05l0.73 -240.21 -588.65 -5.11 -2.74 247.37z"/>
    <path fill="#F0C188" d="M9425.68 7639.52c54.79,10.42 548.84,10.58 590.64,-2.39l0.72 -240.53 -588.3 -4.31 -3.06 247.23z"/>
    <path fill="#F0C188" d="M8788.35 7043.96l590.14 3 1.35 -245.05c-197.89,-11.72 -393.18,-7.63 -592.19,-5.45l0.7 247.5z"/>
    <polygon fill="#F0C188" points="-461.92,7342.39 128.96,7345.92 128.87,7096.8 -463.18,7092.38 "/>
    <polygon fill="#F0C188" points="5606.85,7643.21 6196.91,7643.87 6197.72,7393.76 5611.81,7391.44 "/>
    <polygon fill="#F0C188" points="3061.29,7641.4 3651.77,7644.18 3652.14,7392.8 3064.94,7391.74 "/>
    <polygon fill="#F0C188" points="514.57,7639.67 1105.84,7644.28 1105.23,7391.81 517.85,7391.78 "/>
    <polygon fill="#F0C188" points="1152.47,7043.94 1739.21,7046.7 1742.32,6795.32 1150.67,6794.9 "/>
    <polygon fill="#F0C188" points="5608.31,7045.94 6194.14,7046.56 6198.85,6796.79 5607.94,6794.69 "/>
    <polygon fill="#F0C188" points="2425.36,7640.26 3015.22,7644.18 3015.45,7391.29 2429.2,7392 "/>
    <polygon fill="#F0C188" points="6881.03,7046.91 7467.69,7046.68 7472.33,6798.7 6882.07,6794.29 "/>
    <polygon fill="#F0C188" points="6879.99,7643.64 7470.3,7643.67 7471.26,7394.8 6886.09,7391.36 "/>
    <polygon fill="#F0C188" points="1152.18,7639.53 1740.8,7644.43 1741.58,7391.4 1153.78,7391.86 "/>
    <polygon fill="#F0C188" points="2425.96,7045.01 3010.46,7046.86 3016.33,6794.68 2425.03,6796.99 "/>
    <polygon fill="#F0C188" points="-121.54,7644.08 470.31,7643.8 469.49,7396.41 -114.74,7391.66 "/>
    <polygon fill="#F0C188" points="8151.92,7638.74 8741.95,7644.17 8741.66,7391.74 8154.71,7392.56 "/>
    <polygon fill="#F0C188" points="7128.96,7341.9 7131.81,7095.81 6541.6,7096.03 6544.05,7339.68 "/>
    <polygon fill="#F0C188" points="4632.6,7341.13 5218.83,7341.52 5220.56,7094.66 4630.1,7098.99 "/>
    <polygon fill="#F0C188" points="3999.52,7341.74 4582.75,7341.7 4582.35,7097.13 3996.8,7095.81 "/>
    <polygon fill="#F0C188" points="5271.08,7340.92 5854.75,7341.32 5856.41,7097.74 5267.14,7097.08 "/>
    <polygon fill="#F0C188" points="10057.43,7047.01 10309.81,7047.4 10313.75,6797.08 10058.37,6794.72 "/>
    <polygon fill="#F0C188" points="10056.6,7643.3 10312.98,7644.1 10313.18,7393.11 10062.2,7392.16 "/>
    <path fill="#F0C188" d="M3999.52 7341.74l-2.72 -245.93 585.55 1.32 0.4 244.57 -583.23 0.04zm0 0c29.58,17.79 530.03,20.74 581.98,5.02 33.94,-50.2 19.05,-185.95 12.4,-249.68 -57.76,-20.71 -233.74,-10.57 -305.34,-11.93 -62.04,-1.17 -260.86,-15.77 -298.39,15.65 -6.22,5.03 -1.31,9.06 0.82,39.02l-1.82 170.24c1.97,28.68 0.51,19.26 10.35,31.68z"/>
    <path fill="#F0C188" d="M5271.08 7340.92c38.09,22.41 245.97,11.57 292.11,10.78 70.43,-1.22 245.03,10.3 300.93,-8.64 11.55,-51.29 12.47,-208.35 -4.5,-250.75 -40.99,-5.4 -528.64,-22.16 -592.48,4.77l589.27 0.66 -1.66 243.58 -583.67 -0.4z"/>
    <path fill="#F0C188" d="M4632.6 7341.13c36.74,19.58 88.45,11.81 136.74,11.02 52.14,-0.85 104.36,0.46 156.53,-0.24 78.61,-1.06 224.82,8.49 293.33,-3.68 24.16,-46.58 24.46,-208.67 4.88,-257.15 -27.82,-4.67 -525.86,-15.16 -576.49,-1.08 -3.03,0.83 -6.57,3.26 -8.93,4.09 -2.38,0.85 -5.72,3.24 -8.56,4.9l590.46 -4.33 -1.73 246.86 -586.23 -0.39z"/>
    <path fill="#F0C188" d="M7128.96 7341.9l-584.91 -2.22 -2.45 -243.65 590.21 -0.22c-17.37,-8.69 17.98,-3.28 -25.82,-9.52l-568.53 3.55c-17.68,59.55 -14.36,192.26 0.32,253.22 49.11,17.01 227.84,11.08 288.87,8.78 52.45,-1.96 260.27,13.42 302.31,-9.94z"/>
    <g id="_869253580384">
     <rect fill="#C8F4FF" stroke="#205969" stroke-width="20" stroke-miterlimit="22.9256" x="6122.87" y="1885.71" width="2034.68" height="3071.49"/>
     <rect fill="white" stroke="#205969" stroke-width="7.62" stroke-miterlimit="22.9256" transform="matrix(1.06081E-14 -1.1181 1.40474 1.03854E-13 2274.09 6698.57)" width="1191.72" height="1244.26" rx="33.67" ry="33.67"/>
     <rect fill="#C8F4FF" stroke="#205969" stroke-width="20" stroke-miterlimit="22.9256" x="2077.92" y="1885.2" width="2034.68" height="3071.49"/>
     <rect fill="#C8F4FF" stroke="#205969" stroke-width="20" stroke-miterlimit="22.9256" x="4096.75" y="1887.4" width="2034.68" height="3071.49"/>
     <rect fill="white" x="2065.16" y="4967.84" width="6105.03" height="152.76"/>
     <rect fill="white" stroke="#205969" stroke-width="7.62" stroke-miterlimit="22.9256" x="3528.2" y="5460.91" width="428.46" height="1151.48" rx="57.32" ry="50.75"/>
     <rect fill="white" stroke="#205969" stroke-width="7.62" stroke-miterlimit="22.9256" x="2337.13" y="5460.08" width="1139.34" height="1150.66" rx="62.76" ry="20.88"/>
     <circle fill="#7DD9F0" stroke="#205969" stroke-width="7.62" stroke-miterlimit="22.9256" cx="2902.56" cy="6030.49" r="463.14"/>
     <rect fill="white" x="4043.6" y="1897.78" width="42.34" height="3048.75"/>
     <rect fill="white" x="6076.31" y="1897.11" width="42.34" height="3048.75"/>
     <polyline fill="none" stroke="#292417" stroke-width="75" stroke-miterlimit="22.9256" points="2274.09,6048.98 1121.56,6051.57 1126.38,2362.7 "/>
    </g>
    <path fill="#F0C188" d="M8110.82 253.17c43.52,13.18 533.23,12.59 589.99,2.23l0.75 -243.8c-55.24,-9.53 -548.74,-9.34 -589.35,2.1l-1.39 239.47z"/>
    <polygon fill="#F0C188" points="3316.21,-39.52 3905.85,-37.65 3906.5,-292.23 3314.58,-291.6 "/>
    <polygon fill="#F0C188" points="2041.38,-39.5 2632.78,-38.4 2632.92,-288.85 2545.82,-292.22 2041.16,-291.06 "/>
    <polygon fill="#F0C188" points="6497.59,-37.99 7089.31,-37.74 7089.28,-289.09 6497.69,-291.52 "/>
    <polygon fill="#F0C188" points="1404.96,-41.24 1997.25,-37.75 1996.63,-290.91 1404.15,-291.49 "/>
    <polygon fill="#F0C188" points="-506.6,-38.52 86.2,-38.27 87.19,-288.32 -506.6,-290.91 "/>
    <polygon fill="#F0C188" points="2678.39,-38.77 3270.9,-38.22 3269.83,-287.66 2677.57,-291.52 "/>
    <polygon fill="#F0C188" points="7770.48,-42.56 8361.71,-37.72 8362.54,-291.06 7768.59,-290.94 "/>
    <polygon fill="#F0C188" points="9044.28,-41.93 9635.64,-38.02 9635.81,-290.18 9042.22,-291.51 "/>
    <path fill="#F0C188" d="M2382.58 256.21c65.16,10.64 543.21,12.09 590.8,-3.26l1.02 -239.57 -588.86 -5.71 -2.96 248.54z"/>
    <polygon fill="#F0C188" points="6836.5,259.5 7428.13,259.68 7428.88,9.31 6840.55,7.25 "/>
    <polygon fill="#F0C188" points="4927.28,259.28 5518.5,260.06 5519.75,8.32 4932.98,7.58 "/>
    <polygon fill="#F0C188" points="8407.48,-42.03 8998.53,-37.83 8999.05,-289.55 8406.38,-291.25 "/>
    <polygon fill="#F0C188" points="768.68,-40.34 1360.33,-38.15 1359.89,-287.75 767.09,-291.32 "/>
    <polygon fill="#F0C188" points="3952.44,-39.08 4543.01,-38.32 4544.51,-285.58 3950.91,-291.98 "/>
    <polygon fill="#F0C188" points="9680.43,-197.45 9682.12,-41.58 10271.76,-37.74 10273.01,-289.5 9680.17,-290.08 "/>
    <polygon fill="#F0C188" points="5564.44,258.88 6155.23,259.85 6155.32,7.96 5569.24,8 "/>
    <polygon fill="#F0C188" points="4292.25,257.46 4882.42,260.14 4882.37,7.2 4295.78,7.94 "/>
    <path fill="#F0C188" d="M9382.14 255.51c57.35,10.36 547.9,11.09 590.66,-2.05l0.72 -240.21 -588.65 -5.11 -2.73 247.37z"/>
    <path fill="#F0C188" d="M10019.74 255.55c54.79,10.42 548.84,10.58 590.65,-2.39l0.71 -240.53 -588.29 -4.31 -3.07 247.23z"/>
    <polygon fill="#F0C188" points="132.14,-41.58 723.03,-38.06 722.93,-287.17 130.89,-291.6 "/>
    <polygon fill="#F0C188" points="6200.91,259.23 6790.98,259.89 6791.78,9.79 6205.88,7.46 "/>
    <polygon fill="#F0C188" points="3655.35,257.42 4245.84,260.21 4246.21,8.82 3659.01,7.77 "/>
    <polygon fill="#F0C188" points="1108.64,255.69 1699.9,260.3 1699.3,7.83 1111.91,7.81 "/>
    <polygon fill="#F0C188" points="3019.42,256.29 3609.29,260.21 3609.51,7.32 3023.26,8.03 "/>
    <polygon fill="#F0C188" points="7474.05,259.67 8064.36,259.69 8065.33,10.83 7480.15,7.38 "/>
    <polygon fill="#F0C188" points="1746.24,255.56 2334.87,260.46 2335.65,7.42 1747.84,7.88 "/>
    <polygon fill="#F0C188" points="472.52,260.1 1064.37,259.83 1063.55,12.44 479.33,7.69 "/>
    <polygon fill="#F0C188" points="8745.98,254.77 9336.01,260.2 9335.72,7.77 8748.77,8.58 "/>
    <polygon fill="#F0C188" points="-164.67,254.39 426.85,259.89 427.03,11.73 -163.22,8.19 "/>
    <polygon fill="#F0C188" points="7723.02,-42.07 7725.87,-288.16 7135.66,-287.94 7138.12,-44.29 "/>
    <polygon fill="#F0C188" points="5226.66,-42.84 5812.9,-42.46 5814.63,-289.31 5224.17,-284.98 "/>
    <polygon fill="#F0C188" points="4593.59,-42.23 5176.81,-42.27 5176.41,-286.84 4590.87,-288.16 "/>
    <polygon fill="#F0C188" points="5865.14,-43.05 6448.81,-42.65 6450.48,-286.24 5861.2,-286.9 "/>
    <path fill="#F0C188" d="M4593.59 -42.23l-2.72 -245.93 585.54 1.32 0.4 244.57 -583.22 0.04zm0 0c29.58,17.79 530.03,20.73 581.98,5.02 33.94,-50.2 19.04,-185.95 12.4,-249.69 -57.76,-20.7 -233.75,-10.56 -305.35,-11.92 -62.04,-1.18 -260.85,-15.77 -298.38,15.65 -6.22,5.03 -1.31,9.06 0.82,39.02l-1.83 170.24c1.97,28.68 0.52,19.25 10.36,31.68z"/>
    <path fill="#F0C188" d="M5865.14 -43.05c38.1,22.41 245.97,11.57 292.11,10.78 70.43,-1.22 245.04,10.3 300.94,-8.64 11.54,-51.29 12.46,-208.35 -4.51,-250.75 -40.99,-5.4 -528.64,-22.16 -592.48,4.76l589.28 0.66 -1.67 243.59 -583.67 -0.4z"/>
    <path fill="#F0C188" d="M5226.66 -42.84c36.74,19.57 88.45,11.81 136.75,11.01 52.14,-0.84 104.35,0.47 156.53,-0.23 78.6,-1.06 224.81,8.49 293.33,-3.69 24.15,-46.57 24.45,-208.66 4.87,-257.14 -27.81,-4.68 -525.86,-15.16 -576.49,-1.08 -3.02,0.83 -6.56,3.26 -8.93,4.09 -2.37,0.84 -5.71,3.23 -8.55,4.9l590.46 -4.33 -1.73 246.85 -586.24 -0.38z"/>
    <path fill="#F0C188" d="M7723.02 -42.07l-584.9 -2.22 -2.46 -243.65 590.21 -0.22c-17.36,-8.69 17.99,-3.28 -25.82,-9.53l-568.52 3.56c-17.68,59.54 -14.37,192.26 0.32,253.22 49.11,17.01 227.84,11.08 288.86,8.78 52.45,-1.97 260.27,13.42 302.31,-9.94z"/>
    <polygon fill="#F0C188" points="7752.11,547.67 8344.67,549.03 8343.44,295.52 7753.34,296 "/>
    <polygon fill="#F0C188" points="8387.47,549.15 8978.9,549.31 8978.25,295.92 8389.55,296.43 "/>
    <path fill="#F0C188" d="M751.16 545.14l588.66 3.38 3.01 -245.42c-50.79,-14 -532.47,-13.26 -593.25,-2.23l1.58 244.27z"/>
    <polygon fill="#F0C188" points="2023.96,548.3 2616.5,549.1 2615.53,296.71 2027.07,296.38 "/>
    <path fill="#F0C188" d="M-522.77 545.02l589.73 3.58 2.32 -247.12c-61.23,-10.79 -541.13,-11.94 -592.89,1.25l0.84 242.29z"/>
    <polygon fill="#F0C188" points="114.51,548.82 704.97,549 704.91,296.76 116.92,296.49 "/>
    <polygon fill="#F0C188" points="3296.98,330.35 3297.99,547.24 3883.84,549.4 3889.42,295.76 3297.26,296.43 "/>
    <polygon fill="#F0C188" points="4571.45,547.61 4759.19,549.26 4770.37,549.11 5157.33,548.56 5162.2,298.19 5016.36,296 4893.36,296.3 4570.5,296.46 "/>
    <polygon fill="#F0C188" points="3934.53,548.77 4519.73,548.65 4525.63,297.16 3934.59,296.49 "/>
    <path fill="#F0C188" d="M9662.14 545.28l583.24 3.5c16.9,-60.02 9.11,-186.49 5.08,-252.44l-191.5 0.12 -190.07 0.18 -207.5 1.23 0.75 247.41z"/>
    <polygon fill="#F0C188" points="6479.03,548.74 7067.3,548.65 7070.99,299.63 6479.13,296.2 "/>
    <polygon fill="#F0C188" points="5208.48,547.7 5793.46,548.57 5798.74,297.17 5207.74,296.34 "/>
    <path fill="#F0C188" d="M9024.18 545.57l590.14 3 1.35 -245.05c-197.89,-11.72 -393.18,-7.63 -592.19,-5.45l0.7 247.5z"/>
    <polygon fill="#F0C188" points="1388.3,545.55 1975.03,548.31 1978.15,296.93 1386.5,296.51 "/>
    <polygon fill="#F0C188" points="5844.14,547.56 6429.97,548.18 6434.68,298.4 5843.77,296.3 "/>
    <polygon fill="#F0C188" points="7116.86,548.52 7703.51,548.3 7708.16,300.32 7117.9,295.9 "/>
    <polygon fill="#F0C188" points="2661.79,546.62 3246.28,548.47 3252.16,296.29 2660.86,298.6 "/>
    <polygon fill="#F0C188" points="3076.69,8228.16 3666.33,8230.03 3666.97,7975.45 3075.06,7976.09 "/>
    <polygon fill="#F0C188" points="1801.86,8228.19 2393.26,8229.28 2393.4,7978.83 2306.29,7975.47 1801.63,7976.63 "/>
    <polygon fill="#F0C188" points="7870.82,7929.77 8463.38,7931.13 8462.16,7677.62 7872.05,7678.1 "/>
    <polygon fill="#F0C188" points="6258.07,8229.69 6849.79,8229.94 6849.76,7978.59 6258.16,7976.17 "/>
    <polygon fill="#F0C188" points="8506.18,7931.25 9097.61,7931.41 9096.96,7678.02 8508.26,7678.53 "/>
    <polygon fill="#F0C188" points="1165.44,8226.44 1757.72,8229.93 1757.1,7976.77 1164.62,7976.19 "/>
    <path fill="#F0C188" d="M869.87 7927.24l588.66 3.38 3.01 -245.42c-50.79,-14 -532.47,-13.26 -593.24,-2.23l1.57 244.27z"/>
    <polygon fill="#F0C188" points="2142.67,7930.39 2735.21,7931.2 2734.24,7678.81 2145.78,7678.48 "/>
    <polygon fill="#F0C188" points="10078.22,8227.39 10669.17,8229.7 10669.52,7977.96 10076.73,7976.27 "/>
    <path fill="#F0C188" d="M-404.06 7927.12l589.73 3.58 2.33 -247.12c-61.24,-10.79 -541.14,-11.94 -592.9,1.25l0.84 242.29z"/>
    <polygon fill="#F0C188" points="2438.87,8228.91 3031.38,8229.47 3030.31,7980.02 2438.05,7976.17 "/>
    <polygon fill="#F0C188" points="7530.96,8225.12 8122.18,8229.97 8123.02,7976.63 7529.07,7976.75 "/>
    <polygon fill="#F0C188" points="233.23,7930.92 823.69,7931.09 823.62,7678.86 235.63,7678.58 "/>
    <polygon fill="#F0C188" points="8804.76,8225.76 9396.11,8229.66 9396.29,7977.5 8802.69,7976.18 "/>
    <polygon fill="#F0C188" points="3415.69,7712.44 3416.7,7929.34 4002.55,7931.5 4008.13,7677.86 3415.97,7678.53 "/>
    <polygon fill="#F0C188" points="4690.16,7929.71 4877.9,7931.36 4889.08,7931.21 5276.04,7930.66 5280.92,7680.29 5135.07,7678.1 5012.07,7678.4 4689.21,7678.56 "/>
    <polygon fill="#F0C188" points="8167.96,8225.65 8759.01,8229.85 8759.52,7978.13 8166.86,7976.43 "/>
    <polygon fill="#F0C188" points="529.16,8227.34 1120.8,8229.53 1120.37,7979.93 527.57,7976.36 "/>
    <polygon fill="#F0C188" points="4053.25,7930.87 4638.44,7930.75 4644.34,7679.26 4053.3,7678.58 "/>
    <path fill="#F0C188" d="M9780.85 7927.38l583.24 3.5c16.9,-60.02 9.11,-186.49 5.08,-252.44l-191.49 0.12 -190.08 0.18 -207.5 1.23 0.75 247.41z"/>
    <polygon fill="#F0C188" points="3712.92,8228.61 4303.48,8229.36 4304.99,7982.11 3711.39,7975.7 "/>
    <polygon fill="#F0C188" points="6597.74,7930.84 7186.01,7930.75 7189.7,7681.73 6597.84,7678.29 "/>
    <polygon fill="#F0C188" points="9440.91,8070.23 9442.6,8226.1 10032.24,8229.94 10033.48,7978.19 9440.64,7977.6 "/>
    <polygon fill="#F0C188" points="5327.19,7929.8 5912.17,7930.67 5917.45,7679.27 5326.45,7678.44 "/>
    <path fill="#F0C188" d="M9142.89 7927.67l590.14 3 1.35 -245.05c-197.89,-11.72 -393.18,-7.63 -592.19,-5.45l0.7 247.5z"/>
    <polygon fill="#F0C188" points="-107.38,8226.1 483.5,8229.63 483.41,7980.51 -108.64,7976.09 "/>
    <polygon fill="#F0C188" points="1507.01,7927.65 2093.75,7930.41 2096.86,7679.03 1505.21,7678.61 "/>
    <polygon fill="#F0C188" points="5962.85,7929.65 6548.68,7930.27 6553.39,7680.5 5962.48,7678.4 "/>
    <polygon fill="#F0C188" points="7235.57,7930.62 7822.23,7930.39 7826.87,7682.41 7236.61,7678 "/>
    <polygon fill="#F0C188" points="2780.5,7928.72 3365,7930.57 3370.87,7678.39 2779.57,7680.7 "/>
    <polygon fill="#F0C188" points="7483.5,8225.61 7486.35,7979.52 6896.14,7979.74 6898.59,8223.39 "/>
    <polygon fill="#F0C188" points="4987.14,8224.84 5573.37,8225.23 5575.1,7978.37 4984.64,7982.7 "/>
    <polygon fill="#F0C188" points="4354.06,8225.45 4937.29,8225.41 4936.89,7980.84 4351.34,7979.52 "/>
    <polygon fill="#F0C188" points="5625.62,8224.63 6209.29,8225.03 6210.95,7981.45 5621.68,7980.79 "/>
    <path fill="#F0C188" d="M4354.06 8225.45l-2.72 -245.93 585.55 1.32 0.4 244.57 -583.23 0.04zm0 0c29.58,17.79 530.03,20.74 581.98,5.02 33.94,-50.2 19.05,-185.95 12.4,-249.68 -57.76,-20.71 -233.74,-10.57 -305.34,-11.93 -62.04,-1.17 -260.86,-15.77 -298.39,15.65 -6.22,5.03 -1.31,9.06 0.82,39.02l-1.82 170.24c1.97,28.68 0.51,19.26 10.35,31.68z"/>
    <path fill="#F0C188" d="M5625.62 8224.63c38.09,22.41 245.97,11.57 292.11,10.78 70.43,-1.22 245.03,10.3 300.93,-8.64 11.55,-51.29 12.47,-208.35 -4.5,-250.75 -40.99,-5.4 -528.64,-22.16 -592.48,4.77l589.27 0.66 -1.66 243.58 -583.67 -0.4z"/>
    <path fill="#F0C188" d="M4987.14 8224.84c36.74,19.58 88.45,11.81 136.74,11.02 52.14,-0.85 104.36,0.46 156.53,-0.24 78.61,-1.06 224.82,8.49 293.33,-3.68 24.16,-46.58 24.46,-208.67 4.88,-257.15 -27.82,-4.67 -525.86,-15.16 -576.49,-1.08 -3.03,0.83 -6.57,3.26 -8.93,4.09 -2.38,0.85 -5.72,3.24 -8.56,4.9l590.46 -4.33 -1.73 246.86 -586.23 -0.39z"/>
    <path fill="#F0C188" d="M7483.5 8225.61l-584.91 -2.22 -2.45 -243.65 590.21 -0.22c-17.37,-8.69 17.98,-3.28 -25.82,-9.52l-568.53 3.55c-17.68,59.55 -14.36,192.26 0.32,253.22 49.11,17.01 227.84,11.08 288.87,8.78 52.45,-1.96 260.27,13.42 302.31,-9.94z"/>
   </g>
  </g>
  <polygon fill="none" points="-0,-0.01 9789.58,-0.01 9789.58,7937.49 -0,7937.49 "/>
 </g>
</svg>
