<?xml version="1.0" encoding="UTF-8"?>
<!DOCTYPE svg PUBLIC "-//W3C//DTD SVG 1.1//EN" "http://www.w3.org/Graphics/SVG/1.1/DTD/svg11.dtd">
<!-- Creator: CorelDRAW 2017 -->
<svg xmlns="http://www.w3.org/2000/svg" xml:space="preserve" width="97.8958mm" height="79.3748mm" version="1.1" shape-rendering="geometricPrecision" text-rendering="geometricPrecision" image-rendering="optimizeQuality" fill-rule="evenodd" clip-rule="evenodd"
viewBox="0 0 9789.58 7937.48"
 xmlns:xlink="http://www.w3.org/1999/xlink">
 <defs>
   <clipPath id="id0">
    <path d="M-0 0l9789.58 0 0 7937.49 -9789.58 0 0 -7937.49z"/>
   </clipPath>
 </defs>
 <g id="Слой_x0020_1">
  <metadata id="CorelCorpID_0Corel-Layer"/>
  <rect fill="none" x="661.46" y="1685.39" width="7789.34" height="4995.33"/>
  <polygon fill="#E9EEF2" points="-0,0 9789.58,0 9789.58,7937.49 -0,7937.49 "/>
  <g clip-path="url(#id0)">
   <g id="_869235552944">
    <rect fill="#F7F4F4" x="3732.49" y="-1205.74" width="6585.16" height="10456.33"/>
    <rect fill="#C4DB95" transform="matrix(-1.22708E-13 -1.53128 2.3498 -1.88231E-13 3732.49 7395.23)" width="4093.94" height="3369.62"/>
    <path fill="white" stroke="black" stroke-width="7.62" stroke-miterlimit="22.9256" d="M2364.46 2795.26l0 -1263.09c0,-33.69 27.57,-61.25 61.25,-61.25l595.09 0 0 1385.59 -595.09 0c-33.68,0 -61.25,-27.57 -61.25,-61.25z"/>
    <rect fill="#999999" transform="matrix(-1.21832E-13 -2.58123 1.53128 -2.08256E-13 3019.56 9208.26)" width="4128.82" height="465.58"/>
    <rect fill="#CCCCCC" transform="matrix(-1.22686E-13 -1.53128 1.53128 -1.22686E-13 3019.56 5437.24)" width="2370.67" height="465.58"/>
    <rect fill="#C8F4FF" transform="matrix(-4.96173E-13 -6.1929 1.53128 -1.22686E-13 3289.54 5437.24)" width="586.18" height="127"/>
    <rect fill="white" transform="matrix(-7.58936E-13 -9.47253 2.15774 -1.72878E-13 3247.43 5437.14)" width="383.22" height="19.53"/>
    <rect fill="white" transform="matrix(-1.6948E-12 -21.1534 1.69296 -1.3564E-13 3019.56 5436.76)" width="1.83" height="420.6"/>
    <rect fill="#666666" transform="matrix(-1.22686E-13 -1.53128 1.34615 -1.07853E-13 2943.89 3434.57)" width="369.05" height="66.75"/>
    <rect fill="#666666" transform="matrix(-1.22686E-13 -1.53128 1.97808 -1.58484E-13 2219.9 2951.28)" width="60.63" height="411.43"/>
    <polygon fill="#666666" points="3014.66,3436.37 3035.04,3330.2 3035.04,3330.2 2359.62,2861.05 2303.25,2942.21 "/>
    <rect fill="#999999" x="3019.56" y="7395.83" width="8630.88" height="541.65"/>
    <rect fill="#EDEDED" x="4720.82" y="5450.47" width="294.73" height="279.76"/>
    <path fill="white" d="M4819.55 2212.28l109.78 0c0,1101.78 0,2203.58 0,3305.36 15.64,15.5 25.26,42.94 26.69,58.55 6.87,58.69 -26.69,110.18 -83.22,110.37 -60.54,-1.51 -90.55,-53.24 -82.97,-110.55 1.58,-9.89 7.66,-41.09 29.72,-58.37l0 -3305.36z"/>
    <line fill="none" stroke="#FFC431" stroke-width="75" stroke-miterlimit="22.9256" x1="4731.42" y1="2062.16" x2="2654.32" y2= "2341.92" />
    <rect fill="#F3DFC7" x="3732.49" y="7286.25" width="7917.95" height="192.42"/>
    <g>
     <polygon fill="#999999" points="6191.87,7274.37 6191.87,5451.02 9307.94,5451.02 9307.94,7274.37 "/>
     <path id="1" fill="white" d="M6191.87 7274.37l0 -1823.35 3116.07 0 0 1823.35 -3116.07 0zm20 -1803.35l0 1783.35 3076.07 0 0 -1783.35 -3076.07 0z"/>
    </g>
    <g>
     <path fill="#4CC0E4" d="M6191.87 7274.37l0 -654.36c0,-38.08 31.15,-69.23 69.23,-69.23l2977.61 0c38.08,0 69.23,31.15 69.23,69.23l0 654.36 -3116.07 0z"/>
     <path id="1" fill="#9AD6EA" d="M6191.87 7274.37l0 -654.36c0,-38.08 31.15,-69.23 69.23,-69.23l2977.61 0c38.08,0 69.23,31.15 69.23,69.23l0 654.36 -3116.07 0zm20 -654.36l0 634.36 3076.07 0 0 -634.36c0,-13.52 -5.55,-25.83 -14.47,-34.75 -8.93,-8.93 -21.24,-14.48 -34.76,-14.48l-2977.61 0c-13.57,0 -25.88,5.53 -34.75,14.4l-0.08 0.08c-8.87,8.87 -14.4,21.18 -14.4,34.75z"/>
    </g>
    <g>
     <path fill="white" d="M6541.47 6367.66l0 -113.57c0,-139.01 -2.24,-253.22 60.3,-316.92 20.02,-20.39 -102.71,-100.56 -30.97,-132.31 126.99,-56.18 426,-14.42 605.28,44.45 162.86,53.48 213.9,-5.39 286.49,20.67 41.94,15.06 170.99,102.04 205.92,120.81 15.58,8.37 -71.04,12.16 -75.06,55.34 -8.02,86.18 1.95,179.5 1.95,195.03l0 126.5 -1053.91 0z"/>
     <path id="1" fill="#F2FCFF" d="M6541.47 6367.66l0 -113.57c0,-139.01 -2.24,-253.22 60.3,-316.92 20.02,-20.39 -102.71,-100.56 -30.97,-132.31 126.99,-56.18 426,-14.42 605.28,44.45 162.86,53.48 213.9,-5.39 286.49,20.67 41.94,15.06 170.99,102.04 205.92,120.81 15.58,8.37 -71.04,12.16 -75.06,55.34 -8.02,86.18 1.95,179.5 1.95,195.03l0 126.5 -1053.91 0zm29.88 -113.57l0.12 0 0 83.57 993.91 0 0 -96.5c0,-3.14 -0.42,-9.34 -0.99,-17.98l0 -0.11c-2.39,-36.02 -7.27,-109.42 -0.73,-179.64 2.64,-28.36 20.86,-45.22 41.26,-56.15l-14.96 -9.38c-50.06,-31.43 -113.26,-71.1 -137.47,-79.79 -22.7,-8.14 -45.51,-5.08 -73.1,-1.36 -48.73,6.56 -109.81,14.79 -212.57,-18.96 -95.4,-31.33 -225.53,-57.72 -344.43,-66.45 -97.52,-7.15 -186.38,-2.57 -239.52,20.94 -3.92,1.73 -4.14,4.34 -2.92,7.12 4.83,10.9 15.32,24.15 24.83,36.15 23.89,30.15 44.38,56.06 18.32,82.6 -51.88,52.84 -51.82,156.06 -51.76,282l0.01 13.94z"/>
    </g>
    <g>
     <path fill="white" d="M7966.16 6361.37l0 -113.56c0,-39.5 32.74,-54.23 29.27,-82.15 -5.44,-43.71 -43.75,-94.96 -6.4,-133.81 22.79,-23.71 -105.53,-17.71 -74.93,-95.03 70.24,-177.45 561.88,-102.65 731.18,-45.88 159.4,53.45 243.03,0.83 315.83,20.67 109.32,29.79 3.49,61.92 14.75,93 32.61,89.92 22.04,204.89 22.04,230.26l0 126.5 -1031.74 0z"/>
     <path id="1" fill="#F2FCFF" d="M7966.16 6361.37l0 -113.56c0,-39.5 32.74,-54.23 29.27,-82.15 -5.44,-43.71 -43.75,-94.96 -6.4,-133.81 22.79,-23.71 -105.53,-17.71 -74.93,-95.03 70.24,-177.45 561.88,-102.65 731.18,-45.88 159.4,53.45 243.03,0.83 315.83,20.67 109.32,29.79 3.49,61.92 14.75,93 32.61,89.92 22.04,204.89 22.04,230.26l0 126.5 -1031.74 0zm30 -113.56l0 83.56 971.74 0 0 -96.5c0,-1.47 0.28,-8.43 0.61,-17.06l0 -0.12c1.57,-39.87 5.18,-131.28 -20.78,-202.88 -10.28,-28.41 6.71,-46.23 23.67,-63.98 5.06,-5.29 10.13,-10.6 10.25,-11.07 1.24,-4.55 -7.92,6.26 -28.39,0.68 -22.5,-6.13 -49.67,-3.29 -81.67,0.05 -58.65,6.13 -131.57,13.76 -235.8,-21.19 -98.72,-33.1 -309.86,-72.49 -478.56,-61.9 -105.47,6.61 -192.14,32.07 -215.24,90.44 -7.81,19.74 17.89,29.25 35.48,35.74 13.27,4.89 24.47,9.04 32.87,17.11 16.5,15.92 18.87,32.52 0.25,51.9 -13.64,14.19 -5.43,38.97 2.57,63.13l-0.11 0.04c5.14,15.49 10.24,30.87 12.15,46.27 2.97,23.98 -6.46,38.68 -16.92,55 -5.75,8.95 -12.12,18.88 -12.12,30.78z"/>
    </g>
    <g>
     <path fill="#F2FCFF" d="M6349.81 6550.78l0 -113.57c0,-38.08 31.15,-69.23 69.22,-69.23l2670.82 0c30.96,0 56.29,25.33 56.29,56.29l0 126.51 -2796.33 0z"/>
     <path id="1" fill="white" d="M6349.81 6550.78l0 -113.57c0,-38.08 31.15,-69.23 69.22,-69.23l2670.82 0c30.96,0 56.29,25.33 56.29,56.29l0 126.51 -2796.33 0zm20 -113.57l0 93.57 2756.33 0 0 -106.51c0,-9.96 -4.09,-19.03 -10.67,-25.61 -6.59,-6.59 -15.66,-10.68 -25.62,-10.68l-2670.82 0c-13.51,0 -25.82,5.55 -34.75,14.48 -8.92,8.92 -14.47,21.23 -14.47,34.75z"/>
    </g>
    <polygon fill="white" points="3731.92,2285.38 3731.92,2100.13 4645.23,1973.89 4641.14,2158.26 "/>
    <rect fill="white" stroke="black" stroke-width="7.62" stroke-miterlimit="22.9256" transform="matrix(-1.22686E-13 -1.53128 1.53128 -1.22686E-13 4621.36 2224.82)" width="461.23" height="1165.78" rx="60" ry="60"/>
    <rect fill="black" transform="matrix(-1.22686E-13 -1.53128 1.53128 -1.22686E-13 4753.36 2113.12)" width="13.23" height="1002.78"/>
    <polygon fill="#FADF99" points="3019.56,2351.73 3019.56,2236.1 3732.49,2137.91 3732.49,2254.34 "/>
    <rect fill="#999999" x="3268.93" y="755.44" width="8630.88" height="372.51"/>
   </g>
  </g>
  <polygon fill="none" points="-0,0 9789.58,0 9789.58,7937.49 -0,7937.49 "/>
 </g>
</svg>
