<?xml version="1.0" encoding="UTF-8"?>
<!DOCTYPE svg PUBLIC "-//W3C//DTD SVG 1.1//EN" "http://www.w3.org/Graphics/SVG/1.1/DTD/svg11.dtd">
<!-- Creator: CorelDRAW 2017 -->
<svg xmlns="http://www.w3.org/2000/svg" xml:space="preserve" width="97.8958mm" height="79.3748mm" version="1.1" shape-rendering="geometricPrecision" text-rendering="geometricPrecision" image-rendering="optimizeQuality" fill-rule="evenodd" clip-rule="evenodd"
viewBox="0 0 9789.58 7937.48"
 xmlns:xlink="http://www.w3.org/1999/xlink">
 <defs>
   <clipPath id="id0">
    <path d="M-0 -0.01l9789.58 0 0 7937.5 -9789.58 0 0 -7937.5z"/>
   </clipPath>
 </defs>
 <g id="Слой_x0020_1">
  <metadata id="CorelCorpID_0Corel-Layer"/>
  <rect fill="none" x="661.46" y="1685.39" width="7789.34" height="4995.33"/>
  <g>
  </g>
  <g clip-path="url(#id0)">
   <g>
    <path fill="#F0C188" d="M7790.93 1358.31c43.63,13.57 534.67,12.96 591.58,2.3l0.76 -251.03c-55.39,-9.81 -550.23,-9.62 -590.95,2.16l-1.39 246.57z"/>
    <polygon fill="#F0C188" points="2983.32,1056.94 3574.56,1058.87 3575.21,796.74 2981.7,797.4 "/>
    <polygon fill="#F0C188" points="1705.04,1056.97 2298.04,1058.1 2298.19,800.22 2210.85,796.76 1704.82,797.95 "/>
    <polygon fill="#F0C188" points="7790.45,749.71 8384.62,751.11 8383.38,490.08 7791.68,490.57 "/>
    <polygon fill="#F0C188" points="6173.33,1058.52 6766.65,1058.78 6766.62,799.98 6173.42,797.48 "/>
    <polygon fill="#F0C188" points="8427.53,751.23 9020.56,751.4 9019.91,490.49 8429.61,491.02 "/>
    <polygon fill="#F0C188" points="1066.9,1055.17 1660.79,1058.76 1660.17,798.1 1066.08,797.5 "/>
    <path fill="#F0C188" d="M770.53 747.1l590.26 3.48 3.01 -252.69c-50.92,-14.41 -533.91,-13.65 -594.85,-2.3l1.58 251.51z"/>
    <polygon fill="#F0C188" points="2046.78,750.35 2640.92,751.18 2639.95,491.31 2049.89,490.97 "/>
    <path fill="#F0C188" d="M-506.86 746.98l591.34 3.68 2.33 -254.44c-61.4,-11.11 -542.61,-12.3 -594.5,1.29l0.83 249.47z"/>
    <polygon fill="#F0C188" points="2343.78,1057.72 2937.89,1058.29 2936.82,801.45 2342.96,797.48 "/>
    <polygon fill="#F0C188" points="7449.66,1053.81 8042.49,1058.8 8043.33,797.95 7447.77,798.08 "/>
    <polygon fill="#F0C188" points="132.16,750.89 724.22,751.07 724.15,491.36 134.57,491.08 "/>
    <polygon fill="#F0C188" points="8726.91,1054.47 9319.87,1058.49 9320.05,798.85 8724.85,797.49 "/>
    <polygon fill="#F0C188" points="3323.25,525.94 3324.26,749.26 3911.7,751.49 3917.3,490.33 3323.53,491.02 "/>
    <polygon fill="#F0C188" points="4601.17,749.64 4789.42,751.34 4800.63,751.19 5188.64,750.62 5193.53,492.83 5047.29,490.57 4923.95,490.89 4600.22,491.05 "/>
    <path fill="#F0C188" d="M2047.17 1361.44c65.33,10.96 544.68,12.45 592.4,-3.36l1.02 -246.67 -590.46 -5.87 -2.96 255.9z"/>
    <polygon fill="#F0C188" points="6513.15,1364.82 7106.39,1365.02 7107.14,1107.22 6517.21,1105.1 "/>
    <polygon fill="#F0C188" points="4598.76,1364.61 5191.58,1365.41 5192.84,1106.2 4604.47,1105.44 "/>
    <polygon fill="#F0C188" points="8088.39,1054.36 8681.04,1058.68 8681.56,799.5 8087.29,797.75 "/>
    <polygon fill="#F0C188" points="428.89,1056.1 1022.14,1058.36 1021.71,801.35 427.3,797.68 "/>
    <polygon fill="#F0C188" points="3962.53,750.84 4549.31,750.72 4555.23,491.77 3962.58,491.08 "/>
    <path fill="#F0C188" d="M9705.65 747.25l584.82 3.6c16.95,-61.8 9.14,-192.02 5.1,-259.92l-192.02 0.12 -190.58 0.19 -208.07 1.26 0.75 254.75z"/>
    <polygon fill="#F0C188" points="3621.28,1057.4 4213.45,1058.18 4214.96,803.6 3619.74,797 "/>
    <polygon fill="#F0C188" points="6513.92,750.81 7103.78,750.72 7107.49,494.31 6514.02,490.78 "/>
    <polygon fill="#F0C188" points="9364.79,894.33 9366.48,1054.82 9957.72,1058.78 9958.97,799.56 9364.52,798.96 "/>
    <polygon fill="#F0C188" points="5237.65,1364.19 5830.04,1365.19 5830.13,1105.84 5242.45,1105.88 "/>
    <polygon fill="#F0C188" points="3962.01,1362.73 4553.78,1365.49 4553.73,1105.05 3965.55,1105.81 "/>
    <polygon fill="#F0C188" points="5239.92,749.74 5826.49,750.63 5831.79,491.78 5239.18,490.93 "/>
    <path fill="#F0C188" d="M9065.69 1360.72c57.5,10.67 549.38,11.42 592.26,-2.11l0.72 -247.33 -590.24 -5.27 -2.74 254.71z"/>
    <path fill="#F0C188" d="M9705.02 1360.76c54.94,10.73 550.32,10.89 592.24,-2.46l0.72 -247.66 -589.89 -4.44 -3.07 254.56z"/>
    <path fill="#F0C188" d="M9065.96 747.55l591.75 3.08 1.35 -252.31c-198.43,-12.07 -394.25,-7.86 -593.8,-5.61l0.7 254.84z"/>
    <polygon fill="#F0C188" points="-209.37,1054.82 383.12,1058.45 383.02,801.95 -210.63,797.4 "/>
    <polygon fill="#F0C188" points="5875.84,1364.55 6467.5,1365.23 6468.31,1107.71 5880.82,1105.32 "/>
    <polygon fill="#F0C188" points="3323.38,1362.69 3915.47,1365.56 3915.84,1106.72 3327.05,1105.63 "/>
    <polygon fill="#F0C188" points="769.77,1360.91 1362.64,1365.65 1362.03,1105.7 773.06,1105.67 "/>
    <polygon fill="#F0C188" points="1409.4,747.52 1997.72,750.36 2000.85,491.54 1407.59,491.1 "/>
    <polygon fill="#F0C188" points="5877.31,749.59 6464.72,750.23 6469.45,493.05 5876.94,490.89 "/>
    <polygon fill="#F0C188" points="2685.73,1361.52 3277.2,1365.56 3277.42,1105.17 2689.58,1105.91 "/>
    <polygon fill="#F0C188" points="7153.47,750.58 7741.72,750.35 7746.38,495.02 7154.52,490.48 "/>
    <polygon fill="#F0C188" points="7152.43,1365 7744.34,1365.03 7745.31,1108.79 7158.55,1105.24 "/>
    <polygon fill="#F0C188" points="1409.1,1360.77 1999.32,1365.82 2000.11,1105.28 1410.71,1105.76 "/>
    <polygon fill="#F0C188" points="2686.34,748.62 3272.42,750.53 3278.31,490.87 2685.4,493.25 "/>
    <polygon fill="#F0C188" points="131.93,1365.45 725.39,1365.16 724.56,1110.45 138.75,1105.55 "/>
    <polygon fill="#F0C188" points="8427.81,1359.96 9019.43,1365.55 9019.14,1105.63 8430.6,1106.48 "/>
    <polygon fill="#F0C188" points="-506.99,1359.56 86.13,1365.23 86.32,1109.71 -505.53,1106.07 "/>
    <polygon fill="#F0C188" points="7402.07,1054.32 7404.93,800.93 6813.12,801.16 6815.59,1052.03 "/>
    <polygon fill="#F0C188" points="4898.95,1053.53 5486.78,1053.92 5488.51,799.75 4896.45,804.21 "/>
    <polygon fill="#F0C188" points="4264.16,1054.15 4848.97,1054.11 4848.57,802.29 4261.43,800.93 "/>
    <polygon fill="#F0C188" points="5539.16,1053.31 6124.41,1053.72 6126.08,802.92 5535.21,802.24 "/>
    <path fill="#F0C188" d="M4264.16 1054.15l-2.73 -253.22 587.14 1.36 0.4 251.82 -584.81 0.04zm0 0c29.66,18.32 531.47,21.35 583.56,5.17 34.03,-51.68 19.09,-191.46 12.43,-257.08 -57.91,-21.32 -234.37,-10.88 -306.17,-12.28 -62.21,-1.21 -261.56,-16.24 -299.19,16.11 -6.24,5.18 -1.31,9.33 0.82,40.18l-1.83 175.28c1.97,29.54 0.52,19.83 10.38,32.62z"/>
    <path fill="#F0C188" d="M5539.16 1053.31c38.2,23.08 246.64,11.91 292.9,11.1 70.62,-1.25 245.7,10.6 301.75,-8.9 11.58,-52.81 12.5,-214.52 -4.51,-258.18 -41.1,-5.56 -530.08,-22.82 -594.09,4.91l590.87 0.68 -1.67 250.8 -585.25 -0.41z"/>
    <path fill="#F0C188" d="M4898.95 1053.53c36.84,20.15 88.69,12.15 137.12,11.34 52.28,-0.87 104.63,0.47 156.95,-0.25 78.82,-1.08 225.43,8.75 294.13,-3.79 24.21,-47.96 24.52,-214.85 4.88,-264.77 -27.88,-4.81 -527.28,-15.61 -578.05,-1.11 -3.03,0.86 -6.58,3.36 -8.95,4.21 -2.38,0.87 -5.73,3.34 -8.58,5.05l592.06 -4.46 -1.73 254.17 -587.83 -0.39z"/>
    <path fill="#F0C188" d="M7402.07 1054.32l-586.48 -2.29 -2.47 -250.87 591.81 -0.23c-17.41,-8.95 18.04,-3.37 -25.88,-9.8l-570.07 3.66c-17.73,61.31 -14.41,197.96 0.32,260.72 49.24,17.52 228.46,11.41 289.65,9.05 52.59,-2.03 260.97,13.81 303.12,-10.24z"/>
    <path fill="#F0C188" d="M7431.72 2270.15c43.63,13.57 534.67,12.95 591.58,2.29l0.76 -251.03c-55.39,-9.8 -550.23,-9.61 -590.95,2.16l-1.39 246.58z"/>
    <polygon fill="#F0C188" points="2624.12,1968.78 3215.36,1970.71 3216.01,1708.58 2622.49,1709.23 "/>
    <polygon fill="#F0C188" points="1345.84,1968.8 1938.84,1969.93 1938.98,1712.06 1851.64,1708.59 1345.61,1709.79 "/>
    <polygon fill="#F0C188" points="7431.24,1661.55 8025.41,1662.95 8024.18,1401.92 7432.48,1402.41 "/>
    <polygon fill="#F0C188" points="5814.12,1970.35 6407.44,1970.61 6407.41,1711.81 5814.21,1709.31 "/>
    <polygon fill="#F0C188" points="8068.33,1663.07 8661.35,1663.23 8660.7,1402.33 8070.4,1402.86 "/>
    <polygon fill="#F0C188" points="707.69,1967.01 1301.58,1970.6 1300.96,1709.94 706.87,1709.34 "/>
    <path fill="#F0C188" d="M411.32 1658.93l590.26 3.49 3.02 -252.7c-50.93,-14.41 -533.92,-13.65 -594.86,-2.29l1.58 251.5z"/>
    <polygon fill="#F0C188" points="1687.58,1662.18 2281.72,1663.01 2280.75,1403.14 1690.69,1402.8 "/>
    <polygon fill="#F0C188" points="9644.62,1967.99 10237.17,1970.37 10237.52,1711.16 9643.13,1709.42 "/>
    <polygon fill="#F0C188" points="1984.57,1969.55 2578.69,1970.12 2577.61,1713.28 1983.75,1709.31 "/>
    <polygon fill="#F0C188" points="7090.46,1965.65 7683.29,1970.64 7684.12,1709.79 7088.56,1709.91 "/>
    <polygon fill="#F0C188" points="-227.05,1662.73 365.01,1662.9 364.95,1403.2 -224.64,1402.91 "/>
    <polygon fill="#F0C188" points="8367.71,1966.3 8960.67,1970.33 8960.84,1710.69 8365.64,1709.33 "/>
    <polygon fill="#F0C188" points="2964.04,1437.77 2965.05,1661.1 3552.49,1663.33 3558.09,1402.16 2964.32,1402.86 "/>
    <polygon fill="#F0C188" points="4241.97,1661.48 4430.21,1663.18 4441.43,1663.03 4829.43,1662.46 4834.32,1404.66 4688.08,1402.41 4564.75,1402.72 4241.01,1402.88 "/>
    <path fill="#F0C188" d="M1687.96 2273.27c65.33,10.96 544.68,12.46 592.4,-3.35l1.02 -246.67 -590.45 -5.88 -2.97 255.9z"/>
    <polygon fill="#F0C188" points="6153.94,2276.66 6747.18,2276.85 6747.94,2019.06 6158.01,2016.94 "/>
    <polygon fill="#F0C188" points="4239.56,2276.44 4832.37,2277.24 4833.63,2018.04 4245.27,2017.28 "/>
    <polygon fill="#F0C188" points="7729.18,1966.19 8321.84,1970.52 8322.35,1711.34 7728.08,1709.58 "/>
    <polygon fill="#F0C188" points="69.69,1967.93 662.94,1970.19 662.5,1713.19 68.1,1709.52 "/>
    <polygon fill="#F0C188" points="3603.32,1662.67 4190.1,1662.55 4196.02,1403.6 3603.38,1402.91 "/>
    <path fill="#F0C188" d="M9346.45 1659.08l584.82 3.61c16.95,-61.8 9.13,-192.02 5.09,-259.93l-192.01 0.12 -190.59 0.19 -208.07 1.27 0.76 254.74z"/>
    <polygon fill="#F0C188" points="3262.07,1969.24 3854.24,1970.01 3855.75,1715.43 3260.54,1708.84 "/>
    <polygon fill="#F0C188" points="6154.71,1662.65 6744.57,1662.55 6748.28,1406.15 6154.82,1402.61 "/>
    <polygon fill="#F0C188" points="9005.58,1806.17 9007.28,1966.65 9598.52,1970.61 9599.76,1711.39 9005.32,1710.79 "/>
    <polygon fill="#F0C188" points="4878.44,2276.02 5470.83,2277.03 5470.93,2017.67 4883.25,2017.71 "/>
    <polygon fill="#F0C188" points="3602.81,2274.57 4194.58,2277.33 4194.52,2016.88 3606.34,2017.64 "/>
    <polygon fill="#F0C188" points="4880.72,1661.57 5467.28,1662.47 5472.58,1403.62 4879.98,1402.76 "/>
    <path fill="#F0C188" d="M8706.48 2272.55c57.51,10.68 549.38,11.43 592.26,-2.1l0.73 -247.34 -590.25 -5.26 -2.74 254.7z"/>
    <path fill="#F0C188" d="M9345.81 2272.59c54.94,10.73 550.33,10.9 592.25,-2.46l0.71 -247.66 -589.88 -4.43 -3.08 254.55z"/>
    <path fill="#F0C188" d="M8706.76 1659.38l591.74 3.09 1.35 -252.31c-198.42,-12.08 -394.24,-7.86 -593.79,-5.62l0.7 254.84z"/>
    <polygon fill="#F0C188" points="-568.57,1966.65 23.91,1970.29 23.82,1713.79 -569.83,1709.23 "/>
    <polygon fill="#F0C188" points="5516.64,2276.39 6108.3,2277.07 6109.11,2019.55 5521.61,2017.16 "/>
    <polygon fill="#F0C188" points="2964.18,2274.52 3556.26,2277.39 3556.63,2018.56 2967.84,2017.47 "/>
    <polygon fill="#F0C188" points="410.57,2272.74 1003.43,2277.49 1002.82,2017.54 413.85,2017.51 "/>
    <polygon fill="#F0C188" points="1050.19,1659.36 1638.52,1662.2 1641.64,1403.37 1048.39,1402.94 "/>
    <polygon fill="#F0C188" points="5518.1,1661.42 6105.52,1662.06 6110.24,1404.88 5517.73,1402.72 "/>
    <polygon fill="#F0C188" points="2326.53,2273.36 2917.99,2277.39 2918.21,2017.01 2330.38,2017.74 "/>
    <polygon fill="#F0C188" points="6794.27,1662.42 7382.51,1662.18 7387.18,1406.85 6795.31,1402.31 "/>
    <polygon fill="#F0C188" points="6793.22,2276.84 7385.14,2276.86 7386.1,2020.62 6799.34,2017.07 "/>
    <polygon fill="#F0C188" points="1049.9,2272.61 1640.12,2277.65 1640.9,2017.11 1051.5,2017.59 "/>
    <polygon fill="#F0C188" points="2327.13,1660.46 2913.21,1662.36 2919.1,1402.71 2326.19,1405.09 "/>
    <polygon fill="#F0C188" points="-227.27,2277.29 366.18,2277 365.36,2022.28 -220.45,2017.39 "/>
    <polygon fill="#F0C188" points="8068.6,2271.79 8660.23,2277.38 8659.94,2017.47 8071.4,2018.31 "/>
    <polygon fill="#F0C188" points="7042.87,1966.15 7045.73,1712.77 6453.92,1713 6456.38,1963.87 "/>
    <polygon fill="#F0C188" points="4539.75,1965.36 5127.57,1965.76 5129.3,1711.58 4537.24,1716.04 "/>
    <polygon fill="#F0C188" points="3904.96,1965.99 4489.76,1965.95 4489.36,1714.13 3902.23,1712.77 "/>
    <polygon fill="#F0C188" points="5179.95,1965.15 5765.21,1965.55 5766.88,1714.75 5176.01,1714.07 "/>
    <path fill="#F0C188" d="M3904.96 1965.99l-2.73 -253.22 587.13 1.36 0.4 251.82 -584.8 0.04zm0 0c29.66,18.31 531.46,21.35 583.55,5.17 34.04,-51.69 19.1,-191.47 12.44,-257.09 -57.92,-21.32 -234.38,-10.88 -306.17,-12.28 -62.21,-1.21 -261.57,-16.23 -299.2,16.12 -6.24,5.18 -1.31,9.32 0.82,40.18l-1.83 175.28c1.98,29.53 0.52,19.82 10.39,32.62z"/>
    <path fill="#F0C188" d="M5179.95 1965.15c38.21,23.07 246.64,11.91 292.91,11.09 70.62,-1.25 245.7,10.61 301.75,-8.89 11.57,-52.81 12.5,-214.53 -4.52,-258.19 -41.1,-5.56 -530.07,-22.81 -594.08,4.91l590.87 0.68 -1.67 250.8 -585.26 -0.4z"/>
    <path fill="#F0C188" d="M4539.75 1965.36c36.83,20.15 88.69,12.16 137.11,11.34 52.28,-0.87 104.64,0.48 156.96,-0.24 78.81,-1.09 225.42,8.74 294.12,-3.8 24.22,-47.95 24.52,-214.85 4.89,-264.76 -27.89,-4.82 -527.29,-15.61 -578.05,-1.12 -3.04,0.86 -6.59,3.36 -8.96,4.22 -2.38,0.87 -5.73,3.33 -8.58,5.04l592.06 -4.46 -1.73 254.18 -587.82 -0.4z"/>
    <path fill="#F0C188" d="M7042.87 1966.15l-586.49 -2.28 -2.46 -250.87 591.81 -0.23c-17.42,-8.95 18.03,-3.38 -25.89,-9.81l-570.07 3.66c-17.73,61.31 -14.4,197.96 0.32,260.73 49.25,17.51 228.46,11.41 289.65,9.04 52.59,-2.03 260.98,13.82 303.13,-10.24z"/>
    <path fill="#F0C188" d="M8378.66 3178.19c43.63,13.57 534.67,12.96 591.58,2.3l0.76 -251.04c-55.39,-9.8 -550.23,-9.61 -590.95,2.16l-1.39 246.58z"/>
    <polygon fill="#F0C188" points="3571.05,2876.82 4162.29,2878.75 4162.94,2616.62 3569.43,2617.27 "/>
    <polygon fill="#F0C188" points="2292.77,2876.84 2885.77,2877.97 2885.92,2620.1 2798.58,2616.63 2292.55,2617.83 "/>
    <polygon fill="#F0C188" points="8378.18,2569.59 8972.35,2570.99 8971.11,2309.96 8379.41,2310.45 "/>
    <polygon fill="#F0C188" points="6761.06,2878.39 7354.38,2878.65 7354.35,2619.86 6761.15,2617.35 "/>
    <polygon fill="#F0C188" points="9015.26,2571.11 9608.29,2571.27 9607.64,2310.37 9017.34,2310.9 "/>
    <polygon fill="#F0C188" points="1654.63,2875.05 2248.52,2878.64 2247.9,2617.98 1653.81,2617.38 "/>
    <polygon fill="#F0C188" points="-262.11,2877.85 332.29,2878.11 333.29,2620.64 -262.11,2617.98 "/>
    <path fill="#F0C188" d="M1358.26 2566.98l590.26 3.48 3.02 -252.7c-50.93,-14.41 -533.92,-13.65 -594.86,-2.29l1.58 251.51z"/>
    <polygon fill="#F0C188" points="2634.51,2570.23 3228.65,2571.05 3227.69,2311.18 2637.62,2310.84 "/>
    <path fill="#F0C188" d="M80.88 2566.85l591.33 3.69 2.33 -254.45c-61.4,-11.11 -542.61,-12.29 -594.5,1.29l0.84 249.47z"/>
    <polygon fill="#F0C188" points="2931.51,2877.59 3525.62,2878.16 3524.55,2621.32 2930.69,2617.35 "/>
    <polygon fill="#F0C188" points="8037.39,2873.69 8630.22,2878.68 8631.06,2617.83 8035.5,2617.95 "/>
    <polygon fill="#F0C188" points="719.89,2570.77 1311.95,2570.95 1311.88,2311.24 722.3,2310.95 "/>
    <polygon fill="#F0C188" points="9314.64,2874.34 9907.6,2878.37 9907.78,2618.73 9312.58,2617.37 "/>
    <polygon fill="#F0C188" points="3910.98,2345.82 3911.99,2569.14 4499.43,2571.37 4505.03,2310.2 3911.26,2310.9 "/>
    <polygon fill="#F0C188" points="5188.9,2569.52 5377.15,2571.22 5388.36,2571.07 5776.37,2570.5 5781.26,2312.71 5635.02,2310.45 5511.68,2310.76 5187.95,2310.92 "/>
    <path fill="#F0C188" d="M2634.9 3181.32c65.33,10.95 544.68,12.45 592.4,-3.36l1.02 -246.67 -590.46 -5.88 -2.96 255.91z"/>
    <polygon fill="#F0C188" points="7100.88,3184.7 7694.12,3184.89 7694.87,2927.1 7104.94,2924.98 "/>
    <polygon fill="#F0C188" points="5186.49,3184.48 5779.31,3185.29 5780.57,2926.08 5192.2,2925.32 "/>
    <polygon fill="#F0C188" points="8676.12,2874.23 9268.77,2878.56 9269.29,2619.38 8675.02,2617.63 "/>
    <polygon fill="#F0C188" points="1016.62,2875.97 1609.87,2878.23 1609.44,2621.23 1015.03,2617.56 "/>
    <polygon fill="#F0C188" points="4550.26,2570.71 5137.04,2570.59 5142.96,2311.65 4550.31,2310.95 "/>
    <polygon fill="#F0C188" points="4209.01,2877.28 4801.18,2878.05 4802.69,2623.47 4207.47,2616.88 "/>
    <polygon fill="#F0C188" points="7101.65,2570.69 7691.51,2570.59 7695.22,2314.19 7101.75,2310.65 "/>
    <polygon fill="#F0C188" points="5825.38,3184.06 6417.77,3185.07 6417.86,2925.71 5830.18,2925.75 "/>
    <polygon fill="#F0C188" points="4549.74,3182.61 5141.51,3185.37 5141.46,2924.92 4553.28,2925.69 "/>
    <polygon fill="#F0C188" points="5827.65,2569.61 6414.22,2570.51 6419.52,2311.66 5826.91,2310.8 "/>
    <path fill="#F0C188" d="M9653.42 3180.59c57.51,10.68 549.38,11.43 592.26,-2.1l0.72 -247.34 -590.24 -5.26 -2.74 254.7z"/>
    <path fill="#F0C188" d="M9653.69 2567.42l591.75 3.09 1.35 -252.31c-198.43,-12.07 -394.25,-7.86 -593.8,-5.62l0.7 254.84z"/>
    <polygon fill="#F0C188" points="378.36,2874.7 970.85,2878.33 970.75,2621.83 377.1,2617.27 "/>
    <polygon fill="#F0C188" points="6463.57,3184.43 7055.23,3185.11 7056.04,2927.59 6468.55,2925.2 "/>
    <polygon fill="#F0C188" points="3911.11,3182.57 4503.2,3185.44 4503.57,2926.6 3914.78,2925.51 "/>
    <polygon fill="#F0C188" points="1357.5,3180.78 1950.37,3185.53 1949.76,2925.58 1360.79,2925.55 "/>
    <polygon fill="#F0C188" points="1997.13,2567.4 2585.45,2570.24 2588.58,2311.41 1995.33,2310.98 "/>
    <polygon fill="#F0C188" points="6465.04,2569.46 7052.45,2570.1 7057.18,2312.92 6464.67,2310.76 "/>
    <polygon fill="#F0C188" points="3273.46,3181.4 3864.93,3185.44 3865.15,2925.05 3277.31,2925.78 "/>
    <polygon fill="#F0C188" points="7741.2,2570.46 8329.45,2570.23 8334.11,2314.9 7742.25,2310.35 "/>
    <polygon fill="#F0C188" points="7740.16,3184.88 8332.07,3184.9 8333.04,2928.66 7746.28,2925.11 "/>
    <polygon fill="#F0C188" points="1996.83,3180.65 2587.05,3185.69 2587.84,2925.16 1998.44,2925.63 "/>
    <polygon fill="#F0C188" points="3274.07,2568.5 3860.15,2570.4 3866.04,2310.75 3273.13,2313.13 "/>
    <polygon fill="#F0C188" points="719.67,3185.33 1313.12,3185.04 1312.29,2930.32 726.48,2925.43 "/>
    <polygon fill="#F0C188" points="9015.54,3179.83 9607.16,3185.42 9606.87,2925.51 9018.33,2926.35 "/>
    <polygon fill="#F0C188" points="80.74,3179.44 673.86,3185.11 674.05,2929.59 82.2,2925.94 "/>
    <polygon fill="#F0C188" points="7989.8,2874.19 7992.66,2620.81 7400.85,2621.04 7403.32,2871.91 "/>
    <polygon fill="#F0C188" points="5486.68,2873.4 6074.51,2873.8 6076.24,2619.62 5484.18,2624.08 "/>
    <polygon fill="#F0C188" points="4851.89,2874.03 5436.7,2873.99 5436.3,2622.17 4849.16,2620.81 "/>
    <polygon fill="#F0C188" points="6126.89,2873.19 6712.14,2873.59 6713.81,2622.79 6122.94,2622.11 "/>
    <polygon fill="#F0C188" points="-262.11,3184.62 34.21,3184.52 34.86,2930.21 -262.11,2926.92 "/>
    <polygon fill="#F0C188" points="-262.11,2570.36 31.91,2569.93 35.35,2316.2 -262.11,2311.26 "/>
    <path fill="#F0C188" d="M4851.89 2874.03l-2.73 -253.22 587.14 1.36 0.4 251.82 -584.81 0.04zm0 0c29.66,18.32 531.47,21.35 583.56,5.17 34.03,-51.69 19.1,-191.47 12.43,-257.09 -57.91,-21.32 -234.37,-10.88 -306.17,-12.28 -62.21,-1.21 -261.56,-16.23 -299.19,16.12 -6.24,5.18 -1.31,9.32 0.82,40.18l-1.83 175.28c1.97,29.53 0.52,19.82 10.38,32.62z"/>
    <path fill="#F0C188" d="M6126.89 2873.19c38.2,23.07 246.64,11.91 292.9,11.09 70.62,-1.25 245.7,10.61 301.76,-8.89 11.57,-52.81 12.5,-214.53 -4.52,-258.19 -41.1,-5.56 -530.08,-22.81 -594.09,4.91l590.87 0.68 -1.67 250.8 -585.25 -0.4z"/>
    <path fill="#F0C188" d="M5486.68 2873.4c36.84,20.16 88.7,12.16 137.12,11.34 52.28,-0.87 104.64,0.48 156.95,-0.24 78.82,-1.09 225.43,8.74 294.13,-3.79 24.22,-47.96 24.52,-214.85 4.88,-264.77 -27.88,-4.81 -527.28,-15.61 -578.05,-1.12 -3.03,0.86 -6.58,3.36 -8.95,4.22 -2.38,0.87 -5.73,3.33 -8.58,5.04l592.06 -4.46 -1.73 254.18 -587.83 -0.4z"/>
    <path fill="#F0C188" d="M7989.8 2874.19l-586.48 -2.28 -2.47 -250.87 591.81 -0.23c-17.41,-8.95 18.04,-3.37 -25.88,-9.81l-570.07 3.66c-17.73,61.31 -14.41,197.96 0.32,260.73 49.24,17.51 228.46,11.41 289.65,9.04 52.59,-2.02 260.97,13.82 303.12,-10.24z"/>
    <path fill="#F0C188" d="M8019.45 4090.02c43.63,13.57 534.67,12.96 591.58,2.3l0.76 -251.03c-55.39,-9.81 -550.23,-9.62 -590.95,2.16l-1.39 246.57z"/>
    <polygon fill="#F0C188" points="3211.85,3788.65 3803.09,3790.58 3803.74,3528.45 3210.22,3529.11 "/>
    <polygon fill="#F0C188" points="1933.57,3788.68 2526.57,3789.81 2526.71,3531.94 2439.37,3528.47 1933.34,3529.66 "/>
    <polygon fill="#F0C188" points="8018.97,3481.42 8613.14,3482.82 8611.91,3221.79 8020.21,3222.28 "/>
    <polygon fill="#F0C188" points="6401.85,3790.23 6995.17,3790.49 6995.14,3531.69 6401.94,3529.19 "/>
    <polygon fill="#F0C188" points="8656.06,3482.94 9249.08,3483.11 9248.43,3222.2 8658.14,3222.73 "/>
    <polygon fill="#F0C188" points="1295.42,3786.88 1889.31,3790.47 1888.69,3529.81 1294.6,3529.22 "/>
    <polygon fill="#F0C188" points="-621.32,3789.69 -26.91,3789.94 -25.92,3532.48 -621.32,3529.81 "/>
    <path fill="#F0C188" d="M999.05 3478.81l590.26 3.48 3.02 -252.69c-50.93,-14.41 -533.92,-13.65 -594.86,-2.3l1.58 251.51z"/>
    <polygon fill="#F0C188" points="2275.31,3482.06 2869.45,3482.89 2868.48,3223.02 2278.42,3222.68 "/>
    <path fill="#F0C188" d="M-278.33 3478.69l591.33 3.68 2.33 -254.44c-61.4,-11.11 -542.6,-12.3 -594.5,1.29l0.84 249.47z"/>
    <polygon fill="#F0C188" points="2572.3,3789.43 3166.42,3790 3165.34,3533.16 2571.48,3529.19 "/>
    <polygon fill="#F0C188" points="7678.19,3785.52 8271.02,3790.51 8271.85,3529.66 7676.29,3529.79 "/>
    <polygon fill="#F0C188" points="360.68,3482.6 952.74,3482.78 952.68,3223.07 363.09,3222.79 "/>
    <polygon fill="#F0C188" points="8955.44,3786.18 9548.4,3790.2 9548.57,3530.56 8953.37,3529.2 "/>
    <polygon fill="#F0C188" points="3551.77,3257.65 3552.78,3480.97 4140.22,3483.2 4145.82,3222.04 3552.05,3222.73 "/>
    <polygon fill="#F0C188" points="4829.7,3481.35 5017.94,3483.05 5029.16,3482.9 5417.16,3482.33 5422.05,3224.54 5275.81,3222.28 5152.48,3222.6 4828.75,3222.76 "/>
    <path fill="#F0C188" d="M2275.69 4093.15c65.33,10.96 544.68,12.46 592.41,-3.36l1.01 -246.67 -590.45 -5.87 -2.97 255.9z"/>
    <polygon fill="#F0C188" points="6741.67,4096.54 7334.91,4096.73 7335.67,3838.93 6745.74,3836.81 "/>
    <polygon fill="#F0C188" points="4827.29,4096.32 5420.1,4097.12 5421.36,3837.92 4833,3837.15 "/>
    <polygon fill="#F0C188" points="8316.91,3786.07 8909.57,3790.39 8910.08,3531.21 8315.81,3529.46 "/>
    <polygon fill="#F0C188" points="657.42,3787.81 1250.67,3790.07 1250.23,3533.06 655.83,3529.39 "/>
    <polygon fill="#F0C188" points="4191.05,3482.55 4777.83,3482.43 4783.75,3223.48 4191.11,3222.79 "/>
    <polygon fill="#F0C188" points="3849.8,3789.11 4441.97,3789.89 4443.48,3535.31 3848.27,3528.71 "/>
    <polygon fill="#F0C188" points="6742.44,3482.52 7332.3,3482.43 7336.01,3226.02 6742.55,3222.49 "/>
    <polygon fill="#F0C188" points="9593.31,3626.04 9595.01,3786.53 10186.25,3790.49 10187.49,3531.27 9593.05,3530.67 "/>
    <polygon fill="#F0C188" points="5466.17,4095.9 6058.56,4096.9 6058.66,3837.55 5470.98,3837.59 "/>
    <polygon fill="#F0C188" points="4190.54,4094.44 4782.31,4097.2 4782.25,3836.76 4194.07,3837.52 "/>
    <polygon fill="#F0C188" points="5468.45,3481.45 6055.01,3482.35 6060.31,3223.49 5467.71,3222.64 "/>
    <path fill="#F0C188" d="M9294.21 4092.43c57.51,10.67 549.38,11.42 592.26,-2.11l0.73 -247.33 -590.25 -5.27 -2.74 254.71z"/>
    <path fill="#F0C188" d="M9294.49 3479.26l591.74 3.09 1.35 -252.32c-198.42,-12.07 -394.24,-7.85 -593.79,-5.61l0.7 254.84z"/>
    <polygon fill="#F0C188" points="19.16,3786.53 611.64,3790.16 611.55,3533.66 17.9,3529.11 "/>
    <polygon fill="#F0C188" points="6104.37,4096.26 6696.03,4096.94 6696.84,3839.42 6109.34,3837.03 "/>
    <polygon fill="#F0C188" points="3551.91,4094.4 4143.99,4097.27 4144.36,3838.43 3555.57,3837.34 "/>
    <polygon fill="#F0C188" points="998.3,4092.62 1591.16,4097.37 1590.55,3837.41 1001.58,3837.38 "/>
    <polygon fill="#F0C188" points="1637.92,3479.23 2226.25,3482.07 2229.37,3223.25 1636.12,3222.81 "/>
    <polygon fill="#F0C188" points="6105.84,3481.3 6693.25,3481.94 6697.97,3224.76 6105.46,3222.6 "/>
    <polygon fill="#F0C188" points="2914.26,4093.23 3505.72,4097.27 3505.94,3836.88 2918.11,3837.62 "/>
    <polygon fill="#F0C188" points="7382,3482.29 7970.25,3482.06 7974.91,3226.73 7383.04,3222.19 "/>
    <polygon fill="#F0C188" points="7380.95,4096.71 7972.87,4096.74 7973.83,3840.5 7387.07,3836.95 "/>
    <polygon fill="#F0C188" points="1637.63,4092.48 2227.85,4097.53 2228.63,3836.99 1639.23,3837.47 "/>
    <polygon fill="#F0C188" points="2914.86,3480.33 3500.94,3482.24 3506.83,3222.58 2913.92,3224.96 "/>
    <polygon fill="#F0C188" points="360.46,4097.16 953.91,4096.88 953.09,3842.16 367.28,3837.26 "/>
    <polygon fill="#F0C188" points="8656.33,4091.67 9247.96,4097.26 9247.67,3837.34 8659.13,3838.19 "/>
    <polygon fill="#F0C188" points="-278.46,4091.27 314.66,4096.94 314.84,3841.42 -277.01,3837.78 "/>
    <polygon fill="#F0C188" points="7630.6,3786.03 7633.46,3532.64 7041.65,3532.87 7044.11,3783.74 "/>
    <polygon fill="#F0C188" points="5127.48,3785.24 5715.3,3785.63 5717.03,3531.46 5124.97,3535.92 "/>
    <polygon fill="#F0C188" points="4492.69,3785.86 5077.49,3785.82 5077.09,3534 4489.96,3532.64 "/>
    <polygon fill="#F0C188" points="5767.68,3785.02 6352.94,3785.43 6354.61,3534.63 5763.74,3533.95 "/>
    <path fill="#F0C188" d="M4492.69 3785.86l-2.73 -253.22 587.13 1.36 0.4 251.82 -584.8 0.04zm0 0c29.66,18.32 531.46,21.35 583.55,5.17 34.04,-51.68 19.1,-191.46 12.44,-257.08 -57.92,-21.32 -234.38,-10.88 -306.17,-12.28 -62.21,-1.21 -261.57,-16.24 -299.2,16.11 -6.24,5.18 -1.31,9.33 0.82,40.18l-1.83 175.28c1.98,29.54 0.52,19.83 10.39,32.62z"/>
    <path fill="#F0C188" d="M5767.68 3785.02c38.21,23.08 246.64,11.91 292.91,11.1 70.62,-1.25 245.7,10.6 301.75,-8.9 11.57,-52.81 12.5,-214.52 -4.52,-258.18 -41.1,-5.56 -530.07,-22.82 -594.08,4.91l590.87 0.68 -1.67 250.8 -585.26 -0.41z"/>
    <path fill="#F0C188" d="M5127.48 3785.24c36.83,20.15 88.69,12.16 137.11,11.34 52.28,-0.87 104.64,0.48 156.96,-0.25 78.81,-1.08 225.42,8.75 294.12,-3.79 24.22,-47.96 24.52,-214.85 4.89,-264.77 -27.89,-4.81 -527.29,-15.61 -578.05,-1.11 -3.04,0.86 -6.59,3.36 -8.96,4.21 -2.38,0.87 -5.73,3.34 -8.58,5.05l592.06 -4.46 -1.73 254.17 -587.82 -0.39z"/>
    <path fill="#F0C188" d="M7630.6 3786.03l-586.49 -2.29 -2.46 -250.87 591.81 -0.23c-17.42,-8.94 18.03,-3.37 -25.89,-9.8l-570.07 3.66c-17.73,61.31 -14.4,197.96 0.32,260.72 49.25,17.52 228.46,11.41 289.65,9.05 52.6,-2.03 260.98,13.81 303.13,-10.24z"/>
    <path fill="#F0C188" d="M7687.47 5011.53c43.63,13.57 534.67,12.95 591.58,2.29l0.76 -251.03c-55.39,-9.8 -550.23,-9.61 -590.95,2.16l-1.39 246.58z"/>
    <polygon fill="#F0C188" points="2879.87,4710.15 3471.11,4712.09 3471.75,4449.96 2878.24,4450.61 "/>
    <polygon fill="#F0C188" points="1601.58,4710.18 2194.59,4711.31 2194.73,4453.44 2107.39,4449.97 1601.36,4451.17 "/>
    <polygon fill="#F0C188" points="7686.99,4402.92 8281.16,4404.32 8279.93,4143.3 7688.22,4143.79 "/>
    <polygon fill="#F0C188" points="6069.87,4711.73 6663.19,4711.99 6663.16,4453.19 6069.96,4450.69 "/>
    <polygon fill="#F0C188" points="8324.07,4404.45 8917.1,4404.61 8916.45,4143.7 8326.15,4144.24 "/>
    <polygon fill="#F0C188" points="963.44,4708.39 1557.33,4711.98 1556.71,4451.32 962.62,4450.72 "/>
    <path fill="#F0C188" d="M667.07 4400.31l590.26 3.48 3.02 -252.69c-50.93,-14.41 -533.92,-13.65 -594.86,-2.3l1.58 251.51z"/>
    <polygon fill="#F0C188" points="1943.33,4403.56 2537.46,4404.39 2536.5,4144.52 1946.44,4144.18 "/>
    <polygon fill="#F0C188" points="9900.37,4709.37 10492.92,4711.75 10493.27,4452.54 9898.88,4450.8 "/>
    <path fill="#F0C188" d="M-610.31 4400.19l591.33 3.69 2.33 -254.45c-61.4,-11.11 -542.6,-12.29 -594.5,1.29l0.84 249.47z"/>
    <polygon fill="#F0C188" points="2240.32,4710.93 2834.43,4711.5 2833.36,4454.66 2239.5,4450.69 "/>
    <polygon fill="#F0C188" points="7346.21,4707.03 7939.03,4712.02 7939.87,4451.17 7344.31,4451.29 "/>
    <polygon fill="#F0C188" points="28.7,4404.11 620.76,4404.28 620.7,4144.57 31.11,4144.29 "/>
    <polygon fill="#F0C188" points="8623.46,4707.68 9216.42,4711.7 9216.59,4452.06 8621.39,4450.7 "/>
    <polygon fill="#F0C188" points="3219.79,4179.15 3220.8,4402.47 3808.24,4404.7 3813.84,4143.54 3220.07,4144.24 "/>
    <polygon fill="#F0C188" points="4497.72,4402.86 4685.96,4404.56 4697.18,4404.41 5085.18,4403.83 5090.07,4146.04 4943.83,4143.79 4820.5,4144.1 4496.76,4144.26 "/>
    <path fill="#F0C188" d="M1943.71 5014.65c65.33,10.96 544.68,12.46 592.4,-3.36l1.02 -246.66 -590.45 -5.88 -2.97 255.9z"/>
    <polygon fill="#F0C188" points="6409.69,5018.04 7002.93,5018.23 7003.68,4760.44 6413.76,4758.32 "/>
    <polygon fill="#F0C188" points="4495.31,5017.82 5088.12,5018.62 5089.38,4759.42 4501.01,4758.66 "/>
    <polygon fill="#F0C188" points="7984.93,4707.57 8577.59,4711.9 8578.1,4452.72 7983.83,4450.96 "/>
    <polygon fill="#F0C188" points="325.44,4709.31 918.69,4711.57 918.25,4454.57 323.85,4450.89 "/>
    <polygon fill="#F0C188" points="3859.07,4404.05 4445.85,4403.93 4451.77,4144.98 3859.13,4144.29 "/>
    <path fill="#F0C188" d="M9602.2 4400.46l584.82 3.61c16.94,-61.8 9.13,-192.03 5.09,-259.93l-192.01 0.12 -190.59 0.19 -208.07 1.27 0.76 254.74z"/>
    <polygon fill="#F0C188" points="3517.82,4710.62 4109.99,4711.39 4111.5,4456.81 3516.29,4450.22 "/>
    <polygon fill="#F0C188" points="6410.46,4404.02 7000.32,4403.93 7004.03,4147.53 6410.57,4143.99 "/>
    <polygon fill="#F0C188" points="9261.33,4547.54 9263.03,4708.03 9854.27,4711.99 9855.51,4452.77 9261.07,4452.17 "/>
    <polygon fill="#F0C188" points="5134.19,5017.4 5726.58,5018.41 5726.67,4759.05 5139,4759.09 "/>
    <polygon fill="#F0C188" points="3858.56,5015.94 4450.33,5018.7 4450.27,4758.26 3862.09,4759.02 "/>
    <polygon fill="#F0C188" points="5136.47,4402.95 5723.03,4403.85 5728.33,4145 5135.73,4144.14 "/>
    <path fill="#F0C188" d="M8962.23 5013.93c57.51,10.68 549.38,11.42 592.26,-2.11l0.73 -247.33 -590.25 -5.26 -2.74 254.7z"/>
    <path fill="#F0C188" d="M9601.56 5013.97c54.94,10.73 550.32,10.89 592.25,-2.46l0.71 -247.66 -589.89 -4.43 -3.07 254.55z"/>
    <path fill="#F0C188" d="M8962.51 4400.76l591.74 3.09 1.35 -252.31c-198.43,-12.08 -394.24,-7.86 -593.79,-5.62l0.7 254.84z"/>
    <polygon fill="#F0C188" points="-312.83,4708.03 279.66,4711.66 279.57,4455.16 -314.08,4450.61 "/>
    <polygon fill="#F0C188" points="5772.38,5017.77 6364.05,5018.45 6364.85,4760.93 5777.36,4758.53 "/>
    <polygon fill="#F0C188" points="3219.93,5015.9 3812.01,5018.77 3812.38,4759.93 3223.59,4758.85 "/>
    <polygon fill="#F0C188" points="666.31,5014.12 1259.18,5018.87 1258.57,4758.91 669.6,4758.89 "/>
    <polygon fill="#F0C188" points="1305.94,4400.73 1894.26,4403.58 1897.39,4144.75 1304.14,4144.32 "/>
    <polygon fill="#F0C188" points="5773.85,4402.8 6361.27,4403.44 6365.99,4146.26 5773.48,4144.1 "/>
    <polygon fill="#F0C188" points="2582.27,5014.73 3173.74,5018.77 3173.96,4758.38 2586.13,4759.12 "/>
    <polygon fill="#F0C188" points="7050.02,4403.79 7638.26,4403.56 7642.92,4148.23 7051.06,4143.69 "/>
    <polygon fill="#F0C188" points="7048.97,5018.21 7640.89,5018.24 7641.85,4762 7055.09,4758.45 "/>
    <polygon fill="#F0C188" points="1305.65,5013.99 1895.87,5019.03 1896.65,4758.49 1307.25,4758.97 "/>
    <polygon fill="#F0C188" points="2582.88,4401.84 3168.96,4403.74 3174.85,4144.09 2581.94,4146.46 "/>
    <polygon fill="#F0C188" points="28.48,5018.66 621.93,5018.38 621.11,4763.66 35.3,4758.76 "/>
    <polygon fill="#F0C188" points="8324.35,5013.17 8915.98,5018.76 8915.69,4758.85 8327.15,4759.69 "/>
    <polygon fill="#F0C188" points="-610.44,5012.78 -17.32,5018.45 -17.14,4762.93 -608.99,4759.28 "/>
    <polygon fill="#F0C188" points="7298.62,4707.53 7301.48,4454.14 6709.67,4454.38 6712.13,4705.25 "/>
    <polygon fill="#F0C188" points="4795.5,4706.74 5383.32,4707.14 5385.05,4452.96 4792.99,4457.42 "/>
    <polygon fill="#F0C188" points="4160.7,4707.37 4745.51,4707.33 4745.11,4455.5 4157.98,4454.14 "/>
    <polygon fill="#F0C188" points="5435.7,4706.52 6020.96,4706.93 6022.62,4456.13 5431.76,4455.45 "/>
    <path fill="#F0C188" d="M4160.7 4707.37l-2.72 -253.23 587.13 1.36 0.4 251.83 -584.81 0.04zm0 0c29.67,18.31 531.47,21.34 583.56,5.16 34.03,-51.68 19.1,-191.46 12.44,-257.08 -57.92,-21.32 -234.38,-10.88 -306.18,-12.28 -62.21,-1.21 -261.56,-16.23 -299.19,16.11 -6.24,5.18 -1.31,9.33 0.82,40.18l-1.83 175.29c1.98,29.53 0.52,19.82 10.38,32.62z"/>
    <path fill="#F0C188" d="M5435.7 4706.52c38.2,23.08 246.64,11.92 292.91,11.1 70.62,-1.25 245.7,10.61 301.75,-8.89 11.57,-52.82 12.5,-214.53 -4.52,-258.19 -41.1,-5.56 -530.07,-22.81 -594.08,4.91l590.86 0.68 -1.66 250.8 -585.26 -0.41z"/>
    <path fill="#F0C188" d="M4795.5 4706.74c36.83,20.15 88.69,12.16 137.11,11.34 52.28,-0.87 104.64,0.48 156.96,-0.24 78.81,-1.09 225.42,8.74 294.12,-3.8 24.22,-47.95 24.52,-214.85 4.89,-264.76 -27.89,-4.82 -527.29,-15.61 -578.06,-1.12 -3.03,0.86 -6.58,3.36 -8.95,4.22 -2.38,0.87 -5.73,3.33 -8.58,5.04l592.06 -4.46 -1.73 254.18 -587.82 -0.4z"/>
    <path fill="#F0C188" d="M7298.62 4707.53l-586.49 -2.28 -2.46 -250.87 591.81 -0.24c-17.42,-8.94 18.03,-3.37 -25.89,-9.8l-570.07 3.66c-17.73,61.31 -14.4,197.96 0.32,260.73 49.25,17.51 228.46,11.4 289.65,9.04 52.59,-2.03 260.98,13.81 303.13,-10.24z"/>
    <path fill="#F0C188" d="M7328.26 5923.36c43.64,13.57 534.67,12.96 591.59,2.3l0.75 -251.04c-55.39,-9.8 -550.23,-9.61 -590.95,2.17l-1.39 246.57z"/>
    <polygon fill="#F0C188" points="2520.66,5621.99 3111.9,5623.92 3112.55,5361.79 2519.03,5362.44 "/>
    <polygon fill="#F0C188" points="1242.38,5622.02 1835.38,5623.15 1835.53,5365.27 1748.18,5361.81 1242.15,5363 "/>
    <polygon fill="#F0C188" points="7327.79,5314.76 7921.95,5316.16 7920.72,5055.13 7329.02,5055.62 "/>
    <polygon fill="#F0C188" points="5710.66,5623.57 6303.98,5623.82 6303.96,5365.03 5710.76,5362.53 "/>
    <polygon fill="#F0C188" points="7964.87,5316.28 8557.9,5316.44 8557.25,5055.54 7966.95,5056.07 "/>
    <polygon fill="#F0C188" points="604.24,5620.22 1198.13,5623.81 1197.5,5363.15 603.42,5362.55 "/>
    <path fill="#F0C188" d="M307.86 5312.15l590.26 3.48 3.02 -252.69c-50.93,-14.42 -533.91,-13.66 -594.85,-2.3l1.57 251.51z"/>
    <polygon fill="#F0C188" points="1584.12,5315.4 2178.26,5316.23 2177.29,5056.36 1587.23,5056.02 "/>
    <polygon fill="#F0C188" points="9541.17,5621.2 10133.72,5623.58 10134.06,5364.37 9539.67,5362.63 "/>
    <polygon fill="#F0C188" points="1881.12,5622.76 2475.23,5623.34 2474.16,5366.5 1880.3,5362.53 "/>
    <polygon fill="#F0C188" points="6987,5618.86 7579.83,5623.85 7580.66,5363 6985.11,5363.12 "/>
    <polygon fill="#F0C188" points="-330.5,5315.94 261.56,5316.12 261.49,5056.41 -328.09,5056.12 "/>
    <polygon fill="#F0C188" points="8264.25,5619.51 8857.21,5623.54 8857.38,5363.9 8262.18,5362.54 "/>
    <polygon fill="#F0C188" points="2860.59,5090.99 2861.59,5314.31 3449.03,5316.54 3454.63,5055.38 2860.87,5056.07 "/>
    <polygon fill="#F0C188" points="4138.51,5314.69 4326.75,5316.39 4337.97,5316.24 4725.98,5315.67 4730.86,5057.88 4584.62,5055.62 4461.29,5055.93 4137.56,5056.1 "/>
    <path fill="#F0C188" d="M1584.5 5926.49c65.34,10.96 544.68,12.45 592.41,-3.36l1.02 -246.67 -590.46 -5.87 -2.97 255.9z"/>
    <polygon fill="#F0C188" points="6050.49,5929.87 6643.72,5930.06 6644.48,5672.27 6054.55,5670.15 "/>
    <polygon fill="#F0C188" points="4136.1,5929.66 4728.92,5930.46 4730.17,5671.25 4141.81,5670.49 "/>
    <polygon fill="#F0C188" points="7625.72,5619.41 8218.38,5623.73 8218.9,5364.55 7624.63,5362.8 "/>
    <polygon fill="#F0C188" points="-33.77,5621.15 559.48,5623.4 559.04,5366.4 -35.36,5362.73 "/>
    <polygon fill="#F0C188" points="3499.87,5315.89 4086.64,5315.76 4092.56,5056.82 3499.92,5056.12 "/>
    <path fill="#F0C188" d="M9242.99 5312.3l584.82 3.6c16.95,-61.8 9.14,-192.02 5.1,-259.93l-192.02 0.13 -190.59 0.19 -208.06 1.26 0.75 254.75z"/>
    <polygon fill="#F0C188" points="3158.62,5622.45 3750.78,5623.23 3752.29,5368.64 3157.08,5362.05 "/>
    <polygon fill="#F0C188" points="6051.25,5315.86 6641.12,5315.76 6644.82,5059.36 6051.36,5055.83 "/>
    <polygon fill="#F0C188" points="8902.13,5459.38 8903.82,5619.87 9495.06,5623.82 9496.3,5364.61 8901.86,5364.01 "/>
    <polygon fill="#F0C188" points="4774.98,5929.23 5367.38,5930.24 5367.47,5670.89 4779.79,5670.93 "/>
    <polygon fill="#F0C188" points="3499.35,5927.78 4091.12,5930.54 4091.07,5670.1 3502.89,5670.86 "/>
    <polygon fill="#F0C188" points="4777.26,5314.79 5363.83,5315.68 5369.12,5056.83 4776.52,5055.97 "/>
    <path fill="#F0C188" d="M8603.02 5925.77c57.51,10.67 549.39,11.42 592.26,-2.11l0.73 -247.34 -590.25 -5.26 -2.74 254.71z"/>
    <path fill="#F0C188" d="M9242.36 5925.81c54.94,10.73 550.32,10.89 592.24,-2.46l0.72 -247.66 -589.89 -4.44 -3.07 254.56z"/>
    <path fill="#F0C188" d="M8603.3 5312.6l591.74 3.08 1.35 -252.31c-198.42,-12.07 -394.24,-7.86 -593.79,-5.61l0.7 254.84z"/>
    <polygon fill="#F0C188" points="-672.03,5619.87 -79.55,5623.5 -79.64,5367 -673.29,5362.44 "/>
    <polygon fill="#F0C188" points="5413.18,5929.6 6004.84,5930.28 6005.65,5672.76 5418.16,5670.37 "/>
    <polygon fill="#F0C188" points="2860.72,5927.74 3452.81,5930.61 3453.18,5671.77 2864.39,5670.68 "/>
    <polygon fill="#F0C188" points="307.11,5925.96 899.98,5930.7 899.37,5670.75 310.39,5670.72 "/>
    <polygon fill="#F0C188" points="946.73,5312.57 1535.06,5315.41 1538.18,5056.59 944.93,5056.15 "/>
    <polygon fill="#F0C188" points="5414.65,5314.64 6002.06,5315.28 6006.79,5058.1 5414.28,5055.93 "/>
    <polygon fill="#F0C188" points="2223.07,5926.57 2814.53,5930.61 2814.76,5670.22 2226.92,5670.95 "/>
    <polygon fill="#F0C188" points="6690.81,5315.63 7279.06,5315.4 7283.72,5060.07 6691.86,5055.53 "/>
    <polygon fill="#F0C188" points="6689.77,5930.05 7281.68,5930.08 7282.65,5673.84 6695.88,5670.29 "/>
    <polygon fill="#F0C188" points="946.44,5925.82 1536.66,5930.87 1537.44,5670.33 948.04,5670.8 "/>
    <polygon fill="#F0C188" points="2223.68,5313.67 2809.75,5315.57 2815.64,5055.92 2222.74,5058.3 "/>
    <polygon fill="#F0C188" points="-330.73,5930.5 262.72,5930.21 261.9,5675.49 -323.91,5670.6 "/>
    <polygon fill="#F0C188" points="7965.15,5925.01 8556.77,5930.59 8556.48,5670.68 7967.94,5671.52 "/>
    <polygon fill="#F0C188" points="6939.41,5619.37 6942.27,5365.98 6350.46,5366.21 6352.92,5617.08 "/>
    <polygon fill="#F0C188" points="4436.29,5618.58 5024.11,5618.97 5025.85,5364.8 4433.79,5369.26 "/>
    <polygon fill="#F0C188" points="3801.5,5619.2 4386.3,5619.16 4385.9,5367.34 3798.77,5365.98 "/>
    <polygon fill="#F0C188" points="5076.5,5618.36 5661.75,5618.77 5663.42,5367.96 5072.55,5367.28 "/>
    <polygon fill="#F0C188" points="9875.82,5315.74 10128.88,5316.13 10132.83,5058.39 9876.76,5055.96 "/>
    <polygon fill="#F0C188" points="9874.99,5929.7 10132.06,5930.53 10132.26,5672.1 9880.6,5671.12 "/>
    <path fill="#F0C188" d="M3801.5 5619.2l-2.73 -253.22 587.13 1.36 0.4 251.82 -584.8 0.04zm0 0c29.66,18.32 531.46,21.35 583.56,5.17 34.03,-51.68 19.09,-191.46 12.43,-257.09 -57.92,-21.32 -234.38,-10.87 -306.17,-12.27 -62.21,-1.21 -261.56,-16.24 -299.2,16.11 -6.23,5.18 -1.31,9.33 0.82,40.18l-1.82 175.28c1.97,29.54 0.51,19.83 10.38,32.62z"/>
    <path fill="#F0C188" d="M5076.5 5618.36c38.2,23.07 246.64,11.91 292.9,11.09 70.62,-1.25 245.7,10.61 301.75,-8.89 11.58,-52.81 12.5,-214.52 -4.51,-258.18 -41.11,-5.57 -530.08,-22.82 -594.09,4.9l590.87 0.68 -1.67 250.81 -585.25 -0.41z"/>
    <path fill="#F0C188" d="M4436.29 5618.58c36.84,20.15 88.69,12.15 137.12,11.34 52.27,-0.87 104.63,0.47 156.95,-0.25 78.81,-1.09 225.43,8.74 294.12,-3.79 24.22,-47.96 24.53,-214.85 4.89,-264.77 -27.89,-4.81 -527.28,-15.61 -578.05,-1.11 -3.03,0.85 -6.58,3.36 -8.95,4.21 -2.39,0.87 -5.74,3.33 -8.58,5.05l592.06 -4.46 -1.74 254.17 -587.82 -0.39z"/>
    <path fill="#F0C188" d="M6939.41 5619.37l-586.49 -2.29 -2.46 -250.87 591.81 -0.23c-17.41,-8.95 18.04,-3.37 -25.89,-9.8l-570.06 3.65c-17.73,61.31 -14.41,197.97 0.31,260.73 49.25,17.51 228.46,11.41 289.65,9.04 52.6,-2.02 260.98,13.82 303.13,-10.23z"/>
    <path fill="#F0C188" d="M7657.11 6836.35c43.63,13.57 534.67,12.96 591.58,2.3l0.76 -251.03c-55.39,-9.81 -550.23,-9.62 -590.95,2.16l-1.39 246.57z"/>
    <polygon fill="#F0C188" points="2849.5,6534.98 3440.74,6536.91 3441.39,6274.78 2847.88,6275.43 "/>
    <polygon fill="#F0C188" points="1571.22,6535.01 2164.22,6536.14 2164.37,6278.26 2077.03,6274.8 1571,6275.99 "/>
    <polygon fill="#F0C188" points="7656.63,6227.75 8250.8,6229.15 8249.56,5968.12 7657.86,5968.61 "/>
    <polygon fill="#F0C188" points="6039.51,6536.56 6632.83,6536.82 6632.8,6278.02 6039.6,6275.52 "/>
    <polygon fill="#F0C188" points="8293.71,6229.27 8886.74,6229.44 8886.09,5968.53 8295.79,5969.06 "/>
    <polygon fill="#F0C188" points="933.08,6533.21 1526.97,6536.8 1526.35,6276.14 932.26,6275.54 "/>
    <path fill="#F0C188" d="M636.71 6225.14l590.26 3.48 3.01 -252.69c-50.92,-14.42 -533.91,-13.65 -594.85,-2.3l1.58 251.51z"/>
    <polygon fill="#F0C188" points="1912.96,6228.39 2507.1,6229.22 2506.13,5969.35 1916.07,5969.01 "/>
    <polygon fill="#F0C188" points="9870.01,6534.19 10462.56,6536.57 10462.9,6277.37 9868.51,6275.63 "/>
    <path fill="#F0C188" d="M-640.68 6225.02l591.34 3.68 2.33 -254.45c-61.4,-11.1 -542.61,-12.29 -594.5,1.3l0.83 249.47z"/>
    <polygon fill="#F0C188" points="2209.96,6535.75 2804.07,6536.33 2803,6279.49 2209.14,6275.52 "/>
    <polygon fill="#F0C188" points="7315.84,6531.85 7908.67,6536.84 7909.51,6275.99 7313.95,6276.11 "/>
    <polygon fill="#F0C188" points="-1.66,6228.93 590.4,6229.11 590.33,5969.4 0.75,5969.11 "/>
    <polygon fill="#F0C188" points="8593.09,6532.51 9186.05,6536.53 9186.23,6276.89 8591.03,6275.53 "/>
    <polygon fill="#F0C188" points="3189.43,6003.98 3190.44,6227.3 3777.88,6229.53 3783.48,5968.37 3189.71,5969.06 "/>
    <polygon fill="#F0C188" points="4467.35,6227.68 4655.6,6229.38 4666.81,6229.23 5054.82,6228.66 5059.71,5970.87 4913.47,5968.61 4790.13,5968.92 4466.4,5969.09 "/>
    <path fill="#F0C188" d="M1913.35 6839.48c65.33,10.96 544.68,12.45 592.4,-3.36l1.02 -246.67 -590.46 -5.87 -2.96 255.9z"/>
    <polygon fill="#F0C188" points="6379.33,6842.86 6972.57,6843.05 6973.32,6585.26 6383.39,6583.14 "/>
    <polygon fill="#F0C188" points="4464.94,6842.65 5057.76,6843.45 5059.02,6584.24 4470.65,6583.48 "/>
    <polygon fill="#F0C188" points="7954.57,6532.4 8547.22,6536.72 8547.74,6277.54 7953.47,6275.79 "/>
    <polygon fill="#F0C188" points="295.07,6534.14 888.32,6536.39 887.89,6279.39 293.48,6275.72 "/>
    <polygon fill="#F0C188" points="3828.71,6228.88 4415.49,6228.76 4421.41,5969.81 3828.76,5969.11 "/>
    <path fill="#F0C188" d="M9571.83 6225.29l584.82 3.6c16.95,-61.8 9.14,-192.02 5.1,-259.92l-192.02 0.12 -190.58 0.19 -208.07 1.26 0.75 254.75z"/>
    <polygon fill="#F0C188" points="3487.46,6535.44 4079.63,6536.22 4081.14,6281.64 3485.92,6275.04 "/>
    <polygon fill="#F0C188" points="6380.1,6228.85 6969.96,6228.76 6973.67,5972.35 6380.2,5968.82 "/>
    <polygon fill="#F0C188" points="9230.97,6372.37 9232.66,6532.86 9823.9,6536.82 9825.15,6277.6 9230.7,6277 "/>
    <polygon fill="#F0C188" points="5103.83,6842.22 5696.22,6843.23 5696.31,6583.88 5108.63,6583.92 "/>
    <polygon fill="#F0C188" points="3828.19,6840.77 4419.96,6843.53 4419.91,6583.09 3831.73,6583.85 "/>
    <polygon fill="#F0C188" points="5106.1,6227.78 5692.67,6228.67 5697.97,5969.82 5105.36,5968.97 "/>
    <path fill="#F0C188" d="M8931.87 6838.76c57.5,10.67 549.38,11.42 592.26,-2.11l0.72 -247.34 -590.24 -5.26 -2.74 254.71z"/>
    <path fill="#F0C188" d="M9571.2 6838.8c54.94,10.73 550.32,10.89 592.24,-2.46l0.72 -247.66 -589.89 -4.44 -3.07 254.56z"/>
    <path fill="#F0C188" d="M8932.14 6225.59l591.75 3.08 1.35 -252.31c-198.43,-12.07 -394.25,-7.86 -593.8,-5.61l0.7 254.84z"/>
    <polygon fill="#F0C188" points="-343.19,6532.86 249.3,6536.49 249.2,6279.99 -344.45,6275.43 "/>
    <polygon fill="#F0C188" points="5742.02,6842.59 6333.68,6843.27 6334.49,6585.75 5747,6583.36 "/>
    <polygon fill="#F0C188" points="3189.56,6840.73 3781.65,6843.6 3782.02,6584.76 3193.23,6583.67 "/>
    <polygon fill="#F0C188" points="635.95,6838.95 1228.82,6843.69 1228.21,6583.74 639.24,6583.71 "/>
    <polygon fill="#F0C188" points="1275.58,6225.56 1863.9,6228.4 1867.03,5969.58 1273.77,5969.14 "/>
    <polygon fill="#F0C188" points="5743.49,6227.63 6330.9,6228.27 6335.63,5971.09 5743.12,5968.92 "/>
    <polygon fill="#F0C188" points="2551.91,6839.56 3143.38,6843.6 3143.6,6583.21 2555.76,6583.94 "/>
    <polygon fill="#F0C188" points="7019.65,6228.62 7607.9,6228.39 7612.56,5973.06 7020.7,5968.52 "/>
    <polygon fill="#F0C188" points="7018.61,6843.04 7610.52,6843.07 7611.49,6586.83 7024.73,6583.28 "/>
    <polygon fill="#F0C188" points="1275.28,6838.81 1865.5,6843.86 1866.29,6583.32 1276.89,6583.79 "/>
    <polygon fill="#F0C188" points="2552.52,6226.66 3138.6,6228.56 3144.49,5968.91 2551.58,5971.29 "/>
    <polygon fill="#F0C188" points="-1.89,6843.49 591.57,6843.2 590.74,6588.49 4.93,6583.59 "/>
    <polygon fill="#F0C188" points="8293.99,6838 8885.61,6843.58 8885.32,6583.67 8296.78,6584.51 "/>
    <polygon fill="#F0C188" points="-640.81,6837.6 -47.69,6843.27 -47.5,6587.75 -639.35,6584.11 "/>
    <polygon fill="#F0C188" points="7268.25,6532.36 7271.11,6278.97 6679.3,6279.2 6681.77,6530.07 "/>
    <polygon fill="#F0C188" points="4765.13,6531.57 5352.96,6531.96 5354.69,6277.79 4762.63,6282.25 "/>
    <polygon fill="#F0C188" points="4130.34,6532.19 4715.15,6532.15 4714.75,6280.33 4127.61,6278.97 "/>
    <polygon fill="#F0C188" points="5405.34,6531.35 5990.59,6531.76 5992.26,6280.96 5401.39,6280.28 "/>
    <path fill="#F0C188" d="M4130.34 6532.19l-2.73 -253.22 587.14 1.36 0.4 251.82 -584.81 0.04zm0 0c29.66,18.32 531.47,21.35 583.56,5.17 34.03,-51.68 19.09,-191.46 12.43,-257.08 -57.91,-21.33 -234.37,-10.88 -306.17,-12.28 -62.21,-1.21 -261.56,-16.24 -299.19,16.11 -6.24,5.18 -1.31,9.33 0.82,40.18l-1.83 175.28c1.97,29.54 0.52,19.83 10.38,32.62z"/>
    <path fill="#F0C188" d="M5405.34 6531.35c38.2,23.07 246.64,11.91 292.9,11.09 70.62,-1.25 245.7,10.61 301.75,-8.89 11.58,-52.81 12.5,-214.52 -4.51,-258.18 -41.1,-5.56 -530.08,-22.82 -594.09,4.91l590.87 0.68 -1.67 250.8 -585.25 -0.41z"/>
    <path fill="#F0C188" d="M4765.13 6531.57c36.84,20.15 88.69,12.15 137.12,11.34 52.28,-0.87 104.63,0.47 156.95,-0.25 78.82,-1.09 225.43,8.75 294.13,-3.79 24.21,-47.96 24.52,-214.85 4.88,-264.77 -27.88,-4.81 -527.28,-15.61 -578.05,-1.11 -3.03,0.85 -6.58,3.36 -8.95,4.21 -2.38,0.87 -5.73,3.33 -8.58,5.05l592.06 -4.46 -1.73 254.17 -587.83 -0.39z"/>
    <path fill="#F0C188" d="M7268.25 6532.36l-586.48 -2.29 -2.47 -250.87 591.81 -0.23c-17.41,-8.95 18.04,-3.37 -25.88,-9.8l-570.07 3.65c-17.73,61.31 -14.41,197.97 0.32,260.73 49.24,17.52 228.46,11.41 289.65,9.04 52.59,-2.02 260.97,13.82 303.12,-10.23z"/>
    <path fill="#F0C188" d="M7297.9 7748.19c43.63,13.57 534.67,12.95 591.58,2.29l0.76 -251.03c-55.39,-9.8 -550.23,-9.61 -590.95,2.16l-1.39 246.58z"/>
    <polygon fill="#F0C188" points="2490.3,7446.81 3081.54,7448.75 3082.19,7186.62 2488.67,7187.27 "/>
    <polygon fill="#F0C188" points="1212.02,7446.84 1805.02,7447.97 1805.16,7190.1 1717.82,7186.63 1211.79,7187.83 "/>
    <polygon fill="#F0C188" points="7297.42,7139.58 7891.59,7140.98 7890.36,6879.96 7298.66,6880.45 "/>
    <polygon fill="#F0C188" points="5680.3,7448.39 6273.62,7448.65 6273.59,7189.85 5680.39,7187.35 "/>
    <polygon fill="#F0C188" points="7934.51,7141.11 8527.53,7141.27 8526.88,6880.36 7936.58,6880.9 "/>
    <polygon fill="#F0C188" points="573.87,7445.05 1167.76,7448.64 1167.14,7187.98 573.05,7187.38 "/>
    <path fill="#F0C188" d="M277.5 7136.97l590.26 3.48 3.02 -252.69c-50.93,-14.41 -533.92,-13.65 -594.86,-2.3l1.58 251.51z"/>
    <polygon fill="#F0C188" points="1553.76,7140.22 2147.9,7141.05 2146.93,6881.18 1556.87,6880.84 "/>
    <polygon fill="#F0C188" points="9510.8,7446.03 10103.35,7448.41 10103.7,7189.2 9509.31,7187.46 "/>
    <polygon fill="#F0C188" points="1850.75,7447.59 2444.87,7448.16 2443.79,7191.32 1849.93,7187.35 "/>
    <polygon fill="#F0C188" points="6956.64,7443.69 7549.47,7448.68 7550.3,7187.83 6954.74,7187.95 "/>
    <polygon fill="#F0C188" points="-360.87,7140.77 231.19,7140.94 231.13,6881.24 -358.46,6880.95 "/>
    <polygon fill="#F0C188" points="8233.89,7444.34 8826.85,7448.36 8827.02,7188.72 8231.82,7187.36 "/>
    <polygon fill="#F0C188" points="2830.22,6915.81 2831.23,7139.14 3418.67,7141.37 3424.27,6880.2 2830.5,6880.9 "/>
    <polygon fill="#F0C188" points="4108.15,7139.52 4296.39,7141.22 4307.61,7141.07 4695.61,7140.49 4700.5,6882.7 4554.26,6880.45 4430.93,6880.76 4107.19,6880.92 "/>
    <path fill="#F0C188" d="M1554.14 7751.31c65.33,10.96 544.68,12.46 592.4,-3.36l1.02 -246.66 -590.45 -5.88 -2.97 255.9z"/>
    <polygon fill="#F0C188" points="6020.12,7754.7 6613.36,7754.89 6614.12,7497.1 6024.19,7494.98 "/>
    <polygon fill="#F0C188" points="4105.74,7754.48 4698.55,7755.28 4699.81,7496.08 4111.45,7495.32 "/>
    <polygon fill="#F0C188" points="7595.36,7444.23 8188.02,7448.56 8188.53,7189.38 7594.26,7187.62 "/>
    <polygon fill="#F0C188" points="-64.13,7445.97 529.12,7448.23 528.68,7191.23 -65.72,7187.56 "/>
    <polygon fill="#F0C188" points="3469.5,7140.71 4056.28,7140.59 4062.2,6881.64 3469.56,6880.95 "/>
    <path fill="#F0C188" d="M9212.63 7137.12l584.82 3.61c16.95,-61.8 9.13,-192.03 5.09,-259.93l-192.01 0.12 -190.59 0.19 -208.07 1.27 0.76 254.74z"/>
    <polygon fill="#F0C188" points="3128.25,7447.28 3720.42,7448.05 3721.93,7193.47 3126.72,7186.88 "/>
    <polygon fill="#F0C188" points="6020.89,7140.69 6610.75,7140.59 6614.46,6884.19 6021,6880.65 "/>
    <polygon fill="#F0C188" points="8871.76,7284.2 8873.46,7444.69 9464.7,7448.65 9465.94,7189.43 8871.5,7188.83 "/>
    <polygon fill="#F0C188" points="4744.62,7754.06 5337.01,7755.07 5337.1,7495.71 4749.43,7495.75 "/>
    <polygon fill="#F0C188" points="3468.99,7752.6 4060.76,7755.36 4060.7,7494.92 3472.52,7495.68 "/>
    <polygon fill="#F0C188" points="4746.9,7139.61 5333.46,7140.51 5338.76,6881.66 4746.16,6880.8 "/>
    <path fill="#F0C188" d="M8572.66 7750.59c57.51,10.68 549.38,11.42 592.26,-2.11l0.73 -247.33 -590.25 -5.26 -2.74 254.7z"/>
    <path fill="#F0C188" d="M9211.99 7750.63c54.94,10.73 550.33,10.89 592.25,-2.46l0.71 -247.66 -589.88 -4.43 -3.08 254.55z"/>
    <path fill="#F0C188" d="M8572.94 7137.42l591.74 3.09 1.35 -252.31c-198.42,-12.08 -394.24,-7.86 -593.79,-5.62l0.7 254.84z"/>
    <polygon fill="#F0C188" points="-702.39,7444.69 -109.91,7448.32 -110,7191.82 -703.65,7187.27 "/>
    <polygon fill="#F0C188" points="5382.82,7754.43 5974.48,7755.11 5975.29,7497.59 5387.79,7495.19 "/>
    <polygon fill="#F0C188" points="2830.36,7752.56 3422.44,7755.43 3422.81,7496.59 2834.02,7495.51 "/>
    <polygon fill="#F0C188" points="276.75,7750.78 869.61,7755.53 869,7495.57 280.03,7495.55 "/>
    <polygon fill="#F0C188" points="916.37,7137.39 1504.7,7140.24 1507.82,6881.41 914.57,6880.98 "/>
    <polygon fill="#F0C188" points="5384.28,7139.46 5971.7,7140.1 5976.42,6882.92 5383.91,6880.76 "/>
    <polygon fill="#F0C188" points="2192.71,7751.39 2784.17,7755.43 2784.39,7495.04 2196.56,7495.78 "/>
    <polygon fill="#F0C188" points="6660.45,7140.45 7248.69,7140.22 7253.36,6884.89 6661.49,6880.35 "/>
    <polygon fill="#F0C188" points="6659.4,7754.88 7251.32,7754.9 7252.28,7498.66 6665.52,7495.11 "/>
    <polygon fill="#F0C188" points="916.08,7750.65 1506.3,7755.69 1507.08,7495.15 917.68,7495.63 "/>
    <polygon fill="#F0C188" points="2193.31,7138.5 2779.39,7140.4 2785.28,6880.75 2192.37,6883.13 "/>
    <polygon fill="#F0C188" points="-361.09,7755.32 232.36,7755.04 231.54,7500.32 -354.27,7495.43 "/>
    <polygon fill="#F0C188" points="7934.78,7749.83 8526.41,7755.42 8526.12,7495.51 7937.58,7496.35 "/>
    <polygon fill="#F0C188" points="6909.05,7444.19 6911.91,7190.8 6320.1,7191.04 6322.56,7441.91 "/>
    <polygon fill="#F0C188" points="4405.93,7443.4 4993.75,7443.8 4995.48,7189.62 4403.42,7194.08 "/>
    <polygon fill="#F0C188" points="3771.14,7444.03 4355.94,7443.99 4355.54,7192.16 3768.41,7190.8 "/>
    <polygon fill="#F0C188" points="5046.13,7443.18 5631.39,7443.59 5633.06,7192.79 5042.19,7192.11 "/>
    <polygon fill="#F0C188" points="9845.46,7140.56 10098.52,7140.96 10102.47,6883.22 9846.4,6880.79 "/>
    <polygon fill="#F0C188" points="9844.63,7754.52 10101.7,7755.35 10101.9,7496.92 9850.24,7495.94 "/>
    <path fill="#F0C188" d="M3771.14 7444.03l-2.73 -253.23 587.13 1.36 0.4 251.83 -584.8 0.04zm0 0c29.66,18.31 531.46,21.35 583.55,5.16 34.04,-51.68 19.1,-191.46 12.44,-257.08 -57.92,-21.32 -234.38,-10.88 -306.17,-12.28 -62.21,-1.21 -261.57,-16.23 -299.2,16.11 -6.24,5.19 -1.31,9.33 0.82,40.18l-1.83 175.29c1.98,29.53 0.52,19.82 10.39,32.62z"/>
    <path fill="#F0C188" d="M5046.13 7443.18c38.21,23.08 246.64,11.92 292.91,11.1 70.62,-1.25 245.7,10.61 301.75,-8.89 11.57,-52.81 12.5,-214.53 -4.52,-258.19 -41.1,-5.56 -530.07,-22.81 -594.08,4.91l590.87 0.68 -1.67 250.8 -585.26 -0.41z"/>
    <path fill="#F0C188" d="M4405.93 7443.4c36.83,20.15 88.69,12.16 137.11,11.34 52.28,-0.87 104.64,0.48 156.96,-0.24 78.81,-1.09 225.42,8.74 294.12,-3.8 24.22,-47.95 24.52,-214.85 4.89,-264.76 -27.89,-4.82 -527.29,-15.61 -578.05,-1.12 -3.04,0.86 -6.59,3.36 -8.96,4.22 -2.38,0.87 -5.73,3.33 -8.58,5.04l592.06 -4.46 -1.73 254.18 -587.82 -0.4z"/>
    <path fill="#F0C188" d="M6909.05 7444.19l-586.49 -2.28 -2.46 -250.87 591.81 -0.24c-17.42,-8.94 18.03,-3.37 -25.89,-9.8l-570.07 3.66c-17.73,61.31 -14.4,197.96 0.32,260.73 49.25,17.51 228.46,11.41 289.65,9.04 52.59,-2.03 260.98,13.81 303.13,-10.24z"/>
    <rect fill="#F0C188" x="7003.76" y="2080.34" width="42.45" height="3052.09"/>
    <path fill="#F0C188" d="M7459.64 448.08c43.63,13.57 534.67,12.96 591.58,2.3l0.76 -251.03c-55.39,-9.81 -550.23,-9.62 -590.95,2.16l-1.39 246.57z"/>
    <polygon fill="#F0C188" points="2652.03,146.71 3243.27,148.64 3243.92,-113.49 2650.41,-112.83 "/>
    <polygon fill="#F0C188" points="1373.75,146.74 1966.75,147.87 1966.9,-110.01 1879.56,-113.47 1373.53,-112.28 "/>
    <polygon fill="#F0C188" points="5842.04,148.29 6435.36,148.55 6435.33,-110.25 5842.13,-112.75 "/>
    <polygon fill="#F0C188" points="735.61,144.94 1329.5,148.53 1328.88,-112.13 734.79,-112.73 "/>
    <polygon fill="#F0C188" points="9672.54,145.92 10265.09,148.3 10265.43,-110.9 9671.04,-112.64 "/>
    <polygon fill="#F0C188" points="2012.49,147.49 2606.6,148.06 2605.53,-108.78 2011.67,-112.75 "/>
    <polygon fill="#F0C188" points="7118.37,143.58 7711.2,148.57 7712.04,-112.28 7116.48,-112.15 "/>
    <polygon fill="#F0C188" points="8395.62,144.24 8988.58,148.26 8988.76,-111.38 8393.56,-112.74 "/>
    <path fill="#F0C188" d="M1715.88 451.21c65.33,10.96 544.68,12.45 592.4,-3.36l1.02 -246.67 -590.46 -5.87 -2.96 255.9z"/>
    <polygon fill="#F0C188" points="6181.86,454.59 6775.1,454.79 6775.85,196.99 6185.92,194.87 "/>
    <polygon fill="#F0C188" points="4267.47,454.38 4860.29,455.18 4861.55,195.97 4273.18,195.21 "/>
    <polygon fill="#F0C188" points="7757.1,144.13 8349.75,148.45 8350.27,-110.73 7756,-112.48 "/>
    <polygon fill="#F0C188" points="97.6,145.87 690.85,148.13 690.42,-108.88 96.01,-112.55 "/>
    <polygon fill="#F0C188" points="3289.99,147.17 3882.16,147.95 3883.67,-106.63 3288.45,-113.23 "/>
    <polygon fill="#F0C188" points="9033.5,-15.9 9035.19,144.59 9626.43,148.55 9627.68,-110.67 9033.23,-111.27 "/>
    <polygon fill="#F0C188" points="4906.36,453.96 5498.75,454.96 5498.84,195.61 4911.16,195.65 "/>
    <polygon fill="#F0C188" points="3630.72,452.5 4222.49,455.26 4222.44,194.82 3634.26,195.58 "/>
    <path fill="#F0C188" d="M8734.4 450.49c57.5,10.67 549.38,11.42 592.26,-2.11l0.72 -247.33 -590.24 -5.27 -2.74 254.71z"/>
    <path fill="#F0C188" d="M9373.73 450.53c54.94,10.73 550.32,10.89 592.24,-2.46l0.72 -247.66 -589.89 -4.44 -3.07 254.56z"/>
    <polygon fill="#F0C188" points="-540.66,144.59 51.83,148.22 51.73,-108.28 -541.92,-112.83 "/>
    <polygon fill="#F0C188" points="5544.55,454.32 6136.21,455 6137.02,197.48 5549.53,195.09 "/>
    <polygon fill="#F0C188" points="2992.09,452.46 3584.18,455.33 3584.55,196.49 2995.76,195.4 "/>
    <polygon fill="#F0C188" points="438.48,450.68 1031.35,455.42 1030.74,195.47 441.77,195.44 "/>
    <polygon fill="#F0C188" points="2354.44,451.29 2945.91,455.33 2946.13,194.94 2358.29,195.68 "/>
    <polygon fill="#F0C188" points="6821.14,454.77 7413.05,454.8 7414.02,198.56 6827.26,195.01 "/>
    <polygon fill="#F0C188" points="1077.81,450.54 1668.03,455.59 1668.82,195.05 1079.42,195.53 "/>
    <polygon fill="#F0C188" points="-199.36,455.22 394.1,454.93 393.27,200.22 -192.54,195.32 "/>
    <polygon fill="#F0C188" points="8096.52,449.73 8688.14,455.32 8687.85,195.4 8099.31,196.25 "/>
    <polygon fill="#F0C188" points="7070.78,144.09 7073.64,-109.3 6481.83,-109.07 6484.3,141.8 "/>
    <polygon fill="#F0C188" points="4567.66,143.3 5155.49,143.69 5157.22,-110.48 4565.16,-106.02 "/>
    <polygon fill="#F0C188" points="3932.87,143.92 4517.68,143.88 4517.28,-107.94 3930.14,-109.3 "/>
    <polygon fill="#F0C188" points="5207.87,143.08 5793.12,143.49 5794.79,-107.31 5203.92,-107.99 "/>
    <path fill="#F0C188" d="M3932.87 143.92l-2.73 -253.22 587.14 1.36 0.4 251.82 -584.81 0.04zm0 0c29.66,18.32 531.47,21.35 583.56,5.17 34.03,-51.68 19.09,-191.46 12.43,-257.08 -57.91,-21.32 -234.37,-10.88 -306.17,-12.28 -62.21,-1.21 -261.56,-16.24 -299.19,16.11 -6.24,5.18 -1.31,9.33 0.82,40.18l-1.83 175.28c1.97,29.54 0.52,19.83 10.38,32.62z"/>
    <path fill="#F0C188" d="M5207.87 143.08c38.2,23.08 246.64,11.91 292.9,11.1 70.62,-1.25 245.7,10.6 301.75,-8.9 11.58,-52.81 12.5,-214.52 -4.51,-258.18 -41.1,-5.56 -530.08,-22.82 -594.09,4.91l590.87 0.68 -1.67 250.8 -585.25 -0.41z"/>
    <path fill="#F0C188" d="M4567.66 143.3c36.84,20.15 88.69,12.15 137.12,11.34 52.28,-0.87 104.63,0.47 156.95,-0.25 78.82,-1.08 225.43,8.75 294.13,-3.79 24.21,-47.96 24.52,-214.85 4.88,-264.77 -27.88,-4.81 -527.28,-15.61 -578.05,-1.11 -3.03,0.86 -6.58,3.36 -8.95,4.21 -2.38,0.87 -5.73,3.34 -8.58,5.05l592.06 -4.46 -1.73 254.17 -587.83 -0.39z"/>
    <path fill="#F0C188" d="M7070.78 144.09l-586.48 -2.29 -2.47 -250.87 591.81 -0.23c-17.41,-8.95 18.04,-3.37 -25.88,-9.8l-570.07 3.66c-17.73,61.31 -14.41,197.96 0.32,260.72 49.24,17.52 228.46,11.41 289.65,9.05 52.59,-2.03 260.97,13.81 303.12,-10.24z"/>
    <path fill="#F0C188" d="M7606.84 8050.78c43.63,13.57 534.67,12.96 591.58,2.3l0.76 -251.03c-55.39,-9.81 -550.23,-9.62 -590.95,2.16l-1.39 246.57z"/>
    <path fill="#F0C188" d="M1863.08 8053.91c65.33,10.96 544.68,12.45 592.4,-3.36l1.02 -246.67 -590.46 -5.87 -2.96 255.9z"/>
    <polygon fill="#F0C188" points="6329.06,8057.29 6922.3,8057.48 6923.05,7799.69 6333.12,7797.57 "/>
    <polygon fill="#F0C188" points="4414.67,8057.08 5007.49,8057.88 5008.75,7798.67 4420.38,7797.91 "/>
    <polygon fill="#F0C188" points="5053.56,8056.65 5645.95,8057.66 5646.04,7798.31 5058.36,7798.35 "/>
    <polygon fill="#F0C188" points="3777.92,8055.2 4369.69,8057.96 4369.64,7797.52 3781.46,7798.28 "/>
    <path fill="#F0C188" d="M8881.6 8053.19c57.5,10.67 549.38,11.42 592.26,-2.11l0.72 -247.34 -590.24 -5.26 -2.74 254.71z"/>
    <path fill="#F0C188" d="M9520.93 8053.23c54.94,10.73 550.32,10.89 592.24,-2.46l0.72 -247.66 -589.89 -4.44 -3.07 254.56z"/>
    <polygon fill="#F0C188" points="5691.75,8057.02 6283.41,8057.7 6284.22,7800.18 5696.73,7797.79 "/>
    <polygon fill="#F0C188" points="3139.29,8055.16 3731.38,8058.03 3731.75,7799.19 3142.96,7798.1 "/>
    <polygon fill="#F0C188" points="585.68,8053.38 1178.55,8058.12 1177.94,7798.17 588.97,7798.14 "/>
    <polygon fill="#F0C188" points="2501.64,8053.99 3093.11,8058.03 3093.33,7797.64 2505.49,7798.37 "/>
    <polygon fill="#F0C188" points="6968.34,8057.47 7560.25,8057.5 7561.22,7801.26 6974.46,7797.71 "/>
    <polygon fill="#F0C188" points="1225.01,8053.24 1815.23,8058.29 1816.02,7797.75 1226.62,7798.22 "/>
    <polygon fill="#F0C188" points="-52.16,8057.92 541.3,8057.63 540.47,7802.92 -45.34,7798.02 "/>
    <polygon fill="#F0C188" points="8243.72,8052.43 8835.34,8058.01 8835.05,7798.1 8246.51,7798.94 "/>
    <polygon fill="#F0C188" points="-691.08,8052.03 -97.96,8057.7 -97.77,7802.18 -689.62,7798.54 "/>
    <g id="_869246721072">
     <g>
      <rect fill="white" stroke="#205969" stroke-width="7.62" stroke-miterlimit="22.9256" transform="matrix(1.06368E-14 -1.12113 1.40854 1.04136E-13 2319.05 3123.22)" width="1191.72" height="1244.26" rx="33.67" ry="33.67"/>
      <rect fill="white" stroke="#205969" stroke-width="7.62" stroke-miterlimit="22.9256" x="3576.56" y="1882.2" width="429.62" height="1154.6" rx="57.48" ry="50.89"/>
      <rect fill="white" stroke="#205969" stroke-width="7.62" stroke-miterlimit="22.9256" x="2382.26" y="1881.37" width="1142.42" height="1153.77" rx="62.93" ry="20.94"/>
      <circle fill="#7DD9F0" stroke="#205969" stroke-width="7.62" stroke-miterlimit="22.9256" cx="2949.22" cy="2453.33" r="464.4"/>
     </g>
     <rect fill="white" x="4103.43" y="5155.06" width="4553.5" height="153.17"/>
     <g>
      <rect fill="#C8F4FF" stroke="#205969" stroke-width="20" stroke-miterlimit="22.9256" x="4355.06" y="2073.41" width="2034.68" height="3071.49"/>
      <rect fill="#C8F4FF" stroke="#205969" stroke-width="20" stroke-miterlimit="22.9256" x="6373.89" y="2075.61" width="2034.68" height="3071.49"/>
      <rect fill="white" x="6320.74" y="2085.99" width="42.34" height="3048.75"/>
      <rect fill="white" x="8353.45" y="2085.32" width="42.34" height="3048.75"/>
     </g>
    </g>
   </g>
  </g>
  <polygon fill="none" points="-0,-0.01 9789.58,-0.01 9789.58,7937.49 -0,7937.49 "/>
 </g>
</svg>
