<?xml version="1.0" encoding="UTF-8"?>
<!DOCTYPE svg PUBLIC "-//W3C//DTD SVG 1.1//EN" "http://www.w3.org/Graphics/SVG/1.1/DTD/svg11.dtd">
<!-- Creator: CorelDRAW 2017 -->
<svg xmlns="http://www.w3.org/2000/svg" xml:space="preserve" width="97.8958mm" height="79.3748mm" version="1.1" shape-rendering="geometricPrecision" text-rendering="geometricPrecision" image-rendering="optimizeQuality" fill-rule="evenodd" clip-rule="evenodd"
viewBox="0 0 9789.58 7937.48"
 xmlns:xlink="http://www.w3.org/1999/xlink">
 <defs>
   <clipPath id="id0">
    <path d="M-0 -0.01l9789.58 0 0 7937.5 -9789.58 0 0 -7937.5z"/>
   </clipPath>
 </defs>
 <g id="Слой_x0020_1">
  <metadata id="CorelCorpID_0Corel-Layer"/>
  <rect fill="none" x="661.46" y="1685.39" width="7789.34" height="4995.33"/>
  <g>
  </g>
  <g clip-path="url(#id0)">
   <g>
    <path fill="#F0C188" d="M8021.59 1501.26c43.58,13.56 534.01,12.94 590.86,2.3l0.75 -250.73c-55.32,-9.79 -549.56,-9.6 -590.22,2.16l-1.39 246.27z"/>
    <polygon fill="#F0C188" points="3219.87,1200.26 3810.38,1202.19 3811.03,940.38 3218.24,941.03 "/>
    <polygon fill="#F0C188" points="1943.15,1200.29 2535.43,1201.42 2535.57,943.86 2448.34,940.39 1942.93,941.59 "/>
    <polygon fill="#F0C188" points="8021.11,893.41 8614.55,894.8 8613.32,634.1 8022.34,634.59 "/>
    <polygon fill="#F0C188" points="6405.97,1201.84 6998.56,1202.09 6998.53,943.61 6406.06,941.11 "/>
    <polygon fill="#F0C188" points="8657.41,894.93 9249.71,895.09 9249.07,634.5 8659.49,635.03 "/>
    <polygon fill="#F0C188" points="1305.79,1198.5 1898.95,1202.08 1898.33,941.74 1304.97,941.14 "/>
    <polygon fill="#F0C188" points="-608.6,1201.29 -14.93,1201.55 -13.94,944.4 -608.6,941.74 "/>
    <path fill="#F0C188" d="M1009.78 890.8l589.54 3.48 3.01 -252.39c-50.86,-14.39 -533.26,-13.63 -594.12,-2.29l1.57 251.2z"/>
    <polygon fill="#F0C188" points="2284.47,894.04 2877.89,894.87 2876.92,635.32 2287.58,634.98 "/>
    <path fill="#F0C188" d="M-266.04 890.68l590.61 3.68 2.33 -254.14c-61.33,-11.09 -541.94,-12.28 -593.77,1.29l0.83 249.17z"/>
    <polygon fill="#F0C188" points="2581.11,1201.03 3174.49,1201.61 3173.42,945.08 2580.29,941.11 "/>
    <polygon fill="#F0C188" points="7680.74,1197.14 8272.84,1202.12 8273.68,941.59 7678.85,941.71 "/>
    <polygon fill="#F0C188" points="372.19,894.59 963.53,894.76 963.46,635.37 374.6,635.09 "/>
    <polygon fill="#F0C188" points="8956.43,1197.79 9548.66,1201.81 9548.83,942.49 8954.36,941.13 "/>
    <polygon fill="#F0C188" points="3559.38,669.91 3560.38,892.96 4147.1,895.18 4152.7,634.34 3559.66,635.03 "/>
    <polygon fill="#F0C188" points="4835.74,893.34 5023.75,895.04 5034.95,894.89 5422.49,894.32 5427.37,636.84 5281.3,634.59 5158.12,634.9 4834.79,635.06 "/>
    <path fill="#F0C188" d="M2284.86 1504.39c65.25,10.94 544.01,12.44 591.68,-3.36l1.01 -246.37 -589.73 -5.86 -2.96 255.59z"/>
    <polygon fill="#F0C188" points="6745.37,1507.77 7337.89,1507.96 7338.64,1250.48 6749.43,1248.36 "/>
    <polygon fill="#F0C188" points="4833.33,1507.55 5425.42,1508.35 5426.68,1249.46 4839.03,1248.7 "/>
    <polygon fill="#F0C188" points="8318.68,1197.68 8910.61,1202 8911.13,943.14 8317.59,941.39 "/>
    <polygon fill="#F0C188" points="668.56,1199.42 1261.09,1201.67 1260.65,944.99 666.98,941.32 "/>
    <polygon fill="#F0C188" points="4197.88,894.53 4783.93,894.41 4789.85,635.78 4197.93,635.09 "/>
    <polygon fill="#F0C188" points="3857.04,1200.72 4448.49,1201.5 4449.99,947.23 3855.51,940.64 "/>
    <polygon fill="#F0C188" points="6746.14,894.51 7335.28,894.41 7338.98,638.32 6746.25,634.79 "/>
    <polygon fill="#F0C188" points="9593.52,1037.85 9595.22,1198.14 10185.73,1202.09 10186.98,943.19 9593.26,942.59 "/>
    <polygon fill="#F0C188" points="5471.43,1507.13 6063.1,1508.13 6063.19,1249.1 5476.23,1249.14 "/>
    <polygon fill="#F0C188" points="4197.36,1505.68 4788.41,1508.43 4788.35,1248.31 4200.89,1249.07 "/>
    <polygon fill="#F0C188" points="5473.71,893.43 6059.55,894.33 6064.84,635.79 5472.97,634.94 "/>
    <path fill="#F0C188" d="M9294.79 1503.67c57.44,10.66 548.71,11.4 591.53,-2.11l0.73 -247.03 -589.53 -5.26 -2.73 254.4z"/>
    <path fill="#F0C188" d="M9295.06 891.25l591.02 3.08 1.35 -252c-198.18,-12.06 -393.76,-7.85 -593.07,-5.61l0.7 254.53z"/>
    <polygon fill="#F0C188" points="31.08,1198.14 622.84,1201.77 622.75,945.58 29.83,941.03 "/>
    <polygon fill="#F0C188" points="6108.85,1507.5 6699.78,1508.18 6700.59,1250.97 6113.82,1248.58 "/>
    <polygon fill="#F0C188" points="3559.51,1505.64 4150.87,1508.5 4151.24,1249.98 3563.17,1248.89 "/>
    <polygon fill="#F0C188" points="1009.03,1503.86 1601.17,1508.6 1600.56,1248.96 1012.31,1248.93 "/>
    <polygon fill="#F0C188" points="1647.87,891.22 2235.47,894.06 2238.59,635.55 1646.07,635.12 "/>
    <polygon fill="#F0C188" points="6110.31,893.28 6697.01,893.92 6701.73,637.06 6109.94,634.9 "/>
    <polygon fill="#F0C188" points="2922.64,1504.47 3513.38,1508.5 3513.61,1248.43 2926.49,1249.16 "/>
    <polygon fill="#F0C188" points="7384.92,894.28 7972.44,894.04 7977.1,639.03 7385.96,634.49 "/>
    <polygon fill="#F0C188" points="7383.87,1507.94 7975.06,1507.97 7976.03,1252.04 7389.98,1248.5 "/>
    <polygon fill="#F0C188" points="1647.58,1503.72 2237.07,1508.76 2237.85,1248.54 1649.18,1249.02 "/>
    <polygon fill="#F0C188" points="2923.25,892.32 3508.61,894.22 3514.49,634.88 2922.31,637.26 "/>
    <polygon fill="#F0C188" points="371.97,1508.39 964.69,1508.11 963.87,1253.7 378.78,1248.81 "/>
    <polygon fill="#F0C188" points="8657.69,1502.91 9248.59,1508.49 9248.3,1248.89 8660.48,1249.74 "/>
    <polygon fill="#F0C188" points="-266.17,1502.51 326.22,1508.18 326.41,1252.97 -264.72,1249.33 "/>
    <polygon fill="#F0C188" points="7633.21,1197.64 7636.07,944.56 7044.98,944.8 7047.44,1195.36 "/>
    <polygon fill="#F0C188" points="5133.15,1196.85 5720.26,1197.25 5721.99,943.38 5130.65,947.84 "/>
    <polygon fill="#F0C188" points="4499.14,1197.48 5083.23,1197.44 5082.83,945.92 4496.41,944.56 "/>
    <polygon fill="#F0C188" points="5772.58,1196.63 6357.11,1197.04 6358.78,946.55 5768.63,945.87 "/>
    <path fill="#F0C188" d="M4499.14 1197.48l-2.73 -252.92 586.42 1.36 0.4 251.52 -584.09 0.04zm0 0c29.62,18.29 530.81,21.32 582.84,5.16 33.99,-51.62 19.07,-191.23 12.42,-256.77 -57.85,-21.3 -234.09,-10.87 -305.8,-12.27 -62.13,-1.2 -261.24,-16.21 -298.83,16.1 -6.22,5.17 -1.3,9.31 0.82,40.13l-1.82 175.07c1.97,29.49 0.52,19.8 10.37,32.58z"/>
    <path fill="#F0C188" d="M5772.58 1196.63c38.15,23.05 246.33,11.9 292.54,11.09 70.53,-1.25 245.4,10.59 301.38,-8.89 11.56,-52.74 12.49,-214.26 -4.51,-257.86 -41.05,-5.56 -529.42,-22.79 -593.36,4.9l590.15 0.68 -1.67 250.49 -584.53 -0.41z"/>
    <path fill="#F0C188" d="M5133.15 1196.85c36.8,20.13 88.59,12.14 136.95,11.33 52.22,-0.87 104.51,0.47 156.76,-0.25 78.72,-1.08 225.15,8.74 293.77,-3.79 24.19,-47.89 24.49,-214.58 4.88,-264.44 -27.86,-4.81 -526.64,-15.59 -577.35,-1.11 -3.03,0.85 -6.57,3.35 -8.94,4.21 -2.38,0.87 -5.72,3.33 -8.57,5.04l591.34 -4.46 -1.73 253.87 -587.11 -0.4z"/>
    <path fill="#F0C188" d="M7633.21 1197.64l-585.77 -2.28 -2.46 -250.56 591.09 -0.24c-17.4,-8.93 18.01,-3.36 -25.86,-9.79l-569.37 3.66c-17.71,61.23 -14.39,197.72 0.32,260.4 49.19,17.5 228.18,11.4 289.29,9.04 52.53,-2.03 260.66,13.79 302.76,-10.23z"/>
    <path fill="#F0C188" d="M7662.82 2411.98c43.58,13.55 534.02,12.94 590.86,2.3l0.75 -250.73c-55.32,-9.79 -549.55,-9.6 -590.22,2.16l-1.39 246.27z"/>
    <polygon fill="#F0C188" points="2861.1,2110.98 3451.62,2112.91 3452.27,1851.1 2859.48,1851.75 "/>
    <polygon fill="#F0C188" points="1584.38,2111.01 2176.66,2112.13 2176.8,1854.58 2089.57,1851.11 1584.16,1852.31 "/>
    <polygon fill="#F0C188" points="7662.35,1804.12 8255.78,1805.52 8254.55,1544.82 7663.58,1545.3 "/>
    <polygon fill="#F0C188" points="6047.2,2112.56 6639.79,2112.81 6639.77,1854.33 6047.29,1851.83 "/>
    <polygon fill="#F0C188" points="8298.65,1805.65 8890.95,1805.81 8890.3,1545.22 8300.72,1545.75 "/>
    <polygon fill="#F0C188" points="947.02,2109.21 1540.19,2112.8 1539.56,1852.46 946.2,1851.86 "/>
    <path fill="#F0C188" d="M651.01 1801.52l589.54 3.47 3.02 -252.38c-50.87,-14.39 -533.27,-13.63 -594.13,-2.29l1.57 251.2z"/>
    <polygon fill="#F0C188" points="1925.71,1804.76 2519.12,1805.59 2518.15,1546.04 1928.81,1545.7 "/>
    <path fill="#F0C188" d="M-624.81 1801.4l590.61 3.68 2.33 -254.14c-61.33,-11.09 -541.94,-12.28 -593.77,1.29l0.83 249.17z"/>
    <polygon fill="#F0C188" points="2222.34,2111.75 2815.73,2112.32 2814.65,1855.8 2221.52,1851.83 "/>
    <polygon fill="#F0C188" points="7321.98,2107.86 7914.08,2112.84 7914.91,1852.31 7320.08,1852.43 "/>
    <polygon fill="#F0C188" points="13.43,1805.31 604.76,1805.48 604.7,1546.09 15.83,1545.81 "/>
    <polygon fill="#F0C188" points="8597.66,2108.51 9189.9,2112.53 9190.07,1853.21 8595.6,1851.85 "/>
    <polygon fill="#F0C188" points="3200.61,1580.63 3201.62,1803.68 3788.34,1805.9 3793.93,1545.06 3200.89,1545.75 "/>
    <polygon fill="#F0C188" points="4476.97,1804.06 4664.99,1805.75 4676.19,1805.61 5063.72,1805.03 5068.6,1547.56 4922.54,1545.3 4799.36,1545.62 4476.02,1545.78 "/>
    <path fill="#F0C188" d="M1926.09 2415.1c65.25,10.95 544.02,12.44 591.68,-3.35l1.02 -246.37 -589.74 -5.86 -2.96 255.58z"/>
    <polygon fill="#F0C188" points="6386.61,2418.49 6979.12,2418.68 6979.87,2161.2 6390.67,2159.08 "/>
    <polygon fill="#F0C188" points="4474.57,2418.27 5066.66,2419.07 5067.91,2160.18 4480.27,2159.42 "/>
    <polygon fill="#F0C188" points="7959.92,2108.4 8551.85,2112.72 8552.36,1853.86 7958.82,1852.11 "/>
    <polygon fill="#F0C188" points="309.8,2110.14 902.32,2112.39 901.89,1855.7 308.21,1852.04 "/>
    <polygon fill="#F0C188" points="3839.11,1805.25 4425.17,1805.13 4431.08,1546.5 3839.16,1545.81 "/>
    <path fill="#F0C188" d="M9575.21 1801.67l584.1 3.6c16.93,-61.73 9.12,-191.79 5.09,-259.61l-191.78 0.12 -190.36 0.19 -207.81 1.26 0.76 254.44z"/>
    <polygon fill="#F0C188" points="3498.28,2111.44 4089.72,2112.22 4091.23,1857.94 3496.74,1851.36 "/>
    <polygon fill="#F0C188" points="6387.37,1805.22 6976.51,1805.13 6980.22,1549.04 6387.48,1545.51 "/>
    <polygon fill="#F0C188" points="9234.76,1948.57 9236.45,2108.86 9826.97,2112.81 9828.21,1853.91 9234.49,1853.31 "/>
    <polygon fill="#F0C188" points="5112.67,2417.85 5704.33,2418.85 5704.43,2159.82 5117.47,2159.86 "/>
    <polygon fill="#F0C188" points="3838.59,2416.4 4429.64,2419.15 4429.59,2159.03 3842.13,2159.79 "/>
    <polygon fill="#F0C188" points="5114.94,1804.15 5700.79,1805.05 5706.08,1546.51 5114.2,1545.66 "/>
    <path fill="#F0C188" d="M8936.02 2414.39c57.44,10.66 548.71,11.4 591.53,-2.11l0.73 -247.03 -589.52 -5.26 -2.74 254.4z"/>
    <path fill="#F0C188" d="M9574.57 2414.43c54.87,10.71 549.65,10.87 591.52,-2.46l0.72 -247.36 -589.17 -4.43 -3.07 254.25z"/>
    <path fill="#F0C188" d="M8936.3 1801.97l591.02 3.08 1.35 -252c-198.19,-12.06 -393.77,-7.85 -593.07,-5.61l0.7 254.53z"/>
    <polygon fill="#F0C188" points="-327.68,2108.86 264.08,2112.49 263.98,1856.3 -328.94,1851.75 "/>
    <polygon fill="#F0C188" points="5750.08,2418.21 6341.02,2418.89 6341.83,2161.69 5755.05,2159.3 "/>
    <polygon fill="#F0C188" points="3200.74,2416.35 3792.11,2419.22 3792.48,2160.7 3204.41,2159.61 "/>
    <polygon fill="#F0C188" points="650.26,2414.58 1242.4,2419.31 1241.79,2159.68 653.54,2159.65 "/>
    <polygon fill="#F0C188" points="1289.1,1801.94 1876.71,1804.78 1879.83,1546.27 1287.3,1545.83 "/>
    <polygon fill="#F0C188" points="5751.55,1804 6338.24,1804.64 6342.96,1547.78 5751.18,1545.62 "/>
    <polygon fill="#F0C188" points="2563.87,2415.19 3154.61,2419.22 3154.84,2159.15 2567.72,2159.88 "/>
    <polygon fill="#F0C188" points="7026.15,1804.99 7613.68,1804.76 7618.33,1549.75 7027.19,1545.21 "/>
    <polygon fill="#F0C188" points="7025.1,2418.66 7616.29,2418.69 7617.26,2162.76 7031.21,2159.22 "/>
    <polygon fill="#F0C188" points="1288.81,2414.44 1878.31,2419.48 1879.09,2159.26 1290.41,2159.73 "/>
    <polygon fill="#F0C188" points="2564.48,1803.04 3149.84,1804.94 3155.73,1545.6 2563.54,1547.98 "/>
    <polygon fill="#F0C188" points="13.2,2419.11 605.93,2418.83 605.11,2164.42 20.01,2159.53 "/>
    <polygon fill="#F0C188" points="8298.93,2413.62 8889.82,2419.21 8889.53,2159.61 8301.72,2160.45 "/>
    <polygon fill="#F0C188" points="-624.94,2413.23 -32.54,2418.89 -32.36,2163.69 -623.48,2160.05 "/>
    <polygon fill="#F0C188" points="7274.44,2108.36 7277.3,1855.28 6686.22,1855.51 6688.68,2106.08 "/>
    <polygon fill="#F0C188" points="4774.39,2107.57 5361.49,2107.96 5363.22,1854.1 4771.89,1858.56 "/>
    <polygon fill="#F0C188" points="4140.37,2108.2 4724.46,2108.15 4724.06,1856.64 4137.65,1855.28 "/>
    <polygon fill="#F0C188" points="5413.81,2107.35 5998.35,2107.76 6000.01,1857.27 5409.87,1856.59 "/>
    <path fill="#F0C188" d="M4140.37 2108.2l-2.72 -252.92 586.41 1.36 0.4 251.51 -584.09 0.05zm0 0c29.63,18.29 530.82,21.32 582.85,5.16 33.99,-51.62 19.07,-191.23 12.42,-256.77 -57.85,-21.3 -234.09,-10.87 -305.8,-12.27 -62.14,-1.21 -261.24,-16.21 -298.83,16.1 -6.23,5.17 -1.31,9.31 0.82,40.13l-1.83 175.07c1.97,29.49 0.52,19.8 10.37,32.58z"/>
    <path fill="#F0C188" d="M5413.81 2107.35c38.15,23.05 246.34,11.9 292.55,11.09 70.53,-1.25 245.39,10.59 301.38,-8.89 11.56,-52.74 12.48,-214.26 -4.51,-257.87 -41.05,-5.55 -529.43,-22.78 -593.36,4.91l590.14 0.68 -1.66 250.49 -584.54 -0.41z"/>
    <path fill="#F0C188" d="M4774.39 2107.57c36.79,20.13 88.58,12.14 136.95,11.33 52.21,-0.87 104.5,0.47 156.76,-0.25 78.71,-1.08 225.15,8.74 293.76,-3.79 24.19,-47.9 24.49,-214.58 4.88,-264.44 -27.85,-4.81 -526.64,-15.59 -577.34,-1.11 -3.03,0.85 -6.58,3.35 -8.94,4.21 -2.38,0.87 -5.73,3.32 -8.57,5.04l591.33 -4.46 -1.73 253.86 -587.1 -0.39z"/>
    <path fill="#F0C188" d="M7274.44 2108.36l-585.76 -2.28 -2.46 -250.57 591.08 -0.23c-17.39,-8.93 18.01,-3.36 -25.86,-9.79l-569.36 3.65c-17.71,61.24 -14.39,197.73 0.31,260.41 49.19,17.5 228.18,11.4 289.3,9.03 52.53,-2.02 260.66,13.8 302.75,-10.22z"/>
    <path fill="#F0C188" d="M8608.6 3318.91c43.58,13.55 534.02,12.94 590.86,2.3l0.75 -250.73c-55.32,-9.79 -549.55,-9.6 -590.22,2.16l-1.39 246.27z"/>
    <polygon fill="#F0C188" points="3806.88,3017.91 4397.4,3019.84 4398.04,2758.03 3805.25,2758.68 "/>
    <polygon fill="#F0C188" points="2530.16,3017.94 3122.44,3019.06 3122.58,2761.51 3035.35,2758.04 2529.94,2759.24 "/>
    <polygon fill="#F0C188" points="8608.12,2711.05 9201.56,2712.45 9200.33,2451.75 8609.35,2452.23 "/>
    <polygon fill="#F0C188" points="6992.98,3019.48 7585.57,3019.74 7585.55,2761.26 6993.07,2758.76 "/>
    <polygon fill="#F0C188" points="9244.42,2712.58 9836.73,2712.74 9836.08,2452.15 9246.5,2452.68 "/>
    <polygon fill="#F0C188" points="1892.8,3016.14 2485.96,3019.73 2485.34,2759.39 1891.98,2758.79 "/>
    <polygon fill="#F0C188" points="-21.59,3018.94 572.08,3019.2 573.08,2762.05 -21.59,2759.39 "/>
    <path fill="#F0C188" d="M1596.79 2708.45l589.54 3.47 3.01 -252.38c-50.86,-14.39 -533.26,-13.63 -594.12,-2.29l1.57 251.2z"/>
    <polygon fill="#F0C188" points="2871.48,2711.69 3464.9,2712.52 3463.93,2452.97 2874.59,2452.63 "/>
    <path fill="#F0C188" d="M320.97 2708.32l590.61 3.69 2.33 -254.14c-61.33,-11.09 -541.94,-12.28 -593.77,1.29l0.83 249.16z"/>
    <polygon fill="#F0C188" points="3168.12,3018.68 3761.5,3019.25 3760.43,2762.73 3167.3,2758.76 "/>
    <polygon fill="#F0C188" points="8267.75,3014.79 8859.86,3019.77 8860.69,2759.24 8265.86,2759.36 "/>
    <polygon fill="#F0C188" points="959.21,2712.24 1550.54,2712.41 1550.47,2453.02 961.61,2452.74 "/>
    <polygon fill="#F0C188" points="9543.44,3015.44 10135.67,3019.46 10135.85,2760.14 9541.38,2758.78 "/>
    <polygon fill="#F0C188" points="4146.39,2487.56 4147.39,2710.61 4734.11,2712.83 4739.71,2451.99 4146.67,2452.68 "/>
    <polygon fill="#F0C188" points="5422.75,2710.99 5610.76,2712.68 5621.96,2712.53 6009.5,2711.96 6014.38,2454.49 5868.31,2452.23 5745.13,2452.55 5421.8,2452.71 "/>
    <path fill="#F0C188" d="M2871.87 3322.03c65.25,10.95 544.01,12.44 591.68,-3.35l1.02 -246.37 -589.74 -5.86 -2.96 255.58z"/>
    <polygon fill="#F0C188" points="7332.38,3325.42 7924.9,3325.61 7925.65,3068.13 7336.44,3066.01 "/>
    <polygon fill="#F0C188" points="5420.34,3325.2 6012.43,3326 6013.69,3067.11 5426.04,3066.35 "/>
    <polygon fill="#F0C188" points="8905.69,3015.33 9497.63,3019.65 9498.14,2760.79 8904.6,2759.04 "/>
    <polygon fill="#F0C188" points="1255.57,3017.07 1848.1,3019.32 1847.66,2762.63 1253.99,2758.97 "/>
    <polygon fill="#F0C188" points="4784.89,2712.18 5370.95,2712.06 5376.86,2453.43 4784.94,2452.74 "/>
    <polygon fill="#F0C188" points="4444.05,3018.37 5035.5,3019.15 5037,2764.87 4442.52,2758.29 "/>
    <polygon fill="#F0C188" points="7333.15,2712.15 7922.29,2712.06 7925.99,2455.97 7333.26,2452.44 "/>
    <polygon fill="#F0C188" points="6058.44,3324.78 6650.11,3325.78 6650.2,3066.75 6063.24,3066.79 "/>
    <polygon fill="#F0C188" points="4784.37,3323.32 5375.42,3326.08 5375.36,3065.96 4787.9,3066.72 "/>
    <polygon fill="#F0C188" points="6060.72,2711.08 6646.57,2711.98 6651.86,2453.44 6059.98,2452.59 "/>
    <polygon fill="#F0C188" points="618.09,3015.79 1209.85,3019.42 1209.76,2763.23 616.84,2758.68 "/>
    <polygon fill="#F0C188" points="6695.86,3325.14 7286.8,3325.82 7287.6,3068.62 6700.83,3066.23 "/>
    <polygon fill="#F0C188" points="4146.52,3323.28 4737.88,3326.15 4738.25,3067.63 4150.19,3066.54 "/>
    <polygon fill="#F0C188" points="1596.04,3321.51 2188.18,3326.24 2187.57,3066.61 1599.32,3066.58 "/>
    <polygon fill="#F0C188" points="2234.88,2708.87 2822.48,2711.71 2825.61,2453.2 2233.08,2452.76 "/>
    <polygon fill="#F0C188" points="6697.32,2710.93 7284.02,2711.57 7288.74,2454.71 6696.95,2452.55 "/>
    <polygon fill="#F0C188" points="3509.65,3322.12 4100.39,3326.15 4100.62,3066.08 3513.5,3066.81 "/>
    <polygon fill="#F0C188" points="7971.93,2711.92 8559.45,2711.69 8564.11,2456.68 7972.97,2452.14 "/>
    <polygon fill="#F0C188" points="7970.88,3325.59 8562.07,3325.62 8563.04,3069.69 7976.99,3066.15 "/>
    <polygon fill="#F0C188" points="2234.59,3321.37 2824.08,3326.41 2824.86,3066.19 2236.19,3066.66 "/>
    <polygon fill="#F0C188" points="3510.26,2709.97 4095.62,2711.87 4101.5,2452.53 3509.32,2454.91 "/>
    <polygon fill="#F0C188" points="958.98,3326.04 1551.7,3325.76 1550.88,3071.35 965.79,3066.46 "/>
    <polygon fill="#F0C188" points="9244.7,3320.55 9835.6,3326.14 9835.31,3066.54 9247.49,3067.38 "/>
    <polygon fill="#F0C188" points="320.84,3320.16 913.23,3325.82 913.42,3070.62 322.29,3066.98 "/>
    <polygon fill="#F0C188" points="8220.22,3015.29 8223.08,2762.21 7631.99,2762.44 7634.45,3013.01 "/>
    <polygon fill="#F0C188" points="5720.16,3014.5 6307.27,3014.89 6309,2761.03 5717.66,2765.49 "/>
    <polygon fill="#F0C188" points="5086.15,3015.13 5670.24,3015.08 5669.84,2763.57 5083.42,2762.21 "/>
    <polygon fill="#F0C188" points="6359.59,3014.28 6944.12,3014.69 6945.79,2764.2 6355.65,2763.52 "/>
    <polygon fill="#F0C188" points="-21.59,3325.33 274.37,3325.24 275.01,3071.24 -21.59,3067.95 "/>
    <polygon fill="#F0C188" points="-21.59,2711.83 272.06,2711.39 275.5,2457.98 -21.59,2453.05 "/>
    <path fill="#F0C188" d="M5086.15 3015.13l-2.73 -252.92 586.42 1.36 0.4 251.51 -584.09 0.05zm0 0c29.62,18.29 530.82,21.32 582.84,5.16 33.99,-51.62 19.08,-191.23 12.42,-256.77 -57.85,-21.3 -234.09,-10.87 -305.8,-12.27 -62.13,-1.21 -261.24,-16.21 -298.82,16.1 -6.23,5.17 -1.31,9.31 0.82,40.13l-1.83 175.07c1.97,29.49 0.52,19.8 10.37,32.58z"/>
    <path fill="#F0C188" d="M6359.59 3014.28c38.15,23.05 246.33,11.9 292.54,11.09 70.53,-1.25 245.4,10.59 301.38,-8.89 11.56,-52.74 12.49,-214.26 -4.51,-257.87 -41.05,-5.55 -529.42,-22.78 -593.35,4.91l590.14 0.68 -1.67 250.49 -584.53 -0.41z"/>
    <path fill="#F0C188" d="M5720.16 3014.5c36.8,20.13 88.59,12.14 136.95,11.33 52.22,-0.87 104.51,0.47 156.76,-0.25 78.72,-1.08 225.15,8.73 293.77,-3.79 24.19,-47.9 24.49,-214.58 4.88,-264.44 -27.86,-4.81 -526.64,-15.59 -577.35,-1.11 -3.02,0.85 -6.57,3.35 -8.94,4.21 -2.38,0.87 -5.72,3.32 -8.57,5.04l591.34 -4.46 -1.73 253.86 -587.11 -0.39z"/>
    <path fill="#F0C188" d="M8220.22 3015.29l-585.77 -2.28 -2.46 -250.57 591.09 -0.23c-17.39,-8.93 18.01,-3.37 -25.86,-9.79l-569.37 3.65c-17.71,61.24 -14.39,197.73 0.32,260.41 49.19,17.5 228.18,11.4 289.29,9.03 52.54,-2.02 260.66,13.8 302.76,-10.22z"/>
    <path fill="#F0C188" d="M8249.83 4229.63c43.58,13.55 534.02,12.94 590.86,2.3l0.76 -250.73c-55.33,-9.79 -549.56,-9.6 -590.23,2.16l-1.39 246.27z"/>
    <polygon fill="#F0C188" points="3448.11,3928.63 4038.63,3930.56 4039.28,3668.75 3446.49,3669.4 "/>
    <polygon fill="#F0C188" points="2171.4,3928.66 2763.67,3929.78 2763.82,3672.23 2676.58,3668.76 2171.17,3669.96 "/>
    <polygon fill="#F0C188" points="8249.36,3621.77 8842.79,3623.17 8841.56,3362.46 8250.59,3362.95 "/>
    <polygon fill="#F0C188" points="6634.21,3930.2 7226.81,3930.46 7226.78,3671.98 6634.31,3669.48 "/>
    <polygon fill="#F0C188" points="8885.66,3623.29 9477.96,3623.46 9477.31,3362.87 8887.73,3363.4 "/>
    <polygon fill="#F0C188" points="1534.04,3926.86 2127.2,3930.45 2126.57,3670.11 1533.22,3669.51 "/>
    <polygon fill="#F0C188" points="-380.36,3929.66 213.32,3929.92 214.31,3672.77 -380.36,3670.11 "/>
    <path fill="#F0C188" d="M1238.02 3619.17l589.54 3.47 3.02 -252.38c-50.87,-14.4 -533.27,-13.64 -594.13,-2.3l1.57 251.21z"/>
    <polygon fill="#F0C188" points="2512.72,3622.41 3106.13,3623.24 3105.16,3363.69 2515.83,3363.35 "/>
    <path fill="#F0C188" d="M-37.79 3619.04l590.6 3.68 2.33 -254.13c-61.32,-11.1 -541.94,-12.28 -593.77,1.29l0.84 249.16z"/>
    <polygon fill="#F0C188" points="2809.35,3929.4 3402.74,3929.97 3401.67,3673.45 2808.53,3669.48 "/>
    <polygon fill="#F0C188" points="7908.99,3925.5 8501.09,3930.49 8501.92,3669.96 7907.1,3670.08 "/>
    <polygon fill="#F0C188" points="600.44,3622.95 1191.77,3623.13 1191.71,3363.74 602.85,3363.46 "/>
    <polygon fill="#F0C188" points="9184.67,3926.16 9776.91,3930.18 9777.08,3670.85 9182.61,3669.5 "/>
    <polygon fill="#F0C188" points="3787.62,3398.28 3788.63,3621.33 4375.35,3623.55 4380.94,3362.71 3787.9,3363.4 "/>
    <polygon fill="#F0C188" points="5063.98,3621.71 5252,3623.4 5263.2,3623.25 5650.73,3622.68 5655.61,3365.21 5509.55,3362.95 5386.37,3363.27 5063.03,3363.43 "/>
    <path fill="#F0C188" d="M2513.1 4232.75c65.26,10.95 544.02,12.44 591.68,-3.35l1.02 -246.37 -589.74 -5.86 -2.96 255.58z"/>
    <polygon fill="#F0C188" points="6973.62,4236.14 7566.13,4236.33 7566.88,3978.85 6977.68,3976.73 "/>
    <polygon fill="#F0C188" points="5061.58,4235.92 5653.67,4236.72 5654.92,3977.83 5067.28,3977.07 "/>
    <polygon fill="#F0C188" points="8546.93,3926.05 9138.86,3930.37 9139.38,3671.51 8545.83,3669.75 "/>
    <polygon fill="#F0C188" points="896.81,3927.79 1489.33,3930.04 1488.9,3673.35 895.22,3669.69 "/>
    <polygon fill="#F0C188" points="4426.12,3622.9 5012.18,3622.78 5018.09,3364.15 4426.17,3363.46 "/>
    <polygon fill="#F0C188" points="4085.29,3929.09 4676.73,3929.86 4678.24,3675.59 4083.75,3669.01 "/>
    <polygon fill="#F0C188" points="6974.38,3622.87 7563.52,3622.78 7567.23,3366.69 6974.49,3363.16 "/>
    <polygon fill="#F0C188" points="9821.77,3766.22 9823.46,3926.51 10413.98,3930.46 10415.22,3671.56 9821.5,3670.96 "/>
    <polygon fill="#F0C188" points="5699.68,4235.5 6291.34,4236.5 6291.44,3977.46 5704.48,3977.51 "/>
    <polygon fill="#F0C188" points="4425.61,4234.04 5016.65,4236.8 5016.6,3976.68 4429.14,3977.44 "/>
    <polygon fill="#F0C188" points="5701.95,3621.8 6287.8,3622.7 6293.09,3364.16 5701.21,3363.31 "/>
    <path fill="#F0C188" d="M9523.03 4232.03c57.44,10.66 548.71,11.41 591.54,-2.1l0.72 -247.03 -589.52 -5.26 -2.74 254.39z"/>
    <path fill="#F0C188" d="M9523.31 3619.61l591.02 3.09 1.35 -252.01c-198.19,-12.06 -393.76,-7.85 -593.07,-5.6l0.7 254.52z"/>
    <polygon fill="#F0C188" points="259.33,3926.51 851.09,3930.14 850.99,3673.95 258.07,3669.4 "/>
    <polygon fill="#F0C188" points="6337.09,4235.86 6928.03,4236.54 6928.84,3979.34 6342.06,3976.95 "/>
    <polygon fill="#F0C188" points="3787.76,4234 4379.12,4236.87 4379.49,3978.35 3791.42,3977.26 "/>
    <polygon fill="#F0C188" points="1237.27,4232.22 1829.41,4236.96 1828.8,3977.33 1240.55,3977.3 "/>
    <polygon fill="#F0C188" points="1876.11,3619.59 2463.72,3622.43 2466.84,3363.92 1874.31,3363.48 "/>
    <polygon fill="#F0C188" points="6338.56,3621.65 6925.25,3622.29 6929.97,3365.42 6338.19,3363.27 "/>
    <polygon fill="#F0C188" points="3150.88,4232.84 3741.63,4236.87 3741.85,3976.8 3154.73,3977.53 "/>
    <polygon fill="#F0C188" points="7613.16,3622.64 8200.69,3622.41 8205.34,3367.39 7614.2,3362.86 "/>
    <polygon fill="#F0C188" points="7612.12,4236.31 8203.31,4236.34 8204.27,3980.41 7618.23,3976.87 "/>
    <polygon fill="#F0C188" points="1875.82,4232.09 2465.32,4237.13 2466.1,3976.91 1877.42,3977.38 "/>
    <polygon fill="#F0C188" points="3151.49,3620.69 3736.85,3622.59 3742.74,3363.25 3150.55,3365.63 "/>
    <polygon fill="#F0C188" points="600.21,4236.76 1192.94,4236.47 1192.12,3982.07 607.02,3977.18 "/>
    <polygon fill="#F0C188" points="8885.94,4231.27 9476.84,4236.86 9476.54,3977.26 8888.73,3978.1 "/>
    <polygon fill="#F0C188" points="-37.93,4230.88 554.47,4236.54 554.65,3981.33 -36.47,3977.7 "/>
    <polygon fill="#F0C188" points="7861.45,3926.01 7864.31,3672.93 7273.23,3673.16 7275.69,3923.73 "/>
    <polygon fill="#F0C188" points="5361.4,3925.22 5948.5,3925.61 5950.23,3671.75 5358.9,3676.2 "/>
    <polygon fill="#F0C188" points="4727.38,3925.84 5311.47,3925.8 5311.07,3674.29 4724.66,3672.93 "/>
    <polygon fill="#F0C188" points="6000.82,3925 6585.36,3925.41 6587.02,3674.91 5996.88,3674.24 "/>
    <path fill="#F0C188" d="M4727.38 3925.84l-2.72 -252.91 586.41 1.36 0.4 251.51 -584.09 0.04zm0 0c29.63,18.3 530.82,21.33 582.85,5.17 33.99,-51.63 19.07,-191.23 12.42,-256.77 -57.85,-21.3 -234.09,-10.87 -305.8,-12.27 -62.13,-1.21 -261.24,-16.21 -298.83,16.1 -6.23,5.17 -1.31,9.31 0.82,40.13l-1.83 175.06c1.97,29.5 0.52,19.8 10.37,32.58z"/>
    <path fill="#F0C188" d="M6000.82 3925c38.16,23.05 246.34,11.9 292.55,11.08 70.53,-1.25 245.4,10.6 301.38,-8.88 11.56,-52.74 12.48,-214.26 -4.51,-257.87 -41.05,-5.55 -529.43,-22.79 -593.36,4.91l590.14 0.67 -1.66 250.5 -584.54 -0.41z"/>
    <path fill="#F0C188" d="M5361.4 3925.22c36.79,20.13 88.58,12.14 136.95,11.33 52.21,-0.87 104.5,0.47 156.76,-0.25 78.72,-1.08 225.15,8.73 293.76,-3.79 24.19,-47.9 24.49,-214.59 4.88,-264.44 -27.85,-4.81 -526.64,-15.59 -577.34,-1.11 -3.03,0.85 -6.57,3.35 -8.94,4.21 -2.38,0.87 -5.73,3.32 -8.57,5.03l591.33 -4.45 -1.73 253.86 -587.1 -0.39z"/>
    <path fill="#F0C188" d="M7861.45 3926.01l-585.76 -2.28 -2.46 -250.57 591.08 -0.23c-17.39,-8.93 18.01,-3.37 -25.85,-9.79l-569.37 3.65c-17.71,61.24 -14.39,197.72 0.31,260.41 49.19,17.49 228.18,11.4 289.3,9.03 52.53,-2.02 260.66,13.8 302.75,-10.22z"/>
    <path fill="#F0C188" d="M7918.26 5150c43.58,13.56 534.01,12.95 590.86,2.3l0.75 -250.73c-55.32,-9.79 -549.56,-9.6 -590.22,2.16l-1.39 246.27z"/>
    <polygon fill="#F0C188" points="3116.54,4849 3707.05,4850.93 3707.7,4589.12 3114.91,4589.78 "/>
    <polygon fill="#F0C188" points="1839.82,4849.03 2432.1,4850.16 2432.24,4592.6 2345.01,4589.14 1839.6,4590.33 "/>
    <polygon fill="#F0C188" points="7917.78,4542.15 8511.22,4543.55 8509.99,4282.84 7919.01,4283.33 "/>
    <polygon fill="#F0C188" points="6302.64,4850.58 6895.23,4850.84 6895.2,4592.36 6302.73,4589.86 "/>
    <polygon fill="#F0C188" points="8554.08,4543.67 9146.38,4543.83 9145.74,4283.25 8556.16,4283.78 "/>
    <polygon fill="#F0C188" points="1202.46,4847.24 1795.62,4850.82 1795,4590.48 1201.64,4589.88 "/>
    <path fill="#F0C188" d="M906.45 4539.54l589.54 3.48 3.01 -252.39c-50.86,-14.39 -533.26,-13.63 -594.12,-2.29l1.57 251.2z"/>
    <polygon fill="#F0C188" points="2181.14,4542.79 2774.55,4543.61 2773.59,4284.06 2184.25,4283.72 "/>
    <path fill="#F0C188" d="M-369.37 4539.42l590.61 3.68 2.33 -254.14c-61.33,-11.09 -541.94,-12.27 -593.77,1.29l0.83 249.17z"/>
    <polygon fill="#F0C188" points="2477.78,4849.78 3071.16,4850.35 3070.09,4593.82 2476.96,4589.86 "/>
    <polygon fill="#F0C188" points="7577.41,4845.88 8169.51,4850.86 8170.35,4590.33 7575.52,4590.45 "/>
    <polygon fill="#F0C188" points="268.86,4543.33 860.2,4543.51 860.13,4284.12 271.27,4283.83 "/>
    <polygon fill="#F0C188" points="8853.1,4846.53 9445.33,4850.55 9445.5,4591.23 8851.03,4589.87 "/>
    <polygon fill="#F0C188" points="3456.05,4318.65 3457.05,4541.7 4043.77,4543.93 4049.37,4283.08 3456.33,4283.78 "/>
    <polygon fill="#F0C188" points="4732.41,4542.08 4920.42,4543.78 4931.62,4543.63 5319.16,4543.06 5324.04,4285.58 5177.97,4283.33 5054.79,4283.64 4731.46,4283.8 "/>
    <path fill="#F0C188" d="M2181.53 5153.13c65.25,10.94 544.01,12.44 591.68,-3.36l1.01 -246.36 -589.73 -5.87 -2.96 255.59z"/>
    <polygon fill="#F0C188" points="6642.04,5156.51 7234.56,5156.7 7235.31,4899.22 6646.1,4897.11 "/>
    <polygon fill="#F0C188" points="4730,5156.29 5322.09,5157.09 5323.35,4898.21 4735.7,4897.45 "/>
    <polygon fill="#F0C188" points="8215.35,4846.42 8807.28,4850.74 8807.8,4591.88 8214.26,4590.13 "/>
    <polygon fill="#F0C188" points="565.23,4848.16 1157.76,4850.42 1157.32,4593.73 563.65,4590.06 "/>
    <polygon fill="#F0C188" points="4094.55,4543.28 4680.6,4543.15 4686.52,4284.52 4094.6,4283.83 "/>
    <polygon fill="#F0C188" points="3753.71,4849.46 4345.15,4850.24 4346.66,4595.97 3752.18,4589.38 "/>
    <polygon fill="#F0C188" points="6642.81,4543.25 7231.95,4543.15 7235.65,4287.06 6642.92,4283.53 "/>
    <polygon fill="#F0C188" points="9490.19,4686.59 9491.89,4846.88 10082.4,4850.84 10083.64,4591.93 9489.93,4591.34 "/>
    <polygon fill="#F0C188" points="5368.1,5155.87 5959.77,5156.88 5959.86,4897.84 5372.9,4897.88 "/>
    <polygon fill="#F0C188" points="4094.03,5154.42 4685.07,5157.18 4685.02,4897.05 4097.56,4897.81 "/>
    <polygon fill="#F0C188" points="5370.38,4542.18 5956.22,4543.07 5961.51,4284.54 5369.64,4283.68 "/>
    <path fill="#F0C188" d="M9191.46 5152.41c57.43,10.66 548.71,11.41 591.53,-2.11l0.73 -247.03 -589.53 -5.25 -2.73 254.39z"/>
    <path fill="#F0C188" d="M9191.73 4539.99l591.02 3.08 1.35 -252c-198.18,-12.06 -393.76,-7.85 -593.07,-5.61l0.7 254.53z"/>
    <polygon fill="#F0C188" points="-72.25,4846.88 519.51,4850.51 519.42,4594.33 -73.5,4589.78 "/>
    <polygon fill="#F0C188" points="6005.52,5156.24 6596.45,5156.92 6597.26,4899.71 6010.49,4897.32 "/>
    <polygon fill="#F0C188" points="3456.18,5154.38 4047.54,5157.24 4047.91,4898.72 3459.84,4897.64 "/>
    <polygon fill="#F0C188" points="905.7,5152.6 1497.84,5157.34 1497.23,4897.7 908.97,4897.68 "/>
    <polygon fill="#F0C188" points="1544.54,4539.96 2132.14,4542.8 2135.26,4284.29 1542.74,4283.86 "/>
    <polygon fill="#F0C188" points="6006.98,4542.03 6593.68,4542.66 6598.4,4285.8 6006.61,4283.64 "/>
    <polygon fill="#F0C188" points="2819.31,5153.21 3410.05,5157.24 3410.28,4897.17 2823.16,4897.91 "/>
    <polygon fill="#F0C188" points="7281.58,4543.02 7869.11,4542.79 7873.77,4287.77 7282.63,4283.23 "/>
    <polygon fill="#F0C188" points="7280.54,5156.69 7871.73,5156.71 7872.7,4900.79 7286.65,4897.24 "/>
    <polygon fill="#F0C188" points="1544.25,5152.46 2133.74,5157.5 2134.52,4897.28 1545.85,4897.76 "/>
    <polygon fill="#F0C188" points="2819.92,4541.06 3405.28,4542.96 3411.16,4283.63 2818.98,4286 "/>
    <polygon fill="#F0C188" points="268.64,5157.13 861.36,5156.85 860.54,4902.44 275.45,4897.55 "/>
    <polygon fill="#F0C188" points="8554.36,5151.65 9145.26,5157.23 9144.97,4897.64 8557.15,4898.48 "/>
    <polygon fill="#F0C188" points="-369.5,5151.25 222.89,5156.92 223.08,4901.71 -368.05,4898.07 "/>
    <polygon fill="#F0C188" points="7529.88,4846.38 7532.74,4593.31 6941.65,4593.54 6944.11,4844.1 "/>
    <polygon fill="#F0C188" points="5029.82,4845.59 5616.93,4845.99 5618.66,4592.13 5027.32,4596.58 "/>
    <polygon fill="#F0C188" points="4395.81,4846.22 4979.9,4846.18 4979.5,4594.66 4393.08,4593.31 "/>
    <polygon fill="#F0C188" points="5669.25,4845.38 6253.78,4845.78 6255.45,4595.29 5665.3,4594.61 "/>
    <path fill="#F0C188" d="M4395.81 4846.22l-2.73 -252.91 586.42 1.35 0.4 251.52 -584.09 0.04zm0 0c29.62,18.29 530.81,21.32 582.84,5.16 33.99,-51.62 19.07,-191.23 12.42,-256.77 -57.85,-21.29 -234.09,-10.86 -305.8,-12.26 -62.13,-1.21 -261.24,-16.22 -298.83,16.09 -6.22,5.17 -1.3,9.32 0.82,40.13l-1.82 175.07c1.97,29.5 0.52,19.8 10.37,32.58z"/>
    <path fill="#F0C188" d="M5669.25 4845.38c38.15,23.04 246.33,11.89 292.54,11.08 70.53,-1.25 245.4,10.59 301.38,-8.88 11.56,-52.75 12.49,-214.26 -4.51,-257.87 -41.05,-5.56 -529.42,-22.79 -593.36,4.9l590.15 0.68 -1.67 250.49 -584.53 -0.4z"/>
    <path fill="#F0C188" d="M5029.82 4845.59c36.8,20.13 88.59,12.15 136.95,11.33 52.22,-0.87 104.51,0.48 156.76,-0.24 78.72,-1.09 225.15,8.73 293.77,-3.79 24.19,-47.9 24.49,-214.59 4.88,-264.45 -27.86,-4.8 -526.64,-15.59 -577.35,-1.11 -3.03,0.86 -6.57,3.36 -8.94,4.21 -2.38,0.87 -5.72,3.33 -8.57,5.04l591.34 -4.45 -1.73 253.86 -587.11 -0.4z"/>
    <path fill="#F0C188" d="M7529.88 4846.38l-585.77 -2.28 -2.46 -250.56 591.09 -0.23c-17.4,-8.94 18.01,-3.37 -25.86,-9.8l-569.37 3.66c-17.71,61.23 -14.39,197.72 0.32,260.41 49.18,17.49 228.18,11.39 289.29,9.03 52.53,-2.03 260.66,13.8 302.76,-10.23z"/>
    <path fill="#F0C188" d="M7559.49 6060.72c43.58,13.56 534.02,12.95 590.86,2.3l0.75 -250.73c-55.32,-9.79 -549.55,-9.6 -590.22,2.16l-1.39 246.27z"/>
    <polygon fill="#F0C188" points="2757.77,5759.72 3348.29,5761.65 3348.94,5499.84 2756.15,5500.49 "/>
    <polygon fill="#F0C188" points="1481.05,5759.75 2073.33,5760.88 2073.47,5503.32 1986.24,5499.86 1480.83,5501.05 "/>
    <polygon fill="#F0C188" points="7559.01,5452.87 8152.45,5454.27 8151.22,5193.56 7560.24,5194.05 "/>
    <polygon fill="#F0C188" points="5943.87,5761.3 6536.46,5761.56 6536.44,5503.07 5943.96,5500.58 "/>
    <polygon fill="#F0C188" points="8195.32,5454.39 8787.62,5454.55 8786.97,5193.97 8197.39,5194.5 "/>
    <polygon fill="#F0C188" points="843.69,5757.96 1436.85,5761.54 1436.23,5501.2 842.87,5500.6 "/>
    <path fill="#F0C188" d="M547.68 5450.26l589.54 3.48 3.01 -252.39c-50.86,-14.39 -533.26,-13.63 -594.12,-2.29l1.57 251.2z"/>
    <polygon fill="#F0C188" points="1822.38,5453.51 2415.79,5454.33 2414.82,5194.78 1825.48,5194.44 "/>
    <polygon fill="#F0C188" points="9769.69,5758.93 10361.51,5761.31 10361.86,5502.42 9768.19,5500.68 "/>
    <polygon fill="#F0C188" points="2119.01,5760.5 2712.4,5761.07 2711.32,5504.54 2118.19,5500.58 "/>
    <polygon fill="#F0C188" points="7218.65,5756.6 7810.75,5761.58 7811.58,5501.05 7216.75,5501.17 "/>
    <polygon fill="#F0C188" points="-89.9,5454.05 501.43,5454.23 501.37,5194.83 -87.5,5194.55 "/>
    <polygon fill="#F0C188" points="8494.33,5757.25 9086.57,5761.27 9086.74,5501.95 8492.27,5500.59 "/>
    <polygon fill="#F0C188" points="3097.28,5229.37 3098.29,5452.42 3685.01,5454.65 3690.6,5193.8 3097.56,5194.5 "/>
    <polygon fill="#F0C188" points="4373.64,5452.8 4561.66,5454.5 4572.86,5454.35 4960.39,5453.78 4965.27,5196.3 4819.21,5194.05 4696.03,5194.36 4372.69,5194.52 "/>
    <path fill="#F0C188" d="M1822.76 6063.85c65.25,10.94 544.02,12.44 591.68,-3.36l1.02 -246.36 -589.74 -5.87 -2.96 255.59z"/>
    <polygon fill="#F0C188" points="6283.28,6067.23 6875.79,6067.42 6876.54,5809.94 6287.34,5807.82 "/>
    <polygon fill="#F0C188" points="4371.24,6067.01 4963.32,6067.81 4964.58,5808.92 4376.94,5808.16 "/>
    <polygon fill="#F0C188" points="7856.59,5757.14 8448.52,5761.46 8449.03,5502.6 7855.49,5500.85 "/>
    <polygon fill="#F0C188" points="206.47,5758.88 798.99,5761.13 798.56,5504.45 204.88,5500.78 "/>
    <polygon fill="#F0C188" points="3735.78,5453.99 4321.84,5453.87 4327.75,5195.24 3735.83,5194.55 "/>
    <path fill="#F0C188" d="M9471.88 5450.41l584.1 3.6c16.93,-61.73 9.12,-191.79 5.09,-259.61l-191.78 0.12 -190.36 0.19 -207.81 1.27 0.76 254.43z"/>
    <polygon fill="#F0C188" points="3394.95,5760.18 3986.39,5760.96 3987.9,5506.69 3393.41,5500.1 "/>
    <polygon fill="#F0C188" points="6284.04,5453.97 6873.18,5453.87 6876.89,5197.78 6284.15,5194.25 "/>
    <polygon fill="#F0C188" points="9131.43,5597.31 9133.12,5757.6 9723.64,5761.56 9724.88,5502.65 9131.16,5502.06 "/>
    <polygon fill="#F0C188" points="5009.34,6066.59 5601,6067.6 5601.09,5808.56 5014.14,5808.6 "/>
    <polygon fill="#F0C188" points="3735.26,6065.14 4326.31,6067.89 4326.26,5807.77 3738.79,5808.53 "/>
    <polygon fill="#F0C188" points="5011.61,5452.89 5597.46,5453.79 5602.75,5195.26 5010.87,5194.4 "/>
    <path fill="#F0C188" d="M8832.69 6063.13c57.44,10.66 548.71,11.41 591.53,-2.11l0.73 -247.03 -589.52 -5.26 -2.74 254.4z"/>
    <path fill="#F0C188" d="M9471.24 6063.17c54.87,10.71 549.65,10.88 591.52,-2.46l0.72 -247.36 -589.17 -4.43 -3.07 254.25z"/>
    <path fill="#F0C188" d="M8832.97 5450.71l591.02 3.08 1.35 -252c-198.19,-12.06 -393.77,-7.85 -593.07,-5.61l0.7 254.53z"/>
    <polygon fill="#F0C188" points="-431.01,5757.6 160.75,5761.23 160.65,5505.04 -432.27,5500.49 "/>
    <polygon fill="#F0C188" points="5646.75,6066.96 6237.69,6067.64 6238.49,5810.43 5651.72,5808.04 "/>
    <polygon fill="#F0C188" points="3097.41,6065.1 3688.78,6067.96 3689.15,5809.44 3101.08,5808.35 "/>
    <polygon fill="#F0C188" points="546.93,6063.32 1139.07,6068.06 1138.46,5808.42 550.21,5808.4 "/>
    <polygon fill="#F0C188" points="1185.77,5450.68 1773.38,5453.52 1776.5,5195.01 1183.97,5194.58 "/>
    <polygon fill="#F0C188" points="5648.22,5452.74 6234.91,5453.38 6239.63,5196.52 5647.85,5194.36 "/>
    <polygon fill="#F0C188" points="2460.54,6063.93 3051.28,6067.96 3051.51,5807.89 2464.39,5808.63 "/>
    <polygon fill="#F0C188" points="6922.82,5453.74 7510.35,5453.51 7515,5198.49 6923.86,5193.95 "/>
    <polygon fill="#F0C188" points="6921.77,6067.41 7512.96,6067.43 7513.93,5811.51 6927.88,5807.96 "/>
    <polygon fill="#F0C188" points="1185.48,6063.18 1774.98,6068.22 1775.76,5808 1187.08,5808.48 "/>
    <polygon fill="#F0C188" points="2461.15,5451.78 3046.51,5453.68 3052.39,5194.35 2460.21,5196.72 "/>
    <polygon fill="#F0C188" points="-90.13,6067.85 502.6,6067.57 501.78,5813.16 -83.32,5808.27 "/>
    <polygon fill="#F0C188" points="8195.59,6062.37 8786.49,6067.95 8786.2,5808.35 8198.39,5809.2 "/>
    <polygon fill="#F0C188" points="7171.11,5757.1 7173.97,5504.03 6582.89,5504.26 6585.35,5754.82 "/>
    <polygon fill="#F0C188" points="4671.06,5756.31 5258.16,5756.71 5259.89,5502.84 4668.56,5507.3 "/>
    <polygon fill="#F0C188" points="4037.04,5756.94 4621.13,5756.9 4620.73,5505.38 4034.32,5504.03 "/>
    <polygon fill="#F0C188" points="5310.48,5756.1 5895.02,5756.5 5896.68,5506.01 5306.54,5505.33 "/>
    <path fill="#F0C188" d="M4037.04 5756.94l-2.72 -252.91 586.41 1.35 0.4 251.52 -584.09 0.04zm0 0c29.63,18.29 530.82,21.32 582.85,5.16 33.99,-51.62 19.07,-191.23 12.42,-256.77 -57.85,-21.3 -234.09,-10.87 -305.8,-12.26 -62.14,-1.21 -261.25,-16.22 -298.83,16.09 -6.23,5.17 -1.31,9.32 0.82,40.13l-1.83 175.07c1.97,29.5 0.52,19.8 10.37,32.58z"/>
    <path fill="#F0C188" d="M5310.48 5756.1c38.15,23.04 246.34,11.89 292.55,11.08 70.53,-1.25 245.39,10.59 301.38,-8.88 11.56,-52.75 12.48,-214.27 -4.51,-257.87 -41.05,-5.56 -529.43,-22.79 -593.36,4.9l590.14 0.68 -1.66 250.49 -584.54 -0.4z"/>
    <path fill="#F0C188" d="M4671.06 5756.31c36.79,20.13 88.58,12.14 136.95,11.33 52.21,-0.87 104.5,0.47 156.76,-0.24 78.71,-1.09 225.15,8.73 293.76,-3.79 24.19,-47.9 24.49,-214.59 4.88,-264.45 -27.85,-4.8 -526.64,-15.59 -577.34,-1.11 -3.03,0.86 -6.58,3.35 -8.94,4.21 -2.38,0.87 -5.73,3.33 -8.57,5.04l591.33 -4.46 -1.73 253.87 -587.1 -0.4z"/>
    <path fill="#F0C188" d="M7171.11 5757.1l-585.76 -2.28 -2.46 -250.56 591.08 -0.23c-17.39,-8.94 18.01,-3.37 -25.86,-9.8l-569.36 3.66c-17.71,61.23 -14.39,197.72 0.31,260.41 49.19,17.49 228.18,11.39 289.3,9.03 52.53,-2.03 260.66,13.8 302.75,-10.23z"/>
    <path fill="#F0C188" d="M7887.93 6972.6c43.58,13.55 534.02,12.94 590.86,2.29l0.75 -250.72c-55.32,-9.8 -549.55,-9.61 -590.22,2.16l-1.39 246.27z"/>
    <polygon fill="#F0C188" points="3086.21,6671.6 3676.73,6673.52 3677.38,6411.72 3084.59,6412.37 "/>
    <polygon fill="#F0C188" points="1809.49,6671.62 2401.77,6672.75 2401.91,6415.19 2314.68,6411.73 1809.27,6412.92 "/>
    <polygon fill="#F0C188" points="7887.46,6364.74 8480.89,6366.14 8479.66,6105.43 7888.69,6105.92 "/>
    <polygon fill="#F0C188" points="6272.31,6673.17 6864.9,6673.43 6864.88,6414.95 6272.4,6412.45 "/>
    <polygon fill="#F0C188" points="8523.76,6366.26 9116.06,6366.42 9115.41,6105.84 8525.83,6106.37 "/>
    <polygon fill="#F0C188" points="1172.13,6669.83 1765.3,6673.42 1764.67,6413.07 1171.31,6412.48 "/>
    <path fill="#F0C188" d="M876.12 6362.13l589.54 3.48 3.02 -252.38c-50.87,-14.4 -533.27,-13.64 -594.13,-2.3l1.57 251.2z"/>
    <polygon fill="#F0C188" points="2150.82,6365.38 2744.23,6366.21 2743.26,6106.65 2153.92,6106.31 "/>
    <path fill="#F0C188" d="M-399.7 6362.01l590.61 3.68 2.33 -254.13c-61.33,-11.1 -541.94,-12.28 -593.77,1.29l0.83 249.16z"/>
    <polygon fill="#F0C188" points="2447.45,6672.37 3040.84,6672.94 3039.76,6416.41 2446.63,6412.45 "/>
    <polygon fill="#F0C188" points="7547.09,6668.47 8139.19,6673.46 8140.02,6412.92 7545.19,6413.05 "/>
    <polygon fill="#F0C188" points="238.54,6365.92 829.87,6366.1 829.81,6106.71 240.94,6106.42 "/>
    <polygon fill="#F0C188" points="8822.77,6669.12 9415.01,6673.14 9415.18,6413.82 8820.71,6412.46 "/>
    <polygon fill="#F0C188" points="3425.72,6141.24 3426.73,6364.29 4013.45,6366.52 4019.04,6105.68 3426,6106.37 "/>
    <polygon fill="#F0C188" points="4702.08,6364.67 4890.1,6366.37 4901.3,6366.22 5288.83,6365.65 5293.71,6108.17 5147.65,6105.92 5024.47,6106.23 4701.13,6106.4 "/>
    <path fill="#F0C188" d="M2151.2 6975.72c65.25,10.95 544.02,12.44 591.68,-3.35l1.02 -246.37 -589.74 -5.87 -2.96 255.59z"/>
    <polygon fill="#F0C188" points="6611.72,6979.1 7204.23,6979.29 7204.98,6721.82 6615.78,6719.7 "/>
    <polygon fill="#F0C188" points="4699.68,6978.88 5291.77,6979.69 5293.02,6720.8 4705.38,6720.04 "/>
    <polygon fill="#F0C188" points="8185.03,6669.01 8776.96,6673.33 8777.47,6414.47 8183.93,6412.72 "/>
    <polygon fill="#F0C188" points="534.91,6670.75 1127.43,6673.01 1127,6416.32 533.32,6412.65 "/>
    <polygon fill="#F0C188" points="4064.22,6365.87 4650.28,6365.75 4656.19,6107.12 4064.27,6106.42 "/>
    <path fill="#F0C188" d="M9800.32 6362.28l584.1 3.6c16.93,-61.72 9.12,-191.78 5.09,-259.61l-191.78 0.13 -190.36 0.19 -207.81 1.26 0.76 254.43z"/>
    <polygon fill="#F0C188" points="3723.39,6672.06 4314.83,6672.83 4316.34,6418.56 3721.85,6411.97 "/>
    <polygon fill="#F0C188" points="6612.48,6365.84 7201.62,6365.75 7205.33,6109.65 6612.59,6106.12 "/>
    <polygon fill="#F0C188" points="9459.87,6509.18 9461.56,6669.48 10052.08,6673.43 10053.32,6414.53 9459.6,6413.93 "/>
    <polygon fill="#F0C188" points="5337.78,6978.46 5929.44,6979.47 5929.54,6720.43 5342.58,6720.47 "/>
    <polygon fill="#F0C188" points="4063.7,6977.01 4654.75,6979.77 4654.7,6719.64 4067.24,6720.4 "/>
    <polygon fill="#F0C188" points="5340.05,6364.77 5925.9,6365.66 5931.19,6107.13 5339.31,6106.27 "/>
    <path fill="#F0C188" d="M9161.13 6975c57.44,10.66 548.71,11.41 591.54,-2.1l0.72 -247.04 -589.52 -5.25 -2.74 254.39z"/>
    <path fill="#F0C188" d="M9799.68 6975.04c54.87,10.72 549.65,10.88 591.52,-2.46l0.72 -247.35 -589.17 -4.43 -3.07 254.24z"/>
    <path fill="#F0C188" d="M9161.41 6362.58l591.02 3.08 1.35 -252c-198.19,-12.06 -393.76,-7.85 -593.07,-5.61l0.7 254.53z"/>
    <polygon fill="#F0C188" points="-102.57,6669.48 489.19,6673.1 489.09,6416.92 -103.83,6412.37 "/>
    <polygon fill="#F0C188" points="5975.19,6978.83 6566.13,6979.51 6566.94,6722.31 5980.16,6719.92 "/>
    <polygon fill="#F0C188" points="3425.85,6976.97 4017.22,6979.84 4017.59,6721.31 3429.52,6720.23 "/>
    <polygon fill="#F0C188" points="875.37,6975.19 1467.51,6979.93 1466.9,6720.3 878.65,6720.27 "/>
    <polygon fill="#F0C188" points="1514.21,6362.55 2101.82,6365.39 2104.94,6106.88 1512.41,6106.45 "/>
    <polygon fill="#F0C188" points="5976.66,6364.62 6563.35,6365.26 6568.07,6108.39 5976.29,6106.23 "/>
    <polygon fill="#F0C188" points="2788.98,6975.8 3379.72,6979.84 3379.95,6719.77 2792.83,6720.5 "/>
    <polygon fill="#F0C188" points="7251.26,6365.61 7838.79,6365.38 7843.44,6110.36 7252.3,6105.83 "/>
    <polygon fill="#F0C188" points="7250.21,6979.28 7841.4,6979.31 7842.37,6723.38 7256.32,6719.83 "/>
    <polygon fill="#F0C188" points="1513.92,6975.06 2103.42,6980.09 2104.2,6719.87 1515.52,6720.35 "/>
    <polygon fill="#F0C188" points="2789.59,6363.65 3374.95,6365.56 3380.84,6106.22 2788.65,6108.6 "/>
    <polygon fill="#F0C188" points="238.31,6979.73 831.04,6979.44 830.22,6725.04 245.12,6720.15 "/>
    <polygon fill="#F0C188" points="8524.04,6974.24 9114.93,6979.82 9114.64,6720.23 8526.83,6721.07 "/>
    <polygon fill="#F0C188" points="-399.83,6973.85 192.57,6979.51 192.75,6724.3 -398.37,6720.66 "/>
    <polygon fill="#F0C188" points="7499.55,6668.97 7502.41,6415.9 6911.33,6416.13 6913.79,6666.69 "/>
    <polygon fill="#F0C188" points="4999.5,6668.19 5586.6,6668.58 5588.33,6414.72 4997,6419.17 "/>
    <polygon fill="#F0C188" points="4365.48,6668.81 4949.57,6668.77 4949.17,6417.26 4362.76,6415.9 "/>
    <polygon fill="#F0C188" points="5638.92,6667.97 6223.46,6668.38 6225.12,6417.88 5634.98,6417.2 "/>
    <path fill="#F0C188" d="M4365.48 6668.81l-2.72 -252.91 586.41 1.36 0.4 251.51 -584.09 0.04zm0 0c29.63,18.29 530.82,21.32 582.85,5.16 33.99,-51.62 19.07,-191.23 12.42,-256.77 -57.85,-21.29 -234.09,-10.86 -305.8,-12.26 -62.14,-1.21 -261.24,-16.22 -298.83,16.09 -6.23,5.18 -1.31,9.32 0.82,40.13l-1.83 175.07c1.97,29.5 0.52,19.8 10.37,32.58z"/>
    <path fill="#F0C188" d="M5638.92 6667.97c38.16,23.05 246.34,11.9 292.55,11.08 70.53,-1.25 245.39,10.59 301.38,-8.88 11.56,-52.75 12.48,-214.26 -4.51,-257.87 -41.05,-5.55 -529.43,-22.79 -593.36,4.9l590.14 0.68 -1.66 250.5 -584.54 -0.41z"/>
    <path fill="#F0C188" d="M4999.5 6668.19c36.79,20.12 88.58,12.14 136.95,11.32 52.21,-0.87 104.5,0.48 156.76,-0.24 78.71,-1.09 225.15,8.73 293.76,-3.79 24.19,-47.9 24.49,-214.59 4.88,-264.44 -27.85,-4.81 -526.64,-15.59 -577.34,-1.12 -3.03,0.86 -6.58,3.36 -8.94,4.21 -2.38,0.87 -5.73,3.33 -8.57,5.04l591.33 -4.45 -1.73 253.86 -587.1 -0.39z"/>
    <path fill="#F0C188" d="M7499.55 6668.97l-585.76 -2.28 -2.46 -250.56 591.08 -0.23c-17.39,-8.94 18.01,-3.37 -25.86,-9.79l-569.36 3.65c-17.71,61.24 -14.39,197.72 0.31,260.41 49.19,17.49 228.18,11.39 289.3,9.03 52.53,-2.02 260.66,13.8 302.75,-10.23z"/>
    <path fill="#F0C188" d="M7529.17 7883.32c43.57,13.55 534.01,12.94 590.85,2.29l0.76 -250.73c-55.32,-9.79 -549.56,-9.6 -590.23,2.16l-1.38 246.28z"/>
    <polygon fill="#F0C188" points="2727.45,7582.31 3317.96,7584.24 3318.61,7322.43 2725.82,7323.09 "/>
    <polygon fill="#F0C188" points="1450.73,7582.34 2043,7583.47 2043.15,7325.91 1955.91,7322.45 1450.5,7323.64 "/>
    <polygon fill="#F0C188" points="7528.69,7275.46 8122.13,7276.86 8120.9,7016.15 7529.92,7016.64 "/>
    <polygon fill="#F0C188" points="5913.55,7583.89 6506.14,7584.15 6506.11,7325.67 5913.64,7323.17 "/>
    <polygon fill="#F0C188" points="8164.99,7276.98 8757.29,7277.14 8756.64,7016.56 8167.07,7017.09 "/>
    <polygon fill="#F0C188" points="813.37,7580.55 1406.53,7584.13 1405.91,7323.79 812.55,7323.2 "/>
    <path fill="#F0C188" d="M517.36 7272.85l589.53 3.48 3.02 -252.38c-50.87,-14.4 -533.26,-13.64 -594.13,-2.3l1.58 251.2z"/>
    <polygon fill="#F0C188" points="1792.05,7276.1 2385.46,7276.93 2384.5,7017.37 1795.16,7017.03 "/>
    <polygon fill="#F0C188" points="9739.36,7581.53 10331.19,7583.9 10331.53,7325.02 9737.87,7323.28 "/>
    <polygon fill="#F0C188" points="2088.68,7583.09 2682.07,7583.66 2681,7327.13 2087.86,7323.17 "/>
    <polygon fill="#F0C188" points="7188.32,7579.19 7780.42,7584.17 7781.26,7323.64 7186.43,7323.77 "/>
    <polygon fill="#F0C188" points="-120.23,7276.64 471.11,7276.82 471.04,7017.43 -117.82,7017.14 "/>
    <polygon fill="#F0C188" points="8464.01,7579.84 9056.24,7583.86 9056.41,7324.54 8461.94,7323.18 "/>
    <polygon fill="#F0C188" points="3066.96,7051.96 3067.96,7275.01 3654.68,7277.24 3660.28,7016.39 3067.23,7017.09 "/>
    <polygon fill="#F0C188" points="4343.32,7275.39 4531.33,7277.09 4542.53,7276.94 4930.06,7276.37 4934.94,7018.89 4788.88,7016.64 4665.7,7016.95 4342.36,7017.11 "/>
    <path fill="#F0C188" d="M1792.43 7886.44c65.26,10.95 544.02,12.44 591.68,-3.36l1.02 -246.36 -589.73 -5.87 -2.97 255.59z"/>
    <polygon fill="#F0C188" points="6252.95,7889.82 6845.46,7890.01 6846.22,7632.54 6257.01,7630.42 "/>
    <polygon fill="#F0C188" points="4340.91,7889.6 4933,7890.4 4934.26,7631.52 4346.61,7630.76 "/>
    <polygon fill="#F0C188" points="7826.26,7579.73 8418.19,7584.05 8418.71,7325.19 7825.16,7323.44 "/>
    <polygon fill="#F0C188" points="176.14,7581.47 768.67,7583.73 768.23,7327.04 174.55,7323.37 "/>
    <polygon fill="#F0C188" points="3705.45,7276.59 4291.51,7276.46 4297.42,7017.83 3705.51,7017.14 "/>
    <path fill="#F0C188" d="M9441.55 7273l584.1 3.6c16.93,-61.72 9.13,-191.79 5.09,-259.61l-191.78 0.12 -190.35 0.19 -207.81 1.27 0.75 254.43z"/>
    <polygon fill="#F0C188" points="3364.62,7582.78 3956.06,7583.55 3957.57,7329.28 3363.09,7322.69 "/>
    <polygon fill="#F0C188" points="6253.72,7276.56 6842.86,7276.46 6846.56,7020.37 6253.82,7016.84 "/>
    <polygon fill="#F0C188" points="9101.1,7419.9 9102.79,7580.2 9693.31,7584.15 9694.55,7325.25 9100.84,7324.65 "/>
    <polygon fill="#F0C188" points="4979.01,7889.18 5570.68,7890.19 5570.77,7631.15 4983.81,7631.19 "/>
    <polygon fill="#F0C188" points="3704.94,7887.73 4295.98,7890.49 4295.93,7630.36 3708.47,7631.12 "/>
    <polygon fill="#F0C188" points="4981.28,7275.49 5567.13,7276.38 5572.42,7017.85 4980.54,7016.99 "/>
    <path fill="#F0C188" d="M8802.36 7885.72c57.44,10.66 548.71,11.41 591.54,-2.11l0.73 -247.03 -589.53 -5.25 -2.74 254.39z"/>
    <path fill="#F0C188" d="M9440.92 7885.76c54.87,10.72 549.64,10.88 591.52,-2.46l0.71 -247.36 -589.17 -4.42 -3.06 254.24z"/>
    <path fill="#F0C188" d="M8802.64 7273.3l591.02 3.08 1.35 -252c-198.18,-12.06 -393.76,-7.85 -593.07,-5.61l0.7 254.53z"/>
    <polygon fill="#F0C188" points="-461.34,7580.2 130.42,7583.82 130.33,7327.64 -462.6,7323.09 "/>
    <polygon fill="#F0C188" points="5616.42,7889.55 6207.36,7890.23 6208.17,7633.02 5621.4,7630.63 "/>
    <polygon fill="#F0C188" points="3067.09,7887.69 3658.45,7890.55 3658.82,7632.03 3070.75,7630.95 "/>
    <polygon fill="#F0C188" points="516.6,7885.91 1108.75,7890.65 1108.14,7631.01 519.88,7630.99 "/>
    <polygon fill="#F0C188" points="1155.44,7273.27 1743.05,7276.11 1746.17,7017.6 1153.65,7017.17 "/>
    <polygon fill="#F0C188" points="5617.89,7275.34 6204.58,7275.98 6209.31,7019.11 5617.52,7016.95 "/>
    <polygon fill="#F0C188" points="2430.22,7886.52 3020.96,7890.55 3021.18,7630.48 2434.07,7631.22 "/>
    <polygon fill="#F0C188" points="6892.49,7276.33 7480.02,7276.1 7484.67,7021.08 6893.54,7016.54 "/>
    <polygon fill="#F0C188" points="6891.45,7890 7482.64,7890.02 7483.6,7634.1 6897.56,7630.55 "/>
    <polygon fill="#F0C188" points="1155.15,7885.77 1744.65,7890.81 1745.43,7630.59 1156.75,7631.07 "/>
    <polygon fill="#F0C188" points="2430.83,7274.37 3016.18,7276.27 3022.07,7016.94 2429.89,7019.31 "/>
    <polygon fill="#F0C188" points="-120.45,7890.45 472.27,7890.16 471.45,7635.75 -113.64,7630.86 "/>
    <polygon fill="#F0C188" points="8165.27,7884.96 8756.17,7890.54 8755.88,7630.95 8168.06,7631.79 "/>
    <polygon fill="#F0C188" points="7140.79,7579.69 7143.64,7326.62 6552.56,7326.85 6555.02,7577.41 "/>
    <polygon fill="#F0C188" points="4640.73,7578.91 5227.83,7579.3 5229.57,7325.44 4638.23,7329.89 "/>
    <polygon fill="#F0C188" points="4006.72,7579.53 4590.8,7579.49 4590.41,7327.98 4003.99,7326.62 "/>
    <polygon fill="#F0C188" points="5280.15,7578.69 5864.69,7579.1 5866.36,7328.6 5276.21,7327.92 "/>
    <polygon fill="#F0C188" points="10072.77,7889.64 10329.53,7890.47 10329.73,7632.36 10078.38,7631.38 "/>
    <path fill="#F0C188" d="M4006.72 7579.53l-2.73 -252.91 586.42 1.36 0.39 251.51 -584.08 0.04zm0 0c29.62,18.29 530.81,21.32 582.84,5.16 33.99,-51.62 19.07,-191.23 12.42,-256.77 -57.85,-21.29 -234.09,-10.86 -305.8,-12.26 -62.13,-1.21 -261.24,-16.22 -298.83,16.09 -6.23,5.18 -1.31,9.32 0.82,40.13l-1.82 175.07c1.97,29.5 0.51,19.8 10.37,32.58z"/>
    <path fill="#F0C188" d="M5280.15 7578.69c38.16,23.04 246.34,11.89 292.55,11.08 70.53,-1.25 245.4,10.59 301.38,-8.88 11.56,-52.75 12.49,-214.26 -4.51,-257.87 -41.05,-5.56 -529.43,-22.79 -593.36,4.9l590.15 0.68 -1.67 250.5 -584.54 -0.41z"/>
    <path fill="#F0C188" d="M4640.73 7578.91c36.79,20.12 88.58,12.14 136.95,11.32 52.21,-0.87 104.51,0.48 156.76,-0.24 78.72,-1.09 225.15,8.73 293.76,-3.79 24.19,-47.9 24.5,-214.59 4.88,-264.44 -27.85,-4.81 -526.63,-15.59 -577.34,-1.12 -3.03,0.86 -6.57,3.36 -8.94,4.21 -2.38,0.87 -5.73,3.33 -8.57,5.04l591.34 -4.45 -1.74 253.86 -587.1 -0.39z"/>
    <path fill="#F0C188" d="M7140.79 7579.69l-585.77 -2.28 -2.46 -250.56 591.08 -0.23c-17.39,-8.94 18.02,-3.37 -25.85,-9.79l-569.37 3.65c-17.71,61.23 -14.39,197.72 0.32,260.41 49.18,17.49 228.18,11.39 289.29,9.03 52.53,-2.02 260.66,13.8 302.76,-10.23z"/>
    <rect fill="#F0C188" x="7900.36" y="1958.15" width="42.4" height="3048.36"/>
    <path fill="#F0C188" d="M8044.05 298.12c43.58,13.56 534.01,12.94 590.86,2.3l0.75 -250.73c-55.32,-9.79 -549.56,-9.6 -590.22,2.16l-1.39 246.27z"/>
    <path fill="#F0C188" d="M2307.32 301.25c65.25,10.94 544.01,12.44 591.68,-3.36l1.01 -246.37 -589.73 -5.86 -2.96 255.59z"/>
    <polygon fill="#F0C188" points="6767.83,304.63 7360.35,304.82 7361.1,47.34 6771.89,45.22 "/>
    <polygon fill="#F0C188" points="4855.79,304.41 5447.88,305.21 5449.14,46.32 4861.49,45.56 "/>
    <polygon fill="#F0C188" points="5493.89,303.99 6085.56,304.99 6085.65,45.96 5498.69,46 "/>
    <polygon fill="#F0C188" points="4219.82,302.54 4810.87,305.29 4810.81,45.17 4223.35,45.93 "/>
    <path fill="#F0C188" d="M9317.25 300.53c57.44,10.66 548.71,11.4 591.53,-2.11l0.73 -247.03 -589.53 -5.26 -2.73 254.4z"/>
    <polygon fill="#F0C188" points="6131.31,304.36 6722.24,305.04 6723.05,47.83 6136.28,45.44 "/>
    <polygon fill="#F0C188" points="3581.97,302.5 4173.33,305.36 4173.7,46.84 3585.63,45.75 "/>
    <polygon fill="#F0C188" points="1031.49,300.72 1623.63,305.46 1623.02,45.82 1034.77,45.79 "/>
    <polygon fill="#F0C188" points="2945.1,301.33 3535.84,305.36 3536.07,45.29 2948.95,46.02 "/>
    <polygon fill="#F0C188" points="7406.33,304.8 7997.52,304.83 7998.49,48.9 7412.44,45.36 "/>
    <polygon fill="#F0C188" points="1670.04,300.58 2259.53,305.62 2260.31,45.4 1671.64,45.88 "/>
    <polygon fill="#F0C188" points="394.43,305.25 987.15,304.97 986.33,50.56 401.24,45.67 "/>
    <polygon fill="#F0C188" points="8680.15,299.77 9271.05,305.35 9270.76,45.75 8682.94,46.6 "/>
    <polygon fill="#F0C188" points="-243.71,299.37 348.68,305.04 348.87,49.83 -242.26,46.19 "/>
    <polygon fill="#F0C188" points="7684.81,600.98 8278.24,602.38 8277.01,341.68 7686.04,342.16 "/>
    <polygon fill="#F0C188" points="8321.11,602.51 8913.41,602.67 8912.76,342.08 8323.18,342.61 "/>
    <path fill="#F0C188" d="M673.47 598.38l589.54 3.47 3.02 -252.38c-50.87,-14.39 -533.27,-13.63 -594.13,-2.29l1.57 251.2z"/>
    <polygon fill="#F0C188" points="1948.17,601.62 2541.58,602.45 2540.61,342.9 1951.27,342.56 "/>
    <path fill="#F0C188" d="M-602.35 598.26l590.61 3.68 2.33 -254.14c-61.33,-11.09 -541.94,-12.28 -593.77,1.29l0.83 249.17z"/>
    <polygon fill="#F0C188" points="35.89,602.17 627.22,602.34 627.16,342.95 38.29,342.67 "/>
    <polygon fill="#F0C188" points="3223.07,377.49 3224.08,600.54 3810.8,602.76 3816.39,341.92 3223.35,342.61 "/>
    <polygon fill="#F0C188" points="4499.43,600.92 4687.45,602.61 4698.65,602.47 5086.18,601.89 5091.06,344.42 4945,342.16 4821.82,342.48 4498.48,342.64 "/>
    <polygon fill="#F0C188" points="3861.57,602.11 4447.63,601.99 4453.54,343.36 3861.62,342.67 "/>
    <path fill="#F0C188" d="M9597.67 598.53l584.1 3.6c16.93,-61.73 9.12,-191.79 5.09,-259.61l-191.78 0.12 -190.36 0.19 -207.81 1.26 0.76 254.44z"/>
    <polygon fill="#F0C188" points="6409.83,602.08 6998.97,601.99 7002.68,345.9 6409.94,342.37 "/>
    <polygon fill="#F0C188" points="5137.4,601.01 5723.25,601.91 5728.54,343.37 5136.66,342.52 "/>
    <path fill="#F0C188" d="M8958.76 598.83l591.02 3.08 1.35 -252c-198.19,-12.06 -393.77,-7.85 -593.07,-5.61l0.7 254.53z"/>
    <polygon fill="#F0C188" points="1311.56,598.8 1899.17,601.64 1902.29,343.13 1309.76,342.69 "/>
    <polygon fill="#F0C188" points="5774.01,600.86 6360.7,601.5 6365.42,344.64 5773.64,342.48 "/>
    <polygon fill="#F0C188" points="7048.61,601.85 7636.14,601.62 7640.79,346.61 7049.65,342.07 "/>
    <polygon fill="#F0C188" points="2586.94,599.9 3172.3,601.8 3178.19,342.46 2586,344.84 "/>
    <g id="_869187605376">
     <rect fill="white" stroke="#205969" stroke-width="7.62" stroke-miterlimit="22.9256" transform="matrix(1.06238E-14 -1.11976 1.40682 1.04008E-13 2278.72 6764.35)" width="1191.72" height="1244.26" rx="33.67" ry="33.67"/>
     <rect fill="white" stroke="#205969" stroke-width="7.62" stroke-miterlimit="22.9256" x="3534.69" y="5524.86" width="429.1" height="1153.19" rx="57.41" ry="50.83"/>
     <rect fill="white" stroke="#205969" stroke-width="7.62" stroke-miterlimit="22.9256" x="2341.86" y="5524.03" width="1141.03" height="1152.36" rx="62.86" ry="20.91"/>
     <circle fill="#7DD9F0" stroke="#205969" stroke-width="7.62" stroke-miterlimit="22.9256" cx="2908.13" cy="6095.29" r="463.83"/>
     <g>
      <rect fill="white" x="1776.21" y="5017.19" width="6690.42" height="152.98"/>
      <g>
       <rect fill="#C8F4FF" stroke="#205969" stroke-width="20" stroke-miterlimit="22.9256" x="6136.99" y="1939.56" width="2034.68" height="3071.49"/>
       <rect fill="#C8F4FF" stroke="#205969" stroke-width="20" stroke-miterlimit="22.9256" x="2092.04" y="1939.05" width="2034.68" height="3071.49"/>
       <rect fill="#C8F4FF" stroke="#205969" stroke-width="20" stroke-miterlimit="22.9256" x="4110.87" y="1941.25" width="2034.68" height="3071.49"/>
       <rect fill="white" x="4057.72" y="1951.63" width="42.34" height="3048.75"/>
       <rect fill="white" x="6090.43" y="1950.96" width="42.34" height="3048.75"/>
      </g>
     </g>
    </g>
   </g>
  </g>
  <polygon fill="none" points="-0,-0.01 9789.58,-0.01 9789.58,7937.49 -0,7937.49 "/>
 </g>
</svg>
