<?xml version="1.0" encoding="UTF-8"?>
<!DOCTYPE svg PUBLIC "-//W3C//DTD SVG 1.1//EN" "http://www.w3.org/Graphics/SVG/1.1/DTD/svg11.dtd">
<!-- Creator: CorelDRAW 2017 -->
<svg xmlns="http://www.w3.org/2000/svg" xml:space="preserve" width="97.8958mm" height="79.3748mm" version="1.1" shape-rendering="geometricPrecision" text-rendering="geometricPrecision" image-rendering="optimizeQuality" fill-rule="evenodd" clip-rule="evenodd"
viewBox="0 0 9789.58 7937.48"
 xmlns:xlink="http://www.w3.org/1999/xlink">
 <defs>
   <clipPath id="id0">
    <path d="M-0 0l9789.58 0 0 7937.49 -9789.58 0 0 -7937.49z"/>
   </clipPath>
     <mask id="id1">
       <linearGradient id="id2" gradientUnits="userSpaceOnUse" x1="5604.67" y1="2931.18" x2="8902.39" y2="4239.83">
        <stop offset="0" stop-opacity="1" stop-color="white"/>
        <stop offset="1" stop-opacity="0" stop-color="white"/>
       </linearGradient>
      <rect fill="url(#id2)" x="5462.45" y="1701.05" width="4136.97" height="3124.88"/>
     </mask>
     <mask id="id3">
       <linearGradient id="id4" gradientUnits="userSpaceOnUse" x1="1317.85" y1="2213.67" x2="3405.27" y2="3976.66">
        <stop offset="0" stop-opacity="1" stop-color="white"/>
        <stop offset="1" stop-opacity="0" stop-color="white"/>
       </linearGradient>
      <rect fill="url(#id4)" x="1125.02" y="1358.05" width="2788.34" height="3872.76"/>
     </mask>
 </defs>
 <g id="Слой_x0020_1">
  <metadata id="CorelCorpID_0Corel-Layer"/>
  <rect fill="none" x="661.46" y="1685.39" width="7789.34" height="4995.33"/>
  <polygon fill="white" points="-0,0 9789.58,0 9789.58,7937.49 -0,7937.49 "/>
  <g clip-path="url(#id0)">
   <g id="_869247463616">
    <g>
     <polygon id="1" fill="#F3DFC7" points="4603.28,1058.36 1125.59,1058.36 1125.59,5720.05 4603.28,5720.05 "/>
     <path id="2" fill="white" d="M4583.28 1078.36l-3437.69 0 0 4621.69 3437.69 0 0 -4621.69zm20 -20l-3477.69 0 0 4661.69 3477.69 0 0 -4661.69z"/>
    </g>
    <g>
     <path fill="#999999" d="M4603.28 1058.36c-716.19,3.8 -750.07,3.78 -750.07,3.78l-0.78 -525.95 1267.5 1.03 0.41 5684.5 -517.01 1.74 -0.05 -5165.1zm0.05 5165.1l-3999.48 0 2.69 -5686.43 3245.89 -0.84 0.78 525.95 -2727.62 -3.78 0 4663.2 3477.74 -3.14 0 505.04z"/>
    </g>
    <g>
     <polygon fill="#CCCCCC" points="4603.22,1062.93 4603.24,5718.58 3750.53,5718.58 3750.51,1062.94 "/>
     <path id="1" fill="white" d="M4603.22 1062.93l0.02 4655.65 -852.71 0 -0.02 -4655.64 852.71 -0.01zm-19.9 4635.65l-0.02 -4615.73 -812.87 0.01 0.02 4615.72 812.87 0z"/>
    </g>
    <rect fill="white" transform="matrix(-6.64184E-06 -1.15488 1.13916 -6.45183E-06 3753.86 3193.77)" width="779.06" height="747.86"/>
    <circle fill="#59585C" transform="matrix(-6.57032E-06 -1.14244 1.15123 -6.52018E-06 4389.07 2526.33)" r="116.42"/>
    <circle fill="#59585C" transform="matrix(-6.57032E-06 -1.14244 1.15123 -6.52018E-06 3983.59 2523.98)" r="116.42"/>
    <circle fill="#59585C" transform="matrix(-6.57032E-06 -1.14244 1.15123 -6.52018E-06 3983.6 2958.11)" r="116.42"/>
    <circle fill="#59585C" transform="matrix(-6.57032E-06 -1.14244 1.15123 -6.52018E-06 4387.65 2957.73)" r="116.42"/>
    <rect fill="white" transform="matrix(-6.57032E-06 -1.14244 1.73734 -9.83975E-06 3845.2 4958.17)" width="613.84" height="291.05"/>
    <rect fill="gray" transform="matrix(-6.57032E-06 -1.14244 1.15052 -6.51614E-06 4216.78 4653.02)" width="63.5" height="338.88"/>
    <polygon fill="#CCCCCC" points="3751.13,537.29 1751.52,537.25 1750.57,1059.81 3751.66,1060.96 "/>
    <rect fill="#C8F4FF" x="1750.58" y="749.81" width="2000.76" height="145.14"/>
    <rect fill="white" x="1751.2" y="718.36" width="1999.98" height="31.44"/>
    <rect fill="#CCCCCC" x="1871.03" y="5722.91" width="1359.04" height="500.58"/>
    <g>
     <polygon fill="#F3DFC7" points="9244.87,1062.78 5121.28,1062.78 5121.28,7381.07 9244.87,7381.07 "/>
     <path id="1" fill="white" d="M9224.87 1082.78l-4083.59 0 0 6278.29 4083.59 0 0 -6278.29zm20 -20l-4123.59 0 0 6318.29 4123.59 0 0 -6318.29z"/>
    </g>
    <g>
     <polygon fill="#CCCCCC" points="9244.87,2722.96 8914.33,2722.96 8914.33,5286.74 9244.87,5286.74 "/>
     <path id="1" fill="white" d="M9224.87 2742.96l-290.54 0 0 2523.78 290.54 0 0 -2523.78zm20 -20l-330.54 0 0 2563.78 330.54 0 0 -2563.78z"/>
    </g>
    <path fill="#999999" d="M9767.73 536.56l-5164.27 1.22 -0.15 7399.78 5164.64 0 -0.14 -6872.84c-169.43,0 -371.89,-1.21 -522.85,-1.21l-6.29 6316.39 -4121.35 2.61 2.69 -6321.01c1701.73,0.48 2954.55,3.22 4647.8,3.22l-0.08 -528.16z"/>
    <polygon fill="#FCFCFC" points="4406.23,2770.77 4505.72,2770.96 4505.5,2674.65 4407.17,2673.69 "/>
    <rect fill="#CCCCCC" transform="matrix(-3.41806E-14 -0.911815 -1.1262 2.10731E-14 5120.58 7380.47)" width="1269.86" height="459.23"/>
    <g>
     <path fill="#4CC0E4" d="M5121.28 2896.88l3023.03 0c63.71,0 115.81,52.11 115.81,115.8l0 2097.22c0,63.7 -52.1,115.8 -115.81,115.8l-3023.03 0 0 -2328.82z"/>
     <path id="1" fill="#9AD6EA" d="M5121.28 2896.88l3023.03 0c63.71,0 115.81,52.11 115.81,115.8l0 2097.22c0,63.7 -52.1,115.8 -115.81,115.8l-3023.03 0 0 -2328.82zm3023.03 20l-3003.03 0 0 2288.82 3003.03 0c26.33,0 50.3,-10.79 67.66,-28.15l0.04 0.04c17.34,-17.37 28.11,-41.33 28.11,-67.69l0 -2097.22c0,-26.32 -10.79,-50.28 -28.16,-67.65l0.04 -0.04c-17.37,-17.34 -41.33,-28.11 -67.69,-28.11z"/>
    </g>
    <g>
     <path fill="#CCCCCC" d="M6234.98 7375.77l3007.79 0 0 -1002.46 -2446.01 0c-308.98,0 -561.78,252.8 -561.78,561.79l0 440.67z"/>
     <path id="1" fill="white" d="M6254.98 7355.77l2967.79 0 0 -962.46 -2426.01 0c-148.97,0 -284.42,60.96 -382.62,159.16 -98.19,98.2 -159.16,233.66 -159.16,382.63l0 420.67zm-20 20l3007.79 0 0 -1002.46 -2446.01 0c-308.98,0 -561.78,252.8 -561.78,561.79l0 440.67z"/>
    </g>
    <g>
     <polygon fill="black" points="9244.42,3184.33 9108.19,3184.33 9108.19,4828.79 9244.42,4828.79 "/>
     <path id="1" fill="#6E6D6D" d="M9224.42 3204.33l-96.23 0 0 1604.46 96.23 0 0 -1604.46zm20 -20l-136.23 0 0 1644.46 136.23 0 0 -1644.46z"/>
    </g>
    <path fill="#CCCCCC" d="M5257.68 3023.71l2762.21 0c57,0 103.62,46.62 103.62,103.61l0 1876.47c0,57 -46.62,103.63 -103.62,103.63l-2762.21 0 0 -2083.71z"/>
    <path fill="white" stroke="#F2FCFF" stroke-width="30" stroke-miterlimit="22.9256" d="M5607.84 3197.15c209.96,27.6 191.82,21.04 297.57,28.08 -12.78,125.67 -7.31,278.55 5.67,389.41 10.31,88.07 -26.69,208.16 -34.24,281.41 -89.08,-22.15 -185.76,7.46 -273.51,32.35l-120.65 -7.73c-88.38,-24.96 -92.72,-100.41 -69.54,-229.56 11.07,-114.02 -24.84,-286.47 -18.42,-412.36 80.62,-78.13 119.51,-78.93 213.12,-81.6z"/>
    <g>
     <path fill="#F2FCFF" d="M6060.39 3023.71l1960.52 0c56.43,0 102.6,46.17 102.6,102.59l0 1878.51c0,56.43 -46.17,102.61 -102.6,102.61l-1960.52 0 0 -2083.71z"/>
     <path id="1" fill="white" d="M6060.39 3023.71l1960.52 0c56.43,0 102.6,46.17 102.6,102.59l0 1878.51c0,56.43 -46.17,102.61 -102.6,102.61l-1960.52 0 0 -2083.71zm1960.52 30l-1930.52 0 0 2023.71 1930.52 0c19.93,0 38.08,-8.18 51.25,-21.35 13.17,-13.17 21.35,-31.32 21.35,-51.26l0 -1878.51c0,-20.01 -8.14,-38.15 -21.23,-51.24l-0.12 0c-13.17,-13.17 -31.32,-21.35 -51.25,-21.35z"/>
    </g>
    <path fill="white" stroke="#F2FCFF" stroke-width="30" stroke-miterlimit="22.9256" d="M5603.51 4146.83c236.76,-10.05 163.07,3.87 281.13,-8.78 41.52,305.78 55.06,506.86 15.69,770.66 -102.27,-7.27 -134.13,-57.75 -226.77,-13.24l-195.29 20.65c-73.55,-7.6 -76.66,-608 -74.98,-695.58 75.54,-102.04 97.25,-52.67 200.22,-73.71z"/>
    <g>
     <polygon fill="#999999" points="5257.68,2896.88 5121.28,2896.88 5121.28,5225.71 5257.68,5225.71 "/>
     <path id="1" fill="white" d="M5237.68 2916.88l-96.4 0 0 2288.83 96.4 0 0 -2288.83zm20 -20l-136.4 0 0 2328.83 136.4 0 0 -2328.83z"/>
    </g>
    <rect fill="white" x="8208.71" y="538.71" width="28.77" height="525.97"/>
    <polygon fill="#CCCCCC" points="8237.94,538.77 6238.33,538.73 6237.38,1061.29 8238.47,1062.44 "/>
    <rect fill="#C8F4FF" x="6237.39" y="751.29" width="2000.76" height="145.14"/>
    <rect fill="white" x="6238.01" y="719.84" width="1999.98" height="31.44"/>
    <polyline fill="none" stroke="#FFC431" stroke-width="75" stroke-miterlimit="22.9256" points="5147.41,491.88 5147.37,531.65 5155.57,1727.67 "/>
    <path fill="white" stroke="black" stroke-width="7.62" stroke-miterlimit="22.9256" d="M596.36 1521.81l-439.76 0c-23.2,0 -42.17,18.97 -42.17,42.16l0 1084.65c0,23.19 18.97,42.16 42.17,42.16l439.76 0 0 -1168.97z"/>
    <polygon fill="#CCCCCC" points="3751.13,537.29 1751.52,537.25 1750.57,1059.81 3751.66,1060.96 "/>
    <rect fill="#C8F4FF" x="1750.58" y="749.81" width="2000.76" height="145.14"/>
    <rect fill="white" x="1751.2" y="718.36" width="1999.98" height="31.44"/>
    <line fill="none" stroke="#FFC431" stroke-width="75" stroke-miterlimit="22.9256" x1="1129.57" y1="2593.54" x2="598.13" y2= "2593.54" />
    <path fill="white" stroke="black" stroke-width="7.62" stroke-miterlimit="22.9256" d="M6077.55 536.86l0 -439.76c0,-23.21 -18.98,-42.17 -42.16,-42.17l-1084.66 0c-23.19,0 -42.15,18.96 -42.15,42.17l0 439.76 1168.97 0z"/>
    <path fill="#71E2FF" mask="url(#id1)" d="M5989.2 1702.99c-180.58,18.07 -314.13,19.48 -522.71,101.38l-3.79 1161.86c348.42,432.17 940.28,421.89 1294.57,522.19 935.98,343.33 658.69,1030.53 1691.65,1337.26l1150.25 -494.81c-391.01,-291.54 -868.43,-271.02 -1265.03,-822.72 -571.18,-835.87 -1028.52,-1853.86 -2344.94,-1805.16z"/>
    <path fill="white" stroke="black" stroke-width="7.62" stroke-miterlimit="22.9256" d="M5123.34 1728.46l219.77 0c76.25,0 138.63,62.38 138.63,138.63l0 1072.3c0,76.25 -62.38,138.62 -138.63,138.62l-219.77 0 0 -1349.55z"/>
    <path fill="#71E2FF" mask="url(#id3)" d="M1125.27 1460.99l0.32 1344.27c394.16,357.53 810.02,106.87 1337.82,579.3 342.92,306.96 593.87,1024.41 945.44,1846 50.49,-426.15 455.06,-826.01 497.96,-1379.96 59.04,-762.5 -297.57,-1590.99 -1042.89,-2094.51 -377.96,-255.35 -1080.37,-561.13 -1738.65,-295.1z"/>
    <path fill="white" stroke="black" stroke-width="7.62" stroke-miterlimit="22.9256" d="M1125.27 1460.98l220.64 0c76.55,0 139.17,62.62 139.17,139.18l0 1065.92c0,76.55 -62.62,139.18 -139.17,139.18l-220.64 0 0 -1344.28z"/>
   </g>
  </g>
  <polygon fill="none" points="-0,0 9789.58,0 9789.58,7937.49 -0,7937.49 "/>
 </g>
</svg>
