<?xml version="1.0" encoding="UTF-8"?>
<!DOCTYPE svg PUBLIC "-//W3C//DTD SVG 1.1//EN" "http://www.w3.org/Graphics/SVG/1.1/DTD/svg11.dtd">
<!-- Creator: CorelDRAW 2017 -->
<svg xmlns="http://www.w3.org/2000/svg" xml:space="preserve" width="97.8958mm" height="79.3748mm" version="1.1" shape-rendering="geometricPrecision" text-rendering="geometricPrecision" image-rendering="optimizeQuality" fill-rule="evenodd" clip-rule="evenodd"
viewBox="0 0 9789.58 7937.48"
 xmlns:xlink="http://www.w3.org/1999/xlink">
 <defs>
   <clipPath id="id0">
    <path d="M-0 0l9789.58 0 0 7937.49 -9789.58 0 0 -7937.49z"/>
   </clipPath>
     <mask id="id1">
       <linearGradient id="id2" gradientUnits="userSpaceOnUse" x1="4342.3" y1="2551.39" x2="3891.26" y2="5636.4">
        <stop offset="0" stop-opacity="1" stop-color="white"/>
        <stop offset="1" stop-opacity="0" stop-color="white"/>
       </linearGradient>
      <rect fill="url(#id2)" x="2799.69" y="2156.49" width="4397.43" height="4417.65"/>
     </mask>
 </defs>
 <g id="Слой_x0020_1">
  <metadata id="CorelCorpID_0Corel-Layer"/>
  <rect fill="none" x="661.46" y="1685.39" width="7789.34" height="4995.33"/>
  <polygon fill="white" points="-0,0 9789.58,0 9789.58,7937.49 -0,7937.49 "/>
  <g clip-path="url(#id0)">
   <g id="_869257416496">
    <g>
     <polygon id="1" fill="#F3DFC7" points="688.7,6738.73 688.7,2154.73 1862.83,2154.73 1862.83,6738.73 "/>
     <path id="2" fill="white" d="M688.7 6738.73l0 -4584 1174.13 0 0 4584 -1174.13 0zm20 -4564l0 4544 1134.13 0 0 -4544 -1134.13 0z"/>
    </g>
    <g>
     <polygon fill="#F3DFC7" points="2385.8,6739.98 2385.8,2150.66 9271.02,2150.66 9271.02,6739.98 "/>
     <path id="1" fill="white" d="M2385.8 6739.98l0 -4589.32 6885.22 0 0 4589.32 -6885.22 0zm20 -4569.32l0 4549.32 6845.22 0 0 -4549.32 -6845.22 0z"/>
    </g>
    <g>
     <polygon fill="#CCCCCC" points="3575.34,6739.17 3575.34,6408.63 6129.05,6408.63 6129.05,6739.17 "/>
     <path id="1" fill="white" d="M3575.34 6739.17l0 -330.54 2553.71 0 0 330.54 -2553.71 0zm20 -310.54l0 290.54 2513.71 0 0 -290.54 -2513.71 0z"/>
    </g>
    <path fill="#999999" d="M1863.34 7260.61l-0.48 -5627.77 7926.91 0.02 -0.08 5626.8 -7403.75 0.04c0,-169.43 -0.14,-368.76 -0.14,-519.72l6885.22 -6.35 0.05 -4581.64 -6886.54 -2.59c0.47,1701.7 1.41,3417.07 1.41,5110.3l-522.6 0.91z"/>
    <rect fill="#CCCCCC" x="6553.32" y="6747.18" width="1359.03" height="517.18"/>
    <path fill="#FCFCFC" d="M2226.86 4043.59c18.17,70.94 19.52,1712.2 1.19,1790.26 -15.38,68.82 -15.33,245.22 -1.64,316.1l173.26 -0.46 4.23 -2409.61 -181.19 -3.1 4.15 306.81z"/>
    <polygon fill="#FEFEFE" points="9210.82,6029.18 9207.42,5450.38 8651.01,5451.64 8651.16,6028.85 "/>
    <polygon fill="#FEFEFE" points="9210.56,4216.37 9210.71,3639.77 8650.65,3641.9 8651.1,4216.81 "/>
    <polygon fill="#CCCCCC" points="1864.24,6184.26 1864.21,2718.79 2384.71,2717.14 2385.86,6185.18 "/>
    <rect fill="#C8F4FF" transform="matrix(3.51641E-14 -1.32779 1.13796 3.01345E-14 2075.93 6184.86)" width="2611.23" height="127.04"/>
    <rect fill="white" transform="matrix(2.39582E-13 -9.04594 1.60351 4.24651E-14 2044.6 6184.7)" width="383.22" height="19.53"/>
    <rect fill="#999999" transform="matrix(2.76163E-14 -1.04261 0.921758 2.44111E-14 500.965 7260.61)" width="500.55" height="1478.02"/>
    <rect fill="#999999" transform="matrix(2.76163E-14 -1.04261 0.921758 2.44111E-14 500.456 2154.74)" width="500.55" height="1478.02"/>
    <rect fill="#999999" transform="matrix(4.30888E-14 -1.62703 0.826936 2.18996E-14 500.961 6738.74)" width="2817.41" height="227.03"/>
    <rect fill="#CCCCCC" transform="matrix(8.9703E-15 -0.338691 1.16354 3.08115E-14 2041.54 5199.49)" width="119.78" height="154.85"/>
    <rect fill="#C8F4FF" transform="matrix(4.33923E-14 -1.6384 1.21471 3.21723E-14 534.391 6563.61)" width="2611.23" height="127.04"/>
    <rect fill="white" transform="matrix(2.95641E-13 -11.1621 1.71167 4.53335E-14 500.954 6563.42)" width="383.22" height="19.53"/>
    <g>
     <path fill="#4CC0E4" d="M3704 2150.66l0 3023.46c0,63.44 51.91,115.36 115.36,115.36l2088.98 0c63.44,0 115.36,-51.92 115.36,-115.36l0 -3023.46 -2319.7 0z"/>
     <path id="1" fill="#9AD6EA" d="M3724 2170.66l0 3003.46c0,26.2 10.75,50.05 28.03,67.33 17.28,17.28 41.13,28.03 67.33,28.03l2088.98 0c26.2,0 50.05,-10.75 67.33,-28.03 17.28,-17.28 28.03,-41.13 28.03,-67.33l0 -3003.46 -2279.7 0zm-20 -20l0 3023.46c0,63.44 51.91,115.36 115.36,115.36l2088.98 0c63.44,0 115.36,-51.92 115.36,-115.36l0 -3023.46 -2319.7 0z"/>
    </g>
    <g>
     <polygon fill="#CCCCCC" points="9271.02,6733.63 9271.02,2150.66 8272.49,2150.66 8272.49,6733.63 "/>
     <path id="1" fill="white" d="M9251.02 6713.63l0 -4542.97 -958.53 0 0 4542.97 958.53 0zm20 20l0 -4582.97 -998.53 0 0 4582.97 998.53 0z"/>
    </g>
    <g>
     <polygon fill="black" points="4034.89,6738.72 4034.89,6602.49 5672.9,6602.49 5672.9,6738.72 "/>
     <path id="1" fill="#6E6D6D" d="M4034.89 6738.72l0 -136.23 1638.01 0 0 136.23 -1638.01 0zm20 -116.23l0 96.23 1598.01 0 0 -96.23 -1598.01 0z"/>
    </g>
    <path fill="#CCCCCC" d="M3830.33 2287.06l0 2762.6c0,56.77 46.44,103.21 103.21,103.21l1869.12 0c56.77,0 103.21,-46.44 103.21,-103.21l0 -2762.6 -2075.54 0z"/>
    <path fill="white" stroke="#F2FCFF" stroke-width="30" stroke-miterlimit="22.9256" d="M4003.1 2637.22c27.49,209.96 20.95,191.82 27.96,297.56 125.18,-12.77 277.46,-7.3 387.88,5.67 87.73,10.31 207.35,-26.69 280.31,-34.24 -22.06,-89.08 7.43,-185.75 32.23,-273.5l-7.71 -120.65c-24.86,-88.38 -100.01,-92.72 -228.65,-69.54 -113.58,11.07 -285.34,-24.84 -410.75,-18.43 -77.82,80.63 -78.61,119.52 -81.27,213.13z"/>
    <g>
     <path fill="#CCCCCC" d="M8274.15 2151.37l0 974.2 -518.07 0c-331.3,0 -602.36,-271.07 -602.36,-602.37l0 -371.83 1120.43 0z"/>
     <path id="1" fill="white" d="M8274.15 2151.37l0 974.2 -518.07 0c-331.3,0 -602.36,-271.07 -602.36,-602.37l0 -371.83 1120.43 0zm-20 954.2l0 -934.2 -1080.43 0 0 351.83c0,160.12 65.53,305.72 171.08,411.28 105.56,105.56 251.16,171.09 411.28,171.09l498.07 0z"/>
    </g>
    <g>
     <path fill="#F2FCFF" d="M3830.33 3089.77l0 1960.5c0,56.44 46.17,102.59 102.59,102.59l1870.36 0c56.42,0 102.59,-46.15 102.59,-102.59l0 -1960.5 -2075.54 0z"/>
     <path id="1" fill="white" d="M3860.33 3119.77l0 1930.5c0,19.98 8.16,38.15 21.28,51.31 13.16,13.12 31.34,21.28 51.31,21.28l1870.36 0c19.97,0 38.15,-8.16 51.31,-21.28 13.12,-13.16 21.28,-31.33 21.28,-51.31l0 -1930.5 -2015.54 0zm-30 -30l0 1960.5c0,56.44 46.17,102.59 102.59,102.59l1870.36 0c56.42,0 102.59,-46.15 102.59,-102.59l0 -1960.5 -2075.54 0z"/>
    </g>
    <path fill="white" stroke="#F2FCFF" stroke-width="30" stroke-miterlimit="22.9256" d="M4949.05 2632.89c-10.01,236.76 3.85,163.07 -8.74,281.13 304.57,41.52 504.86,55.06 767.63,15.69 -7.24,-102.28 -57.52,-134.13 -13.19,-226.78l20.57 -195.28c-7.57,-73.55 -605.61,-76.66 -692.85,-74.99 -101.64,75.55 -52.47,97.26 -73.42,200.23z"/>
    <g>
     <polygon fill="#999999" points="3704,2287.06 3704,2150.66 6023.7,2150.66 6023.7,2287.06 "/>
     <path id="1" fill="white" d="M3704 2287.06l0 -136.4 2319.7 0 0 136.4 -2319.7 0zm20 -116.4l0 96.4 2279.7 0 0 -96.4 -2279.7 0z"/>
    </g>
    <path fill="#71E2FF" mask="url(#id1)" d="M3062.47 2156.74l1344.26 0c689.62,700.34 215.09,1684.2 513.98,2350.29 691.54,1102.81 1494.78,350.44 2276.16,1880.56l-879.12 186.3c-343.73,-462.82 -1460.14,-462.44 -2456.56,-1233.65 -1219.45,-909.34 -1239.35,-2623.02 -798.72,-3183.5z"/>
    <polyline fill="none" stroke="#FFC431" stroke-width="75" stroke-miterlimit="22.9256" points="3098.65,2186.45 1862.9,2186.53 688.7,2186.53 688.7,3315.74 500.92,3315.74 "/>
    <path fill="white" stroke="black" stroke-width="7.62" stroke-miterlimit="22.9256" d="M3048.87 2152.72l0 219.78c0,76.26 62.37,138.62 138.62,138.62l1067.02 0c76.24,0 138.62,-62.36 138.62,-138.62l0 -219.78 -1344.26 0z"/>
    <path fill="white" stroke="black" stroke-width="7.62" stroke-miterlimit="22.9256" d="M500.91 3457.88l-438.05 0c-23.1,0 -41.98,-18.89 -41.98,-41.98l0 -1084.99c0,-23.1 18.88,-41.98 41.98,-41.98l438.05 0 0 1168.95z"/>
   </g>
  </g>
  <polygon fill="none" points="-0,0 9789.58,0 9789.58,7937.49 -0,7937.49 "/>
 </g>
</svg>
