<?xml version="1.0" encoding="UTF-8"?>
<!DOCTYPE svg PUBLIC "-//W3C//DTD SVG 1.1//EN" "http://www.w3.org/Graphics/SVG/1.1/DTD/svg11.dtd">
<!-- Creator: CorelDRAW 2017 -->
<svg xmlns="http://www.w3.org/2000/svg" xml:space="preserve" width="79.3748mm" height="50.0062mm" version="1.1" shape-rendering="geometricPrecision" text-rendering="geometricPrecision" image-rendering="optimizeQuality" fill-rule="evenodd" clip-rule="evenodd"
viewBox="0 0 7937.48 5000.62"
 xmlns:xlink="http://www.w3.org/1999/xlink">
 <defs>
   <clipPath id="id0">
    <path d="M-0 5.29l7937.5 0 0 4995.33 -7937.5 0 0 -4995.33z"/>
   </clipPath>
 </defs>
 <g id="Слой_x0020_1">
  <metadata id="CorelCorpID_0Corel-Layer"/>
  <polygon fill="#D9D6D6" points="-0,5.29 7937.5,5.29 7937.5,5000.62 -0,5000.62 "/>
  <g clip-path="url(#id0)">
   <g id="_869182216944">
    <g>
     <path id="1" fill="#D1CFCF" d="M4596.35 2302.61l0 -28.83 0 -41.92 0 -29.11 0 -8.77 0 -29.51 0 -42.27 0 -29.49 0 -6.33 0 -51.49 0 -18.54 0 -40.35 0 -29.26c20.48,-5.72 40.44,-9.64 59.8,-11.84 27.24,-3.08 53.4,-2.72 78.32,0.8 13.66,-10.03 27.71,-20.95 41.83,-32.23 15.74,-12.56 32.97,-26.78 49.85,-40.74l1.4 -1.16c47.6,-39.32 92.12,-76.09 131.29,-97.66l24.62 -13.55 7.51 13.69c13.37,-11.87 26.44,-24.39 39.48,-36.88 25.58,-24.51 51.19,-49.05 81.43,-71.01 46.95,-47.48 93.79,-85.79 141.33,-124.65 73.55,-60.11 148.89,-121.69 224.04,-217.18l22.11 17.37 51.87 32.27c-79.09,100.51 -164.23,175.58 -240.07,237.55 -42.01,34.36 -85.16,90.87 -140.48,130.91 -27.52,19.75 -72.29,49 -97.16,72.83 -5.1,4.89 12.09,12.62 13.9,24.88l-73.48 47.53c-14.94,8.22 -33.33,25.52 -52.24,40.08 -12.67,9.77 -143.55,71.28 -26.11,13.06 40.65,-20.15 81.35,-41.16 119.68,-61.49l24.8 -13.16 21.41 40.66c25.29,-15.56 50.41,-31.85 75.52,-48.09 38.23,-24.75 76.48,-49.52 115.05,-71.77l1.21 -0.66c70.96,-36.39 132.6,-62.64 201.66,-92.04 58.07,-24.73 107.86,-72 185.68,-108.78l44.23 88.02c-78.79,37.22 -144.79,56.2 -203.36,81.13 -68.61,29.21 -131.12,63.13 -198.88,97.87 -35.89,20.73 -72.17,42.81 -110.07,67.34 -10.96,7.1 -31.03,22.44 -31.03,22.44 0,0 11.09,29.37 18.39,39.38 -61.89,27.41 -118.03,56.37 -178.38,86.67 -22.16,11.12 -44.39,22.07 -66.33,32.61 6.5,10.36 12.68,21.12 18.54,32.25 10.88,20.66 20.82,42.92 29.78,66.56 30.18,10.59 59.55,23.49 87.98,38.62 32.56,17.33 63.45,37.34 92.49,59.92 75.75,58.88 140.92,136.21 193.23,230.86 64.48,116.68 91.69,162.51 116.28,292.15l-158.45 31.4c-20.95,-105.43 -47.37,-169.14 -89.27,-245.98 -42.43,-77.79 -94.87,-140.7 -155.51,-187.83 -13.32,-10.36 -26.66,-19.75 -40.01,-28.14 7.93,58.44 11.51,120.43 10.74,184.25 -1.03,84.7 -9.77,172.42 -26.21,259.08l-2.91 15.37c-34.27,175.27 -33.77,301.95 38.97,469.78l-126.87 52.16c-147.77,-340.85 64.04,-763.15 9.08,-1029.81 -41.6,-13.87 -92.68,-22.39 -138.78,-25.37 -51.45,-3.33 -105.57,0.16 -161.79,10.69l-7.83 1.6 -48.28 13.17 0 -29.06z"/>
     <path fill="#C4C4C4" d="M4667.68 2247.11l0 -26.21 0 -38.12 0 -26.47 0 -7.98 0 -26.83 0 -38.44 0 -26.81 0 -5.76 0 -46.81 0 -16.86 0 -36.69 0 -26.61c18.62,-5.2 36.77,-8.77 54.38,-10.76 24.77,-2.81 48.55,-2.48 71.21,0.72 12.42,-9.12 25.2,-19.05 38.04,-29.3 14.31,-11.43 29.98,-24.36 45.33,-37.04l1.27 -1.06c43.28,-35.75 83.76,-69.19 119.38,-88.8l22.38 -12.33 6.83 12.45c12.16,-10.79 24.04,-22.18 35.9,-33.53 23.26,-22.29 46.55,-44.6 74.05,-64.57 42.68,-43.17 85.28,-78.01 128.51,-113.34 66.87,-54.66 135.38,-110.65 203.71,-197.48l20.1 15.8 20.1 15.8c-71.92,91.39 -142.56,149.13 -211.52,205.48 -43.07,35.22 -85.52,69.92 -125.95,110.98l-1.44 1.46 -1.85 1.34c-25.04,17.96 -47.69,39.66 -70.3,61.33 -14.97,14.33 -29.94,28.69 -46.16,42.51l15.11 27.53 -22.38 12.34c-13.59,7.47 -29.39,18.65 -46.58,31.88 -35.1,27.05 -125.12,79.01 -21.23,27.5 36.96,-18.33 70.24,-39.09 105.1,-57.57l21.72 -15.27 23.6 48.54c22.99,-14.15 45.84,-28.96 68.67,-43.73 34.76,-22.51 69.54,-45.02 104.61,-65.25l1.1 -0.61c64.52,-33.09 106.51,-78.05 169.31,-104.78 52.8,-22.49 116.68,-42.91 187.44,-76.35l18.76 40.05 10.89 23.1c-71.63,33.85 -129.78,58.62 -183.03,81.29 -62.38,26.56 -118.09,50.27 -179.71,81.86 -32.63,18.85 -67.13,41.18 -101.58,63.49 -24.43,15.81 -48.86,31.63 -72.62,46.23l21.28 40.42 -22.56 11.97c-29.35,15.56 -61.41,32.16 -95.29,49.17 -20.15,10.11 -40.36,20.06 -60.31,29.65 5.91,9.42 11.53,19.21 16.86,29.32 9.89,18.79 18.93,39.03 27.08,60.52 27.44,9.64 54.14,21.36 80,35.12 29.61,15.76 57.69,33.96 84.1,54.48 68.87,53.54 128.13,123.87 175.7,209.92 45.97,83.19 81.01,181.16 103.19,292.91 0,6.92 5.54,29.46 7.05,37.39l-136.16 26.04 -7.09 -36.83c-19.06,-95.87 -48.41,-179.1 -86.51,-248.97 -38.58,-70.73 -86.26,-127.94 -141.4,-170.8 -12.11,-9.42 -24.25,-17.96 -36.38,-25.58 7.21,53.14 10.46,109.5 9.76,167.54 -0.93,77.01 -8.88,156.77 -23.83,235.57l-2.65 13.98c-16.39,83.86 -75.23,385.18 -20.59,511.22l10.17 23.46 -78.88 34.05 -10.17 -23.47c-65.49,-151.06 -2.46,-473.29 14.92,-562.09l2.58 -13.16c14.96,-78.75 22.48,-157.98 22.6,-233.57 0.11,-70.16 -6.14,-137.34 -18.69,-198.24 -37.82,-12.61 -77.88,-20.36 -119.8,-23.06 -46.78,-3.04 -95.99,0.14 -147.11,9.71l-7.12 1.46 -43.9 11.98 0 -26.43zm199.46 -135.66c21.79,1.13 43.21,3.32 64.22,6.56l-1.82 -3.28c-4.62,-8.2 -9.45,-16.07 -14.52,-23.58l-16.48 7.16c-10.61,4.59 -21.09,8.98 -31.4,13.14z"/>
     <path fill="#C9BBBB" stroke="#949292" stroke-width="7.62" stroke-miterlimit="22.9256" d="M-6.22 3356.06c67.39,-22.62 110.6,6.14 177.96,-16.46 50,-16.77 124.18,-84.97 174.17,-101.76 61.81,-20.75 126.67,-5.23 188.47,-25.96 60.86,-20.43 118.71,-77.16 179.58,-97.6 64.96,-21.62 131.83,-14.18 185.93,-39.12 54.95,-25.34 97.15,-83.07 160.74,-101.34 62.63,-18 165.16,-7.3 225.38,-30.6 22.36,-8.65 16.42,-65.26 39.45,-73.29 22.92,-7.99 73.15,24.58 96.16,16.13 56.43,-20.73 113.14,-43.01 170.31,-67.41 62.13,-26.5 187.62,-48.81 249.25,-75.71 68.9,-30.1 102.21,-10.81 173.22,-40.19 27.87,-11.53 94.84,-72.82 121.91,-83.87 13.93,-5.68 38.34,24.95 51.94,19.43 20.68,-8.41 30.38,-52.93 50.02,-60.86 53.38,-21.58 158.37,-20.1 199.94,-36.89 60.83,-24.56 49.9,-64.17 69.47,-73.29 29.51,-13.75 113.79,-4.77 151.51,-14.28 66.92,-16.88 91.27,-49.95 144.39,-70.99 24.02,-9.52 65.39,-24.16 89.49,-33.3 41.21,-15.62 77.32,-14.49 112.7,-16.14 33.52,-1.57 51.27,-40.83 89.97,-53.61 17.26,-5.69 98.07,-18.93 115.31,-24.45 17.54,-5.63 28.35,-27.87 45.85,-33.33 14.3,-4.46 105.8,-11.98 120.05,-16.35 54.27,-16.61 99.72,-51.56 151.7,-67.07 31.82,-9.5 102.62,-11.2 133.65,-20.19 57.3,-16.59 115.48,-65.65 169.2,-82.23 17.15,-5.28 42.49,0.86 59.35,-4.22 11.2,-3.36 20.1,-36.23 31.15,-39.55 16.14,-4.86 48.83,4.77 64.75,0.21 41.41,-11.87 90.06,-42.26 129.95,-53.62 17.64,-5.02 56.32,9.78 73.71,5.11 29.99,-8.08 86.55,-2.76 121.42,-13.59 49.67,-15.44 82.78,-31.24 133.04,-49.13 26.11,-9.29 44.56,-10.44 78.77,-21.85 44.4,-14.81 75.78,-12.73 116.25,-26.31l171.2 -46.25c-29.17,651.24 24.62,429.76 -196.4,550.03 -92.46,31.59 -193.44,39.22 -283.67,68.08 -78.45,25.09 -146.62,71.81 -221.89,94.66 -80.08,24.3 -159.18,31.35 -232.99,68.4 -73.96,37.14 -146.63,80.33 -225.07,106.56 -55.17,18.46 -109.22,7.38 -166.16,20.51 -51.88,11.96 -106.74,48.2 -156.95,64.28 -29.56,9.47 -66.8,0.85 -96.52,10.38 -71.97,23.08 -136.96,64.57 -210.28,88.16 -62.89,20.23 -138.42,58.68 -202.39,78.94 -92.32,29.25 -194.83,39.4 -289.72,69.91 -84.47,27.15 -217.91,99.69 -303.54,126.81 -26.04,8.24 -32.54,28.61 -58.72,36.86 -33.63,10.6 -87.09,9.14 -120.93,19.73 -93.47,29.25 -187.73,58.77 -282.99,88.18 -25.81,7.97 -23.06,37.15 -49.04,45.12 -14.16,4.34 -64.7,1.19 -78.91,5.53 -16.37,5.01 -64.62,23.67 -81.06,28.69 -44.17,13.47 -64.41,33.03 -109,46.41 -32.71,9.82 -98.87,7.59 -131.78,17.39 -10.71,3.17 -12.43,38.16 -23.15,41.34 -18.42,5.45 -90.84,-7.55 -109.31,-2.1 -41.72,12.32 -38.82,11.44 -80.87,23.73 -37.22,10.87 -73.16,48.95 -110.67,59.68 -27.39,7.84 -55.59,32.03 -82.59,41.2 -46.25,15.72 -95.22,13.21 -139.24,30.63 -68.93,27.27 -132.36,74.97 -204.82,99.62 -34.23,1.66 -68.46,3.32 -102.69,4.98l-142.43 83.75c-50.18,6.17 -100.36,12.33 -150.54,18.5l-172.99 96.44 0 -562.47z"/>
     <path fill="#B8ADAD" d="M4785.27 2245.39l-461.18 110.99 -286.48 85.29 -462.55 194.39 -338.32 51.13 -591.33 179.1 -69.35 28.5c-369.8,152.01 -731.64,300.76 -1105.62,441.23l-1.64 0.61 -338.17 77.24c-100.27,43.7 -189.21,81.12 -272.33,114.61 -78.08,31.48 -151.12,59.55 -223.67,86.18l-0.17 1.82 -3.85 -0.36 -17.66 6.46c-176.55,64.19 -353.17,121.11 -596.01,199.36l-73.16 23.57 -26.74 -83.29 0 -175.4 6.3 -2.09 -6.1 -18.77 -0.2 0.07 0 -95.59 351.7 -109.15c41.18,-16.5 77.29,-30.85 108.82,-43.18 118,-46.15 207.29,-78.93 332.84,-116.6 74.52,-22.36 163.62,-46.83 287.96,-80.8l584.58 -208.24c91.32,-52.99 301.18,-108.24 412.79,-146.99 116.32,-40.45 230.82,-79.34 345.96,-117.41 88.83,-35.8 176.38,-68.33 263.6,-98.68 87.19,-30.34 177.82,-55.83 263.88,-86.37 1.09,-3.99 172.16,-51.89 193.81,-58.25 54.26,-15.94 124.85,-36.33 197.42,-57.25l432.05 -139.48c121.88,-53.25 211.91,-91.32 288.31,-121.41 74.89,-29.47 137.11,-33.83 205.13,-55.53 7.53,-23.75 209.96,-80.39 252.71,-92.67 65.18,-18.73 139.54,-40.1 207.38,-59.95l1.06 -0.32c55.29,-13.71 103.47,-31.28 157.71,-48.57 0,0 -2.68,160.42 -10.22,283.35 -4.84,79.01 -9.26,132.45 -9.26,132.45z"/>
     <g>
      <path fill="none" stroke="#FFC431" stroke-width="30" stroke-miterlimit="22.9256" d="M4990.08 1793.22c52.17,-37.41 90.75,-86.93 142.9,-124.35 104.71,-106.37 215.45,-164.37 327.73,-307.03"/>
      <path fill="none" stroke="#FFC431" stroke-width="50" stroke-miterlimit="22.9256" d="M5086.94 1904.97c66.34,-38.26 135.73,-87.86 202.07,-126.13 113.92,-58.44 203.68,-88.24 355.42,-159.96"/>
      <g>
       <path fill="gray" fill-rule="nonzero" d="M5117.79 1937.04c-77.85,41.29 -166.69,85.81 -243.39,118.78 -60.58,26.04 -115.06,45.4 -153.5,51.5 -310.51,101.94 -604.81,190.34 -919.52,282.2 -448.21,166.15 -642.67,231.93 -1095.58,355.9l-552.58 192.36c-728.22,270.69 -1418.2,505.23 -2158.29,751.28l-1.15 -3.49 0 -86.07 1270.23 -422.3c474.01,-176.2 937.7,-346.77 1414.57,-512.78l516.49 -141.44 576.89 -213.85 541.7 -158.1 387.21 -127.2 4.18 -0.56c29.79,-4.04 78.7,-21.7 135.54,-46.13 75.16,-32.31 161.71,-75.67 237.36,-115.79l39.84 75.69z"/>
       <path fill="gray" fill-rule="nonzero" d="M5014.68 1807.56c-28.8,15.85 -65.9,46.49 -105.59,79.29 -66.55,54.98 -140.13,115.77 -205.35,132.44l-394.44 111.83 -492.33 149.01c-332.34,136.01 -479.24,183.35 -834.24,291.64 -112.25,35.88 -218.52,69.04 -331.52,101.31l-223.88 73.14 -340.01 121.43c-691.92,254.49 -1386.17,481.89 -2086.49,712.06l-7.05 -21.69 0 -24.01 943.4 -310.08 799.56 -275.91c345.35,-127.11 686.33,-257.32 1040.41,-358.4 222.34,-70.98 444.79,-138.42 668.14,-206.55l358.37 -146.67c276.94,-83.8 618.51,-169.38 888.83,-261.41 55.36,-14.14 124.75,-71.47 187.5,-123.32 41.37,-34.18 80.05,-66.14 112.72,-84.12l21.97 40.01z"/>
       <path fill="white" fill-rule="nonzero" d="M5346.7 2735.2l-2.23 -11.57c-38.62,-194.46 -120.14,-338.14 -231.75,-424.91 -109.8,-85.36 -250.32,-116.18 -408.89,-86.43l-6.96 1.38 -721.14 196.81 -429.96 192.81 -527.41 126.03 -544.9 164.97c-362.99,149.16 -716.25,295.21 -1083.09,433.01l-311.93 71.24c-412.46,179.85 -616.9,244.16 -1068.93,389.87l-15.73 -48.98 0 -35.74 655.89 -211.43 401.77 -175.21 312.78 -71.41 407.49 -155.44c512.04,-210.34 709.27,-287.72 1221.9,-442.82l524.17 -125.15 428.74 -192.29c244.65,-65.9 488.92,-135.92 733.87,-200.24l7.55 -1.43c183.75,-34.53 347.84,2.13 477.35,102.81 127.75,99.32 220.39,260.44 263.2,476.15l2.26 11.9 -84.05 16.07z"/>
       <path fill="black" fill-rule="nonzero" d="M4971.23 3223.5c-60.85,-140.37 -0.42,-449.24 16.23,-534.35l2.52 -12.93c36.52,-192.48 28.48,-388.82 -23.86,-528.84 -19.26,-51.52 -44.52,-95.24 -75.7,-127.96 -30.34,-31.82 -66.46,-53.24 -108.2,-61.15 -39.7,-7.52 -84.92,-3.06 -135.64,15.89l-1.87 0.61c-50.27,12.48 -101.19,28.81 -152.06,45.12 -51.53,16.51 -103.1,33.07 -154.35,45.78l-503.38 140.49c-401.55,175.52 -684.47,265.96 -1108.4,388.24l-329.93 107.82c-174.4,70.34 -326.19,120.69 -507.08,180.51 -433.67,157.96 -832.47,305.56 -1279.56,427.69 -228.38,91.55 -381.6,145.24 -616.17,218.14l0 -35.8 307.24 -95.35c290.74,-116.56 359.32,-136.15 671.74,-221.49l538.29 -191.75c236.2,-86.04 459.76,-164.43 698.17,-243.27 283.84,-114.47 552.22,-192.1 845.75,-276.77l399.09 -128.81c405.95,-177.44 428.74,-171.93 876.08,-302.86 50.28,-12.47 101.18,-28.81 152.06,-45.12 51.3,-16.45 102.64,-32.92 153.64,-45.62 56.42,-20.89 107.37,-25.65 152.67,-17.07 49.2,9.33 91.45,34.24 126.69,71.2 34.39,36.08 62.05,83.77 82.92,139.62 54.49,145.75 63.09,348.87 25.49,547.11l-2.53 13.06c-16.21,82.98 -75.08,383.83 -18.51,514.33l-31.34 13.53z"/>
       <path fill="none" stroke="#FFF4A5" stroke-width="20" stroke-miterlimit="22.9256" d="M472.68 3314.27c109.48,11.75 145.5,161.51 131.9,292.28"/>
       <path fill="none" stroke="#FFF4A5" stroke-width="20" stroke-miterlimit="22.9256" d="M1552.14 2955.24c87.8,9.54 151.6,131.14 139.69,252.68"/>
       <path fill="none" stroke="#FFF4A5" stroke-width="20" stroke-miterlimit="22.9256" d="M2681.75 2566.47c68.69,18.75 135.86,86.64 105.51,231.66"/>
       <path fill="none" stroke="#FFF4A5" stroke-width="20" stroke-miterlimit="22.9256" d="M3898.55 2137.7c64.89,20.62 119.58,124.04 72.57,297.38"/>
      </g>
     </g>
    </g>
   </g>
  </g>
  <polygon fill="none" points="-0,5.29 7937.5,5.29 7937.5,5000.62 -0,5000.62 "/>
 </g>
</svg>
