<?xml version="1.0" encoding="UTF-8"?>
<!DOCTYPE svg PUBLIC "-//W3C//DTD SVG 1.1//EN" "http://www.w3.org/Graphics/SVG/1.1/DTD/svg11.dtd">
<!-- Creator: CorelDRAW 2017 -->
<svg xmlns="http://www.w3.org/2000/svg" xml:space="preserve" width="79.3748mm" height="50.0062mm" version="1.1" shape-rendering="geometricPrecision" text-rendering="geometricPrecision" image-rendering="optimizeQuality" fill-rule="evenodd" clip-rule="evenodd"
viewBox="0 0 7937.48 5000.62"
 xmlns:xlink="http://www.w3.org/1999/xlink">
 <defs>
   <clipPath id="id0">
    <path d="M-0 5.29l7937.5 0 0 4995.33 -7937.5 0 0 -4995.33z"/>
   </clipPath>
 </defs>
 <g id="Слой_x0020_1">
  <metadata id="CorelCorpID_0Corel-Layer"/>
  <polygon fill="#BFA98E" points="-0,5.29 7937.5,5.29 7937.5,5000.62 -0,5000.62 "/>
  <g clip-path="url(#id0)">
   <g id="_869189641264">
    <g>
     <path id="1" fill="#BAA58B" d="M1744.11 1305.49c1330.27,0 2948.28,16.54 4278.56,16.54 75.94,479.99 194.79,1277.44 26.64,1847.48l-4293.24 21.95c0,0 -333.46,-1122.07 -11.96,-1885.97z"/>
     <path fill="#B5A188" d="M1810.26 1425.45c1330.27,0 2786.22,13.23 4116.5,13.23 89.95,292.89 144.36,1134.92 82.87,1655.66l-4174.18 -11.13c0,0 -293.77,-926.93 -25.19,-1657.76z"/>
     <path fill="#F0EDED" d="M1869.79 1557.75c1330.27,0 2660.55,0 3990.83,0 31.48,365.25 122.19,782.45 0,1458.78 -1330.28,0 -2615.38,0 -3945.65,0 -131.24,-554.15 -171.89,-904.64 -45.18,-1458.78z"/>
     <path fill="#E3E0E0" d="M1869.79 1557.75c1330.27,0 2660.55,0 3990.83,0 20.49,243.28 56.82,414.16 61.48,729.85l-4126.34 1.86c0,0 -39.11,-209.24 74.03,-731.71z"/>
     <path fill="#F5F2F5" d="M3205.95 3802.06c-9.71,1.34 -16.7,0.6 -40.95,-1.79l-53.34 -14 -41.55 -21.5c-53.9,-33.17 -6.21,-18.63 -65.96,-28.97 -63.19,-10.92 -56.4,-11.36 -97.72,-45.56l-163.93 -99.1c-36.56,14.64 -52.17,28.53 -83.78,43.68 -1.87,11.38 -36.03,92.85 -47.46,124.74l-5.16 80.28c34.81,2.43 53.02,-1.09 46.1,34.91 41.58,-4.84 13.32,8.8 39.13,-9.99l15.61 -109.44c28.88,81.44 20.92,137.63 68.19,176.01l33.21 -228.37c2.72,83.92 0.54,133.42 22.54,214.31 6.26,68.62 112.05,341.28 254.7,374.28l40.79 -4.22c-20.44,-9.95 -14.21,-13.56 -25.39,-28.03 -31.8,-22.85 -74.93,-47.82 -106.76,-66.06 -50.14,-28.72 -60.15,-36.12 -81.98,-99.28 -2.01,-1.13 -5.08,-5.59 -5.69,-3.94 -1.07,2.86 -6.72,-3.73 -10.91,-9.96 -28.65,-42.63 -11.39,-78.95 -7.64,-107.44 20.85,-158.3 -30.94,-74.61 10.31,-151.55 15.24,57.79 52.6,139.82 40.48,171.51 3.34,-11.99 14.46,-55.72 15.31,-57.95 18.49,-48.56 27.87,-42.86 54.48,-57.84l-3.39 122.15c11.71,-55.9 45.93,-78.03 63.79,-113.94 1.14,3.85 4.13,18.87 5.49,21.36l70.57 60.93c38.15,-31.12 4.79,-32.7 90.71,-76.3 -13.32,13.11 -25.9,12.93 -33.98,47.58 -12.76,54.71 1.43,152.88 -20.82,191.59 21.85,19.4 -14.91,4.45 12.63,1.05l24.43 -5.26c35.68,55.71 41.44,169.05 64.83,231.3l65.59 108.25c45.84,49.77 38.41,47.88 111.25,43.3l-88.24 -184c-19.18,-23.62 -23.7,-41.72 -30.88,-73.96 19.51,-10.42 -5.87,6.97 34.78,1.59 0.95,-0.12 4.69,-0.26 6.48,-1.59 -10.29,-43.38 -26.42,-327.08 -5.84,-368.8 40.2,95.12 8.2,158.44 33.07,264.04 16.77,71.19 35.94,55.73 44.53,108.79 7.63,47.09 -4.61,57.15 26.21,103.24 2.15,3.22 9.59,11.99 11.62,14.58l12.02 14.25c192.28,16.54 31.59,7.58 139.93,35.62 23.12,11.25 70.51,49.38 85.08,56.14 9,4.18 16.29,4.27 37.18,13.64 24.66,11.05 33.09,16.92 52.77,32.54l-11 -26.11c-39.28,-8.57 -42.82,-8.96 -83.15,-44.02 -11.21,-9.74 -7.34,-5.86 -18.94,-17.83 -5.89,-6.55 -11.66,-13.06 -17.44,-19.7l-87.94 -190.45c-46.83,37.7 -14.53,-4.1 -34.22,47.39 -3,7.83 -1.87,39.1 -1.87,49.13l-12.13 0.02c-0.42,-62.78 4.58,-120.4 -12.56,-177.87 27.02,-61.17 101.93,-128.35 70.35,-148.09 -57.73,-36.08 -59.23,-82.68 -97.35,-120.8 -21.99,-21.99 -86.56,-11.35 -142.76,-48.72 -80.8,-53.73 -69.14,-8.64 -163.43,-25.77z"/>
     <path fill="#F0EBED" d="M4314.86 4110.75c64.16,-0.39 99.94,-5.43 144.28,-21.45 3.94,29.99 -0.22,86.91 35.05,99.35l31.56 1.85c-1.68,33.54 -7.94,45.46 -9.22,65.97 -3.72,59.55 21.97,-31.08 -3.91,61.4 -0.74,2.63 -8.4,20.39 -10.28,24.11 -17.62,34.85 15.72,45.2 -69.67,35.19l0 -17.77c-174.23,-32.73 -63.26,-144.97 -117.81,-248.65zm-94.29 -226.52l-34.85 -14.81 -78.95 -14.3c2.45,12.42 -2.66,31.24 -3.01,33.82 -0.54,3.98 7.62,17.54 -4.69,48.14 -16.21,40.26 -23.71,10.44 -23.74,10.38l68.01 20.99c-34.38,4 -34.23,20.67 -37.33,16.05 -2.44,-3.64 -7.41,6.7 -11.18,9.98 37.78,2.87 22.44,-0.07 47.4,8.46 3.75,1.29 12.61,5.66 15.54,7.39l32.95 33.86c65.6,74.13 98.15,44.01 105.97,104.99l-38.38 -1.62c-4.83,-1.02 -22.9,-7.5 -30.76,-10.09 -68.21,-22.53 -175.95,-40.41 -190.54,-61.8 -61.7,-90.41 -64.72,-90.07 -147.34,-90.26 9.63,29.01 12.63,49.32 16.57,115.2l-46.88 -22.68 13.51 43.26c15.82,61.6 57.89,207.87 93.05,250.32 29.99,-39.04 -14.01,0.29 34.26,0.02 3.42,-31.81 -0.41,-73.47 -23.3,-82.75 -0.02,-0.01 -29.74,67.09 -17.69,-31.38 7.2,-58.83 -66.99,31.23 5.9,-16.39 12.46,-37.93 -1.82,-9.84 13.5,-12.25l39.58 0.15c31.13,1.05 71.41,3.48 108.33,16.01 9.42,48.62 11.38,32.61 -5.92,64.59 42.19,1.11 33.77,-9.56 57.54,15.81 35.14,37.5 13.29,-39.63 3.65,17.4 -0.3,1.8 -51.87,66.82 70.35,76.53 223.22,17.73 154.26,66.76 254.73,84.96l58.33 -257.2c5.31,-41.67 -1.7,-29.02 16.57,-53.15 -4.66,-44.96 -2.87,-67.23 -9.37,-116.35 -0.89,-6.7 -1.78,-41.29 0.39,-46.41 17.06,-40.29 -28.43,-39.41 40.87,-34.62l-52.14 -21.31c-63.85,-24.87 -50.38,-27.53 -93.49,-50.19l-5.5 -83.23c-18.92,0 -13.12,-4.08 -12.17,16.96l-6.17 52.53c-39.52,-4.03 -213.42,-1.65 -223.6,-27.01z"/>
     <path fill="#EDE9EA" d="M4133.38 5041.53c92.56,-27.05 152.38,10.86 234.31,0.05l88.64 -348.31c7.11,-50.43 -0.37,-22.57 16.52,-31.64l22.04 -133.16 -25 -18.35c-29.62,-14.54 -67.12,-12.52 -92.91,-6.71 -142.25,32.03 -10.71,46.94 -264.22,11l-54.18 -6.79c-37.34,-5.84 -9.86,-3.42 -48.23,-15.47 21.33,-38.73 58.13,-39.85 64.24,-61.79 1.74,-6.22 5.72,-6.76 8.07,-9.39l-107.73 -1.11c38.28,182.74 143.55,432.48 158.45,621.67z"/>
     <path fill="#ECE9F2" d="M5011.34 5034.86l157.49 -3.34c8.1,-12.4 80.98,-207.65 84.19,-220.76l38.74 -38.21c176.59,-237.6 241.74,-547.06 318.73,-694.81l27.38 -51.15c-18.43,-58.81 41.48,-149.39 -19.06,-272.24 8.15,54.94 8.56,41.76 -8.57,90.9l-16.67 66.85c-8.79,46.56 6.98,-28.94 -15.76,12.85l-35.39 118.77c-21.37,71.25 -46.61,134.88 -59.82,191.8l-8.82 -14.88c-1.79,-4.19 -11.22,0.66 -13.93,-55.99l5.74 -165.98c-3.35,-38.76 -18.48,-30.79 -13.19,-79.73l-6.03 140.58c-0.01,0.03 -0.11,25.78 -23.11,58.52 18.38,-79.45 17.77,-192.5 -3.39,-256.52 -7.95,-24.03 -25.78,-65.38 -51.07,-90.33 -41.79,-41.23 -53.97,-26.92 -68.28,-15.2 9.77,-2.25 -23.36,-27.74 30.71,7.28 16.22,10.51 16.18,10.56 28.48,31.61 48.8,83.53 41.72,217.63 26.4,304.36l-32.36 27.5c-14.36,-8.43 -29.17,-16.15 -43.53,-24.14 -0.58,1 -14.69,29.4 -16.83,31.94 -12.91,15.38 7.28,4.24 -21.89,18.83 -65.85,32.95 -21.37,9.78 -54.4,0.87 -15.41,116.67 -36.27,-89.09 -36.27,132.75 -53.32,-13.26 -25.36,-19.42 -24.13,58.9 -10.92,0.14 -91.51,8.8 -95.54,-3.8 -0.84,-2.62 -4.28,-2.13 -5.81,-3.89 2.98,78.16 61.5,9.34 60.76,105.85 -0.33,42.74 -47.48,90.33 -62.68,96.49 22.76,24.35 18.79,-36.18 18.79,41.03 -69.49,-3.67 -48.22,12.04 -95.45,9.52 -17.31,-0.92 -47.41,-13.34 -85.05,-16.58 -68.56,-5.88 -120.02,9.58 -178.26,12.32 25.06,-42.67 -13.23,-28.02 44.99,-22.28 4.39,-32.58 -31.84,-61.79 -36.08,-67.45 40.27,-20.85 45.32,-45.6 48.15,-65.17 -23.64,0.73 -7.88,-5.64 -39.26,21.05 -26.98,22.94 5.18,10.02 -16.43,18.16 -29.11,34.41 -40.11,116.95 -49.78,165.82l-2.99 -11.95 3 32.84c-1.82,2.83 -3.93,6.64 -5.01,8.76l-39.91 115.29 -62.44 247.02 453.64 5.94z"/>
     <path fill="#FAF9FA" d="M4430.95 2576.05l10.27 17.8c52.33,9.36 35.75,-0.95 75.87,33.7l11.64 43.25c2.14,2 5.3,2.38 6.37,6.04l52.27 31.21 14.1 -2.46 554.11 -2.4c15.75,-57.82 11.95,-87.22 23.72,-141.35 -99.52,-13.38 -275.38,-9.59 -384.58,-10.07 -64.35,-0.28 -128.73,-0.47 -193.1,0.8 -34.99,0.7 -168.11,-11.23 -170.67,23.48zm-1884.3 127.77l1291.85 5.54 13.98 8.11 81.85 -86.42c-4.68,-23.09 -9.3,-16.73 14.35,-18.73 20.94,-12.51 40.09,-11.27 68.88,-28.15 -17.53,-20.27 9.17,-33.47 -103.67,-30.4 -434.08,11.79 -1318.96,-26.18 -1599.74,2.77 14.49,65.86 12.24,50.04 4.18,116.17 38.42,0.54 86.41,-2.31 122.84,-0.02 60.63,3.81 41.05,15.06 108.33,15.02 130.94,-0.09 611.63,-22.49 674.27,3.71l-516.83 1.75c-27.77,-0.42 -57.95,-2.37 -85.18,-2.33l-75.11 12.98z"/>
     <path fill="#B8B7BA" d="M2233.22 2915.38l7.38 58.8 1392.08 -27.78c28.76,2.2 1.29,30.65 45.37,-14l13.15 -3.15 10.67 -34.65 -92.3 2.59c-37.62,20.89 -1157.04,9.83 -1305.56,8.28 27.49,-52.6 -3.14,-12.78 -9.93,-112.51 -22.81,1.97 -16.41,6.75 -16.41,-17.26l-16.68 5.9c11.94,63.41 -2.98,75.31 -27.77,133.78z"/>
     <path fill="#B8B7BA" d="M4683.86 2894.07c0,0 22.69,84.4 22.69,84.4l618.77 -6.31c112.79,7.21 145.24,34.99 202.09,33.58 -51.65,-106.88 -47.95,-63.34 -19.28,-127.56 21.81,-48.84 25.48,-108.76 -6.56,-149.09 -8.7,70.28 3.62,50.7 -17.76,99.92l-38.52 50.68c-66.85,1.37 -758.75,11.77 -761.43,14.38z"/>
     <path fill="#ECE9F2" d="M3417.99 4568.29c7.03,58.33 -12.52,53.19 -22.18,107.04 -3.56,19.81 -6.34,82.99 -6.18,104.75 18.29,-5.31 9.06,-3.27 19.54,-9.65 2.16,-1.31 13.18,-10.6 18.62,-14.09 -11.44,-47.98 -12.6,-13.26 3.29,-70.99l61.83 7.6c61.72,31.59 -4.56,24.13 104,65.4 2.89,1.1 6.21,2.07 9.03,3.28 2.74,1.17 5.79,2.65 8.45,3.95 147.36,71.49 59.78,-10.68 150.64,56.48 38.07,28.13 89.12,37.18 136.59,44.2l-60.34 -120.57 -92.26 3.58c-57.59,-6.65 -63.95,-33.99 -76.57,-51.85 53.58,0 88.44,-8.03 132.51,13.5 19.02,9.3 15.58,37.9 44.84,5.91l10.21 -13.83c0.75,-61.18 -22.8,-116.3 -41.62,-178.12 -19.68,-15.62 -28.11,-21.49 -52.77,-32.54 -20.89,-9.37 -28.18,-9.46 -37.18,-13.64 -14.57,-6.76 -61.96,-44.89 -85.08,-56.14 -13.03,-5.44 -28.21,-15.46 -46.37,-15.68 -3.58,-0.04 -7.38,0.55 -10.71,0.85l-34.52 12.07c2.69,2.71 6.67,5.32 9,7.09 2.27,1.72 6.05,4.8 8.79,6.84 2.61,1.95 5.66,4.3 8.48,6.36l183.27 111.78c11.39,6.22 42.08,31.65 49.47,34.18l-17.25 3.56c-3.15,0.21 -14.1,0.74 -17.99,0.48l-115.15 -13.35c34.95,43.42 2.58,17.16 53.56,38.69 0.8,0.34 30.06,5.18 44.91,10.8 33.98,12.86 43.64,25.75 45,76.52 -51.79,-6.94 -24.67,3.8 -56.08,-23.06 -17.4,-14.88 -6.33,-2.94 -16.82,-34.39l-82.7 39.32 -86.52 -72.31c-42.23,-50.16 -56.63,-5.19 -143.74,-44.02zm206.06 464.42l321.95 8.55 -24.88 -100.97c2,-55.15 -28.87,-202.72 -61.11,-237.29l-10.21 13.83c-29.26,31.99 -25.82,3.39 -44.84,-5.91 -44.07,-21.53 -78.93,-13.5 -132.51,-13.5 12.62,17.86 18.98,45.2 76.57,51.85l92.26 -3.58 60.34 120.57c-47.47,-7.02 -98.52,-16.07 -136.59,-44.2 -90.86,-67.16 -3.28,15.01 -150.64,-56.48 -2.66,-1.3 -5.71,-2.78 -8.45,-3.95 -2.82,-1.21 -6.14,-2.18 -9.03,-3.28 -108.56,-41.27 -42.28,-33.81 -104,-65.4l-61.83 -7.6c-15.89,57.73 -14.73,23.01 -3.29,70.99 -5.44,3.49 -16.46,12.78 -18.62,14.09 -10.48,6.38 -1.25,4.34 -19.54,9.65 -0.16,-21.76 2.62,-84.94 6.18,-104.75 9.66,-53.85 29.21,-48.71 22.18,-107.04 -27.33,-74.25 3.49,18.04 -65.82,-56.25l-118.47 -113.18c-54.13,-50.19 -3.07,-51.91 -82.44,-81.66 -50.7,-14.11 -33.79,9.8 -65.68,-25.65 -142.65,-33 -248.44,-305.66 -254.7,-374.28 -22,-80.89 -19.82,-130.39 -22.54,-214.31l-22.24 157.77 -10.97 70.6c-47.27,-38.38 -39.31,-94.57 -68.19,-176.01l-15.61 109.44c-25.81,18.79 2.45,5.15 -39.13,9.99 6.92,-36 -11.29,-32.48 -46.1,-34.91l1.03 70.23 4.18 35.3c3.62,29.72 8.08,59.55 9.86,89.09 2.33,38.67 11.28,54.35 -13.27,70.42 46.62,112.14 -15.85,282.64 78.81,391.92 73.72,5.06 135.61,-31.98 193.18,14.23 126.75,86.09 217.07,334.76 293.4,419.5 29.74,33.01 80.25,61.43 101.13,104.39l140.02 0 209.61 -2.21zm-711.81 -938.75c23.35,2.75 49.42,-8.16 54.78,38.71 25,-31.21 30.76,-44.76 40.24,-86.93 40.7,15.45 10.13,0.48 20.57,28.85 9.16,24.88 -16.33,8.72 15.07,32.03 31.79,23.58 51.9,13.51 97,11.58 20.21,97.69 4.43,71.58 0.88,83.1 -4.2,13.58 -8.86,5.85 -4.48,30.16l15.13 34.17 -50.45 -6.33c11.18,14.47 4.95,18.08 25.39,28.03l-40.79 4.22c31.89,35.45 14.98,11.54 65.68,25.65 79.37,29.75 28.31,31.47 82.44,81.66l118.47 113.18c69.31,74.29 38.49,-18 65.82,56.25 87.11,38.83 101.51,-6.14 143.74,44.02l86.52 72.31 82.7 -39.32c10.49,31.45 -0.58,19.51 16.82,34.39 31.41,26.86 4.29,16.12 56.08,23.06 -1.36,-50.77 -11.02,-63.66 -45,-76.52 -14.85,-5.62 -44.11,-10.46 -44.91,-10.8 -50.98,-21.53 -18.61,4.73 -53.56,-38.69l115.15 13.35c3.89,0.26 14.84,-0.27 17.99,-0.48l17.25 -3.56c-7.39,-2.53 -38.08,-27.96 -49.47,-34.18l-183.27 -111.78c-2.82,-2.06 -5.87,-4.41 -8.48,-6.36 -2.74,-2.04 -6.52,-5.12 -8.79,-6.84 -2.33,-1.77 -6.31,-4.38 -9,-7.09l34.52 -12.07c3.33,-0.3 7.13,-0.89 10.71,-0.85 18.16,0.22 33.34,10.24 46.37,15.68 -108.34,-28.04 52.35,-19.08 -139.93,-35.62l-12.02 -14.25c-2.03,-2.59 -9.47,-11.36 -11.62,-14.58 -30.82,-46.09 -18.58,-56.15 -26.21,-103.24 -8.59,-53.06 -27.76,-37.6 -44.53,-108.79 -24.87,-105.6 7.13,-168.92 -33.07,-264.04 -20.58,41.72 -4.45,325.42 5.84,368.8 -1.79,1.33 -5.53,1.47 -6.48,1.59 -40.65,5.38 -15.27,-12.01 -34.78,-1.59 7.18,32.24 11.7,50.34 30.88,73.96l88.24 184c-72.84,4.58 -65.41,6.47 -111.25,-43.3l-65.59 -108.25c-23.39,-62.25 -29.15,-175.59 -64.83,-231.3l-24.43 5.26c-27.54,3.4 9.22,18.35 -12.63,-1.05 22.25,-38.71 8.06,-136.88 20.82,-191.59 8.08,-34.65 20.66,-34.47 33.98,-47.58 -85.92,43.6 -52.56,45.18 -90.71,76.3l-70.57 -60.93c-1.36,-2.49 -4.35,-17.51 -5.49,-21.36 -17.86,35.91 -52.08,58.04 -63.79,113.94l3.39 -122.15c-26.61,14.98 -35.99,9.28 -54.48,57.84 -0.85,2.23 -11.97,45.96 -15.31,57.95 12.12,-31.69 -25.24,-113.72 -40.48,-171.51 -41.25,76.94 10.54,-6.75 -10.31,151.55 -3.75,28.49 -21.01,64.81 7.64,107.44 4.19,6.23 9.84,12.82 10.91,9.96 0.61,-1.65 3.68,2.81 5.69,3.94zm0 0c21.83,63.16 31.84,70.56 81.98,99.28 31.83,18.24 74.96,43.21 106.76,66.06l50.45 6.33 -15.13 -34.17c-4.38,-24.31 0.28,-16.58 4.48,-30.16 3.55,-11.52 19.33,14.59 -0.88,-83.1 -45.1,1.93 -65.21,12 -97,-11.58 -31.4,-23.31 -5.91,-7.15 -15.07,-32.03 -10.44,-28.37 20.13,-13.4 -20.57,-28.85 -9.48,42.17 -15.24,55.72 -40.24,86.93 -5.36,-46.87 -31.43,-35.96 -54.78,-38.71z"/>
     <path fill="#F5EEF0" d="M3965.92 4371.51l9.01 48.35 107.73 1.11c-2.35,2.63 -6.33,3.17 -8.07,9.39 -6.11,21.94 -42.91,23.06 -64.24,61.79 38.37,12.05 10.89,9.63 48.23,15.47l54.18 6.79c253.51,35.94 121.97,21.03 264.22,-11 25.79,-5.81 63.29,-7.83 92.91,6.71l25 18.35 11.96 -24.26c-100.47,-18.2 -31.51,-67.23 -254.73,-84.96 -122.22,-9.71 -70.65,-74.73 -70.35,-76.53 9.64,-57.03 31.49,20.1 -3.65,-17.4 -23.77,-25.37 -15.35,-14.7 -57.54,-15.81 17.3,-31.98 15.34,-15.97 5.92,-64.59 -36.92,-12.53 -77.2,-14.96 -108.33,-16.01l-39.58 -0.15c-15.32,2.41 -1.04,-25.68 -13.5,12.25 -72.89,47.62 1.3,-42.44 -5.9,16.39 -12.05,98.47 17.67,31.37 17.69,31.38 22.89,9.28 26.72,50.94 23.3,82.75 -48.27,0.27 -4.27,-39.06 -34.26,-0.02z"/>
     <path fill="#DCB5A2" d="M2611.31 3945.37l-4.18 -35.3 -1.03 -70.23 5.16 -80.28c11.43,-31.89 45.59,-113.36 47.46,-124.74 31.61,-15.15 47.22,-29.04 83.78,-43.68 -34.52,-17.45 -40.25,-26.99 -81.65,-41.46 -28.97,-32.03 -26.62,-56.88 -57.82,-95.37l-60.14 -77.4c-21.13,-27.98 -38.78,-43.75 -66.05,-66.43 -100.67,-83.67 -194.78,-170.33 -244.08,-291.56 -9.17,-18.93 -11.77,-61.36 0.46,-103.54 24.79,-58.47 39.71,-70.37 27.77,-133.78l-3.67 -33.7 14.36 -45.8 15.11 -152.92c-4.15,-25.95 -6.99,-94.52 -12.58,-105.6 -17.23,-34.13 -40,-33.8 -65.22,-19.31l-11.56 66.2c-4.17,33.51 -5.35,50.42 -12.01,82.4 -11.2,53.74 5.33,57.98 -38.5,45.81l-11.9 -142.88 -1.11 -60.83c-27.92,-33.87 -65.85,-19.11 -79.47,-5.77 2.55,32.19 9.06,61.55 7.65,96.57 -1.44,43.71 1.6,82.36 -9.48,119.29l-26.69 -37.41 -13.68 -90.33c-1.24,-26.43 -4.36,-52.12 -7.87,-73.97 -2.76,-30.06 -73.89,-38.1 -75.09,3.4l2.91 44.52c7.83,58.64 51.22,168.53 -21.74,190.46 -13.51,-5.53 -8.29,-9.81 -35.37,-41.85 -20.07,-14.99 -28.55,-21.41 -41.17,-44.37 -7.77,-14.14 -1.2,-9.28 -9.79,-25.28 -24.9,-46.37 -55.71,-26.04 -70.34,11.08 10.74,49.96 49.05,113.77 70.81,169.37 20.42,52.2 14.56,96.59 29.43,151.49 20.86,77.07 90.67,180.31 124.02,250.04l15.7 67.26c39.34,102.35 52.08,174.81 102.77,261.86 41.79,71.77 96.33,161.9 154.81,239.46 65.86,87.32 179.58,164.82 252.28,259.01 34.36,44.53 86.78,104.51 104.3,145.08 24.55,-16.07 15.6,-31.75 13.27,-70.42 -1.78,-29.54 -6.24,-59.37 -9.86,-89.09z"/>
     <path fill="#E3DCDC" d="M4032.98 3870.17l-230.95 20.39c-19.62,21.01 -9.33,9.99 -24.36,35.88 97.68,48.07 48.6,88.51 81.69,151.49l46.88 22.68c-3.94,-65.88 -6.94,-86.19 -16.57,-115.2 82.62,0.19 85.64,-0.15 147.34,90.26 14.59,21.39 122.33,39.27 190.54,61.8 7.86,2.59 25.93,9.07 30.76,10.09l38.38 1.62c-7.82,-60.98 -40.37,-30.86 -105.97,-104.99l-32.95 -33.86c-2.93,-1.73 -11.79,-6.1 -15.54,-7.39 -24.96,-8.53 -9.62,-5.59 -47.4,-8.46 3.77,-3.28 8.74,-13.62 11.18,-9.98 3.1,4.62 2.95,-12.05 37.33,-16.05l-68.01 -20.99c0.03,0.06 7.53,29.88 23.74,-10.38 12.31,-30.6 4.15,-44.16 4.69,-48.14 0.35,-2.58 5.46,-21.4 3.01,-33.82l-25.46 -7.13c-21.32,17.53 -7.02,11.56 -48.33,22.18z"/>
     <path fill="#EDE9EA" d="M3807.39 4498.77l-74.67 -247.99c-15.6,-68.62 -82.28,-230.91 -123.23,-253.43 -2.1,0.61 -4.85,2 -6.06,2.52 -1.43,0.61 -5.27,2.4 -7.09,3.18 -2.19,0.94 -6.16,2.8 -8.52,3.8 -45.51,19.31 29.02,-7.6 -36.06,14.64l0 -60.22c23.81,80.21 7.45,8.09 -12.13,36.08l-15.32 -15.55c-9.99,-26.34 -7.53,-4.55 3.2,-8.52 -8.41,57.09 -5.27,115.47 11.63,172.16 17.14,57.47 12.14,115.09 12.56,177.87l12.13 -0.02c0,-10.03 -1.13,-41.3 1.87,-49.13 19.69,-51.49 -12.61,-9.69 34.22,-47.39l87.94 190.45c1.72,1.97 3.96,4.69 5.7,6.64l11.74 13.06c11.6,11.97 7.73,8.09 18.94,17.83 40.33,35.06 43.87,35.45 83.15,44.02z"/>
     <path fill="#554242" d="M2257.32 2747.9l1556.84 -11.99c14.24,-12.09 12.13,-9.91 24.34,-26.55l-1291.85 -5.54 -274.97 -1.72 -14.36 45.8z"/>
     <path fill="#554242" d="M3609.49 3997.35c108.55,59.69 300.74,898.78 336.51,1043.91l187.38 0.27c-11.13,-141.42 -245.68,-1060.93 -355.71,-1115.09l-5.01 3.17c-30.07,5.95 -59.98,12.21 -89.22,18.18 -51.73,10.57 -69.58,3.21 -73.95,49.56z"/>
     <path fill="#F5F2F5" d="M4884.41 3870.15l-20.35 7.62c-36.71,9.68 -28.19,1.04 -55.44,24.79 -30.3,26.4 -10.41,-7.96 -25.97,44.78 -20.62,1.09 -47.07,0.62 -66.02,3.03l-42.66 10.5c-2.2,-3.38 -7.64,2.47 -11.19,4.3 132.84,-12.06 161.08,-30.75 251.16,57.72 52.7,51.75 86.83,104.5 135.95,148.23 -90.34,-67.26 5.23,-24.59 -187.44,-149.73l17.65 22.7c3.23,4.25 9.36,10.72 15.81,21.06 10,16.02 12.11,16.42 17.75,41.13 -24.03,-23.4 -15.69,-18.47 -45.22,-37.33 -43.21,-27.58 -18.98,16.48 -42.35,-38.08 19.54,41.58 18.38,100.14 12.96,145.49 -13.35,-40.26 -34.65,-104.54 -56.34,-124.5l-9.99 14.79c0.71,3.22 5.43,25.9 5.19,29.19 -1.82,24.52 -2.27,9.28 -9.05,17.31 -1.4,66.68 -27.25,132.01 -18.62,197.58 21.07,44.34 4.88,71.4 8.27,107.81 3.58,-1.24 8.19,-8.28 10,-5.41 1.77,2.79 7.35,-3.96 9.76,-5.15l78.2 -33.04c14.7,-4.83 10.72,-5.16 36.91,-8.93 52.17,-7.51 59.88,13.43 106.55,41.72l-0.02 12.13c-52.33,-3.22 -72.67,-65.97 -166.51,13.52 -2.37,2.01 -4.83,4.15 -7.22,6.22l-31.4 28.47 23.93 13.71c51.17,19.12 32.44,7.61 88.89,15.31 13.95,1.9 61.34,11.95 85.07,26.46l-3.3 4.94c-40.39,25.69 22.16,1.2 -24.71,2.96l-16.02 0.78c-87.23,6.17 -139.73,-7.6 -190.19,32.32 -58.22,-5.74 -19.93,-20.39 -44.99,22.28 58.24,-2.74 109.7,-18.2 178.26,-12.32 37.64,3.24 67.74,15.66 85.05,16.58 47.23,2.52 25.96,-13.19 95.45,-9.52 0,-77.21 3.97,-16.68 -18.79,-41.03 15.2,-6.16 62.35,-53.75 62.68,-96.49 0.74,-96.51 -57.78,-27.69 -60.76,-105.85 1.53,1.76 4.97,1.27 5.81,3.89 4.03,12.6 84.62,3.94 95.54,3.8 -1.23,-78.32 -29.19,-72.16 24.13,-58.9 0,-221.84 20.86,-16.08 36.27,-132.75 33.03,8.91 -11.45,32.08 54.4,-0.87 29.17,-14.59 8.98,-3.45 21.89,-18.83 2.14,-2.54 16.25,-30.94 16.83,-31.94 14.36,7.99 29.17,15.71 43.53,24.14l32.36 -27.5c15.32,-86.73 22.4,-220.83 -26.4,-304.36 -12.3,-21.05 -12.26,-21.1 -28.48,-31.61 -54.07,-35.02 -20.94,-9.53 -30.71,-7.28 14.31,-11.72 26.49,-26.03 68.28,15.2 25.29,24.95 43.12,66.3 51.07,90.33 21.16,64.02 21.77,177.07 3.39,256.52 23,-32.74 23.1,-58.49 23.11,-58.52l6.03 -140.58c-5.29,48.94 9.84,40.97 13.19,79.73l-5.74 165.98c2.71,56.65 12.14,51.8 13.93,55.99l8.82 14.88c13.21,-56.92 38.45,-120.55 59.82,-191.8l35.39 -118.77c22.74,-41.79 6.97,33.71 15.76,-12.85l16.67 -66.85c17.13,-49.14 16.72,-35.96 8.57,-90.9 -25.27,-66.75 -69.42,-108.93 -142.43,-112.71 -55.45,1.31 -82.88,11.83 -124.63,42.85l-158.85 127.46c-18.1,6.02 -303.83,60.09 -308.49,58.2z"/>
     <path fill="#013BE3" d="M4633.89 3339.7c36.82,-91.06 51,-179.85 62.94,-286.74 -1.61,-64.25 -3.52,-155.66 -48.61,-205.23 -4.57,-5.5 -95.92,-199.49 -327.2,-212.78 -247.59,-14.22 -476.12,43.5 -531.58,359.37 -1.69,21.13 -6.78,34.44 -5.78,62.81 0.92,26.47 11.49,54.18 -3.22,92.52l-24.45 43.41c-12.95,-36.33 -14.14,-31.66 -6.99,-72.37 8.68,-49.49 0.84,-39.58 -0.21,-93.39 -25.96,-4.37 -90.13,-18.22 -109.15,7.11 -26.6,35.4 37.33,137.33 54.57,170.15 4.72,8.97 103.11,72.22 119.55,85.17 106.77,84.18 164.55,106.41 318.06,149.44 172.28,48.3 350.23,87.59 575.84,-38.76l15.97 -42.67c7.03,-70.84 9.55,-130.5 -20.26,-186.8 -7.76,61.18 -27.91,134.27 -69.48,168.76z"/>
     <path fill="#F3EEF4" d="M4512.62 4317.87c25.88,-92.48 0.19,-1.85 3.91,-61.4 1.28,-20.51 7.54,-32.43 9.22,-65.97l-31.56 -1.85c-35.27,-12.44 -31.11,-69.36 -35.05,-99.35 -44.34,16.02 -80.12,21.06 -144.28,21.45 54.55,103.68 -56.42,215.92 117.81,248.65l0 17.77c85.39,10.01 52.05,-0.34 69.67,-35.19 1.88,-3.72 9.54,-21.48 10.28,-24.11z"/>
     <path fill="#F9F6F9" d="M5204.36 2578.28l-18.69 153.87c12.53,27.13 2.87,23.21 17.59,9.78 9.83,5.33 179.82,15.19 247.15,-0.51l-34.81 -77.92c-26.07,-43.01 -28.06,-63.02 -25.82,-106.27 -34.78,-1.65 -79.84,-5.66 -113.88,-3.68 -45.57,2.65 -54.85,-5.38 -71.54,24.73z"/>
     <path fill="#6C6563" d="M4601.47 2705.59c6.74,9.49 16.71,20.13 22.76,28.17 17.21,22.87 7.12,4.21 18.13,30.35l514.4 3.96 28.91 -35.92 18.69 -153.87c-13.54,-28.46 5.33,-10.23 -25.06,-16.44 -11.77,54.13 -7.97,83.53 -23.72,141.35l-554.11 2.4z"/>
     <path fill="none" d="M4516.89 3511.65l-4.05 17.69c-20.18,93.5 -92.99,84.17 -109.45,89.72 -2.18,0.74 -5.56,2.3 -7.74,3.14 -2.2,0.84 -5.51,2.59 -7.7,3.49 -35.57,14.6 -115.21,35.57 -159.61,24.8 -35.03,15.12 -16.62,10.97 -105.9,-12.23l-31.62 -11.26c-3.21,-0.88 -6.57,-1.66 -9.91,-2.47 -141.23,-34.23 5.16,-25.23 -118.83,-57.1l-10.23 4.95c7.54,-59.39 -10.33,-28.13 -42.99,-75.77 -52.76,-76.97 38.32,-101.88 -97.45,-160.07 10.5,66.63 8.51,87.22 35.47,147.5 28.28,63.23 39.32,60.74 83.58,106.76l11.24 18.06c18.96,-22.19 7.58,4.53 10.15,-36.48m-6.18 32.05c10.78,10.74 11.31,15.98 20.25,36.93l66.67 30.73c128.77,53.83 216.67,63.33 358.84,19.68l3.66 -6.84c42.69,-21.61 77.57,-37.58 99.55,-71.44 42.62,-65.66 37.75,-50.22 57.86,-114.17l36.3 -4.77 -3.1 -6.39c-46.7,10.04 -37.56,-1.36 -68.81,23.49"/>
     <path fill="#0463E9" d="M3729.67 3262.56c87.24,104.14 333.19,205.1 461.57,227.02 150.74,25.74 248.69,29.93 394.46,-1.42 12.93,-5.75 117.6,-55.44 96.06,-80.78l-19.79 -8.45c-88.33,56.21 -88.28,58.98 -253.6,79.6 -69.98,-1.16 -213.76,-21.76 -276.56,-39.36 -153.5,-43.03 -211.28,-65.26 -318.05,-149.44 -76.18,-60.05 -39.15,-54.61 -99.11,-66.83 7.12,18.37 6.73,20.15 15.02,39.66z"/>
     <path fill="#8B8582" d="M2260.99 2781.6l16.68 -5.9c475.74,-28.96 1031.19,-12.68 1511.9,-7.03l24.59 -32.76 -1556.84 11.99 3.67 33.7z"/>
     <path fill="#5B4443" d="M4774.34 4041.14c-3.73,-2.97 -41.91,-16.93 -81.64,-25.28 -5.67,-1.19 -36.11,-8.7 -40.41,-10.21 -25.42,-8.9 -10.55,-0.87 -26.03,-12.8l-12.06 0.51c-23.01,-1.59 -45.24,-19.14 -49.43,-18.51 -8.43,1.27 19.39,29.34 8,56.25 -2.17,5.12 -1.28,39.71 -0.39,46.41 24.25,183.1 -152.77,755.15 -204.69,964.07 1.62,-6.37 190.01,-12.66 190.01,-12.66 92.76,-360.97 170.63,-619.14 216.64,-987.78z"/>
     <path fill="#F1EDEE" d="M4723.25 4384.68l-8.42 86.46c21.61,-8.14 -10.55,4.78 16.43,-18.16 31.38,-26.69 15.62,-20.32 39.26,-21.05 -2.83,19.57 -7.88,44.32 -48.15,65.17 4.24,5.66 40.47,34.87 36.08,67.45 50.46,-39.92 102.96,-26.15 190.19,-32.32l16.02 -0.78c46.87,-1.76 -15.68,22.73 24.71,-2.96l3.3 -4.94c-23.73,-14.51 -71.12,-24.56 -85.07,-26.46 -56.45,-7.7 -37.72,3.81 -88.89,-15.31l-23.93 -13.71 31.4 -28.47c2.39,-2.07 4.85,-4.21 7.22,-6.22 93.84,-79.49 114.18,-16.74 166.51,-13.52l0.02 -12.13c-46.67,-28.29 -54.38,-49.23 -106.55,-41.72 -26.19,3.77 -22.21,4.1 -36.91,8.93l-78.2 33.04c-2.41,1.19 -7.99,7.94 -9.76,5.15 -1.81,-2.87 -6.42,4.17 -10,5.41 -3.39,-36.41 12.8,-63.47 -8.27,-107.81 -12.09,17.84 -3.05,2.83 -12.55,27.22 -17.43,44.8 7.19,-21.88 -6,17.69 -4.11,12.33 -3.12,15.51 -8.44,29.04z"/>
     <path fill="#E3DCDC" d="M4662.78 3965.17c-16.79,23.52 -7.23,16.62 -36.52,27.68 15.48,11.93 0.61,3.9 26.03,12.8 4.3,1.51 34.74,9.02 40.41,10.21 39.73,8.35 50.58,0.64 66.48,22.45 23,0 12.8,-4.02 13.54,28.34l9.99 -14.79c21.69,19.96 42.99,84.24 56.34,124.5 5.42,-45.35 6.58,-103.91 -12.96,-145.49 23.37,54.56 -0.86,10.5 42.35,38.08 29.53,18.86 21.19,13.93 45.22,37.33 -5.64,-24.71 -7.75,-25.11 -17.75,-41.13 -6.45,-10.34 -12.58,-16.81 -15.81,-21.06l-17.65 -22.7c192.67,125.14 97.1,82.47 187.44,149.73 -49.12,-43.73 -83.25,-96.48 -135.95,-148.23 -90.08,-88.47 -118.32,-69.78 -251.16,-57.72z"/>
     <path fill="#492C36" d="M4185.72 3869.42l34.85 14.81c30.21,-8.34 60.12,-10.77 90.96,-18.92 38.08,-10.08 72.43,-11.14 121.08,-10.76l17.73 4.16c-0.95,-21.04 -6.75,-16.96 12.17,-16.96 20.04,-59.16 60.42,-73.71 70.21,-163.21 11.94,-1.14 11.45,20.76 9.95,-7.92 7.52,-35.8 12.85,-61.46 27.78,-90.48 21.68,-42.12 28.2,-37.24 15.25,-91.98l-33.23 5.2c-57.63,183.25 -246.4,213.38 -385.51,197.18 -184.72,-21.51 -323.35,-149.77 -355.55,-354 -12,-10.8 -28.84,-24.95 -43.26,-37.09 -10.07,-8.47 -7.86,-5.75 -20.01,-17.08 -11.81,-11 -12.57,-12.78 -18.47,-19.81 -39.85,72.79 34.53,33.93 -16.68,96.17l-5.8 7.43 34.47 57.15c28.21,48.24 63.36,73.96 57.78,160.49l5.25 61.7 3.02 107.58c42.94,20.76 15.25,24.73 39.96,68.36l175.03 30.8c1.18,1.99 3.93,6.87 5.02,8.72 1.14,1.94 3.5,6.14 5.26,9.21 41.31,-10.62 27.01,-4.65 48.33,-22.18l25.46 7.13 78.95 14.3z"/>
     <path fill="#DCB5A2" d="M3748.25 3707.72c78.88,43.74 28.93,176.66 24.41,221.89l5.01 -3.17c15.03,-25.89 4.74,-14.87 24.36,-35.88l230.95 -20.39c-1.76,-3.07 -4.12,-7.27 -5.26,-9.21 -1.09,-1.85 -3.84,-6.73 -5.02,-8.72l-175.03 -30.8c-24.71,-43.63 2.98,-47.6 -39.96,-68.36l-3.02 -107.58 -5.25 -61.7c5.58,-86.53 -29.57,-112.25 -57.78,-160.49l-34.47 -57.15 5.8 -7.43c-69.86,53.86 -5.91,134.25 -13.14,298.52 58.46,39.86 25.34,-5.23 48.4,50.47z"/>
     <path fill="#DCB5A2" d="M5510.28 3490.49l-33.9 151.15c73.01,3.78 117.16,45.96 142.43,112.71 60.54,122.85 0.63,213.43 19.06,272.24 36.94,-47.29 140.75,-160.03 159.48,-197.67 177.52,-337.41 186.36,-586.62 184.31,-929.81 -0.22,-37.21 -3.08,-90.43 -8.43,-114.9 -46.4,-212.41 -2.38,-216.38 -28.99,-326.8 -0.37,-0.16 -40.73,-16.58 -42.33,-16.9 -33.31,-6.69 -37.91,-5.66 -37.82,25.99 25.71,21.41 19.91,9.31 20.6,57.74 0.29,20.37 -4.26,40.25 -7.17,59.83l-4.48 44.14 -27.06 4.52c-2.35,-3 -25.24,-12.4 -31.61,-21.63 -27.57,-105.92 -17.3,-91.25 -37.02,-159.99 -16.04,-55.92 -93.78,-61.05 -98.66,-40.5 -4.59,19.32 15.81,70.72 15.06,78.1 0.19,1.12 11.75,40.76 12.93,44.71 10.82,36.18 21.47,59.04 21.4,96.04 -0.15,97.15 -27.1,-79 -38.62,-102.85 -1.12,-2.34 -7.92,-23.46 -10.1,-44.97 -13.75,-135.54 -112.59,-71.36 -85.1,-12.79 10.66,22.72 15.75,48.33 21.18,76.58 8.25,42.94 21.77,85.81 6.45,120.39 -57.55,-118.46 -45.77,-64.98 -108.32,-223.65 -33.83,-19.85 -67.45,-25.15 -75.49,19.22 -12.84,99.33 60.74,198.91 63.48,267.7 32.05,40.33 28.38,100.25 6.57,149.09 -25.33,65.36 -123.67,88.01 -138.24,92.79 -6.75,2.22 45.73,15.85 81.1,24.8 21.84,5.52 60.47,12.67 87.46,12.8l108.92 46.95 46.21 11.66c15.91,163.94 -137.54,282.83 -183.3,423.31z"/>
     <path fill="#575152" d="M4080.91 3624.53c1.67,0.41 3.35,0.81 5,1.21 1.66,0.4 3.31,0.82 4.91,1.26 148.35,52.83 374,43.49 433.42,-131.18 -143.15,21.48 -208.45,15.02 -333,-6.24 -99.51,-16.99 -238.08,-78.94 -302.08,-110.39 -5.3,30.81 -1.52,86.47 19.7,117.42 42.12,61.43 105.15,111.71 172.05,127.92z"/>
     <path fill="#DCB5A2" d="M4220.57 3884.23c10.18,25.36 184.08,22.98 223.6,27.01l6.17 -52.53 -17.73 -4.16c-48.65,-0.38 -83,0.68 -121.08,10.76 -30.84,8.15 -60.75,10.58 -90.96,18.92z"/>
     <path fill="#DCB5A2" d="M4585.7 3488.16l3.1 6.39c12.95,54.75 3.33,43.47 -18.35,85.59 -14.93,29.02 -20.26,54.68 -27.78,90.48 30.97,-13.9 40.02,-28.51 56.86,-35.31l42.07 -160.67 -55.9 13.52z"/>
     <path fill="#B1CAF5" d="M3852.48 2717.47c-173.78,331.46 -115.65,391.56 -116.39,472.83 2.36,6.58 103.21,88.59 159.06,117.03 -33.91,-67.87 -67.92,-92.48 -83.97,-134.52 -101.8,-266.73 123.24,-488.21 387.97,-523.43 154.14,-20.52 318.5,32.04 449.07,198.35 -25.79,-367.87 -548.73,-391.06 -795.74,-130.26z"/>
    </g>
   </g>
  </g>
  <polygon fill="none" points="-0,5.29 7937.5,5.29 7937.5,5000.62 -0,5000.62 "/>
 </g>
</svg>
