<?xml version="1.0" encoding="UTF-8"?>
<!DOCTYPE svg PUBLIC "-//W3C//DTD SVG 1.1//EN" "http://www.w3.org/Graphics/SVG/1.1/DTD/svg11.dtd">
<!-- Creator: CorelDRAW 2017 -->
<svg xmlns="http://www.w3.org/2000/svg" xml:space="preserve" width="105.833mm" height="75.4062mm" version="1.1" style="shape-rendering:geometricPrecision; text-rendering:geometricPrecision; image-rendering:optimizeQuality; fill-rule:evenodd; clip-rule:evenodd"
viewBox="0 0 10583.32 7540.62"
 xmlns:xlink="http://www.w3.org/1999/xlink">
 <defs>
  <style type="text/css">
   <![CDATA[
    .str0 {stroke:#2B2A29;stroke-width:20;stroke-miterlimit:22.9256}
    .str1 {stroke:black;stroke-width:20;stroke-miterlimit:22.9256}
    .fil1 {fill:none}
    .fil0 {fill:#2B2A29}
    .fil6 {fill:black}
    .fil7 {fill:#666666}
    .fil2 {fill:#89D0FC}
    .fil5 {fill:#E0E0E0}
    .fil3 {fill:#E0E0E0}
    .fil4 {fill:white}
   ]]>
  </style>
    <clipPath id="id0">
     <path d="M1058.33 1068.68l8466.66 0 0 5429.7 -8466.66 0 0 -5429.7z"/>
    </clipPath>
 </defs>
 <g id="Слой_x0020_1">
  <metadata id="CorelCorpID_0Corel-Layer"/>
  <g id="_562327740416">
   <g>
    <path class="fil0" d="M5479.44 4598.77c81.66,38.61 324.94,63.91 485.03,143.04 112.41,55.56 110.61,123.7 155.27,221.21 3.34,7.28 224.6,458.49 153.6,426.41 -4.83,-2.18 -4.96,-3.62 -7.18,-7.81 1.56,0.18 9.69,1.82 10.96,1.44l0.06 -0.15c-0.49,-0.15 -0.33,0.03 -0.78,-0.03 -48.18,-156.72 -207.54,-357.83 -261.18,-516.61 -47.1,-139.41 -537.45,-151.57 -602.93,-219.61 -13.02,-17.71 -7.17,-41.3 13.08,-52.7 17.44,-9.81 39.86,-7.37 54.07,4.81z"/>
   </g>
   <path class="fil1" d="M5448.95 4626.03c23.59,32.07 578.26,87.88 596.7,237.38 5.64,45.82 307.38,581.16 220.51,518.21"/>
   <path class="fil2 str0" d="M6064.29 5465.46c2.36,-21.55 -17.2,-101.37 83.22,-129.17 36.43,-10.09 161.66,40.56 216.43,-52.46 126.4,-214.69 599.71,-447.83 655.06,-292.04 169.62,477.45 -913.49,679.63 -954.71,473.67z"/>
   <g>
    <path class="fil0" d="M4711.04 4650.31c-23.75,-49.7 -79.72,-42.07 -89,43.11 -24.34,223.39 -13.57,518.97 -22.91,751.5 -0.07,1.69 -10.26,400.33 69.04,333.89l5.55 -7.33 -8.7 1.86c-63.39,12.18 -24.12,-301.4 -21.82,-323.96 13.66,-134.19 31.99,-632.06 57.38,-759.22 11.35,-9.81 15.99,-25.38 10.46,-39.85z"/>
   </g>
   <path class="fil1" d="M4673.72 4662.84c-26.05,-68.16 -35.74,638.64 -52.56,784.31 -5.15,44.68 -26.45,385.66 52.56,324.33"/>
   <path class="fil2 str0" d="M4953.98 5702.9c-14.7,-14.08 -49.99,-84.65 -134.83,-39.4 -30.77,16.41 -84.69,134.66 -178.28,102.93 -216.02,-73.24 -677.92,66.05 -620.65,214.97 175.53,456.38 1031.09,-102.44 933.76,-278.5z"/>
   <polygon class="fil3 str1" points="3609.72,2771.35 6494.33,2771.35 6341.06,4625.76 3763.01,4625.76 "/>
   <polygon class="fil3 str1" points="3609.72,2785.84 6494.94,2776.48 6090.52,2395.76 3987.45,2400.72 "/>
   <path class="fil4 str1" d="M5060.97 2944.47c244.48,0 468.05,54.58 619.01,228.1 173.32,199.26 189.87,333.4 184.09,497.23 -16.45,467.08 -311.12,744.02 -803.1,734.65 -246.35,-4.69 -367.7,-72.69 -511.73,-174.21 -184.71,-130.18 -307.88,-351.41 -307.88,-569.73 0,-182.52 91.91,-364.1 232.38,-487.74 185.19,-163.01 362.9,-228.3 587.23,-228.3z"/>
   <path class="fil5 str1" d="M5088.72 3598.18c111.06,26.97 76.19,175.77 -38.69,147.87 -63.92,-15.53 -64.37,-108.35 -16.61,-137.02 12.85,-7.72 36.08,-15.52 55.3,-10.85zm555.11 217.4l-7.46 28.52c-16.05,52.62 -43.73,99.88 -84.44,132.29 -100.34,79.93 -293.72,-4.37 -376.11,-67.76 -57.27,-44.07 -87.2,-65.96 -100.87,-121.58l-55.87 -13.57c4.97,7 5.87,8.65 13.83,15.06 9.47,7.63 2.25,2.92 15.39,9.51 -10.98,31.05 -38.25,55.35 -46.71,87.68 -34.43,131.55 120.83,175.73 19.38,282.59 -11.92,12.54 -28.64,25.59 -42.26,32.33 -112.77,55.72 -280.49,-40.09 -352,-113.46 -55.27,-56.72 -81.66,-114.36 -60.18,-196.46 22.88,-87.39 183.27,-204.61 266.81,-234.82 38.09,-13.77 76.74,-21.11 120.86,-20.51 -0.49,21.78 -3.59,23.02 8.17,36.93 10.66,-40.77 11.09,-54.13 32.67,-79.43 -27.22,-22.15 -11.24,-3.96 -28.13,-34.49 -68.25,-123.32 -204.38,-60.6 -260.03,-106.87 -27.66,-22.99 -43.67,-89.17 -31.83,-134.41 9.07,-34.65 42.46,-76.31 67.48,-100.52 14.3,-13.84 24.3,-22.26 40.98,-34.43 15.55,-11.33 27.12,-22.55 43.4,-30.44 16.54,-8.01 31.3,-13.59 48.93,-21.36 106.03,-46.72 236.69,-55.15 303.56,48.37 15.54,24.05 31.04,69.02 35.54,99.66 12.04,81.91 38.39,254.07 -45.14,327.81 15.84,17.2 13.87,17.41 19.34,39.64 65.36,0.9 123.07,-13.81 163.81,-67.38 71.35,-93.82 69.54,-120.58 175.72,-94.79 99.93,24.27 146.27,190.61 115.16,331.89z"/>
   <g>
    <path class="fil6" d="M3665.75 3260.4c-199.56,52.28 -1334.74,180.51 -657.77,581.85 195.84,116.1 391.53,-34.03 561.72,-121.43 -197.83,156.84 -406.36,323.43 -650.63,136.39 -642.95,-492.3 404.89,-612.03 706.97,-699.79 28.43,-10.96 60.38,3.2 71.34,31.63 10.97,28.44 -3.2,60.39 -31.63,71.35z"/>
   </g>
   <path class="fil1" d="M3645.9 3208.91c-258.78,99.82 -855.37,141.39 -890.83,327.66 -16.38,86.04 151.87,316.49 290.61,355.32 234.06,65.49 330.91,-57.11 524.02,-171.07"/>
   <g>
    <path class="fil6" d="M6470.03 3182.04c266.79,50.71 903.67,-713.26 1021.11,-41.31 9.35,53.51 11.04,424.38 -45.2,378.11 33.94,-56.84 17.9,-212.75 10.52,-268.44 -100.24,-755.16 -623.53,98.05 -1014.53,38.35 -29.48,-7.76 -47.07,-37.93 -39.31,-67.4 7.76,-29.48 37.93,-47.07 67.41,-39.31z"/>
   </g>
   <path class="fil1" d="M6455.98 3235.4c376.8,99.09 420.95,-453.64 889.5,-295.98 164.14,55.21 159.16,575.66 100.46,579.42"/>
   <g>
    <path class="fil6" d="M3557.72 3723.15c-174.99,-66.43 -45.35,-241.25 219.94,-108.93 -1.02,-0.06 -241.75,-16.07 -235.53,31.11 1.16,-1.28 0.93,-2.89 0.85,-4.54 0.37,0.01 32.42,11.78 32.84,11.89 19.46,5.01 31.19,24.83 26.19,44.29 -5.01,19.46 -24.83,31.18 -44.29,26.18z"/>
   </g>
   <path class="fil1" d="M3566.77 3687.92c-134.14,-34.5 -14.43,-153.55 210.89,-73.7"/>
   <g>
    <path class="fil6" d="M7402.81 3526.35c43.86,-65.67 -125.25,-146.13 -251.46,81.83 5.71,-287.46 420.94,-241.56 311.87,-41.28 -11.19,16.69 -33.8,21.13 -50.48,9.94 -16.68,-11.2 -21.13,-33.8 -9.93,-50.49z"/>
   </g>
   <path class="fil1" d="M7433.02 3546.63c87.23,-130 -236.12,-193.48 -281.66,61.54"/>
   <g>
    <path class="fil6" d="M3601.29 3671.65c270.14,46.87 282.56,-66.31 65.66,-143.63 167.81,-55.13 384.74,265.11 -87.32,213.09 -19.18,-5.98 -29.87,-26.37 -23.9,-45.56 5.98,-19.18 26.38,-29.87 45.56,-23.9z"/>
   </g>
   <path class="fil1" d="M3590.46 3706.38c39.63,12.35 315.14,37.64 235.69,-102.28 -24.55,-43.24 -103.21,-81 -159.2,-76.08"/>
   <g>
    <path class="fil6" d="M3605.04 3699.87c68.83,59.72 344.43,141 234.8,-42.77 193.55,96.43 -74.15,249.03 -284.16,96.2 -14.76,-13.63 -15.67,-36.64 -2.04,-51.4 13.64,-14.75 36.65,-15.66 51.4,-2.03z"/>
   </g>
   <path class="fil1" d="M3580.36 3726.59c132.43,122.31 423.37,59.25 259.48,-69.49"/>
   <g>
    <path class="fil6" d="M3569.69 3720.82c71.69,95.84 313.32,172.25 283.94,53.61 121.67,44.06 -143.07,211.11 -343.46,-11.75 -11.56,-16.43 -7.6,-39.13 8.83,-50.69 16.43,-11.57 39.13,-7.6 50.69,8.83z"/>
   </g>
   <path class="fil1" d="M3539.93 3741.75c112.75,160.33 405.36,120.1 313.7,32.68"/>
   <g>
    <path class="fil6" d="M7515.36 3543.08c80.97,187.89 -240.53,418.25 -216.38,270.95 89.92,85.35 177.51,-193.74 153.28,-234.72 -10.01,-17.43 -4,-39.66 13.43,-49.67 17.43,-10 39.66,-3.99 49.67,13.44z"/>
   </g>
   <path class="fil1" d="M7483.81 3561.19c57.06,99.44 -152.69,384.12 -184.83,252.84"/>
   <g>
    <path class="fil6" d="M7433.93 3574.57c-281.59,359.91 -329.65,74.7 -205.52,13.38 -9.77,16.23 -26.66,40.89 -31.12,60.02 -42.97,184.16 204.45,-138.65 204.45,-138.65 18.02,-8.88 39.83,-1.49 48.72,16.53 8.88,18.02 1.49,39.83 -16.53,48.72z"/>
   </g>
   <path class="fil1" d="M7417.83 3541.94c-27.57,13.61 -134.63,230.8 -213.56,184.21 -21.47,-12.69 -54.12,-80.3 24.14,-138.2"/>
   <g>
    <path class="fil6" d="M7499.27 3600.96c-135.17,275.75 -370.79,287.85 -254.66,54.01 1.92,242.77 122.96,81.39 184.83,-74.47 5.64,-19.28 25.85,-30.33 45.14,-24.69 19.28,5.65 30.34,25.86 24.69,45.15z"/>
   </g>
   <path class="fil1" d="M7464.35 3590.73c-40.37,137.72 -300.95,354.38 -219.74,64.24"/>
   <g>
   </g>
   <g style="clip-path:url(#id0)">
    <g id="_562327739456">
     <g>
      <path class="fil7" d="M7008.78 6673.62c64.43,1.84 74.46,-1.75 120.62,42.8l-54.43 50.91 -66.19 -93.71zm204.53 22.3c66.98,-99.87 134.97,-174.36 205.59,-275.99 62.93,-90.55 157.08,-206.26 198.78,-290.97 168.49,61.7 78.65,255.31 286.72,10.18 84.16,40.97 470.61,424.66 541.01,519.35 -41.78,55.74 -88.52,99.36 -139.44,174.21l-354.52 435.95c-132.03,139.84 -186.73,-11.35 -265.97,-88.81l-472.17 -483.92zm1445.62 0l451.94 -655.21c100.07,21.95 13.62,29.82 98.06,36.18 73.29,5.51 13.54,-19.56 98.48,-24.62 138.75,107.45 547.22,461.84 614.81,608.31 -77.04,80.61 -359.15,525.15 -477.93,625.9 -33.57,28.5 -63.84,48.92 -127.81,25.52l-494.8 -460.33c-40.38,-32.94 -132.88,-118.5 -162.75,-155.75zm-2518.66 -349.08c129.64,-7.25 169.48,-106.06 271.83,-165.28 44.51,30.36 119.06,91.33 148.62,120.14 46.47,45.26 82.7,90.7 121.28,124.34 91.34,79.67 194.4,131 243.38,258.7 -107.48,80.31 -187.87,235.65 -284.55,327.87 -215.53,205.57 -154.02,241.56 -358.42,268.69 -46.52,-168.34 -316.46,-399.71 -424.04,-523.95 -63.57,-73.41 -104.4,-75.65 -156.93,-149.28l381.08 -364.73 57.75 103.5zm-663.69 334.23c-12.9,-60.98 48.48,-83.88 108.96,-55.44 -33.15,39.67 -63.04,71.71 -108.96,55.44zm-1350.83 -196.02c31.38,-35.8 49.9,-44.53 82.77,-77.9l326.51 -324.96c58.71,-55.96 19.69,-35.98 89.52,-29.71 93.07,8.37 147.99,-59.99 223.65,-86.54 159.53,132.57 455.6,477.02 546.95,677.26 -21.22,50.74 -91.08,139.75 -125.12,176.2 -143.49,153.64 -133.56,155.87 -297.07,300.3 -121.04,106.95 -44.8,51.81 -213.34,99.62 -171.54,-281.84 -347.71,-480.22 -588.69,-689.75l-45.18 -44.52zm-1526.37 -123c21.3,-42.58 342.89,-366.98 463.58,-520.66 48.7,-62.02 26.34,-42.26 98.15,-56.26 64.82,-12.62 88.48,-28.62 138.44,-33.67 126.6,101.18 542.33,578.38 599.28,774.07 -154.11,147.39 -229.57,303.25 -472.1,506.34 -81.41,68.17 -83.76,111.28 -230.31,102.51 -311.84,-473.41 -253.28,-399.94 -597.04,-772.33zm-1537.46 -77.15c129.54,-63.25 265.63,-223.54 359.96,-344.48 42.97,-55.1 101.03,-143.07 142.51,-208.58 35.25,-55.66 26.99,-70.92 82.52,-79.44l120.3 -29.12c78.14,-19.32 302.67,256.82 352.21,322.13 84.51,111.37 213.36,214.66 290.9,399.08l-328.64 378.57c-176.26,201.95 -209.71,293.88 -388.5,282.41l-631.26 -720.57zm5099.86 14.59c-19.01,-85.77 2.21,-76.79 69.03,-118.56 57.04,-35.7 73.88,-61.07 125.5,-44.39 -23.71,69.67 -124.39,140.07 -194.53,162.95zm1023.99 -469.45c138.47,32.76 301.65,190.61 409.74,243.18 -17.37,75.43 -32.66,70.02 -98.56,161.4 -41.84,58.01 -61.35,93.13 -100.8,145.32 -39.2,51.83 -67.92,96.26 -103.67,142.29 -39.48,50.84 -78.88,86.09 -105.47,142.02 -323.23,-39.02 -237.96,-63.02 -403.72,-216.71l-334.03 -318.25c58.29,-62.16 159.85,-216.71 305.73,-146.11 91.04,44.05 242.76,154.43 334.81,171.76l95.97 -324.9zm-1126.66 291.08c30.9,-31.28 -66.78,-32.87 80.94,-43.12 -13.51,19.11 -20.12,35.4 -38.47,46.28 -59.41,35.18 -4.68,12.66 -42.47,-3.16zm1749.11 87.09c-70.32,-30.77 -102.71,-74.77 -125.76,-124.53 43.39,-57.96 144.02,-0.13 181.76,21.87l-56 102.66zm466.52 -666.37c91.6,23.65 112.77,65.35 230.49,62.31 42.97,-46.75 15.39,-39.05 71.3,-66.44l410.02 323.85c52.15,44.99 85.56,68.22 122.73,131.48 -33.01,56.7 -35.41,35.02 -77.64,89.31 -16.35,21.04 -38.35,56.1 -57.5,83.05l-351.79 507.47c-150.44,-16.17 -125.75,-27.11 -196.88,-110.35 -41.99,-49.14 -114.48,-110.66 -159.88,-156.22l-321.91 -307.83 331.06 -556.63zm1528.95 -194.61c135.51,42.03 62.51,15.51 129.11,6.49 104.9,-14.19 594.45,449.78 645.95,607.96 -91.96,45.37 -216.74,231.28 -290.96,340.14 -290.47,426.09 -251.37,430.41 -622.73,5.41l-249 -225.26c-39.02,-32.78 -44.76,-26.63 -87.96,-71.36l475.59 -663.38zm-3992.64 529.11c48.32,58.85 111.1,106.27 145.37,188.98 -104.72,4.46 -273.53,-41.83 -339.15,-127.44l193.78 -61.54zm-642 -132.67c7.65,41.86 16.95,88.8 26.26,130.59 40.07,179.72 124.61,116.71 296.86,94.14 81.19,-10.62 117.1,33.82 188.93,70.58 334.47,171.23 244.55,-43.13 359.03,142.31 -45.08,111.98 -160.6,217.71 -255.53,291.26 -47.93,37.12 -96.45,102.24 -145.34,106.18 -131.7,10.59 -58.4,-31.75 -214.27,32.28 -81.96,-219.47 -496.66,-627.35 -526.26,-690.59 107.94,-53.1 166.28,-126.55 270.32,-176.75zm-547.68 265.91c30.33,-63.66 89.27,-109.1 168.95,-84.65 -40.99,41.16 -92.23,77.61 -168.95,84.65zm1249.94 -157.12c235.72,-266.54 617.3,2.96 642.4,38.98 -17.88,23.13 -60.85,57.98 -86.09,81.94 -93.96,89.23 -205.3,49.66 -402.1,71.2 -62.89,-65.39 -105.75,-124.98 -154.21,-192.12zm890.89 70.3c57.96,-34.82 122.76,-52.44 190.22,-74.75 84.63,-27.99 133.43,-76.46 184.39,-52.43 15.39,61.15 -41.43,221.6 -74.54,301.18 -27.13,-9.83 -268.24,-136.94 -300.07,-174zm-1297.68 0c-55.5,23.53 -132.66,38.55 -194.04,17.57 -36.55,-55.08 -45.93,-146.31 -59.86,-217.66l253.9 200.09zm1221.57 -26.62c71.99,-120.94 168.29,-285.21 367.65,-142.22 -36.4,38.93 -292.8,119.09 -367.65,142.22zm-3353.63 -192.65c207.06,-91.08 456.46,-403.49 504.67,-423.12 46.24,-18.81 206.73,-43.85 238.26,-25.24 48.55,28.63 14.25,21.82 55.26,66.35 154.16,167.35 394.8,452.64 425.18,680.01 -88.3,37.83 -321.51,315.32 -426.08,414.92 -69.96,66.67 -88.92,37.26 -194.46,65.01 -71.66,-156.61 -184.73,-277.61 -278.47,-403.92l-324.36 -374.01zm3276.51 163.61c17.3,-51.1 42.57,-84.24 76.82,-127.39 30.38,-38.28 63.31,-64.11 130.55,-75.05l-98.39 107.24c-13.68,16.74 -35.66,39.38 -49.99,54.89 -46.62,50.51 -5.45,27.13 -58.99,40.31zm-1363.31 -215.64c83.78,-51.56 174.45,-173.03 296.83,-54.26 48.02,46.6 202.18,194.01 219.87,237.69 -114.05,75.03 -206.9,89.3 -300.21,18.53 -93.98,-71.28 -187.37,-119.68 -216.49,-201.96zm1872.25 7.72c-9.86,20.72 -5.43,74.47 -96.28,23.64 -24.33,-13.61 -22.78,-16.6 -35.93,-28.14 91.08,-7.32 84.31,-16.12 132.21,4.5zm-4818.79 -615.69c64.51,-57.25 18.07,-14.78 114.88,-44.1 47.55,-14.41 57.15,-32.18 109.39,-4.47 157.41,83.5 470.94,501.41 568.45,734.54 -30.77,70.65 -337.4,394.4 -426.69,487.88 -247.48,259.08 -172.15,72.85 -496.2,-286.58l-334.87 -350.07c-1.23,-5.46 -5.73,-6.02 -8.16,-9.38l473.2 -527.82zm5505.13 545.16c42.47,-73.87 41.41,-136.82 70.95,-222.09l346.89 146.08c-47.57,159.57 -242.43,407.16 -316.74,548.58 -71.76,-19.75 -108.37,-56.56 -196.42,-34.39 -113.29,28.51 -74.83,25.64 -174.14,-49.55 -69.88,-52.89 -231.09,-162.23 -326.57,-194.21l48.78 -164.59 547.25 -29.83zm711.14 -55.57c-76.29,67.97 -178.2,-16.53 -204.07,-49.95 21.96,-22.18 177.16,-38.02 204.07,49.95zm-1233.14 41.21c26.09,-113.42 110.27,-322.86 182.18,-356.5 117.55,-54.99 294.24,73.07 366.04,126.34l-49.98 202.78 -498.24 27.38zm-2165.55 -156.21c139.47,-1 219.78,-2.61 307.51,64.3l-223.92 139.84 -83.59 -204.14zm3466.7 88.93c16.69,-110.9 155.22,-345.84 209.58,-454.46 213.01,-425.61 158.45,-271.96 308.33,-307.49 65.12,-15.44 45.03,-23.35 113.57,25.88l345.75 287.97c35.85,34.01 39.61,50.08 72.12,85.66 69.9,76.53 99.09,59.99 148.87,167.46l-486.07 665.09c-168.87,-2.33 -129.52,-2.08 -211.54,-90.37 -78.97,-85.05 -395.84,-343.88 -500.61,-379.74zm-4423.59 -291.26c10.74,-6.44 22.36,-11.89 34.45,-16.84 268.29,-109.63 189.59,-54.07 515.52,89.43 286.43,126.12 326.44,6.82 430.46,388.41 -42.67,51.57 -167.2,150.16 -240.82,193.43 -103.24,60.65 -93.37,-58.17 -297.23,58.87 -39.78,-63.87 -70.17,-143.05 -103.31,-201.6 -71.09,-125.62 -281.73,-422.39 -367.52,-490 10.02,-9.96 5.78,-8.1 28.45,-21.7zm310.43 -106.4c58.91,-38.35 197.78,-100.51 272.53,-101.09l240.62 317.45c-127.7,-13.2 -436.67,-149.51 -513.15,-216.36zm-1956.68 -188.08c181.57,-143.32 376.01,-379.34 482.21,-465.05 54.04,-43.61 164.42,-47.25 242.38,-62.36 34.4,52.29 41.59,50.69 80.61,88.4 157.48,152.2 376.78,551.73 453.44,772.76 -115.88,142.04 -144.1,161.96 -268.11,272.21 -223.39,198.6 -270.71,143.32 -360.38,176.86 -3.12,-2.92 -223.95,-395.59 -443.35,-620.85 -56.45,-57.97 -145.66,-105.28 -186.8,-161.97zm2455.18 260.74c-169.5,-286.34 -176.41,-161.57 -245.51,-317.9 114.54,59.87 217.27,141.94 376.1,158.57 -27.63,66.65 -81.39,128.55 -130.59,159.33zm-3504.22 -868.48c56.38,-61.31 20.87,-45.41 101.84,-55.37 58.46,-7.19 66.47,-24.89 111.58,-14.36 97.51,22.8 596.69,587.4 625.45,736.98 -60.07,47.23 -101.66,100.71 -149.13,163.19 -140.34,184.68 -197.9,211.78 -305.41,327.34 -96.16,103.39 -45.37,67.39 -203.32,96.38 -180.73,-258.28 -364.78,-518.97 -659.66,-695.91l478.65 -558.25zm6427.3 1007.32c-5.05,-94.64 61.26,-307.53 81.17,-422.33 41.51,-239.37 -14.55,-226.18 164.82,-343.04 158.43,-103.22 617.52,108.39 794.03,154.11l-393.52 751.33c-56.2,-13.47 -117.04,-49.9 -191.64,-34.77 -110.36,22.35 -25.78,75.23 -161.17,25.47 -100.31,-36.86 -199.24,-87.35 -293.69,-130.77zm-408.45 -157.98c19.06,-117.7 76.59,-250.65 163.31,-307.37 61.22,-40.03 249.3,-153.3 313.18,-168.47 -15.61,123.93 -71.91,507.12 -124.43,594.52 -112.24,-44.03 -191.97,-122.52 -352.06,-118.68zm2097.98 -1061.56c18.5,-28.04 39.5,-70.03 73.27,-85.97 3.01,-1.43 118.9,-29.39 121.9,-29.76 112.39,-13.53 599.65,454.61 656.02,619.28 -37.14,44.89 -48.69,46.75 -84.21,87.78 -21.8,25.21 -40.15,54 -66.91,91.62 -423.04,594.92 -344.14,604.22 -619.23,330.76 -256.19,-254.68 -369.84,-311.85 -499.68,-435.28l418.84 -578.43zm-5164.62 955.3c-27.27,-97.02 -20.94,-199.21 -48.32,-306.89 -23.11,-90.9 -59.52,-177.16 -81.24,-264.79 140.96,119.61 357.61,289.75 423.01,474.56 -100.32,17.73 -213.09,100.14 -293.45,97.12zm-1127.44 -681.44c90.44,-44.09 210.83,-79.19 307.79,-124.98 80.53,-38.04 213.44,-114.86 284.3,-133.81 31.13,28.1 61.73,65.89 95.79,93.96 146.95,121.19 195.97,126.11 258.9,286.1 96.89,246.36 80.56,327.82 131.13,582.86 -34.93,26.49 -225.08,96.05 -278.66,97.45 -64.02,1.66 -73.57,-35.08 -151.32,-25.75 -47.85,5.72 -94.74,44.31 -123.21,61.03 -24.94,-26.5 -131.6,-287.89 -232.07,-447.66 -126.57,-201.27 -178.5,-237.9 -292.65,-389.2zm-1586.98 -169.33c42.26,-74.11 118.83,-110.59 176.61,-180.53 41.73,-50.49 46.59,-42.17 91.74,-83.86 82.07,-75.81 167.23,-199.86 240.68,-288.09 50.84,-61.06 188.22,-54.07 207.14,-45.61 231.97,103.74 475.88,555.97 575.9,779.59 -99.99,99.62 -196.04,193.71 -299.28,296 -257.92,255.6 -178.51,218.24 -365.88,245.39 -66.34,-186.88 -489.13,-642.86 -626.91,-722.89zm2230.13 -110.58c88.48,-39.91 172.42,88.27 189.94,169.06 -44.48,-30.45 -59.89,-37.19 -100.52,-80.56 -24.29,-25.95 -19.26,-20.62 -44.73,-42.82l-44.69 -45.68zm5886.72 -158.14c42.99,-85.59 80.88,-114.47 141.55,-194.11 64.3,-84.43 269.72,-393.54 364.59,-408.68l112.97 -24.66c105.25,-4.32 575.49,538.59 630.92,645.01l-336.62 437.17c-125.81,156.17 -146.89,194.74 -255.33,188.92l-144.78 -188.29c-256.43,-303.44 -284.67,-264.94 -513.3,-455.36zm-1549.85 519.79c243.21,-134.53 176.66,-210.92 293.95,-495.05 70.96,-171.88 166.55,-391.25 256.19,-534.47 63.28,-101.06 21.12,-31.68 134.39,-78.68 62.76,-26.05 48.25,-39.82 124.54,12.05 134.01,91.12 515.17,469.53 563.46,598.19l-511.27 695c-230.96,42.69 -229.56,-6.24 -432.09,-69.9 -127.75,-40.16 -382.18,-80.9 -429.17,-127.14zm-5837.63 -906.37c40.05,-52.65 87.06,-100.72 133.3,-157.25 48.46,-59.26 94.35,-93.36 142.94,-155.68l283.98 -292.75c118.72,74.04 97.86,-14.63 168.66,43.75 169.12,139.5 401.54,576.04 459.62,788.35 53.99,197.32 112.15,183.05 197.83,300.74 -75.76,64.83 -495.27,248.4 -571.84,251.39 -54.13,2.13 -46.09,-16.59 -117.61,-9.31 -56.95,5.79 -39.11,18.14 -107.1,23.84 -108.26,-355.17 -377.87,-605.86 -589.78,-793.08zm-1535.55 -70.3c55.37,-63.21 114.8,-110.66 174.72,-175.08l316.48 -351.5c46.29,-46.16 43.68,-61.2 100.4,-65.1 21.58,-1.48 16.49,6.44 66.91,0.11 112.41,-14.09 95.12,0.47 232.43,138.16 140.98,141.38 381.65,351.93 454.32,539.55 -42.22,44.23 -96.78,102.01 -138.3,156.07 -109.31,142.29 -332.84,329.36 -429.15,446.25l-129.28 0.6c-57.53,-73.79 -81.97,-125.77 -138.42,-199.08 -131.04,-170.11 -180.43,-204.28 -325.56,-342.24 -44.38,-42.21 -147.64,-100.89 -184.55,-147.74zm8136.28 -187.84c27.28,-67.06 23.47,-50.57 76.85,-102.11l357.48 -433.7c84.52,-108.85 46.85,-85.17 175.96,-108.13 99.89,-17.77 135.57,52.03 198.15,109.05l233.81 240.3c69.91,82.93 158.21,182.7 206.87,271.57l-505.02 653.39c-147.18,5.8 -133.33,-47.75 -217.49,-145.15 -130.69,-151.25 -366.41,-407.79 -526.61,-485.22zm-5856.18 -374.45c90.58,-94.46 171.45,-186.38 258.97,-288.66 109.58,-128.02 130.83,-184.24 233.11,-286.31 169.29,114.67 81.39,17.97 139.75,48.59 80.78,61.33 151.46,294.03 185.2,415.32 86.67,311.59 31.99,223.36 43.81,324.1 49.96,426.07 195.67,647.1 162.47,1139.87 -156.82,-158.29 -25.14,-220.89 -335.38,-229.79 -78.63,-97.84 -144.94,-97.16 -193.82,-258.27 -73.91,-243.59 -162.98,-404.71 -304.68,-612.25 -64.39,-94.29 -131.71,-167.13 -189.43,-252.6zm-1519.28 -85.63c210.6,-183.9 345.65,-313.27 521.45,-543.16 157.42,56.13 93.36,-64.06 241.33,52.33 158.26,124.51 477.62,385.9 547.58,558.87l-320.98 345.95c-54.37,70 -105.81,107.43 -160.35,173.56 -82.46,99.99 -47.19,104.4 -210.67,116.77 -92.59,-216.08 -468.71,-546.67 -618.36,-704.32zm8469.76 -769.55c36.46,-38.82 40.89,-46.79 88.26,-42.29 191.97,18.23 67.26,-69.95 271.9,126.47l451.46 489.83c-78.48,99.33 -184.88,248.19 -275.53,350 -166.82,187.32 -184.55,258.94 -352.14,268.2 -41.81,-88.31 -231.94,-318.82 -284.24,-366.75l-324.63 -305.81 424.92 -519.65zm-1535.82 81.6c28.64,-32.8 50.16,-46.04 79.11,-78.5 123.5,-138.45 79.43,-108.05 169.14,-119.67 70.78,-9.17 54.58,-33.24 107.78,-15.53 82.43,27.46 545.12,547.77 590.26,675.06l-460.19 552.07c-59.38,77.97 -78.85,106.76 -204.81,127.83l-566.59 -789.41 285.3 -351.85zm-1503.48 1549.92c-13.8,16.47 -9.5,11.41 -28.91,28.31 -2.47,2.16 -25.81,20.32 -30.1,23.64 -23.09,17.87 -29.65,23.46 -49.18,37.49 -319.88,214.69 -528.42,-25.25 -665.08,129.21 71.33,26.04 122.75,-4.02 204.35,-5.49 76.99,-1.4 120.73,16.62 191.64,20.93 214.58,13.05 508.51,-274.12 668.42,-412.64 265.48,-229.96 102.55,-122.35 261.69,-388.91 55.07,-92.24 430.11,-534.08 510.56,-551.4 151.05,-32.52 43.6,-29.97 141.01,-41.84 100.33,131.49 487.54,661.14 544.64,788.5 -125.65,250.68 -298.94,514.59 -381.2,831.85 -27.38,105.57 -43.08,142.41 -102.74,194.86 -277.63,244.05 -252.27,37.87 -366.64,230.62 -44.79,75.51 -100.96,92.33 -168.06,130.6 -137.11,78.22 -261.05,123.57 -321.02,276.65 -66.34,169.29 -116.13,251.73 -203,394.58 -137.79,226.57 -101.68,222.12 -372.93,231.24 -247.72,8.33 -248.05,84.81 -368.18,221.94 -120.79,-36.13 -236.15,-109.14 -354.45,-139.14 -170.4,-43.23 -251.63,56.05 -366.01,108.46 -49.74,-34.96 -44.88,-50.3 -86.12,-94.01l-274.24 -252.54c-208.85,-187.75 -372.96,41.61 -464.18,-219.75 226.25,-318.11 168.31,-201.05 -51.47,-301.32 -350.97,-160.09 -323.6,-263.93 -395.31,-342.73 -71.9,-79 -214.55,-98.74 -278.49,-214.1 -51.43,-92.76 -24.48,-324.76 -36.73,-454.07 -29.79,-314.59 -128.15,-526.9 -149.45,-849.25 -18.53,-280.2 -155.61,-529.52 -245.7,-740.6 82.9,-59.36 449.72,-519.82 540.79,-627.48 118.39,25.72 25.82,15.03 146.03,9.63 77.81,-3.48 432.07,385.9 503.85,462.36 179.83,191.57 134.34,343.34 362.72,63.52l315.56 -352.34c59.2,-65.47 98.16,-109.83 146.83,-167.74 70.03,19.64 28.04,21.5 68.7,39.51 189.13,83.82 -15.5,-159.94 394.87,253.45 60.14,60.59 143.58,125.2 194.24,192.07 203.34,268.47 141.18,268.61 336.84,86.52 56.23,-52.35 98.87,-91.85 155.26,-143.63 49.99,-45.91 99.57,-105.73 149.84,-148.22 71.56,-60.47 89.94,-60.89 155.89,-142.31l61.8 23.06c51.14,7.32 90.22,-31.68 135.38,-51.35 120.84,84.23 290.25,303.59 394.62,427.6 72.77,86.47 158.84,164.98 199.79,270.46 -130.14,101.71 -168.83,166.05 -277.46,282.97 -412.52,443.96 -240.55,458.31 -449.69,639.28 -96.42,83.44 -201.88,156.66 -298.98,241.55zm-4723.24 -1438.54c33.58,-67.18 438.39,-484.32 537.19,-597.69 167.05,48.7 111.56,-44.63 222.71,66.18 61.36,61.18 125.2,133.36 185.41,184.65 58.44,49.79 320.49,340.05 338.71,395.56 -97.55,99.02 -186.24,226.88 -282.13,343.72 -301.58,367.54 -303.64,266.92 -487.88,43.19 -89.02,-108.14 -401.7,-397.16 -514.01,-435.61zm-1525.31 -128.54c53.09,-60.39 108.87,-108.57 166.74,-169.94l251.12 -258.28c66.95,-70.4 94.49,-138.23 161.99,-140.42 172.26,-5.59 160.04,3.75 300.47,148.14 157.12,161.53 313.27,301.13 446.77,525.93 -38.52,58.36 -102.55,133.79 -148.74,191.5 -47.93,59.89 -104.43,116.39 -151.62,164.58 -153.58,156.8 -225.58,246.41 -384.5,201.84 -73.82,-159.41 -186.71,-263.92 -288.8,-363.88 -63.2,-61.86 -105.1,-103.09 -173.98,-159.84l-179.45 -139.63zm8121.35 -246.02c49.68,-60.37 98.11,-103.92 150.93,-165.45l295.77 -338.08c56.12,-61.88 12.89,-45.66 78.72,-39.35 94.57,9.08 20.12,-6.69 91.93,-9.13 103.43,-3.52 530.87,482.58 602.83,622.3l-289.37 333.36c-156.4,189.89 -176.1,287.51 -315.05,293.83 -47.97,-59.67 -88.48,-126.25 -142.01,-187.34l-155.03 -178.47c-97.11,-119.24 -294.67,-293.86 -318.72,-331.67zm-1408.05 -65.27c30.75,-61.79 105.98,-130.45 149.51,-174.1l151.09 -165.32c149,-178.97 119.05,-196.64 229,-214.35 84.88,-13.7 33.74,-31.45 99.4,-22.81 88.04,11.6 526.03,454.71 597.55,641.85 -98.71,111.91 -209.51,210.93 -298.55,328.42 -137.79,181.82 -180.93,250.51 -335.06,286.06 -97.53,-142.06 -478.13,-613.95 -592.94,-679.75zm-1447.26 -86.13c136.93,-129.41 156.12,-99.91 311.81,-301.09 331.23,-428.06 50.56,-132.56 306.17,-259.13 93.71,48.36 256.58,213.25 320.76,290.76 77.81,93.92 240.85,264.82 272.6,350.58 -37.16,53.18 -38.06,39.9 -87.12,79.61l-231.22 207.58c-96.76,94.71 -185.31,235.72 -310.65,281.08 -78.85,-206.83 -443.94,-479.42 -582.35,-649.39zm-1506.88 -35.6c24.67,-47.32 204.67,-206.75 310.5,-332.47 140.05,-166.4 122.85,-217.62 228.52,-229.43 93.12,-10.39 41.12,-14.19 91.05,-27.82 75.21,-20.54 288.55,188.91 349.6,240.76 90.67,76.99 222.97,210.68 280.72,325.1 -73.71,99.67 -581.77,658.89 -628.46,681.36 -32.06,-26.5 -40.53,-54.43 -70.33,-96.29 -104.37,-146.54 -461.75,-503.53 -561.6,-561.21zm-1356.62 -192.14c68.71,-48.66 256.48,-293.28 316.35,-384.35 43.55,-66.25 22.43,-69.59 189.04,-85.16 76.46,-7.14 286.7,214.77 342.25,272.13 99.41,102.63 221.64,193.66 285.51,348.09 -151.7,159.98 -444.83,551.15 -563.1,650.89 -123.9,-41.82 -85.91,10.23 -207.48,-144.42l-505.76 -538.26 143.19 -118.92zm-1647.06 10.13c324.9,-312.66 215.15,-185.84 477.18,-493.4 63.74,-74.8 24.54,-40.04 93.68,-44.65 158.83,-10.63 124.69,-58.25 449.9,293.73 95.07,102.89 205.39,202.96 275.24,347.79l-309.61 335.24c-201.89,185.02 -161.75,275.41 -374.34,268.73 -51.35,-145.35 -342.43,-431.36 -454.62,-545.51 -31.41,-31.96 -40.36,-47.42 -74.13,-83.66 -37.59,-40.31 -50.59,-35.62 -83.3,-78.27zm8079.38 -323.53c23.66,-28.3 41.9,-48.25 64.37,-75.73 383.39,-469.4 230.17,-288.46 487.14,-409.78 136.85,61.82 351.17,330.74 472.45,459.34 55.23,58.53 90.91,100.23 130.67,173.99l-510.99 614.82 -95.5 -0.46c-75.26,-139.65 -433.88,-530.65 -525.81,-594.62 -44.53,-30.98 -52.32,-29.29 -89.96,-72.46l67.63 -95.1zm-1180.94 -319.29c50.44,-61.48 83.88,-108.72 152.43,-165.37 72.61,-60.02 29.33,-22.3 102.58,-28.33 60.04,-4.93 52.3,-25.85 100.72,-16 58.01,11.8 553.99,478.33 591.53,631 -63.39,36.19 -233.73,245.66 -285.1,310.81 -57.5,72.96 -62.43,85.46 -144.6,154.25 -164.36,137.59 -137.18,185.2 -252.09,11.24 -189.33,-286.59 -415.02,-424 -558.04,-571.08l292.57 -326.52zm-1301.85 -248.59c86.96,-96.08 29.61,-3.47 205.21,-77.57 113.9,52.4 533.03,472.39 606.64,670.25 -22.92,34.59 -46.24,56.42 -66.95,82.59 -33.24,42.02 -41.56,56.63 -67.99,90.45l-137.34 161.06c-283.38,305.3 -198.18,188.76 -367.24,239.14 -99.67,-126.16 -192.2,-237.15 -291.24,-354.9 -103.37,-122.95 -261.92,-236.6 -317.28,-301.09l436.19 -509.93zm-1901.47 434.53c34.58,-80.76 282.97,-301.8 328.25,-355.11l180.16 -204.96c92.78,44.72 17.68,46.35 140.25,19.43 52.78,-11.59 60.02,10.53 103.44,49.53 80.33,72.16 489.82,500.05 522.31,578.98 -53.03,86.17 -194.48,286.84 -257.34,351.74 -163.82,169.19 -293.13,303.68 -459.98,73.34 -84.23,-116.31 -276.83,-280.68 -391.49,-381.71 -42.76,-37.69 -128.68,-87.99 -165.6,-131.24zm-213.74 0c-74.67,150.21 -293.97,396.23 -402.93,492.69 -72.71,64.39 -85.26,124.33 -209.24,84.93 -50.16,-15.94 -21.47,9.1 -63.28,-41.79 -277.04,-337.23 -34.63,-97.79 -431.07,-465.49 -155.96,-144.65 -199.66,-119.43 -74.2,-232.64 80.32,-72.45 135.32,-162.93 205.98,-233.77l211.03 -227.84c50.74,7.64 21.25,17.16 82.47,41.98 37.64,-44.83 24.66,-36.43 84.71,-51.51l596.53 633.44zm-2770.9 -140.56c26.2,-73.7 97.48,-108.26 154.69,-174.36l305.04 -346.14c67.44,-63.88 80.03,-52.01 225.89,-60.62l388.27 398.43c68.43,88.05 179.74,176.59 212.54,270.54 -74.43,118.96 -206.81,277.86 -289.49,369.26 -40.32,44.56 -195.98,211.48 -249.6,223.15l-98.86 -10.41c-42.62,-19.49 -110.07,-134.71 -168.58,-205.07l-308.06 -324.53c-50.19,-49.3 -111.44,-75.93 -171.84,-140.25zm-1010.59 -652.27c208.04,48.12 116.49,-65.95 263.76,58.66 176.42,149.27 406.47,403.02 541.56,593.61 -86.04,166.1 -316.68,365.95 -448.79,492.57 -87.27,83.63 -77.26,74.85 -219.75,73.26 -98.57,-300.23 -601.16,-652.02 -642.14,-706.41l505.36 -511.69zm7573.27 378.09c23.1,-54.06 267.05,-326.55 332.65,-399.71 122.68,-136.86 67.76,-167.86 174.06,-164.8 64.32,1.84 25.6,2.45 95.42,-45.94 154.77,54.26 539.81,457.8 598.68,638.61 -28.22,36.42 -99.92,113.36 -134,148.52 -57.62,59.46 -72.86,82.69 -131.75,149.07l-238.83 301.04c-133.29,0.61 -134.38,-81.21 -192.23,-149.2 -87.6,-102.98 -405.41,-430.46 -504,-477.59zm-1145.17 -471.6c55.98,-55.57 100.53,-110.71 154.67,-162.55 60.89,-58.24 191.94,-43.17 193.04,-42.82 52.68,16.85 261.45,271.75 307.34,321.41 94.03,101.71 223.95,186.29 287.13,331.01 -74.39,101.1 -432.84,450.62 -506.66,564.83 -208.87,9.3 -77.62,-26.93 -294.94,-240.86 -107.09,-105.4 -141.71,-170.46 -251.39,-275.57 -60.49,-57.97 -113.32,-89.05 -181.98,-153.83l292.79 -341.62zm-1258.98 -257.07c138.16,-3.19 40.81,28.44 177.2,-31.61 169.43,103.44 559.28,516.3 594.33,650.95l-303.87 322.09c-48.67,59.43 -95.96,116.23 -143.21,173.82 -42.87,52.25 -99.55,123.62 -181.86,79.58l-602.04 -631.29c50.88,-85.93 386.48,-403.83 459.45,-563.54zm-1945.84 475.69c17.9,-27.2 371.42,-330.39 508.48,-541.46 63.66,19.81 19.2,24.19 85.79,45.93 39.34,-38.16 18.6,-31.68 70.28,-47.94 176.96,141.65 492.15,410.87 598.56,596.18l-450.3 499.67c-97.85,87.27 -31.17,96.43 -200.97,97.56 -50.01,-52.33 -98.08,-114.2 -144.29,-171.65l-467.55 -478.29zm-993.27 -623.48c181.98,30.44 112.21,-73.39 267.68,45.54 125.01,95.64 465.46,421.3 510.41,580.98l-158.15 153.66c-54.01,58.21 -88.99,115.28 -146.92,169.97 -296.17,279.62 -128.66,237.3 -367.98,258.5 -60.04,-148.52 -331.49,-389.43 -453.23,-511.98l-153.91 -161.06c51.04,-73.38 189.51,-163.51 271.89,-253.85 99.41,-108.98 189.58,-177.8 230.21,-281.76zm-2008.45 447.8c44.94,-54.88 287.17,-256.16 360.72,-353.87l114.14 -149.67c37.64,-57.98 69.2,-87.4 186.72,-86.17 139.77,1.46 515.01,467.95 629.34,659.96 -55.43,107.57 -364.78,405.17 -462.49,518.17 -178.24,206.14 -194.64,77.11 -505.73,-267.25l-322.7 -321.17zm-972.73 488.57l0 169.99 170.5 -32.91c157.83,-35.13 622.48,537.98 673.02,657.06 -23.23,38.01 -116.67,128.81 -157.93,176.25 -35.07,40.3 -53.8,46.95 -92.7,82.82 -192.3,177.27 -248.42,366.29 -469.89,359.46 -45.9,-59.8 -68.11,-96.93 -123,-142.29l0 72.96c49.29,45.82 59.65,43.91 75.23,123.68l-75.23 62.76 0 69.88c19.99,-18.63 38.53,-41.61 58.56,-62.59 41.66,-43.62 -3.56,-24.41 58.41,-32.6 152.67,-20.17 177.21,-52.35 400.47,160.66 98.26,93.74 334.91,308.44 383.51,464.48l-328.58 361.46c-160.62,186.09 -214.1,268.26 -400.81,275 -24.27,-63.32 -115.86,-189.99 -171.56,-223.18l0 66.98c49.03,47.66 115.54,115.37 139.4,187.48 -32.84,48.57 -95.52,127.93 -139.4,170.22l0 68.13c90.85,-58 97.61,-168.95 179.65,-180.87l136.69 -19.67c61.57,4.96 278.92,203.49 318.37,241.31 79.78,76.48 264.25,287.44 322.1,423.76 -92.64,124.04 -199.38,253.03 -308.4,367.18 -182.39,190.98 -172.92,275.3 -384.83,285.02 -76.94,-77.71 -166.19,-233.38 -263.58,-301.01l0 64.13c57.5,34 81.12,80.59 131.1,138.73 31.98,37.23 80.96,93.45 97.86,153.5 -95.04,83.07 -131.05,169.26 -228.96,253.12l0 67.83c65.68,-35.72 57.43,-55.22 132.76,-140.1 31.51,-35.53 91.5,-106.31 113.82,-149.02 187.15,3.71 124.97,-77.57 280.21,51.44 186.77,155.23 432.24,394.83 535.76,609.05l-148.75 216.74c-58.29,90.37 -84.14,118.35 -158.41,192.78 -258.77,259.37 -199.33,248.14 -438.78,278.78 -44.23,-66.09 -101.13,-124.33 -157.1,-191.46 -65.42,-78.47 -78.95,-98.31 -159.51,-168.39l0 59.65c57.59,35.14 242.52,258.22 284.68,338.23l-284.68 318.91 0 68.85c52.1,-32.59 269.77,-286.41 315.8,-351.39 201.94,11.53 121.55,-75.45 271.91,60.95 158.98,144.25 438.35,403.88 521.17,605.57 -31.1,42.63 -58.23,55.29 -98.63,96.42l-297.17 342.88 61.62 0 293.02 -338.93c73.55,-67.36 54.51,-23.13 142.77,-33.82 114.02,-13.83 47.77,-67.19 230.89,126.19 46.97,49.61 155.09,185.28 186.5,246.56l50.54 0c-36.52,-67.79 -115.92,-169.07 -167.66,-227.93 -66.83,-76.05 -59.11,-85.69 -140,-158.7 -4.5,-4.07 -23.44,-20.84 -27.38,-24.82 -19.42,-19.73 -11.24,-8.83 -24.02,-27.85 178.63,-166.26 326.79,-363.99 481.6,-536.04 94.29,-104.8 51,-70.8 193.66,-83.07 130.42,-11.2 558.26,626.3 607.57,742.11 -141.58,163.75 -134.85,92.92 -291.99,316.3l60.67 0c21.34,-43.6 129.91,-149.43 167.6,-185.64 15.07,-14.5 29.1,-29.59 45.67,-43.09 52.12,-42.42 12.64,-12.8 192.24,-33.42 90.44,90 151.09,153.05 220.04,262.15l54.48 0c-65.63,-104.34 -165.25,-210.55 -236.73,-298.73 113,-128.69 292.97,-258.98 495.03,-521.37 38.35,-49.79 24.41,-59.73 99.94,-80.51 174.3,-47.93 142.07,-91.4 477.88,282.1 84.16,93.62 232.4,262.5 286.69,402.71 -34.64,45.7 -42.92,52.97 -88.75,100.89 -34.07,35.63 -51.45,64.32 -86.14,114.91l61.16 0c9.91,-20.99 91.71,-124.36 106.24,-138.82 58.46,-58.13 10.99,-17.57 85.01,-33.31 45.63,-9.7 71.28,-26.07 106.63,-39.73 86.73,45.69 179.38,141.16 223.48,211.86l59.36 0c-29.99,-61.87 -133.23,-159.83 -195.77,-210.1l-42.34 -35.91c63.82,-94.03 167.28,-160.69 240.45,-242.13 53.58,-59.64 194.21,-201.34 223.75,-269.46 159.64,35.71 107.49,30.23 229.01,-63.64 121.78,39.83 560.3,501.44 602.21,663.09 -41.79,55.84 -93.23,90.89 -131.87,158.15l58.3 0c13.4,-25.35 19.16,-39.37 40.38,-64.31 65.83,-77.38 53.49,-17.76 135.65,-41.11 28.79,-8.16 33.65,-18.28 71.61,-33.57 60.48,68.72 93.13,58.46 139.05,138.99l61.42 0c-80.28,-93.49 -147.48,-129.18 -173.51,-199.97 76.81,-53.35 246.01,-238.78 320.83,-327.62 26.35,-31.28 36.16,-50.13 60.9,-80.1 43.05,-52.13 89.73,-116.47 133.01,-149.99 41.99,32.97 49.78,71.11 123,99.5 67.79,-33.17 44.36,-40.1 105.43,-65.57 76.88,54.3 82.52,75.07 144.88,139.59 125.81,130.12 337.8,296.62 420.87,461.16 -31.13,46.06 -58.81,65.14 -100.44,123l53.65 0 62.05 -69.14c87.53,5.95 71.74,23.71 157.02,-21.32l104.33 90.46 65.5 0c-50.21,-61.08 -62.14,-83.57 -136.74,-118.15l511.63 -636.91c70.63,23.36 13.48,12.77 87.87,62.79 41.21,-12.58 48.46,-20.2 91.8,-29.25 94.5,103.02 572.82,497.85 608.3,602.97 -58.76,44.9 -76.79,52.17 -117.21,118.55l53.47 0c33.14,-50.19 38.82,-44.43 84.09,-82.8 127.42,37.37 37.73,23.44 158.15,-1.86 63.44,42.07 48.3,29.42 98.21,84.66l66.96 0c-37.12,-63.77 -77.88,-72.23 -138.59,-128.99 74.42,-97.18 162.6,-190.08 243.58,-303.61 459.32,-643.95 113.81,-182.53 380,-362.52 181.01,79.05 571.91,481.51 644.5,672.45 -55.33,46.54 -75.86,53.27 -112.03,122.67l50.53 0 50.07 -67.39c128.8,-6.65 27.42,23.12 150.28,-28.93 69.85,33.38 76.59,40.96 124.94,96.32l64.21 0c-29.31,-49.4 -24.69,-36.79 -73.59,-73.77 -35.26,-26.68 -59.12,-40.43 -82.78,-66.55 43.25,-81.82 117.12,-142.79 185.47,-204.22l0 -60.65c-110.94,77.74 -180.66,255.69 -309.78,258.03 -163.6,-222.67 -292.57,-440.65 -555.6,-621.48 -39.99,-27.5 -73.44,-43.62 -107.51,-74.82 52.12,-104.03 345.82,-495.74 425.5,-584.36 61.86,-68.78 42.7,-18.39 140.29,-35.15 76.91,-13.21 112.69,28.76 162.87,73.08 94.21,83.18 142.32,176.24 244.23,264.74l0 -62.35 -343.45 -336.75 343.45 -411.4 0 -66.66c-63.39,54.04 -148.4,175.3 -208.32,247.46 -232.12,279.5 -196.48,295.79 -382.48,43.51 -47.66,-64.67 -114.48,-107.25 -168.24,-165.6 -145.93,-158.41 -332.42,-267.66 -357.65,-298.38 23.32,-45.38 86.27,-124.51 121.33,-173.17 40.93,-56.81 73.72,-109.04 115.41,-165.92 205.44,-280.37 151.78,-275.8 310.9,-296.29 74.62,-9.62 -5.43,-6.63 48.02,-10.98 53.17,-4.35 42.06,-0.51 89.03,36.85l293.86 269.32c54.84,58.76 87.29,119.3 138.14,152.07l0 -59.22c-2.93,-3.17 -6.74,-7.72 -8.55,-9.72l-111.29 -119.06c-75.08,-80.01 -337.91,-296.4 -359.05,-338.81 80.93,-42.24 71.03,-66.25 128.46,-131.35 107.87,-122.32 273.38,-372.41 350.43,-430.74l0 -120.73c-38.43,-29.53 -104.76,-124.19 -138.2,-172.12 -39.49,-56.62 -106.51,-110.78 -152.67,-163.62 -80.76,-92.43 -205.69,-227.65 -326.54,-283.73 13.98,-43.25 203.84,-231.22 293.53,-348.74 258.02,-338.1 104.02,-159.36 323.88,-255.35l0 -65.96c-128.09,39.66 -155.79,-37.06 -214.16,-106.99 -113.02,-135.42 -199.94,-199.69 -340.99,-361.89 -55.82,-64.21 -124.29,-101.53 -172.06,-168.56 33.59,-56.34 35,-39.72 79.91,-84.91l146.26 -170.02c31.27,-37.29 30.02,-45.36 70.4,-87.88 174.97,-184.32 96.5,-193.82 237.58,-214.4 71.56,-10.45 15.82,-13.5 91.27,-35.57l101.79 59.29 0 -40.21 -85.7 -58.89c30.71,-67.48 34.28,-52.22 85.7,-98.89l0 -60.21c-61.11,44.8 -97.81,143.01 -193.29,151.61 -52.47,-20.81 -114.72,-135.2 -149.12,-177.24l-314.1 -335.89c-54.88,-49.36 -124.56,-90.14 -172.41,-147.13 100.03,-156.53 96.46,-43.96 188.79,-181.77 46.18,-68.9 213.08,-290.56 286.95,-315.17 44.48,-14.81 109.83,-39.58 132.42,-34.52 67.71,15.2 175.32,146.75 220.76,169.24l0 -49.04 -184.88 -151.05c15.66,-104.51 99.82,-171.84 184.88,-242.87l0 -61c-96,55.7 -193.54,264.21 -316.29,281.48 -21.59,-14.37 -194.88,-237.03 -218.59,-268.38 -70.13,-92.73 -163.42,-169.59 -218.17,-253.95l-67.26 0c39.62,53.33 192.54,136.86 442.74,527.16l-263 308.13c-138.53,163.14 -173.58,250.13 -325.88,258.51 -47.09,-55.87 -83.17,-128.38 -130.57,-190.01 -160.06,-208.17 -252.07,-298.65 -485.05,-464.5 24.42,-69 283.2,-343.51 372.48,-421.96 2.22,-1.96 8.97,-2.7 10.61,-8.7 1.66,-6.06 7.27,-5.74 10.89,-8.63l-84.46 0c-100.3,142.27 -143.89,155.16 -201.92,229.82 -233.71,300.74 -242.17,205.12 -330.79,81.78 -88.79,-123.58 -224.33,-247.5 -265.45,-311.6l-44.33 0c27.72,40.06 56.98,82.93 85.75,114.93 129.39,143.87 116.46,85.57 257.14,324.36 -28.34,59.24 -212.81,293.75 -258.56,341.62 -170.59,178.4 -179.42,252.6 -341.5,256.01l-466.48 -517.91c-47.8,-61.3 -123.03,-113.36 -156.42,-167.57 32.03,-55.15 45.78,-48.56 86.97,-96.48 28.72,-33.41 40.99,-57.9 69.95,-88.73 64.15,-68.29 96.76,-94.11 144.02,-166.23l-55.76 0c-55.98,72.84 -88.41,108.82 -158.44,184.11 -31.14,33.48 -48.98,64.38 -76.79,99.11 -144.36,180.33 -221.28,-87.02 -352.86,-195.8 -48.97,-40.48 -46.66,-31.97 -75.25,-87.42l-44.23 0c70.86,109.17 224.74,219.98 277.51,351.44l-447.63 483.96c-66.46,74.67 -40.76,96.97 -177.24,104.32 -37.49,-36.96 -33.74,-45.61 -65.87,-91.4 -93.47,-133.23 -161.57,-173.72 -220.21,-253.97 -108,-147.78 -278.14,-241.73 -319.45,-313.21l222.19 -281.14 -52.44 0c-36.19,60.6 -83.93,101.56 -130.9,161.73 -64.83,83.05 -51.17,99.36 -197.18,104.04l-234.44 -265.77 -50.46 0c54.53,101.46 202.66,170.32 233.74,305.22l-434.21 509.78c-149.58,157.55 -240.63,5.33 -357.5,-129.76 -146.03,-168.77 -449.28,-424.3 -465.7,-445.55 61.35,-79.57 145.1,-158.95 196.19,-239.69l-55.34 0c-26.83,53.15 -63.51,77.5 -106.56,131.55 -54.54,68.47 -60.39,86.5 -166.62,85.39 -51.39,-30.09 -159.27,-176.68 -187.19,-216.94l-54.89 0c30.29,51.65 47.94,64 91.69,115.08 24.59,28.7 54.14,71.34 81.26,113.35 -20.54,57.68 -236.19,303.41 -283.19,350.56 -372.88,374.18 -354.12,207.91 -508.57,18.25 -52.71,-64.74 -100.25,-118 -150.21,-166.15l-329.39 -290.51c51.9,-65 96.51,-65.8 135.65,-140.58l-52.36 0c-27.03,49.39 -13,30.33 -61.31,69.73 -86.74,70.73 -50.56,54.43 -197.72,57.8 -13.78,-45.06 -45.24,-86.17 -67.82,-127.53l-57.48 0c37.24,62.81 61.26,86.92 87.46,155.61l-278.8 331.22c-157.32,148.12 -217.69,227.67 -381.2,217.79 -48.5,-62.38 -90.36,-135.44 -136.28,-199.1 -131.78,-182.63 -152.05,-160.83 -243.76,-266.22 -126.35,-145.19 -211.41,-171.97 -259.61,-239.3l-203.8 0c-9.77,113.55 -336.13,433.2 -439.28,527.29 -92.4,84.25 -49.96,102.34 -190.79,100.93 -112.89,-1.11 -105.63,-62.04 -176.28,-138.17 -53.9,-58.1 -103.72,-99.7 -160.23,-156.09l-306.64 -333.96 -73.26 0 462.49 479.62c62,58.86 87.95,112.57 142.67,170.54 -39.28,80.09 -171.21,180.41 -254.28,269.54 -28.95,31.08 -43.17,55.49 -72.62,85.39 -39.5,40.08 -142.97,142.59 -183.69,168.56 -131.38,83.73 -196.56,-9.78 -224.14,-34.87z"/>
      <path class="fil7" d="M3932.44 4095.26l44.69 45.68c25.47,22.2 20.44,16.87 44.73,42.82 40.63,43.37 56.04,50.11 100.52,80.56 -17.52,-80.79 -101.46,-208.97 -189.94,-169.06z"/>
      <path class="fil7" d="M11086.25 1395.36l0 -157.78c-51.42,46.67 -54.99,31.41 -85.7,98.89l85.7 58.89z"/>
     </g>
    </g>
   </g>
   <polygon class="fil1 str1" points="1058.33,1068.68 9524.99,1068.68 9524.99,6498.38 1058.33,6498.38 "/>
  </g>
 </g>
</svg>
