<?xml version="1.0" encoding="UTF-8"?>
<!DOCTYPE svg PUBLIC "-//W3C//DTD SVG 1.1//EN" "http://www.w3.org/Graphics/SVG/1.1/DTD/svg11.dtd">
<!-- Creator: CorelDRAW 2017 -->
<svg xmlns="http://www.w3.org/2000/svg" xml:space="preserve" width="105.833mm" height="75.4062mm" version="1.1" shape-rendering="geometricPrecision" text-rendering="geometricPrecision" image-rendering="optimizeQuality" fill-rule="evenodd" clip-rule="evenodd"
viewBox="0 0 10583.32 7540.62"
 xmlns:xlink="http://www.w3.org/1999/xlink">
 <defs>
    <mask id="id0">
      <linearGradient id="id1" gradientUnits="userSpaceOnUse" x1="4429.94" y1="1380.82" x2="5359.64" y2="4980.15">
       <stop offset="0" stop-opacity="1" stop-color="white"/>
       <stop offset="0.180392" stop-opacity="0.501961" stop-color="white"/>
       <stop offset="1" stop-opacity="0" stop-color="white"/>
      </linearGradient>
     <rect fill="url(#id1)" x="2287.36" y="2111.58" width="4364.77" height="3686.22"/>
    </mask>
 </defs>
 <g id="Слой_x0020_1">
  <metadata id="CorelCorpID_0Corel-Layer"/>
  <rect fill="none" x="1058.33" y="1486.96" width="7789.34" height="4995.33"/>
  <g id="_869184957952">
   <rect fill="#FFE8B1" transform="matrix(6.24374E-14 -1.1908 2.3575 3.15378E-14 1581.11 5927.64)" width="4093.94" height="3369.62"/>
   <rect fill="none" x="1058.34" y="1052.57" width="8466.66" height="5429.7"/>
   <rect fill="#999999" transform="matrix(2.94759E-14 -1.18085 1.12232 3.15376E-14 1058.58 5928.08)" width="4128.82" height="465.58"/>
   <rect fill="#CCCCCC" transform="matrix(2.97242E-14 -1.12232 1.12232 2.97243E-14 1058.58 4492.56)" width="2370.67" height="465.58"/>
   <rect fill="#C8F4FF" transform="matrix(1.20213E-13 -4.53898 1.12232 2.97243E-14 1256.45 4492.56)" width="586.18" height="127"/>
   <rect fill="white" transform="matrix(1.83875E-13 -6.86972 1.58148 4.14444E-14 1225.91 4464.51)" width="383.22" height="19.53"/>
   <rect fill="white" transform="matrix(4.10617E-13 -15.504 1.24083 3.28628E-14 1058.58 4492.21)" width="1.83" height="420.6"/>
   <rect fill="#999999" x="1058.34" y="5928.08" width="8466.67" height="554.21"/>
   <rect fill="#F3DFC7" x="1581.11" y="5847.76" width="7943.89" height="141.03"/>
   <rect fill="white" stroke="black" stroke-width="7.62" stroke-miterlimit="22.9256" transform="matrix(2.97242E-14 -1.12232 1.12232 2.97243E-14 2582.5 2179.18)" width="461.23" height="1165.78" rx="60" ry="60"/>
   <rect fill="black" transform="matrix(2.97242E-14 -1.12232 1.12232 2.97243E-14 2679.24 2056.2)" width="13.23" height="1002.78"/>
   <g>
    <path fill="#185E70" d="M4084.32 5388.92l4168.02 0 0 376.97c0,46.77 -38.27,85.06 -85.07,85.06l-3997.87 0c-46.8,0 -85.08,-38.29 -85.08,-85.06l0 -376.97z"/>
    <path fill="#BFF2FF" stroke="#185E70" stroke-width="7.62" stroke-miterlimit="22.9256" d="M4541.74 5439.04l1020.84 0 0 -894.06c0,-85.43 -69.89,-155.3 -155.31,-155.3l-710.22 0c-85.43,0 -155.31,69.87 -155.31,155.3l0 894.06z"/>
    <path fill="#BFF2FF" stroke="#185E70" stroke-width="7.62" stroke-miterlimit="22.9256" d="M6758.67 5439.04l1026.53 0 0 -900.49c0,-85.9 -70.26,-156.18 -156.17,-156.18l-714.18 0c-85.9,0 -156.18,70.28 -156.18,156.18l0 900.49z"/>
    <path fill="#BFF2FF" stroke="#185E70" stroke-width="7.62" stroke-miterlimit="22.9256" d="M5723.82 4389.68l873.61 0c88.69,0 161.24,72.56 161.24,161.25l0 888.11 -1196.09 0 0 -888.11c0,-88.69 72.55,-161.25 161.24,-161.25z"/>
    <path fill="#0099BA" stroke="#185E70" stroke-width="7.62" stroke-miterlimit="22.9256" d="M5606.29 5148.37l1104.29 0c25.24,0 45.88,20.64 45.88,45.89l0 241.71 -1196.05 0 0 -241.71c0,-25.25 20.64,-45.89 45.88,-45.89z"/>
    <path fill="#0099BA" stroke="#185E70" stroke-width="7.62" stroke-miterlimit="22.9256" d="M6801.33 5151.6l1448.65 0c24.68,0 44.87,20.19 44.87,44.86l0 197.09c0,25.03 -20.47,45.49 -45.5,45.49l-1492.89 0 0 -242.58c0,-24.67 20.19,-44.86 44.87,-44.86z"/>
    <path fill="#185E70" d="M4086.64 5145.57l455.1 0 0 -376.49c0,-8.33 -6.83,-15.15 -15.17,-15.15l-212.38 0c-125.15,0 -227.55,102.39 -227.55,227.53l0 164.11z"/>
    <path fill="#185E70" d="M7783.38 5148.91l455.09 0 0 -164.11c0,-125.14 -102.39,-227.53 -227.54,-227.53l-227.55 0 0 391.64z"/>
    <path fill="#0099BA" stroke="#185E70" stroke-width="7.62" stroke-miterlimit="22.9256" d="M4076.94 5436.67l1483.1 0 0 -242.69c0,-25 -20.46,-45.47 -45.46,-45.47l-1437.23 0c-25.01,0 -45.47,20.47 -45.47,45.47l0 197.64c0,24.78 20.28,45.05 45.06,45.05z"/>
   </g>
   <path fill="#71E2FF" mask="url(#id0)" d="M2305.31 2813.59c18.8,-163.08 101.98,-462.26 277.19,-701.76l1308.38 0c378.54,284.31 510.41,814.98 640.28,1218.27 513.45,1016.44 1355.59,257.53 2120.72,1365.31l-1238.82 1102.14c-303.75,-353.04 -1223.42,-288.12 -1798.22,-646.21 -870.88,-515.73 -1436.18,-1234.28 -1309.53,-2337.75z"/>
   <rect fill="#999999" transform="matrix(2.94759E-14 -1.18085 1.12232 3.15376E-14 1058.58 5928.08)" width="4128.82" height="465.58"/>
   <rect fill="#CCCCCC" transform="matrix(2.97242E-14 -1.12232 1.12232 2.97243E-14 1058.58 4492.56)" width="2370.67" height="465.58"/>
   <rect fill="#C8F4FF" transform="matrix(1.20213E-13 -4.53898 1.12232 2.97243E-14 1256.45 4492.56)" width="586.18" height="127"/>
   <rect fill="white" transform="matrix(1.83875E-13 -6.86972 1.58148 4.14444E-14 1225.91 4464.51)" width="383.22" height="19.53"/>
   <rect fill="white" transform="matrix(4.10617E-13 -15.504 1.24083 3.28628E-14 1058.58 4492.21)" width="1.83" height="420.6"/>
   <rect fill="#F3DFC7" x="1581.11" y="5847.76" width="7943.89" height="141.03"/>
   <rect fill="white" stroke="black" stroke-width="7.62" stroke-miterlimit="22.9256" transform="matrix(2.97242E-14 -1.12232 1.12232 2.97243E-14 2582.5 2179.18)" width="461.23" height="1165.78" rx="60" ry="60"/>
   <rect fill="black" transform="matrix(2.97242E-14 -1.12232 1.12232 2.97243E-14 2679.24 2056.2)" width="13.23" height="1002.78"/>
   <g>
    <path fill="#185E70" d="M4084.32 5388.92l4168.02 0 0 376.97c0,46.77 -38.27,85.06 -85.07,85.06l-3997.87 0c-46.8,0 -85.08,-38.29 -85.08,-85.06l0 -376.97z"/>
    <path fill="#BFF2FF" stroke="#185E70" stroke-width="7.62" stroke-miterlimit="22.9256" d="M4541.74 5439.04l1020.84 0 0 -894.06c0,-85.43 -69.89,-155.3 -155.31,-155.3l-710.22 0c-85.43,0 -155.31,69.87 -155.31,155.3l0 894.06z"/>
    <path fill="#BFF2FF" stroke="#185E70" stroke-width="7.62" stroke-miterlimit="22.9256" d="M6758.67 5439.04l1026.53 0 0 -900.49c0,-85.9 -70.26,-156.18 -156.17,-156.18l-714.18 0c-85.9,0 -156.18,70.28 -156.18,156.18l0 900.49z"/>
    <path fill="#BFF2FF" stroke="#185E70" stroke-width="7.62" stroke-miterlimit="22.9256" d="M5723.82 4389.68l873.61 0c88.69,0 161.24,72.56 161.24,161.25l0 888.11 -1196.09 0 0 -888.11c0,-88.69 72.55,-161.25 161.24,-161.25z"/>
    <path fill="#0099BA" stroke="#185E70" stroke-width="7.62" stroke-miterlimit="22.9256" d="M5606.29 5148.37l1104.29 0c25.24,0 45.88,20.64 45.88,45.89l0 241.71 -1196.05 0 0 -241.71c0,-25.25 20.64,-45.89 45.88,-45.89z"/>
    <path fill="#0099BA" stroke="#185E70" stroke-width="7.62" stroke-miterlimit="22.9256" d="M6801.33 5151.6l1448.65 0c24.68,0 44.87,20.19 44.87,44.86l0 197.09c0,25.03 -20.47,45.49 -45.5,45.49l-1492.89 0 0 -242.58c0,-24.67 20.19,-44.86 44.87,-44.86z"/>
    <path fill="#185E70" d="M4086.64 5145.57l455.1 0 0 -376.49c0,-8.33 -6.83,-15.15 -15.17,-15.15l-212.38 0c-125.15,0 -227.55,102.39 -227.55,227.53l0 164.11z"/>
    <path fill="#185E70" d="M7783.38 5148.91l455.09 0 0 -164.11c0,-125.14 -102.39,-227.53 -227.54,-227.53l-227.55 0 0 391.64z"/>
    <path fill="#0099BA" stroke="#185E70" stroke-width="7.62" stroke-miterlimit="22.9256" d="M4076.94 5436.67l1483.1 0 0 -242.69c0,-25 -20.46,-45.47 -45.46,-45.47l-1437.23 0c-25.01,0 -45.47,20.47 -45.47,45.47l0 197.64c0,24.78 20.28,45.05 45.06,45.05z"/>
   </g>
  </g>
 </g>
</svg>
