<?xml version="1.0" encoding="UTF-8"?>
<!DOCTYPE svg PUBLIC "-//W3C//DTD SVG 1.1//EN" "http://www.w3.org/Graphics/SVG/1.1/DTD/svg11.dtd">
<!-- Creator: CorelDRAW 2017 -->
<svg xmlns="http://www.w3.org/2000/svg" xml:space="preserve" width="105.833mm" height="75.4062mm" version="1.1" style="shape-rendering:geometricPrecision; text-rendering:geometricPrecision; image-rendering:optimizeQuality; fill-rule:evenodd; clip-rule:evenodd"
viewBox="0 0 10583.32 7540.62"
 xmlns:xlink="http://www.w3.org/1999/xlink">
 <defs>
  <style type="text/css">
   <![CDATA[
    .str2 {stroke:#2B2A29;stroke-width:20;stroke-miterlimit:22.9256}
    .str1 {stroke:black;stroke-width:20;stroke-miterlimit:22.9256}
    .str0 {stroke:black;stroke-width:7.62;stroke-miterlimit:22.9256}
    .fil8 {fill:none}
    .fil7 {fill:#2B2A29}
    .fil10 {fill:black}
    .fil13 {fill:black}
    .fil5 {fill:gray}
    .fil9 {fill:#89D0FC}
    .fil6 {fill:#A19F9F}
    .fil1 {fill:#A19F9F}
    .fil11 {fill:#E0E0E0}
    .fil4 {fill:#E0E0E0}
    .fil2 {fill:#F7F7F7}
    .fil3 {fill:#F7F7F7}
    .fil0 {fill:#FFD365}
    .fil12 {fill:white}
    .fil14 {fill:white}
   ]]>
  </style>
 </defs>
 <g id="Слой_x0020_1">
  <metadata id="CorelCorpID_0Corel-Layer"/>
  <g id="_561995429648">
   <rect class="fil0 str0" x="1045.36" y="1081.65" width="8486.67" height="5442.5"/>
   <polygon class="fil1 str1" points="801.33,5796.56 5441.02,4740.05 6460.78,5480.51 1813.69,6537.53 "/>
   <polygon class="fil2 str2" points="2615.67,5041.16 3683.99,4804.46 3683.03,5755.9 2618.6,5998.72 "/>
   <polygon class="fil3 str2" points="2615.67,5041.16 2353.42,4915.32 3386.37,4680.89 3683.51,4797.23 "/>
   <polygon class="fil3 str2" points="2615.67,5041.17 2618.6,5998.71 2370.7,5791.87 2353.42,4915.32 "/>
   <path class="fil4 str2" d="M2935.16 5156.47c-237.64,218.74 -38.45,743.98 396.56,525.49 382.24,-191.99 163.55,-682.73 -152.35,-640.56 -29.37,3.92 -141.61,26.32 -244.21,115.07z"/>
   <polygon class="fil1 str1" points="798.79,4119.61 5438.48,3063.11 6458.24,3803.57 1811.15,4860.58 "/>
   <polygon class="fil5 str1" points="1811.15,4860.58 6458.24,3803.57 6456.81,4022.04 1811.15,5114.22 "/>
   <polygon class="fil5 str1" points="794.17,4120.22 1806.53,4865.31 1806.53,5114.83 794.65,4367.12 "/>
   <polygon class="fil5 str1" points="1813.69,6537.53 6460.78,5480.51 6459.35,5698.98 1813.69,6791.16 "/>
   <polygon class="fil5 str1" points="801.33,5796.56 1813.69,6541.64 1813.69,6791.16 801.81,6043.45 "/>
   <polygon class="fil6 str1" points="792.43,2384.38 5432.12,1327.88 6451.88,2068.34 1804.79,3125.35 "/>
   <polygon class="fil5 str1" points="1804.79,3125.35 6451.88,2068.34 6450.45,2286.81 1804.79,3378.99 "/>
   <polygon class="fil5 str1" points="792.43,2384.38 1804.79,3129.47 1804.79,3378.99 792.9,2631.28 "/>
   <g>
    <g>
     <path class="fil7" d="M4989.79 3957.73c21.45,-4.89 165.98,90.8 196.04,127.93 40.97,50.6 33.72,142.01 36.36,205.66 1.04,25.13 10.47,269.77 -25.39,250.64 -2.6,-1.39 -2.08,-1.51 -3.21,-4.37 30.48,-1.09 -14,-346.13 -22.53,-386.92 -14.14,-67.6 -168.2,-123.04 -219.86,-151.31 -11.23,-10.91 -11.69,-29.07 -1.04,-40.57 10.66,-11.49 28.4,-11.97 39.63,-1.06z"/>
    </g>
    <path class="fil8" d="M4970.49 3978.54c3.81,3.69 212.71,83.67 221.77,169.79 2.78,26.39 44.07,425.51 1.32,389.25"/>
    <g>
     <path class="fil7" d="M4598.12 4038.58c59.5,59.67 256.22,136.23 219.18,208.53 -56.9,111.07 -85.07,363.43 -137.39,474.03 -5.86,-0.66 -4.33,-0.43 -6.69,-0.78 -3.33,0.38 -6.41,-1.42 -5.57,-3.52l-0.96 -0.56c0.55,-0.16 1.15,-0.36 1.79,-0.58 1.53,-1.41 5,-2.8 11.43,-3.67 -3.36,-32.34 -2.58,-12.11 5.93,-66.77 18.66,-119.79 48.26,-304.96 92.1,-416.82 -31.81,-40.29 -165.78,-96.47 -227.39,-159.49 -8.19,-13.45 -4.19,-31.15 8.95,-39.53 13.14,-8.39 30.42,-4.29 38.62,9.16zm75.3 675.65c-0.29,-0.19 -0.63,-0.32 -1.03,-0.38 0.18,0.1 0.61,0.25 1.03,0.38zm105.53 -488.36c0.77,-1.92 1.53,-3.82 2.31,-5.69 -1.39,2.26 -2.11,3.83 -2.31,5.69z"/>
    </g>
    <path class="fil8" d="M4574.34 4053.77c25.92,42.54 250.66,143.79 224.94,179.88 -31.25,43.81 -117.39,482.93 -119.37,482.93 -22.11,0 7.83,2.15 -13.22,-0.3"/>
    <path class="fil9 str2" d="M4575.12 4701.46c99.14,178.39 434.06,2.21 229.6,-91.58 -97.28,-44.62 -129.2,-100.25 -177.86,-223.58 -161.87,69.26 -126.56,180.54 -51.74,315.16z"/>
    <g>
     <path class="fil10" d="M5228.93 3130.46c92.54,77.43 350.18,-49.62 312.44,220.5 -15.55,111.24 -137.5,186.34 -245.02,168.64l0.08 -0.12c-15.09,0.36 -27.17,17.12 -45.47,12.69 72.31,-54.67 237.3,-29.45 250.01,-185.76 18.62,-228.76 -173.94,-64.08 -312.94,-171.14 -12.38,-11.29 -13.25,-30.48 -1.96,-42.85 11.3,-12.38 30.49,-13.25 42.86,-1.96z"/>
    </g>
    <path class="fil8" d="M5208.49 3152.87c115.82,105.73 196.68,-39.59 286.94,79.55 44.99,59.4 31.88,178.78 -24.68,215.64 -55.71,36.29 -103.27,77.13 -172.98,63.94 -9.68,-1.83 -34.87,20.23 -46.81,20.17"/>
    <g>
     <path class="fil10" d="M5294.25 3536.37c-92.86,164.62 184.65,47.28 56.1,71.33l-15.2 0.54c10.25,-6.64 31.29,-22.31 43.8,-22.79 125.95,-4.9 -236.42,180.61 -116.07,-68.02 5.23,-8.67 16.49,-11.45 25.15,-6.22 8.66,5.23 11.45,16.5 6.22,25.16z"/>
    </g>
    <path class="fil8" d="M5278.56 3526.9c-99.29,164.34 149.75,102.96 108.12,68.38 -12.12,-10.07 -34.35,11.27 -51.53,12.96"/>
    <g>
     <path class="fil10" d="M5289.55 3633.19c10.73,97.97 72.13,28.14 62.08,-39.36 63.97,61.26 -65.95,201.4 -98.54,42.95 -1,-10.07 6.36,-19.03 16.43,-20.03 10.07,-0.99 19.03,6.37 20.03,16.44z"/>
    </g>
    <path class="fil8" d="M5271.32 3634.98c12.56,127.55 124.32,21.23 80.31,-41.15"/>
    <polygon class="fil11 str2" points="4157.64,3175.58 5256.04,2932.21 5255.06,3910.45 4160.65,4160.1 "/>
    <polygon class="fil11 str2" points="4157.64,3175.58 3888,3046.2 4950.04,2805.17 5255.55,2924.79 "/>
    <polygon class="fil11 str2" points="4157.64,3175.59 4160.65,4160.1 3905.77,3947.43 3888.01,3046.2 "/>
    <path class="fil12 str2" d="M4486.13 3294.14c-244.33,224.89 -39.54,764.93 407.72,540.28 393,-197.39 168.16,-701.94 -156.63,-658.6 -30.2,4.04 -145.6,27.07 -251.09,118.32z"/>
    <path class="fil11 str1" d="M4711.57 3502.91c19.67,-46.26 81.73,-20.45 61.38,27.39 -11.32,26.63 -51.63,20.15 -60.64,-2.62 -2.43,-6.13 -4.14,-16.77 -0.74,-24.77zm134.16 -225.26l11.84 5.28c21.68,10.74 40.2,26.14 51.35,46.13 27.48,49.27 -22.98,127.13 -56.39,158.33 -23.24,21.69 -28.8,32.52 -53.91,34.46 -2.51,6.99 -3.69,14.34 -3.69,14.34 12.68,6.99 21.74,19.16 35.15,25.15 54.61,24.38 84.92,-39.81 124.01,11.88 4.58,6.07 9.05,14.26 10.99,20.65 16.09,52.93 -37.52,118.82 -74.49,144.59 -28.57,19.91 -55.48,27.22 -89.56,12 -36.27,-16.18 -75.63,-94.2 -82.74,-132.6 -3.12,-16.91 -1.77,-50.93 -1.49,-51.1 -10.39,-8.33 -11.63,-7.46 -21.06,-18.64 -90.17,45.03 -41.45,80.74 -75.2,109.94 -11.96,10.34 -41.82,12.54 -60.6,4.15 -14.39,-6.41 -30.07,-23.89 -38.78,-36.49 -4.97,-7.2 -7.91,-12.13 -11.99,-20.24 -3.81,-7.57 -7.84,-13.39 -10.09,-21.02 -2.29,-7.75 -3.65,-14.55 -5.75,-22.76 -12.68,-49.36 -6.95,-106.66 42.76,-128.24 11.55,-5.02 32.17,-8.52 45.8,-8.27 36.39,0.65 105.4,-6.57 131.39,34.96 8.6,-5.65 16.52,-8.39 26.55,-9.16 5.08,-28.3 2.48,-42.63 -17.84,-64.15 -35.59,-37.69 -47.33,-38.83 -28.52,-83.04 17.7,-41.63 93.2,-49.8 152.26,-26.15z"/>
    <path class="fil9 str2" d="M5045.2 4541.66c5.44,-10.15 12.68,-55.47 64.07,-41.97 18.64,4.9 65.46,64.47 109.24,32.84 101.06,-73 363.94,-60.49 357.63,32.65 -19.34,285.44 -553.85,90.88 -530.94,-23.52z"/>
    <g>
     <path class="fil10" d="M3990.57 3305.3c-151.67,18.15 -370.47,77.38 -399.9,260.88 -13.46,83.89 33.27,148.36 117.72,162.22 113.85,18.67 138.73,-13.19 262.39,49.87l37.43 19.93 -31.16 -29.95c-89.13,-70.35 -171.91,-52.17 -263.82,-71.89 -62.53,-13.42 -95.27,-59.69 -82.51,-122.81 31.69,-156.66 234.48,-199.38 363.74,-210.99 15.62,-1.09 27.4,-14.79 26.33,-30.6 -1.07,-15.81 -14.6,-27.74 -30.22,-26.66z"/>
    </g>
    <path class="fil8" d="M3992.52 3333.93c-321.7,22.39 -405.12,208.78 -380.01,291.74 49.44,163.36 211.28,22.09 395.7,172.53"/>
    <g>
     <path class="fil10" d="M3972.73 3745.2c147.52,18.68 112.72,240.08 55.38,212.59 -0.01,0 -249.4,-63.14 -152.4,-100.32 2.49,-0.95 4.05,0.19 5.95,1.45 -70.67,37.24 123.03,72.19 156.81,77.92 26.56,-70.3 11.45,-147.92 -64.7,-155.02 -10.11,0.29 -18.54,-7.68 -18.83,-17.79 -0.29,-10.11 7.68,-18.54 17.79,-18.83zm68.64 192.12l2.07 0.34c-0.6,-0.35 -1.33,-0.43 -2.07,-0.34z"/>
    </g>
    <path class="fil8" d="M3973.25 3763.51c24.05,-0.69 75.66,14.84 76.22,44.2 0.19,10.14 20.16,164.09 -14.1,139.82 -34.1,-24.14 -214.47,-16.07 -160.07,-87.22 1.68,-2.2 3.41,-1.39 6.36,-1.39"/>
    <g>
     <path class="fil10" d="M3984.02 3758.61c174.23,181.35 -103.76,152.4 -103.05,86.64 0.24,-22.21 30.04,-40.39 38.86,-29.58 -83.92,38.75 61.19,62.95 76.65,60.93 12.5,-48.11 1.16,-55.75 -36.54,-90.38 -7.62,-6.65 -8.41,-18.22 -1.76,-25.84 6.65,-7.63 18.22,-8.42 25.84,-1.77z"/>
    </g>
    <path class="fil8" d="M3971.98 3772.42c38.77,33.81 56.47,60.18 37.51,110.06 -8.12,21.35 -63.04,-5.24 -86.58,-11.12 -66.45,-16.62 -20.53,-62.18 -3.08,-55.69"/>
    <g>
     <path class="fil10" d="M3968.38 3756.25c126.16,215.18 -174.12,35.51 -120.36,26.1 -0.27,-0.47 -0.6,-0.91 -0.99,-1.32l0.02 -0.03 2.78 1.15c6.9,-0.67 18.35,0.88 35.65,5.53l-19.24 2.15c34.26,17.17 75.11,42.88 101.73,41.78 -9,-25.05 -14.7,-32.39 -30.55,-55.75 -5.41,-8.55 -2.87,-19.87 5.68,-25.28 8.55,-5.42 19.86,-2.88 25.28,5.67zm3.9 74.92l0.43 -0.07 0 -0.09 -0.43 0.16z"/>
    </g>
    <path class="fil8" d="M3952.9 3766.06c6.59,10.41 53.94,80.14 18.86,80.14 -55.34,0 -61.95,-30.8 -100.68,-46.63 -54.62,-22.34 -22.53,-11.89 14.4,-11.89"/>
   </g>
   <polygon class="fil2 str2" points="3167.74,1395.06 4323.2,1139.05 4322.16,2168.1 3170.91,2430.72 "/>
   <polygon class="fil3 str2" points="3167.74,1395.06 2884.1,1258.96 4001.3,1005.41 4322.68,1131.24 "/>
   <path class="fil4 str2" d="M3513.29 1519.77c-257.02,236.58 -41.59,804.67 428.9,568.36 413.42,-207.65 176.9,-738.41 -164.76,-692.81 -31.78,4.24 -153.17,28.47 -264.14,124.45z"/>
   <polygon class="fil3 str2" points="3167.74,1395.07 3170.91,2430.72 2902.78,2207 2884.1,1258.96 "/>
   <polygon class="fil2 str2" points="2037.37,1650.3 3192.82,1394.29 3191.79,2423.34 2040.53,2685.96 "/>
   <polygon class="fil3 str2" points="2037.37,1650.3 1753.72,1514.2 2870.93,1260.65 3192.31,1386.48 "/>
   <polygon class="fil3 str2" points="2037.37,1650.31 2040.53,2685.96 1772.41,2462.24 1753.73,1514.2 "/>
   <path class="fil4 str2" d="M2382.91 1775.01c-257.02,236.58 -41.58,804.67 428.91,568.36 413.42,-207.65 176.9,-738.41 -164.77,-692.81 -31.77,4.24 -153.16,28.47 -264.14,124.45z"/>
   <path class="fil13" d="M9525.63 3712.33c-10.11,178.37 -81.41,394.07 -233.6,504.85 -5.5,3.98 -7.69,5.32 -13.31,9.67 -8.6,6.64 -8.29,4.4 -12.28,12.42l265.58 15.88 0 121.04c-184.26,-10.33 -413.6,-7.2 -554.14,-90.76 -120.77,-71.81 2.95,-56.72 -222.6,-32.99 -230.45,24.24 -529.69,-4.84 -735.43,-115.82 -17.85,-9.63 -32.95,-21.55 -50.89,-27.94 -31.69,64.06 -172.09,136.64 -276.07,153.04 -164.3,25.93 -228.69,-42.48 -308.92,-119.78 -26.18,-25.26 -65.18,-83.99 -85.9,-124.89 -14.75,-29.1 -10.05,-46.96 -40.85,-64.15 -25.69,-14.35 -44.07,-30.64 -62.52,-49.85 -39.75,-41.43 -61.75,-69.81 -87.04,-123.91 -24.07,-51.46 -38.72,-104.34 -35.77,-169.01 -19.49,-87.91 -277.55,-56.54 -212,-364.87 -28.43,1.25 -205.08,39.85 -245.98,48.47 -95.34,20.11 -167.12,35.23 -275.74,14.52 -138.51,-26.42 -230.67,-102.54 -224.01,-225.77 3.09,-56.86 0.73,-86.9 53,-101.57 127.58,-35.85 339.1,-82.09 477.5,-115.71 160.87,-39.07 318.67,-75.26 480.67,-113.1 161.24,-37.64 323.14,-74.22 485.98,-107.65l183.09 -35.55c20.46,-3.68 55.77,-6.9 83.99,-11.55 21.3,-3.52 78.41,4.35 99.04,11.26 224.6,75.16 659.28,362.48 996.75,483.67 38.95,13.98 52.31,-21.65 169.82,-42.15 93.85,-16.35 189.75,-13.21 289.72,-7.54 19.12,1.09 56.15,2.89 98.3,5.03l0 121.02c-68.45,-4.48 -137.98,-8.93 -204.52,-9.46 3.52,7.72 43.27,42.19 53.92,55.62 76.41,96.4 150.6,384.34 144.21,497.53zm-2535.18 -294.61c20.93,83.31 118.45,110.85 166.56,23.9 0.27,-0.47 118.26,-58.69 250.36,-96.01 62.84,-17.76 148.68,-47.49 203.61,-61.18 53.03,-13.21 114.21,-33.13 150.6,-30.74 26.28,1.73 54.45,17.79 57.7,38.24 5.92,39.8 -11.2,51.86 -51.25,66.35 -61.89,22.39 -148.38,37.31 -453.64,146.42 -122.29,39.76 -138.55,147.26 -70.29,256.66 8.91,14.27 18.03,32.89 33.53,41.31 38.53,-86.34 93.13,-102.66 162.15,-134.25 53.52,-24.49 337.7,-114.16 364.93,-113.64 39.31,0.75 57.9,43.82 48.85,75.48 -9.63,33.69 -39.14,39.68 -74.6,50.6l-281.79 96.82c-37.99,17.4 -56.18,19.25 -80.75,44.7 -25.39,26.33 -26.79,59.67 -17.38,97.8 19.35,78.24 101.94,174.02 166.8,212.16 91.38,53.71 274.29,-53.19 282.52,-74.54 -1.6,-28.8 -18.9,-43.57 -28.02,-64.12 -42.15,5.46 -88.36,48.34 -135.86,34.74 -50.44,-14.44 -60.61,-80.11 -20.63,-106.05 17.71,-11.48 93.14,-38.09 124.24,-50.13 106.13,-41.09 81.14,15.02 221.46,112.27 126.01,87.35 254.59,127.22 420.78,145.07 305.93,32.86 512.79,-32.31 789.39,-83.83 85.85,-15.98 70.23,-0.83 106.7,-72.04 83.88,-163.86 63.63,-566.01 -77.17,-699.47 -82.24,-11.05 -158.81,-23.24 -234.99,-43.57 -219.56,-58.56 -535.96,-231.82 -735.2,-339.35 -59.02,-31.85 -117.65,-62.9 -176.73,-92.19 -39.28,-19.47 -143.78,-75.48 -187.99,-82.78 -74.99,-12.36 -1060.83,222.71 -1256.1,270.8 -17.83,4.38 -394.63,90.22 -412.59,102.77 -10.82,106.83 184.26,118.9 284.33,97.97 318.88,-66.7 635.71,-130.54 955.24,-200.36 53.1,-11.6 104.22,-22.67 158.73,-34.43 26.66,-5.75 53.73,-15.22 80.78,-1.28 20.97,10.74 37.52,33.99 33.62,61.8 -7.47,53.19 -74.67,55.67 -126.57,66.68 -52.37,11.12 -106.32,22.65 -158.37,34 -105.76,23.03 -209.64,46.16 -317.09,68.66 -149.72,31.34 -197.74,108.02 -165.87,234.76z"/>
   <path class="fil14" d="M7288.78 3513.39c98.57,-33.87 204,-65.82 303.99,-94.91 50.65,-14.71 144.33,-30.55 165.57,-54.99 27.44,-31.58 24.63,-124.03 -85.65,-97.53 -89.59,21.52 -178.66,53.23 -253.01,70.88l-15.5 4.81c-4.41,1.46 -9.37,3.15 -13.86,4.59l-64.46 20.44c-8.56,3.26 -4.92,0.69 -11.05,5.82 -2.09,0.58 -150.46,55.42 -168.95,87.72 -30.77,24.58 -51.47,15.84 -57.43,19.65 -7.61,4.87 -17.21,22.67 -58.08,-17.5 -55.75,-56.53 -36.17,-57.73 -38.87,-69.16 -13.44,-40.24 -36.17,-87.25 19.99,-141.94 25.81,-25.13 84.58,-50.28 131.32,-61.23l461.72 -107.63c51.22,-12.08 116.21,-14.48 125.17,-68.04 5.4,-32.32 -10.1,-54.72 -28.35,-65.65 -27,-16.19 -50.66,-7.57 -79.13,-0.95 -50.79,11.81 -102.35,23.82 -153.78,35.92 -296.12,69.66 -629.87,147.6 -927.78,210.41 -95.9,20.22 -277.99,7.01 -267.43,-106.56 51.83,-20.73 141.02,-38.02 198.8,-53.42 242.21,-64.49 1329.13,-347.87 1411.98,-334.1 121.8,20.23 716.14,443.45 1051.61,542.04 250.25,73.54 226.97,3.88 286.41,111.42 92.54,167.43 96.17,556.08 -22.71,723.33 -11.61,16.32 -43.46,15.94 -64.73,19.95l-206.96 44.17c-211.99,45.54 -369.19,74.95 -603.72,39.07 -100.66,-15.4 -194.41,-43.15 -273.44,-87.04 -40.16,-22.29 -72.94,-45.53 -104.86,-71.98 -131.45,-108.92 -101.32,-148.21 -204.96,-104.09 -26.04,11.09 -103.57,41.58 -116.89,53.65 -36.21,32.82 -21.88,96.53 26.25,108.45 44.13,10.93 87.44,-31.09 125.77,-36.5 9.48,11.5 17.99,29.18 23.51,43.68 9.25,24.34 1.72,28.98 -14.09,40.09 -25.45,17.89 -48.11,35.17 -81.43,49.46 -34.02,14.58 -64.43,23.51 -105.94,25.83 -49.19,2.75 -70.81,-14.52 -96.87,-37.71 -79.15,-70.46 -214.96,-267.25 -65.31,-334.8 81.23,-36.67 196.81,-77 285.88,-109.08 32.64,-11.76 69.06,-17.39 85.81,-44.32 19.13,-30.74 3.35,-86.32 -25.38,-93.55 -24.07,-6.06 -313.67,90.68 -364.61,116.21 -25.4,12.73 -43.69,19.18 -67.04,33.33 -72.78,44.07 -80.68,93.01 -95.87,107.57 -75.76,-73.18 -90.42,-158.65 -53.01,-245.1 20.74,-47.94 50.86,-57.52 87.37,-80.71z"/>
   <path class="fil14" d="M9326.85 3163.91c-7.95,-7.94 -22.63,-17.18 -24.33,-29.04l375.04 23.25c180.22,11.69 240.25,744.57 31.43,1076.75 -66.93,106.48 -98.56,83.37 -202.78,76.62 -90.62,-5.87 -192.21,-8.24 -281.2,-19.96 4.79,-6.66 60.09,-47.94 102.05,-99.18 125.9,-153.72 175.07,-399.22 160.85,-605.35 -5.45,-78.99 -112.65,-374.64 -161.06,-423.09z"/>
  </g>
 </g>
</svg>
