<?xml version="1.0" encoding="UTF-8"?>
<!DOCTYPE svg PUBLIC "-//W3C//DTD SVG 1.1//EN" "http://www.w3.org/Graphics/SVG/1.1/DTD/svg11.dtd">
<!-- Creator: CorelDRAW 2017 -->
<svg xmlns="http://www.w3.org/2000/svg" xml:space="preserve" width="105.833mm" height="75.4062mm" version="1.1" shape-rendering="geometricPrecision" text-rendering="geometricPrecision" image-rendering="optimizeQuality" fill-rule="evenodd" clip-rule="evenodd"
viewBox="0 0 10583.32 7540.62"
 xmlns:xlink="http://www.w3.org/1999/xlink">
 <defs>
    <mask id="id0">
      <linearGradient id="id1" gradientUnits="userSpaceOnUse" x1="5221.26" y1="1141.18" x2="6273.47" y2="5515.3">
       <stop offset="0" stop-opacity="1" stop-color="white"/>
       <stop offset="0.180392" stop-opacity="0.501961" stop-color="white"/>
       <stop offset="1" stop-opacity="0" stop-color="white"/>
      </linearGradient>
     <rect fill="url(#id1)" x="2373.23" y="2040.08" width="5648.2" height="4442.43"/>
    </mask>
 </defs>
 <g id="Слой_x0020_1">
  <metadata id="CorelCorpID_0Corel-Layer"/>
  <rect fill="none" x="1058.33" y="1486.96" width="7789.34" height="4995.33"/>
  <g id="_869259333552">
   <rect fill="#FFDDC2" transform="matrix(6.24158E-14 -1.19039 2.35669 3.15268E-14 1583.86 5677.34)" width="4093.94" height="3369.62"/>
   <rect fill="none" x="1058.34" y="808.46" width="8463.73" height="5427.81"/>
   <rect fill="#999999" transform="matrix(2.94657E-14 -1.18044 1.12194 3.15267E-14 1061.51 5677.78)" width="4128.82" height="465.58"/>
   <rect fill="#CCCCCC" transform="matrix(2.97139E-14 -1.12193 1.12194 2.97139E-14 1061.51 4242.76)" width="2370.67" height="465.58"/>
   <rect fill="#C8F4FF" transform="matrix(1.20171E-13 -4.53741 1.12194 2.97139E-14 1259.32 4242.76)" width="586.18" height="127"/>
   <rect fill="white" transform="matrix(1.83811E-13 -6.86734 1.58094 4.143E-14 1228.78 4214.72)" width="383.22" height="19.53"/>
   <rect fill="white" transform="matrix(4.10475E-13 -15.4986 1.2404 3.28513E-14 1061.51 4242.41)" width="1.83" height="420.6"/>
   <rect fill="#999999" x="1061.27" y="5677.78" width="8463.74" height="554.02"/>
   <rect fill="#F3DFC7" x="1583.86" y="5597.49" width="7941.14" height="140.98"/>
   <rect fill="none" stroke="black" stroke-width="7.62" stroke-miterlimit="22.9256" transform="matrix(3.99518E-14 -1.50849 1.50849 3.99517E-14 2684.15 2206.93)" width="461.23" height="1165.78" rx="60" ry="60"/>
   <rect fill="black" transform="matrix(3.99518E-14 -1.50849 1.50849 3.99517E-14 2814.18 2041.63)" width="13.23" height="1002.78"/>
   <rect fill="#999999" transform="matrix(2.94657E-14 -1.18044 1.12194 3.15267E-14 1061.51 5677.78)" width="4128.82" height="465.58"/>
   <rect fill="#CCCCCC" transform="matrix(2.97139E-14 -1.12193 1.12194 2.97139E-14 1061.51 4242.76)" width="2370.67" height="465.58"/>
   <rect fill="#C8F4FF" transform="matrix(1.20171E-13 -4.53741 1.12194 2.97139E-14 1259.32 4242.76)" width="586.18" height="127"/>
   <rect fill="white" transform="matrix(1.83811E-13 -6.86734 1.58094 4.143E-14 1228.78 4214.72)" width="383.22" height="19.53"/>
   <rect fill="white" transform="matrix(4.10475E-13 -15.4986 1.2404 3.28513E-14 1061.51 4242.41)" width="1.83" height="420.6"/>
   <ellipse fill="white" stroke="black" stroke-width="7.62" stroke-miterlimit="22.9256" cx="3707.58" cy="1785.56" rx="108.77" ry="102.13"/>
   <ellipse fill="white" stroke="black" stroke-width="7.62" stroke-miterlimit="22.9256" cx="3389.89" cy="1782.45" rx="126.85" ry="116.17"/>
   <circle fill="black" cx="3389.9" cy="1776.85" r="16.47"/>
   <circle fill="black" cx="3705.61" cy="1780.76" r="16.47"/>
   <path fill="none" fill-opacity="0.360784" stroke="white" stroke-width="75" stroke-miterlimit="22.9256" stroke-opacity="0.360784" d="M4114.66 5659.78c-92.26,-202 -625.58,150.36 -889.71,-676.95 -175.26,-548.96 134.77,-1477.15 -824.29,-1734.79 1054.29,0 1676.11,1762.78 1743.04,1780.74l0 0"/>
   <path fill="none" fill-opacity="0.360784" stroke="white" stroke-width="75" stroke-miterlimit="22.9256" stroke-opacity="0.360784" d="M4565.32 5383.46c-319.88,-237.33 413.85,-1208.34 433.21,-1283.24 -24.82,62.32 -88.27,1605.3 -433.21,1283.24z"/>
   <path fill="none" fill-opacity="0.360784" stroke="white" stroke-width="75" stroke-miterlimit="22.9256" stroke-opacity="0.360784" d="M4075.42 3834.22c-78.68,34.68 -812.44,-448.33 -965.54,-1053.09 -25.21,-99.6 -23.21,-297.23 -23.21,-297.23 576.27,420.87 766.69,681.31 988.75,1350.32z"/>
   <path fill="none" fill-opacity="0.360784" stroke="white" stroke-width="75" stroke-miterlimit="22.9256" stroke-opacity="0.360784" d="M4372.88 4005.14c195.36,-428.62 501.43,-327.15 287.73,-1091.33 -76.64,-274.12 -34.62,-192.09 -113.2,39.27 -60,176.68 -320.75,911.23 -183.61,1041.18l9.08 10.88z"/>
   <path fill="white" fill-opacity="0.360784" stroke="white" stroke-width="75" stroke-miterlimit="22.9256" stroke-opacity="0.360784" d="M4162.09 2959.92c-245.82,-97.35 -331.12,-514.19 -292.2,-722.31 16.43,-87.92 133.11,-450.94 149.18,-406.01 238.73,667.26 141.2,1024.86 143.02,1128.32z"/>
   <path fill="none" fill-opacity="0.360784" stroke="white" stroke-width="75" stroke-miterlimit="22.9256" stroke-opacity="0.360784" d="M2761.26 5596.88c-173.48,-221.42 -202,-203.72 -361.89,-360.14 -808.5,-790.97 210.96,-1234.03 354.4,-760.75 135.49,447.06 -440.96,403.15 -370.74,204.39 29.11,-82.41 132.78,-30.6 77.06,30.84"/>
   <path fill="none" fill-opacity="0.360784" stroke="white" stroke-width="75" stroke-miterlimit="22.9256" stroke-opacity="0.360784" d="M5870.17 5535.13c305.41,-357.97 355.64,-329.35 637.13,-582.23 1423.41,-1278.74 -371.42,-1995.02 -623.95,-1229.89 -238.54,722.75 776.35,651.76 652.71,330.43 -51.25,-133.22 -233.76,-49.47 -135.66,49.87"/>
   <path fill="#71E2FF" mask="url(#id0)" d="M2396.38 2819.66c24.35,-200.15 173.89,-485.36 400.62,-779.33l1537.16 0c489.86,348.97 774.59,918.31 942.65,1413.32 664.44,1247.59 1754.23,316.09 2744.37,1675.81l-1603.13 1352.8c-393.07,-433.34 -1583.19,-353.65 -2327.03,-793.19 -1126.99,-633.01 -1858.52,-1514.97 -1694.64,-2869.41z"/>
   <path fill="none" fill-opacity="0.360784" stroke="white" stroke-width="75" stroke-miterlimit="22.9256" stroke-opacity="0.360784" d="M7039.94 5597.48c557.97,-225.81 1125.93,-708.41 1098.1,-1454.62 -16.87,-452.47 -407.52,-755.85 -585.94,-925.45 -1606.78,-1527.48 380.6,-2246.84 622.9,-1320.62 178.24,681.29 -751.27,692.99 -611.73,309.12 57.85,-159.12 316.08,-78.89 205.34,39.77"/>
   <polygon fill="white" stroke="black" stroke-width="7.62" stroke-miterlimit="22.9256" points="5105.92,2238.36 7402.75,2238.36 7402.75,3306.84 5105.92,3306.84 5105.92,2742.16 4369.73,2252.81 5105.92,2436.9 "/>
   <path fill="black" fill-rule="nonzero" d="M5567.63 2672.89c0,0.67 -0.15,1.19 -0.43,1.67 -0.29,0.47 -0.72,0.86 -1.34,1.19 -0.57,0.33 -1.43,0.57 -2.47,0.76 -1.1,0.19 -2.44,0.29 -4.01,0.29 -1.95,0 -3.53,-0.1 -4.67,-0.34 -1.19,-0.23 -2.1,-0.57 -2.81,-1 -0.67,-0.43 -1.24,-0.9 -1.57,-1.52 -0.39,-0.62 -0.72,-1.34 -1,-2.19l-17.88 -46.38c-2.24,-5.96 -4.86,-11.15 -7.81,-15.49 -3.01,-4.38 -6.44,-8.05 -10.35,-10.91 -3.91,-2.91 -8.39,-5.06 -13.39,-6.44 -5.05,-1.38 -10.68,-2.1 -16.92,-2.1l-11.15 0 0 82.75c0,0.52 -0.15,1.04 -0.43,1.52 -0.29,0.48 -0.76,0.86 -1.38,1.1 -0.67,0.28 -1.53,0.52 -2.63,0.71 -1.09,0.19 -2.47,0.29 -4.14,0.29 -1.57,0 -2.96,-0.1 -4.1,-0.29 -1.1,-0.19 -2,-0.43 -2.67,-0.71 -0.62,-0.24 -1.1,-0.62 -1.38,-1.1 -0.29,-0.48 -0.43,-0.95 -0.43,-1.52l0 -175.21c0,-0.57 0.14,-1.05 0.43,-1.52 0.28,-0.48 0.76,-0.86 1.38,-1.1 0.67,-0.29 1.57,-0.52 2.67,-0.71 1.14,-0.2 2.53,-0.29 4.1,-0.29 1.67,0 3.05,0.09 4.14,0.29 1.1,0.19 1.96,0.42 2.63,0.71 0.62,0.24 1.09,0.62 1.38,1.1 0.28,0.47 0.43,1 0.43,1.52l0 77.31 11.15 0c6.24,0 11.73,-0.76 16.49,-2.24 4.72,-1.48 8.91,-3.67 12.49,-6.58 3.57,-2.86 6.72,-6.48 9.34,-10.77 2.67,-4.24 5,-9.25 7.05,-14.92l14.4 -41.27c0.28,-0.81 0.57,-1.58 0.9,-2.2 0.34,-0.66 0.86,-1.19 1.58,-1.62 0.66,-0.43 1.62,-0.76 2.81,-1 1.14,-0.24 2.72,-0.33 4.72,-0.33 1.67,0 3.05,0.09 4.05,0.29 1.05,0.19 1.86,0.42 2.48,0.76 0.62,0.33 1,0.71 1.19,1.19 0.19,0.48 0.28,1 0.28,1.67 0,0.95 -0.09,1.9 -0.33,2.86 -0.24,1 -0.57,1.95 -0.91,2.86l-15.53 40.65c-2.05,5.53 -4.2,10.3 -6.39,14.35 -2.19,4.05 -4.62,7.53 -7.29,10.48 -2.67,2.91 -5.58,5.39 -8.82,7.34 -3.19,1.96 -6.86,3.48 -10.96,4.58l0 0.29c4.62,1.47 8.77,3.33 12.39,5.48 3.67,2.09 6.96,4.76 9.91,7.86 3.01,3.15 5.72,6.82 8.2,11.06 2.48,4.24 4.82,9.24 7.06,15.01l18.3 46.09c0.52,1.57 0.9,2.76 1.05,3.53 0.14,0.81 0.19,1.52 0.19,2.19z"/>
   <path id="1" fill="black" fill-rule="nonzero" d="M5710.23 2608.55c0,10.05 -1.28,19.3 -3.9,27.78 -2.63,8.49 -6.49,15.83 -11.68,22.07 -5.15,6.24 -11.63,11.11 -19.35,14.58 -7.72,3.48 -16.68,5.25 -26.93,5.25 -9.87,0 -18.54,-1.58 -25.93,-4.67 -7.39,-3.15 -13.58,-7.58 -18.59,-13.4 -4.95,-5.81 -8.72,-12.86 -11.15,-21.16 -2.48,-8.29 -3.72,-17.63 -3.72,-28.07 0,-10.06 1.29,-19.3 3.86,-27.79 2.53,-8.48 6.39,-15.82 11.58,-21.97 5.15,-6.2 11.63,-11.01 19.36,-14.49 7.72,-3.43 16.72,-5.15 27.07,-5.15 9.86,0 18.54,1.53 25.93,4.63 7.38,3.05 13.58,7.48 18.49,13.29 4.95,5.82 8.67,12.87 11.2,21.17 2.52,8.29 3.76,17.58 3.76,27.93zm-17.73 1.52c0,-7.15 -0.71,-13.96 -2.09,-20.49 -1.39,-6.48 -3.72,-12.25 -6.96,-17.21 -3.24,-5 -7.63,-8.91 -13.11,-11.87 -5.48,-2.9 -12.3,-4.38 -20.45,-4.38 -7.53,0 -14.01,1.33 -19.49,4.05 -5.48,2.67 -9.96,6.43 -13.44,11.2 -3.48,4.81 -6.05,10.44 -7.72,16.97 -1.67,6.48 -2.53,13.53 -2.53,21.06 0,7.25 0.72,14.16 2.1,20.69 1.38,6.58 3.72,12.3 6.96,17.25 3.24,4.91 7.62,8.82 13.11,11.68 5.48,2.91 12.29,4.34 20.44,4.34 7.53,0 14.01,-1.34 19.5,-4.05 5.48,-2.67 9.96,-6.39 13.44,-11.16 3.48,-4.72 6.05,-10.34 7.72,-16.87 1.67,-6.53 2.52,-13.58 2.52,-21.21z"/>
   <path id="2" fill="black" fill-rule="nonzero" d="M5852.21 2673.18c0,0.57 -0.14,1.04 -0.42,1.52 -0.29,0.48 -0.72,0.86 -1.34,1.14 -0.57,0.24 -1.43,0.48 -2.48,0.67 -1.09,0.19 -2.38,0.29 -3.95,0.29 -1.72,0 -3.05,-0.1 -4.15,-0.29 -1.05,-0.19 -1.91,-0.43 -2.48,-0.67 -0.62,-0.28 -1.05,-0.66 -1.33,-1.14 -0.29,-0.48 -0.43,-0.95 -0.43,-1.52l0 -58.44 -71.49 0 0 58.44c0,0.57 -0.15,1.04 -0.43,1.52 -0.29,0.48 -0.72,0.86 -1.34,1.14 -0.57,0.24 -1.43,0.48 -2.48,0.67 -1.09,0.19 -2.43,0.29 -4.09,0.29 -1.63,0 -2.91,-0.1 -4.01,-0.29 -1.05,-0.19 -1.91,-0.43 -2.57,-0.67 -0.67,-0.28 -1.1,-0.66 -1.34,-1.14 -0.24,-0.48 -0.33,-0.95 -0.33,-1.52l0 -126.31c0,-0.57 0.09,-1.05 0.33,-1.52 0.24,-0.48 0.67,-0.86 1.34,-1.19 0.66,-0.34 1.52,-0.58 2.57,-0.72 1.1,-0.14 2.38,-0.19 4.01,-0.19 1.66,0 3,0.05 4.09,0.19 1.05,0.14 1.91,0.38 2.48,0.72 0.62,0.33 1.05,0.71 1.34,1.19 0.28,0.47 0.43,0.95 0.43,1.52l0 53.57 71.49 0 0 -53.57c0,-0.57 0.14,-1.05 0.43,-1.52 0.28,-0.48 0.71,-0.86 1.33,-1.19 0.57,-0.34 1.43,-0.58 2.48,-0.72 1.1,-0.14 2.43,-0.19 4.15,-0.19 1.57,0 2.86,0.05 3.95,0.19 1.05,0.14 1.91,0.38 2.48,0.72 0.62,0.33 1.05,0.71 1.34,1.19 0.28,0.47 0.42,0.95 0.42,1.52l0 126.31z"/>
   <path id="3" fill="black" fill-rule="nonzero" d="M5891.92 2718.93c0,0.43 -0.1,0.86 -0.29,1.14 -0.19,0.34 -0.52,0.62 -1.1,0.86 -0.57,0.24 -1.24,0.43 -2,0.57 -0.81,0.15 -1.76,0.2 -3,0.2 -1.38,0 -2.53,-0.05 -3.38,-0.2 -0.86,-0.14 -1.58,-0.33 -2.15,-0.57 -0.57,-0.24 -0.95,-0.52 -1.19,-0.86 -0.24,-0.33 -0.33,-0.71 -0.33,-1.19l0 -52.62c0,-1.95 0.28,-3.28 0.9,-3.9 0.62,-0.67 1.86,-1 3.81,-1l10.06 0c3.62,-4.39 7.01,-9.39 10.15,-15.02 3.15,-5.62 6.1,-12.72 8.82,-21.35 2.76,-8.63 5.24,-18.97 7.53,-31.08 2.29,-12.05 4.34,-26.59 6.2,-43.51 0.09,-1.14 0.28,-2.1 0.62,-2.96 0.33,-0.81 0.76,-1.52 1.28,-2 0.48,-0.52 1.1,-0.9 1.72,-1.19 0.67,-0.29 1.38,-0.43 2.14,-0.43l66.25 0c1.62,0 2.96,0.53 4.1,1.62 1.1,1.05 1.67,2.72 1.67,4.96l0 110.96 18.97 0c1.72,0 2.91,0.33 3.67,1 0.71,0.62 1.1,1.95 1.1,3.9l0 52.62c0,0.48 -0.1,0.86 -0.29,1.19 -0.19,0.34 -0.52,0.62 -1.1,0.86 -0.57,0.24 -1.28,0.43 -2.24,0.57 -0.9,0.15 -1.95,0.2 -3.14,0.2 -1.24,0 -2.24,-0.05 -3.05,-0.2 -0.86,-0.14 -1.53,-0.33 -2.1,-0.57 -0.57,-0.24 -0.95,-0.52 -1.19,-0.86 -0.24,-0.28 -0.33,-0.71 -0.33,-1.14l0 -42.99 -122.11 0 0 42.99zm95.22 -161.1l-45.46 0c-2.15,16.97 -4.34,31.22 -6.63,42.76 -2.29,11.53 -4.67,21.21 -7.2,29.07 -2.52,7.82 -5.14,14.11 -7.96,18.92 -2.81,4.77 -5.72,9.06 -8.81,12.78l76.06 0 0 -103.53z"/>
   <path id="4" fill="black" fill-rule="nonzero" d="M6159.97 2673.18c0,0.57 -0.15,1.04 -0.43,1.52 -0.29,0.48 -0.72,0.86 -1.34,1.1 -0.57,0.28 -1.43,0.52 -2.48,0.71 -1.09,0.19 -2.43,0.29 -4.09,0.29 -1.62,0 -2.91,-0.1 -4.01,-0.29 -1.05,-0.19 -1.9,-0.43 -2.57,-0.67 -0.67,-0.28 -1.1,-0.66 -1.34,-1.14 -0.23,-0.48 -0.33,-0.95 -0.33,-1.52l0 -81.36c0,-3.53 0.05,-7.06 0.19,-10.63 0.14,-3.53 0.33,-7.06 0.53,-10.58 -2.15,3.62 -4.49,7.19 -7.01,10.67 -2.53,3.48 -5.05,7.01 -7.67,10.54l-59.49 81.36c-0.47,0.66 -0.9,1.19 -1.33,1.66 -0.43,0.48 -0.95,0.86 -1.53,1.1 -0.62,0.29 -1.33,0.52 -2.19,0.67 -0.81,0.14 -1.9,0.19 -3.19,0.19 -1.29,0 -2.38,-0.1 -3.29,-0.29 -0.86,-0.19 -1.57,-0.43 -2.15,-0.67 -0.57,-0.28 -0.95,-0.66 -1.19,-1.14 -0.24,-0.48 -0.33,-0.95 -0.33,-1.52l0 -126.31c0,-0.57 0.09,-1.05 0.33,-1.52 0.24,-0.48 0.67,-0.86 1.34,-1.19 0.66,-0.34 1.52,-0.58 2.57,-0.72 1.1,-0.14 2.38,-0.19 4.01,-0.19 3.24,0 5.43,0.29 6.57,0.91 1.19,0.62 1.77,1.52 1.77,2.71l0 82.22c0,3.43 -0.05,6.81 -0.19,10.15 -0.15,3.38 -0.39,6.72 -0.67,10.06 2.14,-3.34 4.29,-6.63 6.38,-9.92 2.1,-3.24 4.39,-6.48 6.92,-9.77l60.34 -82.74c0.42,-0.67 0.9,-1.24 1.38,-1.71 0.47,-0.48 1.05,-0.91 1.71,-1.2 0.72,-0.28 1.53,-0.47 2.39,-0.61 0.9,-0.15 2.05,-0.24 3.43,-0.24 1.28,0 2.38,0.09 3.29,0.24 0.85,0.14 1.57,0.33 2.14,0.66 0.57,0.34 0.95,0.72 1.19,1.19 0.24,0.48 0.34,1 0.34,1.53l0 126.45z"/>
   <path id="5" fill="black" fill-rule="nonzero" d="M6331.08 2719.31c0,0.86 -0.58,1.43 -1.67,1.81 -1.1,0.38 -2.72,0.58 -4.86,0.58 -2.39,0 -4.15,-0.2 -5.25,-0.62 -1.09,-0.43 -1.66,-1.01 -1.66,-1.77l0 -43.37 -105.24 0c-1.57,0 -2.91,-0.52 -4.05,-1.62 -1.1,-1.05 -1.67,-2.67 -1.67,-4.81l0 -122.64c0,-0.57 0.09,-1.05 0.33,-1.52 0.24,-0.48 0.67,-0.86 1.34,-1.19 0.66,-0.34 1.52,-0.58 2.57,-0.72 1.1,-0.14 2.38,-0.19 4.01,-0.19 1.66,0 3,0.05 4.09,0.19 1.05,0.14 1.91,0.38 2.48,0.72 0.62,0.33 1.05,0.71 1.34,1.19 0.28,0.47 0.43,0.95 0.43,1.52l0 114.49 67.2 0 0 -114.49c0,-0.57 0.09,-1.05 0.33,-1.52 0.24,-0.48 0.67,-0.86 1.34,-1.19 0.66,-0.34 1.52,-0.58 2.57,-0.72 1.1,-0.14 2.38,-0.19 4,-0.19 1.67,0 3.01,0.05 4.1,0.19 1.05,0.14 1.91,0.38 2.48,0.72 0.62,0.33 1.05,0.71 1.34,1.19 0.28,0.47 0.43,0.95 0.43,1.52l0 114.49 19.25 0c1.95,0 3.24,0.33 3.86,1.04 0.62,0.72 0.91,1.96 0.91,3.86l0 53.05z"/>
   <path id="6" fill="black" fill-rule="nonzero" d="M6463.58 2673.18c0,0.57 -0.15,1.04 -0.43,1.52 -0.29,0.48 -0.72,0.86 -1.34,1.1 -0.57,0.28 -1.43,0.52 -2.48,0.71 -1.09,0.19 -2.43,0.29 -4.09,0.29 -1.62,0 -2.91,-0.1 -4.01,-0.29 -1.05,-0.19 -1.9,-0.43 -2.57,-0.67 -0.67,-0.28 -1.1,-0.66 -1.34,-1.14 -0.23,-0.48 -0.33,-0.95 -0.33,-1.52l0 -81.36c0,-3.53 0.05,-7.06 0.19,-10.63 0.14,-3.53 0.33,-7.06 0.53,-10.58 -2.15,3.62 -4.49,7.19 -7.01,10.67 -2.53,3.48 -5.05,7.01 -7.67,10.54l-59.49 81.36c-0.47,0.66 -0.9,1.19 -1.33,1.66 -0.43,0.48 -0.95,0.86 -1.53,1.1 -0.62,0.29 -1.33,0.52 -2.19,0.67 -0.81,0.14 -1.9,0.19 -3.19,0.19 -1.29,0 -2.38,-0.1 -3.29,-0.29 -0.86,-0.19 -1.57,-0.43 -2.15,-0.67 -0.57,-0.28 -0.95,-0.66 -1.19,-1.14 -0.24,-0.48 -0.33,-0.95 -0.33,-1.52l0 -126.31c0,-0.57 0.09,-1.05 0.33,-1.52 0.24,-0.48 0.67,-0.86 1.34,-1.19 0.66,-0.34 1.52,-0.58 2.57,-0.72 1.1,-0.14 2.38,-0.19 4.01,-0.19 3.24,0 5.43,0.29 6.57,0.91 1.19,0.62 1.77,1.52 1.77,2.71l0 82.22c0,3.43 -0.05,6.81 -0.19,10.15 -0.15,3.38 -0.39,6.72 -0.67,10.06 2.14,-3.34 4.29,-6.63 6.38,-9.92 2.1,-3.24 4.39,-6.48 6.92,-9.77l60.34 -82.74c0.42,-0.67 0.9,-1.24 1.38,-1.71 0.47,-0.48 1.05,-0.91 1.71,-1.2 0.72,-0.28 1.53,-0.47 2.39,-0.61 0.9,-0.15 2.05,-0.24 3.43,-0.24 1.28,0 2.38,0.09 3.29,0.24 0.85,0.14 1.57,0.33 2.14,0.66 0.57,0.34 0.95,0.72 1.19,1.19 0.24,0.48 0.34,1 0.34,1.53l0 126.45z"/>
   <path id="7" fill="black" fill-rule="nonzero" d="M6622.1 2608.55c0,10.05 -1.28,19.3 -3.9,27.78 -2.63,8.49 -6.49,15.83 -11.68,22.07 -5.15,6.24 -11.63,11.11 -19.35,14.58 -7.72,3.48 -16.68,5.25 -26.93,5.25 -9.87,0 -18.54,-1.58 -25.93,-4.67 -7.39,-3.15 -13.58,-7.58 -18.59,-13.4 -4.95,-5.81 -8.72,-12.86 -11.15,-21.16 -2.48,-8.29 -3.72,-17.63 -3.72,-28.07 0,-10.06 1.29,-19.3 3.86,-27.79 2.53,-8.48 6.39,-15.82 11.58,-21.97 5.15,-6.2 11.63,-11.01 19.36,-14.49 7.72,-3.43 16.72,-5.15 27.07,-5.15 9.86,0 18.54,1.53 25.93,4.63 7.38,3.05 13.58,7.48 18.49,13.29 4.95,5.82 8.67,12.87 11.2,21.17 2.52,8.29 3.76,17.58 3.76,27.93zm-17.73 1.52c0,-7.15 -0.71,-13.96 -2.09,-20.49 -1.39,-6.48 -3.72,-12.25 -6.96,-17.21 -3.24,-5 -7.63,-8.91 -13.11,-11.87 -5.48,-2.9 -12.3,-4.38 -20.45,-4.38 -7.53,0 -14.01,1.33 -19.49,4.05 -5.48,2.67 -9.96,6.43 -13.44,11.2 -3.48,4.81 -6.05,10.44 -7.72,16.97 -1.67,6.48 -2.53,13.53 -2.53,21.06 0,7.25 0.72,14.16 2.1,20.69 1.38,6.58 3.72,12.3 6.96,17.25 3.24,4.91 7.62,8.82 13.11,11.68 5.48,2.91 12.29,4.34 20.44,4.34 7.53,0 14.01,-1.34 19.5,-4.05 5.48,-2.67 9.96,-6.39 13.44,-11.16 3.48,-4.72 6.05,-10.34 7.72,-16.87 1.67,-6.53 2.52,-13.58 2.52,-21.21z"/>
   <path id="8" fill="black" fill-rule="nonzero" d="M6764.08 2673.18c0,0.57 -0.14,1.04 -0.42,1.52 -0.29,0.48 -0.72,0.86 -1.34,1.14 -0.57,0.24 -1.43,0.48 -2.48,0.67 -1.09,0.19 -2.38,0.29 -3.95,0.29 -1.72,0 -3.05,-0.1 -4.15,-0.29 -1.05,-0.19 -1.91,-0.43 -2.48,-0.67 -0.62,-0.28 -1.05,-0.66 -1.33,-1.14 -0.29,-0.48 -0.43,-0.95 -0.43,-1.52l0 -58.44 -71.49 0 0 58.44c0,0.57 -0.15,1.04 -0.43,1.52 -0.29,0.48 -0.72,0.86 -1.34,1.14 -0.57,0.24 -1.43,0.48 -2.48,0.67 -1.09,0.19 -2.43,0.29 -4.09,0.29 -1.63,0 -2.91,-0.1 -4.01,-0.29 -1.05,-0.19 -1.91,-0.43 -2.57,-0.67 -0.67,-0.28 -1.1,-0.66 -1.34,-1.14 -0.24,-0.48 -0.33,-0.95 -0.33,-1.52l0 -126.31c0,-0.57 0.09,-1.05 0.33,-1.52 0.24,-0.48 0.67,-0.86 1.34,-1.19 0.66,-0.34 1.52,-0.58 2.57,-0.72 1.1,-0.14 2.38,-0.19 4.01,-0.19 1.66,0 3,0.05 4.09,0.19 1.05,0.14 1.91,0.38 2.48,0.72 0.62,0.33 1.05,0.71 1.34,1.19 0.28,0.47 0.43,0.95 0.43,1.52l0 53.57 71.49 0 0 -53.57c0,-0.57 0.14,-1.05 0.43,-1.52 0.28,-0.48 0.71,-0.86 1.33,-1.19 0.57,-0.34 1.43,-0.58 2.48,-0.72 1.1,-0.14 2.43,-0.19 4.15,-0.19 1.57,0 2.86,0.05 3.95,0.19 1.05,0.14 1.91,0.38 2.48,0.72 0.62,0.33 1.05,0.71 1.34,1.19 0.28,0.47 0.42,0.95 0.42,1.52l0 126.31z"/>
   <path id="9" fill="black" fill-rule="nonzero" d="M6913.6 2603.35c0,3.39 -0.91,5.67 -2.67,6.91 -1.76,1.29 -3.48,1.91 -5.15,1.91l-85.98 0c0,7.82 0.76,14.87 2.29,21.21 1.52,6.34 4.1,11.72 7.62,16.25 3.53,4.53 8.11,7.96 13.78,10.39 5.67,2.43 12.63,3.62 20.92,3.62 5.86,0 11.11,-0.52 15.73,-1.57 4.67,-1 8.67,-2.14 12.06,-3.43 3.43,-1.29 6.19,-2.43 8.39,-3.43 2.19,-1.05 3.71,-1.58 4.67,-1.58 0.57,0 1.05,0.15 1.52,0.43 0.48,0.29 0.86,0.72 1.1,1.29 0.29,0.62 0.52,1.38 0.67,2.34 0.14,0.9 0.19,2.05 0.19,3.43 0,0.66 -0.05,1.28 -0.15,1.9 -0.09,0.58 -0.19,1.15 -0.33,1.67 -0.14,0.48 -0.38,1 -0.62,1.43 -0.28,0.48 -0.67,0.95 -1.14,1.38 -0.48,0.48 -1.91,1.29 -4.34,2.48 -2.38,1.19 -5.58,2.39 -9.48,3.58 -3.91,1.19 -8.44,2.28 -13.59,3.24 -5.19,0.95 -10.77,1.43 -16.73,1.43 -9.77,0 -18.39,-1.48 -25.93,-4.39 -7.57,-2.95 -13.91,-7.29 -19.01,-13.01 -5.1,-5.72 -9.01,-12.82 -11.68,-21.26 -2.62,-8.48 -3.96,-18.3 -3.96,-29.5 0,-10.67 1.39,-20.25 4.1,-28.74 2.77,-8.48 6.68,-15.68 11.82,-21.59 5.1,-5.91 11.3,-10.39 18.5,-13.54 7.19,-3.09 15.25,-4.67 24.07,-4.67 9.48,0 17.58,1.58 24.3,4.77 6.68,3.15 12.2,7.39 16.54,12.77 4.34,5.34 7.48,11.54 9.49,18.64 2,7.05 3,14.49 3,22.3l0 3.34zm-17.16 -4.91c0.29,-13.39 -2.81,-23.83 -9.2,-31.31 -6.38,-7.53 -15.73,-11.3 -28.02,-11.3 -6.29,0 -11.87,1.19 -16.64,3.53 -4.76,2.38 -8.81,5.53 -12.1,9.44 -3.29,3.86 -5.87,8.39 -7.63,13.58 -1.76,5.15 -2.76,10.49 -3.05,16.06l76.64 0z"/>
   <path id="10" fill="black" fill-rule="nonzero" d="M7062.35 2607.97c0,10.82 -1.19,20.55 -3.57,29.22 -2.38,8.63 -5.86,16.02 -10.49,22.07 -4.62,6 -10.29,10.72 -17.11,14.01 -6.81,3.29 -14.58,4.96 -23.35,4.96 -3.72,0 -7.2,-0.38 -10.49,-1.19 -3.24,-0.77 -6.43,-2.01 -9.58,-3.72 -3.09,-1.67 -6.24,-3.77 -9.34,-6.25 -3.14,-2.52 -6.43,-5.57 -9.86,-9.1l0 65.25c0,0.57 -0.15,1.05 -0.43,1.53 -0.29,0.47 -0.72,0.85 -1.34,1.19 -0.57,0.33 -1.43,0.57 -2.48,0.71 -1.09,0.14 -2.43,0.19 -4.09,0.19 -1.63,0 -2.91,-0.05 -4.01,-0.19 -1.05,-0.14 -1.91,-0.38 -2.57,-0.71 -0.67,-0.34 -1.1,-0.72 -1.34,-1.19 -0.24,-0.48 -0.33,-0.96 -0.33,-1.53l0 -176.35c0,-0.67 0.09,-1.19 0.33,-1.67 0.24,-0.47 0.67,-0.85 1.29,-1.09 0.57,-0.29 1.38,-0.53 2.34,-0.67 1,-0.14 2.19,-0.19 3.57,-0.19 1.38,0 2.57,0.05 3.48,0.19 0.95,0.14 1.72,0.38 2.38,0.62 0.62,0.29 1.1,0.67 1.38,1.14 0.29,0.43 0.43,1 0.43,1.67l0 18.11c3.91,-4 7.63,-7.48 11.16,-10.39 3.57,-2.95 7.1,-5.38 10.62,-7.34 3.58,-1.95 7.2,-3.38 10.92,-4.33 3.72,-0.91 7.67,-1.39 11.87,-1.39 9.15,0 16.92,1.77 23.35,5.25 6.44,3.48 11.68,8.24 15.73,14.3 4.05,6.05 7.01,13.1 8.82,21.16 1.81,8.05 2.71,16.63 2.71,25.73zm-17.44 2.67c0,-7.05 -0.57,-13.87 -1.67,-20.44 -1.14,-6.53 -3,-12.4 -5.67,-17.5 -2.67,-5.09 -6.2,-9.19 -10.63,-12.24 -4.43,-3.1 -10.01,-4.63 -16.73,-4.63 -3.33,0 -6.62,0.48 -9.82,1.38 -3.24,0.96 -6.53,2.48 -9.86,4.63 -3.39,2.14 -6.87,4.86 -10.49,8.29 -3.67,3.39 -7.48,7.58 -11.48,12.58l0 55.01c7,8.48 13.67,14.96 20.06,19.44 6.39,4.53 13.06,6.77 20.07,6.77 6.43,0 11.96,-1.57 16.58,-4.67 4.63,-3.1 8.34,-7.2 11.25,-12.3 2.91,-5.05 5.01,-10.77 6.34,-17.16 1.38,-6.34 2.05,-12.72 2.05,-19.16z"/>
   <path id="11" fill="black" fill-rule="nonzero" d="M5586 2954.23c0,2.72 -0.39,4.58 -1.1,5.53 -0.76,1 -1.72,1.48 -2.96,1.48l-58.38 0c-1.24,0 -2.24,-0.53 -3,-1.53 -0.81,-1.05 -1.2,-2.86 -1.2,-5.48 0,-2.62 0.39,-4.43 1.2,-5.48 0.76,-1 1.76,-1.52 3,-1.52l58.38 0c0.58,0 1.1,0.09 1.63,0.33 0.52,0.24 0.95,0.67 1.33,1.19 0.33,0.57 0.62,1.29 0.81,2.19 0.19,0.91 0.29,2.01 0.29,3.29z"/>
   <path id="12" fill="black" fill-rule="nonzero" d="M5789.36 3022.25c0,0.57 -0.14,1.04 -0.42,1.52 -0.29,0.48 -0.72,0.86 -1.34,1.14 -0.57,0.24 -1.43,0.48 -2.48,0.67 -1.09,0.19 -2.38,0.29 -3.95,0.29 -1.72,0 -3.05,-0.1 -4.15,-0.29 -1.05,-0.19 -1.91,-0.43 -2.48,-0.67 -0.62,-0.28 -1.05,-0.66 -1.33,-1.14 -0.29,-0.48 -0.43,-0.95 -0.43,-1.52l0 -58.44 -71.49 0 0 58.44c0,0.57 -0.15,1.04 -0.43,1.52 -0.29,0.48 -0.72,0.86 -1.34,1.14 -0.57,0.24 -1.43,0.48 -2.48,0.67 -1.09,0.19 -2.43,0.29 -4.09,0.29 -1.63,0 -2.91,-0.1 -4.01,-0.29 -1.05,-0.19 -1.91,-0.43 -2.57,-0.67 -0.67,-0.28 -1.1,-0.66 -1.34,-1.14 -0.24,-0.48 -0.33,-0.95 -0.33,-1.52l0 -126.31c0,-0.57 0.09,-1.05 0.33,-1.52 0.24,-0.48 0.67,-0.86 1.34,-1.19 0.66,-0.34 1.52,-0.58 2.57,-0.72 1.1,-0.14 2.38,-0.19 4.01,-0.19 1.66,0 3,0.05 4.09,0.19 1.05,0.14 1.91,0.38 2.48,0.72 0.62,0.33 1.05,0.71 1.34,1.19 0.28,0.47 0.43,0.95 0.43,1.52l0 53.57 71.49 0 0 -53.57c0,-0.57 0.14,-1.05 0.43,-1.52 0.28,-0.48 0.71,-0.86 1.33,-1.19 0.57,-0.34 1.43,-0.58 2.48,-0.72 1.1,-0.14 2.43,-0.19 4.15,-0.19 1.57,0 2.86,0.05 3.95,0.19 1.05,0.14 1.91,0.38 2.48,0.72 0.62,0.33 1.05,0.71 1.34,1.19 0.28,0.47 0.42,0.95 0.42,1.52l0 126.31z"/>
   <path id="13" fill="black" fill-rule="nonzero" d="M5938.88 2952.42c0,3.39 -0.91,5.67 -2.67,6.91 -1.76,1.29 -3.48,1.91 -5.15,1.91l-85.98 0c0,7.82 0.76,14.87 2.29,21.21 1.52,6.34 4.1,11.72 7.62,16.25 3.53,4.53 8.11,7.96 13.78,10.39 5.67,2.43 12.63,3.62 20.92,3.62 5.86,0 11.11,-0.52 15.73,-1.57 4.67,-1 8.67,-2.14 12.06,-3.43 3.43,-1.29 6.19,-2.43 8.39,-3.43 2.19,-1.05 3.71,-1.58 4.67,-1.58 0.57,0 1.05,0.15 1.52,0.43 0.48,0.29 0.86,0.72 1.1,1.29 0.29,0.62 0.52,1.38 0.67,2.34 0.14,0.9 0.19,2.05 0.19,3.43 0,0.66 -0.05,1.28 -0.15,1.9 -0.09,0.58 -0.19,1.15 -0.33,1.67 -0.14,0.48 -0.38,1 -0.62,1.43 -0.28,0.48 -0.67,0.95 -1.14,1.38 -0.48,0.48 -1.91,1.29 -4.34,2.48 -2.38,1.19 -5.58,2.39 -9.48,3.58 -3.91,1.19 -8.44,2.28 -13.59,3.24 -5.19,0.95 -10.77,1.43 -16.73,1.43 -9.77,0 -18.39,-1.48 -25.93,-4.39 -7.57,-2.95 -13.91,-7.29 -19.01,-13.01 -5.1,-5.72 -9.01,-12.82 -11.68,-21.26 -2.62,-8.48 -3.96,-18.3 -3.96,-29.5 0,-10.67 1.39,-20.25 4.1,-28.74 2.77,-8.48 6.68,-15.68 11.82,-21.59 5.1,-5.91 11.3,-10.39 18.5,-13.54 7.19,-3.09 15.25,-4.67 24.07,-4.67 9.48,0 17.58,1.58 24.3,4.77 6.68,3.15 12.2,7.39 16.54,12.77 4.34,5.34 7.48,11.54 9.49,18.64 2,7.05 3,14.49 3,22.3l0 3.34zm-17.16 -4.91c0.29,-13.39 -2.81,-23.83 -9.2,-31.31 -6.38,-7.53 -15.73,-11.3 -28.02,-11.3 -6.29,0 -11.87,1.19 -16.64,3.53 -4.76,2.38 -8.81,5.53 -12.1,9.44 -3.29,3.86 -5.87,8.39 -7.63,13.58 -1.76,5.15 -2.76,10.49 -3.05,16.06l76.64 0z"/>
   <path id="14" fill="black" fill-rule="nonzero" d="M6074.19 2986.17c0,6.33 -1.19,11.96 -3.57,17.01 -2.34,5.01 -5.91,9.25 -10.58,12.68 -4.72,3.43 -10.54,6.05 -17.45,7.86 -6.91,1.81 -14.96,2.72 -24.21,2.72 -2.67,0 -5.38,0 -8.15,-0.05 -2.72,-0.05 -5.38,-0.14 -8.01,-0.28 -2.62,-0.15 -5.14,-0.34 -7.62,-0.53 -2.43,-0.14 -4.82,-0.38 -7.01,-0.67 -3.38,-0.47 -5.91,-1.66 -7.67,-3.57 -1.76,-1.91 -2.67,-4.67 -2.67,-8.29l0 -108.34c0,-3.62 0.91,-6.43 2.67,-8.39 1.76,-1.95 4.29,-3.09 7.67,-3.48 2.58,-0.28 5.15,-0.52 7.72,-0.71 2.58,-0.14 5.1,-0.33 7.68,-0.48 2.57,-0.14 5.14,-0.24 7.72,-0.33 2.62,-0.1 5.34,-0.14 8.1,-0.14 8.48,0 15.82,0.76 22.12,2.28 6.29,1.58 11.53,3.77 15.68,6.63 4.19,2.91 7.34,6.43 9.39,10.63 2.05,4.19 3.05,8.96 3.05,14.39 0,6.77 -1.86,12.68 -5.53,17.73 -3.67,5.01 -9.06,8.68 -16.26,11.01 9.11,2.15 15.88,6.01 20.31,11.63 4.43,5.62 6.62,12.54 6.62,20.69zm-22.02 -60.01c0,-3.48 -0.62,-6.53 -1.86,-9.25 -1.28,-2.67 -3.33,-4.95 -6.14,-6.76 -2.82,-1.82 -6.49,-3.2 -11.01,-4.15 -4.48,-0.91 -9.96,-1.38 -16.35,-1.38 -4.82,0 -9.2,0.14 -13.11,0.43 -3.86,0.28 -7.15,0.57 -9.86,0.81l0 43.37 26.02 0c10.48,0 18.49,-2 24.02,-6.01 5.53,-4 8.29,-9.72 8.29,-17.06zm4.58 60.77c0,-4.1 -0.76,-7.72 -2.24,-10.82 -1.48,-3.1 -3.81,-5.72 -6.96,-7.82 -3.15,-2.09 -7.1,-3.62 -11.87,-4.67 -4.81,-1 -10.44,-1.52 -16.92,-1.52l-24.92 0 0 49.23c1.95,0.29 3.95,0.53 6.05,0.72 2.1,0.14 4.24,0.33 6.39,0.47 2.19,0.15 4.38,0.24 6.57,0.34 2.15,0.09 4.24,0.14 6.2,0.14 6.48,0 12.1,-0.57 16.82,-1.76 4.72,-1.15 8.63,-2.86 11.78,-5.06 3.09,-2.24 5.38,-5 6.86,-8.24 1.48,-3.24 2.24,-6.91 2.24,-11.01z"/>
   <path id="15" fill="black" fill-rule="nonzero" d="M6217.09 3022.25c0,0.57 -0.15,1.04 -0.43,1.52 -0.29,0.48 -0.72,0.86 -1.34,1.1 -0.57,0.28 -1.43,0.52 -2.48,0.71 -1.09,0.19 -2.43,0.29 -4.09,0.29 -1.62,0 -2.91,-0.1 -4.01,-0.29 -1.05,-0.19 -1.9,-0.43 -2.57,-0.67 -0.67,-0.28 -1.1,-0.66 -1.34,-1.14 -0.23,-0.48 -0.33,-0.95 -0.33,-1.52l0 -81.36c0,-3.53 0.05,-7.06 0.19,-10.63 0.14,-3.53 0.33,-7.06 0.53,-10.58 -2.15,3.62 -4.49,7.19 -7.01,10.67 -2.53,3.48 -5.05,7.01 -7.67,10.54l-59.49 81.36c-0.47,0.66 -0.9,1.19 -1.33,1.66 -0.43,0.48 -0.95,0.86 -1.53,1.1 -0.62,0.29 -1.33,0.52 -2.19,0.67 -0.81,0.14 -1.9,0.19 -3.19,0.19 -1.29,0 -2.38,-0.1 -3.29,-0.29 -0.86,-0.19 -1.57,-0.43 -2.15,-0.67 -0.57,-0.28 -0.95,-0.66 -1.19,-1.14 -0.24,-0.48 -0.33,-0.95 -0.33,-1.52l0 -126.31c0,-0.57 0.09,-1.05 0.33,-1.52 0.24,-0.48 0.67,-0.86 1.34,-1.19 0.66,-0.34 1.52,-0.58 2.57,-0.72 1.1,-0.14 2.38,-0.19 4.01,-0.19 3.24,0 5.43,0.29 6.57,0.91 1.19,0.62 1.77,1.52 1.77,2.71l0 82.22c0,3.43 -0.05,6.81 -0.19,10.15 -0.15,3.38 -0.39,6.72 -0.67,10.06 2.14,-3.34 4.29,-6.63 6.38,-9.92 2.1,-3.24 4.39,-6.48 6.92,-9.77l60.34 -82.74c0.42,-0.67 0.9,-1.24 1.38,-1.71 0.47,-0.48 1.05,-0.91 1.71,-1.2 0.72,-0.28 1.53,-0.47 2.39,-0.61 0.9,-0.15 2.05,-0.24 3.43,-0.24 1.28,0 2.38,0.09 3.29,0.24 0.85,0.14 1.57,0.33 2.14,0.66 0.57,0.34 0.95,0.72 1.19,1.19 0.24,0.48 0.34,1 0.34,1.53l0 126.45z"/>
   <path id="16" fill="black" fill-rule="nonzero" d="M6256.94 3068c0,0.43 -0.1,0.86 -0.29,1.14 -0.19,0.34 -0.52,0.62 -1.1,0.86 -0.57,0.24 -1.24,0.43 -2,0.57 -0.81,0.15 -1.76,0.2 -3,0.2 -1.38,0 -2.53,-0.05 -3.38,-0.2 -0.86,-0.14 -1.58,-0.33 -2.15,-0.57 -0.57,-0.24 -0.95,-0.52 -1.19,-0.86 -0.24,-0.33 -0.33,-0.71 -0.33,-1.19l0 -52.62c0,-1.95 0.28,-3.28 0.9,-3.9 0.62,-0.67 1.86,-1 3.81,-1l10.06 0c3.62,-4.39 7.01,-9.39 10.15,-15.02 3.15,-5.62 6.1,-12.72 8.82,-21.35 2.76,-8.63 5.24,-18.97 7.53,-31.08 2.29,-12.05 4.34,-26.59 6.2,-43.51 0.09,-1.14 0.28,-2.1 0.62,-2.96 0.33,-0.81 0.76,-1.52 1.28,-2 0.48,-0.52 1.1,-0.9 1.72,-1.19 0.67,-0.29 1.38,-0.43 2.14,-0.43l66.25 0c1.62,0 2.96,0.53 4.1,1.62 1.1,1.05 1.67,2.72 1.67,4.96l0 110.96 18.97 0c1.72,0 2.91,0.33 3.67,1 0.71,0.62 1.1,1.95 1.1,3.9l0 52.62c0,0.48 -0.1,0.86 -0.29,1.19 -0.19,0.34 -0.52,0.62 -1.1,0.86 -0.57,0.24 -1.28,0.43 -2.24,0.57 -0.9,0.15 -1.95,0.2 -3.14,0.2 -1.24,0 -2.24,-0.05 -3.05,-0.2 -0.86,-0.14 -1.53,-0.33 -2.1,-0.57 -0.57,-0.24 -0.95,-0.52 -1.19,-0.86 -0.24,-0.28 -0.33,-0.71 -0.33,-1.14l0 -42.99 -122.11 0 0 42.99zm95.22 -161.1l-45.46 0c-2.15,16.97 -4.34,31.22 -6.63,42.76 -2.29,11.53 -4.67,21.21 -7.2,29.07 -2.52,7.82 -5.14,14.11 -7.96,18.92 -2.81,4.77 -5.72,9.06 -8.81,12.78l76.06 0 0 -103.53z"/>
   <path id="17" fill="black" fill-rule="nonzero" d="M6524.99 3022.25c0,0.57 -0.15,1.04 -0.43,1.52 -0.29,0.48 -0.72,0.86 -1.34,1.1 -0.57,0.28 -1.43,0.52 -2.48,0.71 -1.09,0.19 -2.43,0.29 -4.09,0.29 -1.62,0 -2.91,-0.1 -4.01,-0.29 -1.05,-0.19 -1.9,-0.43 -2.57,-0.67 -0.67,-0.28 -1.1,-0.66 -1.34,-1.14 -0.23,-0.48 -0.33,-0.95 -0.33,-1.52l0 -81.36c0,-3.53 0.05,-7.06 0.19,-10.63 0.14,-3.53 0.33,-7.06 0.53,-10.58 -2.15,3.62 -4.49,7.19 -7.01,10.67 -2.53,3.48 -5.05,7.01 -7.67,10.54l-59.49 81.36c-0.47,0.66 -0.9,1.19 -1.33,1.66 -0.43,0.48 -0.95,0.86 -1.53,1.1 -0.62,0.29 -1.33,0.52 -2.19,0.67 -0.81,0.14 -1.9,0.19 -3.19,0.19 -1.29,0 -2.38,-0.1 -3.29,-0.29 -0.86,-0.19 -1.57,-0.43 -2.15,-0.67 -0.57,-0.28 -0.95,-0.66 -1.19,-1.14 -0.24,-0.48 -0.33,-0.95 -0.33,-1.52l0 -126.31c0,-0.57 0.09,-1.05 0.33,-1.52 0.24,-0.48 0.67,-0.86 1.34,-1.19 0.66,-0.34 1.52,-0.58 2.57,-0.72 1.1,-0.14 2.38,-0.19 4.01,-0.19 3.24,0 5.43,0.29 6.57,0.91 1.19,0.62 1.77,1.52 1.77,2.71l0 82.22c0,3.43 -0.05,6.81 -0.19,10.15 -0.15,3.38 -0.39,6.72 -0.67,10.06 2.14,-3.34 4.29,-6.63 6.38,-9.92 2.1,-3.24 4.39,-6.48 6.92,-9.77l60.34 -82.74c0.42,-0.67 0.9,-1.24 1.38,-1.71 0.47,-0.48 1.05,-0.91 1.71,-1.2 0.72,-0.28 1.53,-0.47 2.39,-0.61 0.9,-0.15 2.05,-0.24 3.43,-0.24 1.28,0 2.38,0.09 3.29,0.24 0.85,0.14 1.57,0.33 2.14,0.66 0.57,0.34 0.95,0.72 1.19,1.19 0.24,0.48 0.34,1 0.34,1.53l0 126.45z"/>
   <path id="18" fill="black" fill-rule="nonzero" d="M6720.98 3020.58c0.09,1.95 -0.29,3.33 -1.2,4.1 -0.85,0.81 -3,1.19 -6.33,1.19 -1.67,0 -3.06,-0.05 -4.2,-0.15 -1.1,-0.09 -1.95,-0.23 -2.62,-0.47 -0.67,-0.24 -1.1,-0.57 -1.38,-1 -0.29,-0.38 -0.48,-0.96 -0.57,-1.58l-10.06 -76.83c-0.29,-2.71 -0.57,-5.57 -0.91,-8.62 -0.33,-3.01 -0.66,-6.06 -0.9,-9.11 -0.29,-3.09 -0.57,-6.14 -0.86,-9.24 -0.29,-3.05 -0.62,-6.01 -1,-8.82l-0.14 -3.05c-0.91,2.72 -1.91,5.58 -2.91,8.58 -1.05,3.05 -2.1,6.1 -3.24,9.15 -1.1,3.1 -2.19,6.2 -3.24,9.29 -1.1,3.1 -2.1,6.1 -3.01,8.87l-28.69 77.54c-0.38,1.01 -0.76,1.86 -1.19,2.58 -0.43,0.71 -0.91,1.24 -1.53,1.67 -0.61,0.43 -1.38,0.71 -2.28,0.9 -0.96,0.19 -2.1,0.29 -3.53,0.29 -1.38,0 -2.53,-0.05 -3.38,-0.19 -0.91,-0.15 -1.67,-0.43 -2.34,-0.81 -0.62,-0.34 -1.19,-0.91 -1.67,-1.58 -0.47,-0.71 -0.86,-1.62 -1.24,-2.71l-27.69 -77.69c-1,-2.72 -2.05,-5.58 -3.14,-8.58 -1.05,-3.05 -2.1,-6.1 -3.15,-9.2 -1,-3.14 -2,-6.24 -3,-9.29 -0.96,-3.1 -1.81,-6.01 -2.58,-8.82l-0.28 3.05c-0.24,2.81 -0.57,5.77 -0.86,8.82 -0.33,3.1 -0.67,6.15 -1.05,9.24 -0.38,3.05 -0.71,6.1 -1.05,9.11 -0.28,3.05 -0.57,5.91 -0.85,8.62l-9.2 75.26c-0.1,1.05 -0.29,1.86 -0.58,2.53 -0.28,0.67 -0.76,1.14 -1.47,1.48 -0.67,0.33 -1.62,0.52 -2.72,0.61 -1.14,0.1 -2.57,0.15 -4.38,0.15 -1.77,0 -3.15,-0.1 -4.2,-0.29 -1.05,-0.19 -1.76,-0.47 -2.24,-0.9 -0.48,-0.43 -0.76,-0.96 -0.86,-1.62 -0.09,-0.62 -0.04,-1.48 0.15,-2.48l14.58 -120.16c0.48,-2.43 1.38,-4.29 2.72,-5.57 1.33,-1.29 3.38,-1.96 6.05,-1.96l7.25 0c2.14,0 3.95,0.14 5.43,0.48 1.52,0.33 2.76,0.9 3.86,1.76 1.05,0.81 1.95,1.91 2.72,3.29 0.71,1.34 1.47,3.05 2.24,5.1l20.92 59.34c1.24,3.53 2.43,7.05 3.67,10.48 1.19,3.44 2.33,6.87 3.48,10.2 1.09,3.34 2.14,6.63 3.14,9.77 0.96,3.2 1.91,6.25 2.72,9.25l0.29 0c0.95,-3.1 1.9,-6.29 2.9,-9.67 1.05,-3.34 2.1,-6.72 3.25,-10.2 1.09,-3.44 2.24,-6.87 3.47,-10.25 1.2,-3.38 2.34,-6.67 3.48,-9.87l21.02 -59.05c0.67,-1.86 1.34,-3.48 2.1,-4.81 0.76,-1.39 1.62,-2.48 2.67,-3.29 1,-0.86 2.24,-1.48 3.62,-1.91 1.38,-0.43 3.1,-0.62 5.05,-0.62l7.25 0c2.71,0 4.76,0.53 6.24,1.53 1.43,1.05 2.29,2.9 2.58,5.57l14.87 120.59z"/>
   <path id="19" fill="black" fill-rule="nonzero" d="M6854.05 3022.96c0,0.43 -0.1,0.86 -0.34,1.24 -0.24,0.38 -0.71,0.67 -1.33,0.91 -0.67,0.23 -1.53,0.42 -2.58,0.57 -1,0.14 -2.28,0.19 -3.76,0.19 -1.91,0 -3.43,-0.1 -4.58,-0.29 -1.19,-0.19 -2.14,-0.43 -2.9,-0.67 -0.77,-0.28 -1.29,-0.66 -1.67,-1.14 -0.38,-0.48 -0.67,-0.95 -0.86,-1.52l-14.35 -33.89c-1.66,-4.39 -3.57,-8.15 -5.72,-11.3 -2.14,-3.19 -4.57,-5.76 -7.38,-7.77 -2.77,-2 -5.96,-3.43 -9.49,-4.38 -3.53,-0.91 -7.58,-1.38 -12.1,-1.38l-11.01 0 0 59.67c0,0.38 -0.19,0.76 -0.58,1.05 -0.38,0.33 -0.9,0.62 -1.66,0.86 -0.72,0.23 -1.62,0.42 -2.63,0.57 -1.04,0.14 -2.19,0.19 -3.47,0.19 -1.34,0 -2.48,-0.05 -3.53,-0.19 -1,-0.15 -1.86,-0.34 -2.58,-0.57 -0.66,-0.24 -1.19,-0.53 -1.57,-0.86 -0.38,-0.29 -0.57,-0.67 -0.57,-1.05l0 -128.35c0,-0.39 0.19,-0.72 0.57,-1.05 0.38,-0.34 0.91,-0.57 1.57,-0.77 0.72,-0.19 1.58,-0.38 2.58,-0.52 1.05,-0.14 2.19,-0.19 3.53,-0.19 1.28,0 2.43,0.05 3.47,0.19 1.01,0.14 1.91,0.33 2.63,0.52 0.76,0.2 1.28,0.43 1.66,0.77 0.39,0.33 0.58,0.66 0.58,1.05l0 54.95 11.01 0c4,0 7.62,-0.43 10.86,-1.33 3.24,-0.86 6.2,-2.29 8.87,-4.2 2.67,-1.91 5,-4.34 7.1,-7.34 2.1,-3 3.96,-6.53 5.53,-10.63l12.39 -30.07c0.19,-0.67 0.48,-1.24 0.86,-1.77 0.38,-0.47 0.86,-0.9 1.52,-1.23 0.67,-0.34 1.58,-0.58 2.67,-0.72 1.15,-0.14 2.58,-0.19 4.39,-0.19 1.57,0 2.9,0.05 3.91,0.19 1.04,0.14 1.85,0.33 2.38,0.57 0.57,0.24 0.95,0.53 1.14,0.86 0.19,0.33 0.29,0.72 0.29,1.19 0,0.72 -0.1,1.43 -0.29,2.15 -0.19,0.71 -0.43,1.38 -0.71,2.05l-12.97 29.74c-1.86,4.67 -3.9,8.53 -6.05,11.67 -2.19,3.1 -4.43,5.68 -6.67,7.68 -2.19,2 -4.48,3.57 -6.77,4.67 -2.29,1.14 -4.48,2 -6.63,2.67l0 0.28c3.34,1 6.49,2.39 9.35,4.05 2.9,1.67 5.57,3.67 7.96,6.06 2.43,2.38 4.67,5.15 6.72,8.29 2.05,3.15 3.86,6.67 5.43,10.58l14.77 33.89c0.2,0.43 0.39,0.86 0.53,1.24 0.14,0.38 0.24,0.76 0.28,1.09 0.05,0.39 0.1,0.72 0.15,1.01 0.05,0.28 0.05,0.52 0.05,0.71z"/>
   <path id="20" fill="black" fill-rule="nonzero" d="M6973.58 3022.25c0,0.9 -0.28,1.62 -0.9,2.14 -0.62,0.52 -1.38,0.91 -2.38,1.14 -0.96,0.24 -2.29,0.34 -3.96,0.34 -1.57,0 -2.91,-0.1 -4.05,-0.34 -1.1,-0.23 -1.96,-0.62 -2.58,-1.14 -0.61,-0.52 -0.9,-1.24 -0.9,-2.14l0 -14.11c-5.67,6.15 -11.92,10.86 -18.78,14.2 -6.82,3.29 -13.92,4.96 -21.26,4.96 -6.62,0 -12.53,-0.86 -17.77,-2.58 -5.29,-1.76 -9.73,-4.19 -13.35,-7.43 -3.62,-3.19 -6.43,-7.1 -8.39,-11.68 -1.95,-4.57 -2.91,-9.72 -2.91,-15.39 0,-7.01 1.43,-13.11 4.34,-18.26 2.86,-5.19 6.96,-9.48 12.25,-12.96 5.34,-3.43 11.68,-6.01 19.11,-7.77 7.49,-1.72 15.73,-2.57 24.88,-2.57l20.07 0 0 -10.82c0,-5.39 -0.57,-10.16 -1.67,-14.25 -1.14,-4.1 -2.96,-7.58 -5.43,-10.35 -2.53,-2.76 -5.77,-4.86 -9.77,-6.24 -4.01,-1.38 -8.92,-2.1 -14.68,-2.1 -5.58,0 -10.58,0.67 -15.07,2.05 -4.43,1.34 -8.34,2.86 -11.72,4.53 -3.34,1.67 -6.1,3.19 -8.29,4.53 -2.2,1.38 -3.72,2.05 -4.67,2.05 -0.58,0 -1.05,-0.1 -1.53,-0.29 -0.48,-0.19 -0.86,-0.52 -1.19,-1.05 -0.33,-0.47 -0.57,-1.14 -0.72,-1.95 -0.14,-0.76 -0.19,-1.72 -0.19,-2.86 0,-1.91 0.15,-3.48 0.43,-4.62 0.29,-1.2 1,-2.34 2.15,-3.48 1.19,-1.2 3.24,-2.58 6.19,-4.15 3.01,-1.62 6.44,-3.1 10.3,-4.48 3.81,-1.33 8.01,-2.48 12.44,-3.29 4.48,-0.86 8.96,-1.29 13.39,-1.29 8.68,0 15.97,1.05 21.93,3.15 5.95,2.1 10.77,5.1 14.44,9.01 3.67,3.91 6.29,8.72 7.86,14.49 1.57,5.72 2.38,12.2 2.38,19.44l0 85.56zm-16.58 -59.87l-22.97 0c-6.68,0 -12.54,0.62 -17.54,1.81 -5.01,1.24 -9.2,3.01 -12.54,5.34 -3.34,2.29 -5.81,5.1 -7.43,8.39 -1.63,3.24 -2.44,6.96 -2.44,11.15 0,7.3 2.29,13.11 6.92,17.45 4.57,4.33 11.05,6.48 19.39,6.48 6.58,0 12.73,-1.72 18.45,-5.1 5.72,-3.38 11.77,-8.63 18.16,-15.73l0 -29.79z"/>
   <rect fill="#EB9773" x="1583.86" y="5597.49" width="7941.14" height="140.98"/>
  </g>
 </g>
</svg>
