<?xml version="1.0" encoding="UTF-8"?>
<!DOCTYPE svg PUBLIC "-//W3C//DTD SVG 1.1//EN" "http://www.w3.org/Graphics/SVG/1.1/DTD/svg11.dtd">
<!-- Creator: CorelDRAW 2017 -->
<svg xmlns="http://www.w3.org/2000/svg" xml:space="preserve" width="14.552mm" height="19.8436mm" version="1.1" style="shape-rendering:geometricPrecision; text-rendering:geometricPrecision; image-rendering:optimizeQuality; fill-rule:evenodd; clip-rule:evenodd"
viewBox="0 0 1455.2 1984.36"
 xmlns:xlink="http://www.w3.org/1999/xlink">
 <defs>
  <style type="text/css">
   <![CDATA[
    .str0 {stroke:black;stroke-width:35;stroke-miterlimit:22.9256}
    .fil1 {fill:#71E2FF}
    .fil0 {fill:white}
   ]]>
  </style>
 </defs>
 <g id="Слой_x0020_1">
  <metadata id="CorelCorpID_0Corel-Layer"/>
  <g id="_433196966096">
   <path class="fil0 str0" d="M79.6 336.68l-35.01 0 0 883.83c0,98.99 44.34,193.37 87.46,249.45 46.85,60.94 73.18,80.58 128.3,125.48 58.05,47.28 191.26,128.7 258.63,170.15l212.55 128.73 49.98 -33.15c94.47,-58.12 288.5,-170.91 366.35,-228.7 16.65,-12.36 32,-22.22 48.07,-35.07 53.01,-42.39 84.41,-68.25 128.81,-124.96 44.66,-57.03 89.36,-152.63 89.36,-251.93l0 -883.83c-230.78,0 -366.34,-24.52 -554.81,-149.63 -21.51,-14.28 -117.02,-83.73 -127.76,-99.77 -21.03,14.09 -41.03,32.74 -61.21,48.18 -21.14,16.17 -43.29,33.28 -65.66,48.1 -23.03,15.25 -45.04,30.23 -70.02,43.73 -155.09,83.88 -266.97,109.39 -455.04,109.39z"/>
   <path class="fil1" d="M518.33 1747.65l211.59 125.88 121.28 -74.98c81.69,-50.26 249.48,-147.8 316.81,-197.77 14.39,-10.69 27.67,-19.22 41.56,-30.32 45.84,-36.67 73,-59.02 111.4,-108.06 38.61,-49.32 77.27,-131.99 77.27,-217.86l0 -764.32c-281.1,1173.92 -878.63,1088.54 -1098.64,1055.3 -1.69,-0.26 -107.69,-22.11 -107.69,-22.11 42.67,53.16 214.36,165.3 326.42,234.24z"/>
   <path class="fil1" d="M640.72 1050.95l-157.54 -155.27 -115.84 118.16 271.23 273.39 479.08 -476.92c-8.77,-12.77 -101.78,-110.19 -119.22,-114.85l-357.71 355.49z"/>
  </g>
 </g>
</svg>
